<svg width="155" height="100" viewBox="0 0 155 100" fill="none" xmlns="http://www.w3.org/2000/svg">
<path d="M130.838 12.5979C130.746 12.5303 130.726 12.4046 130.783 12.2384C130.79 12.2272 130.796 12.2156 130.801 12.2036C130.769 12.2664 130.756 12.3362 130.762 12.4056C130.769 12.475 130.795 12.5414 130.838 12.5979Z" fill="#884F56"/>
<path d="M142.025 8.19217C140.899 8.38546 141.377 8.20184 141.997 7.98535C141.891 8.06073 141.868 8.13225 142.025 8.19217Z" fill="#884F56"/>
<path d="M123.977 12.4047C127.942 11.8917 131.903 11.0903 135.846 10.3218C131.881 11.098 127.923 11.9014 123.977 12.4047Z" fill="#884F56"/>
<path d="M114.753 10.7202C116.636 10.61 118.51 10.3568 120.385 10.1577C118.498 10.4225 116.564 10.6177 114.753 10.7202Z" fill="#884F56"/>
<path d="M83.2748 3.73819C88.3423 2.73546 93.3793 4.2802 98.3531 2.60383L98.6975 2.17603C105.538 3.03357 112.384 3.91821 119.241 4.61702C118.884 4.76994 117.517 4.79124 117.637 5.41843C113.101 5.04676 108.409 5.05257 103.94 4.56669C108.647 5.07773 113.383 5.39713 118.098 5.85784C118.237 5.96646 118.409 6.03176 118.589 6.04491C118.769 6.05807 118.949 6.01845 119.104 5.9314C120.734 6.04367 122.558 6.12498 124.102 6.36695C122.603 6.13659 121.095 5.91398 119.603 5.66814C119.858 5.47456 120.105 4.93642 119.791 4.67316C130.217 5.74557 140.831 6.76959 151.144 8.60469C151.149 8.7402 151.128 8.8755 151.08 9.00345C142.268 12.3194 133.225 15.3605 124.5 18.8991L124.265 18.9959C124.274 18.9801 124.281 18.9639 124.288 18.9475C123.962 18.9969 123.658 19.137 123.416 19.3501L122.324 19.7585C121.965 19.5863 121.152 19.6443 121.668 20.0044L120.127 20.5851C117.435 18.3183 114.862 15.9393 112.18 13.6686C112.225 13.6473 112.27 13.6299 112.315 13.6067L112.174 13.6628C108.229 10.3178 104.24 6.97671 100.181 3.79045L99.3475 3.68398C93.3854 10.9857 87.5395 18.3725 81.6202 25.7013C81.5191 25.4204 81.32 25.1806 81.0558 25.0219C80.6483 25.1748 80.6136 25.2426 80.0839 25.5465C85.2696 19.0539 90.3697 12.4956 95.5983 6.03206C93.3059 7.6794 89.8338 7.21481 87.1483 7.69294C83.6578 8.31432 80.198 9.82228 77.2964 11.758C76.9575 11.562 76.5817 11.4305 76.19 11.3709C76.7074 10.5572 77.1775 9.71707 77.598 8.8544C76.5221 9.24155 75.326 9.55321 74.1666 9.4932C74.0518 9.59976 73.9093 9.67558 73.7536 9.71298C73.5979 9.75037 73.4346 9.74801 73.2803 9.70613C72.0067 8.4595 81.9992 3.98984 83.2748 3.73819ZM142.985 7.56131C143.085 7.58842 142.268 7.79167 141.997 7.98137C141.386 8.19818 140.899 8.38208 142.025 8.1885C141.868 8.12849 141.891 8.05687 141.997 7.98137C142.527 7.7878 143.158 7.58454 142.985 7.56131ZM145.023 8.83504C145.161 8.80601 144.261 9.10799 144.393 9.24736C144.758 9.63451 146.178 8.59888 145.023 8.83504ZM147.747 8.32981C147.626 8.30802 147.501 8.33013 147.396 8.39175C147.221 8.56984 147.142 8.77891 147.382 8.88924C147.782 8.93764 147.904 8.75762 147.747 8.32981ZM149.532 9.04604C141.742 10.4591 134.908 13.4983 127.505 15.8696C134.759 13.5622 142.06 10.3991 149.532 9.04604ZM136.255 12.0949H136.267C136.707 12.2691 136.817 11.9497 136.255 12.0949ZM130.841 12.1297C130.827 12.1529 130.814 12.1781 130.802 12.2033C130.797 12.2153 130.791 12.2269 130.784 12.2381C130.727 12.4104 130.747 12.5304 130.839 12.5982C130.886 12.6401 130.945 12.6687 131.008 12.6807C131.071 12.6926 131.137 12.6875 131.197 12.6659C131.073 12.6868 130.945 12.6627 130.839 12.5982C130.797 12.5424 130.772 12.4773 130.766 12.4093C130.759 12.3413 130.772 12.2729 130.802 12.211C130.813 12.1831 130.826 12.1559 130.841 12.1297ZM135.845 10.3217C138.757 9.75259 141.661 9.2009 144.546 8.79439C141.642 9.2009 138.743 9.76227 135.845 10.3217C131.902 11.096 127.941 11.8916 123.976 12.4046C127.923 11.9013 131.88 11.0979 135.845 10.3217ZM120.386 10.1572C121.278 10.0643 122.169 9.98101 123.063 9.93649C123.008 10.2763 123.044 10.6238 123.167 10.947C123.425 10.8024 123.685 10.6585 123.948 10.5153L124.18 10.0836L124.587 9.84551C125.163 9.81067 125.741 9.78615 126.321 9.77195C126.269 9.8797 126.245 9.99801 126.252 10.1165L127.204 10.8056L127.774 10.2036L127.422 9.79518C127.462 9.7584 127.495 9.71775 127.532 9.68097C131.591 9.34995 135.752 8.59694 139.733 8.32594C135.768 8.5892 131.823 8.75955 127.872 9.24349C127.98 9.07702 128.076 8.90667 128.19 8.73825C128.078 8.90667 127.986 9.07702 127.872 9.24349C127.511 9.28414 127.151 9.32285 126.788 9.34996C126.77 9.31511 126.749 9.2822 126.727 9.24736L126.048 8.99958L126.723 9.25317C126.68 9.29188 126.643 9.3306 126.605 9.36931C126.132 9.40222 125.663 9.439 125.195 9.4932L126.038 9.00926C125.79 8.94732 125.323 9.00926 125.779 8.55629C125.449 8.19818 124.826 8.38788 124.227 8.535C123.389 7.6852 123.139 9.3093 123.08 9.72356C122.201 9.88422 121.295 10.0294 120.376 10.1572C118.501 10.3507 116.626 10.6101 114.744 10.7205C116.565 10.6179 118.499 10.4224 120.386 10.1572ZM127.171 7.35612C127.161 7.41791 127.164 7.48111 127.181 7.54151C127.199 7.60192 127.229 7.65816 127.271 7.7065L127.66 8.05881C128.044 7.89457 128.391 7.6597 128.679 7.36774C128.789 7.36774 130.812 7.44904 130.843 7.45097C130.162 7.39677 129.486 7.2574 128.805 7.23029C128.85 7.17609 128.895 7.12383 128.936 7.06769C129.033 7.00575 129.955 6.53729 129.851 6.22757C129.647 5.62555 127.509 6.93412 127.318 7.11028C121.272 6.21596 114.943 7.17222 108.912 6.9167C114.994 7.18384 121.087 7.149 127.171 7.35612ZM95.315 7.17609C94.8994 7.2845 94.8314 7.4342 95.1113 7.62519C94.6406 7.81877 94.4409 8.09946 94.5122 8.48661C95.5005 8.62598 95.7164 8.12462 95.5106 7.42194C95.5473 7.27095 95.5636 7.13544 95.315 7.17609ZM96.0771 6.39018C95.9589 6.51406 95.8428 6.63989 95.7246 6.76571C96.0853 6.96316 96.3298 6.75991 96.0771 6.39018ZM79.5378 7.26321C78.8817 8.38208 78.3315 9.70614 77.5592 10.7476C79.9288 9.16163 82.5401 7.92977 85.3022 7.0948C88.7967 6.07271 92.5561 6.50245 95.7063 4.62864C95.6594 4.64025 95.6146 4.6538 95.5657 4.66348C92.0895 5.32745 88.324 4.18921 84.8009 4.40021C81.1047 4.61895 78.3621 6.1424 75.5991 8.46531C76.952 8.2156 78.248 7.69488 79.5378 7.26321Z" fill="#884F56"/>
<path d="M9.5365 96.3338C9.9644 96.4693 10.3271 96.3338 10.6246 95.9253C13.7544 94.8103 17.0573 94.0496 19.9609 92.4197C19.6186 92.952 18.3573 93.3024 18.3594 93.9354C16.4645 94.7673 14.5239 95.5021 12.5461 96.1363C12.5929 96.0667 12.6398 95.9989 12.6948 95.9312C12.4279 95.8266 12.1345 95.9002 11.8655 96.1634C11.7854 96.236 11.7223 96.3237 11.6801 96.4209C10.6348 96.7809 1.23729 100.583 0.768637 99.4271C0.583214 98.9645 8.78666 96.6222 9.5365 96.3338Z" fill="#884F56"/>
<path d="M57.2072 61.6757C57.8001 61.4105 58.3951 61.153 58.9941 60.9014C58.4012 61.1646 57.8062 61.426 57.2072 61.6757Z" fill="#884F56"/>
<path d="M1.06448 92.2667C2.97169 91.4362 5.24976 91.233 7.27922 90.7897C7.25476 90.811 7.23032 90.8323 7.20383 90.8516L7.55022 91.2833L8.30821 90.5651C15.556 89.0165 22.2292 86.8582 27.3395 81.5155C33.0591 75.5417 39.5123 65.3248 49.0075 64.5601C59.144 51.7557 69.3165 38.9797 79.5249 26.2321L79.8794 27.4303L80.1219 27.5406C71.2481 38.5145 62.2052 49.3722 53.5249 60.4834C53.3779 60.3777 53.1999 60.3181 53.0155 60.3131C52.9177 60.7544 52.9198 60.8357 53.3395 60.7215C52.068 62.3418 50.768 63.9407 49.468 65.5474C51.9746 64.1339 54.5548 62.8418 57.1988 61.6758C57.7978 61.4261 58.3928 61.1648 58.9857 60.9015C67.9757 57.0513 77.4404 54.0838 85.9719 49.4806C81.4749 51.8577 76.6213 53.4237 71.8512 55.2143C73.1757 53.4527 67.8249 54.7981 69.7668 56.0002C66.0766 57.3746 62.5801 59.2736 58.9857 60.9035C58.3867 61.159 57.7917 61.4165 57.1988 61.6778C55.9666 62.1996 54.7071 62.6609 53.4251 63.0599C63.2423 56.8093 73.5669 51.3795 83.0052 44.6295C90.3854 39.3527 98.4421 34.6971 106.081 29.7416C110.768 26.7025 115.409 23.5917 120.126 20.5874C124.556 27.2851 129.143 34.0429 133.371 40.787L133.597 40.7154C135.808 36.6794 137.982 32.6181 140.262 28.6169C140.232 29.035 141.648 28.3033 141.656 27.8426C141.656 27.5852 140.476 28.2511 140.458 28.2685C143.039 23.7014 145.639 19.1446 148.258 14.5981C148.869 14.7027 148.832 14.0774 148.769 13.7193C149.356 12.7127 149.943 11.7061 150.542 10.7053L150.803 11.0673C149.841 12.9798 148.838 14.873 147.842 16.7701C147.783 16.7456 147.722 16.7243 147.661 16.7062C147.614 16.7797 147.569 16.8533 147.524 16.9269C147.602 16.9269 147.679 16.9269 147.759 16.9269C144.366 23.3923 140.831 29.79 137.32 36.1935C137.34 35.9051 137.177 35.6844 137.059 35.4482L136.448 36.1044C136.531 36.3271 136.651 36.9446 137.059 36.6619C136.218 38.1912 135.375 39.7198 134.528 41.2478C134.936 42.5041 134.049 45.249 133.827 46.5924C133.277 49.8781 132.382 53.1031 131.154 56.2189C130.486 57.9263 122.309 72.6981 120.151 71.0004C120.452 70.8804 121.512 69.8893 120.399 70.2609C120.306 69.8141 120.249 69.3611 120.228 68.9059C120.359 68.8832 120.478 68.8195 120.565 68.7251C120.653 68.6307 120.705 68.511 120.713 68.3852C120.637 68.3436 120.551 68.3217 120.463 68.3217C120.375 68.3217 120.288 68.3436 120.212 68.3852C120.212 68.1529 120.202 67.9071 120.212 67.638C118.663 67.6167 116.781 67.4289 115.375 66.7301C115.907 66.343 116.444 65.9558 116.97 65.5687C117.512 66.1939 118.382 65.8358 117.628 65.0421C121.5 61.8307 125.227 58.1431 127.955 53.9851C130.51 50.0903 131.513 45.6458 133.815 41.7298C105.466 50.4155 76.821 58.2534 48.4309 66.8308C46.5013 69.5583 43.3919 71.947 41.2014 74.5467C41.1586 73.695 39.5449 75.4875 40.8448 74.961C34.7116 82.0052 29.8254 87.8686 21.3408 92.4157C21.4692 92.1704 21.4996 91.8891 21.4264 91.624C27.7308 88.1667 32.4458 83.7842 36.7839 78.1763C36.8732 78.2038 36.9676 78.213 37.061 78.2034L37.0243 78.2343L37.1201 78.2014H37.0671C37.3986 77.9433 37.4814 77.7033 37.3157 77.4813C38.9906 75.2436 40.8571 73.1898 42.6604 71.0546C39.9911 73.4124 37.5133 75.9289 35.0112 78.4454C34.8224 78.3756 34.6253 78.3282 34.4243 78.304C37.0956 75.5688 39.7812 72.8742 42.6074 70.2842C44.3862 68.6543 46.9007 67.3031 48.3249 65.4312C42.6196 67.7677 38.196 71.283 34.0474 75.6675C33.2323 75.5204 31.2273 77.0032 32.1402 77.6827C30.1718 79.7442 28.2931 81.9297 26.117 83.7939C26.9544 82.7853 24.548 84.7521 25.9275 83.9603C19.6109 89.2333 10.14 91.7518 1.91621 92.6945C2.58658 93.1145 3.15712 93.8037 3.8275 94.2431C3.73987 94.4192 3.6543 94.5973 3.56871 94.7754C3.51981 94.8006 3.46887 94.82 3.41997 94.8432C3.01245 94.0689 1.6391 93.8947 1.07671 93.3062C0.628433 92.8184 -0.052124 91.3646 1.06448 92.2667ZM79.0257 50.0477C78.5285 49.3567 77.4832 49.6102 76.8821 49.9819C76.3992 50.3342 76.3544 50.7214 76.7497 51.1434C72.0244 53.5244 67.0343 56.068 62.1114 57.9185C67.2238 56.0021 72.2995 53.7508 77.1755 51.3582C77.8602 51.5518 79.097 51.2498 79.1337 50.3904C80.992 49.4225 82.9257 48.3114 84.7534 47.4499C82.8686 48.3423 80.9553 49.2521 79.0257 50.0477ZM84.9511 45.7058C85.2425 45.8316 85.4768 45.7349 85.6561 45.4116C85.3654 45.2374 85.1304 45.3354 84.9511 45.7058ZM132.104 48.3927C128.312 55.0265 124.014 61.1009 118.062 66.2017C119.218 66.343 120.383 66.4417 121.526 66.6198C121.382 67.6012 121.247 68.5846 121.119 69.568C127.537 62.8547 130.272 56.9584 132.224 48.1739C132.183 48.2475 132.144 48.321 132.104 48.3927ZM107.976 41.2652C107.478 41.1452 107.192 41.3007 107.12 41.7317L107.781 41.6523C107.976 41.5362 108.064 41.3949 107.976 41.2652ZM118.264 25.3048C118.422 25.1984 118.573 25.082 118.714 24.9564C118.67 24.4008 117.624 25.692 118.27 25.3048H118.264ZM120.589 24.757C120.088 24.6357 119.802 24.7912 119.731 25.2235L120.391 25.1422C120.585 25.0183 120.675 24.8848 120.595 24.757H120.589ZM120.774 26.656C120.406 26.1914 119.303 27.4013 119.348 27.4303C119.43 27.4593 121.155 27.1303 120.781 26.656H120.774ZM120.424 28.5182C120.304 29.0544 120.322 29.0621 121.078 28.826C121.002 28.7307 120.904 28.6533 120.792 28.5999C120.68 28.5465 120.556 28.5186 120.43 28.5182H120.424ZM120.783 41.7007C121.385 41.553 121.959 41.3137 122.482 40.9922L120.202 41.782C120.4 41.7709 120.596 41.7437 120.789 41.7007H120.783ZM118.013 36.2148C118.376 36.1315 120.035 35.9012 119.876 35.185C119.739 34.5694 117.416 35.9283 117.71 35.7831C117.785 35.9427 117.888 36.0892 118.013 36.2167C117.724 36.4069 117.458 36.6263 117.219 36.871C117.46 36.6259 117.729 36.4059 118.02 36.2148H118.013ZM115.365 31.3754C115.409 31.2089 115.456 31.0424 115.503 30.876C115.44 30.8203 115.356 30.7894 115.27 30.7894C115.183 30.7894 115.1 30.8203 115.036 30.876C114.549 31.2225 114.941 31.3289 115.365 31.3812V31.3754ZM113.618 25.0629C113.655 25.0532 113.7 24.9951 113.741 24.9603C113.649 24.8809 113.571 24.9003 113.508 25.0145C113.545 25.0377 113.578 25.0764 113.618 25.0687V25.0629ZM108.473 45.3438C108.397 45.2478 108.298 45.1699 108.185 45.1165C108.071 45.0631 107.946 45.0355 107.819 45.036C107.699 45.5645 107.717 45.5723 108.473 45.3438ZM108.17 43.1738C107.801 42.7093 106.699 43.9191 106.743 43.9482C106.788 43.9772 108.547 43.6384 108.17 43.1661V43.1738ZM104.885 37.9221L103.986 38.1273C104.512 38.799 105.869 38.9558 104.885 37.9144V37.9221ZM89.8067 43.3423C91.233 44.0507 94.1529 43.4758 94.9456 42.1808C93.342 40.9671 88.4334 42.6493 89.8088 43.3306L89.8067 43.3423ZM89.065 53.6676C81.8621 56.2073 74.3942 58.6328 66.8835 60.5531C74.1762 58.7006 81.9599 56.2035 89.065 53.6676ZM71.6108 58.1741C77.1654 55.7273 82.9929 53.7508 88.5047 51.4531C84.6088 53.1101 80.3542 53.867 76.4522 55.5472C74.3453 56.4532 72.2812 57.4481 70.1865 58.3754C64.7991 60.7544 59.2486 63.3309 53.6309 65.1041C59.7315 63.1703 65.7812 60.7467 71.6108 58.176V58.1741ZM46.864 67.2721C46.6133 67.4967 46.3546 67.7135 46.0693 67.9574C46.1569 67.8974 46.2425 67.8393 46.3199 67.7832C46.593 67.5896 46.8375 67.396 47.0738 67.2528L46.8171 67.3302L46.864 67.2721Z" fill="#884F56"/>
<path d="M66.883 60.5544C74.3895 58.6342 81.8615 56.2087 89.0645 53.6689C81.9593 56.2029 74.1756 58.7 66.883 60.5544Z" fill="#884F56"/>
<path d="M3.82565 95.2091C4.06609 95.0929 4.30653 94.9691 4.5429 94.8219L4.55512 94.791C4.63669 94.8821 4.69392 94.9905 4.72195 95.1071C4.74997 95.2237 4.74796 95.345 4.71609 95.4607C6.61922 94.1057 10.0139 93.7457 12.2145 93.043C15.0305 92.1487 17.9667 91.3337 20.6177 90.0464C25.7586 87.5532 29.5832 83.159 33.4831 79.2449C34.8545 80.538 22.3333 89.5664 20.8907 90.2787C18.4455 91.4924 15.7702 92.3016 13.1681 93.1688C11.589 93.6934 6.3034 96.2079 4.68145 95.5614C4.45935 96.1247 2.09368 98.9451 1.61077 98.3412C0.93224 97.501 3.44666 95.0252 3.82565 95.2091Z" fill="#884F56"/>
<path d="M75.5645 12.1161L75.5033 12.1779L75.3525 12.0465L75.5135 11.9614C75.5255 12.0143 75.5426 12.0661 75.5645 12.1161Z" fill="#884F56"/>
<path d="M127.427 9.79741L127.019 9.72589C127.192 9.71043 127.368 9.69883 127.543 9.6853C127.5 9.72589 127.468 9.75875 127.427 9.79741Z" fill="#884F56"/>
<path d="M154.34 10.9783C155.107 11.3925 139.152 40.0573 138.133 42.053C139.503 39.3584 151.861 9.64258 154.34 10.9783ZM146.443 25.3281L146.337 25.4384L146.487 25.421L146.443 25.3281ZM149.638 19.1201C149.638 19.1607 149.623 19.2014 149.613 19.2498H149.762C149.821 19.1278 149.78 19.0833 149.638 19.1201Z" fill="#884F56"/>
<path d="M66.3243 64.7538C66.3504 64.7907 66.3812 64.8245 66.416 64.8543L65.7925 64.9664C65.711 64.7306 65.8883 64.661 66.3243 64.7538Z" fill="#884F56"/>
<path d="M90.0462 56.9582C89.655 57.5544 92.797 57.6899 93.3839 56.1839C93.2437 56.064 93.0676 55.9887 92.8801 55.9686C92.6927 55.9485 92.5034 55.9845 92.3386 56.0716C93.8342 55.4909 111.384 49.2965 111.678 50.0708C111.741 50.2431 94.26 57.1053 92.6034 57.7383C86.0729 60.2277 78.8047 61.7686 72.0235 63.6153C70.5972 64.0024 69.1709 64.3025 67.718 64.5832C67.7569 64.5391 67.7904 64.4911 67.8179 64.4399C75.3387 62.5332 82.7618 59.5657 90.0462 56.9582Z" fill="#884F56"/>
<path d="M53.1818 56.5477C53.1503 56.529 53.1159 56.5152 53.0799 56.5071C53.8542 55.0572 54.9911 52.6007 56.3971 51.5573C56.4837 51.3544 56.6064 51.1671 56.7598 51.0037C57.0839 50.226 57.4937 49.483 57.9824 48.7872C58.231 49.0079 58.559 49.0512 58.9665 48.9169C58.8621 48.6414 58.6652 48.406 58.4062 48.2472C59.7531 46.5418 74.4055 26.9693 75.6913 28.001C75.7198 28.0243 70.8214 34.2284 70.4057 34.8246C70.1638 34.9119 69.9468 35.0517 69.772 35.233L69.988 35.444C67.0152 39.9643 63.6408 44.2347 59.9018 48.2085C56.0303 52.3103 53.4527 57.3201 49.7871 61.5884C50.8405 60.365 51.8247 58.5164 52.76 57.0452C52.8767 57.0154 52.9804 56.9512 53.0562 56.8618C53.132 56.7724 53.176 56.6624 53.1818 56.5477Z" fill="#884F56"/>
<path d="M83.8444 16.8316C86.2141 14.5087 88.6552 12.0386 90.7539 9.6499C89.5313 11.032 88.7163 12.5826 87.7627 14.1409C86.3649 16.4289 84.5697 18.6725 82.744 20.7341C81.1139 22.5692 78.789 23.9029 77.2812 25.3663C79.6326 23.0899 81.0223 20.0082 83.1801 17.5343C83.6732 17.451 83.769 17.3097 83.8444 16.8316Z" fill="#884F56"/>
<path d="M150.096 7.46459C150.171 7.19745 135.808 5.20362 134.63 5.01585L134.834 4.95003C134.916 4.66378 134.91 4.36108 134.817 4.07796C134.723 3.79483 134.546 3.54321 134.306 3.35303C135.421 3.5408 150.295 6.75804 150.096 7.46459Z" fill="#884F56"/>
<path d="M106.739 0.569588C106.805 0.621385 106.889 0.648562 106.975 0.64607C107.061 0.643577 107.143 0.611588 107.206 0.55604C116.086 0.410858 125.092 2.01947 133.854 3.28159C132.56 3.37257 133.699 4.2727 133.65 4.85149C129.992 4.21656 126.28 3.98234 122.636 3.27191C122.704 3.22352 123.166 2.87121 122.92 2.76087C122.757 2.75936 122.597 2.79352 122.451 2.86069C122.305 2.92785 122.177 3.02619 122.078 3.14802C121.41 2.99316 120.748 2.80346 120.079 2.6486C113.076 0.993521 105.794 1.31292 98.6843 0.325684C101.091 0.668313 104.143 0.668312 106.739 0.569588ZM122.498 2.27693C122.547 2.3079 122.72 2.23434 122.834 2.20918C123.645 1.55683 121.974 1.94592 122.498 2.27693Z" fill="#884F56"/>
</svg>
