<svg width="29" height="21" viewBox="0 0 29 21" fill="none" xmlns="http://www.w3.org/2000/svg">
<path opacity="0.1" d="M23.1085 7.24345C23.7801 6.01741 25.0011 4.69942 27.0769 3.44273C27.6569 3.10557 28.0232 2.49256 28.0232 1.84889C28.0232 0.530896 26.6801 -0.388631 25.459 0.163085C21.9179 1.72628 16.0264 5.61895 16.0264 13.6801C16.0264 17.297 18.9264 20.2088 22.5285 20.2088C26.1306 20.2088 29.0001 17.297 29.0001 13.7108C29.0001 10.3085 26.4053 7.54996 23.1085 7.24345Z" fill="black"/>
<path opacity="0.1" d="M7.05158 7.24345C7.72316 6.01741 8.94421 4.69942 11.02 3.44273C11.6 3.10557 11.9663 2.49256 11.9663 1.84889C11.9663 0.530896 10.6232 -0.388631 9.40211 0.163085C5.89158 1.72628 0 5.61895 0 13.6801C0 17.297 2.9 20.2088 6.47158 20.2088C10.0432 20.2088 12.9737 17.297 12.9737 13.6801C12.9737 10.3085 10.379 7.54996 7.05158 7.24345Z" fill="black"/>
</svg>
