<svg width="20" height="15" viewBox="0 0 20 15" fill="none" xmlns="http://www.w3.org/2000/svg">
<path d="M20 2.87081C20 2.10936 19.6991 1.37927 19.1631 0.840738C18.6273 0.302375 17.9007 0 17.1429 0H2.85714C2.09932 0 1.3727 0.30238 0.836904 0.840738C0.300977 1.37923 0 2.10932 0 2.87081V12.1292C0 12.8906 0.300939 13.6207 0.836904 14.1593C1.3727 14.6976 2.09928 15 2.85714 15H17.1429C17.9007 15 18.6273 14.6976 19.1631 14.1593C19.699 13.6208 20 12.8907 20 12.1292V2.87081ZM19.0477 12.1292C19.0441 12.3458 19.0037 12.5602 18.9286 12.7632L13.631 6.71779L19.0477 4.12218L19.0477 12.1292ZM2.85723 0.956938H17.1429C17.6482 0.956938 18.1326 1.15853 18.4899 1.51747C18.847 1.87642 19.0477 2.36321 19.0477 2.87086V3.06227L10.1213 7.342C10.0552 7.37454 9.97781 7.37454 9.91187 7.342L0.952262 2.8179C0.965881 2.31961 1.17265 1.84618 1.52841 1.49857C1.88416 1.15097 2.36081 0.956532 2.85707 0.956703L2.85723 0.956938ZM1.07151 12.7896C0.993456 12.579 0.953095 12.3564 0.952432 12.1317V3.8879L6.44308 6.66054L1.07151 12.7896ZM2.85723 14.0432C2.40931 14.0426 1.97598 13.8834 1.63338 13.5935L7.32173 7.103L9.48363 8.19387C9.81413 8.35657 10.2008 8.35657 10.5313 8.19387L12.736 7.13401L18.3789 13.5741C18.0347 13.8792 17.5926 14.049 17.1338 14.0525L2.85723 14.0432Z" fill="black"/>
</svg>
