<svg width="80" height="80" viewBox="0 0 80 80" fill="none" xmlns="http://www.w3.org/2000/svg">
<circle cx="40" cy="40" r="40" fill="#884F56"/>
<path d="M35.28 43.6C35.2533 43.6 35.24 43.6267 35.24 43.68C35.2133 43.68 35.2 43.7067 35.2 43.76C35.2267 43.76 35.24 43.7333 35.24 43.68C35.2667 43.68 35.28 43.6533 35.28 43.6C35.3333 43.6 35.4667 43.5333 35.68 43.4L36.36 42.84C36.44 42.76 36.6933 42.5733 37.12 42.28C37.5467 41.96 37.8667 41.7067 38.08 41.52C38.5867 41.0133 38.9067 40.7333 39.04 40.68C39.04 40.6533 39.0533 40.6133 39.08 40.56C39.1333 40.48 39.16 40.4267 39.16 40.4C39.9333 39.68 41.4133 38.0667 43.6 35.56C43.6 35.3733 43.7467 35.1867 44.04 35C43.9067 35.2933 43.68 35.6533 43.36 36.08C43.04 36.48 42.8267 36.76 42.72 36.92C42.5867 36.9733 42.44 37.12 42.28 37.36C42.1467 37.6 42 37.7467 41.84 37.8C41.8133 37.9067 41.76 38.0133 41.68 38.12C41.6 38.2 41.56 38.2667 41.56 38.32C41.5067 38.32 41.4667 38.3333 41.44 38.36C41.4133 38.3867 41.3867 38.4 41.36 38.4C39.9733 40.1067 38.2 41.88 36.04 43.72C35.56 44.0667 35.3067 44.2533 35.28 44.28C35.52 44.2267 35.7733 44.04 36.04 43.72C36.84 43.2667 37.4267 42.7733 37.8 42.24C37.8533 42.24 37.9733 42.1467 38.16 41.96H38.28C38.36 41.9067 38.48 41.8 38.64 41.64C38.8 41.4533 38.92 41.3333 39 41.28C39.72 40.56 40.1467 40.0533 40.28 39.76C40.5733 39.6 40.9467 39.1867 41.4 38.52C41.4267 38.52 41.4533 38.52 41.48 38.52C41.5067 38.4933 41.5467 38.48 41.6 38.48C41.92 38.1067 42.3733 37.56 42.96 36.84C43.5467 36.0933 43.9867 35.5333 44.28 35.16V35C44.4133 34.9733 44.5333 34.8133 44.64 34.52C44.88 34.3867 45.0667 34.1467 45.2 33.8C45.52 33.4533 46 32.7867 46.64 31.8C46.8533 31.5067 46.96 31.3333 46.96 31.28C46.9333 31.3333 46.8933 31.3867 46.84 31.44C46.7867 31.4933 46.7333 31.5467 46.68 31.6C46.6533 31.6533 46.64 31.72 46.64 31.8C46.4267 32.04 46.1333 32.4 45.76 32.88C45.3867 33.36 45.1067 33.7067 44.92 33.92C44.92 33.84 45 33.6933 45.16 33.48C45.32 33.2667 45.4267 33.08 45.48 32.92H45.72C45.8267 32.6267 46.0267 32.2667 46.32 31.84C46.64 31.4133 46.8133 31.1733 46.84 31.12C46.8667 31.12 46.88 31.1333 46.88 31.16C46.88 31.16 46.8933 31.16 46.92 31.16C46.8933 31 47.0267 30.8133 47.32 30.6C47.2933 30.5467 47.2933 30.4933 47.32 30.44C47.3467 30.3867 47.36 30.3333 47.36 30.28C47.52 30.12 47.7467 29.8 48.04 29.32C48.3333 28.84 48.6 28.5067 48.84 28.32C49 27.8933 49.28 27.3333 49.68 26.64C50.1067 25.92 50.4 25.3733 50.56 25C50.5333 24.8133 50.3733 24.7867 50.08 24.92C49.7867 25.0267 49.6133 25.0667 49.56 25.04C49.6133 24.88 49.68 24.72 49.76 24.56C49.84 24.4 49.9467 24.24 50.08 24.08C50.2133 23.8933 50.32 23.7467 50.4 23.64C50.48 23.5333 50.6133 23.3867 50.8 23.2C50.9867 22.9867 51.1067 22.8533 51.16 22.8H51.24C51.32 22.8533 51.48 22.96 51.72 23.12C51.9867 23.2533 52.2 23.3867 52.36 23.52C52.52 23.6533 52.6533 23.8 52.76 23.96C52.6533 24.6533 52.48 25.2933 52.24 25.88C52 26.44 51.6267 27.1067 51.12 27.88C50.64 28.6533 50.3467 29.1467 50.24 29.36C50.2933 29.1467 50.4133 28.88 50.6 28.56C50.8133 28.24 50.9467 28.0267 51 27.92C50.7067 28.2933 50.3333 28.8267 49.88 29.52C49.4533 30.2133 49.1867 30.64 49.08 30.8H48.92C48.92 30.88 48.9467 30.92 49 30.92C48.8133 31.24 48.6667 31.4133 48.56 31.44C48.5333 31.52 48.5333 31.5867 48.56 31.64C47.7333 32.68 47.0533 33.6267 46.52 34.48C46.4933 34.48 46.4533 34.4933 46.4 34.52C46.3733 34.52 46.3333 34.5333 46.28 34.56C46.1733 34.9333 46.0133 35.1467 45.8 35.2C45.2933 36.1067 44.5333 37.1067 43.52 38.2V38.32C43.3867 38.4267 43.1867 38.64 42.92 38.96C42.68 39.28 42.4533 39.4933 42.24 39.6C42 40 41.5867 40.4933 41 41.08C40.4133 41.64 40.0267 42.04 39.84 42.28C39.7867 42.2533 39.7467 42.2667 39.72 42.32C39.6667 42.3467 39.6267 42.36 39.6 42.36C39.2 42.8667 38.32 43.6533 36.96 44.72C36.8533 44.88 36.6533 45.0533 36.36 45.24C36.0933 45.4 35.92 45.52 35.84 45.6C36.4267 45.92 36.8667 46.12 37.16 46.2C37.24 46.28 37.4133 46.3867 37.68 46.52C37.9733 46.6267 38.16 46.7333 38.24 46.84C38.96 47.16 39.3733 47.4 39.48 47.56C39.2933 47.6667 39.1733 47.6 39.12 47.36C39.0667 47.3867 39.0267 47.4267 39 47.48C38.9733 47.5067 38.9467 47.52 38.92 47.52C38.92 47.5467 38.9467 47.5867 39 47.64C39.0533 47.6667 39.0667 47.7067 39.04 47.76C39.0933 47.7067 39.1467 47.72 39.2 47.8C39.2533 47.88 39.3067 47.92 39.36 47.92C39.4133 47.92 39.48 47.7867 39.56 47.52V48C39.56 48.0267 39.5867 48.0667 39.64 48.12C39.72 48.1467 39.7733 48.1333 39.8 48.08C39.9067 48.2133 40.12 48.3733 40.44 48.56C40.76 48.7467 40.9733 48.9067 41.08 49.04C41.1067 49.04 41.1333 49.0267 41.16 49C41.2133 48.9467 41.2667 48.9333 41.32 48.96C41.6667 49.2533 41.9333 49.4267 42.12 49.48C42.12 49.64 42.2133 49.7867 42.4 49.92C42.6667 50.0533 43.1067 50.3333 43.72 50.76C44.36 51.2133 44.88 51.5067 45.28 51.64C45.36 51.7467 45.5467 51.8933 45.84 52.08C46.16 52.2667 46.36 52.44 46.44 52.6C46.5733 52.6267 46.7067 52.72 46.84 52.88C47 53.04 47.1333 53.1333 47.24 53.16C47.1867 53.0267 47.0667 52.8533 46.88 52.64C46.72 52.4533 46.5733 52.36 46.44 52.36C46.44 52.2267 46.32 52.08 46.08 51.92C45.8667 51.76 45.7467 51.6 45.72 51.44C45.64 51.4667 45.6 51.52 45.6 51.6C45.52 51.36 45.4933 51.2267 45.52 51.2C46 51.28 46.1733 51.4533 46.04 51.72C46.0933 51.7467 46.12 51.7333 46.12 51.68C46.1467 51.6267 46.1733 51.6 46.2 51.6C46.2267 51.6 46.24 51.6533 46.24 51.76C46.48 51.84 46.68 51.9467 46.84 52.08C47.0267 52.2133 47.24 52.4133 47.48 52.68C47.72 52.9467 47.8667 53.1067 47.92 53.16C47.92 53.2133 47.9467 53.3333 48 53.52C47.8667 53.8133 47.7733 54.36 47.72 55.16C47.6933 55.16 47.56 55.2533 47.32 55.44C47.2933 55.44 47.08 55.4667 46.68 55.52C46.68 55.44 46.6133 55.36 46.48 55.28C46.3467 55.2 46.2667 55.1067 46.24 55C46.4 54.92 46.4267 54.72 46.32 54.4C46.2133 54.08 46.16 53.8667 46.16 53.76C45.76 53.36 45.3867 53.08 45.04 52.92C45.04 52.8667 45.0133 52.8 44.96 52.72C44.9333 52.6667 44.9333 52.6133 44.96 52.56C44.7467 52.3467 44.2 51.9333 43.32 51.32C43.2933 51.4 43.3333 51.48 43.44 51.56C43.5733 51.6667 43.6267 51.7733 43.6 51.88C43.4933 51.8533 43.36 51.7733 43.2 51.64C43.0667 51.5067 42.9467 51.4267 42.84 51.4C42.8667 51.2933 42.9467 51.28 43.08 51.36C43.1333 51.3867 43.1733 51.4 43.2 51.4C43.2 51.32 43.1333 51.2533 43 51.2C42.8933 51.1467 42.84 51.0933 42.84 51.04C42.8133 51.0667 42.76 51.0933 42.68 51.12C42.6 51.1467 42.5467 51.16 42.52 51.16C42.4667 51.0267 42.2933 50.9067 42 50.8C41.7067 50.72 41.52 50.5867 41.44 50.4C41.52 50.3467 41.6267 50.36 41.76 50.44C41.68 50.36 41.5333 50.2667 41.32 50.16C41.1067 50.0533 40.96 49.9733 40.88 49.92C40.88 50 40.92 50.0533 41 50.08C41.08 50.1333 41.1467 50.1733 41.2 50.2C41.28 50.2533 41.32 50.32 41.32 50.4C41.2667 50.4 41.2 50.3867 41.12 50.36C41.0667 50.3333 41 50.2933 40.92 50.24C40.84 50.2133 40.7733 50.1867 40.72 50.16C40.72 50.0533 40.7467 49.9867 40.8 49.96C40.72 49.88 40.6 49.7867 40.44 49.68C40.28 49.6 40.16 49.5333 40.08 49.48C40.08 49.5333 40.1067 49.5867 40.16 49.64C40.2133 49.6933 40.28 49.7333 40.36 49.76C40.44 49.7867 40.5067 49.8133 40.56 49.84C40.6133 49.8933 40.64 49.9467 40.64 50C40.6133 50.08 40.52 50.0667 40.36 49.96C40.2267 49.8533 40.1333 49.76 40.08 49.68C39.8933 49.6533 39.6667 49.56 39.4 49.4C39.16 49.2667 38.9467 49.1733 38.76 49.12C38.52 48.9333 38.1067 48.72 37.52 48.48C36.9333 48.2133 36.5333 48.0133 36.32 47.88C36.1867 47.9067 36.0267 47.8667 35.84 47.76C35.68 47.6533 35.56 47.6133 35.48 47.64C35.3733 47.5067 35.16 47.4 34.84 47.32C34.52 47.24 34.32 47.1733 34.24 47.12C34.16 47.1733 34.0933 47.3067 34.04 47.52C34.0133 47.7067 33.96 47.8267 33.88 47.88C33.8 48.3867 33.6 49.1467 33.28 50.16C32.9867 51.2 32.8 51.9867 32.72 52.52C32.5333 52.84 32.4133 53.2267 32.36 53.68C32.4667 53.5733 32.6 53.3867 32.76 53.12C32.92 52.8533 33.0267 52.68 33.08 52.6C33.1333 52.7067 33.0667 52.88 32.88 53.12C32.6933 53.3867 32.6 53.56 32.6 53.64C32.68 53.5867 32.76 53.48 32.84 53.32C32.9467 53.16 33.0133 53.0667 33.04 53.04C32.9867 53.1733 32.9333 53.3733 32.88 53.64C32.8267 53.9067 32.76 54.1333 32.68 54.32C32.6267 54.5333 32.5467 54.7067 32.44 54.84C32.44 54.9467 32.4667 55.0133 32.52 55.04C32.4933 55.0667 32.44 55.08 32.36 55.08C32.4133 55.1867 32.3867 55.3333 32.28 55.52C32.2 55.4933 32.1867 55.4267 32.24 55.32C32.2933 55.2133 32.28 55.16 32.2 55.16C32.1733 55.16 32.12 55.2667 32.04 55.48C32.0133 55.5333 31.9733 55.5467 31.92 55.52C31.92 55.7067 31.8533 55.9867 31.72 56.36C31.6133 56.7333 31.56 57.0267 31.56 57.24C31.6133 57.1867 31.8267 56.7467 32.2 55.92C32.28 56.16 32.24 56.5467 32.08 57.08C31.9467 57.6133 31.8933 58.0133 31.92 58.28C31.84 58.3867 31.76 58.5333 31.68 58.72C31.6 58.9067 31.52 59.1067 31.44 59.32C31.3867 59.56 31.3333 59.7333 31.28 59.84C31.0933 60.0267 31 60.16 31 60.24C30.92 60.1867 30.8667 60.16 30.84 60.16C30.8133 60.16 30.7733 60.1733 30.72 60.2C30.6667 60.2533 30.6267 60.28 30.6 60.28C30.6 60.2 30.5733 60.1467 30.52 60.12C30.4933 60.0933 30.44 60.08 30.36 60.08C30.28 60.08 30.2133 60.0667 30.16 60.04C30.1867 59.9867 30.16 59.92 30.08 59.84C30 59.7867 29.9733 59.72 30 59.64L29.92 59.72C29.8933 59.7733 29.8533 59.7867 29.8 59.76C29.8 59.7067 29.72 59.52 29.56 59.2C29.7467 58.24 30.3333 55.6933 31.32 51.56C31.5333 51.48 31.6267 51.3867 31.6 51.28C31.68 51.2533 31.72 51.1733 31.72 51.04L31.6 51.28H31.52C31.4133 51.2 31.4533 50.9333 31.64 50.48C31.8267 50.0267 31.9067 49.76 31.88 49.68C32.2 48.6667 32.3867 47.9867 32.44 47.64C32.44 47.5867 32.4533 47.5333 32.48 47.48C32.5333 47.4267 32.56 47.3733 32.56 47.32C32.1067 47.1333 31.7467 46.8267 31.48 46.4C31.24 45.9467 31.1467 45.4533 31.2 44.92C31.2533 44.92 31.2933 44.9067 31.32 44.88C31.3467 44.8267 31.3867 44.8133 31.44 44.84C31.4933 44.5467 31.64 44.3067 31.88 44.12C32.1467 43.9333 32.4 43.9067 32.64 44.04C32.64 43.96 32.7467 43.9333 32.96 43.96C33.1733 43.96 33.3067 43.96 33.36 43.96C33.36 43.9867 33.3867 44.0533 33.44 44.16C33.6 43.84 33.6933 43.5733 33.72 43.36C33.8 43.36 33.8267 43.4 33.8 43.48C33.7733 43.5333 33.76 43.5733 33.76 43.6C33.8933 43.5467 33.9867 43.3867 34.04 43.12C34.12 42.8267 34.1867 42.6267 34.24 42.52C34.1067 42.52 34.0267 42.6133 34 42.8C33.9733 42.9867 33.92 43.0933 33.84 43.12C33.8667 43.0667 33.8933 42.9867 33.92 42.88C33.9467 42.7467 33.9733 42.64 34 42.56C34.0267 42.4533 34.0533 42.36 34.08 42.28L34.12 42.32C34.0933 42.3733 34.1067 42.4133 34.16 42.44C34.2133 42.44 34.24 42.4 34.24 42.32C34.24 42.2133 34.2533 42.16 34.28 42.16C34.2533 42.16 34.2133 42.1867 34.16 42.24C34.1333 42.2133 34.12 42.1867 34.12 42.16C34.1467 42.1067 34.1733 42.0533 34.2 42C34.2267 41.92 34.24 41.8667 34.24 41.84C34.2933 41.84 34.3067 41.8667 34.28 41.92C34.2533 41.9733 34.24 42.0133 34.24 42.04C34.5867 41.8 34.7333 41.4 34.68 40.84C34.7067 40.8133 34.7333 40.7733 34.76 40.72C34.8133 40.64 34.8667 40.5733 34.92 40.52C34.8933 40.3867 34.9467 40.1467 35.08 39.8C35.24 39.4267 35.2933 39.12 35.24 38.88C35.2133 38.96 35.1733 39.12 35.12 39.36C35.0933 39.5733 35.0267 39.72 34.92 39.8C34.9733 39.2667 35.12 38.8133 35.36 38.44C35.36 38.52 35.3333 38.6 35.28 38.68C35.2267 38.7333 35.2267 38.7867 35.28 38.84C35.36 38.7867 35.44 38.6267 35.52 38.36C35.6 38.0933 35.6933 37.92 35.8 37.84L35.68 37.8C35.6 37.7733 35.56 37.7333 35.56 37.68C35.6667 37.28 35.7733 37.0267 35.88 36.92C35.8533 36.9733 35.8267 37.0533 35.8 37.16C35.8 37.24 35.8 37.3067 35.8 37.36C35.8 37.44 35.84 37.4 35.92 37.24C35.9733 37.16 35.9733 37.1067 35.92 37.08C35.92 37.0267 35.96 37 36.04 37C36.0933 36.7067 36.2 36.36 36.36 35.96C36.5467 35.5333 36.6667 35.1733 36.72 34.88C36.72 34.9067 36.6667 35.0133 36.56 35.2C36.4533 35.3867 36.3867 35.5467 36.36 35.68C36.28 35.7867 36.2 35.9867 36.12 36.28C36.04 36.5733 35.9467 36.7733 35.84 36.88C36.1867 35.7867 36.4267 35.1467 36.56 34.96C36.5867 34.64 36.7067 34.1733 36.92 33.56C37.16 32.92 37.3067 32.4533 37.36 32.16L37.4 32.12C37.4267 32.04 37.4933 32.0133 37.6 32.04C37.4667 32.28 37.4133 32.4533 37.44 32.56C37.6 32.2667 37.72 31.9333 37.8 31.56C37.72 31.5867 37.6533 31.7333 37.6 32C37.3333 31.8667 37.4 31.6 37.8 31.2C37.8 30.9867 37.88 30.68 38.04 30.28C38.2 29.8533 38.2933 29.5867 38.32 29.48C38.3733 29.2667 39 27.1733 40.2 23.2C40.2533 23.12 40.36 22.92 40.52 22.6C40.7067 22.28 40.8933 22.0667 41.08 21.96C41.2933 21.9867 41.4533 22.0667 41.56 22.2C41.6933 22.3067 41.8133 22.4667 41.92 22.68C42.0533 22.8667 42.16 23 42.24 23.08V23.44C41.8933 23.7867 41.5333 24.4533 41.16 25.44C40.7867 26.4 40.5733 26.9333 40.52 27.04C40.52 27.3067 40.44 27.6933 40.28 28.2C40.12 28.68 40.0267 29.08 40 29.4C39.9733 29.4 39.9467 29.4267 39.92 29.48C39.8933 29.5067 39.8533 29.5067 39.8 29.48C39.7733 29.88 39.6267 30.44 39.36 31.16C39.12 31.88 38.9733 32.32 38.92 32.48C38.8933 32.48 38.88 32.4933 38.88 32.52C38.8267 32.5733 38.7733 32.5867 38.72 32.56C38.72 32.6133 38.7333 32.6667 38.76 32.72C38.7867 32.7467 38.8 32.7733 38.8 32.8C38.6933 33.12 38.5333 33.6267 38.32 34.32H38.24V34.52C38.24 34.5733 38.1733 34.6267 38.04 34.68C38.12 35.24 37.92 35.8933 37.44 36.64C37.4133 36.9333 37.32 37.2933 37.16 37.72C37.0267 38.1467 36.9467 38.48 36.92 38.72C36.8933 38.72 36.8533 38.7333 36.8 38.76H36.76C36.68 39.2933 36.4533 40.0667 36.08 41.08C35.7333 42.0933 35.5067 42.84 35.4 43.32C35.4267 43.3733 35.4133 43.4133 35.36 43.44C35.3067 43.44 35.28 43.4667 35.28 43.52V43.6ZM48.44 30.04C48.52 29.8267 48.56 29.7333 48.56 29.76C48.56 29.7333 48.5333 29.72 48.48 29.72C48.48 29.7467 48.4533 29.8 48.4 29.88C48.3467 29.96 48.36 30.0133 48.44 30.04ZM47.76 30.16L47.8 30.12C47.88 30.04 47.88 29.9867 47.8 29.96C47.8 29.9867 47.7867 30.0133 47.76 30.04C47.7067 30.0933 47.7067 30.1333 47.76 30.16ZM48.04 30.64C48.04 30.5867 48.08 30.5067 48.16 30.4C48.2667 30.2933 48.2933 30.2133 48.24 30.16C48.0533 30.4267 47.9867 30.5867 48.04 30.64ZM37.92 31.2C37.9467 31.1733 37.9733 31.0933 38 30.96C38.0267 30.8267 38.0667 30.72 38.12 30.64C38.04 30.6667 37.9733 30.76 37.92 30.92C37.8667 31.0533 37.8667 31.1467 37.92 31.2ZM47.6 31.2C47.5733 31.1733 47.5467 31.1867 47.52 31.24C47.4933 31.2933 47.5067 31.3333 47.56 31.36C47.56 31.3333 47.56 31.3067 47.56 31.28C47.5867 31.2533 47.6 31.2267 47.6 31.2L47.76 31C47.8933 30.8933 47.9733 30.7867 48 30.68C47.8667 30.7067 47.7333 30.88 47.6 31.2ZM47.04 31.16C47.0667 31.16 47.08 31.1867 47.08 31.24C47.08 31.2667 47.0933 31.28 47.12 31.28C47.0933 31.2267 47.1067 31.1867 47.16 31.16C47.2133 31.1067 47.24 31.0533 47.24 31C47.1867 31.0267 47.12 31.08 47.04 31.16ZM37.8 31.52C37.8 31.4667 37.8133 31.4267 37.84 31.4H37.8C37.72 31.48 37.72 31.52 37.8 31.52ZM46.92 32.28C46.92 32.2 46.9733 32.1067 47.08 32C47.2133 31.8667 47.2667 31.76 47.24 31.68C47.2133 31.7333 47.16 31.8 47.08 31.88C47.0267 31.9333 46.9733 32 46.92 32.08C46.8933 32.1333 46.8933 32.2 46.92 32.28ZM46.64 32.52L46.6 32.6C46.52 32.6267 46.44 32.6933 46.36 32.8C46.3067 32.9067 46.24 32.96 46.16 32.96C45.5733 33.9733 44.84 34.9467 43.96 35.88C43.9067 35.96 43.8267 36.08 43.72 36.24C43.64 36.3733 43.5467 36.4933 43.44 36.6C43.36 36.7067 43.2533 36.8 43.12 36.88C43.0667 37.12 42.8933 37.3733 42.6 37.64C42.3333 37.9067 42.1733 38.12 42.12 38.28C41.88 38.44 41.5467 38.7733 41.12 39.28C40.72 39.76 40.3867 40.0933 40.12 40.28C40.1467 40.36 40.12 40.44 40.04 40.52C39.96 40.5733 39.92 40.64 39.92 40.72C39.8667 40.7467 39.5733 41.0267 39.04 41.56C38.9067 41.6133 38.7867 41.6933 38.68 41.8C38.6 41.9067 38.6 42 38.68 42.08C41.7733 38.9867 44.4133 35.8267 46.6 32.6C46.6267 32.6 46.64 32.5867 46.64 32.56V32.52C46.7467 32.4133 46.8 32.36 46.8 32.36C46.6933 32.3067 46.64 32.3333 46.64 32.44C46.64 32.4667 46.64 32.4933 46.64 32.52ZM37.8 32.56C37.8 32.5867 37.8133 32.6 37.84 32.6C37.84 32.52 37.8267 32.48 37.8 32.48V32.56ZM37.12 33.48C37.2 33.4267 37.2667 33.3067 37.32 33.12C37.4 32.9067 37.4133 32.76 37.36 32.68C37.3333 32.76 37.2933 32.8933 37.24 33.08C37.1867 33.2667 37.1467 33.4 37.12 33.48ZM37.72 32.92C37.6667 32.92 37.64 32.9333 37.64 32.96C37.6933 32.96 37.72 32.9467 37.72 32.92ZM37.8 33.28L37.76 33.32C37.7333 33.32 37.72 33.3333 37.72 33.36L37.8 33.28ZM46.2 33.8C46.2267 33.7733 46.24 33.72 46.24 33.64C46.2133 33.6133 46.2 33.6667 46.2 33.8ZM36.96 34C37.04 34 37.08 33.96 37.08 33.88C37.1067 33.7733 37.0933 33.7067 37.04 33.68C37.0133 33.7333 36.9867 33.8 36.96 33.88C36.96 33.9333 36.96 33.9733 36.96 34ZM37.24 34.32C37.24 34.2933 37.2667 34.24 37.32 34.16C37.3733 34.0533 37.4 33.9867 37.4 33.96C37.4267 33.9067 37.4133 33.8533 37.36 33.8C37.36 33.88 37.32 33.9733 37.24 34.08C37.1867 34.1867 37.1867 34.2667 37.24 34.32ZM37.44 34.08H37.56C37.5867 34 37.56 33.9467 37.48 33.92C37.48 34 37.4667 34.0533 37.44 34.08ZM36.76 34.76C36.76 34.7333 36.7867 34.68 36.84 34.6C36.8933 34.4933 36.92 34.4133 36.92 34.36C36.9467 34.3067 36.9467 34.2667 36.92 34.24C36.92 34.2667 36.9067 34.3067 36.88 34.36C36.8533 34.4133 36.8267 34.4667 36.8 34.52C36.7733 34.5467 36.7467 34.5867 36.72 34.64C36.72 34.6933 36.7333 34.7333 36.76 34.76ZM37.12 34.68L37.24 34.44C37.1333 34.4133 37.08 34.4667 37.08 34.6C37.08 34.6533 37.0933 34.68 37.12 34.68ZM36.96 35.16C36.9867 35.08 37.04 34.96 37.12 34.8C37.0667 34.8 37.0133 34.8267 36.96 34.88C36.9333 34.9333 36.92 34.9867 36.92 35.04C36.92 35.0933 36.9333 35.1333 36.96 35.16ZM37.64 35.04V35.12C37.6667 35.1467 37.6933 35.1467 37.72 35.12L37.68 35C37.68 35.0533 37.6667 35.0667 37.64 35.04ZM36.72 35.84C36.7733 35.8667 36.8133 35.84 36.84 35.76C36.84 35.6267 36.8133 35.56 36.76 35.56C36.7867 35.6133 36.7867 35.6667 36.76 35.72C36.7333 35.7733 36.72 35.8133 36.72 35.84ZM37.44 35.92C37.6 35.76 37.6 35.6533 37.44 35.6C37.4667 35.6533 37.4667 35.7333 37.44 35.84C37.4133 35.8933 37.4133 35.92 37.44 35.92ZM36.44 36.56C36.52 36.5333 36.5733 36.4267 36.6 36.24C36.6533 36.0533 36.6933 35.9333 36.72 35.88C36.6133 35.9067 36.5467 36.0133 36.52 36.2C36.52 36.3867 36.4933 36.5067 36.44 36.56ZM36.76 36.52C36.76 36.4933 36.7733 36.48 36.8 36.48L36.72 36.44C36.72 36.4933 36.7333 36.52 36.76 36.52ZM36.32 36.96C36.3733 36.96 36.4 36.9467 36.4 36.92C36.4267 36.8933 36.44 36.8533 36.44 36.8C36.44 36.7467 36.4533 36.7067 36.48 36.68C36.4267 36.68 36.3867 36.6933 36.36 36.72C36.36 36.7467 36.36 36.7867 36.36 36.84C36.36 36.8933 36.3467 36.9333 36.32 36.96ZM36.56 37.12C36.5333 37.04 36.52 37 36.52 37C36.5467 36.9733 36.5733 36.9333 36.6 36.88C36.6533 36.8267 36.68 36.7867 36.68 36.76C36.6267 36.76 36.5733 36.7867 36.52 36.84C36.4933 36.8933 36.48 36.96 36.48 37.04C36.48 37.0933 36.5067 37.12 36.56 37.12ZM35.2 40.68C35.2267 40.7333 35.2667 40.7333 35.32 40.68C35.4 40.6 35.4133 40.5467 35.36 40.52C35.36 40.5467 35.3333 40.5733 35.28 40.6C35.2267 40.6 35.2 40.6267 35.2 40.68C35.28 40.3067 35.4533 39.72 35.72 38.92C36.0133 38.0933 36.2 37.48 36.28 37.08C35.9333 38.0133 35.1867 40.2533 34.04 43.8V43.72C34.04 43.64 34.08 43.6 34.16 43.6C34.16 43.6533 34.1333 43.7333 34.08 43.84C34.0267 43.92 33.9867 43.9867 33.96 44.04C33.96 44.0667 34.0133 44.1067 34.12 44.16C34.4667 42.8267 34.8267 41.6667 35.2 40.68ZM36.4 37.36C36.4267 37.36 36.4533 37.36 36.48 37.36C36.48 37.3067 36.4533 37.2533 36.4 37.2V37.36ZM35.68 37.76C35.7867 37.7867 35.8267 37.7467 35.8 37.64C35.8 37.5333 35.76 37.4933 35.68 37.52V37.76ZM43.16 37.6H43.12C43.1467 37.6533 43.16 37.6533 43.16 37.6ZM36.12 38.28C36.0933 38.28 36.08 38.28 36.08 38.28C36.0533 38.28 36.04 38.2933 36.04 38.32C36.0933 38.32 36.12 38.3067 36.12 38.28ZM36.44 39.08C36.44 39.0267 36.4667 38.9733 36.52 38.92C36.5733 38.8133 36.56 38.7467 36.48 38.72C36.48 38.7467 36.4533 38.8133 36.4 38.92C36.3733 39 36.3867 39.0533 36.44 39.08ZM35.84 39.08C35.9733 39.08 36.0133 39.0133 35.96 38.88C35.9067 38.8533 35.8667 38.8667 35.84 38.92C35.84 38.9467 35.84 39 35.84 39.08ZM35.72 39.44C35.8533 39.3067 35.88 39.2133 35.8 39.16C35.72 39.3467 35.6933 39.44 35.72 39.44ZM36.24 39.72C36.24 39.6933 36.2533 39.64 36.28 39.56C36.3067 39.4533 36.2933 39.4 36.24 39.4C36.24 39.4533 36.2133 39.52 36.16 39.6C36.1333 39.6533 36.16 39.6933 36.24 39.72ZM41.52 39.56C41.5467 39.56 41.5733 39.56 41.6 39.56C41.6 39.48 41.5733 39.4267 41.52 39.4V39.56ZM35.64 39.76C35.7733 39.6267 35.7733 39.56 35.64 39.56L35.6 39.64C35.5733 39.72 35.5867 39.76 35.64 39.76ZM35.16 41.04C35.2133 41.0667 35.24 41.04 35.24 40.96L35.2 40.88L35.16 40.92C35.1333 40.9467 35.1333 40.9867 35.16 41.04ZM35.72 41.16C35.88 41 35.8667 40.92 35.68 40.92C35.68 40.9467 35.68 40.9867 35.68 41.04C35.68 41.12 35.6933 41.16 35.72 41.16ZM35.64 41.36H35.56H35.64ZM35.52 41.8C35.52 41.7733 35.5333 41.7333 35.56 41.68C35.6133 41.52 35.6 41.4267 35.52 41.4C35.52 41.4533 35.5067 41.5333 35.48 41.64C35.4533 41.7467 35.4667 41.8 35.52 41.8ZM35 41.84C35 41.8133 34.9867 41.8 34.96 41.8C34.9333 41.8 34.92 41.8133 34.92 41.84H35ZM35.28 42.44C35.28 42.4133 35.2933 42.3733 35.32 42.32C35.3733 42.24 35.4 42.1867 35.4 42.16C35.4267 42.1067 35.4133 42.0667 35.36 42.04C35.36 42.0933 35.3333 42.16 35.28 42.24C35.2267 42.32 35.2267 42.3867 35.28 42.44ZM34.28 42.36C34.3333 42.3867 34.36 42.36 34.36 42.28L34.32 42.2L34.28 42.24C34.2533 42.2667 34.2533 42.3067 34.28 42.36ZM37.36 43.16C37.92 42.8133 38.2267 42.5067 38.28 42.24C38.2533 42.24 38.2133 42.28 38.16 42.36C38.1333 42.44 38.08 42.4533 38 42.4C37.9467 42.5333 37.8267 42.6667 37.64 42.8C37.48 42.9333 37.3867 43.0533 37.36 43.16ZM35.12 42.96C35.1733 42.9333 35.2 42.88 35.2 42.8C35.2267 42.72 35.2133 42.6533 35.16 42.6C35.1867 42.6533 35.1733 42.72 35.12 42.8C35.0667 42.88 35.0667 42.9333 35.12 42.96ZM34.6 43.12C34.6 43.0667 34.6267 42.9867 34.68 42.88C34.7333 42.7733 34.7333 42.6933 34.68 42.64L34.56 42.84C34.5067 43 34.52 43.0933 34.6 43.12ZM34.48 43.56C34.48 43.5333 34.4933 43.4933 34.52 43.44C34.5467 43.36 34.5333 43.32 34.48 43.32C34.32 43.48 34.32 43.56 34.48 43.56ZM34.32 43.96C34.3467 43.9333 34.36 43.88 34.36 43.8C34.3867 43.72 34.3733 43.68 34.32 43.68C34.32 43.7067 34.3067 43.76 34.28 43.84C34.2533 43.92 34.2667 43.96 34.32 43.96ZM33.68 44.28C33.6533 44.2267 33.6667 44.1467 33.72 44.04C33.8 43.9333 33.84 43.84 33.84 43.76C33.6 43.76 33.5467 43.9333 33.68 44.28ZM35.08 44.48C35.1333 44.5067 35.1733 44.48 35.2 44.4C35.2267 44.32 35.2133 44.2667 35.16 44.24C35.16 44.2667 35.1333 44.3067 35.08 44.36C35.0533 44.4133 35.0533 44.4533 35.08 44.48ZM33.96 44.44C33.96 44.4133 33.9733 44.4 34 44.4C34.0533 44.3733 34.08 44.3333 34.08 44.28C34.0267 44.2533 33.9733 44.28 33.92 44.36C33.8933 44.4133 33.9067 44.44 33.96 44.44ZM38.24 47.16H38.28C38.3067 47.1333 38.3067 47.1067 38.28 47.08L38.16 47.12C38.2133 47.12 38.24 47.1333 38.24 47.16ZM33.24 47.24H33.4C33.3733 47.24 33.3467 47.2267 33.32 47.2C33.32 47.1467 33.3067 47.12 33.28 47.12C33.28 47.1733 33.2667 47.2133 33.24 47.24ZM38.48 47.36C38.48 47.2267 38.44 47.16 38.36 47.16C38.3067 47.1867 38.3067 47.24 38.36 47.32C38.3867 47.3733 38.4267 47.3867 38.48 47.36ZM32.72 48.48C32.7733 48.4267 32.8933 48 33.08 47.2C32.76 47.7867 32.64 48.2133 32.72 48.48ZM32.76 47.28H32.72C32.6933 47.3867 32.64 47.56 32.56 47.8C32.48 48.0133 32.44 48.2267 32.44 48.44C32.3333 48.44 32.32 48.56 32.4 48.8C32.4267 48.7733 32.4267 48.72 32.4 48.64C32.4 48.5333 32.4133 48.4667 32.44 48.44C32.6533 47.9067 32.76 47.52 32.76 47.28ZM33.64 47.68C33.72 47.68 33.76 47.6 33.76 47.44L33.68 47.36C33.7067 47.44 33.7067 47.5067 33.68 47.56C33.6533 47.6133 33.64 47.6533 33.64 47.68ZM33.08 48.04C33.08 48.0133 33.1067 48 33.16 48C33.1067 47.9467 33.0667 47.92 33.04 47.92C33.04 48 33.0533 48.04 33.08 48.04ZM33.36 48.56C33.44 48.5067 33.4933 48.4133 33.52 48.28C33.5733 48.12 33.5733 48 33.52 47.92C33.52 48 33.4933 48.1067 33.44 48.24C33.3867 48.3467 33.36 48.4533 33.36 48.56ZM32.4 49.56C32.6667 49.1867 32.7467 48.88 32.64 48.64C32.6133 48.7467 32.5733 48.8933 32.52 49.08C32.4667 49.2667 32.4267 49.4267 32.4 49.56ZM33.32 48.92L33.36 48.68L33.32 48.64C33.32 48.6667 33.3067 48.72 33.28 48.8C33.2533 48.8533 33.2667 48.8933 33.32 48.92ZM32.28 49.32V49.2C32.28 49.12 32.2533 49.08 32.2 49.08C32.2 49.1333 32.2 49.1867 32.2 49.24C32.1733 49.2667 32.2 49.2933 32.28 49.32ZM40.04 49.52C40.04 49.4933 39.96 49.44 39.8 49.36C39.8 49.44 39.8267 49.4933 39.88 49.52C39.9333 49.5733 39.9867 49.5733 40.04 49.52ZM31.72 50.76C31.8267 50.76 31.88 50.6667 31.88 50.48C31.88 50.32 31.92 50.24 32 50.24C31.9467 50.16 31.96 50.0533 32.04 49.92C32.1467 49.7867 32.16 49.6933 32.08 49.64C31.8667 50.04 31.7467 50.4133 31.72 50.76ZM33.08 49.68H33.04C32.88 49.84 32.88 49.92 33.04 49.92C33.04 49.8667 33.04 49.8267 33.04 49.8C33.0933 49.7467 33.1067 49.7067 33.08 49.68ZM32.16 50.36C32.0533 50.6 31.9467 50.9867 31.84 51.52C31.7067 51.5733 31.6667 51.64 31.72 51.72C31.72 51.7467 31.76 51.76 31.84 51.76C31.84 51.7067 31.92 51.4267 32.08 50.92C32.24 50.44 32.3467 50.04 32.4 49.72H32.28C32.3333 49.8267 32.32 49.9333 32.24 50.04C32.16 50.1733 32.1333 50.28 32.16 50.36ZM32.44 50.12C32.4933 50.1467 32.52 50.1333 32.52 50.08C32.5467 49.9733 32.5333 49.92 32.48 49.92C32.48 49.9467 32.48 49.9867 32.48 50.04L32.44 50.12ZM32.88 50.28C32.9867 50.28 33.04 50.2 33.04 50.04C32.9867 50.0133 32.96 49.9867 32.96 49.96C32.9067 50.04 32.88 50.1467 32.88 50.28ZM32.48 50.32C32.48 50.2933 32.4667 50.28 32.44 50.28C32.4133 50.28 32.4 50.2933 32.4 50.32H32.48ZM32.88 50.36C32.8267 50.36 32.8 50.3733 32.8 50.4C32.8533 50.4 32.88 50.3867 32.88 50.36ZM32.32 50.44V50.56C32.3733 50.5867 32.4 50.56 32.4 50.48C32.4267 50.4267 32.4133 50.4 32.36 50.4C32.36 50.4533 32.3467 50.4667 32.32 50.44ZM41.8 50.56H41.84V50.44H41.8V50.56ZM32.44 51.92V51.76V51.92ZM31.4 52C31.48 52.0267 31.52 51.9733 31.52 51.84C31.4667 51.8133 31.44 51.8267 31.44 51.88L31.4 52ZM31.68 51.92C31.0933 53.9467 30.6267 55.9867 30.28 58.04C30.4133 57.5867 30.64 56.6267 30.96 55.16C31.28 53.72 31.5733 52.64 31.84 51.92H31.68ZM32.36 52.16C32.2267 52.2933 32.2133 52.3733 32.32 52.4C32.32 52.3733 32.3333 52.3333 32.36 52.28C32.3867 52.2533 32.3867 52.2133 32.36 52.16C32.4133 52.1333 32.44 52.08 32.44 52C32.3867 51.9733 32.36 52.0267 32.36 52.16ZM31.28 52.36C31.3867 52.36 31.44 52.3067 31.44 52.2C31.44 52.12 31.4 52.0667 31.32 52.04C31.3467 52.12 31.3333 52.2267 31.28 52.36ZM31.2 52.64C31.2267 52.6667 31.2533 52.6667 31.28 52.64C31.2533 52.5867 31.2267 52.5467 31.2 52.52V52.64ZM32.12 52.72C32.1467 52.72 32.1733 52.72 32.2 52.72C32.2 52.64 32.1733 52.5867 32.12 52.56V52.72ZM32.04 53.2C32.12 53.2 32.16 53.1333 32.16 53C32.0267 53 31.9867 53.0667 32.04 53.2ZM30.88 53.92C30.96 53.92 31 53.9067 31 53.88C31.0267 53.8533 31.04 53.8 31.04 53.72C31.04 53.6667 31.0533 53.6267 31.08 53.6C31 53.6 30.9467 53.6533 30.92 53.76L30.88 53.92ZM31.4 54.12C31.4 54.0667 31.4267 54.04 31.48 54.04C31.48 53.96 31.4533 53.8933 31.4 53.84C31.4 53.8667 31.3867 53.92 31.36 54C31.3333 54.0533 31.3467 54.0933 31.4 54.12ZM30.88 54.52V54.32C30.8267 54.2933 30.8 54.32 30.8 54.4C30.8267 54.4533 30.8533 54.4933 30.88 54.52ZM30.72 54.76C30.7733 54.7867 30.8 54.76 30.8 54.68C30.8267 54.6267 30.8133 54.6 30.76 54.6C30.76 54.6267 30.7467 54.6533 30.72 54.68V54.76ZM32.08 56.8C32.08 56.72 32.0933 56.6533 32.12 56.6C32.0933 56.6533 32.08 56.72 32.08 56.8ZM30.24 56.76V56.84C30.2667 56.8667 30.2933 56.8667 30.32 56.84L30.28 56.72L30.24 56.76ZM31.48 57.64C31.48 57.6133 31.4933 57.6 31.52 57.6C31.52 57.52 31.4933 57.48 31.44 57.48C31.44 57.5867 31.4533 57.64 31.48 57.64ZM31.16 57.92C31.24 57.9467 31.28 57.92 31.28 57.84C31.2 57.84 31.16 57.8667 31.16 57.92ZM50.24 29.36C50.1333 29.6533 50.0133 29.84 49.88 29.92C49.88 29.8933 49.9867 29.7067 50.2 29.36H50.24ZM49.88 29.92C49.8 30.1333 49.7067 30.2667 49.6 30.32C49.6267 30.2933 49.64 30.2533 49.64 30.2C49.6667 30.12 49.6933 30.0533 49.72 30C49.7733 29.9467 49.8267 29.92 49.88 29.92ZM49.6 30.32C49.5467 30.48 49.44 30.68 49.28 30.92C49.12 31.16 49.0267 31.3067 49 31.36C49 31.2 49.2 30.8533 49.6 30.32ZM44.84 34.04C44.7067 34.3867 44.56 34.5467 44.4 34.52C44.5067 34.2533 44.6533 34.0933 44.84 34.04ZM44.04 35C44.04 34.84 44.16 34.7333 44.4 34.68C44.2667 34.8667 44.1467 34.9733 44.04 35ZM35.36 38.44C35.3333 38.36 35.32 38.3067 35.32 38.28C35.3467 38.2533 35.3733 38.2267 35.4 38.2C35.4267 38.1467 35.44 38.0933 35.44 38.04C35.4667 38.04 35.44 38.1733 35.36 38.44ZM34.8 40C34.8267 40.2667 34.6533 40.8667 34.28 41.8C34.28 41.6933 34.4533 41.0933 34.8 40ZM33.84 43.12C33.8933 43.1733 33.8933 43.24 33.84 43.32C33.8133 43.32 33.8 43.2533 33.8 43.12H33.84ZM40 47.64C39.9733 47.6933 39.9733 47.7467 40 47.8C40.0267 47.8533 40.04 47.9067 40.04 47.96C39.9867 47.96 39.92 47.9467 39.84 47.92C39.7867 47.8933 39.7333 47.8933 39.68 47.92C39.7067 47.8667 39.7067 47.8 39.68 47.72V47.68C39.76 47.6 39.8667 47.5867 40 47.64ZM41 48.6C41.0267 48.5733 41.0267 48.5467 41 48.52L40.96 48.44C40.9333 48.44 40.9067 48.48 40.88 48.56C40.8533 48.5067 40.8533 48.4667 40.88 48.44C40.9067 48.4133 40.92 48.3867 40.92 48.36C40.8667 48.3333 40.8 48.3333 40.72 48.36L40.64 48.4C40.5867 48.3467 40.56 48.2667 40.56 48.16C40.4533 48.2133 40.36 48.24 40.28 48.24L40.24 48.12C40.2133 48.0667 40.16 48.0533 40.08 48.08C40.1067 48.08 40.12 48.0533 40.12 48C40.12 47.9467 40.1467 47.92 40.2 47.92C40.28 47.9467 40.3067 47.9867 40.28 48.04C40.4133 47.96 40.6 48.0133 40.84 48.2C41.08 48.36 41.2533 48.44 41.36 48.44C41.3867 48.4933 41.3867 48.5333 41.36 48.56C41.3333 48.56 41.32 48.5733 41.32 48.6C41.24 48.6 41.16 48.6 41.08 48.6C41.0267 48.5733 41 48.5733 41 48.6ZM41.56 48.64C41.6133 48.6667 41.6667 48.6933 41.72 48.72C41.7733 48.72 41.8133 48.7467 41.84 48.8C41.8667 48.8533 41.8667 48.8933 41.84 48.92C41.8133 48.9467 41.8 48.9733 41.8 49C41.6933 48.9467 41.6133 48.8267 41.56 48.64ZM41.96 48.8C41.9867 48.8 42.0533 48.84 42.16 48.92C42.2667 49 42.3467 49.0667 42.4 49.12C42.3467 49.12 42.2933 49.1333 42.24 49.16C42.1867 49.1867 42.12 49.2133 42.04 49.24C42.0667 49.16 42.0533 49.08 42 49C41.9733 48.92 41.96 48.8533 41.96 48.8ZM42.44 49.12C42.6 49.1467 42.68 49.2133 42.68 49.32C42.6267 49.3733 42.56 49.3467 42.48 49.24C42.4533 49.2133 42.44 49.1733 42.44 49.12ZM42.76 49.28C42.8667 49.28 42.9067 49.3333 42.88 49.44C42.8533 49.4933 42.8 49.5067 42.72 49.48C42.72 49.3733 42.7333 49.3067 42.76 49.28ZM43 49.44C43.0533 49.4933 43.1467 49.5333 43.28 49.56C43.44 49.6133 43.56 49.68 43.64 49.76C43.72 49.84 43.76 49.9467 43.76 50.08C43.7333 50.0533 43.5867 49.9867 43.32 49.88C43.0533 49.8 42.9467 49.6533 43 49.44ZM42.72 49.68C42.7733 49.6533 42.8267 49.7067 42.88 49.84C42.7467 49.7867 42.6933 49.7333 42.72 49.68ZM43.84 49.96C43.9467 49.9867 44 50.0933 44 50.28H43.84V49.96ZM44.16 50.08C44.4 50.3467 44.8 50.64 45.36 50.96C45.4933 51.0667 45.5067 51.1733 45.4 51.28C45.2667 51.0133 45.2 51.0133 45.2 51.28C45.1733 51.28 45.16 51.2533 45.16 51.2C45.16 51.12 45.12 51.0933 45.04 51.12C45.04 51.0933 45.0133 51.0533 44.96 51C44.9333 50.9467 44.9333 50.8933 44.96 50.84C44.9067 50.8133 44.8667 50.84 44.84 50.92C44.8133 51 44.7733 51.04 44.72 51.04C44.7733 50.96 44.7733 50.8933 44.72 50.84C44.6667 50.7867 44.64 50.72 44.64 50.64C44.5867 50.6133 44.56 50.6267 44.56 50.68C44.5333 50.7067 44.5067 50.72 44.48 50.72C44.48 50.6133 44.4 50.5067 44.24 50.4C44.08 50.2933 44.0533 50.1867 44.16 50.08ZM44 52L44.04 52.04C44.0667 52.0933 44.1067 52.1067 44.16 52.08C44.1067 52.1333 44.08 52.1733 44.08 52.2C44 52.12 43.9733 52.0533 44 52ZM44.16 52.2C44.16 52.1733 44.2133 52.16 44.32 52.16V52.32C44.2933 52.32 44.24 52.28 44.16 52.2ZM44.4 52.32H44.48V52.48C44.4 52.48 44.3733 52.4267 44.4 52.32ZM44.72 52.6C44.6667 52.6267 44.6267 52.6133 44.6 52.56C44.5733 52.5333 44.5733 52.4933 44.6 52.44C44.68 52.44 44.72 52.4933 44.72 52.6ZM44.72 52.6C44.7467 52.6 44.7733 52.5867 44.8 52.56C44.8267 52.56 44.8533 52.56 44.88 52.56C44.9067 52.64 44.8933 52.68 44.84 52.68C44.8133 52.7067 44.7733 52.6933 44.72 52.64V52.6Z" fill="white"/>
</svg>
