<svg width="29" height="19" viewBox="0 0 29 19" fill="none" xmlns="http://www.w3.org/2000/svg">
<g clip-path="url(#clip0_1_100222)">
<path d="M2.1558 26.6994C2.18978 26.506 2.14493 26.3776 2.4143 26.1813C2.47297 26.1658 2.52 26.3306 2.58141 26.1152L2.32403 26.1607C2.4534 25.9058 2.65409 25.6941 2.90166 25.5512C2.95754 25.4793 3.00783 25.4031 3.05207 25.3235L3.15107 25.1388L3.03519 25.2172C3.18324 24.9384 3.22449 24.6324 3.44846 24.4037C3.33875 24.4916 3.11697 24.6164 3.21308 24.3365C3.26832 24.2682 3.31835 24.1958 3.36276 24.12C3.34914 24.0683 3.26939 24.1999 3.40274 23.7811C3.48138 23.9117 3.53064 23.4117 3.3779 23.308C3.50994 23.347 3.55496 23.6304 3.68174 23.6634C3.66052 23.5096 3.70022 23.3535 3.79239 23.2284C3.83713 23.1681 3.86477 23.0968 3.87239 23.0221C3.88 22.9473 3.86731 22.8719 3.83565 22.8038L3.72594 22.8917C3.66318 22.6017 3.61681 22.3084 3.58706 22.0131L3.54274 22.0691L3.42688 21.8671C3.406 21.7877 3.33844 21.7132 3.29158 21.6333C3.2069 21.4883 3.11236 21.3492 3.00864 21.217C2.91918 21.099 2.82089 20.9879 2.71461 20.8848L2.63761 20.8165L2.5991 20.7823C2.5991 20.7823 2.56459 20.7914 2.54734 20.796C2.46903 20.8049 2.39141 20.8192 2.31503 20.8386C2.17954 20.8005 2.04241 20.7701 1.89748 20.7381C2.01244 20.7965 1.94959 20.8241 1.76124 20.8515C1.67987 20.8507 1.59324 20.844 1.49625 20.84C1.42011 20.8347 1.34477 20.8211 1.27157 20.7995C1.16042 20.7697 1.08541 20.723 1.14898 20.6841C0.843244 20.791 0.531661 20.8804 0.215751 20.9518C-0.136729 21.0297 -0.46502 21.1921 -0.740928 21.4248C-0.630868 21.5066 -0.996323 21.7024 -0.793079 21.6895C-0.879848 21.7296 -0.963993 21.7751 -1.04501 21.8259C-1.0036 21.815 -1.01268 21.8506 -1.01413 21.8731C-1.02685 21.9065 -1.05081 21.9343 -1.08188 21.9519C-1.11294 21.9695 -1.14917 21.9758 -1.18433 21.9695L-1.15672 21.9623C-1.23338 22.0636 -1.31439 22.1624 -1.38324 22.2654L-1.48095 22.2025L-1.56071 22.4744C-1.34674 22.4181 -1.16509 22.0567 -1.00181 22.1023C-1.07501 22.2027 -1.21272 22.619 -1.55674 22.7981L-1.62759 22.9495C-1.64762 22.9891 -1.66392 23.0305 -1.67627 23.0731C-1.70935 23.1525 -1.74986 23.2286 -1.79725 23.3004C-1.7593 23.3606 -1.76965 23.2932 -1.85921 23.4717C-1.94877 23.6502 -1.99108 23.5876 -2.11006 23.7665C-2.08211 23.7328 -2.04521 23.7078 -2.00362 23.6942C-2.10881 23.9396 -2.26609 23.8887 -2.42557 24.0118C-2.35331 23.9139 -2.26855 23.8259 -2.17345 23.7499C-2.18344 23.712 -2.20741 23.733 -2.20941 23.7114L-1.97745 23.4991C-2.03739 23.4817 -1.99762 23.5487 -1.93748 23.3705C-2.02997 23.499 -2.1293 23.6225 -2.23502 23.7403C-2.37996 23.7784 -2.28495 23.5505 -2.40955 23.6239C-2.97681 24.3562 -3.41783 25.178 -3.7144 26.0556C-3.86373 26.4417 -3.99835 26.8277 -4.17384 27.1986C-4.38994 27.6128 -4.63071 28.0138 -4.89483 28.3992C-4.88493 28.7544 -4.95764 29.107 -5.10724 29.4292L-5.12903 29.3464C-5.30323 29.6099 -5.11253 29.7738 -5.33795 29.9549L-5.56427 30.1325C-5.56174 30.2683 -5.64713 30.5749 -5.56194 30.5341C-5.69927 30.6993 -5.66806 31.1265 -5.89074 31.1076C-5.98141 31.5484 -5.97816 31.8132 -6.07773 32.2342C-6.07446 32.2261 -6.06893 32.219 -6.06178 32.2139C-6.05465 32.2087 -6.0462 32.2057 -6.03741 32.2052C-5.97984 32.3118 -6.20052 32.3846 -6.11317 32.5203C-6.05668 32.4685 -5.99345 32.1198 -5.97422 32.4173C-6.16676 32.5971 -6.08835 33.2038 -6.02133 33.3042C-6.05152 33.4087 -6.10079 33.5068 -6.16666 33.5934C-6.15432 33.7525 -6.03901 33.9804 -5.98305 33.7443C-6.08316 34.1913 -5.90789 34.2264 -6.14002 34.2837C-6.32405 34.8045 -6.07725 35.1676 -6.29724 35.6498C-6.22701 36.4357 -6.19566 37.2281 -5.89657 37.8321L-5.96178 37.8787C-5.80484 37.76 -5.6574 38.3485 -5.55295 38.1144C-5.61632 38.3708 -5.58821 38.6414 -5.47346 38.8794L-5.38481 38.7675C-5.52936 38.4144 -5.3532 38.6632 -5.44253 38.2255C-5.44889 38.2715 -5.44417 38.3034 -5.48322 38.2953C-5.48011 38.0546 -5.52131 37.5894 -5.51474 37.3479L-5.59448 37.4094C-5.65711 37.0311 -5.36831 36.8666 -5.32523 36.4973C-5.45162 36.2133 -5.40679 36.552 -5.59532 36.4946C-5.59692 36.0817 -5.00155 36.2129 -5.33935 35.8406L-5.36333 35.9317C-5.38763 35.4326 -5.46633 36.1433 -5.58163 35.7751C-5.53943 34.9818 -5.25962 36.0594 -5.14278 35.3534C-5.28427 35.3907 -5.3155 35.2439 -5.38687 35.0708C-5.21068 34.9691 -5.11164 34.4339 -4.91765 34.2315C-4.98322 34.2488 -5.02498 34.09 -4.99118 33.8819C-5.11252 34.0098 -5.07148 34.1097 -5.08113 34.3816C-5.1467 34.3988 -5.25895 34.4911 -5.3098 34.3679C-5.17593 34.2737 -5.11143 34.0279 -5.04166 33.7882C-4.9719 33.5484 -4.88997 33.3129 -4.74974 33.2428C-4.8333 33.3459 -4.86107 33.058 -4.94334 33.0539C-4.82164 32.9554 -4.79656 32.7422 -4.75406 32.6794L-4.73518 32.8773C-4.76385 32.5159 -4.45904 32.1036 -4.33931 31.7031L-4.38418 31.7149C-4.22518 31.4599 -4.09498 31.1881 -3.99597 30.9043C-4.10859 31.0373 -4.19394 30.8531 -4.23734 30.7723C-4.38082 30.6477 -4.67456 31.2563 -4.66381 30.8623C-4.47563 30.6099 -4.22279 30.5471 -4.11614 30.1389C-3.96557 30.0661 -4.02753 30.3776 -4.05405 30.4732C-3.89202 30.2054 -3.88507 29.7129 -3.6662 29.6332C-3.71852 29.7429 -3.71181 29.7964 -3.66495 29.8062C-3.68221 29.8108 -3.23537 29.5456 -3.24753 29.4013C-3.35797 29.4303 -3.29548 29.3733 -3.42008 29.4466C-3.41501 29.3765 -3.39566 29.308 -3.36324 29.2456C-3.33082 29.1831 -3.286 29.1279 -3.23152 29.0834C-3.42186 29.0191 -3.40755 29.4802 -3.62459 29.3565C-3.56787 29.1272 -3.45128 28.9169 -3.28671 28.7474C-3.1249 28.5944 -2.97309 28.4313 -2.83223 28.2588C-2.73037 28.0498 -2.64814 27.8318 -2.58661 27.6075C-2.60787 27.639 -2.64329 27.7147 -2.65764 27.6742C-2.59421 27.1298 -2.44674 27.3678 -2.43381 26.9401C-2.18351 26.8115 -1.96062 26.3543 -1.83545 26.0447C-1.87686 26.0556 -1.94279 26.0434 -1.98384 26.0837C-1.61909 25.5487 -1.16825 25.1865 -0.91919 24.6044L-0.946798 24.6117C-0.837082 24.4537 -0.719374 24.312 -0.606207 24.1531L-0.49631 24.0098C-0.4685 23.9748 -0.443766 23.9374 -0.422378 23.8981L-0.371509 23.8109L-0.252345 23.5766C-0.307749 23.6466 -0.362235 23.6498 -0.400737 23.6157C-0.318056 23.4047 -0.174458 23.223 0.0117824 23.0939C0.183251 22.9602 0.357806 22.8663 0.535089 22.7127C0.594676 22.5605 0.888376 22.5128 0.778321 22.3609C1.17065 22.2392 0.696567 22.6112 1.0533 22.4804C1.04261 22.4817 1.03216 22.4844 1.02224 22.4886C1.14339 22.4863 1.25927 22.4779 1.38459 22.4634C1.41174 22.4545 1.4394 22.4472 1.46742 22.4416L1.49503 22.4344L1.5675 22.4153C1.59296 22.405 1.61964 22.398 1.64687 22.3944C1.67448 22.3871 1.69863 22.3808 1.71207 22.4178C1.75031 22.4599 1.77349 22.5135 1.77799 22.5702C1.80501 22.5665 1.83254 22.5689 1.85845 22.5775C1.88436 22.586 1.90798 22.6004 1.92747 22.6195C2.00546 22.6788 2.06497 22.7592 2.09909 22.8511C2.0467 22.9673 2.00304 23.0874 1.96847 23.2101C2.01028 23.3133 2.02821 23.4247 2.02093 23.5358C1.93122 23.3491 1.93991 23.6346 1.87906 23.6838C2.00458 23.6139 2.01238 23.7557 2.12518 23.5674C2.15205 23.7817 2.04706 23.8315 1.9488 23.8647C1.88413 23.8798 1.8258 23.9147 1.782 23.9646C1.73821 24.0145 1.71117 24.0769 1.70466 24.143L1.79983 24.2803C1.81164 24.1849 1.90627 24.1379 1.94424 24.0578C1.93829 24.14 1.91972 24.2208 1.88919 24.2973C1.85485 24.3912 1.77147 24.5091 1.71862 24.5046C1.66576 24.5 1.7359 24.2196 1.56061 24.3949C1.60166 24.4246 1.62091 24.4417 1.61854 24.4608C1.59766 24.5018 1.57003 24.539 1.5368 24.5709C1.48751 24.6109 1.44839 24.6621 1.42263 24.7202C1.39687 24.7783 1.3852 24.8416 1.38857 24.905C1.30961 24.9104 1.23349 24.9366 1.16803 24.9811C1.10256 25.0255 1.05009 25.0866 1.01602 25.158C1.02691 25.1994 1.04744 25.1793 1.07687 25.1789C0.88577 25.4764 0.871444 25.1555 0.672902 25.4106C0.694691 25.4935 0.927735 25.3694 0.865786 25.5407C0.786936 25.816 0.703215 25.6241 0.565517 25.9001C0.580602 25.7891 0.37355 25.7735 0.249487 25.891C0.319771 25.9758 0.443268 26.0946 0.648345 25.8783C0.612367 26.0501 0.502099 26.3042 0.745493 26.1775C0.419456 26.3407 0.0456312 26.7011 -0.345063 26.8149C-0.342344 26.8954 -0.4279 26.9769 -0.544514 27.0666C-0.741223 27.1184 -0.947716 26.9365 -1.0458 27.0546C-1.1457 27.0255 -1.07395 26.9476 -1.08757 26.8959C-1.15803 26.9219 -1.23084 26.941 -1.30498 26.9531C-1.39345 27.0796 -1.07541 27.0403 -1.10775 27.1558C-1.16606 27.2006 -1.226 27.2533 -1.28431 27.2981C-1.48592 27.3032 -1.38964 27.1082 -1.382 27.025C-1.3996 27.0539 -1.42645 27.076 -1.45821 27.0877C-1.48997 27.0994 -1.52476 27.1 -1.55691 27.0894C-1.6065 27.0693 -1.65009 27.0438 -1.69187 27.0954C-1.58035 27.0845 -1.58816 27.153 -1.59343 27.2171C-1.59871 27.2812 -1.60052 27.3444 -1.43233 27.2965C-1.47429 27.3334 -1.51298 27.3546 -1.5524 27.3871C-1.59181 27.4196 -1.49011 27.4556 -1.42508 27.4643C-1.36006 27.473 -1.28232 27.46 -1.25163 27.4925C-1.48358 27.6347 -1.57765 27.5155 -1.77763 27.5829C-1.75584 27.6657 -1.67302 27.6439 -1.59964 27.6283C-1.55993 27.6113 -1.51656 27.6045 -1.47354 27.6087C-1.43052 27.6128 -1.38925 27.6278 -1.35354 27.6521C-1.63308 27.8659 -1.85575 27.7068 -1.94367 27.8775C-1.77766 27.9334 -1.5784 27.7371 -1.47543 27.8761C-1.49759 27.9492 -1.53348 28.0175 -1.58116 28.0773C-1.61642 28.1156 -1.66115 28.1439 -1.71085 28.1594C-1.78386 28.1755 -1.85953 28.1752 -1.93243 28.1586C-2.04849 28.0822 -1.83816 28.0121 -1.69558 27.993L-1.67923 28.0551L-1.67541 27.9434C-1.81999 28.011 -2.04865 27.9272 -2.19341 27.91C-2.22486 27.9312 -2.26258 27.9411 -2.3004 27.9381L-2.27824 27.9102C-2.29878 27.9102 -2.31897 27.9156 -2.3369 27.9256C-2.52089 27.8854 -2.6451 27.6377 -2.82437 27.6295C-2.75049 27.7044 -2.66967 27.7721 -2.583 27.8317C-2.65257 27.9459 -2.85454 27.8514 -3.11953 27.7699C-3.23405 27.6846 -3.34067 27.5891 -3.43808 27.4847C-3.51835 27.3619 -3.54904 27.2593 -3.46276 27.2366L-3.36833 27.3852C-3.25225 27.1812 -3.72975 27.1334 -3.49489 27.0163C-3.44186 27.0355 -3.42643 27.0942 -3.39283 27.1518C-3.43277 26.9999 -3.29328 26.9411 -3.1133 27.0782C-3.12869 27.1556 -3.13643 27.2342 -3.13638 27.3131C-3.08872 27.3153 -3.0426 27.3306 -3.00305 27.3573C-2.96349 27.384 -2.93202 27.421 -2.91208 27.4644C-2.88565 27.5066 -2.85006 27.5424 -2.80793 27.569C-2.76579 27.5956 -2.71821 27.6124 -2.66871 27.6181C-2.64855 27.5685 -2.60187 27.5636 -2.62929 27.5154C-2.72407 27.4856 -2.8103 27.4335 -2.88074 27.3634C-2.95118 27.2933 -3.00378 27.2074 -3.03411 27.1127C-2.85994 27.2699 -2.93929 27.0103 -2.83631 27.0792C-2.87727 27.0526 -2.90685 27.0117 -2.91927 26.9644C-2.93169 26.9172 -2.92607 26.8671 -2.90349 26.8238C-2.87842 26.7508 -2.86861 26.7039 -2.97431 26.5546C-2.99793 26.6215 -3.01562 26.6904 -3.02717 26.7604C-3.24765 26.4974 -3.05439 26.3764 -3.01569 26.2149C-3.07671 26.1092 -3.36568 26.0487 -3.35748 25.7993C-3.57342 25.5536 -3.30533 25.5347 -3.33855 25.2962C-3.46751 25.3671 -3.45573 25.6223 -3.43576 25.7683C-3.44321 25.7532 -3.44753 25.7368 -3.44847 25.72C-3.4471 25.7275 -3.44777 25.7353 -3.45043 25.7425C-3.45308 25.7496 -3.45761 25.756 -3.46355 25.7608C-3.63082 25.6019 -3.42717 25.0576 -3.6604 25.3071C-3.50659 25.7094 -3.63267 26.0858 -3.54244 26.5269C-3.43983 26.6365 -3.39043 26.7821 -3.29635 26.8312C-3.38155 26.9422 -3.4731 27.029 -3.63329 26.953C-3.6596 26.6426 -3.54318 26.6784 -3.64504 26.3473C-3.71234 26.2371 -3.7549 26.1136 -3.76979 25.9853C-3.79551 25.8596 -3.81297 25.7323 -3.82207 25.6042L-3.69548 25.6226C-3.71543 25.3364 -3.82854 24.7942 -3.68832 24.7942C-3.75353 24.8409 -3.81546 24.7317 -3.80237 24.5991L-3.87976 24.7818C-3.99128 24.7226 -4.05535 24.2967 -4.13837 24.444C-4.18429 24.017 -4.0448 24.0282 -4.13994 23.6105C-4.18296 23.2786 -3.74068 23.1364 -3.82382 22.5679C-3.97474 22.4711 -3.94699 22.9693 -4.09954 22.7401C-4.12865 22.5771 -4.11957 22.4096 -4.07301 22.2508C-4.02645 22.0919 -3.94368 21.946 -3.8312 21.8245C-3.78581 21.9971 -3.71151 21.8447 -3.62323 21.8436L-3.68497 21.609C-3.81157 21.6607 -3.65047 21.7401 -3.77799 21.8585C-3.8413 21.7223 -3.86933 21.5723 -3.8595 21.4224L-3.95432 21.5248C-3.99699 21.3626 -3.86711 21.155 -4.01985 21.1214C-3.96063 21.0099 -3.89088 20.9104 -3.82803 20.8127C-3.92336 20.5204 -3.78659 20.4512 -3.70865 20.2426C-3.69453 20.3101 -3.67695 20.3769 -3.65599 20.4427C-3.67869 20.3564 -3.67541 20.2707 -3.6834 20.1843C-3.59802 20.0179 -3.5541 20.3532 -3.50049 20.066C-3.69558 20.2502 -3.57675 19.7761 -3.78453 19.7718C-3.79326 19.9069 -3.78929 20.1605 -3.8999 20.1047C-3.91689 19.9509 -3.96122 19.8013 -4.03081 19.6631C-4.02264 19.6942 -4.00137 19.4524 -3.95469 19.4475L-3.5188 19.7019C-3.39983 19.5931 -3.86441 19.3279 -3.82408 19.1586C-3.9289 19.4334 -3.86204 19.0985 -3.98101 19.1371C-3.79254 18.8191 -3.63353 18.4846 -3.50596 18.1377L-3.62802 18.2067C-3.47216 17.9996 -3.67886 18.0134 -3.46561 17.7581C-3.37061 17.6703 -3.53192 17.9969 -3.38424 17.8289C-3.04159 16.6691 -2.51881 15.5703 -1.83504 14.5728C-1.99868 14.4978 -1.67898 14.1 -1.5956 13.912C-1.47681 13.8587 -1.47609 13.9876 -1.58689 14.0573C-1.41669 13.9472 -1.26991 13.8045 -1.15494 13.6375C-1.19761 13.4753 -1.05484 13.3307 -0.895177 13.2223C-0.991805 13.2477 -1.01449 13.0913 -1.16219 13.3995C-1.14002 13.3015 -1.61845 13.6007 -1.34198 13.207C-0.875202 12.9853 -0.45553 12.6757 -0.105921 12.2951C0.0675561 12.0429 0.233208 11.9993 0.265732 11.8284L0.165652 11.8547C0.253029 11.7099 0.340935 11.7496 0.411952 11.753C0.5827 11.5605 0.357482 11.5459 0.26158 11.5601C0.713689 11.1607 0.977407 11.2094 1.4099 10.7636C1.46804 10.6339 1.27805 10.599 1.49475 10.4129C2.20951 9.8337 2.84997 9.47703 3.54911 8.8245L3.66556 8.57986L3.97069 8.61765C4.61987 8.01286 5.36037 7.51421 6.16489 7.1401C6.06718 7.14736 5.96855 7.22127 5.90407 7.18658C6.20032 7.06436 6.59771 7.21442 6.82603 7.05842C6.80808 6.99795 6.78173 6.9403 6.74776 6.88714C7.10376 6.83777 7.36039 6.94368 7.75199 6.9034C7.79195 6.84491 7.5611 6.86505 7.67317 6.75808L7.90639 6.71887C7.71314 6.6996 7.99794 6.56195 7.93383 6.55668C7.89512 6.59345 7.84425 6.61471 7.79088 6.61643C7.76818 6.53015 7.98197 6.45914 8.09513 6.37034C8.19521 6.34401 8.29202 6.40342 8.21482 6.46062C8.36849 6.35747 8.22608 6.39124 8.2112 6.3066C8.43334 6.21126 8.46766 6.25758 8.52359 6.37201C8.57953 6.48644 8.54629 6.45828 8.39099 6.56925C8.61444 6.46592 8.82943 6.34521 9.03399 6.20823L9.18891 6.27816L9.21707 6.24492C9.22887 6.28978 9.23522 6.31395 9.23795 6.3243L9.21034 6.33156C9.93412 6.48801 10.9892 6.20675 11.8367 6.28637L12.5 6.17092C12.1593 6.05392 11.6178 6.15577 11.4671 6.07366L11.6126 6.07966C11.6578 6.02717 11.3568 6.11742 11.3138 5.9959L11.516 5.89475C11.8324 5.79307 11.7141 6.17103 12.002 5.93294C11.5665 5.91837 12.1562 5.80382 11.8575 5.72006C11.9713 5.61999 12.1208 5.73934 12.2839 5.84034C12.1825 5.83981 12.0813 5.85033 11.9822 5.87173C12.067 5.94166 12.4301 5.83508 12.5066 5.99946C12.5493 5.99495 12.5898 5.97788 12.6228 5.95042C12.6591 5.94363 12.6934 5.9284 12.7227 5.90594C12.7521 5.88347 12.7757 5.85442 12.7917 5.82112C12.8268 5.82123 12.8617 5.82311 12.8965 5.82676C12.8838 5.91867 13.097 6.01386 13.3043 5.9741C13.3492 5.9623 13.1908 5.89326 13.1719 5.8355C13.5571 5.69523 13.9616 5.61495 14.3712 5.59749C14.2554 5.63739 14.1552 5.71283 14.0848 5.81306C14.131 5.82651 14.1788 5.83378 14.227 5.83468C14.237 5.87264 14.3272 5.89317 14.3984 5.91134L14.2893 5.83305C14.3981 5.81657 14.5094 5.83363 14.6084 5.88194C14.6585 5.94624 14.6997 5.99074 14.8463 5.87469C14.7945 5.86808 14.747 5.84244 14.713 5.80275C14.8191 5.79244 14.9259 5.79404 15.0316 5.80751C15.0584 5.75578 15.0974 5.71138 15.1453 5.67821C15.1931 5.64503 15.2484 5.62408 15.3062 5.61718L15.2327 5.8284C15.3997 5.76327 15.5803 5.74112 15.7581 5.76397C16.0268 5.50881 16.6939 5.98273 16.7785 5.75752L16.3998 5.72062C16.5495 5.57424 16.0985 5.36078 16.2533 5.27579C16.4055 5.33538 16.5568 5.39152 16.7108 5.45801C16.2725 5.57331 17.1151 5.74646 17.0004 5.9279C17.1913 5.96624 17.3455 5.83712 17.5448 5.99133C17.7083 5.98154 17.4424 5.82641 17.6389 5.83006C17.7598 5.8831 17.7083 5.98155 17.9048 5.9852C17.8984 5.96104 17.837 5.89601 17.8748 5.87131C18.0911 5.86606 18.0018 5.9892 18.2304 6.07295L18.1856 6.08475C18.2713 6.22825 18.4774 6.10022 18.5479 6.05954C18.7377 6.14982 18.925 6.24447 19.1088 6.34002C19.0505 6.24466 18.7759 6.08443 18.9807 6.06374C18.816 5.83034 18.0917 6.05041 18.1881 5.72984C18.3848 5.6781 18.6104 5.9324 18.7839 5.82035C18.8022 5.97419 19.0679 6.04451 19.2379 6.14369L19.3 6.12735C19.6586 6.21383 19.2305 6.3818 19.6251 6.4514C19.6872 6.43506 19.5815 6.28575 19.8204 6.35206C19.8573 6.39402 19.941 6.4458 19.9392 6.509L19.8736 6.52625C19.7828 6.6018 20.1393 6.66667 20.2931 6.71845C20.2288 6.62836 20.2269 6.53664 20.3907 6.55627C20.0997 6.47415 20.2343 6.22841 19.9817 6.16573C20.0554 6.24965 20.2886 6.42076 20.1097 6.442C19.9308 6.46323 19.755 6.24381 19.4991 6.12663L19.6769 6.15734C19.7903 5.94303 19.2623 5.87161 19.2394 5.6304C19.3184 5.6502 19.3785 5.68236 19.3911 5.64585C19.3587 5.69125 19.1157 5.567 18.9951 5.54338L19.1006 5.67798C18.6758 5.76022 18.8148 5.51703 18.3887 5.49629C18.4114 5.58256 18.9693 5.76787 18.6353 5.77456C18.6573 5.66177 18.3825 5.69717 18.3667 5.60908L18.0764 5.72602C17.8632 5.63083 17.6037 5.49985 17.466 5.42537C17.5659 5.52455 17.6465 5.53655 17.7628 5.62774C17.4655 5.52146 17.274 5.78952 17.0768 5.58681L17.2617 5.56031C17.1004 5.55705 16.942 5.51664 16.7989 5.44221C16.7144 5.33159 16.9387 5.27258 17.0902 5.27332C16.9576 5.26023 16.6848 5.31724 16.7025 5.20191C16.6488 5.23015 16.5868 5.23822 16.5277 5.22465C16.4686 5.21108 16.4164 5.17678 16.3804 5.12796C16.1394 5.16554 16.2878 5.19661 16.2638 5.28779C16.0717 5.21657 15.6354 5.28338 15.7155 5.11102C15.8052 5.08741 16.0606 5.16044 15.956 5.0293C15.8582 5.17677 15.8278 4.94865 15.6576 4.97497C15.9452 5.14282 15.2843 5.09899 15.4935 5.22106C15.1953 5.25155 15.1506 5.13785 14.9381 5.1015L14.9352 5.21665L14.6057 5.1705C14.5391 5.3098 14.7156 5.44785 14.4065 5.50704C14.1665 5.35245 14.245 5.1178 13.8523 5.06981L13.933 5.22202C13.8191 5.25198 13.444 5.22888 13.4756 5.12463C13.568 5.03161 13.6876 4.97043 13.8171 4.94993L13.7688 4.96264C13.5516 4.89433 14.115 4.7498 13.6851 4.77065C13.7991 4.96573 13.0937 5.10335 12.8723 5.25754C12.6895 5.21988 12.5112 5.16288 12.3405 5.08749C12.3519 5.03282 12.5615 4.97398 12.4591 4.87916C11.951 5.09399 11.6636 4.80064 11.2053 5.05034C11.2107 5.07105 11.2189 5.1021 11.0874 5.10717L11.0267 5.1711C10.9456 5.1536 10.8615 5.15672 10.7819 5.18016L10.4079 5.24534C10.4152 5.27295 10.3307 5.23243 10.2593 5.19955C10.2944 5.188 10.3301 5.1786 10.3663 5.17141L10.2593 5.19955C10.2045 5.17339 10.1515 5.15414 10.1197 5.17357C10.0412 5.05769 9.85793 5.2867 9.71408 5.34299C9.74645 5.34038 9.77902 5.34173 9.81107 5.347C9.55569 5.41419 9.40605 5.21002 9.16519 5.40253L9.13558 5.45829C9.18044 5.44649 9.22531 5.43469 9.23221 5.43287L9.11833 5.46283C9.00444 5.49279 9.01134 5.49097 9.05621 5.47917C8.85605 5.53183 8.87458 5.41994 8.56998 5.49638L8.72292 5.40449C8.66983 5.41243 8.61775 5.42612 8.56763 5.44534C8.23393 5.42616 7.90084 5.49219 7.59971 5.63724C7.29076 5.57092 7.29895 5.46177 6.90026 5.55927L6.98743 5.68023L6.53898 5.81297C6.61472 5.8484 6.42835 5.96753 6.1806 6.09174C6.07614 6.32585 5.75303 6.30385 5.62425 6.31928C5.54633 6.31764 5.3647 6.32852 5.36543 6.38737C5.26499 6.31416 5.04902 6.41894 4.84232 6.50284C4.81811 6.52075 4.79288 6.53724 4.76676 6.55223L4.78003 6.50447C4.65196 6.64885 4.48161 6.52025 4.32938 6.74109C4.06128 6.97029 4.54043 6.87007 4.21656 7.13976L4.0164 7.19242C3.98588 7.24472 4.02638 7.23037 4.05671 7.23346C3.88888 7.31082 3.8391 7.48628 3.69181 7.40326C3.84342 7.20694 4.01303 7.02521 4.19842 6.86042C3.83006 7.03112 3.71019 6.92612 3.40849 7.09774C3.37362 7.07739 3.4381 7.04198 3.46771 6.98622C3.29915 7.07484 3.21286 7.23775 3.32112 7.24248C3.19342 7.34618 3.07283 7.25245 2.87248 7.3605L2.74063 7.19595C2.46555 7.33719 2.22849 7.54256 2.04949 7.79472C2.26206 7.67953 2.48202 7.57852 2.70792 7.49236C2.83176 7.85091 3.43846 7.14151 3.61881 7.16786C3.49784 7.32514 3.89925 7.16789 3.61135 7.40598C3.36996 7.41414 3.35161 7.54073 3.15834 7.66168C3.11274 7.82496 3.4099 7.7062 3.06296 7.9303C3.17631 7.7861 2.7769 7.89486 3.06226 7.73123C2.69427 7.8908 2.34272 8.08585 2.01257 8.31362C2.38421 8.05719 1.75521 8.28908 1.92032 8.06115C1.99151 8.21954 2.56877 7.72084 2.14699 8.12329C2.26034 8.0492 2.37895 7.98109 2.49755 7.91299C2.47395 7.82327 2.09523 8.0668 2.32702 7.76967C1.99371 7.90532 1.95647 8.04427 1.61137 8.13505C1.73051 8.1812 1.46077 8.4182 1.49164 8.53553C1.36976 8.61926 1.18795 8.61543 1.126 8.7867L1.3525 8.6939C1.18139 8.85699 1.2415 8.95925 1.09818 9.12979C0.979573 9.19789 0.912375 9.15284 0.921646 9.06185C0.656937 9.27843 0.406531 9.51193 0.172002 9.76088C0.461727 9.45958 0.34073 9.82719 0.588855 9.59218L0.444443 9.81466C-0.0316251 10.0248 -0.689702 10.4267 -0.950333 10.3476C-1.44004 10.7163 -1.04446 10.8594 -1.72996 11.2132C-1.63896 11.1524 -1.66404 11.3656 -1.58703 11.3638C-1.67114 11.4936 -1.77516 11.6094 -1.89528 11.7069L-1.795 11.4148C-2.10187 11.6903 -2.36733 12.0087 -2.58316 12.3601C-2.50488 12.3211 -2.52469 12.4702 -2.34396 12.3156C-2.27748 12.372 -2.44805 12.5792 -2.51526 12.6744C-2.74685 12.846 -2.75247 12.6002 -2.99732 12.8196C-4.02944 14.2396 -4.82175 15.8191 -5.34272 17.4955C-5.59229 18.3498 -5.74582 19.2293 -5.80046 20.1176C-5.83605 20.9755 -5.82436 21.8347 -5.76544 22.6913L-5.69987 22.674C-5.76794 23.8368 -5.63358 25.0025 -5.30276 26.1192C-5.08975 26.7529 -4.76568 27.3436 -4.34571 27.8637C-3.85972 28.4874 -3.16842 28.9186 -2.39457 29.0809L-2.43908 29.1221C-2.16236 29.0431 -1.86687 29.0618 -1.60231 29.1751C-1.44321 29.2328 -1.20002 29.3017 -0.791325 28.9617C-0.422083 28.9596 -0.0650678 28.8292 0.218566 28.5927C0.502228 28.3639 0.8056 28.1606 1.12513 27.9853L1.09517 27.8714C1.35166 27.7724 1.55863 27.576 1.67098 27.3251C1.76108 27.1907 1.80559 27.0794 1.87607 26.9686C1.94806 26.8591 2.04364 26.7671 2.1558 26.6994Z" fill="#C58A46"/>
<path d="M22.1624 3.94993C22.0705 4.00731 21.9955 4.10084 21.9559 3.97842C21.9486 3.95081 22.058 3.8335 21.9634 3.88053L21.9283 4.05579C21.905 4.05936 21.8812 4.05763 21.8586 4.05073C21.836 4.04383 21.8153 4.03194 21.798 4.01594C21.7807 3.99993 21.7672 3.98022 21.7585 3.95829C21.7499 3.93635 21.7462 3.91275 21.7479 3.88923L21.6515 3.85925L21.6462 3.92336C21.5716 3.9061 21.4633 3.97148 21.4699 3.80003C21.457 3.87722 21.4157 4.04304 21.3531 4.01525L21.3277 3.91862C21.3 3.92588 21.3028 4.00634 21.2436 3.90753C21.3102 3.83834 21.2154 3.80055 21.1206 3.90298C21.1904 3.80345 21.2792 3.7764 21.3453 3.66307C21.2165 3.6785 21.4078 3.39571 21.2827 3.42495L21.2347 3.53719C21.1557 3.51738 21.1392 3.44055 21.1312 3.35409L21.105 3.40894C20.9526 3.40475 20.9428 3.24129 20.7541 3.3795L20.7278 3.27941C20.7271 3.30164 20.719 3.323 20.7048 3.3401C20.6906 3.35721 20.671 3.3691 20.6493 3.37386C20.5877 3.36423 20.6003 3.1875 20.6491 3.14881C20.3938 3.216 20.473 2.97008 20.2578 2.92338C20.1987 3.04961 20.16 2.93063 20.133 3.05214L20.1094 2.96242C20.1094 2.96242 20.0925 2.99638 20.0814 3.01037C20.0703 3.02435 20.0741 2.98276 20.0641 2.94479L20.0687 2.96206L19.9759 2.94588L20.03 2.84308L19.9243 2.9041C19.8879 3.0465 20.0216 3.00764 19.9653 3.14422C19.9343 3.15239 19.7494 3.249 19.771 3.03668L19.5761 3.02521C19.5352 3.08024 19.5806 3.04247 19.5036 3.04428C19.4266 3.04609 19.4891 2.98907 19.4179 2.9709C19.4295 2.98683 19.4347 3.00654 19.4324 3.02612C19.3392 3.05063 19.3979 2.89498 19.378 2.81906C19.4179 2.83068 19.4246 2.88426 19.4406 2.91696C19.4637 2.89244 19.4575 2.88299 19.4695 2.87246L19.4958 2.97254C19.522 2.91769 19.4958 2.97254 19.5545 2.95711C19.5056 2.92568 19.4875 2.92676 19.4479 2.87445C19.4691 2.77292 19.5496 2.77021 19.5478 2.6932C19.071 2.28359 18.4598 2.69528 18.1678 2.03413C18.1003 2.06857 18.0261 2.08808 17.9504 2.09132L17.4272 3.0481C17.4928 3.03085 17.5486 3.06047 17.5595 3.10188L17.518 3.11278C17.5471 3.22321 17.6962 3.03269 17.6842 3.18344L17.6639 3.35853C17.7156 3.34491 17.7974 3.37507 17.8192 3.31768C17.8428 3.4074 17.9979 3.35184 17.88 3.5489C18.0017 3.59068 18.0941 3.57743 18.1937 3.64718C18.1952 3.63427 18.1995 3.62183 18.2062 3.61068C18.2661 3.55801 18.1915 3.75107 18.2761 3.66607C18.2859 3.61921 18.1988 3.56836 18.3041 3.54802C18.2801 3.70931 18.5121 3.63722 18.5755 3.58365C18.5998 3.62161 18.6116 3.66629 18.609 3.71133C18.6574 3.69862 18.7836 3.61744 18.7387 3.55914C18.8292 3.66449 18.9216 3.51102 18.8315 3.71552C18.8833 3.91223 19.1182 3.725 19.1445 3.9653C19.3943 4.03511 19.6603 4.01966 19.9004 3.9214L19.8795 3.98224C19.9313 3.82841 20.1491 3.80064 20.1449 3.67259C20.1491 3.80064 20.2855 3.77214 20.363 3.74435L20.3861 3.64973C20.225 3.71056 20.3734 3.60142 20.2288 3.59886C20.2288 3.59886 20.2334 3.61611 20.2397 3.64027C20.1863 3.59159 20.0474 3.55434 19.994 3.50566L19.9707 3.58558C19.8443 3.58194 19.9431 3.3124 19.8736 3.21632C19.7343 3.28987 19.8503 3.29623 19.7397 3.45079C19.6266 3.39938 19.9632 2.89756 19.6892 3.14673L19.6983 3.18125C19.5481 3.14327 19.7256 3.28478 19.5472 3.35015C19.3432 3.23407 19.7813 3.10406 19.6424 2.92659C19.6247 2.96978 19.5977 3.00849 19.5632 3.03991C19.5287 3.07132 19.4876 3.09466 19.443 3.10821C19.4947 2.95437 19.3883 2.81632 19.4087 2.64124C19.4023 2.65524 19.3929 2.66766 19.3812 2.67759C19.3694 2.68751 19.3556 2.69469 19.3407 2.69861C19.3259 2.70252 19.3103 2.70306 19.2952 2.70021C19.2801 2.69735 19.2658 2.69116 19.2534 2.68209C19.2383 2.79306 19.2761 2.76837 19.3689 2.78454C19.3471 2.84194 19.3198 2.94873 19.2562 2.9876C19.3242 2.74095 19.0685 2.7086 19.1493 2.45487C19.1468 2.52934 19.038 2.55057 18.9982 2.62377C19.0185 2.51879 18.9646 2.49608 18.9555 2.46157L19.0314 2.44159C18.8899 2.47882 18.8763 2.21672 18.7785 2.13916L18.753 2.18275C18.6949 2.1021 18.6895 1.94118 18.5948 1.91811C18.6157 1.99748 18.494 2.09591 18.4426 2.13895C18.3396 2.28043 18.4648 2.46153 18.306 2.5033C18.2724 2.37561 18.3631 2.14513 18.2296 2.12859C18.2325 2.1104 18.2393 2.09306 18.2494 2.07773C18.2596 2.0624 18.273 2.04943 18.2887 2.03972C18.3043 2.03 18.3218 2.02377 18.3401 2.02143C18.3584 2.01909 18.3769 2.0207 18.3945 2.02616C18.3422 1.92553 18.148 1.97292 18.1851 1.81927C18.214 1.84488 18.2398 1.83072 18.2645 1.79839C18.2892 1.76606 18.2754 1.69958 18.2743 1.61131L17.1629 3.51614C17.1784 3.57481 17.1704 3.62858 17.1893 3.61623C17.2141 3.5285 17.2181 3.57172 17.2394 3.4702C17.3153 3.45022 17.3195 3.50817 17.3306 3.56429C17.4254 3.39175 17.2223 3.48945 17.3522 3.28186C17.5569 3.31657 17.4757 3.54087 17.5601 3.7216C17.6357 3.74231 17.6726 3.78427 17.765 3.77102C17.765 3.77102 17.7577 3.74341 17.7541 3.72961C17.9704 3.65425 17.8195 3.83786 18.0122 3.74289C18.0093 3.77484 18.0132 3.80704 18.0235 3.8374C18.0339 3.86776 18.0506 3.8956 18.0724 3.91909C18.0942 3.94259 18.1208 3.96121 18.1503 3.97376C18.1798 3.98631 18.2117 3.9925 18.2438 3.99192C18.2374 3.96776 18.279 3.90147 18.2761 3.8764C18.4223 4.01137 18.4859 4.25294 18.7347 4.217L18.7301 4.19975C18.8355 4.24952 18.9101 4.33688 19.054 4.3507C19.0269 4.33199 19.0376 4.28859 19.058 4.25372C19.2672 4.23557 19.2739 4.49948 19.4939 4.50804C19.5858 4.45065 19.6546 4.55799 19.7287 4.3909C19.862 4.46283 19.5671 4.54782 19.7062 4.59977C19.8124 4.79322 20.0478 4.72022 20.1548 4.9024C20.2302 4.84951 20.322 4.82536 20.4136 4.83431C20.4007 4.91653 20.4101 5.00073 20.4408 5.07807C20.4946 5.07331 20.5488 5.07911 20.6003 5.09514C20.4755 5.1538 20.6048 5.18251 20.6088 5.22574C20.6274 5.11386 20.6931 5.11132 20.6572 5.0027C20.8637 4.97421 20.5867 5.32382 20.7883 5.31875L20.8873 5.20415C20.8424 5.21595 20.8433 5.14929 20.8197 5.12967C20.8646 5.11787 20.9854 5.08611 20.9921 5.20979C20.9988 5.33349 20.8126 5.257 20.8998 5.37797C20.9979 5.18981 20.9683 5.4559 21.129 5.29553C21.098 5.37381 21.1121 5.46971 21.1744 5.46808C21.2367 5.46645 21.1913 5.43412 21.1971 5.41414C21.309 5.43267 21.1412 5.58015 21.2256 5.62066C21.2727 5.57507 21.2641 5.44448 21.3348 5.41851C21.4596 5.35986 21.3566 5.50134 21.4534 5.49063C21.4036 5.52586 21.3451 5.69622 21.382 5.73818C21.4423 5.64483 21.5262 5.50098 21.4614 5.43686C21.5413 5.39001 21.6483 5.36187 21.6363 5.23219C21.6559 5.4189 21.7892 5.49083 21.815 5.68699C21.8281 5.66722 21.848 5.65295 21.8709 5.64693C21.8938 5.6409 21.9181 5.64353 21.9392 5.65431C21.9637 5.74749 21.8457 5.99995 21.9163 5.97398C21.9034 6.05117 21.8524 6.05353 21.8235 6.09803L21.8507 6.20156C21.9405 6.17795 21.8822 6.01249 21.9559 5.95619L22.0545 5.95238C22.08 6.04901 21.9608 6.14308 21.9018 6.1992C22.0257 6.13709 21.939 6.34069 22.026 6.30674C21.9374 6.20829 22.2046 6.11586 22.0745 6.0283L22.1539 6.00742C22.2117 5.91843 22.1339 5.86139 22.1659 5.78656C22.2707 5.7922 22.2298 5.91734 22.327 5.93605C22.3848 5.77695 22.22 5.89409 22.2689 5.71519C22.4207 5.67525 22.4167 5.84235 22.5277 5.71721C22.5077 5.64129 22.3506 5.74534 22.4127 5.58878C22.4829 5.51868 22.6046 5.35014 22.6614 5.46802C22.6601 5.48431 22.6551 5.50008 22.6467 5.51413C22.6384 5.52818 22.627 5.54013 22.6133 5.54907C22.5996 5.55801 22.5841 5.5637 22.5678 5.56571C22.5516 5.56771 22.5352 5.56598 22.5197 5.56064L22.5424 5.5067L22.4847 5.59569C22.5433 5.58026 22.5793 5.68888 22.6254 5.70995C22.6426 5.69811 22.6633 5.69265 22.6841 5.69452C22.6799 5.70597 22.6721 5.71577 22.6619 5.72249C22.6751 5.72153 22.688 5.71814 22.6999 5.7125C22.7538 5.73521 22.7507 5.90576 22.8392 5.84928L22.7774 5.75483C22.8385 5.65022 22.9148 5.65966 23.0165 5.62552C23.1182 5.59139 23.2174 5.70183 23.116 5.8355L23.08 5.79699C22.9925 5.99714 23.256 5.75069 23.1227 5.95919C23.0951 5.96645 23.094 5.94829 23.0791 5.93375C23.0778 5.98165 23.0615 6.02792 23.0324 6.06603C23.0034 6.10413 22.9631 6.13212 22.9173 6.14606L22.9558 5.96989C22.8221 6.07886 22.8879 5.86599 22.7665 5.92374C22.7429 5.97423 22.7146 5.99276 22.7184 6.02127C22.7388 6.01959 22.7594 6.02232 22.7786 6.02928C22.7979 6.03625 22.8155 6.04729 22.8301 6.06164C22.8447 6.076 22.8561 6.09335 22.8634 6.11249C22.8708 6.13163 22.8739 6.15212 22.8726 6.17258C22.7959 6.13371 22.8057 6.29717 22.7563 6.29172C22.8155 6.32042 22.7972 6.37691 22.7926 6.42977C22.7755 6.47117 22.7745 6.51753 22.7899 6.55962C22.8144 6.51258 22.8346 6.46301 22.8548 6.41342C22.8749 6.36384 22.7903 6.58906 22.7291 6.67896C22.7291 6.67896 22.9103 6.49843 22.8706 6.57162C22.9917 6.49916 22.7826 6.67223 22.763 6.69584C22.89 6.6034 22.912 6.56072 22.9254 6.52767C22.9254 6.52767 22.9254 6.52767 22.9461 6.52222C23.0502 6.46901 22.8115 6.69785 23.0462 6.49589C22.9599 6.51859 23.1201 6.31409 23.0969 6.18368C23.0486 6.19639 23.0446 6.15316 23.0003 6.2091C23.0458 6.09654 23.1165 5.9959 23.207 5.91488C23.2001 6.05691 23.1196 6.12974 23.1559 6.19768C23.2226 6.19859 23.2237 6.28685 23.2217 6.33535L23.1187 6.40672C23.0996 6.47447 23.1684 6.51171 23.0282 6.5818C23.0987 6.54112 23.1504 6.52751 23.1317 6.55457C23.1626 6.5327 23.1921 6.50892 23.22 6.48338C23.3339 6.45342 23.4 6.4803 23.4926 6.41165C23.5522 6.46978 23.3806 6.51862 23.5262 6.53934C23.6054 6.57386 23.0091 6.71966 23.1217 6.72693C23.3491 6.7077 23.2759 6.66792 23.513 6.65723C23.5942 6.71336 23.4033 6.74513 23.1679 6.74801C23.0743 6.7431 22.975 6.75816 22.8357 6.7616L22.9136 6.76324C23.1196 6.76072 22.8469 6.76233 23.058 6.75109C23.155 6.75509 23.2044 6.76054 23.208 6.77434L23.3646 6.76636C23.4349 6.78108 23.2369 6.79996 23.5001 6.80452C23.398 6.80924 23.295 6.8105 23.1877 6.80922C23.3967 6.84647 23.1324 6.82374 23.032 6.82064L22.9079 6.79793L22.9904 6.81683L22.6713 6.76794C23.0017 6.81756 22.8647 6.80193 23.2022 6.86444C23.2022 6.86444 23.1958 6.84028 23.3911 6.88116C23.3911 6.88116 23.5578 6.92586 23.6933 6.96401C23.6455 6.95075 23.6588 6.97309 23.5816 6.96019C23.3308 6.90441 23.0756 6.84608 22.8006 6.79666C22.7234 6.78375 22.8397 6.80483 22.9855 6.84026C23.1201 6.86902 23.2529 6.90554 23.3833 6.94963C23.5262 6.96 23.4554 6.97125 23.6394 7.01141C23.4376 7.00177 23.1399 6.93617 23.1375 6.95524L23.2783 6.99939C23.1246 6.96232 23.3698 7.0528 23.1831 7.00229C23.091 6.97485 23.1831 7.00229 23.0612 6.94579C22.9695 7.00188 22.8696 7.04312 22.765 7.06801C22.8474 7.22712 22.6805 7.23782 22.6433 7.30666C22.5873 7.26233 22.5872 7.17752 22.6395 7.20803C22.6109 7.18534 22.5764 7.17138 22.5402 7.16783C22.5039 7.16429 22.4673 7.1713 22.435 7.18803C22.4722 7.32953 22.3924 7.32099 22.322 7.29156C22.3659 7.34641 22.3674 7.46411 22.4447 7.3515C22.4358 7.40182 22.6589 7.52025 22.5352 7.59707C22.3256 7.44557 22.1291 7.37182 21.9783 7.42993C21.9082 7.50003 21.8365 7.43773 21.829 7.53562L21.8746 7.58267C21.8441 7.63498 21.8007 7.55415 21.7654 7.50438C21.6984 7.54415 21.8127 7.68383 21.8479 7.7336C21.6664 7.75919 21.5386 7.56774 21.3744 7.65891C21.3588 7.72574 21.4477 7.85362 21.364 7.87196C21.0885 7.91861 20.8344 7.87845 20.613 8.10275L20.5975 8.25441L20.4553 8.09257C20.277 8.31481 20.0554 8.4986 19.8041 8.63286C19.8415 8.64885 19.8662 8.61651 19.8971 8.66374C19.8039 8.68825 19.616 8.46466 19.5607 8.54929C19.5462 8.49407 19.5952 8.68042 19.6312 8.71893C19.509 8.70312 19.3771 8.53856 19.2445 8.52547C19.2563 8.57033 19.3275 8.5885 19.3121 8.67005L19.2351 8.67186C19.3144 8.72108 19.2445 8.80591 19.2741 8.82026C19.3037 8.83461 19.283 8.76994 19.3092 8.7852C19.3319 8.87148 19.2812 8.90326 19.2656 8.9701C19.2438 8.96616 19.2244 8.95396 19.2115 8.93605C19.1985 8.91814 19.193 8.89591 19.196 8.87401C19.1727 8.95393 19.2123 8.93613 19.235 9.0224C19.1856 9.08706 19.1591 9.04238 19.1075 8.93049C19.0822 8.87557 19.079 8.813 19.0985 8.75576C19.0583 8.86964 18.9828 8.91904 18.9791 9.04545L18.9047 8.97279L18.9128 9.00385L18.8929 8.92793C18.5999 8.75408 18.3669 9.01834 18.0772 8.96909L17.917 9.10348C18.0557 9.19612 18.1885 9.08371 18.2595 9.15728L18.2181 9.16817C18.2308 9.21649 18.2817 9.12931 18.3367 9.24029L18.3076 9.34018C18.2431 9.4457 18.1565 9.08843 18.1472 9.31964C18.2831 9.31711 18.1427 9.44261 18.2578 9.51563C18.2573 9.61171 18.1737 9.50454 18.0913 9.41554C18.1225 9.41263 18.1516 9.39843 18.173 9.37559C18.1229 9.31129 18.0499 9.42643 17.9736 9.27676C17.9661 9.28318 17.9603 9.29144 17.957 9.30073C17.9536 9.31003 17.9527 9.32005 17.9543 9.3298C17.9302 9.33616 17.9371 9.40445 17.9473 9.45712C17.9374 9.46134 17.9269 9.46409 17.9162 9.46529C17.8926 9.37556 17.7947 9.298 17.752 9.34613C17.7093 9.39426 17.8099 9.41206 17.8357 9.468C17.7898 9.67197 17.6737 9.6656 17.5809 9.78965C17.5979 9.71421 17.5987 9.63602 17.5833 9.56025C17.576 9.55912 17.5685 9.55951 17.5614 9.56138C17.5543 9.56326 17.5476 9.56658 17.5418 9.57115C17.5343 9.55676 17.5238 9.54415 17.511 9.53416C17.4982 9.52417 17.4834 9.51702 17.4676 9.5132L17.5246 9.57569C17.4901 9.58476 17.4601 9.6111 17.4189 9.56659C17.3777 9.52209 17.358 9.4756 17.3579 9.6011C17.3847 9.61039 17.4069 9.62964 17.42 9.65487C17.3925 9.67308 17.3597 9.68169 17.3268 9.67938C17.349 9.75049 17.3484 9.82676 17.3251 9.89752L17.2707 9.69046C17.2102 9.8392 17.2114 9.80197 17.1608 9.83375C17.1815 10.1087 16.848 9.80902 16.9123 10.0393L17.0193 10.0112C17.0369 10.1763 17.2252 10.2891 17.2205 10.3974L17.0456 10.3216C17.1037 10.1218 16.8434 10.1423 16.7979 9.95505C16.7426 9.96958 16.7628 10.1303 16.6551 10.0295C16.6246 10.0818 16.7397 10.1548 16.7005 10.2021C16.6553 10.1844 16.628 10.0809 16.5819 10.1299C16.606 10.1581 16.6236 10.1913 16.6333 10.2271C16.5908 10.29 16.5623 10.1536 16.4816 10.1416C16.4059 10.036 16.4159 10.2142 16.4173 10.2618L16.1983 10.1866C16.2484 10.2509 16.3625 10.3057 16.3332 10.3909C16.4545 10.5435 16.5136 10.1368 16.6196 10.4558C16.6027 10.5599 16.4569 10.3842 16.4667 10.5477C16.4019 10.4134 16.3225 10.4343 16.2528 10.3936L16.2646 10.4385C16.1656 10.483 16.1732 10.1895 16.0746 10.2634C16.0873 10.3117 16.1516 10.4018 16.0835 10.4234C16.0762 10.3958 16.0234 10.3913 16.001 10.3344L15.9947 10.3102C15.9683 10.2102 15.8931 10.289 15.8459 10.3199C15.8959 10.3695 15.934 10.4443 15.8931 10.4993C15.9712 10.4456 16.0524 10.712 16.1185 10.6688C16.0729 10.6217 15.9676 10.572 15.9847 10.4826C16.0017 10.3933 16.1218 10.513 16.2146 10.5291L16.1717 10.5625C16.2326 10.7938 16.3592 10.6719 16.4587 10.8819C16.438 10.8873 16.4173 10.8928 16.4271 10.916C16.4135 10.8643 16.5065 10.8951 16.541 10.8861L16.4698 10.7978C16.5157 10.5938 16.5847 10.8561 16.6734 10.7442C16.6352 10.6694 16.4552 10.6725 16.5163 10.5678C16.5453 10.6783 16.5922 10.5479 16.634 10.6365L16.6482 10.452C16.7325 10.4845 16.8143 10.5235 16.8928 10.5684C16.8305 10.4999 16.8107 10.5088 16.7495 10.4585C16.8536 10.4754 16.7929 10.1888 16.9132 10.3232L16.8837 10.3937C16.9043 10.3756 16.9307 10.3658 16.9581 10.3661C16.9854 10.3664 17.0117 10.3768 17.0318 10.3953C17.055 10.4277 17.0674 10.4665 17.0672 10.5063C17.0671 10.546 17.0544 10.5848 17.031 10.6169C17.069 10.6069 17.103 10.4836 17.1415 10.5879C17.1498 10.4934 17.2074 10.5299 17.2453 10.5901C17.2868 10.5091 17.2254 10.5141 17.2027 10.4279C17.2713 10.4504 17.3554 10.3213 17.3974 10.4947C17.3867 10.5381 17.3007 10.5201 17.3685 10.6093C17.3294 10.4609 17.4297 10.6596 17.4602 10.6073C17.3291 10.5016 17.5074 10.4362 17.3958 10.3623C17.4615 10.2897 17.512 10.3834 17.5805 10.3912L17.5514 10.2808L17.6519 10.2839C17.6174 10.1527 17.5276 10.0361 17.5932 9.94876C17.7098 10.0694 17.7688 10.2937 17.8936 10.3051L17.8201 10.1658C17.8395 10.1275 17.9546 10.1304 17.9826 10.2227C17.9925 10.2898 17.9793 10.3583 17.9452 10.417C18.0271 10.4619 17.9237 10.6441 18.0347 10.589C17.933 10.4129 18.084 10.2292 18.0985 10.0741C18.1561 10.1106 18.2612 10.1457 18.3114 10.21C18.3615 10.2743 18.2825 10.3246 18.3449 10.4078C18.4236 10.1878 18.6018 10.4583 18.6628 10.2135C18.6583 10.1962 18.6492 10.1617 18.6821 10.1604L18.6666 10.1018C18.6953 10.1127 18.7266 10.1192 18.7357 10.0836L18.8301 10.0219C18.8228 9.99427 18.8543 10.0155 18.8895 10.0653C18.8855 10.0776 18.8782 10.0885 18.8682 10.0967L18.8895 10.0653C18.9149 10.0918 18.9376 10.108 18.9443 10.0915C19.0028 10.2015 18.9907 9.98702 19.0177 9.93562C19.0448 9.88422 18.997 9.94107 18.9901 9.94288C19.0403 9.86697 19.1623 10.0784 19.1696 9.89567L19.1569 9.84736C19.1569 9.84736 19.1327 9.85371 19.1293 9.85462C19.1392 9.85061 19.1497 9.84786 19.1603 9.84645C19.1879 9.83918 19.1807 9.81158 19.1603 9.84645C19.219 9.83101 19.2337 9.90094 19.312 9.8619L19.2904 9.93401C19.3063 9.9358 19.3223 9.93159 19.3352 9.92221C19.4022 9.95254 19.5608 9.96618 19.6079 9.85049C19.733 9.96147 19.7513 10.0452 19.875 10.0385L19.812 9.91117L19.9105 9.82253C19.8752 9.77277 19.9116 9.70048 19.9768 9.65381C19.9615 9.46963 20.089 9.56155 20.1379 9.59298C20.1867 9.6244 20.2538 9.58463 20.2374 9.52252C20.2923 9.61878 20.3533 9.58427 20.419 9.58173C20.4265 9.57786 20.4348 9.57569 20.4432 9.57538L20.4532 9.61335C20.479 9.52907 20.5685 9.70108 20.5912 9.57703C20.6139 9.45298 20.4806 9.38104 20.5651 9.28133L20.6435 9.32711C20.6354 9.29605 20.6354 9.29605 20.6299 9.27535C20.6817 9.26173 20.6724 9.1424 20.7511 9.273C20.7006 9.3896 20.7066 9.45444 20.6375 9.54271C20.7578 9.53691 20.8217 9.66769 20.9192 9.64572C20.9283 9.68023 20.9274 9.67678 20.9114 9.71419C20.9666 9.69966 20.9768 9.61212 20.9312 9.56507C20.9697 9.52911 21.0328 9.65644 21.0949 9.6401L21.176 9.83644C21.2883 9.8844 21.3366 9.73148 21.3808 9.66083C21.3094 9.69806 21.1955 9.5878 21.1446 9.60487C21.0484 9.23906 20.8916 9.58287 20.8143 9.48515C20.8366 9.40178 20.696 9.37235 20.7634 9.29189C20.8624 9.38762 20.8508 9.28736 20.9084 9.25376C20.9044 9.14042 20.7967 9.10971 20.9087 9.07285C20.8819 9.13896 21.0388 9.23052 20.9505 9.23161C21.1479 9.30881 21.1512 9.22308 21.3247 9.25124C21.2004 9.28393 21.4398 9.39439 21.3891 9.49627C21.3455 9.33063 21.1575 9.45757 21.2842 9.3357L21.1605 9.34241C21.1813 9.42178 21.3092 9.4029 21.252 9.53603C21.378 9.58036 21.3797 9.50245 21.5141 9.59255C21.4549 9.49374 21.5442 9.44071 21.5188 9.34408C21.5602 9.33318 21.6429 9.4369 21.6529 9.33465L21.564 9.2916C21.6207 9.25455 21.5795 9.13993 21.6247 9.08745C21.6507 9.10218 21.6722 9.12374 21.6869 9.14979C21.7016 9.17585 21.7088 9.20541 21.7079 9.2353C21.7849 9.16338 21.9111 9.22242 21.98 9.11944C21.8699 9.17792 21.8977 8.97504 21.8082 9.01335L21.8521 8.92799C22.0465 9.03553 22.3204 9.13691 22.4415 9.34488C22.6436 9.38395 22.4506 9.02885 22.7454 9.2096C22.7089 9.19706 22.7072 9.06465 22.672 9.01488C22.7031 9.00671 22.7456 8.94387 22.7997 8.98129L22.765 9.11587C22.8965 9.1809 22.9899 9.03089 23.1019 8.99403C23.0705 8.97277 23.0738 8.88705 22.9948 8.86725C22.973 8.78442 23.0342 8.76463 23.0625 8.74611C23.1661 8.78898 23.1768 8.95589 23.2826 8.97969L23.5064 8.87655L23.9196 8.69405L24.7219 8.33539C25.285 8.09133 25.8506 7.84291 26.4171 7.59794L26.2484 7.32131L26.0289 6.99163C25.8809 6.77965 25.7374 6.58494 25.5792 6.3904L25.4998 6.41128C25.2642 5.9447 24.8917 5.56121 24.4321 5.31215C24.3014 5.23586 24.1697 5.15611 24.0329 5.08508L23.8322 4.95338C23.7738 4.92104 23.7133 4.89258 23.6512 4.86819C23.4902 4.80352 23.3346 4.74483 23.1884 4.67998L23.2216 4.63802C22.901 4.82199 23.2916 4.27277 22.941 4.48307C22.975 4.14942 22.6464 4.31704 22.6041 4.04405L22.5402 4.12359C22.562 3.85587 22.2042 4.17878 22.1624 3.94993Z" fill="#C58A46"/>
</g>
<defs>
<clipPath id="clip0_1_100222">
<rect width="25" height="13" fill="white" transform="translate(0.757812 6.39404) rotate(-14.7388)"/>
</clipPath>
</defs>
</svg>
