<svg width="104" height="16" viewBox="0 0 104 16" fill="none" xmlns="http://www.w3.org/2000/svg">
<g clip-path="url(#clip0_1_96794)">
<path d="M15.978 6.16468C15.9229 5.99495 15.7762 5.87129 15.5996 5.84563L10.6393 5.12481L8.42087 0.629949C8.3419 0.46994 8.17895 0.368652 8.0005 0.368652C7.82208 0.368652 7.65911 0.469971 7.58013 0.629949L5.36163 5.12484L0.401364 5.84563C0.224791 5.87129 0.0780949 5.99498 0.0229667 6.16468C-0.0321928 6.33438 0.0138099 6.52067 0.141567 6.64521L3.73078 10.144L2.8836 15.0844C2.85345 15.2603 2.92576 15.438 3.07012 15.5429C3.21444 15.6477 3.40576 15.6616 3.5638 15.5786L8.00047 13.246L12.437 15.5786C12.5056 15.6146 12.5805 15.6324 12.6551 15.6324C12.7523 15.6324 12.8491 15.6022 12.9307 15.5429C13.0751 15.438 13.1474 15.2603 13.1172 15.0844L12.2698 10.144L15.8594 6.64524C15.9872 6.52067 16.0332 6.33438 15.978 6.16468ZM11.4389 9.64464C11.3284 9.75233 11.2779 9.90753 11.3041 10.0596L12.0326 14.3067L8.21867 12.3015C8.0821 12.2297 7.91893 12.2297 7.78236 12.3015L3.96823 14.3067L4.69652 10.0596C4.72259 9.9075 4.67218 9.75236 4.56174 9.64467L1.47621 6.63687L5.74037 6.01717C5.89306 5.99498 6.02501 5.8991 6.09333 5.76075L8.00047 1.89659L9.90755 5.76072C9.97587 5.89907 10.1078 5.99498 10.2605 6.01717L14.5247 6.63684L11.4389 9.64464Z" fill="#50735F"/>
<path d="M11.4389 9.64464C11.3284 9.75233 11.2779 9.90753 11.3041 10.0596L12.0326 14.3067L8.21867 12.3015C8.0821 12.2297 7.91893 12.2297 7.78236 12.3015L3.96823 14.3067L4.69652 10.0596C4.72259 9.9075 4.67218 9.75236 4.56174 9.64467L1.47621 6.63687L5.74037 6.01717C5.89306 5.99498 6.02501 5.8991 6.09333 5.76075L8.00047 1.89659L9.90755 5.76072C9.97587 5.89907 10.1078 5.99498 10.2605 6.01717L14.5247 6.63684L11.4389 9.64464Z" fill="#50735F"/>
</g>
<g clip-path="url(#clip1_1_96794)">
<path d="M37.979 6.16468C37.9239 5.99495 37.7772 5.87129 37.6006 5.84563L32.6402 5.12481L30.4218 0.629949C30.3429 0.46994 30.1799 0.368652 30.0015 0.368652C29.8231 0.368652 29.6601 0.469971 29.5811 0.629949L27.3626 5.12484L22.4023 5.84563C22.2258 5.87129 22.0791 5.99498 22.0239 6.16468C21.9688 6.33438 22.0148 6.52067 22.1425 6.64521L25.7318 10.144L24.8846 15.0844C24.8544 15.2603 24.9267 15.438 25.0711 15.5429C25.2154 15.6477 25.4067 15.6616 25.5648 15.5786L30.0014 13.246L34.438 15.5786C34.5066 15.6146 34.5815 15.6324 34.6561 15.6324C34.7533 15.6324 34.85 15.6022 34.9317 15.5429C35.076 15.438 35.1483 15.2603 35.1182 15.0844L34.2708 10.144L37.8603 6.64524C37.9881 6.52067 38.0341 6.33438 37.979 6.16468ZM33.4399 9.64464C33.3294 9.75233 33.2789 9.90753 33.305 10.0596L34.0336 14.3067L30.2196 12.3015C30.0831 12.2297 29.9199 12.2297 29.7833 12.3015L25.9692 14.3067L26.6975 10.0596C26.7236 9.9075 26.6732 9.75236 26.5627 9.64467L23.4772 6.63687L27.7413 6.01717C27.894 5.99498 28.026 5.8991 28.0943 5.76075L30.0014 1.89659L31.9085 5.76072C31.9768 5.89907 32.1088 5.99498 32.2615 6.01717L36.5257 6.63684L33.4399 9.64464Z" fill="#50735F"/>
<path d="M33.4399 9.64464C33.3294 9.75233 33.2789 9.90753 33.305 10.0596L34.0336 14.3067L30.2196 12.3015C30.0831 12.2297 29.9199 12.2297 29.7833 12.3015L25.9692 14.3067L26.6975 10.0596C26.7236 9.9075 26.6732 9.75236 26.5627 9.64467L23.4772 6.63687L27.7413 6.01717C27.894 5.99498 28.026 5.8991 28.0943 5.76075L30.0014 1.89659L31.9085 5.76072C31.9768 5.89907 32.1088 5.99498 32.2615 6.01717L36.5257 6.63684L33.4399 9.64464Z" fill="#50735F"/>
</g>
<g clip-path="url(#clip2_1_96794)">
<path d="M59.98 6.16468C59.9248 5.99495 59.7781 5.87129 59.6016 5.84563L54.6412 5.12481L52.4228 0.629949C52.3438 0.46994 52.1809 0.368652 52.0025 0.368652C51.824 0.368652 51.6611 0.469971 51.5821 0.629949L49.3636 5.12484L44.4033 5.84563C44.2267 5.87129 44.08 5.99498 44.0249 6.16468C43.9698 6.33438 44.0158 6.52067 44.1435 6.64521L47.7327 10.144L46.8856 15.0844C46.8554 15.2603 46.9277 15.438 47.0721 15.5429C47.2164 15.6477 47.4077 15.6616 47.5658 15.5786L52.0024 13.246L56.439 15.5786C56.5076 15.6146 56.5824 15.6324 56.6571 15.6324C56.7543 15.6324 56.851 15.6022 56.9327 15.5429C57.077 15.438 57.1493 15.2603 57.1192 15.0844L56.2717 10.144L59.8613 6.64524C59.9891 6.52067 60.0351 6.33438 59.98 6.16468ZM55.4408 9.64464C55.3303 9.75233 55.2799 9.90753 55.306 10.0596L56.0345 14.3067L52.2206 12.3015C52.0841 12.2297 51.9209 12.2297 51.7843 12.3015L47.9702 14.3067L48.6985 10.0596C48.7245 9.9075 48.6741 9.75236 48.5637 9.64467L45.4782 6.63687L49.7423 6.01717C49.895 5.99498 50.027 5.8991 50.0953 5.76075L52.0024 1.89659L53.9095 5.76072C53.9778 5.89907 54.1098 5.99498 54.2625 6.01717L58.5267 6.63684L55.4408 9.64464Z" fill="#50735F"/>
<path d="M55.4408 9.64464C55.3303 9.75233 55.2799 9.90753 55.306 10.0596L56.0345 14.3067L52.2206 12.3015C52.0841 12.2297 51.9209 12.2297 51.7843 12.3015L47.9702 14.3067L48.6985 10.0596C48.7245 9.9075 48.6741 9.75236 48.5637 9.64467L45.4782 6.63687L49.7423 6.01717C49.895 5.99498 50.027 5.8991 50.0953 5.76075L52.0024 1.89659L53.9095 5.76072C53.9778 5.89907 54.1098 5.99498 54.2625 6.01717L58.5267 6.63684L55.4408 9.64464Z" fill="#50735F"/>
</g>
<g clip-path="url(#clip3_1_96794)">
<path d="M81.9809 6.16468C81.9258 5.99495 81.7791 5.87129 81.6025 5.84563L76.6422 5.12481L74.4238 0.629949C74.3448 0.46994 74.1819 0.368652 74.0034 0.368652C73.825 0.368652 73.662 0.469971 73.5831 0.629949L71.3646 5.12484L66.4043 5.84563C66.2277 5.87129 66.081 5.99498 66.0259 6.16468C65.9707 6.33438 66.0167 6.52067 66.1445 6.64521L69.7337 10.144L68.8865 15.0844C68.8564 15.2603 68.9287 15.438 69.073 15.5429C69.2174 15.6477 69.4087 15.6616 69.5667 15.5786L74.0034 13.246L78.4399 15.5786C78.5085 15.6146 78.5834 15.6324 78.658 15.6324C78.7552 15.6324 78.852 15.6022 78.9336 15.5429C79.078 15.438 79.1503 15.2603 79.1201 15.0844L78.2727 10.144L81.8623 6.64524C81.9901 6.52067 82.0361 6.33438 81.9809 6.16468ZM77.4418 9.64464C77.3313 9.75233 77.2809 9.90753 77.307 10.0596L78.0355 14.3067L74.2216 12.3015C74.085 12.2297 73.9219 12.2297 73.7853 12.3015L69.9712 14.3067L70.6995 10.0596C70.7255 9.9075 70.6751 9.75236 70.5647 9.64467L67.4791 6.63687L71.7433 6.01717C71.896 5.99498 72.0279 5.8991 72.0963 5.76075L74.0034 1.89659L75.9105 5.76072C75.9788 5.89907 76.1107 5.99498 76.2634 6.01717L80.5277 6.63684L77.4418 9.64464Z" fill="#50735F"/>
<path d="M77.4418 9.64464C77.3313 9.75233 77.2809 9.90753 77.307 10.0596L78.0355 14.3067L74.2216 12.3015C74.085 12.2297 73.9219 12.2297 73.7853 12.3015L69.9712 14.3067L70.6995 10.0596C70.7255 9.9075 70.6751 9.75236 70.5647 9.64467L67.4791 6.63687L71.7433 6.01717C71.896 5.99498 72.0279 5.8991 72.0963 5.76075L74.0034 1.89659L75.9105 5.76072C75.9788 5.89907 76.1107 5.99498 76.2634 6.01717L80.5277 6.63684L77.4418 9.64464Z" fill="#50735F"/>
</g>
<g clip-path="url(#clip4_1_96794)">
<path fill-rule="evenodd" clip-rule="evenodd" d="M103.98 6.16397C103.925 5.99427 103.778 5.87062 103.602 5.84496L98.6419 5.12423L96.4237 0.629917C96.3448 0.469927 96.1819 0.368652 96.0034 0.368652C95.825 0.368652 95.6621 0.469958 95.5831 0.629917L93.3649 5.12426L88.4052 5.84496C88.2287 5.87062 88.082 5.9943 88.0269 6.16397C87.9717 6.33365 88.0177 6.51992 88.1455 6.64444L91.7342 10.1428L90.8872 15.0826C90.857 15.2584 90.9293 15.4362 91.0736 15.541C91.218 15.6458 91.4093 15.6597 91.5673 15.5767L96.0034 13.2445L100.439 15.5767C100.508 15.6128 100.583 15.6306 100.657 15.6306C100.755 15.6306 100.851 15.6004 100.933 15.541C101.077 15.4362 101.15 15.2585 101.12 15.0826L100.272 10.1428L103.861 6.64448C103.989 6.51992 104.035 6.33365 103.98 6.16397ZM99.3066 10.0584C99.2805 9.90636 99.3309 9.75119 99.4414 9.64351L102.527 6.63607L98.2632 6.01648C98.1105 5.9943 97.9786 5.8984 97.9102 5.76006L96.0034 1.8964L94.0965 5.76009C94.0282 5.89843 93.8963 5.9943 93.7436 6.01648L89.4799 6.6361L92.5651 9.64354C92.6755 9.75122 92.7259 9.90633 92.6999 10.0584L91.9717 14.305L95.7853 12.3C95.9219 12.2282 96.085 12.2282 96.2216 12.3L100.035 14.305L99.3066 10.0584Z" fill="#50735F"/>
<path d="M99.4414 9.64351C99.3309 9.75119 99.2805 9.90636 99.3066 10.0584L100.035 14.305L96.2216 12.3C96.085 12.2282 95.9219 12.2282 95.7853 12.3L91.9717 14.305L92.6999 10.0584C92.7259 9.90633 92.6755 9.75122 92.5651 9.64354L89.4799 6.6361L93.7436 6.01648C93.8963 5.9943 94.0282 5.89843 94.0965 5.76009L96.0034 1.8964L97.9102 5.76006C97.9786 5.8984 98.1105 5.9943 98.2632 6.01648L102.527 6.63607L99.4414 9.64351Z" fill="#50735F"/>
</g>
<defs>
<clipPath id="clip0_1_96794">
<rect width="16.001" height="16.001" fill="white"/>
</clipPath>
<clipPath id="clip1_1_96794">
<rect width="16.001" height="16.001" fill="white" transform="translate(22.001)"/>
</clipPath>
<clipPath id="clip2_1_96794">
<rect width="16.001" height="16.001" fill="white" transform="translate(44.002)"/>
</clipPath>
<clipPath id="clip3_1_96794">
<rect width="16.001" height="16.001" fill="white" transform="translate(66.0029)"/>
</clipPath>
<clipPath id="clip4_1_96794">
<rect width="15.999" height="15.999" fill="white" transform="translate(88.0039)"/>
</clipPath>
</defs>
</svg>
