<svg width="18" height="18" viewBox="0 0 18 18" fill="none" xmlns="http://www.w3.org/2000/svg">
<path d="M5.42505 7.05286C5.42505 7.34059 5.31073 7.61668 5.1072 7.82023C4.90379 8.02363 4.62783 8.13795 4.3401 8.13795C4.05212 8.13795 3.77629 8.02363 3.57274 7.82023C3.36934 7.61682 3.25488 7.34073 3.25488 7.05286C3.25488 6.76514 3.36934 6.48905 3.57274 6.2855C3.77614 6.0821 4.05211 5.96777 4.3401 5.96777C4.62783 5.96777 4.90378 6.0821 5.1072 6.2855C5.31073 6.48903 5.42505 6.76513 5.42505 7.05286ZM9.76533 7.05286C9.76533 7.34059 9.65101 7.61668 9.4476 7.82023C9.2442 8.02363 8.9681 8.13795 8.68024 8.13795C8.39252 8.13795 8.11642 8.02363 7.91288 7.82023C7.70947 7.61682 7.59515 7.34073 7.59515 7.05286C7.59515 6.76514 7.70947 6.48905 7.91288 6.2855C8.11628 6.0821 8.39238 5.96777 8.68024 5.96777C8.96796 5.96777 9.24406 6.0821 9.4476 6.2855C9.65101 6.48903 9.76533 6.76513 9.76533 7.05286ZM14.1057 7.05286C14.1057 7.34059 13.9913 7.61668 13.7879 7.82023C13.5845 8.02363 13.3085 8.13795 13.0205 8.13795C12.7328 8.13795 12.4568 8.02363 12.2534 7.82023C12.0498 7.61682 11.9356 7.34073 11.9356 7.05286C11.9356 6.76514 12.0499 6.48905 12.2534 6.2855C12.4568 6.0821 12.7328 5.96777 13.0205 5.96777C13.3085 5.96777 13.5843 6.0821 13.7879 6.2855C13.9913 6.4889 14.1057 6.765 14.1057 7.05286Z" fill="black"/>
<path d="M14.1065 1.08499C14.6819 1.08552 15.2335 1.31443 15.6403 1.72139C16.0472 2.12807 16.2762 2.67985 16.2767 3.25517V10.8513C16.2762 11.4266 16.0473 11.9783 15.6403 12.3851C15.2336 12.792 14.6819 13.021 14.1065 13.0215L8.23153 13.0214L4.34058 16.9123V13.0214H3.25537C2.68005 13.0208 2.12839 12.7919 1.72159 12.385C1.31467 11.9783 1.08575 11.4265 1.0852 10.8512L1.08534 3.25537C1.08586 2.68005 1.31477 2.12838 1.72173 1.72159C2.12842 1.31467 2.68019 1.08574 3.25551 1.0852H14.1069M14.1067 0.000132133L3.25537 0C2.39219 0 1.5642 0.342979 0.953588 0.953588C0.342979 1.5642 0 2.39223 0 3.25537V10.8515C0 11.7147 0.342979 12.5427 0.953588 13.1533C1.5642 13.7639 2.39223 14.1069 3.25537 14.1069V16.9128V16.9127C3.25471 17.2024 3.3697 17.4802 3.57508 17.6845C3.78034 17.8887 4.05881 18.0022 4.34837 18C4.63424 17.9998 4.90809 17.8845 5.10765 17.6799L8.68089 14.1066H14.1066C14.9698 14.1066 15.7978 13.7636 16.4084 13.153C17.019 12.5424 17.3619 11.7144 17.3619 10.8512L17.3621 3.25542C17.3621 2.39224 17.0191 1.56424 16.4085 0.953635C15.7979 0.343026 14.9699 4.71098e-05 14.1067 4.71098e-05L14.1067 0.000132133Z" fill="black"/>
</svg>
