<svg width="18" height="18" viewBox="0 0 18 18" fill="none" xmlns="http://www.w3.org/2000/svg">
<path d="M15.6798 1.40623H14.0626V0.562494C14.0626 0.251866 13.8107 0 13.5001 0C13.1895 0 12.9376 0.251866 12.9376 0.562494V1.40623H5.06254V0.562494C5.06254 0.251866 4.81067 0 4.50003 0C4.1894 0 3.93753 0.251866 3.93753 0.562494V1.40623H2.32035C1.04089 1.40623 0 2.44711 0 3.72654V15.6797C0 16.9591 1.04089 18 2.32035 18H15.6797C16.9591 18 18 16.9591 18 15.6797V3.72654C18 2.44711 16.9591 1.40623 15.6797 1.40623H15.6798ZM2.32047 2.53122H3.93766V3.09372C3.93766 3.40435 4.18953 3.65621 4.50016 3.65621C4.81079 3.65621 5.06266 3.40435 5.06266 3.09372V2.53122H12.9377V3.09372C12.9377 3.40435 13.1896 3.65621 13.5002 3.65621C13.8109 3.65621 14.0627 3.40435 14.0627 3.09372V2.53122H15.6799C16.339 2.53122 16.8752 3.06749 16.8752 3.72654V5.06245H1.12514V3.72654C1.12514 3.06749 1.66141 2.53122 2.32047 2.53122ZM15.6798 16.8748H2.32047C1.66141 16.8748 1.12514 16.3386 1.12514 15.6795V6.1875H16.8752V15.6795C16.8752 16.3386 16.339 16.8748 15.6799 16.8748H15.6798Z" fill="white"/>
<path d="M4 11.3403L7.42444 15L14 7.99304L13.056 7L7.42444 13L4.93096 10.3403L4 11.3403Z" fill="white"/>
</svg>
