<svg width="78" height="21" viewBox="0 0 78 21" fill="none" xmlns="http://www.w3.org/2000/svg">
<path d="M72.836 16.112H74.166L75.44 15.51L76.42 14.516L76.924 13.312L77.162 12.038V10.008L76.924 8.734L76.42 7.53L75.44 6.536L74.166 5.934H72.836L71.562 6.536L70.582 7.53L70.078 8.734L69.84 10.008V12.038L70.078 13.312L70.582 14.516L71.562 15.51L72.836 16.112ZM73.06 14.964L72.248 14.572L71.548 13.83L71.212 13.018L71.002 11.94V10.092L71.198 9.07L71.534 8.202L72.234 7.488L73.074 7.082H73.928L74.768 7.488L75.468 8.202L75.804 9.07L76 10.092V11.94L75.79 13.018L75.454 13.83L74.754 14.572L73.942 14.964H73.06Z" fill="#50735F"/>
<g clip-path="url(#clip0_1_97018)">
<path d="M60.75 1.55618L57.6563 1.55618C57.5856 1.55631 57.5161 1.5742 57.4541 1.60821C57.3921 1.64221 57.3397 1.69125 57.3016 1.7508L55.8762 1.03811C55.8176 1.00885 55.753 0.993637 55.6875 0.993676L50.4425 0.993676C49.8307 0.991214 49.2326 1.17454 48.7273 1.51941C48.2219 1.86428 47.8332 2.35443 47.6125 2.92502L46.386 6.06013C45.9337 7.21259 45.702 8.43981 45.7031 9.67785C45.7037 10.1343 45.8852 10.572 46.208 10.8948C46.5308 11.2176 46.9685 11.3991 47.4249 11.3997L51.4013 11.3997C51.0598 12.2735 50.4844 13.934 50.4844 15.1966C50.4844 16.0144 50.9122 16.6821 51.7219 17.1279C51.923 17.2388 52.149 17.2968 52.3786 17.2967C52.5744 17.2962 52.7678 17.2543 52.9462 17.1737C53.1387 17.089 53.3086 16.9603 53.4424 16.798C53.5762 16.6357 53.6701 16.4443 53.7165 16.2391C54.3094 13.6345 56.4942 11.9478 57.4276 11.3316C57.4956 11.376 57.5751 11.3996 57.6563 11.3997L60.75 11.3997C60.8619 11.3997 60.9692 11.3552 61.0484 11.2761C61.1275 11.197 61.1719 11.0897 61.1719 10.9778L61.1719 1.97777C61.1718 1.86593 61.1274 1.7587 61.0483 1.67964C60.9691 1.60059 60.8619 1.55618 60.75 1.55618ZM52.8936 16.053C52.8757 16.1305 52.8399 16.2028 52.789 16.2639C52.7381 16.3251 52.6735 16.3735 52.6005 16.4051C52.5261 16.4396 52.4447 16.456 52.3627 16.4532C52.2808 16.4504 52.2007 16.4283 52.1289 16.3888C51.59 16.0923 51.3281 15.7022 51.3281 15.1966C51.3281 13.6196 52.4059 11.1747 52.4169 11.1494C52.4455 11.0851 52.4575 11.0147 52.452 10.9446C52.4465 10.8745 52.4235 10.8069 52.3852 10.7479C52.3469 10.689 52.2944 10.6405 52.2326 10.607C52.1708 10.5734 52.1016 10.5559 52.0313 10.5559L47.4249 10.5559C47.1921 10.5557 46.9689 10.4631 46.8043 10.2985C46.6397 10.1339 46.5471 9.91066 46.5469 9.67785C46.5459 8.54503 46.7578 7.42211 47.1715 6.36753L48.3981 3.23243C48.5576 2.82031 48.8384 2.4663 49.2035 2.21722C49.5685 1.96813 50.0006 1.8357 50.4425 1.83743L55.5894 1.83743L57.1877 2.63674C57.2034 2.64365 57.2195 2.64966 57.2358 2.65474L57.2358 10.4527C56.4157 10.9454 53.626 12.8326 52.8936 16.053ZM60.3282 10.5559L58.0782 10.5559L58.0782 2.39965L60.3282 2.39965L60.3282 10.5559Z" fill="#884F56"/>
</g>
<path d="M27.038 16H28.2V6.046H27.57L24.14 7.782L24.658 8.818L27.038 7.586V16Z" fill="#50735F"/>
<g clip-path="url(#clip1_1_97018)">
<path d="M2.24996 16.4439L5.34372 16.4439C5.4144 16.4438 5.48393 16.4259 5.5459 16.3919C5.60787 16.3579 5.6603 16.3089 5.69837 16.2493L7.12375 16.962C7.18235 16.9913 7.24697 17.0065 7.31247 17.0064L12.5575 17.0064C13.1693 17.0089 13.7674 16.8256 14.2727 16.4807C14.7781 16.1358 15.1668 15.6457 15.3875 15.0751L16.614 11.94C17.0663 10.7875 17.298 9.56031 17.2969 8.32227C17.2963 7.86577 17.1148 7.42813 16.792 7.10534C16.4692 6.78254 16.0315 6.60097 15.5751 6.60045L11.5987 6.60045C11.9402 5.7266 12.5156 4.0661 12.5156 2.80357C12.5156 1.98569 12.0878 1.318 11.2781 0.87222C11.077 0.761351 10.851 0.703292 10.6214 0.703469C10.4256 0.70395 10.2322 0.745837 10.0538 0.826375C9.86133 0.911139 9.69137 1.03983 9.5576 1.20214C9.42382 1.36444 9.32993 1.55584 9.28348 1.76097C8.6906 4.36563 6.50584 6.05229 5.57237 6.66851C5.50435 6.62417 5.42492 6.60052 5.34372 6.60045L2.24996 6.60045C2.13807 6.60045 2.03076 6.6449 1.95165 6.72402C1.87253 6.80313 1.82808 6.91044 1.82808 7.02233L1.82808 16.0224C1.82816 16.1342 1.87264 16.2414 1.95175 16.3205C2.03086 16.3995 2.13812 16.4439 2.24996 16.4439ZM10.1064 1.94716C10.1243 1.86961 10.1601 1.79734 10.211 1.73618C10.2619 1.67502 10.3265 1.62667 10.3995 1.59503C10.4739 1.56056 10.5553 1.54408 10.6373 1.54691C10.7192 1.54975 10.7993 1.57182 10.8711 1.61135C11.41 1.90778 11.6719 2.29788 11.6719 2.80357C11.6719 4.38054 10.5941 6.82545 10.5831 6.85077C10.5545 6.91501 10.5425 6.98539 10.548 7.0555C10.5535 7.1256 10.5765 7.19322 10.6148 7.25219C10.6531 7.31116 10.7056 7.35961 10.7674 7.39315C10.8292 7.42668 10.8984 7.44423 10.9687 7.4442L15.5751 7.4442C15.8079 7.44443 16.0311 7.53701 16.1957 7.70163C16.3603 7.86625 16.4529 8.08946 16.4531 8.32227C16.4541 9.45509 16.2422 10.578 15.8285 11.6326L14.6019 14.7677C14.4424 15.1798 14.1616 15.5338 13.7965 15.7829C13.4315 16.032 12.9994 16.1644 12.5575 16.1627L7.41063 16.1627L5.81228 15.3634C5.7966 15.3565 5.78055 15.3505 5.76419 15.3454L5.76419 7.54742C6.58431 7.05467 9.37404 5.16748 10.1064 1.94716ZM2.67183 7.4442L4.92184 7.4442L4.92184 15.6005L2.67183 15.6005L2.67183 7.4442Z" fill="#50735F"/>
</g>
<defs>
<clipPath id="clip0_1_97018">
<rect width="18" height="18" fill="white" transform="translate(45)"/>
</clipPath>
<clipPath id="clip1_1_97018">
<rect width="18" height="18" fill="white" transform="translate(18 18) rotate(180)"/>
</clipPath>
</defs>
</svg>
