<svg width="18" height="18" viewBox="0 0 18 18" fill="none" xmlns="http://www.w3.org/2000/svg">
<path d="M16.4664 3.20264H15.4078L15.4077 1.64703C15.4077 0.739005 14.6689 0.00015978 13.7608 0.00015978L4.23893 0C3.33092 0 2.59208 0.738805 2.59208 1.64687V3.20265H1.53355C0.687831 3.20265 0 3.89048 0 4.73621V13.2638C0 14.1096 0.687831 14.7974 1.53355 14.7974H2.59208V16.7839C2.59208 17.4545 3.13757 18 3.80814 18H14.1919C14.8625 18 15.4079 17.4545 15.4079 16.7839V14.7974H16.4665C17.3122 14.7974 18 14.1096 18 13.2638V4.73621C17.9997 3.89048 17.3118 3.20232 16.4663 3.20232L16.4664 3.20264ZM3.71721 1.64703C3.71721 1.35926 3.95113 1.12501 4.23922 1.12501H13.7615C14.0493 1.12501 14.2835 1.35925 14.2835 1.64703V3.2028L3.71737 3.20265L3.71721 1.64703ZM14.2825 16.7843C14.2825 16.8327 14.24 16.8752 14.1916 16.8752H3.8079C3.75949 16.8752 3.71699 16.8327 3.71699 16.7843V11.0451C3.71699 10.9967 3.75949 10.9542 3.8079 10.9542H14.1916C14.24 10.9542 14.2825 10.9967 14.2825 11.0451V14.7977V16.7843ZM16.8748 13.2639C16.8748 13.4892 16.6915 13.6724 16.4662 13.6724H15.4077L15.4075 11.0452C15.4075 10.3746 14.862 9.82911 14.1915 9.82911L3.80776 9.82895C3.13715 9.82895 2.5917 10.3744 2.5917 11.045L2.59154 13.6726H1.53301C1.30772 13.6726 1.12445 13.4893 1.12445 13.264V4.73641C1.12445 4.51112 1.30772 4.32786 1.53301 4.32786H16.466C16.6913 4.32786 16.8745 4.51112 16.8745 4.73641L16.8748 13.2639ZM15.4079 6.04721C15.4079 6.35783 15.1562 6.6098 14.8453 6.6098H12.3654C12.0547 6.6098 11.8028 6.35815 11.8028 6.04721C11.8028 5.73627 12.0544 5.48462 12.3654 5.48462H14.8453C15.1559 5.48462 15.4079 5.7366 15.4079 6.04721Z" fill="black"/>
</svg>
