<svg width="104" height="16" viewBox="0 0 104 16" fill="none" xmlns="http://www.w3.org/2000/svg">
<g clip-path="url(#clip0_1_96906)">
<path d="M8.42087 0.629827L8.02849 0.823479L8.42087 0.629827ZM8.42087 0.629827C8.3419 0.469818 8.17895 0.36853 8.0005 0.36853C7.82208 0.36853 7.65911 0.469849 7.58013 0.629827M8.42087 0.629827L10.6393 5.12469L15.5996 5.84551C15.7762 5.87117 15.9229 5.99483 15.978 6.16456C16.0332 6.33426 15.9872 6.52055 15.8594 6.64512L12.2698 10.1439L7.58013 0.629827M7.58013 0.629827L5.36163 5.12472L7.58013 0.629827ZM7.58013 0.629827L7.97246 0.823466L5.75401 5.31838L7.5521 1.67518L7.97245 0.823494L7.58013 0.629827ZM8.45131 11.8588L8.45135 11.8588L11.3685 13.3925L10.8113 10.1441C10.8113 10.1441 10.8113 10.1441 10.8113 10.144C10.7573 9.82967 10.8616 9.50898 11.0899 9.28646L8.45131 11.8588ZM8.45131 11.8588C8.16909 11.7104 7.83194 11.7104 7.54973 11.8588L7.54969 11.8588L4.63226 13.3926L5.18933 10.144L5.18934 10.1439C5.24319 9.82969 5.13903 9.50911 4.9108 9.28656L4.91075 9.28651L2.55064 6.98585L5.81227 6.51185M8.45131 11.8588L11.0899 9.28643L13.4502 6.98582L10.1886 6.51185C9.87296 6.46599 9.60033 6.26773 9.45923 5.98198L9.45918 5.98188L8.00046 3.02622L6.54169 5.98192L6.54165 5.98201C6.40052 6.26781 6.12786 6.466 5.81227 6.51185M5.81227 6.51185L5.74037 6.01705L5.81227 6.51185Z" stroke="#50735F"/>
</g>
<g clip-path="url(#clip1_1_96906)">
<path d="M30.4218 0.629827L30.0295 0.823479L30.4218 0.629827ZM30.4218 0.629827C30.3429 0.469818 30.1799 0.36853 30.0015 0.36853C29.8231 0.36853 29.6601 0.469849 29.5811 0.629827M30.4218 0.629827L32.6402 5.12469L37.6006 5.84551C37.7772 5.87117 37.9239 5.99483 37.979 6.16456C38.0341 6.33426 37.9881 6.52055 37.8603 6.64512L34.2708 10.1439L29.5811 0.629827M29.5811 0.629827L27.3626 5.12472L29.5811 0.629827ZM29.5811 0.629827L29.9734 0.823466L27.755 5.31838L29.5531 1.67518L29.9734 0.823494L29.5811 0.629827ZM30.4523 11.8588L30.4523 11.8588L33.3695 13.3925L32.8123 10.1441C32.8123 10.1441 32.8123 10.1441 32.8122 10.144C32.7583 9.82967 32.8626 9.50898 33.0909 9.28646L30.4523 11.8588ZM30.4523 11.8588C30.1701 11.7104 29.8329 11.7104 29.5507 11.8588L29.5507 11.8588L26.6332 13.3926L27.1903 10.144L27.1903 10.1439C27.2442 9.82969 27.14 9.50911 26.9118 9.28656L26.9117 9.28651L24.5516 6.98585L27.8132 6.51185M30.4523 11.8588L33.0909 9.28643L35.4512 6.98582L32.1896 6.51185C31.8739 6.46599 31.6013 6.26773 31.4602 5.98198L31.4602 5.98188L30.0014 3.02622L28.5427 5.98192L28.5426 5.98201C28.4015 6.26781 28.1288 6.466 27.8132 6.51185M27.8132 6.51185L27.7413 6.01705L27.8132 6.51185Z" stroke="#50735F"/>
</g>
<g clip-path="url(#clip2_1_96906)">
<path d="M52.4228 0.629827L52.0304 0.823479L52.4228 0.629827ZM52.4228 0.629827C52.3438 0.469818 52.1809 0.36853 52.0025 0.36853C51.824 0.36853 51.6611 0.469849 51.5821 0.629827M52.4228 0.629827L54.6412 5.12469L59.6016 5.84551C59.7781 5.87117 59.9248 5.99483 59.98 6.16456C60.0351 6.33426 59.9891 6.52055 59.8613 6.64512L56.2717 10.1439L51.5821 0.629827M51.5821 0.629827L49.3636 5.12472L51.5821 0.629827ZM51.5821 0.629827L51.9744 0.823466L49.756 5.31838L51.5541 1.67518L51.9744 0.823494L51.5821 0.629827ZM52.4533 11.8588L52.4533 11.8588L55.3704 13.3925L54.8132 10.1441C54.8132 10.1441 54.8132 10.1441 54.8132 10.144C54.7593 9.82967 54.8635 9.50898 55.0918 9.28646L52.4533 11.8588ZM52.4533 11.8588C52.171 11.7104 51.8339 11.7104 51.5517 11.8588L51.5516 11.8588L48.6342 13.3926L49.1913 10.144L49.1913 10.1439C49.2451 9.82969 49.141 9.50911 48.9128 9.28656L48.9127 9.28651L46.5526 6.98585L49.8142 6.51185M52.4533 11.8588L55.0919 9.28643L57.4522 6.98582L54.1906 6.51185C53.8749 6.46599 53.6023 6.26773 53.4612 5.98198L53.4611 5.98188L52.0024 3.02622L50.5436 5.98192L50.5436 5.98201C50.4025 6.26781 50.1298 6.466 49.8142 6.51185M49.8142 6.51185L49.7423 6.01705L49.8142 6.51185Z" stroke="#50735F"/>
</g>
<g clip-path="url(#clip3_1_96906)">
<path d="M74.4238 0.629827L74.0314 0.823479L74.4238 0.629827ZM74.4238 0.629827C74.3448 0.469818 74.1819 0.36853 74.0034 0.36853C73.825 0.36853 73.662 0.469849 73.5831 0.629827M74.4238 0.629827L76.6422 5.12469L81.6025 5.84551C81.7791 5.87117 81.9258 5.99483 81.9809 6.16456C82.0361 6.33426 81.9901 6.52055 81.8623 6.64512L78.2727 10.1439L73.5831 0.629827M73.5831 0.629827L71.3646 5.12472L73.5831 0.629827ZM73.5831 0.629827L73.9754 0.823466L71.7569 5.31838L73.555 1.67518L73.9754 0.823494L73.5831 0.629827ZM74.4542 11.8588L74.4543 11.8588L77.3714 13.3925L76.8142 10.1441C76.8142 10.1441 76.8142 10.1441 76.8142 10.144C76.7602 9.82967 76.8645 9.50898 77.0928 9.28646L74.4542 11.8588ZM74.4542 11.8588C74.172 11.7104 73.8349 11.7104 73.5527 11.8588L73.5526 11.8588L70.6352 13.3926L71.1923 10.144L71.1923 10.1439C71.2461 9.82969 71.142 9.50911 70.9137 9.28656L70.9137 9.28651L68.5536 6.98585L71.8152 6.51185M74.4542 11.8588L77.0929 9.28643L79.4532 6.98582L76.1915 6.51185C75.8759 6.46599 75.6033 6.26773 75.4622 5.98198L75.4621 5.98188L74.0034 3.02622L72.5446 5.98192L72.5446 5.98201C72.4034 6.26781 72.1308 6.466 71.8152 6.51185M71.8152 6.51185L71.7433 6.01705L71.8152 6.51185Z" stroke="#50735F"/>
</g>
<g clip-path="url(#clip4_1_96906)">
<mask id="path-5-inside-1_1_96906" fill="white">
<path fill-rule="evenodd" clip-rule="evenodd" d="M103.98 6.16385C103.925 5.99414 103.778 5.8705 103.602 5.84484L98.6419 5.12411L96.4237 0.629795C96.3448 0.469805 96.1819 0.36853 96.0034 0.36853C95.825 0.36853 95.6621 0.469836 95.5831 0.629795L93.3649 5.12414L88.4052 5.84484C88.2287 5.8705 88.082 5.99418 88.0269 6.16385C87.9717 6.33353 88.0177 6.5198 88.1455 6.64432L91.7342 10.1427L90.8872 15.0825C90.857 15.2583 90.9293 15.4361 91.0736 15.5409C91.218 15.6457 91.4093 15.6596 91.5673 15.5766L96.0034 13.2443L100.439 15.5766C100.508 15.6127 100.583 15.6304 100.657 15.6304C100.755 15.6304 100.851 15.6003 100.933 15.5409C101.077 15.4361 101.15 15.2583 101.12 15.0825L100.272 10.1427L103.861 6.64435C103.989 6.5198 104.035 6.33353 103.98 6.16385ZM99.3066 10.0583C99.2805 9.90624 99.3309 9.75106 99.4414 9.64338L102.527 6.63595L98.2632 6.01636C98.1105 5.99418 97.9786 5.89828 97.9102 5.75994L96.0034 1.89628L94.0965 5.75997C94.0282 5.89831 93.8963 5.99418 93.7436 6.01636L89.4799 6.63598L92.5651 9.64342C92.6755 9.7511 92.7259 9.90621 92.6999 10.0583L91.9717 14.3049L95.7853 12.2999C95.9219 12.2281 96.085 12.2281 96.2216 12.2999L100.035 14.3048L99.3066 10.0583Z"/>
<path d="M99.4414 9.64338C99.3309 9.75106 99.2805 9.90624 99.3066 10.0583L100.035 14.3048L96.2216 12.2999C96.085 12.2281 95.9219 12.2281 95.7853 12.2999L91.9717 14.3049L92.6999 10.0583C92.7259 9.90621 92.6755 9.7511 92.5651 9.64342L89.4799 6.63598L93.7436 6.01636C93.8963 5.99418 94.0282 5.89831 94.0965 5.75997L96.0034 1.89628L97.9102 5.75994C97.9786 5.89828 98.1105 5.99418 98.2632 6.01636L102.527 6.63595L99.4414 9.64338Z"/>
</mask>
<path d="M99.4414 9.64338L99.7904 10.0015L99.7904 10.0014L99.4414 9.64338ZM99.3066 10.0583L99.7994 9.97376L99.7994 9.97363L99.3066 10.0583ZM100.035 14.3048L99.8023 14.7474L100.699 15.2189L100.528 14.2203L100.035 14.3048ZM96.2216 12.2999L96.4543 11.8573L96.4542 11.8573L96.2216 12.2999ZM95.7853 12.2999L95.5527 11.8573L95.5526 11.8573L95.7853 12.2999ZM91.9717 14.3049L91.4788 14.2204L91.3076 15.2189L92.2043 14.7474L91.9717 14.3049ZM92.6999 10.0583L93.1927 10.1428L93.1927 10.1427L92.6999 10.0583ZM92.5651 9.64342L92.9142 9.28543L92.9141 9.28538L92.5651 9.64342ZM89.4799 6.63598L89.408 6.14118L88.4055 6.28687L89.1309 6.99401L89.4799 6.63598ZM93.7436 6.01636L93.6717 5.52156L93.6717 5.52156L93.7436 6.01636ZM94.0965 5.75997L94.5448 5.98135L94.5449 5.98126L94.0965 5.75997ZM96.0034 1.89628L96.4518 1.67499L96.0034 0.766522L95.555 1.67499L96.0034 1.89628ZM97.9102 5.75994L97.4619 5.98123L97.4619 5.98132L97.9102 5.75994ZM98.2632 6.01636L98.3351 5.52156H98.3351L98.2632 6.01636ZM102.527 6.63595L102.876 6.994L103.601 6.28684L102.599 6.14115L102.527 6.63595ZM99.0924 9.2853C98.8641 9.50784 98.7598 9.82858 98.8138 10.143L99.7994 9.97363C99.8011 9.98391 99.7977 9.99429 99.7904 10.0015L99.0924 9.2853ZM98.8138 10.1428L99.5422 14.3894L100.528 14.2203L99.7994 9.97376L98.8138 10.1428ZM100.268 13.8623L96.4543 11.8573L95.9889 12.7425L99.8023 14.7474L100.268 13.8623ZM96.4542 11.8573C96.172 11.709 95.8349 11.709 95.5527 11.8573L96.018 12.7425C96.0089 12.7473 95.998 12.7473 95.9889 12.7425L96.4542 11.8573ZM95.5526 11.8573L91.739 13.8623L92.2043 14.7474L96.018 12.7425L95.5526 11.8573ZM92.4645 14.3894L93.1927 10.1428L92.2071 9.97376L91.4788 14.2204L92.4645 14.3894ZM93.1927 10.1427C93.2465 9.82852 93.1424 9.50797 92.9142 9.28543L92.216 10.0014C92.2087 9.99423 92.2053 9.9839 92.207 9.9738L93.1927 10.1427ZM92.9141 9.28538L89.829 6.27795L89.1309 6.99401L92.2161 10.0014L92.9141 9.28538ZM89.5518 7.13078L93.8155 6.51116L93.6717 5.52156L89.408 6.14118L89.5518 7.13078ZM93.8155 6.51116C94.131 6.46531 94.4037 6.26714 94.5448 5.98135L93.6482 5.5386C93.6527 5.52948 93.6615 5.52304 93.6717 5.52156L93.8155 6.51116ZM94.5449 5.98126L96.4518 2.11757L95.555 1.67499L93.6481 5.53868L94.5449 5.98126ZM95.555 2.11756L97.4619 5.98123L98.3586 5.53866L96.4518 1.67499L95.555 2.11756ZM97.4619 5.98132C97.603 6.26705 97.8756 6.4653 98.1913 6.51116L98.3351 5.52156C98.3453 5.52305 98.3541 5.5295 98.3586 5.53856L97.4619 5.98132ZM98.1913 6.51116L102.455 7.13075L102.599 6.14115L98.3351 5.52156L98.1913 6.51116ZM102.178 6.2779L99.0924 9.28533L99.7904 10.0014L102.876 6.994L102.178 6.2779ZM103.98 6.16385L103.029 6.47277L103.029 6.47298L103.98 6.16385ZM103.602 5.84484L103.458 6.83445L103.458 6.83445L103.602 5.84484ZM98.6419 5.12411L97.7451 5.56668L97.9778 6.03811L98.4981 6.11371L98.6419 5.12411ZM96.4237 0.629795L97.3205 0.187224L97.3205 0.187211L96.4237 0.629795ZM95.5831 0.629795L94.6864 0.187142L94.6864 0.187206L95.5831 0.629795ZM93.3649 5.12414L93.5087 6.11374L94.0289 6.03814L94.2616 5.56673L93.3649 5.12414ZM88.4052 5.84484L88.549 6.83445L88.549 6.83445L88.4052 5.84484ZM88.0269 6.16385L88.9779 6.47298L88.9779 6.47282L88.0269 6.16385ZM88.1455 6.64432L88.8435 5.92825L88.8435 5.92825L88.1455 6.64432ZM91.7342 10.1427L92.7198 10.3117L92.8087 9.79358L92.4323 9.42663L91.7342 10.1427ZM90.8872 15.0825L91.8728 15.2515L91.8728 15.2515L90.8872 15.0825ZM91.0736 15.5409L91.6614 14.7319L91.6613 14.7318L91.0736 15.5409ZM91.5673 15.5766L92.0323 16.4619L92.0326 16.4617L91.5673 15.5766ZM96.0034 13.2443L96.4688 12.3592L96.0034 12.1146L95.5381 12.3592L96.0034 13.2443ZM100.439 15.5766L99.974 16.4617L99.9741 16.4617L100.439 15.5766ZM100.933 15.5409L100.345 14.7319L100.345 14.7321L100.933 15.5409ZM101.12 15.0825L102.105 14.9135L102.105 14.9134L101.12 15.0825ZM100.272 10.1427L99.5742 9.42659L99.1977 9.79356L99.2866 10.3118L100.272 10.1427ZM103.861 6.64435L104.559 7.36046L104.559 7.36042L103.861 6.64435ZM104.931 5.85494C104.758 5.32311 104.299 4.93562 103.745 4.85523L103.458 6.83445C103.258 6.80537 103.091 6.66518 103.029 6.47277L104.931 5.85494ZM103.745 4.85524L98.7857 4.1345L98.4981 6.11371L103.458 6.83445L103.745 4.85524ZM99.5386 4.68153L97.3205 0.187224L95.527 1.07237L97.7451 5.56668L99.5386 4.68153ZM97.3205 0.187211C97.073 -0.314125 96.5625 -0.63147 96.0034 -0.63147V1.36853C95.8012 1.36853 95.6165 1.25374 95.527 1.07238L97.3205 0.187211ZM96.0034 -0.63147C95.4444 -0.63147 94.9338 -0.314049 94.6864 0.187142L96.4798 1.07245C96.3903 1.25372 96.2057 1.36853 96.0034 1.36853V-0.63147ZM94.6864 0.187206L92.4682 4.68155L94.2616 5.56673L96.4798 1.07238L94.6864 0.187206ZM93.2211 4.13453L88.2614 4.85524L88.549 6.83445L93.5087 6.11374L93.2211 4.13453ZM88.2614 4.85523C87.7081 4.93563 87.2485 5.32321 87.0758 5.85489L88.9779 6.47282C88.9155 6.66514 88.7492 6.80536 88.549 6.83445L88.2614 4.85523ZM87.0758 5.85473C86.903 6.38654 87.0472 6.97022 87.4474 7.36039L88.8435 5.92825C88.9883 6.06938 89.0404 6.28052 88.9779 6.47298L87.0758 5.85473ZM87.4474 7.36039L91.0362 10.8588L92.4323 9.42663L88.8435 5.92825L87.4474 7.36039ZM90.7486 9.97368L89.9015 14.9135L91.8728 15.2515L92.7198 10.3117L90.7486 9.97368ZM89.9015 14.9135C89.8071 15.4645 90.0336 16.0214 90.486 16.35L91.6613 14.7318C91.825 14.8507 91.907 15.0522 91.8728 15.2515L89.9015 14.9135ZM90.4859 16.3499C90.9382 16.6785 91.5376 16.7217 92.0323 16.4619L91.1023 14.6913C91.2809 14.5974 91.4977 14.6129 91.6614 14.7319L90.4859 16.3499ZM92.0326 16.4617L96.4687 14.1295L95.5381 12.3592L91.1019 14.6914L92.0326 16.4617ZM95.538 14.1295L99.974 16.4617L100.905 14.6915L96.4688 12.3592L95.538 14.1295ZM99.9741 16.4617C100.189 16.5747 100.424 16.6304 100.657 16.6304V14.6304C100.742 14.6304 100.827 14.6507 100.905 14.6915L99.9741 16.4617ZM100.657 16.6304C100.961 16.6304 101.265 16.536 101.521 16.3497L100.345 14.7321C100.438 14.6646 100.548 14.6304 100.657 14.6304V16.6304ZM101.521 16.3499C101.973 16.0214 102.2 15.4646 102.105 14.9135L100.134 15.2515C100.1 15.0521 100.182 14.8507 100.345 14.7319L101.521 16.3499ZM102.105 14.9134L101.258 9.97363L99.2866 10.3118L100.134 15.2515L102.105 14.9134ZM100.97 10.8588L104.559 7.36046L103.163 5.92825L99.5742 9.42659L100.97 10.8588ZM104.559 7.36042C104.96 6.97026 105.104 6.38659 104.931 5.85473L103.029 6.47298C102.966 6.28047 103.019 6.06934 103.163 5.92829L104.559 7.36042Z" fill="#50735F" mask="url(#path-5-inside-1_1_96906)"/>
</g>
<defs>
<clipPath id="clip0_1_96906">
<rect width="16.001" height="16.001" fill="white"/>
</clipPath>
<clipPath id="clip1_1_96906">
<rect width="16.001" height="16.001" fill="white" transform="translate(22.001)"/>
</clipPath>
<clipPath id="clip2_1_96906">
<rect width="16.001" height="16.001" fill="white" transform="translate(44.002)"/>
</clipPath>
<clipPath id="clip3_1_96906">
<rect width="16.001" height="16.001" fill="white" transform="translate(66.0029)"/>
</clipPath>
<clipPath id="clip4_1_96906">
<rect width="15.999" height="15.999" fill="white" transform="translate(88.0039)"/>
</clipPath>
</defs>
</svg>
