<svg width="68" height="48" viewBox="0 0 68 48" fill="none" xmlns="http://www.w3.org/2000/svg">
<path d="M23 35.496C23 35.2827 22.9147 35.2613 22.744 35.432C22.8293 35.5173 22.9147 35.5387 23 35.496C23 35.5813 22.936 35.6453 22.808 35.688C22.7227 35.7307 22.68 35.7733 22.68 35.816C22.68 36.5413 22.488 36.904 22.104 36.904V37.352H21.848C21.8053 37.5227 21.7627 37.6933 21.72 37.864C21.72 38.0347 21.6987 38.2053 21.656 38.376C21.528 38.3333 21.4 38.3333 21.272 38.376L20.824 38.888C20.5253 39.2293 20.3547 39.5707 20.312 39.912C20.2267 39.912 20.1413 39.8693 20.056 39.784C20.056 39.9547 19.9067 40.1893 19.608 40.488C19.3093 40.7867 19.224 41.064 19.352 41.32C19.1387 41.6187 18.776 42.0027 18.264 42.472C17.752 42.984 17.4107 43.3467 17.24 43.56C16.984 43.304 16.664 43.4107 16.28 43.88C16.408 43.9227 16.4933 43.9013 16.536 43.816C16.6213 43.7733 16.6853 43.752 16.728 43.752C16.472 44.0933 16.0027 44.456 15.32 44.84C14.68 45.2667 14.2533 45.5867 14.04 45.8C13.784 45.8853 13.4 46.056 12.888 46.312C12.376 46.568 11.9067 46.76 11.48 46.888C11.0533 47.016 10.6267 47.0373 10.2 46.952C7.768 47.336 5.67733 46.056 3.928 43.112C3.20267 40.6373 2.92533 38.9947 3.096 38.184C3.224 38.184 3.26667 38.2693 3.224 38.44C3.352 38.3973 3.416 38.3333 3.416 38.248C3.416 38.1627 3.39467 38.056 3.352 37.928C3.30933 37.8 3.288 37.6933 3.288 37.608C3.37333 37.5227 3.56533 37.48 3.864 37.48C3.864 37.352 3.8 37.3093 3.672 37.352C3.58667 37.352 3.50133 37.352 3.416 37.352C3.416 37.3093 3.43733 37.2027 3.48 37.032C3.52267 36.8613 3.56533 36.7333 3.608 36.648C3.43733 36.6907 3.352 36.8187 3.352 37.032C3.352 37.2027 3.288 37.3093 3.16 37.352C3.20267 37.2667 3.24533 37.1173 3.288 36.904C3.33067 36.6907 3.37333 36.5413 3.416 36.456C3.71467 36.4987 3.928 36.3067 4.056 35.88C5.16533 34.1733 5.99733 33.1493 6.552 32.808C6.552 33.1493 6.424 33.5973 6.168 34.152C5.912 34.7067 5.784 35.1333 5.784 35.432C5.784 35.4747 5.76267 35.496 5.72 35.496C5.67733 35.496 5.63467 35.5173 5.592 35.56C5.72 35.6027 5.784 35.56 5.784 35.432C5.912 35.432 5.93333 35.496 5.848 35.624C5.80533 35.6667 5.784 35.7093 5.784 35.752C5.784 35.7947 5.80533 35.8373 5.848 35.88C5.89067 36.008 5.95467 36.0293 6.04 35.944C6.12533 35.816 6.21067 35.752 6.296 35.752C6.21067 35.9227 6.18933 36.1147 6.232 36.328C6.104 36.3707 5.976 36.4987 5.848 36.712C5.72 36.9253 5.63467 37.0533 5.592 37.096C5.592 37.2667 5.656 37.352 5.784 37.352C5.48533 38.0347 5.25067 38.824 5.08 39.72C4.90933 40.616 4.90933 41.512 5.08 42.408C5.29333 43.304 5.76267 43.88 6.488 44.136C6.616 44.1787 6.808 44.2 7.064 44.2C7.36267 44.2 7.59733 44.2427 7.768 44.328C8.152 44.3707 8.62133 44.328 9.176 44.2C9.77333 44.1147 10.2 44.0933 10.456 44.136C10.6693 44.008 11.1813 43.7307 11.992 43.304C12.8453 42.8773 13.4853 42.536 13.912 42.28C14.296 41.8533 14.7653 41.512 15.32 41.256C15.5333 41.128 15.8533 40.808 16.28 40.296C16.7067 39.784 17.0907 39.4427 17.432 39.272C17.56 39.016 17.624 38.8667 17.624 38.824C17.9653 38.6107 18.3493 38.184 18.776 37.544C19.2453 36.904 19.6507 36.4773 19.992 36.264C19.9493 36.1787 19.9493 36.0933 19.992 36.008C20.0347 35.88 20.056 35.7733 20.056 35.688C21.8053 33.128 22.488 30.504 22.104 27.816C21.464 25.4693 19.288 23.9973 15.576 23.4C14.6373 23.4853 13.6987 23.4853 12.76 23.4C12.1627 23.4853 10.8613 23.784 8.856 24.296C6.89333 24.7653 5.37867 25 4.312 25C2.52 24.8293 1.28267 23.4213 0.6 20.776C0.642667 19.8373 0.941333 18.6 1.496 17.064C2.05067 15.528 2.37067 14.568 2.456 14.184C2.584 14.056 2.712 13.7573 2.84 13.288C2.968 12.8187 3.11733 12.52 3.288 12.392C3.50133 11.5813 3.864 10.5787 4.376 9.384C4.888 8.14667 5.22933 7.25067 5.4 6.696C4.632 6.99466 4.22667 7.22933 4.184 7.4C3.50133 7.4 3.07467 7.05866 2.904 6.376C2.776 5.65067 2.81867 5.07467 3.032 4.648C3.288 4.34933 3.928 4.11466 4.952 3.944C5.976 3.77333 6.616 3.496 6.872 3.112C7 3.06933 7.10667 3.09066 7.192 3.176C7.27733 3.26133 7.36267 3.304 7.448 3.304C12.952 2.28 15.96 1.74666 16.472 1.704C19.2027 1.36266 21.272 1.17066 22.68 1.128C27.032 0.914665 30.0187 1.08533 31.64 1.64C31.9813 2.19466 32.1093 2.55733 32.024 2.728C32.4507 3.41066 32.5787 3.98667 32.408 4.456C32.28 4.456 32.0667 4.54133 31.768 4.712C31.512 4.84 31.2987 4.86133 31.128 4.776C31.0853 4.69066 31.0427 4.56267 31 4.392C30.9573 4.22133 30.8933 4.072 30.808 3.944C30.0827 3.60266 29.2293 3.41067 28.248 3.368C27.3093 3.32533 26.2213 3.34666 24.984 3.432C23.7467 3.47467 22.7867 3.47467 22.104 3.432C19.2027 3.73066 16.856 4.02933 15.064 4.328C14.5093 4.456 13.5067 4.66933 12.056 4.968C10.648 5.224 9.58133 5.43733 8.856 5.608C8.51467 5.864 8.216 6.35466 7.96 7.08C7.704 7.80533 7.49067 8.27467 7.32 8.488C7.27733 8.57333 7.27733 8.65866 7.32 8.744C7.36267 8.82933 7.384 8.89333 7.384 8.936C7.21333 9.14933 7 9.55467 6.744 10.152C6.53067 10.7493 6.36 11.1547 6.232 11.368C6.31733 11.368 6.36 11.3893 6.36 11.432C6.40267 11.4747 6.40267 11.5387 6.36 11.624C6.36 11.6667 6.33867 11.7307 6.296 11.816C6.25333 11.9013 6.21067 12.008 6.168 12.136C6.12533 12.2213 6.12533 12.3067 6.168 12.392C6.08267 12.392 6.01867 12.3493 5.976 12.264C5.976 12.1787 5.95467 12.136 5.912 12.136C5.82667 12.2213 5.80533 12.3067 5.848 12.392C5.93333 12.4773 5.976 12.5627 5.976 12.648C5.76267 12.52 5.63467 12.6267 5.592 12.968C5.54933 13.1813 5.592 13.3307 5.72 13.416C5.63467 13.3733 5.57067 13.3947 5.528 13.48C5.48533 13.5227 5.44267 13.544 5.4 13.544L5.528 13.8L4.248 17.64H3.864C3.864 17.6827 3.928 17.704 4.056 17.704C3.20267 20.3067 2.75467 22.0133 2.712 22.824C5.016 22.952 7.10667 22.6533 8.984 21.928C9.24 21.8853 9.688 21.8213 10.328 21.736C11.0107 21.6507 11.48 21.5867 11.736 21.544C16.1733 21.3733 19.16 22.376 20.696 24.552C21.6773 25.2347 22.616 26.6427 23.512 28.776C23.4267 28.264 23.384 27.9653 23.384 27.88C24.1947 29.0747 24.2587 30.7173 23.576 32.808C23.832 33.0213 23.8533 33.4053 23.64 33.96C23.4267 34.5147 23.3413 34.8773 23.384 35.048C23.1707 35.048 23.064 35.1547 23.064 35.368C23.0213 35.4107 23 35.4533 23 35.496ZM13.144 2.92C13.144 2.792 13.0373 2.83466 12.824 3.048C10.776 3.26133 9.496 3.53867 8.984 3.88C9.96533 3.88 10.712 3.752 11.224 3.496C11.224 3.53866 11.2027 3.56 11.16 3.56C11.0747 3.64533 11.0533 3.73067 11.096 3.816C11.3093 3.816 11.4587 3.70933 11.544 3.496C11.5867 3.496 11.6293 3.53866 11.672 3.624C11.7147 3.70933 11.7787 3.73067 11.864 3.688C11.864 3.64533 11.8427 3.60266 11.8 3.56C11.7147 3.432 11.736 3.34667 11.864 3.304L12.056 3.688C12.056 3.688 12.0773 3.64533 12.12 3.56C12.2053 3.26133 12.2907 3.176 12.376 3.304L12.248 3.432C12.2907 3.64533 12.6107 3.64533 13.208 3.432C13.3787 3.47467 13.6133 3.45333 13.912 3.368C14.2533 3.28267 14.5093 3.304 14.68 3.432C15.064 3.304 15.2773 3.24 15.32 3.24C15.2347 3.32533 15.192 3.38933 15.192 3.432C15.2773 3.38933 15.4053 3.32533 15.576 3.24C15.7893 3.15467 15.9813 3.048 16.152 2.92C16.152 2.96266 16.1307 3.02666 16.088 3.112C16.0027 3.28267 16.024 3.38933 16.152 3.432C16.152 3.34666 16.216 3.32533 16.344 3.368C16.472 3.368 16.5573 3.38933 16.6 3.432V3.176C16.6427 3.176 16.6853 3.19733 16.728 3.24C16.7707 3.24 16.8133 3.24 16.856 3.24C17.752 2.94133 18.392 2.89867 18.776 3.112C19.8 2.856 20.3973 2.83466 20.568 3.048C20.6533 2.96266 20.696 2.856 20.696 2.728C20.696 2.55733 20.7387 2.45066 20.824 2.408C20.824 2.45066 20.824 2.51466 20.824 2.6C20.8667 2.68533 20.9093 2.74933 20.952 2.792C21.2507 2.83467 21.464 2.792 21.592 2.664C21.72 2.92 22.0613 2.87733 22.616 2.536C22.616 2.62133 22.6587 2.70667 22.744 2.792C22.8293 2.83467 22.872 2.792 22.872 2.664C22.7867 2.62133 22.7867 2.536 22.872 2.408C22.9147 2.32266 22.9573 2.30133 23 2.344V2.472C23.0853 2.6 23.448 2.64266 24.088 2.6C24.7707 2.51466 25.1973 2.49333 25.368 2.536C25.4107 2.408 25.496 2.344 25.624 2.344C25.8373 2.344 25.944 2.25866 25.944 2.088L26.072 2.344C26.2853 2.30133 26.6053 2.28 27.032 2.28C27.4587 2.28 27.7147 2.23733 27.8 2.152C28.312 2.45066 28.76 2.62133 29.144 2.664C29.144 2.45066 29.2293 2.344 29.4 2.344C29.5707 2.472 30.2107 2.472 31.32 2.344C31.1493 2.04533 30.872 1.91733 30.488 1.96C28.696 1.448 25.6027 1.34133 21.208 1.64C18.9893 1.768 17.0267 2.04533 15.32 2.472C14.2533 2.55733 13.528 2.70667 13.144 2.92ZM27.608 2.408C27.5653 2.49333 27.5013 2.49333 27.416 2.408C27.3733 2.49333 27.3947 2.536 27.48 2.536C27.5227 2.49333 27.5653 2.45066 27.608 2.408ZM27.032 2.472H26.968C26.9253 2.472 26.904 2.49333 26.904 2.536C26.9893 2.536 27.032 2.51466 27.032 2.472ZM28.12 2.472C27.992 2.472 27.9067 2.49333 27.864 2.536C28.0347 2.536 28.12 2.51466 28.12 2.472ZM14.552 3.624C14.552 3.496 14.488 3.432 14.36 3.432C14.36 3.60267 14.424 3.66667 14.552 3.624ZM5.208 14.056C5.29333 14.0133 5.31467 13.9707 5.272 13.928C5.272 13.8427 5.22933 13.8 5.144 13.8C5.144 13.9707 5.16533 14.056 5.208 14.056ZM4.568 16.104C4.61067 16.0187 4.54667 15.9547 4.376 15.912C4.41867 15.912 4.46133 15.9333 4.504 15.976C4.504 16.0613 4.52533 16.104 4.568 16.104ZM4.056 17.384C4.312 17.128 4.312 17 4.056 17V17.384ZM2.456 17.896H2.648V17.768H2.456V17.896ZM11.352 22.056C11.3093 22.184 11.224 22.2693 11.096 22.312C11.0107 22.3547 10.8827 22.3547 10.712 22.312C10.5413 22.2693 10.4347 22.248 10.392 22.248C10.264 22.248 10.0933 22.312 9.88 22.44C9.66667 22.568 9.47467 22.5893 9.304 22.504C9.304 22.6747 9.176 22.8027 8.92 22.888C8.70667 22.9307 8.57867 22.9947 8.536 23.08C8.83467 22.952 9.34667 22.8453 10.072 22.76C10.84 22.632 11.3947 22.4827 11.736 22.312C11.736 22.3973 11.8 22.44 11.928 22.44C12.3547 22.312 13.2507 22.312 14.616 22.44C15.9813 22.5253 16.8133 22.5467 17.112 22.504C15.1067 21.9067 13.5493 21.736 12.44 21.992C12.3973 21.992 12.376 21.9707 12.376 21.928C12.376 21.8427 12.3547 21.7787 12.312 21.736C12.2693 21.8213 12.1627 21.9067 11.992 21.992C11.8213 22.0347 11.7147 22.0773 11.672 22.12C11.544 21.992 11.4373 21.9707 11.352 22.056ZM11.224 22.056C11.1813 22.056 11.16 22.056 11.16 22.056C11.1173 22.056 11.096 22.0773 11.096 22.12C11.1813 22.12 11.224 22.0987 11.224 22.056ZM23.512 29.352C23.4693 29.352 23.448 29.352 23.448 29.352C23.4053 29.352 23.384 29.3733 23.384 29.416C23.4693 29.416 23.512 29.3947 23.512 29.352ZM22.36 32.744C22.4453 32.744 22.5093 32.6587 22.552 32.488C22.5947 32.3173 22.5947 32.1467 22.552 31.976C22.552 31.8053 22.5307 31.72 22.488 31.72C22.4453 31.8053 22.424 31.976 22.424 32.232C22.424 32.488 22.4027 32.6587 22.36 32.744ZM19.8 37.864C19.928 37.864 20.0347 37.8 20.12 37.672C20.248 37.5013 20.3547 37.416 20.44 37.416C20.4827 37.2453 20.76 36.648 21.272 35.624C21.784 34.6 22.0613 33.7893 22.104 33.192C21.976 33.4907 21.7627 33.9813 21.464 34.664C21.1653 35.3467 20.888 35.9653 20.632 36.52C20.376 37.032 20.0987 37.48 19.8 37.864ZM20.44 35.88C20.6533 35.9227 20.8027 35.7733 20.888 35.432C20.9307 35.304 20.9093 35.2187 20.824 35.176C20.7813 35.304 20.696 35.432 20.568 35.56C20.4827 35.688 20.44 35.7947 20.44 35.88ZM20.376 35.944C20.12 36.456 19.7787 37.0107 19.352 37.608C18.9253 38.1627 18.6053 38.5893 18.392 38.888C18.1787 39.144 17.7307 39.6347 17.048 40.36C16.408 41.0853 16.0453 41.4907 15.96 41.576C17.624 40.3387 19.16 38.4613 20.568 35.944H20.376ZM22.232 36.584C22.4027 36.584 22.488 36.5413 22.488 36.456C22.2747 36.456 22.168 36.456 22.168 36.456C22.168 36.4987 22.1893 36.5413 22.232 36.584ZM19.288 37.416C19.288 37.3733 19.3093 37.3307 19.352 37.288C19.4373 37.16 19.4373 37.0747 19.352 37.032C19.352 37.0747 19.3307 37.1173 19.288 37.16C19.2027 37.288 19.2027 37.3733 19.288 37.416ZM3.992 37.48C4.07733 37.5227 4.14133 37.5227 4.184 37.48C4.22667 37.3947 4.248 37.3093 4.248 37.224H3.992V37.48ZM19.736 38.12V38.248H19.928C19.928 38.2053 19.9493 38.184 19.992 38.184V38.056H19.8C19.8 38.0987 19.7787 38.12 19.736 38.12ZM19.544 38.504C19.672 38.504 19.736 38.4613 19.736 38.376C19.5653 38.376 19.5013 38.4187 19.544 38.504ZM19.032 39.144C19.16 39.1013 19.3307 38.9733 19.544 38.76C19.3733 38.76 19.2027 38.888 19.032 39.144ZM18.648 39.592H18.84V39.4H18.648V39.592ZM17.88 40.68C17.9227 40.5947 17.9653 40.5307 18.008 40.488C18.0933 40.4027 18.136 40.3387 18.136 40.296H17.88C17.9227 40.3813 17.9013 40.4667 17.816 40.552C17.7733 40.6373 17.7947 40.68 17.88 40.68ZM18.84 40.552L18.712 40.616C18.6693 40.616 18.648 40.6373 18.648 40.68L18.712 40.616C18.7973 40.616 18.84 40.5947 18.84 40.552ZM16.728 41.704C16.4293 41.9173 16.024 42.28 15.512 42.792C15.0427 43.176 14.7867 43.3893 14.744 43.432C15.128 43.304 15.384 43.0907 15.512 42.792C15.896 42.6213 16.3013 42.2587 16.728 41.704C16.8987 41.6613 17.048 41.5547 17.176 41.384C17.3467 41.2133 17.4107 41.064 17.368 40.936C17.2827 41.064 17.1547 41.2133 16.984 41.384C16.856 41.5547 16.7707 41.6613 16.728 41.704ZM15.384 41.576C15.2133 41.5333 15.0853 41.576 15 41.704C14.9573 41.7893 14.9787 41.8533 15.064 41.896C15.064 41.8533 15.128 41.8107 15.256 41.768C15.384 41.768 15.4267 41.704 15.384 41.576ZM15.704 41.896C15.7893 41.9387 15.832 41.896 15.832 41.768L15.896 41.64C15.7253 41.64 15.6613 41.7253 15.704 41.896ZM18.072 41.832H18.2V41.64H18.072V41.832ZM14.552 42.088H14.744C14.744 42.0027 14.68 41.96 14.552 41.96V42.088ZM14.552 42.792C15.0213 42.5787 15.3627 42.3013 15.576 41.96C15.192 42.1307 14.8507 42.408 14.552 42.792ZM18.008 42.472C18.0933 42.5147 18.1573 42.4507 18.2 42.28C18.2853 42.152 18.3493 42.0667 18.392 42.024C18.0933 42.0667 17.9653 42.216 18.008 42.472ZM14.04 42.6C13.9973 42.5147 13.9333 42.472 13.848 42.472C13.7627 42.5147 13.7413 42.6 13.784 42.728C13.5707 42.8133 13.1227 43.048 12.44 43.432C11.8 43.816 11.2453 44.0507 10.776 44.136L10.584 44.328C10.1573 44.4133 9.816 44.5413 9.56 44.712C9.38933 44.7973 9.02667 44.84 8.472 44.84C7.96 44.84 7.64 44.9253 7.512 45.096C9.26133 45.1813 10.584 44.8827 11.48 44.2L11.544 44.264C11.5867 44.3067 11.6293 44.328 11.672 44.328C11.7147 44.072 11.928 43.88 12.312 43.752C12.7387 43.624 12.9947 43.4533 13.08 43.24C13.1653 43.3253 13.2933 43.304 13.464 43.176C13.6347 43.048 13.7413 42.8987 13.784 42.728C13.9547 42.728 14.04 42.6853 14.04 42.6C14.2107 42.6 14.296 42.5147 14.296 42.344C14.1253 42.344 14.04 42.4293 14.04 42.6ZM17.368 42.728C17.4107 42.7707 17.4747 42.792 17.56 42.792C17.6453 42.8347 17.7093 42.8133 17.752 42.728C17.8373 42.6853 17.88 42.6427 17.88 42.6C17.7947 42.4293 17.624 42.472 17.368 42.728ZM17.432 42.856L17.304 42.984L17.432 42.856ZM16.984 43.048V43.176H17.112C17.1973 43.1333 17.2187 43.0907 17.176 43.048C17.176 43.0053 17.1333 42.984 17.048 42.984C17.048 43.0267 17.0267 43.048 16.984 43.048ZM14.232 43.816C14.4027 43.816 14.5307 43.7307 14.616 43.56C14.6587 43.5173 14.6587 43.4747 14.616 43.432C14.616 43.4747 14.552 43.5173 14.424 43.56C14.296 43.6453 14.232 43.7307 14.232 43.816ZM15.96 43.816C15.8747 43.816 15.832 43.8373 15.832 43.88C15.9173 43.88 15.96 43.8587 15.96 43.816ZM12.76 44.136C12.888 44.136 12.9733 44.072 13.016 43.944C12.8453 43.944 12.76 44.008 12.76 44.136ZM12.376 44.904H12.632C12.632 44.8613 12.6107 44.8187 12.568 44.776C12.568 44.6907 12.5467 44.648 12.504 44.648C12.504 44.6907 12.4827 44.7333 12.44 44.776C12.3973 44.8187 12.376 44.8613 12.376 44.904ZM11.48 44.968C11.48 44.9253 11.5013 44.8827 11.544 44.84C11.5867 44.7973 11.608 44.7547 11.608 44.712C11.5227 44.6693 11.4587 44.6907 11.416 44.776C11.3733 44.8613 11.3947 44.9253 11.48 44.968ZM11.352 45.352L11.16 45.416C11.0747 45.5013 11.0533 45.544 11.096 45.544C11.224 45.5013 11.3093 45.4373 11.352 45.352ZM24.664 1.768L24.792 1.704C24.92 1.74666 24.9627 1.81067 24.92 1.896H24.728C24.728 1.85333 24.7067 1.81066 24.664 1.768ZM21.528 1.96C21.528 1.91733 21.5707 1.896 21.656 1.896C21.656 1.93867 21.6133 1.96 21.528 1.96ZM25.112 2.088C25.24 2.04533 25.304 2.10933 25.304 2.28C25.304 2.408 25.24 2.42933 25.112 2.344V2.088ZM29.656 2.088C29.784 2.17333 29.8267 2.28 29.784 2.408C29.6987 2.45066 29.656 2.344 29.656 2.088ZM23 2.344C23.0427 2.344 23.0853 2.32266 23.128 2.28C23.128 2.32266 23.0853 2.344 23 2.344ZM23.448 2.152C23.6613 2.152 23.768 2.23733 23.768 2.408C23.7253 2.408 23.6613 2.42933 23.576 2.472C23.5333 2.51466 23.4907 2.51466 23.448 2.472V2.152ZM19.8 2.344C19.8 2.30133 19.864 2.28 19.992 2.28C19.992 2.32266 19.928 2.344 19.8 2.344ZM22.424 2.28H22.616V2.408H22.424V2.28ZM29.208 2.28C29.0373 2.45067 28.8453 2.51466 28.632 2.472C28.76 2.344 28.952 2.28 29.208 2.28ZM15.512 2.664C15.512 2.62133 15.5333 2.6 15.576 2.6L15.704 2.536C15.704 2.57867 15.6613 2.6 15.576 2.6L15.512 2.664ZM18.84 2.536H18.968V2.728H18.84V2.536ZM16.216 2.728C16.3013 2.68533 16.344 2.728 16.344 2.856L16.28 2.92C16.2373 2.92 16.216 2.856 16.216 2.728ZM17.24 2.856L17.432 2.792V2.92L17.304 2.856H17.24ZM13.656 2.92C13.6987 2.87733 13.7413 2.856 13.784 2.856C13.8267 2.856 13.848 2.87733 13.848 2.92H13.656ZM13.144 2.92C13.1013 2.92 13.08 2.96266 13.08 3.048C13.1227 3.048 13.144 3.00533 13.144 2.92ZM16.6 3.176C16.5573 3.13333 16.536 3.09067 16.536 3.048C16.5787 3.048 16.6 3.09066 16.6 3.176ZM13.528 3.176C13.528 3.13333 13.5707 3.112 13.656 3.112C13.656 3.15467 13.6133 3.176 13.528 3.176ZM16.216 3.176C16.216 3.13333 16.2587 3.112 16.344 3.112C16.344 3.15467 16.3013 3.176 16.216 3.176ZM12.376 3.304H12.632C12.632 3.38933 12.5893 3.45333 12.504 3.496C12.4187 3.41067 12.376 3.34667 12.376 3.304ZM21.08 24.68C21.08 24.6373 21.1013 24.616 21.144 24.616C21.1867 24.6587 21.2293 24.7013 21.272 24.744H21.144L21.08 24.68ZM21.272 24.936C21.4 24.8933 21.5067 24.9147 21.592 25C21.72 25.0427 21.8267 25.1493 21.912 25.32C22.04 25.448 22.1467 25.5333 22.232 25.576C22.104 25.6613 21.9333 25.576 21.72 25.32C21.5493 25.064 21.4 24.936 21.272 24.936ZM22.296 25.832C22.296 25.9173 22.3387 26.0027 22.424 26.088C22.424 26.0027 22.3813 25.9173 22.296 25.832ZM6.232 32.744C6.232 32.7013 6.25333 32.68 6.296 32.68C6.296 32.7227 6.27467 32.744 6.232 32.744ZM5.08 33.768C5.25067 33.9387 5.016 34.28 4.376 34.792C4.33333 34.8773 4.312 34.9627 4.312 35.048C4.312 35.176 4.22667 35.2187 4.056 35.176C4.14133 35.0053 4.29067 34.7707 4.504 34.472C4.76 34.1733 4.952 33.9387 5.08 33.768ZM3.992 35.304V35.496V35.304ZM3.864 35.56V35.816V35.56ZM21.912 37.672C21.912 37.6293 21.9547 37.608 22.04 37.608C22.04 37.6507 21.9973 37.672 21.912 37.672ZM3.096 37.672C3.18133 37.672 3.20267 37.7573 3.16 37.928C3.16 38.0133 3.11733 38.0347 3.032 37.992C2.98933 37.9493 2.98933 37.9067 3.032 37.864C3.07467 37.7787 3.096 37.7147 3.096 37.672ZM20.312 40.168C20.312 39.9973 20.3547 39.9333 20.44 39.976V40.104C20.3973 40.104 20.376 40.1253 20.376 40.168H20.312ZM20.184 40.296L20.312 40.168C20.2267 40.168 20.184 40.2107 20.184 40.296ZM20.184 40.296C20.184 40.5093 20.0987 40.6373 19.928 40.68C19.8853 40.5093 19.9707 40.3813 20.184 40.296ZM19.608 41.064C19.608 40.936 19.6293 40.8507 19.672 40.808C19.8427 40.808 19.8427 40.8933 19.672 41.064H19.608ZM34.5695 36.84C34.5695 37.0533 34.7188 37.6293 35.0175 38.568C35.3162 39.464 35.2948 40.04 34.9535 40.296C34.2708 40.7227 33.6948 40.5733 33.2255 39.848C33.1402 39.72 33.0335 39.6133 32.9055 39.528C32.7775 39.4427 32.6922 39.3787 32.6495 39.336C32.6068 39.2507 32.5855 39.1013 32.5855 38.888C32.5428 38.248 32.7135 37.7573 33.0975 37.416C33.4815 37.032 33.9722 36.84 34.5695 36.84ZM58.6615 4.2C58.7042 4.2 58.7468 4.24266 58.7895 4.328C58.8322 4.41333 58.8748 4.456 58.9175 4.456V4.2C59.0882 4.24267 59.3442 4.392 59.6855 4.648C60.0268 4.904 60.3682 5.01066 60.7095 4.968C60.7095 5.01066 60.7095 5.05333 60.7095 5.096C60.7522 5.13867 60.7735 5.18133 60.7735 5.224C61.1575 5.39467 61.6055 5.62933 62.1175 5.928C62.6722 6.184 63.0775 6.376 63.3335 6.504C63.7175 6.888 64.1655 7.50666 64.6775 8.36C65.1895 9.21333 65.5308 9.74667 65.7015 9.96C65.6588 10.1733 65.7015 10.408 65.8295 10.664C65.9575 10.8773 66.0002 11.0267 65.9575 11.112C66.2562 11.6667 66.4055 12.3493 66.4055 13.16L66.5975 13.352C66.5975 13.5227 66.6615 14.056 66.7895 14.952C66.9175 15.848 66.9602 16.488 66.9175 16.872C66.9602 17 67.0455 17.064 67.1735 17.064C67.0882 19.1547 67.0668 20.5413 67.1095 21.224C66.6402 24.0827 66.2562 25.8107 65.9575 26.408C66.0002 26.4933 66.0002 26.6213 65.9575 26.792C65.9148 26.92 65.9362 27.0267 66.0215 27.112C65.5095 28.776 64.6348 31.0587 63.3975 33.96C63.0988 34.344 62.6082 35.1547 61.9255 36.392C61.2855 37.6293 60.7095 38.504 60.1975 39.016C59.7282 39.9547 58.9815 40.8933 57.9575 41.832C56.2508 44.0933 54.0962 45.608 51.4935 46.376C51.3228 46.376 51.0242 46.3973 50.5975 46.44C50.2135 46.4827 49.9148 46.4827 49.7015 46.44C49.5735 46.3973 49.3602 46.3333 49.0615 46.248C48.8055 46.1627 48.6135 46.0987 48.4855 46.056C48.3575 46.0133 48.1655 45.928 47.9095 45.8C47.6535 45.7147 47.4615 45.608 47.3335 45.48C47.2055 45.3947 47.0562 45.2667 46.8855 45.096C46.7575 44.9253 46.6508 44.7333 46.5655 44.52C45.9255 44.1787 45.5202 43.6667 45.3495 42.984C45.0508 42.8133 44.7948 42.3867 44.5815 41.704C44.3682 41.0213 44.1975 40.5947 44.0695 40.424C44.0268 40.3387 44.0268 40.2747 44.0695 40.232C44.1122 40.1893 44.1335 40.1467 44.1335 40.104C42.6828 34.5573 43.5575 27.816 46.7575 19.88C46.8428 19.8373 46.9282 19.688 47.0135 19.432C47.1415 19.1333 47.2695 18.9627 47.3975 18.92C47.3548 18.5787 47.4828 18.2587 47.7815 17.96C48.0802 17.6187 48.2082 17.32 48.1655 17.064L48.5495 16.872C49.0615 15.6773 50.1282 14.632 51.7495 13.736C51.9202 13.6933 52.1122 13.7147 52.3255 13.8C52.5815 13.8853 52.7948 13.928 52.9655 13.928C53.0935 14.0133 53.4775 14.2693 54.1175 14.696C54.7575 15.1227 55.2055 15.5067 55.4615 15.848C56.0162 16.1467 56.3148 16.4453 56.3575 16.744C56.3148 16.7867 56.2295 16.8293 56.1015 16.872C55.9735 16.9147 55.8668 16.9573 55.7815 17C55.6962 17.0427 55.6108 17.1067 55.5255 17.192C55.4402 17.2773 55.3975 17.384 55.3975 17.512C55.3122 17.4267 55.1415 17.192 54.8855 16.808C54.6295 16.3813 54.3948 16.104 54.1815 15.976C53.7122 16.0187 53.3068 16.1467 52.9655 16.36C52.6242 16.5733 52.2615 16.872 51.8775 17.256C51.5362 17.5973 51.2802 17.832 51.1095 17.96C50.5975 18.6853 49.4668 20.7333 47.7175 24.104C47.7175 24.7013 47.5895 25.0853 47.3335 25.256C46.3095 29.48 45.7762 32.0613 45.7335 33C45.6908 33.128 45.6695 33.32 45.6695 33.576C45.6695 33.7893 45.6482 33.9813 45.6055 34.152C45.6055 34.3227 45.5628 34.4293 45.4775 34.472C45.5202 34.8133 45.5415 35.368 45.5415 36.136C45.5415 36.904 45.5842 37.48 45.6695 37.864C45.6695 39.4427 45.9042 40.8293 46.3735 42.024C46.6295 42.8347 46.9922 43.368 47.4615 43.624C47.9308 43.9227 48.6135 44.072 49.5095 44.072C51.3015 43.6453 53.2215 42.4507 55.2695 40.488C55.3548 40.5307 55.4402 40.5307 55.5255 40.488C55.6108 40.4453 55.6748 40.424 55.7175 40.424C55.7175 40.3813 55.6962 40.3173 55.6535 40.232C55.6108 40.1893 55.6108 40.1253 55.6535 40.04C55.8242 40.0827 55.9735 40.04 56.1015 39.912C56.2722 39.7413 56.4215 39.656 56.5495 39.656C56.5068 39.5707 56.4428 39.4853 56.3575 39.4C56.4428 39.3573 56.5708 39.208 56.7415 38.952C56.8268 38.9947 56.8268 39.08 56.7415 39.208C56.6562 39.2933 56.6135 39.3573 56.6135 39.4C56.7415 39.4 56.8268 39.3573 56.8695 39.272C56.9548 39.144 57.0402 39.08 57.1255 39.08C57.0828 39.208 56.9548 39.3787 56.7415 39.592C56.5708 39.8053 56.4642 39.9973 56.4215 40.168C56.3788 40.168 56.3362 40.168 56.2935 40.168C56.2508 40.1253 56.2082 40.104 56.1655 40.104C56.1228 40.232 55.9095 40.5093 55.5255 40.936C55.1415 41.3627 54.9922 41.704 55.0775 41.96C55.0775 41.832 55.1202 41.7253 55.2055 41.64C55.3335 41.5547 55.4615 41.5547 55.5895 41.64C55.7602 41.4267 56.0588 41.1067 56.4855 40.68C56.9122 40.2533 57.2748 39.8693 57.5735 39.528C57.8722 39.144 58.1068 38.7387 58.2775 38.312C58.8322 37.7573 59.0882 37.3093 59.0455 36.968C59.0882 36.968 59.1522 37.0107 59.2375 37.096C59.3655 37.0107 59.4082 36.904 59.3655 36.776C59.3228 36.6053 59.3442 36.4773 59.4295 36.392C59.6002 36.4773 59.7068 36.4773 59.7495 36.392C59.8348 36.3067 59.8988 36.1787 59.9415 36.008C60.0268 35.7947 60.1335 35.6667 60.2615 35.624C60.0482 35.1547 60.1548 34.856 60.5815 34.728L60.3895 34.344C60.3042 34.3867 60.1975 34.5147 60.0695 34.728C59.9842 34.8987 59.8562 35.0053 59.6855 35.048C59.7282 34.8773 59.7922 34.7067 59.8775 34.536C59.9628 34.3653 60.0695 34.1947 60.1975 34.024C60.3255 33.8533 60.4108 33.704 60.4535 33.576C60.4535 33.5333 60.4322 33.512 60.3895 33.512C60.3042 33.512 60.2615 33.512 60.2615 33.512C60.2615 33.4693 60.2615 33.4053 60.2615 33.32C60.3042 33.32 60.3255 33.3413 60.3255 33.384C60.3255 33.384 60.3468 33.384 60.3895 33.384C60.6882 32.9573 61.5202 31.272 62.8855 28.328C62.6722 28.2853 62.6722 28.0507 62.8855 27.624C62.9708 27.624 62.9922 27.688 62.9495 27.816C62.9495 27.9013 62.9708 27.944 63.0135 27.944C63.0562 27.9013 63.0775 27.7947 63.0775 27.624C63.1202 27.4533 63.1842 27.304 63.2695 27.176C63.2268 27.0907 63.1628 27.1333 63.0775 27.304C63.0348 27.432 63.0135 27.496 63.0135 27.496C63.0562 27.1973 63.2695 26.2373 63.6535 24.616C64.0802 22.952 64.2508 21.7147 64.1655 20.904C64.4215 20.776 64.4855 19.5387 64.3575 17.192C64.2722 14.8027 64.2295 13.5227 64.2295 13.352C64.2295 13.3093 64.1655 13.288 64.0375 13.288C63.9948 12.52 63.7602 11.496 63.3335 10.216C62.9068 8.936 62.6722 8.21066 62.6295 8.04C62.2028 7.528 61.8188 6.952 61.4775 6.312C60.9228 6.056 59.9842 5.928 58.6615 5.928C58.6188 5.928 58.5762 5.94933 58.5335 5.992L58.4695 6.056C57.2322 6.14133 56.4642 6.33333 56.1655 6.632L55.9735 6.44C55.7602 6.90933 55.2055 7.05866 54.3095 6.888C54.3522 7.016 54.5442 7.08 54.8855 7.08C54.9282 7.208 54.8855 7.31467 54.7575 7.4C54.6722 7.44266 54.6295 7.50666 54.6295 7.592C54.5442 7.592 54.4588 7.57067 54.3735 7.528C54.3308 7.48533 54.2882 7.464 54.2455 7.464C54.2455 7.50667 54.2455 7.54933 54.2455 7.592C54.2882 7.63467 54.3095 7.69866 54.3095 7.784C54.2668 7.784 54.1815 7.82666 54.0535 7.912C53.9255 7.95466 53.8188 7.99733 53.7335 8.04C53.6482 8.04 53.5628 8.08266 53.4775 8.168C53.3922 8.21067 53.3282 8.27466 53.2855 8.36C53.2855 8.44533 53.2855 8.53067 53.2855 8.616C53.2002 8.53067 53.0935 8.552 52.9655 8.68C52.8375 8.76533 52.7308 8.744 52.6455 8.616C52.6028 8.70133 52.4962 8.808 52.3255 8.936C52.1975 9.064 52.0908 9.14933 52.0055 9.192H52.3255C52.3255 9.27733 52.2402 9.36266 52.0695 9.448C51.9415 9.53333 51.7922 9.576 51.6215 9.576C51.4935 9.576 51.4295 9.512 51.4295 9.384C51.3015 9.42666 51.2802 9.512 51.3655 9.64C51.4082 9.68267 51.4295 9.72533 51.4295 9.768C51.3015 9.896 51.0882 9.96 50.7895 9.96C50.7468 10.0453 50.7468 10.1307 50.7895 10.216C50.8322 10.3013 50.8322 10.408 50.7895 10.536C50.7468 10.5787 50.6615 10.664 50.5335 10.792C50.4482 10.8773 50.3842 10.92 50.3415 10.92C50.2988 10.92 50.1922 10.8987 50.0215 10.856C49.9362 10.8987 49.9362 10.9413 50.0215 10.984C50.0642 11.0267 50.1282 11.048 50.2135 11.048C50.1282 11.1333 50.0428 11.24 49.9575 11.368C49.8722 11.496 49.7868 11.5813 49.7015 11.624L49.5095 11.432C49.4668 11.5173 49.4455 11.6453 49.4455 11.816C49.4882 11.944 49.4455 12.0293 49.3175 12.072V11.752C49.1468 11.7947 49.0402 11.88 48.9975 12.008C48.9548 12.136 48.9975 12.264 49.1255 12.392C49.0828 12.4347 48.9762 12.456 48.8055 12.456C48.6775 12.456 48.5922 12.4987 48.5495 12.584C48.5495 12.712 48.5922 12.7547 48.6775 12.712C48.7628 12.6267 48.8268 12.584 48.8695 12.584C48.9122 12.712 48.7628 12.776 48.4215 12.776C48.5068 12.904 48.4855 13.1173 48.3575 13.416C48.2722 13.416 48.2295 13.3733 48.2295 13.288C48.2722 13.2027 48.3148 13.16 48.3575 13.16C47.8882 13.6293 47.7388 13.928 47.9095 14.056H47.5895C47.5468 14.0987 47.5468 14.1627 47.5895 14.248C47.6322 14.2907 47.6535 14.3333 47.6535 14.376C47.5682 14.4613 47.4828 14.504 47.3975 14.504C47.3122 14.504 47.2482 14.5253 47.2055 14.568V15.08C47.1202 14.9947 47.0988 14.9307 47.1415 14.888C46.7148 15.3573 46.4588 15.848 46.3735 16.36C46.3308 16.4027 46.2455 16.4453 46.1175 16.488C45.9895 16.488 45.9042 16.488 45.8615 16.488C45.8615 16.5733 45.8615 16.6373 45.8615 16.68C45.9042 16.68 45.9682 16.68 46.0535 16.68C46.1388 16.68 46.1602 16.7227 46.1175 16.808C45.9468 16.8933 45.7975 16.9573 45.6695 17C45.6268 17.2133 45.5628 17.4267 45.4775 17.64C45.3922 17.8107 45.3495 17.9173 45.3495 17.96C45.3495 18.0453 45.3282 18.088 45.2855 18.088C45.2855 18.088 45.2642 18.0667 45.2215 18.024C44.7095 18.7067 44.4108 19.304 44.3255 19.816H44.1335C44.0908 19.9013 44.1122 19.9653 44.1975 20.008C44.2828 20.0507 44.3042 20.1147 44.2615 20.2C43.7922 20.456 43.4295 21.1173 43.1735 22.184C43.1308 21.7573 43.3015 21.1173 43.6855 20.264C44.1122 19.4107 44.3255 18.792 44.3255 18.408C44.4962 18.3653 44.5815 18.28 44.5815 18.152C44.7522 18.0667 44.9015 17.9173 45.0295 17.704C45.1575 17.448 45.2855 17.1493 45.4135 16.808C45.5842 16.4667 45.7122 16.232 45.7975 16.104C45.7122 16.104 45.6482 16.168 45.6055 16.296C45.5628 16.3813 45.4988 16.36 45.4135 16.232C45.3708 16.2747 45.3068 16.3813 45.2215 16.552C45.1788 16.7227 45.0935 16.808 44.9655 16.808C45.7762 15.016 46.5015 13.8 47.1415 13.16C47.1415 13.0747 47.1628 12.9893 47.2055 12.904C47.2482 12.776 47.2482 12.6693 47.2055 12.584C47.2908 12.584 47.3762 12.4987 47.4615 12.328C47.5468 12.1573 47.6535 12.0933 47.7815 12.136C49.1895 9.61866 51.1095 7.528 53.5415 5.864C54.4802 4.84 55.6962 4.22133 57.1895 4.008C57.2748 4.008 57.5308 4.11467 57.9575 4.328C58.0002 4.2 57.9575 4.136 57.8295 4.136C57.7442 4.09333 57.7015 4.02933 57.7015 3.944C58.2135 4.15733 58.5335 4.328 58.6615 4.456V4.2ZM55.9735 5.096C55.6322 5.352 55.3122 5.48 55.0135 5.48C54.9282 5.52267 54.8215 5.608 54.6935 5.736C54.6082 5.82133 54.5228 5.90666 54.4375 5.992C54.3948 6.03467 54.2882 6.09867 54.1175 6.184C53.9895 6.22666 53.8615 6.248 53.7335 6.248C50.7468 8.552 48.5068 11.0267 47.0135 13.672L46.8855 13.8C46.7575 13.8853 46.6508 13.928 46.5655 13.928C46.6508 14.0987 46.5655 14.3333 46.3095 14.632C46.0962 14.888 46.0322 15.1013 46.1175 15.272C45.6055 15.656 45.4348 15.9333 45.6055 16.104C46.0322 15.72 46.5442 15.0373 47.1415 14.056C47.7815 13.0747 48.2082 12.456 48.4215 12.2C48.6348 12.4133 48.7415 12.392 48.7415 12.136C48.7842 12.136 48.7628 12.1147 48.6775 12.072C48.5495 12.0293 48.5068 11.9653 48.5495 11.88C48.9762 11.6667 49.1895 11.3893 49.1895 11.048C49.5308 10.8347 49.9788 10.3867 50.5335 9.704C51.0882 9.02133 51.5575 8.552 51.9415 8.296C52.1548 7.99733 52.4322 7.69867 52.7735 7.4C53.1148 7.05866 53.4348 6.80266 53.7335 6.632C54.0322 6.46133 54.4375 6.22667 54.9495 5.928C55.5042 5.58666 55.8668 5.352 56.0375 5.224C56.1228 5.26667 56.2722 5.26667 56.4855 5.224C56.6988 5.18133 56.8268 5.096 56.8695 4.968C56.7842 4.92533 56.6348 4.94667 56.4215 5.032C56.2508 5.11733 56.1015 5.13867 55.9735 5.096ZM58.0215 5.608C57.9362 5.608 57.8935 5.62933 57.8935 5.672C57.9788 5.672 58.0215 5.65066 58.0215 5.608ZM62.5655 6.44H62.6935C62.7788 6.44 62.8002 6.41867 62.7575 6.376L62.6935 6.312C62.6508 6.26933 62.6082 6.248 62.5655 6.248V6.44ZM53.9255 7.592H54.1175V7.464H53.9255V7.592ZM53.7975 7.656C53.7122 7.656 53.6268 7.69866 53.5415 7.784C53.5415 7.82667 53.5415 7.86933 53.5415 7.912C53.6695 7.86933 53.7548 7.784 53.7975 7.656ZM63.7175 8.168H63.8455V7.976H63.7175V8.168ZM63.4615 8.296C63.3762 8.296 63.3335 8.31733 63.3335 8.36C63.4188 8.36 63.4615 8.33866 63.4615 8.296ZM64.1655 9H64.2935V8.808H64.1655V9ZM63.8455 9.384C64.0162 9.384 64.1228 9.36267 64.1655 9.32C64.1655 9.14933 64.0588 9.064 63.8455 9.064V9.384ZM64.8055 9.704C64.6775 9.704 64.6135 9.72533 64.6135 9.768C64.6988 9.768 64.7628 9.74666 64.8055 9.704ZM64.1015 10.088C64.1015 10.344 64.2082 10.4933 64.4215 10.536C64.4215 10.4507 64.3788 10.3653 64.2935 10.28C64.3788 10.28 64.4642 10.2373 64.5495 10.152C64.3362 9.93867 64.1868 9.91733 64.1015 10.088ZM64.9335 10.728C65.0188 11.0267 65.1468 11.1973 65.3175 11.24C65.2322 10.8987 65.2108 10.7067 65.2535 10.664C65.2108 10.664 65.1468 10.664 65.0615 10.664L64.9335 10.728ZM65.7015 16.68C65.7868 16.6373 65.8295 16.6587 65.8295 16.744C65.8722 16.8293 65.9148 16.872 65.9575 16.872C65.8722 16.6587 65.9575 16.5093 66.2135 16.424C66.1282 16.3387 66.1068 16.232 66.1495 16.104C66.1922 15.976 66.1495 15.912 66.0215 15.912C66.0642 16.0827 66.0002 16.232 65.8295 16.36C65.7015 16.4453 65.5735 16.4453 65.4455 16.36C65.9148 15.5493 65.8935 14.6107 65.3815 13.544C65.3815 13.6293 65.3175 13.672 65.1895 13.672C65.2322 13.544 65.2535 13.3947 65.2535 13.224C65.2962 13.0533 65.2962 12.904 65.2535 12.776C65.2108 12.648 65.1255 12.584 64.9975 12.584C64.9975 12.4133 64.9335 12.1573 64.8055 11.816C64.7202 11.4747 64.7415 11.24 64.8695 11.112C64.7415 11.1547 64.6562 11.1333 64.6135 11.048C64.5708 10.9627 64.5922 10.8987 64.6775 10.856C64.5922 10.856 64.5068 10.8133 64.4215 10.728C65.0615 13.544 65.3175 15.72 65.1895 17.256C65.1895 17.2987 65.2108 17.32 65.2535 17.32C65.2962 17.32 65.3388 17.3413 65.3815 17.384C65.3815 17.4267 65.3175 17.448 65.1895 17.448C65.1895 17.6613 65.1468 17.8533 65.0615 18.024C65.1042 18.024 65.1682 18.0667 65.2535 18.152C65.0828 20.4987 64.8908 21.928 64.6775 22.44C64.6775 22.5253 64.7202 22.6107 64.8055 22.696C64.8482 22.7813 64.8695 22.8453 64.8695 22.888C64.7415 22.8453 64.6562 22.8667 64.6135 22.952C64.6135 22.9947 64.6135 23.08 64.6135 23.208H64.8695C64.8695 23.2933 64.8055 23.336 64.6775 23.336C64.5922 23.336 64.5495 23.3573 64.5495 23.4C64.5922 23.4427 64.5708 23.5707 64.4855 23.784C64.4428 23.9547 64.5068 24.04 64.6775 24.04C64.4642 24.04 64.3362 24.1467 64.2935 24.36C64.2935 24.4027 64.3575 24.424 64.4855 24.424C64.5282 24.424 64.5495 24.4453 64.5495 24.488C64.5922 24.488 64.6135 24.5093 64.6135 24.552C64.3148 24.5947 64.2722 24.8933 64.4855 25.448C64.4002 25.448 64.3575 25.4053 64.3575 25.32C64.3148 25.2773 64.2722 25.256 64.2295 25.256C64.1868 25.3413 64.1442 25.512 64.1015 25.768C64.1015 25.9813 64.0802 26.1733 64.0375 26.344C63.9948 26.472 63.9308 26.5573 63.8455 26.6C63.8455 26.6427 63.9095 26.664 64.0375 26.664C64.1228 26.7493 64.1655 26.792 64.1655 26.792H63.7815C63.8668 27.0053 63.8455 27.24 63.7175 27.496C63.5895 27.7093 63.5682 27.8587 63.6535 27.944V27.816C63.6962 27.7733 63.7388 27.752 63.7815 27.752C63.7815 28.008 63.6962 28.136 63.5255 28.136C63.6535 28.3067 63.5682 28.5627 63.2695 28.904C63.0135 29.2453 62.9708 29.5227 63.1415 29.736C62.8002 30.0773 62.7575 30.312 63.0135 30.44C63.4828 29.7147 63.7815 29.3307 63.9095 29.288C63.9095 29.3307 63.8882 29.416 63.8455 29.544C63.8028 29.672 63.7815 29.7573 63.7815 29.8C63.9095 29.8427 63.9735 29.7787 63.9735 29.608C64.0162 29.4373 64.0802 29.352 64.1655 29.352C64.1655 29.3947 64.1442 29.4373 64.1015 29.48C64.0588 29.5227 64.0588 29.5867 64.1015 29.672C64.2295 29.6293 64.3148 29.5013 64.3575 29.288C64.4428 29.0747 64.5068 28.84 64.5495 28.584C64.6348 28.328 64.7202 28.1147 64.8055 27.944C64.4215 28.0293 64.2082 28.0293 64.1655 27.944C64.2935 27.8587 64.5282 27.7307 64.8695 27.56C64.8695 27.2187 64.9762 27.0267 65.1895 26.984C65.1468 26.8987 65.0828 26.792 64.9975 26.664C64.9548 26.536 64.9335 26.4507 64.9335 26.408C65.1042 26.4507 65.2108 26.344 65.2535 26.088C65.2962 25.832 65.3602 25.6827 65.4455 25.64C65.4028 25.5547 65.3175 25.5547 65.1895 25.64C65.1042 25.6827 65.0615 25.6827 65.0615 25.64L65.3175 25.128L65.3815 25.192L65.4455 25.256C65.4455 25.2133 65.4455 25.128 65.4455 25C65.4882 24.8293 65.5308 24.68 65.5735 24.552C65.4882 24.552 65.3815 24.5733 65.2535 24.616C65.1682 24.6587 65.1042 24.6373 65.0615 24.552C65.0615 24.5093 65.2322 24.3813 65.5735 24.168C65.5735 24.3813 65.5948 24.488 65.6375 24.488C65.5948 24.3173 65.6375 24.04 65.7655 23.656C65.9362 23.272 65.9362 22.9947 65.7655 22.824C65.6802 23.08 65.5735 23.208 65.4455 23.208C65.4455 22.696 65.5308 22.4187 65.7015 22.376C65.7868 22.376 65.8295 22.4613 65.8295 22.632H66.2135C66.0855 22.5467 66.0428 22.3333 66.0855 21.992C66.0002 21.9493 65.9148 21.9493 65.8295 21.992C65.7442 22.0347 65.6802 22.056 65.6375 22.056C65.6802 21.9707 65.6375 21.9067 65.5095 21.864C65.4242 21.8213 65.3815 21.7787 65.3815 21.736C65.3815 21.608 65.4668 21.5227 65.6375 21.48C65.8508 21.3947 65.9575 21.3093 65.9575 21.224V21.544C65.9575 21.7147 66.0002 21.8 66.0855 21.8C66.1708 20.0933 66.1922 19.1547 66.1495 18.984C66.1068 19.1547 66.0855 19.4107 66.0855 19.752C66.1282 20.0507 66.0855 20.2213 65.9575 20.264C65.9575 20.136 65.9575 19.944 65.9575 19.688C66.0002 19.432 66.0002 19.2187 65.9575 19.048C65.9148 18.8773 65.8082 18.728 65.6375 18.6C65.6802 18.5147 65.6802 18.4507 65.6375 18.408C65.6375 18.3227 65.6375 18.2373 65.6375 18.152C65.6375 18.0667 65.7015 18.024 65.8295 18.024C65.8295 18.0667 65.8295 18.1307 65.8295 18.216C65.7868 18.2587 65.7655 18.3013 65.7655 18.344C65.8082 18.344 65.8722 18.344 65.9575 18.344C65.9575 18.216 65.9362 18.0027 65.8935 17.704C65.8935 17.4053 65.9148 17.192 65.9575 17.064C65.7442 17.064 65.6375 17.0427 65.6375 17C65.6802 16.9573 65.7015 16.8507 65.7015 16.68ZM65.7655 12.84C65.7655 12.7547 65.7015 12.52 65.5735 12.136C65.4882 12.2213 65.4242 12.328 65.3815 12.456C65.3815 12.5413 65.4028 12.6267 65.4455 12.712C65.5308 12.7973 65.6375 12.84 65.7655 12.84ZM65.7015 14.12C65.8722 14.1627 65.9575 14.1413 65.9575 14.056C65.9148 13.928 65.8295 13.8427 65.7015 13.8V14.12ZM65.9575 14.568L65.8295 14.632C65.7868 14.632 65.7655 14.6533 65.7655 14.696L65.8295 14.632C65.8722 14.632 65.9148 14.6107 65.9575 14.568ZM66.1495 15.592C66.1495 15.5067 66.1068 15.4213 66.0215 15.336C66.0215 15.5493 66.0642 15.6347 66.1495 15.592ZM66.2135 18.344C66.2135 18.2587 66.2135 18.1093 66.2135 17.896C66.2562 17.64 66.2562 17.448 66.2135 17.32C66.2135 17.1493 66.1708 17.0427 66.0855 17C66.0855 17.768 66.1282 18.216 66.2135 18.344ZM66.3415 18.664L66.0855 18.728C66.0428 18.8133 66.0428 18.856 66.0855 18.856C66.1708 18.8987 66.2562 18.8347 66.3415 18.664ZM62.1175 32.488V32.616C62.1175 32.7013 62.1602 32.744 62.2455 32.744C62.3308 32.744 62.3735 32.7653 62.3735 32.808C62.3735 32.3813 62.4802 32.168 62.6935 32.168C62.6935 32.5093 62.6722 32.744 62.6295 32.872C62.8855 32.8293 63.0135 32.6373 63.0135 32.296C63.0562 31.912 63.1415 31.6773 63.2695 31.592C63.3548 31.6347 63.4402 31.592 63.5255 31.464C63.6108 31.2933 63.6748 31.1227 63.7175 30.952C63.7602 30.7813 63.7602 30.6533 63.7175 30.568C64.0162 30.44 64.1655 30.3333 64.1655 30.248C63.9522 30.248 63.9308 30.184 64.1015 30.056C64.1868 29.9707 64.2295 29.9067 64.2295 29.864L63.6535 30.056C63.5682 30.44 63.4402 30.7173 63.2695 30.888C63.1842 30.8453 63.1628 30.7813 63.2055 30.696C63.2908 30.6107 63.3122 30.5467 63.2695 30.504C63.1415 30.5467 63.0135 30.568 62.8855 30.568C62.8002 30.5253 62.7148 30.5253 62.6295 30.568C62.5868 30.6107 62.5655 30.7173 62.5655 30.888C62.7362 30.888 62.8428 30.9307 62.8855 31.016C62.5868 31.016 62.4162 31.1013 62.3735 31.272C62.3735 31.3147 62.4375 31.336 62.5655 31.336C62.6082 31.336 62.6295 31.3573 62.6295 31.4C62.6722 31.4 62.6935 31.4213 62.6935 31.464C62.6082 31.5067 62.4588 31.5067 62.2455 31.464C62.2882 31.5493 62.2242 31.7413 62.0535 32.04C61.9255 32.296 61.9468 32.4453 62.1175 32.488ZM63.4615 30.184V29.928V30.184ZM61.4775 32.744H61.6055V32.552H61.4775V32.744ZM61.9255 32.808V32.616C61.8828 32.5307 61.8402 32.5093 61.7975 32.552C61.6695 32.6373 61.6695 32.7227 61.7975 32.808C61.8402 32.808 61.8828 32.808 61.9255 32.808ZM61.7975 33.128V33C61.6695 32.872 61.5415 32.9573 61.4135 33.256C61.3708 33.384 61.3922 33.4693 61.4775 33.512C61.4775 33.384 61.5628 33.32 61.7335 33.32C61.6055 33.448 61.6055 33.5333 61.7335 33.576C61.8615 33.6187 61.9255 33.6827 61.9255 33.768C61.8828 33.8533 61.7548 34.024 61.5415 34.28C61.3708 34.4933 61.3068 34.6853 61.3495 34.856C61.2215 34.856 61.1575 34.8133 61.1575 34.728C61.1148 34.6427 61.1362 34.5787 61.2215 34.536C61.3068 34.4933 61.3495 34.4293 61.3495 34.344C61.2642 34.3867 61.1575 34.3867 61.0295 34.344C60.9015 34.3013 60.8375 34.3013 60.8375 34.344C61.0508 34.472 61.0295 34.7067 60.7735 35.048C61.2002 35.1333 61.5628 35.0267 61.8615 34.728C62.1602 34.4293 62.2455 34.1093 62.1175 33.768C62.2028 33.8107 62.2882 33.7893 62.3735 33.704C62.4588 33.6187 62.5228 33.576 62.5655 33.576C62.4375 33.5333 62.4162 33.448 62.5015 33.32C62.6295 33.1493 62.6935 33.0427 62.6935 33C62.6082 32.9573 62.4802 33 62.3095 33.128C62.3095 33.1707 62.3308 33.2347 62.3735 33.32C62.4162 33.4053 62.3948 33.4693 62.3095 33.512C62.1815 33.2987 62.0535 33.256 61.9255 33.384C61.8402 33.2133 61.7975 33.128 61.7975 33.128ZM60.9655 33.704H60.8375V33.768C60.7948 33.8107 60.7735 33.8533 60.7735 33.896L60.8375 33.96C60.8802 33.96 60.9228 33.96 60.9655 33.96V33.704ZM61.1575 33.96H61.0295C61.0295 34.088 61.0722 34.152 61.1575 34.152V33.96ZM61.4775 33.96C61.3495 33.9173 61.2855 33.9813 61.2855 34.152C61.2428 34.1947 61.2642 34.2373 61.3495 34.28C61.3495 34.2373 61.3708 34.1947 61.4135 34.152C61.4988 34.1093 61.5202 34.0453 61.4775 33.96ZM60.6455 35.432L60.7095 35.624C60.7522 35.7947 60.7522 35.9227 60.7095 36.008C60.6668 36.0507 60.5815 36.072 60.4535 36.072C60.4108 36.072 60.4108 36.008 60.4535 35.88C60.4962 35.752 60.4748 35.6667 60.3895 35.624C60.3895 35.7093 60.3682 35.7947 60.3255 35.88C60.2402 35.9653 60.1975 36.0293 60.1975 36.072C60.1975 36.1147 60.2402 36.1573 60.3255 36.2C60.4108 36.2427 60.4535 36.2853 60.4535 36.328C60.4108 36.4133 60.3255 36.6053 60.1975 36.904C60.0695 37.16 59.9415 37.3733 59.8135 37.544C59.7282 37.7147 59.6002 37.8 59.4295 37.8C59.5148 37.8 59.5362 37.864 59.4935 37.992C59.4508 38.0773 59.4295 38.1413 59.4295 38.184C59.6002 38.184 59.7495 38.0347 59.8775 37.736C60.0055 37.3947 60.1762 37.224 60.3895 37.224C60.4322 37.1387 60.4108 37.096 60.3255 37.096C60.2828 37.0533 60.2615 37.0107 60.2615 36.968C60.3895 36.712 60.5388 36.648 60.7095 36.776C60.6668 36.4347 60.7948 36.072 61.0935 35.688C61.1362 35.688 61.1788 35.7093 61.2215 35.752V35.88C61.2642 35.8373 61.3495 35.688 61.4775 35.432C61.2642 35.3893 60.9868 35.3893 60.6455 35.432ZM59.9415 36.392C60.1122 36.4347 60.2188 36.392 60.2615 36.264C60.0482 36.264 59.9415 36.3067 59.9415 36.392ZM59.3015 37.416C59.5148 37.416 59.6428 37.288 59.6855 37.032C59.6855 36.904 59.6428 36.84 59.5575 36.84C59.5575 36.968 59.5148 37.0747 59.4295 37.16C59.3442 37.2453 59.3015 37.3307 59.3015 37.416ZM59.0455 38.76C59.0882 38.7173 59.1308 38.696 59.1735 38.696C59.1735 38.568 59.1308 38.504 59.0455 38.504C59.0455 38.5467 59.0242 38.6107 58.9815 38.696C58.9388 38.7387 58.9602 38.76 59.0455 38.76ZM58.4695 39.464C58.5548 39.464 58.6402 39.4427 58.7255 39.4C58.8535 39.3147 58.9602 39.3147 59.0455 39.4C59.0455 39.3147 58.9815 39.2507 58.8535 39.208C58.7682 39.1653 58.6828 39.1867 58.5975 39.272C58.5122 39.3147 58.4695 39.3787 58.4695 39.464ZM58.2775 40.104L58.0215 40.168H58.2135L58.2775 40.104ZM58.9175 4.2C58.8322 4.2 58.7682 4.17866 58.7255 4.136C58.7255 4.008 58.7895 4.008 58.9175 4.136V4.2ZM52.6455 8.936C52.6882 9.02133 52.5815 9.064 52.3255 9.064C52.3682 8.97866 52.4748 8.936 52.6455 8.936ZM51.5575 9.832C51.6428 9.87466 51.6428 9.96 51.5575 10.088C51.4722 10.1733 51.4082 10.1733 51.3655 10.088C51.3228 10.0027 51.3442 9.96 51.4295 9.96C51.5148 9.91733 51.5575 9.87466 51.5575 9.832ZM50.4695 10.984C50.6402 11.0693 50.6402 11.176 50.4695 11.304C50.3842 11.3467 50.3202 11.368 50.2775 11.368L50.4695 10.984ZM65.3175 14.312C65.3602 14.2693 65.4028 14.2693 65.4455 14.312C65.4882 14.3547 65.5308 14.376 65.5735 14.376C65.5735 14.4613 65.5095 14.504 65.3815 14.504C65.2962 14.4613 65.2748 14.3973 65.3175 14.312ZM65.5735 15.208C65.6588 15.2933 65.7015 15.3787 65.7015 15.464C65.5735 15.5067 65.4882 15.5067 65.4455 15.464C65.4455 15.3787 65.4882 15.2933 65.5735 15.208ZM65.7015 16.68C65.7015 16.6373 65.7015 16.5733 65.7015 16.488V16.68ZM65.2535 16.68L65.3175 16.616L65.3815 16.68H65.2535ZM44.9655 16.808V17.192C44.9228 17.192 44.8588 17.2133 44.7735 17.256C44.7308 17.2987 44.6882 17.2987 44.6455 17.256C44.7308 17.0427 44.8375 16.8933 44.9655 16.808ZM44.6455 17.448C44.7735 17.448 44.7308 17.5547 44.5175 17.768C44.3895 18.28 44.1975 18.6853 43.9415 18.984C43.9842 19.0693 43.9842 19.1547 43.9415 19.24C43.8988 19.3253 43.8775 19.4107 43.8775 19.496C43.7495 19.496 43.6642 19.6027 43.6215 19.816C43.5788 20.0293 43.5148 20.1573 43.4295 20.2C43.4722 20.1147 43.5575 19.8373 43.6855 19.368C43.8562 18.8987 44.0055 18.5147 44.1335 18.216C44.3042 17.9173 44.4748 17.6613 44.6455 17.448ZM65.6375 19.56C65.6802 19.56 65.7015 19.6667 65.7015 19.88C65.6588 19.88 65.6375 19.7733 65.6375 19.56ZM65.7655 20.2C65.8082 20.328 65.7015 20.4347 65.4455 20.52C65.4455 20.3067 65.5522 20.2 65.7655 20.2ZM43.3655 20.328V20.584H43.3015V20.456C43.3442 20.456 43.3655 20.4133 43.3655 20.328ZM65.9575 20.456C66.2135 20.5413 66.2135 20.712 65.9575 20.968C65.7868 20.7973 65.7015 20.6693 65.7015 20.584C65.8722 20.7547 65.9575 20.712 65.9575 20.456ZM43.1735 21.096C43.0028 21.2667 42.9388 21.352 42.9815 21.352L43.0455 21.224C43.0455 21.1387 43.0882 21.096 43.1735 21.096ZM42.7255 23.336C42.6828 23.1653 42.7895 22.8453 43.0455 22.376C43.0882 22.504 42.9815 22.824 42.7255 23.336ZM42.7255 23.336C42.7682 23.4213 42.7682 23.5067 42.7255 23.592L42.6615 23.784C42.5762 23.7413 42.5548 23.6773 42.5975 23.592C42.6402 23.464 42.6615 23.3787 42.6615 23.336H42.7255ZM64.6775 23.592H64.8695V23.72H64.6775V23.592ZM64.4855 24.744V25.064C64.3148 25.0213 64.3148 24.9147 64.4855 24.744ZM65.0615 25.192C65.0188 25.4053 64.9122 25.4907 64.7415 25.448C64.6562 25.448 64.6135 25.3627 64.6135 25.192C64.7842 25.1493 64.9335 25.1493 65.0615 25.192ZM64.2295 26.408C64.2295 26.3653 64.2508 26.344 64.2935 26.344C64.3788 26.344 64.4215 26.3653 64.4215 26.408H64.2295ZM64.1655 28.264C64.0802 28.264 64.0375 28.2853 64.0375 28.328C63.8668 28.328 63.8455 28.2853 63.9735 28.2C64.1015 28.1147 64.1655 28.136 64.1655 28.264ZM64.1655 28.264H64.4855C64.4428 28.4773 64.3362 28.4987 64.1655 28.328V28.264ZM62.8855 31.336C62.8855 31.2933 62.9068 31.272 62.9495 31.272C62.9922 31.272 63.0135 31.2933 63.0135 31.336H62.8855ZM62.5655 31.848H62.6935V32.04H62.5655V31.848ZM62.1175 32.488C62.0748 32.36 62.1602 32.2533 62.3735 32.168C62.2882 32.3387 62.2028 32.4453 62.1175 32.488ZM61.7975 33.128C61.6695 33.0853 61.6055 33.128 61.6055 33.256C61.7335 33.256 61.7975 33.2133 61.7975 33.128ZM59.8135 35.112C59.8135 35.3253 59.6855 35.432 59.4295 35.432C59.4295 35.304 59.5575 35.1973 59.8135 35.112ZM58.9175 36.328C59.0455 36.3707 59.1095 36.456 59.1095 36.584C58.9815 36.584 58.9175 36.4987 58.9175 36.328ZM57.3815 39.016C57.5948 39.016 57.5948 39.144 57.3815 39.4C57.2962 39.528 57.2108 39.5707 57.1255 39.528C57.1255 39.4427 57.1468 39.3787 57.1895 39.336C57.2322 39.2933 57.2748 39.2507 57.3175 39.208C57.3602 39.1653 57.3815 39.1013 57.3815 39.016ZM56.1655 39.656C56.1655 39.6133 56.2082 39.592 56.2935 39.592L56.3575 39.528C56.3148 39.5707 56.2722 39.592 56.2295 39.592L56.1655 39.656ZM56.7415 39.912V40.168C56.6562 40.1253 56.6562 40.04 56.7415 39.912ZM56.3575 40.488C56.3575 40.5733 56.3148 40.6587 56.2295 40.744C56.1442 40.7867 56.1015 40.8293 56.1015 40.872C55.9308 40.8293 55.9522 40.7227 56.1655 40.552C56.2082 40.5093 56.2722 40.488 56.3575 40.488Z" fill="#50735F"/>
</svg>
