<svg width="80" height="80" viewBox="0 0 80 80" fill="none" xmlns="http://www.w3.org/2000/svg">
<circle cx="40" cy="40" r="40" fill="#884F56"/>
<path d="M50.92 34.56C50.92 34.6133 50.9467 34.64 51 34.64C50.92 34.72 50.8667 34.76 50.84 34.76C50.84 34.7867 50.8533 34.8133 50.88 34.84C50.9333 34.8667 50.9467 34.9067 50.92 34.96C50.7333 34.96 50.68 35.0933 50.76 35.36H50.64V35.44C50.6667 35.4933 50.7067 35.5067 50.76 35.48C50.76 35.5067 50.7067 35.52 50.6 35.52C50.5733 35.5733 50.6 35.6133 50.68 35.64C50.7333 35.64 50.76 35.6533 50.76 35.68C50.76 35.7333 50.72 35.7733 50.64 35.8C50.56 35.8 50.52 35.8267 50.52 35.88C50.5467 35.9067 50.6 35.92 50.68 35.92C50.6533 35.9467 50.6267 36 50.6 36.08C50.6 36.1333 50.5867 36.1867 50.56 36.24C50.5333 36.2933 50.4933 36.32 50.44 36.32C50.4933 36.5867 50.52 36.7467 50.52 36.8C50.4933 36.8 50.4667 36.7733 50.44 36.72C50.44 36.64 50.4267 36.6 50.4 36.6C50.3733 36.6 50.36 36.6933 50.36 36.88C50.36 37.04 50.32 37.1333 50.24 37.16C50.2133 37.2133 50.2267 37.2533 50.28 37.28C50.36 37.3067 50.4 37.3333 50.4 37.36C50.2933 37.44 50.2267 37.5867 50.2 37.8C50.2 37.9867 50.1467 38.1333 50.04 38.24L50.08 38.28C50.1333 38.28 50.1733 38.2933 50.2 38.32C50.1467 38.4 50.1067 38.52 50.08 38.68C50.08 38.84 50.0667 38.96 50.04 39.04C49.9867 39.04 49.9467 39.0533 49.92 39.08C49.92 39.1067 49.88 39.1067 49.8 39.08C49.9067 39.1867 49.96 39.28 49.96 39.36C49.96 39.44 49.92 39.56 49.84 39.72C49.7867 39.8533 49.76 39.96 49.76 40.04C49.7333 40.0133 49.7067 40.0267 49.68 40.08C49.6533 40.1067 49.6 40.1067 49.52 40.08C49.5467 39.9467 49.5467 39.7867 49.52 39.6C49.4933 39.6267 49.4667 39.6667 49.44 39.72C49.44 39.7733 49.3867 39.8 49.28 39.8C49.36 39.8533 49.4267 39.9467 49.48 40.08C49.5333 40.1867 49.6 40.2667 49.68 40.32C49.6267 40.4 49.5467 40.44 49.44 40.44C49.44 40.4133 49.4533 40.3867 49.48 40.36C49.5333 40.3333 49.5467 40.2933 49.52 40.24C49.4133 40.24 49.3467 40.2933 49.32 40.4C49.2933 40.48 49.28 40.5867 49.28 40.72C49.3067 40.8267 49.2933 40.92 49.24 41C49.3467 40.9733 49.4 40.8533 49.4 40.64C49.4267 40.6133 49.4533 40.6 49.48 40.6C49.5333 40.6 49.56 40.56 49.56 40.48C49.6133 40.5333 49.6 40.68 49.52 40.92C49.76 41.1333 49.72 41.5333 49.4 42.12L49.44 42.2C49.4667 42.2533 49.4933 42.2933 49.52 42.32C49.44 42.4533 49.3733 42.72 49.32 43.12C49.2933 43.4933 49.2 43.7467 49.04 43.88C48.9867 43.9333 48.96 43.9733 48.96 44C49.0133 44 49.04 43.96 49.04 43.88H49.16C49.2133 43.9333 49.2133 44.0267 49.16 44.16C49.1333 44.2667 49.1467 44.3733 49.2 44.48C49.04 44.5067 49.0267 44.6133 49.16 44.8C49.08 44.7733 49 44.8 48.92 44.88C48.8667 44.9333 48.8133 44.96 48.76 44.96C48.76 44.9867 48.7867 45 48.84 45C48.8933 45 48.92 45.0267 48.92 45.08C48.9733 45.08 49 45.04 49 44.96C49.0533 44.9867 49.0667 45.1067 49.04 45.32C49.0133 45.5067 48.9467 45.64 48.84 45.72H48.92C48.9733 45.7467 49.0133 45.7733 49.04 45.8C48.9867 45.8267 48.9467 45.9333 48.92 46.12C48.92 46.28 48.8667 46.3733 48.76 46.4C48.9467 46.88 48.92 47.28 48.68 47.6C48.8133 47.68 48.8533 47.84 48.8 48.08C48.72 48.08 48.68 48.0533 48.68 48C48.68 48.0533 48.6933 48.1067 48.72 48.16C48.7467 48.2133 48.7467 48.24 48.72 48.24C48.6933 48.24 48.6533 48.24 48.6 48.24C48.6 48.2933 48.6267 48.3333 48.68 48.36C48.7333 48.3867 48.76 48.4133 48.76 48.44C48.6 48.5467 48.5733 48.7467 48.68 49.04C48.6267 48.9867 48.5467 48.9867 48.44 49.04C48.4133 49.0933 48.44 49.12 48.52 49.12L48.56 49.16C48.5867 49.24 48.64 49.24 48.72 49.16C48.7467 49.1867 48.7333 49.2533 48.68 49.36C48.6267 49.4933 48.6533 49.5733 48.76 49.6C48.76 49.6533 48.72 49.68 48.64 49.68C48.56 49.7067 48.52 49.7333 48.52 49.76C48.5467 49.8667 48.6133 49.92 48.72 49.92C48.6933 50 48.6267 50.0533 48.52 50.08C48.44 50.1067 48.3867 50.1333 48.36 50.16C48.4667 50.1867 48.5467 50.3067 48.6 50.52C48.5467 50.5733 48.52 50.6933 48.52 50.88C48.5467 50.88 48.56 50.8533 48.56 50.8C48.5867 50.7733 48.6267 50.7733 48.68 50.8V51.08H48.52V52.16C48.44 52.1067 48.36 52.1067 48.28 52.16C48.2267 52.24 48.1733 52.28 48.12 52.28C48.12 52.3867 48.2 52.4 48.36 52.32C48.44 52.2933 48.48 52.2667 48.48 52.24C48.5067 52.2933 48.5467 52.72 48.6 53.52C48.6 53.5733 48.6267 53.6 48.68 53.6C48.76 53.6 48.8 53.6133 48.8 53.64C48.6667 54.2 48.6667 54.5333 48.8 54.64C48.8 54.9067 48.8667 55.4667 49 56.32C49.0267 56.3467 49.0533 56.36 49.08 56.36C49.1333 56.36 49.1733 56.3733 49.2 56.4C49.2 56.4533 49.1467 56.48 49.04 56.48C49.0667 56.5333 49.0933 56.6667 49.12 56.88C49.1733 57.0933 49.2667 57.2133 49.4 57.24C49.4 57.5067 49.44 57.7467 49.52 57.96C49.6 58.1733 49.7333 58.4267 49.92 58.72C50.1067 59.04 50.2267 59.2533 50.28 59.36C50.2 59.36 50.1867 59.3867 50.24 59.44C50.2667 59.52 50.28 59.5733 50.28 59.6C50.2533 59.52 50.2133 59.5067 50.16 59.56C50.16 59.5867 50.16 59.6267 50.16 59.68C50.1333 59.68 50.0933 59.6667 50.04 59.64C49.9867 59.64 49.9467 59.6267 49.92 59.6V59.48C49.8667 59.48 49.84 59.4933 49.84 59.52C49.84 59.5733 49.8667 59.6 49.92 59.6C49.8667 59.6267 49.8133 59.6133 49.76 59.56C49.7067 59.5333 49.64 59.5467 49.56 59.6C49.5333 59.5467 49.48 59.4533 49.4 59.32C49.32 59.1867 49.2667 59.0667 49.24 58.96C49.2133 58.96 49.04 58.88 48.72 58.72C48.6933 58.6933 48.6933 58.6533 48.72 58.6C48.7467 58.5733 48.76 58.5467 48.76 58.52C48.68 58.3333 48.48 57.9333 48.16 57.32C47.84 56.7333 47.64 56.2533 47.56 55.88C47.56 55.8533 47.56 55.7733 47.56 55.64C47.5867 55.5333 47.5867 55.4533 47.56 55.4C47.5333 55.3733 47.5067 55.3467 47.48 55.32C47.4533 55.32 47.4267 55.3067 47.4 55.28C47.1867 54.7733 47.08 54 47.08 52.96C47.08 52.72 47.04 52.3733 46.96 51.92C46.88 51.4933 46.84 51.1733 46.84 50.96C46.84 50.72 46.8533 50.24 46.88 49.52C46.9333 48.8267 46.9467 48.3067 46.92 47.96C46.92 47.8533 46.9467 47.68 47 47.44C47.08 47.2 47.12 47.04 47.12 46.96C47.12 46.8533 47.1067 46.6533 47.08 46.36C47.08 46.0667 47.0933 45.8667 47.12 45.76C47.12 45.7333 47.1467 45.7067 47.2 45.68C47.2533 45.6267 47.28 45.5867 47.28 45.56L47.16 45.48C47.16 45.3733 47.1867 45.1867 47.24 44.92C47.2933 44.6267 47.3333 44.4133 47.36 44.28C47.3867 44.1733 47.3867 44.08 47.36 44C47.36 43.8933 47.36 43.7867 47.36 43.68C47.3867 43.5733 47.4267 43.48 47.48 43.4C47.48 43.3467 47.4533 43.3067 47.4 43.28C47.3467 43.2533 47.3333 43.2133 47.36 43.16C47.4933 42.8667 47.5867 42.3733 47.64 41.68C47.72 40.96 47.84 40.4267 48 40.08C48 40.0533 47.9867 40.0267 47.96 40C47.9333 39.9467 47.9333 39.8933 47.96 39.84C48.1467 38.8 48.56 36.76 49.2 33.72C50.1867 29.6667 50.7333 27.3067 50.84 26.64C50.76 26.64 50.6933 26.7067 50.64 26.84C50.5867 26.9733 50.5067 27.0267 50.4 27V27.24H50.36C50.3333 27.2133 50.3067 27.2 50.28 27.2C50.1467 27.3867 49.88 27.8 49.48 28.44C49.1067 29.0533 48.7733 29.4933 48.48 29.76C48.4533 29.8133 48.4533 29.8667 48.48 29.92C48.5067 29.9467 48.52 29.9733 48.52 30C48.3333 30.08 48.16 30.3067 48 30.68C47.8667 31.0267 47.72 31.24 47.56 31.32V31.76C47.2133 32.0533 47.04 32.3733 47.04 32.72C47.0133 32.72 46.9867 32.6933 46.96 32.64C46.96 32.5867 46.9333 32.56 46.88 32.56C46.88 32.72 46.7867 32.8533 46.6 32.96C46.8133 32.9867 46.8 33.08 46.56 33.24C46.56 33.2667 46.6 33.28 46.68 33.28C46.2533 34 45.8 35.04 45.32 36.4C45.2133 36.4 45.1467 36.4133 45.12 36.44C45.04 36.92 44.8933 37.28 44.68 37.52C44.7333 37.68 44.7067 37.88 44.6 38.12C44.4933 38.36 44.3867 38.4933 44.28 38.52V38.84C44.2533 38.84 44.24 38.84 44.24 38.84C44.24 38.8133 44.2267 38.8 44.2 38.8C43.96 39.8133 43.72 40.3867 43.48 40.52C43.5067 40.52 43.5333 40.52 43.56 40.52C43.56 40.8133 43.4 41.28 43.08 41.92C43.1067 42.1067 43.08 42.2933 43 42.48C42.9467 42.6667 42.8667 42.88 42.76 43.12C42.6533 43.36 42.5733 43.5333 42.52 43.64C42.0933 44.84 41.84 45.5467 41.76 45.76C41.7333 45.7867 41.68 45.9067 41.6 46.12C41.52 46.3333 41.4667 46.4667 41.44 46.52C41.44 46.5733 41.4 46.6933 41.32 46.88C41.24 47.04 41.1733 47.16 41.12 47.24C41.0933 47.2933 41.0267 47.4 40.92 47.56C40.84 47.6933 40.76 47.7867 40.68 47.84C40.6 47.8933 40.5067 47.9733 40.4 48.08C40.2933 48.16 40.1733 48.24 40.04 48.32C39.9333 48.3733 39.8133 48.4133 39.68 48.44C39.6267 48.4667 39.5733 48.4667 39.52 48.44C39.4933 48.3867 39.4667 48.36 39.44 48.36C39.3867 48.36 39.32 48.4 39.24 48.48C38.9467 48.4 38.5867 48.0267 38.16 47.36C38.1333 47.36 38.1067 47.3867 38.08 47.44C38.08 47.4667 38.0533 47.4667 38 47.44C37.28 46.2133 36.9467 45.1733 37 44.32C36.8133 42.2933 36.8933 40.2933 37.24 38.32C37.24 38.24 37.2133 38.1733 37.16 38.12C37.2933 37.72 37.4267 37 37.56 35.96C37.6933 34.92 37.84 34.2 38 33.8C37.92 33.32 38.0133 32.76 38.28 32.12C38.28 31.8 38.3333 31.28 38.44 30.56C38.5733 29.8133 38.6267 29.1733 38.6 28.64C38.3067 29.0667 38.1467 29.3867 38.12 29.6C37.96 29.68 37.8133 29.92 37.68 30.32C37.5733 30.72 37.44 30.96 37.28 31.04C37.2 31.28 36.9333 31.96 36.48 33.08C36.0533 34.2 35.76 35.0933 35.6 35.76C34.7733 38.0267 34.0667 40.5467 33.48 43.32C33.48 43.3467 33.44 43.36 33.36 43.36C33.2267 44.24 32.92 45.76 32.44 47.92C31.9867 50.08 31.72 51.7467 31.64 52.92C31.4267 53.56 31.36 54.0533 31.44 54.4C31.4133 54.4267 31.3867 54.4667 31.36 54.52C31.3333 54.5733 31.3067 54.6133 31.28 54.64C31.2533 54.6933 31.2133 54.72 31.16 54.72C31.1867 54.8533 31.12 55.0667 30.96 55.36H30.24C29.4933 54.96 29.1867 54.2667 29.32 53.28C29.3733 52.8533 29.48 52.2133 29.64 51.36C29.8 50.5067 29.9067 49.9467 29.96 49.68C30.04 49.0933 30.2267 48.16 30.52 46.88C30.8133 45.6 31 44.68 31.08 44.12C31.7733 41.6133 32.16 40.1467 32.24 39.72C32.4 39.2933 32.64 38.4933 32.96 37.32C33.28 36.1467 33.5867 35.28 33.88 34.72C33.88 34.6667 33.8667 34.6133 33.84 34.56C33.8133 34.5067 33.8133 34.4533 33.84 34.4C33.92 34.2667 34 34.0267 34.08 33.68C34.1867 33.3333 34.3333 33.0933 34.52 32.96C34.5467 32.64 34.6133 32.3333 34.72 32.04C34.8267 31.72 34.9733 31.3733 35.16 31C35.3467 30.6 35.48 30.2667 35.56 30C35.5867 29.9467 35.6133 29.9467 35.64 30C35.6933 30.0533 35.7467 30.08 35.8 30.08C35.8 30.0533 35.7867 30 35.76 29.92C35.7333 29.84 35.72 29.7867 35.72 29.76C35.7733 29.5467 35.8933 29.3067 36.08 29.04C36.2667 28.7733 36.3867 28.52 36.44 28.28C36.4667 28.2533 36.5067 28.24 36.56 28.24C36.6133 28.2133 36.6533 28.2 36.68 28.2C36.6267 28.04 36.6933 27.8667 36.88 27.68C37.0933 27.4933 37.2133 27.36 37.24 27.28C37.24 27.2267 37.2133 27.2267 37.16 27.28C37.2667 26.8267 37.5067 26.52 37.88 26.36C38.2533 26.2 38.68 26.1867 39.16 26.32V26.52C39.5867 26.5733 39.84 26.5867 39.92 26.56C39.92 26.64 39.9467 26.7333 40 26.84C40.08 26.9467 40.12 27.0267 40.12 27.08C40.1467 27.1333 40.1333 27.2133 40.08 27.32H40.2V27.96C40.28 27.96 40.3067 27.92 40.28 27.84C40.28 27.76 40.28 27.7067 40.28 27.68C40.3067 27.68 40.3467 27.7733 40.4 27.96H40.36C40.3333 27.9867 40.3067 28 40.28 28C40.3067 28.0267 40.3333 28.0667 40.36 28.12C40.3867 28.1733 40.4133 28.2133 40.44 28.24C40.44 28.2933 40.4133 28.32 40.36 28.32C40.52 29.36 40.4133 30.0267 40.04 30.32C40.04 30.3467 40.08 30.36 40.16 30.36C40.2667 30.3333 40.3333 30.3467 40.36 30.4C40.2533 30.5867 40.24 30.72 40.32 30.8C40.1867 30.8 40.0933 30.84 40.04 30.92C40.0133 31 39.9867 31.1067 39.96 31.24C39.96 31.3733 39.9467 31.4667 39.92 31.52C40.0267 31.52 40.08 31.4267 40.08 31.24C40.08 31.0533 40.12 30.9467 40.2 30.92C40.1733 30.9733 40.16 31.04 40.16 31.12C40.1867 31.2 40.2 31.28 40.2 31.36C40.2267 31.44 40.2267 31.5067 40.2 31.56C40.1733 31.6133 40.12 31.64 40.04 31.64C40.04 31.6933 40.0667 31.7333 40.12 31.76C40.2 31.76 40.2267 31.8 40.2 31.88C40.12 31.8533 40.04 31.8933 39.96 32C39.9067 32.1067 39.88 32.2267 39.88 32.36C39.7733 32.36 39.7067 32.3467 39.68 32.32V32.48C39.68 32.5067 39.6933 32.52 39.72 32.52C39.7733 32.4933 39.8133 32.48 39.84 32.48C39.8133 32.56 39.76 32.6 39.68 32.6C39.7867 32.6533 39.84 32.6533 39.84 32.6C39.8667 32.5467 39.8933 32.48 39.92 32.4C39.9733 32.2933 40.0267 32.24 40.08 32.24C40.0533 32.32 40.04 32.4933 40.04 32.76C40.0667 33 40.0133 33.16 39.88 33.24C39.9867 33.2933 40 33.4 39.92 33.56C39.8667 33.72 39.8667 33.84 39.92 33.92C39.76 34.08 39.6133 34.1333 39.48 34.08C39.4267 34.1867 39.3867 34.2533 39.36 34.28C39.4133 34.28 39.4933 34.2667 39.6 34.24C39.7067 34.2133 39.7867 34.2 39.84 34.2C39.84 34.3067 39.8 34.5067 39.72 34.8C39.6667 35.0667 39.6667 35.2933 39.72 35.48C39.4267 35.5867 39.2533 35.56 39.2 35.4C39.0933 35.6667 39.0933 35.8667 39.2 36C39.28 36 39.3467 35.9333 39.4 35.8C39.4533 35.6667 39.5333 35.6133 39.64 35.64C39.5333 35.88 39.4267 36.3467 39.32 37.04C39.24 37.7067 39.1333 38.2267 39 38.6C39 38.68 39.04 38.72 39.12 38.72C39.04 39.0133 38.9733 39.4133 38.92 39.92C38.8933 40.4267 38.8267 40.7867 38.72 41C38.8267 41.2133 38.8 41.3467 38.64 41.4C38.72 41.48 38.7467 41.56 38.72 41.64C38.6667 41.6667 38.6267 41.6533 38.6 41.6C38.5733 41.52 38.5467 41.48 38.52 41.48C38.6533 41.72 38.7067 42.1067 38.68 42.64C38.6 42.6667 38.56 42.7333 38.56 42.84C38.5867 42.9467 38.6133 43.0667 38.64 43.2C38.6667 43.3067 38.6667 43.4133 38.64 43.52H38.36V43.32C38.28 43.32 38.2267 43.3467 38.2 43.4C38.2 43.4267 38.2133 43.48 38.24 43.56C38.2667 43.6133 38.2533 43.68 38.2 43.76C38.4133 43.68 38.5733 43.6933 38.68 43.8C38.6267 43.9333 38.6133 44.1333 38.64 44.4C38.6667 44.6667 38.6533 44.8667 38.6 45C38.6533 45.1067 38.7067 45.1467 38.76 45.12C38.76 45.1467 38.7333 45.1733 38.68 45.2C38.6267 45.2267 38.6 45.2667 38.6 45.32C38.6 45.3467 38.6 45.3733 38.6 45.4C38.6267 45.4267 38.64 45.4667 38.64 45.52C38.6667 45.52 38.6933 45.52 38.72 45.52C38.7467 45.4933 38.7867 45.48 38.84 45.48C38.7333 45.5867 38.68 45.7067 38.68 45.84C38.68 45.9733 38.7067 46.1333 38.76 46.32C38.8133 46.5067 38.84 46.64 38.84 46.72L38.96 46.64C39.0133 46.5867 39.0667 46.56 39.12 46.56C39.92 45.0133 40.4133 43.88 40.6 43.16H40.76C40.7067 42.92 40.76 42.8 40.92 42.8C40.8933 42.64 40.9067 42.4667 40.96 42.28C41.0133 42.0933 41.1067 41.8667 41.24 41.6C41.3733 41.3333 41.4667 41.1333 41.52 41C41.7067 40.44 41.8533 40.04 41.96 39.8C42.1733 39.2933 42.4933 38.4533 42.92 37.28C43.3733 36.08 43.7333 35.1733 44 34.56C44.0267 34.56 44.0667 34.5867 44.12 34.64C44.1733 34.6933 44.2133 34.6933 44.24 34.64C44.2933 34.7733 44.28 34.92 44.2 35.08C44.1467 35.24 44.0533 35.3467 43.92 35.4C43.8667 35.72 43.8133 35.8933 43.76 35.92C43.76 35.9467 43.7867 35.9867 43.84 36.04C43.8933 36.0933 43.92 36.1333 43.92 36.16C44.1067 36.0267 44.1333 35.8667 44 35.68H44.2C44.2267 35.5733 44.28 35.4133 44.36 35.2C44.4667 34.9867 44.52 34.8133 44.52 34.68H44.68C44.68 34.3067 44.8267 34.0267 45.12 33.84C45.0667 33.52 45.1867 33.2667 45.48 33.08C45.4533 33.0533 45.4133 32.96 45.36 32.8C45.4133 32.7467 45.48 32.6667 45.56 32.56C45.6667 32.4533 45.7467 32.3733 45.8 32.32C45.8 32.2933 45.7733 32.28 45.72 32.28C45.64 32.2533 45.6133 32.2 45.64 32.12C45.7467 32.0667 45.8533 31.92 45.96 31.68C46.0933 31.4133 46.2267 31.2533 46.36 31.2C46.3067 31.0667 46.3733 30.92 46.56 30.76C46.7467 30.5733 46.76 30.4267 46.6 30.32C47.08 30.0267 47.3067 29.68 47.28 29.28C47.36 29.28 47.4267 29.2133 47.48 29.08C47.56 28.9467 47.6533 28.88 47.76 28.88C47.7067 28.72 47.8133 28.4933 48.08 28.2C48.3733 27.88 48.5067 27.6533 48.48 27.52C48.48 27.4933 48.52 27.4667 48.6 27.44C48.7067 27.3867 48.7467 27.3067 48.72 27.2H48.84C48.76 27.1467 48.7333 27.0933 48.76 27.04C48.8133 26.96 48.84 26.88 48.84 26.8C49.0533 26.8 49.1733 26.6933 49.2 26.48C49.2 26.4533 49.2 26.4267 49.2 26.4C49.2533 26.4 49.3067 26.3867 49.36 26.36C49.4133 26.3067 49.4533 26.28 49.48 26.28C49.5067 26.2267 49.4933 26.1867 49.44 26.16C49.4133 26.1333 49.4 26.1067 49.4 26.08L49.44 26.04C49.4667 26.0133 49.4933 26.0133 49.52 26.04C49.5733 26.0667 49.6133 26.08 49.64 26.08C49.6133 26.0533 49.64 25.9867 49.72 25.88C49.8 25.7733 49.8 25.7067 49.72 25.68C49.7467 25.68 49.7733 25.6667 49.8 25.64C49.8533 25.6133 49.8933 25.5867 49.92 25.56C49.9733 25.5333 50.0133 25.52 50.04 25.52C50.04 25.4667 50.0267 25.4267 50 25.4C50 25.3733 50 25.3467 50 25.32C50.1333 25.3467 50.3067 25.1867 50.52 24.84C50.3867 24.8133 50.24 24.92 50.08 25.16C49.92 25.4 49.7467 25.52 49.56 25.52C49.56 25.5467 49.5467 25.6 49.52 25.68C49.4933 25.7333 49.4933 25.7867 49.52 25.84C49.4933 25.84 49.4667 25.8267 49.44 25.8H49.4V26.08C49.3467 26.1067 49.2933 26.1067 49.24 26.08C49.2133 26.0267 49.1867 26 49.16 26C49.16 26.08 49.1067 26.1867 49 26.32C48.8933 26.4533 48.84 26.5867 48.84 26.72C48.8133 26.72 48.7867 26.7067 48.76 26.68C48.7333 26.6533 48.7067 26.64 48.68 26.64C48.7333 26.88 48.6133 27.0267 48.32 27.08C48.32 27.1333 48.36 27.1867 48.44 27.24C48.36 27.24 48.2933 27.2667 48.24 27.32C48.1867 27.3733 48.1467 27.4267 48.12 27.48C48.12 27.5067 48.1067 27.5733 48.08 27.68C48.0533 27.76 48.04 27.8133 48.04 27.84C47.96 27.7867 47.8933 27.7867 47.84 27.84C47.8133 27.8933 47.7867 27.96 47.76 28.04C47.76 28.0933 47.7333 28.16 47.68 28.24C47.6533 28.32 47.6 28.3733 47.52 28.4C47.4933 28.4533 47.4933 28.4933 47.52 28.52C47.5467 28.5733 47.56 28.6133 47.56 28.64C47.5067 28.64 47.4533 28.6133 47.4 28.56C47.3733 28.64 47.3467 28.7333 47.32 28.84C47.32 28.92 47.3067 28.9867 47.28 29.04C47.2 29.04 47.1867 29 47.24 28.92C47.1333 28.9467 47.1067 29.0933 47.16 29.36C47.08 29.2533 47.04 29.2133 47.04 29.24C46.9867 29.2667 46.9467 29.2933 46.92 29.32C46.92 29.3467 46.9333 29.4 46.96 29.48C46.9867 29.5333 47 29.5867 47 29.64C46.8667 29.56 46.76 29.6267 46.68 29.84C46.6533 29.84 46.6133 29.8667 46.56 29.92C46.5333 29.9733 46.4933 29.9867 46.44 29.96V30.32C46.3867 30.32 46.3333 30.36 46.28 30.44C46.2267 30.52 46.1867 30.5733 46.16 30.6C46.24 30.68 46.2933 30.72 46.32 30.72C46.0533 30.8267 45.8933 31.1067 45.84 31.56C45.8133 31.6133 45.7733 31.6267 45.72 31.6C45.6933 31.5467 45.6667 31.52 45.64 31.52C45.5867 31.5733 45.5867 31.6933 45.64 31.88C45.56 31.88 45.5067 31.8667 45.48 31.84C45.5067 32 45.48 32.16 45.4 32.32C45.32 32.4533 45.2933 32.5467 45.32 32.6C45.24 32.6267 45.16 32.6933 45.08 32.8C45.0267 32.9067 44.96 32.9733 44.88 33C44.9333 33.16 44.9467 33.28 44.92 33.36C44.92 33.4133 44.88 33.5067 44.8 33.64C44.7467 33.7733 44.7067 33.88 44.68 33.96C44.6267 33.9067 44.6 33.8667 44.6 33.84C44.44 34 44.4133 34.1467 44.52 34.28C44.28 34.28 44.2267 34.36 44.36 34.52C44.2533 34.5467 44.1867 34.5467 44.16 34.52C44.1333 34.4667 44.1333 34.4 44.16 34.32C44.2667 34.1067 44.4267 33.7467 44.64 33.24C44.88 32.7067 45.0933 32.2667 45.28 31.92C45.4667 31.5733 45.68 31.24 45.92 30.92C46.1333 30.2267 46.4133 29.7867 46.76 29.6C46.7067 29.4667 46.7333 29.3333 46.84 29.2C46.9733 29.04 47.04 28.9067 47.04 28.8C48.08 27.2533 48.68 26.36 48.84 26.12C48.8933 26.0667 49.1333 25.8 49.56 25.32C49.9867 24.84 50.3333 24.5067 50.6 24.32C51.2667 24.3733 51.6267 24.4133 51.68 24.44C51.68 24.52 51.6533 24.56 51.6 24.56C51.6533 24.6133 51.76 24.6533 51.92 24.68C52.08 24.68 52.2 24.6933 52.28 24.72C52.2533 24.8 52.2533 24.8533 52.28 24.88C52.3067 24.9067 52.3467 24.9333 52.4 24.96C52.4533 24.9867 52.4933 25.0133 52.52 25.04C52.52 25.0933 52.5467 25.2133 52.6 25.4C52.6533 25.56 52.6933 25.7067 52.72 25.84C52.7467 25.9467 52.7467 26.0667 52.72 26.2C52.6933 26.3333 52.64 26.4267 52.56 26.48H52.64C52.6933 26.48 52.7333 26.5067 52.76 26.56C52.5733 26.8 52.52 27.0667 52.6 27.36C52.5733 27.36 52.5333 27.3867 52.48 27.44C52.4267 27.4667 52.3733 27.48 52.32 27.48C52.32 27.5333 52.36 27.5733 52.44 27.6C52.5467 27.6 52.5867 27.64 52.56 27.72C52.5333 27.72 52.5067 27.7067 52.48 27.68C52.4533 27.6533 52.4267 27.6533 52.4 27.68C52.48 27.8667 52.4667 28.0933 52.36 28.36C52.28 28.6 52.2533 28.8133 52.28 29C52.2533 29.0533 52.1867 29.08 52.08 29.08C51.9733 29.08 51.9067 29.12 51.88 29.2C51.88 29.2533 51.92 29.2667 52 29.24C52.0533 29.24 52.0933 29.24 52.12 29.24C52.12 29.4 52.0267 29.4533 51.84 29.4V29.44C51.84 29.4667 51.8267 29.48 51.8 29.48C51.8267 29.5067 51.8533 29.5333 51.88 29.56C51.9333 29.5867 51.9867 29.6267 52.04 29.68C52.04 29.7333 52.0267 29.7867 52 29.84C51.9733 29.8933 51.96 29.9333 51.96 29.96C51.96 29.9867 52 30 52.08 30C52 30.1867 51.9067 30.3067 51.8 30.36C51.8267 30.4133 51.8267 30.4933 51.8 30.6C51.8 30.7067 51.8133 30.7867 51.84 30.84C51.8133 30.84 51.7733 30.8533 51.72 30.88C51.6667 30.88 51.6133 30.8933 51.56 30.92C51.5333 30.92 51.5067 30.9333 51.48 30.96C51.6133 31.04 51.6933 31.0267 51.72 30.92C51.88 30.9467 51.88 31.0133 51.72 31.12C51.6667 31.1467 51.6133 31.16 51.56 31.16C51.56 31.1867 51.56 31.24 51.56 31.32C51.5867 31.4 51.6 31.4667 51.6 31.52C51.6267 31.5733 51.6533 31.6133 51.68 31.64C51.6533 31.72 51.6133 31.76 51.56 31.76C51.5067 31.7333 51.4667 31.7333 51.44 31.76C51.4933 31.8133 51.56 31.84 51.64 31.84C51.5067 31.9467 51.4267 32.16 51.4 32.48C51.4 32.8 51.32 33.0133 51.16 33.12C51.1333 33.1733 51.1333 33.2267 51.16 33.28C51.2133 33.3067 51.24 33.3333 51.24 33.36C51.2133 33.36 51.1733 33.3867 51.12 33.44C51.1733 33.5467 51.1733 33.72 51.12 33.96C51.0667 34.1733 50.9733 34.32 50.84 34.4L50.88 34.48C50.88 34.5333 50.8933 34.56 50.92 34.56ZM50.68 24.64C50.6267 24.64 50.6 24.6533 50.6 24.68C50.6533 24.68 50.68 24.6667 50.68 24.64ZM50.44 25.76C50.52 25.7867 50.5867 25.7333 50.64 25.6C50.5067 25.6 50.44 25.6533 50.44 25.76ZM49.92 26.52H50.12C50.0933 26.4667 50.1067 26.4 50.16 26.32C50.1067 26.32 50.0533 26.36 50 26.44L49.92 26.52ZM37.16 28C37.4533 27.8667 37.5467 27.6933 37.44 27.48C37.5733 27.4 37.7733 27.1067 38.04 26.6C37.4533 27.24 37.16 27.7067 37.16 28ZM51.48 26.72H51.6V26.6H51.48V26.72ZM51.6 27.08H51.68V27H51.6V27.08ZM47.6 46.32V46.44H47.72C47.72 46.36 47.68 46.32 47.6 46.32C47.6 46.2667 47.6533 46.16 47.76 46C47.7333 45.9733 47.7067 45.92 47.68 45.84C47.68 45.76 47.6533 45.7067 47.6 45.68C47.68 45.5733 47.7333 45.44 47.76 45.28C47.8133 45.0933 47.84 44.8533 47.84 44.56C47.84 44.24 47.84 44.0533 47.84 44C47.8667 43.9733 47.9067 43.9733 47.96 44C48.04 44 48.08 43.96 48.08 43.88C47.92 43.7467 47.8933 43.48 48 43.08C48.1333 42.68 48.16 42.4 48.08 42.24C48.1067 42.1333 48.1733 42 48.28 41.84C48.28 41.8133 48.24 41.8 48.16 41.8C48.1067 41.7733 48.0933 41.7333 48.12 41.68C48.2533 41.68 48.3333 41.6667 48.36 41.64C48.28 41.4 48.2933 41.0667 48.4 40.64C48.5333 40.2133 48.5733 39.9067 48.52 39.72H48.68C48.6267 39.48 48.64 39.1867 48.72 38.84C48.8 38.4933 48.8267 38.2667 48.8 38.16C48.9067 38.08 48.9733 37.9733 49 37.84C49.0267 37.7067 49.04 37.5333 49.04 37.32C49.04 37.1067 49.0533 36.9467 49.08 36.84C49.3467 36.0667 49.4667 35.5333 49.44 35.24L49.72 34.32L49.68 34.28C49.6533 34.28 49.64 34.2667 49.64 34.24C49.6933 34.1867 49.7467 34.0667 49.8 33.88C49.8533 33.6933 49.92 33.56 50 33.48C49.9733 33.3467 50.0267 33.04 50.16 32.56C50.2933 32.08 50.3067 31.7333 50.2 31.52C50.28 31.52 50.3333 31.4933 50.36 31.44C50.4133 31.3867 50.44 31.32 50.44 31.24C50.44 31.1333 50.4533 31.04 50.48 30.96C50.5067 30.8533 50.56 30.7733 50.64 30.72C50.64 30.6933 50.6133 30.6533 50.56 30.6C50.5333 30.5467 50.52 30.4933 50.52 30.44H50.68C50.68 30.36 50.7067 30.24 50.76 30.08C50.8133 29.8933 50.8 29.76 50.72 29.68C50.9867 29.0667 51.08 28.4133 51 27.72C51.08 27.6667 51.1333 27.5867 51.16 27.48C51.2133 27.3467 51.2 27.2533 51.12 27.2C50.88 28.0267 50.7467 28.7733 50.72 29.44C50.64 29.52 50.5733 29.6667 50.52 29.88C50.4667 30.0667 50.4267 30.1867 50.4 30.24C50.4533 30.3733 50.4 30.6133 50.24 30.96C50.1067 31.3067 50.0933 31.5467 50.2 31.68C50.0667 31.8933 49.9467 32.28 49.84 32.84C49.7333 33.3733 49.6267 33.7333 49.52 33.92C49.36 34.8267 48.9467 36.7467 48.28 39.68C48.2533 39.7067 48.2533 39.7333 48.28 39.76C48.3333 39.76 48.36 39.7733 48.36 39.8C48.3067 39.9867 48.24 40.28 48.16 40.68C48.1067 41.0533 48.04 41.3333 47.96 41.52C48.04 41.52 48.08 41.56 48.08 41.64C48.0533 41.64 48.04 41.6533 48.04 41.68C47.9867 41.7333 47.9333 41.7467 47.88 41.72C47.9067 41.8 47.9067 41.8667 47.88 41.92C47.88 41.9733 47.88 42.0267 47.88 42.08C47.88 42.1333 47.92 42.1733 48 42.2C47.9467 42.2 47.9067 42.2133 47.88 42.24C47.8533 42.24 47.8267 42.24 47.8 42.24C47.7733 42.7733 47.6667 43.68 47.48 44.96C47.32 46.24 47.2667 47.2267 47.32 47.92C47.2667 47.9733 47.2133 48 47.16 48C47.1867 48.0267 47.2 48.1067 47.2 48.24C47.2 48.3733 47.2267 48.4533 47.28 48.48C47.28 48.4533 47.32 48.44 47.4 48.44C47.4 48.3067 47.4267 48.1467 47.48 47.96C47.56 47.7467 47.56 47.6267 47.48 47.6C47.48 47.52 47.52 47.48 47.6 47.48C47.5733 47.3467 47.56 47.16 47.56 46.92C47.5867 46.6533 47.5733 46.48 47.52 46.4L47.6 46.32ZM51.6 27.44C51.6 27.4133 51.6133 27.3733 51.64 27.32C51.6667 27.2933 51.6533 27.2667 51.6 27.24L51.56 27.4L51.6 27.44ZM51.64 27.8C51.64 27.7467 51.64 27.6933 51.64 27.64C51.6667 27.5867 51.68 27.5467 51.68 27.52C51.68 27.4933 51.64 27.48 51.56 27.48C51.56 27.6933 51.5867 27.8 51.64 27.8ZM38.2 27.96L38.12 28C38.04 28 38.0133 28.0267 38.04 28.08H38.2V27.96C38.2267 27.96 38.24 27.9733 38.24 28C38.2933 28.0533 38.3467 28.0667 38.4 28.04C38.3467 27.9333 38.3733 27.7867 38.48 27.6C38.3467 27.6 38.2533 27.72 38.2 27.96ZM48.84 27.96C48.7867 27.96 48.76 27.9867 48.76 28.04C48.8133 28.0667 48.84 28.04 48.84 27.96C48.8667 27.96 48.88 27.96 48.88 27.96L48.96 28C48.9067 27.9467 48.9067 27.88 48.96 27.8C49.0133 27.72 49.0267 27.6533 49 27.6C49 27.6267 48.96 27.68 48.88 27.76C48.8267 27.8133 48.8133 27.88 48.84 27.96ZM52.12 28C52.1733 28 52.2267 27.9733 52.28 27.92C52.1467 27.92 52.0933 27.9467 52.12 28ZM32.2 42.36C32.2 42.44 32.2133 42.48 32.24 42.48C32.24 42.4267 32.2267 42.3867 32.2 42.36C32.2 42.2267 32.1867 42.1467 32.16 42.12C32.24 42.0933 32.3467 41.9467 32.48 41.68C32.4 41.68 32.36 41.6667 32.36 41.64C32.3333 41.5067 32.36 41.4133 32.44 41.36C32.5467 41.3067 32.6 41.2533 32.6 41.2C32.52 41.2267 32.48 41.2 32.48 41.12L32.44 41.04C32.5467 40.96 32.6133 40.7867 32.64 40.52C32.6667 40.2267 32.7467 40.08 32.88 40.08C32.8267 40.0533 32.7733 40.0133 32.72 39.96C32.7733 39.8267 32.8267 39.76 32.88 39.76C32.8533 39.7067 32.88 39.68 32.96 39.68C32.8 39.28 32.8667 39.0533 33.16 39C33.08 38.9467 33.0667 38.8 33.12 38.56C33.2 38.32 33.24 38.1467 33.24 38.04L33.48 37.88H33.36C33.36 37.6667 33.4533 37.52 33.64 37.44C33.6667 37.36 33.64 37.32 33.56 37.32C33.48 37.32 33.44 37.28 33.44 37.2C33.44 37.12 33.5067 37.1067 33.64 37.16C33.6667 37.08 33.6933 36.9467 33.72 36.76C33.7467 36.5467 33.7867 36.3733 33.84 36.24C33.8933 36.1067 33.9867 35.9867 34.12 35.88C33.9867 35.8267 33.92 35.7733 33.92 35.72C33.9467 35.72 33.96 35.6933 33.96 35.64C33.9867 35.5867 34.0267 35.5733 34.08 35.6C34.0533 35.6533 34.08 35.68 34.16 35.68C34.2133 35.3333 34.2133 35.12 34.16 35.04C34.32 35.04 34.3867 35.0133 34.36 34.96C34.3867 34.9067 34.36 34.8667 34.28 34.84C34.2267 34.8133 34.2 34.7867 34.2 34.76C34.2267 34.7333 34.2933 34.72 34.4 34.72C34.4267 34.6667 34.4267 34.6133 34.4 34.56C34.3733 34.48 34.36 34.4267 34.36 34.4C34.4133 34.3733 34.4533 34.32 34.48 34.24C34.5333 34.16 34.56 34.08 34.56 34C34.5867 33.8933 34.6133 33.8133 34.64 33.76C34.6933 33.68 34.76 33.6533 34.84 33.68C34.8133 33.2267 34.9467 32.8533 35.24 32.56C35.24 32.5067 35.2133 32.4667 35.16 32.44C35.1067 32.4133 35.0933 32.3733 35.12 32.32C35.2533 32.2133 35.3733 32 35.48 31.68C35.5867 31.36 35.6933 31.16 35.8 31.08C35.8533 30.8133 35.9867 30.4533 36.2 30C36.44 29.52 36.6 29.16 36.68 28.92C36.9467 28.92 36.9867 28.8 36.8 28.56C37.0133 28.48 37.1333 28.3467 37.16 28.16C37.16 28.08 37.12 28.04 37.04 28.04C37.0133 28.04 36.9867 28.04 36.96 28.04C36.3467 29.16 35.7733 30.3467 35.24 31.6C35.1867 31.7867 34.96 32.3867 34.56 33.4C34.1867 34.3867 33.9467 35.16 33.84 35.72C33.76 35.8267 33.6933 36 33.64 36.24C33.5867 36.4533 33.5333 36.5867 33.48 36.64C33.4533 36.6933 33.4667 36.7333 33.52 36.76C33.5733 36.7867 33.6 36.8133 33.6 36.84C33.44 36.8933 33.3333 37.08 33.28 37.4C33.2267 37.72 33.16 37.9333 33.08 38.04C33.0267 38.3867 32.8933 38.92 32.68 39.64C32.4667 40.36 32.3333 40.8933 32.28 41.24C32.3333 41.1867 32.36 41.1867 32.36 41.24C32.0933 41.9067 31.9733 42.48 32 42.96C31.9733 42.9067 31.9867 42.88 32.04 42.88C32.12 42.8533 32.16 42.8267 32.16 42.8C32.0533 42.8 32 42.7733 32 42.72C32.0533 42.6933 32.0933 42.64 32.12 42.56C32.1467 42.4533 32.1733 42.3867 32.2 42.36ZM38.04 28.52C38.04 28.4933 38.0267 28.48 38 28.48C37.9733 28.48 37.96 28.4933 37.96 28.52H38.04ZM40.08 28.56C40.1067 28.56 40.1467 28.5867 40.2 28.64C40.2 28.5867 40.2 28.5467 40.2 28.52C40.1467 28.52 40.1067 28.5333 40.08 28.56ZM37.88 28.68H37.96V28.56H37.88V28.68ZM52.04 28.72C52.04 28.6933 52.0533 28.68 52.08 28.68C52.08 28.6 52.04 28.56 51.96 28.56C51.96 28.6667 51.9867 28.72 52.04 28.72ZM37.8 28.88C37.8267 28.8533 37.8533 28.8267 37.88 28.8C37.9067 28.7733 37.92 28.7467 37.92 28.72C37.8667 28.6933 37.8133 28.7067 37.76 28.76C37.7333 28.8133 37.7467 28.8533 37.8 28.88ZM48.28 28.92C48.28 28.84 48.3067 28.8267 48.36 28.88V28.76H48.32C48.2933 28.7333 48.2667 28.72 48.24 28.72C48.24 28.8533 48.2533 28.92 48.28 28.92ZM37.76 29.04C37.7067 28.9333 37.6667 28.88 37.64 28.88C37.6133 28.9333 37.6533 28.9867 37.76 29.04ZM37.48 29.2C37.6133 29.12 37.68 29.0667 37.68 29.04C37.5467 29.0933 37.48 29.1467 37.48 29.2ZM37.4 29.48C37.5067 29.48 37.56 29.4133 37.56 29.28C37.4267 29.28 37.3733 29.3467 37.4 29.48ZM37.44 29.64C37.4667 29.5867 37.44 29.5467 37.36 29.52L37.28 29.48C37.2533 29.5333 37.2667 29.5733 37.32 29.6C37.4 29.6 37.44 29.6133 37.44 29.64ZM35.96 29.72C35.9333 29.6933 35.9067 29.68 35.88 29.68C35.8533 29.68 35.84 29.6933 35.84 29.72H35.96ZM39.2 29.88H39.4C39.4 29.7467 39.3467 29.68 39.24 29.68C39.24 29.7067 39.2267 29.7333 39.2 29.76C39.2 29.7867 39.2 29.8267 39.2 29.88ZM47.64 29.76H47.76V29.68H47.64V29.76ZM47.56 29.96H47.72L47.68 29.88C47.68 29.8533 47.6667 29.84 47.64 29.84C47.64 29.8667 47.6267 29.88 47.6 29.88L47.56 29.96ZM51.16 30.2C51.1333 30.1733 51.12 30.1467 51.12 30.12C51.1467 30.0667 51.1733 30.0267 51.2 30C51.2533 29.92 51.24 29.88 51.16 29.88C51.16 29.9067 51.1333 29.9733 51.08 30.08C51.0533 30.16 51.08 30.2 51.16 30.2ZM37.16 30.08C37.1067 30.0267 37.0667 30 37.04 30C36.96 30.08 36.8933 30.2267 36.84 30.44C36.8133 30.6267 36.7867 30.7467 36.76 30.8C36.84 30.7467 36.9067 30.6267 36.96 30.44C37.04 30.2533 37.1067 30.1333 37.16 30.08C37.2133 30.0267 37.2533 29.9733 37.28 29.92C37.1733 29.92 37.1333 29.9733 37.16 30.08ZM39.32 30.12L39.4 29.96C39.3467 29.96 39.3333 29.9467 39.36 29.92H39.24C39.24 29.9467 39.24 29.9867 39.24 30.04C39.2667 30.0667 39.2933 30.0933 39.32 30.12ZM51.72 30.2C51.7733 30.0933 51.76 30.0267 51.68 30C51.68 30.1333 51.6933 30.2 51.72 30.2ZM39.4 30.8C39.3733 30.6933 39.36 30.5733 39.36 30.44C39.3867 30.3067 39.3733 30.24 39.32 30.24C39.32 30.2667 39.32 30.32 39.32 30.4C39.32 30.4533 39.3067 30.5067 39.28 30.56C39.28 30.6133 39.28 30.6667 39.28 30.72C39.3067 30.7733 39.3467 30.8 39.4 30.8ZM47.28 30.36C47.36 30.36 47.4 30.32 47.4 30.24C47.2933 30.24 47.2533 30.28 47.28 30.36ZM47.32 30.56C47.32 30.5333 47.3333 30.5067 47.36 30.48L47.4 30.44H47.36C47.3333 30.4133 47.3067 30.4 47.28 30.4C47.28 30.48 47.2933 30.5333 47.32 30.56ZM50.92 30.92V30.8V30.92ZM36.56 31.28C36.64 31.28 36.68 31.24 36.68 31.16C36.7067 31.08 36.7333 31.04 36.76 31.04C36.6533 31.0133 36.5733 31.04 36.52 31.12C36.4933 31.1733 36.5067 31.2267 36.56 31.28ZM38.6 31.56C38.68 31.5333 38.7333 31.4533 38.76 31.32C38.8133 31.16 38.8 31.0667 38.72 31.04C38.6667 31.0667 38.64 31.1467 38.64 31.28C38.64 31.4133 38.6267 31.5067 38.6 31.56ZM50.92 31.44C50.92 31.2 50.8933 31.08 50.84 31.08C50.76 31.3467 50.7867 31.4667 50.92 31.44ZM36.32 31.76C36.4 31.76 36.4533 31.72 36.48 31.64C36.5333 31.5333 36.5333 31.4533 36.48 31.4C36.48 31.4533 36.4533 31.4933 36.4 31.52C36.3733 31.5467 36.3467 31.5867 36.32 31.64C36.32 31.6667 36.32 31.7067 36.32 31.76ZM51.36 31.52C51.36 31.5467 51.3733 31.56 51.4 31.56C51.4 31.5333 51.4133 31.5067 51.44 31.48C51.4667 31.4533 51.48 31.4267 51.48 31.4H51.36V31.52ZM50.76 31.8C50.8133 31.64 50.7867 31.56 50.68 31.56C50.68 31.72 50.7067 31.8 50.76 31.8ZM46.56 31.8C46.5067 31.8 46.48 31.8133 46.48 31.84C46.5067 31.8667 46.5333 31.8933 46.56 31.92C46.56 31.8933 46.5733 31.8667 46.6 31.84C46.6267 31.7867 46.64 31.7467 46.64 31.72C46.64 31.6667 46.6267 31.6267 46.6 31.6C46.5467 31.7067 46.5333 31.7733 46.56 31.8ZM38.6 31.84H38.52C38.52 31.9467 38.4933 32.08 38.44 32.24C38.4133 32.3733 38.44 32.4667 38.52 32.52C38.2533 33.1867 38.1467 33.8267 38.2 34.44C37.9067 35.3733 37.8133 36.0267 37.92 36.4C37.8133 36.4 37.7333 36.4933 37.68 36.68C37.6533 36.84 37.68 36.9333 37.76 36.96C37.76 36.9067 37.8 36.88 37.88 36.88C37.8 36.96 37.8 37.04 37.88 37.12C37.8 37.1733 37.7333 37.1733 37.68 37.12C37.68 37.2 37.6667 37.3067 37.64 37.44C37.6133 37.5733 37.6267 37.64 37.68 37.64C37.7067 37.64 37.7333 37.64 37.76 37.64C37.7867 37.6133 37.8267 37.6 37.88 37.6C37.88 37.4667 37.84 37.3733 37.76 37.32C37.8933 37.16 38.0533 36.4667 38.24 35.24C38.16 35.24 38.12 35.1733 38.12 35.04H38.24C38.2933 35.04 38.3333 35 38.36 34.92C38.3333 34.92 38.28 34.9333 38.2 34.96C38.1733 34.9867 38.16 34.9733 38.16 34.92C38.1867 34.8667 38.2 34.7867 38.2 34.68C38.28 34.7067 38.3467 34.6933 38.4 34.64C38.4 34.6133 38.36 34.5467 38.28 34.44C38.2267 34.3333 38.2533 34.2667 38.36 34.24C38.3067 34.2933 38.2933 34.3467 38.32 34.4C38.3733 34.4267 38.4133 34.4 38.44 34.32V34.04H38.36C38.6 33.6933 38.6267 33.4267 38.44 33.24C38.68 32.7067 38.7333 32.24 38.6 31.84C38.6267 31.84 38.6667 31.7733 38.72 31.64C38.64 31.6133 38.5867 31.6267 38.56 31.68C38.56 31.7333 38.5733 31.7867 38.6 31.84ZM36.24 32C36 32.1333 35.9467 32.3333 36.08 32.6C36.1867 32.2533 36.24 32.0533 36.24 32C36.2933 32.0267 36.32 31.9867 36.32 31.88C36.32 31.8267 36.3333 31.8 36.36 31.8C36.3067 31.7733 36.2667 31.7867 36.24 31.84C36.24 31.8667 36.24 31.92 36.24 32ZM50.6 32.24C50.68 32.2667 50.7333 32.2267 50.76 32.12C50.76 31.9867 50.72 31.92 50.64 31.92C50.6667 31.9467 50.6533 32 50.6 32.08C50.5467 32.1333 50.5467 32.1867 50.6 32.24ZM51.2 32C51.2 32.16 51.2533 32.24 51.36 32.24C51.36 32.2133 51.3733 32.1733 51.4 32.12C51.4267 32.04 51.4267 31.9733 51.4 31.92C51.3733 31.92 51.3333 31.9333 51.28 31.96C51.2533 31.9867 51.2267 32 51.2 32ZM46.4 32.32C46.4267 32.2667 46.4667 32.2267 46.52 32.2C46.6 32.1467 46.64 32.1067 46.64 32.08C46.5867 32.1067 46.5333 32.0933 46.48 32.04C46.4267 31.9867 46.3867 31.9867 46.36 32.04C46.3867 32.04 46.3867 32.08 46.36 32.16C46.36 32.24 46.3733 32.2933 46.4 32.32ZM50.4 33.24C50.4267 33.1867 50.4667 33.0667 50.52 32.88C50.5733 32.6933 50.6267 32.5733 50.68 32.52C50.5733 32.52 50.5333 32.48 50.56 32.4C50.6133 32.32 50.6 32.28 50.52 32.28C50.52 32.3333 50.4933 32.4533 50.44 32.64C50.3867 32.8 50.3467 32.92 50.32 33C50.32 33.0533 50.3467 33.1333 50.4 33.24ZM46.36 32.48C46.3333 32.48 46.32 32.4667 46.32 32.44L46.28 32.36C46.2533 32.4133 46.28 32.4533 46.36 32.48ZM46.04 32.72C46.0667 32.6933 46.0933 32.6933 46.12 32.72C46.1467 32.7467 46.1733 32.76 46.2 32.76V32.64C46.2 32.6133 46.1867 32.6 46.16 32.6C46.16 32.6267 46.1333 32.6533 46.08 32.68C46.0533 32.68 46.04 32.6933 46.04 32.72ZM35.84 32.88C36.0533 32.88 36.1067 32.8267 36 32.72C35.9467 32.6933 35.8933 32.7467 35.84 32.88ZM39.68 32.96V32.76C39.6 32.7333 39.5467 32.7467 39.52 32.8C39.4933 32.9067 39.5467 32.96 39.68 32.96ZM46.08 33H46.16C46.1867 32.9733 46.1867 32.9467 46.16 32.92C46.1067 32.92 46.0667 32.9333 46.04 32.96C46.0667 32.96 46.08 32.9733 46.08 33ZM39.72 33.28C39.6933 33.28 39.68 33.2933 39.68 33.32H39.64L39.6 33.28C39.5467 33.3333 39.5333 33.4133 39.56 33.52C39.6133 33.5467 39.64 33.5067 39.64 33.4C39.64 33.3467 39.6533 33.32 39.68 33.32C39.7067 33.32 39.72 33.3067 39.72 33.28H39.8C39.7733 33.2533 39.7733 33.2 39.8 33.12C39.8267 33.04 39.8267 33 39.8 33C39.7467 33.0267 39.72 33.12 39.72 33.28ZM45.72 33.08C45.72 33.1067 45.7067 33.1467 45.68 33.2C45.6533 33.2533 45.6667 33.28 45.72 33.28C45.72 33.2267 45.84 33.2 46.08 33.2C46.08 33.12 46.0533 33.08 46 33.08C45.9733 33.0533 45.9333 33.0667 45.88 33.12C45.8267 33.1467 45.7733 33.1333 45.72 33.08ZM35.84 33.12H35.8C35.64 33.28 35.64 33.36 35.8 33.36C35.8 33.3333 35.8133 33.3067 35.84 33.28C35.8667 33.2267 35.8667 33.1733 35.84 33.12ZM50.96 33.2H51.08V33.08H50.96V33.2ZM50.92 33.36V33.24V33.36ZM44.84 33.44V33.28C44.76 33.36 44.76 33.4133 44.84 33.44ZM50.2 33.68C50.2 33.5733 50.2533 33.5733 50.36 33.68C50.36 33.4933 50.3333 33.36 50.28 33.28C50.28 33.3333 50.2667 33.3867 50.24 33.44C50.2133 33.4933 50.1867 33.5467 50.16 33.6C50.16 33.6267 50.1733 33.6533 50.2 33.68ZM45.8 33.52C45.96 33.44 46.04 33.3733 46.04 33.32C45.88 33.3733 45.8 33.44 45.8 33.52ZM35.6 33.48C35.6267 33.48 35.6533 33.4933 35.68 33.52C35.7067 33.52 35.7333 33.52 35.76 33.52C35.76 33.44 35.72 33.3867 35.64 33.36C35.64 33.3867 35.6267 33.4133 35.6 33.44V33.48ZM38.88 34C38.9333 33.9733 38.9867 33.9067 39.04 33.8C39.0933 33.6667 39.1333 33.5867 39.16 33.56C39.1067 33.5867 39.08 33.5733 39.08 33.52C39.0533 33.4667 39.0267 33.44 39 33.44C38.92 33.6267 38.88 33.8133 38.88 34ZM45.48 33.6C45.5067 33.6 45.5333 33.6133 45.56 33.64C45.56 33.6933 45.5733 33.72 45.6 33.72C45.6 33.6933 45.6133 33.6667 45.64 33.64C45.72 33.56 45.72 33.5067 45.64 33.48C45.6667 33.5333 45.6533 33.56 45.6 33.56C45.52 33.56 45.48 33.5733 45.48 33.6ZM35.64 33.72V33.56V33.72ZM39.64 33.8C39.64 33.7733 39.6533 33.76 39.68 33.76C39.7067 33.7333 39.7333 33.7067 39.76 33.68C39.84 33.6267 39.8267 33.5867 39.72 33.56C39.72 33.5867 39.6933 33.6133 39.64 33.64C39.56 33.72 39.56 33.7733 39.64 33.8ZM35.52 34C35.3867 34.0267 35.32 34.1333 35.32 34.32C35.4 34.32 35.44 34.3067 35.44 34.28C35.4667 34.2533 35.4667 34.2133 35.44 34.16C35.44 34.1067 35.4667 34.0533 35.52 34H35.6C35.6 33.92 35.5733 33.8533 35.52 33.8V34ZM50.24 33.96H50.36C50.36 33.9067 50.3733 33.8667 50.4 33.84C50.3733 33.84 50.3467 33.84 50.32 33.84C50.2933 33.8133 50.2667 33.8 50.24 33.8V33.96ZM34.92 34.04H35.04V33.96H34.92V34.04ZM45.48 34.04C45.4267 34.04 45.4 34.0533 45.4 34.08C45.4533 34.08 45.48 34.0667 45.48 34.04ZM38.84 34.72C38.8667 34.6667 38.88 34.6 38.88 34.52C38.9067 34.44 38.92 34.3733 38.92 34.32C38.9467 34.24 38.9733 34.1867 39 34.16C38.9467 34.1067 38.8933 34.08 38.84 34.08C38.8667 34.1867 38.8533 34.3067 38.8 34.44C38.7733 34.5733 38.7867 34.6667 38.84 34.72ZM49.96 34.88C50.0667 34.8267 50.12 34.72 50.12 34.56C50.1467 34.4 50.2 34.2933 50.28 34.24C50.2267 34.2667 50.2 34.24 50.2 34.16C50.1467 34.1067 50.12 34.08 50.12 34.08C50.12 34.16 50.08 34.28 50 34.44C49.9467 34.6 49.9333 34.7467 49.96 34.88ZM50.44 34.24C50.3333 34.2667 50.32 34.3467 50.4 34.48C50.4533 34.5333 50.4933 34.52 50.52 34.44C50.4667 34.4133 50.44 34.3467 50.44 34.24H50.48L50.52 34.2V34.08C50.4667 34.08 50.44 34.1333 50.44 34.24ZM50.68 34.44C50.6533 34.36 50.6667 34.3067 50.72 34.28C50.8 34.2533 50.84 34.2133 50.84 34.16C50.7867 34.16 50.7333 34.1333 50.68 34.08V34.44ZM39.2 34.16C39.1467 34.16 39.12 34.1733 39.12 34.2H39.16C39.1867 34.2 39.2 34.1867 39.2 34.16ZM45.32 34.48V34.52C45.4 34.52 45.44 34.4933 45.44 34.44C45.4133 34.4133 45.3867 34.4133 45.36 34.44L45.32 34.48C45.2933 34.4 45.3067 34.3467 45.36 34.32C45.4133 34.2933 45.44 34.2533 45.44 34.2C45.3867 34.1733 45.3067 34.1867 45.2 34.24C45.2 34.4 45.24 34.48 45.32 34.48ZM39.36 34.48H39.6V34.4C39.5733 34.32 39.5067 34.32 39.4 34.4C39.3733 34.4267 39.36 34.4533 39.36 34.48ZM35.24 34.72C35.2933 34.72 35.3333 34.68 35.36 34.6C35.3867 34.52 35.3733 34.4667 35.32 34.44C35.24 34.5733 35.2133 34.6667 35.24 34.72ZM50.52 34.96H50.76C50.7333 34.9333 50.7067 34.88 50.68 34.8C50.6533 34.72 50.6267 34.6667 50.6 34.64C50.5733 34.6133 50.5333 34.6133 50.48 34.64C50.5067 34.6667 50.52 34.7733 50.52 34.96ZM39.24 34.68C39.24 34.84 39.28 34.92 39.36 34.92C39.3333 34.84 39.3333 34.7867 39.36 34.76C39.3867 34.7333 39.4133 34.72 39.44 34.72C39.52 34.7467 39.56 34.72 39.56 34.64C39.5067 34.6133 39.4533 34.6133 39.4 34.64C39.3467 34.6667 39.2933 34.68 39.24 34.68ZM39.12 34.88C39.12 34.8267 39.1333 34.8 39.16 34.8C39.16 34.7467 39.1333 34.72 39.08 34.72C39.08 34.8 39.0933 34.8533 39.12 34.88ZM35.16 35.12C35.1333 35.04 35.16 34.9733 35.24 34.92C35.2667 34.8667 35.2667 34.8267 35.24 34.8C35.16 34.9867 35.1333 35.0933 35.16 35.12ZM44.04 35.04C44.12 35.0667 44.16 35.04 44.16 34.96C44.16 34.8533 44.1467 34.8 44.12 34.8C44.12 34.8267 44.1067 34.8667 44.08 34.92C44.0267 34.9467 44.0133 34.9867 44.04 35.04ZM38.84 34.88C38.76 34.88 38.72 34.8933 38.72 34.92H38.76C38.7867 34.92 38.8133 34.9067 38.84 34.88ZM39.4 34.96H39.48V34.88H39.4V34.96ZM44.88 35C44.9067 35 44.9333 35.0267 44.96 35.08C44.9867 35.1067 45.0267 35.1333 45.08 35.16C45.1067 35.1333 45.1067 35.0933 45.08 35.04C45.0533 34.9867 45.0667 34.9467 45.12 34.92C45.0933 34.92 45.0667 34.92 45.04 34.92L44.96 34.88C44.96 34.9067 44.9467 34.92 44.92 34.92L44.88 35ZM49.68 36.32C49.7067 36.32 49.7333 36.3067 49.76 36.28C49.8133 36.2267 49.8667 36.2133 49.92 36.24C49.9733 36.2667 49.9733 36.3067 49.92 36.36C49.8667 36.4133 49.88 36.44 49.96 36.44C49.96 36.4133 49.9867 36.3867 50.04 36.36C50.0933 36.3067 50.1333 36.2533 50.16 36.2H49.88C49.88 36.12 49.8533 36.0533 49.8 36C49.7467 35.92 49.72 35.84 49.72 35.76C49.8267 35.76 49.8933 35.72 49.92 35.64C49.9467 35.56 49.96 35.4533 49.96 35.32C49.96 35.16 49.9733 35.0533 50 35H49.88C49.88 35.08 49.8267 35.2667 49.72 35.56C49.64 35.8533 49.6267 36.1067 49.68 36.32ZM39.2 35.12V35.2C39.2533 35.2267 39.28 35.2133 39.28 35.16C39.3067 35.08 39.2933 35.04 39.24 35.04C39.24 35.0933 39.2267 35.12 39.2 35.12ZM50.52 35.16C50.4667 35.16 50.44 35.1733 50.44 35.2C50.4933 35.2 50.52 35.1867 50.52 35.16ZM38.6 35.36C38.6267 35.36 38.6267 35.4 38.6 35.48C38.5733 35.56 38.6 35.6 38.68 35.6C38.68 35.5467 38.7067 35.52 38.76 35.52V35.24C38.6533 35.24 38.6 35.28 38.6 35.36ZM44.76 35.48C44.92 35.4533 45 35.4133 45 35.36C44.9467 35.36 44.8933 35.3333 44.84 35.28C44.7867 35.3867 44.76 35.4533 44.76 35.48ZM50.4 35.36V35.44H50.48C50.5067 35.36 50.4933 35.3067 50.44 35.28C50.44 35.3333 50.4267 35.36 50.4 35.36ZM34.64 36.64C34.6667 36.5333 34.72 36.4 34.8 36.24C34.88 36.0533 34.9467 35.8933 35 35.76C35.0533 35.6267 35.0533 35.5067 35 35.4C34.9733 35.5333 34.8933 35.7333 34.76 36C34.6533 36.24 34.6133 36.4533 34.64 36.64ZM38.52 35.84C38.52 35.8667 38.5067 35.92 38.48 36C38.4267 36.1067 38.44 36.1867 38.52 36.24C38.52 36.2667 38.48 36.2933 38.4 36.32C38.3467 36.3467 38.3333 36.3867 38.36 36.44C38.4133 36.4933 38.4667 36.5067 38.52 36.48C38.5733 36.1333 38.6533 35.92 38.76 35.84C38.8133 35.8133 38.8667 35.8267 38.92 35.88C39 35.9067 39.0533 35.8933 39.08 35.84C39.0533 35.76 38.8667 35.76 38.52 35.84ZM44.64 36.08H44.72V35.96H44.64V36.08ZM50.28 36L50.2 36.08L50.28 36ZM44.36 36.44C44.4133 36.44 44.4533 36.3867 44.48 36.28C44.5333 36.1733 44.5333 36.1067 44.48 36.08L44.4 36.2C44.3733 36.3067 44.36 36.3867 44.36 36.44ZM42.56 39.2C42.5333 39.2267 42.4933 39.28 42.44 39.36C42.3867 39.4133 42.3333 39.4667 42.28 39.52C42.2533 39.5733 42.24 39.6267 42.24 39.68C42.2667 39.7333 42.3067 39.7867 42.36 39.84C42.3867 39.76 42.4933 39.64 42.68 39.48C42.5733 39.3467 42.5733 39.2 42.68 39.04C42.7867 38.8533 42.88 38.76 42.96 38.76C43.0133 38.7067 43 38.68 42.92 38.68C42.8933 38.68 42.8667 38.68 42.84 38.68C42.84 38.68 42.84 38.6667 42.84 38.64C42.8667 38.6133 42.9067 38.5867 42.96 38.56C43.0133 38.5067 43.04 38.4667 43.04 38.44C43.04 38.4133 43.0267 38.36 43 38.28C43.1333 38.1733 43.28 37.8933 43.44 37.44C43.6267 36.9867 43.7733 36.6933 43.88 36.56C43.8267 36.5333 43.8 36.5067 43.8 36.48C43.8 36.4267 43.8133 36.3733 43.84 36.32C43.8667 36.2667 43.88 36.2133 43.88 36.16C43.8533 36.16 43.8267 36.1467 43.8 36.12C43.7733 36.0933 43.7467 36.0933 43.72 36.12C43.64 36.4667 43.44 36.96 43.12 37.6C42.8267 38.24 42.64 38.7733 42.56 39.2ZM39 36.2C39 36.3067 39.04 36.3467 39.12 36.32C39.2267 36.2933 39.2933 36.3067 39.32 36.36V36.16C39.2667 36.1333 39.2 36.1333 39.12 36.16C39.0667 36.1867 39.0267 36.2 39 36.2ZM38.88 36.24L38.8 36.28C38.7733 36.28 38.76 36.2933 38.76 36.32L38.8 36.28C38.8533 36.28 38.88 36.2667 38.88 36.24ZM49.24 38.48H49.28C49.4933 37.52 49.64 36.8133 49.72 36.36H49.56C49.3733 37.3467 49.28 37.92 49.28 38.08C49.0133 38.6933 48.8933 39.3333 48.92 40C48.7067 40.2133 48.6667 40.4267 48.8 40.64C48.8533 40.6133 48.88 40.56 48.88 40.48C48.9067 40.3733 48.96 40.32 49.04 40.32C48.8533 40.08 48.9067 39.9067 49.2 39.8C49.12 39.7733 49.1067 39.68 49.16 39.52C49.0533 39.52 49 39.4933 49 39.44C49.0533 39.3067 49.0933 39.1333 49.12 38.92C49.1733 38.7067 49.2133 38.56 49.24 38.48ZM44.6 36.44C44.5733 36.4133 44.5467 36.4 44.52 36.4C44.4933 36.4 44.48 36.4133 44.48 36.44H44.6ZM38.24 37.84L38.2 37.88H38.16C38.1333 37.9333 38.12 37.9867 38.12 38.04C38.12 38.0667 38.12 38.1067 38.12 38.16C38.2 38.16 38.3067 38.0533 38.44 37.84C38.44 37.8133 38.4133 37.7867 38.36 37.76C38.3067 37.7333 38.28 37.7067 38.28 37.68C38.3067 37.5733 38.4133 37.3067 38.6 36.88C38.5467 36.8533 38.5067 36.8667 38.48 36.92C38.48 36.9467 38.4667 36.96 38.44 36.96C38.4133 36.88 38.4267 36.8133 38.48 36.76C38.5333 36.68 38.5467 36.6133 38.52 36.56C38.44 36.56 38.3733 36.6533 38.32 36.84C38.2933 37.0267 38.2533 37.1467 38.2 37.2C38.28 37.2267 38.2933 37.32 38.24 37.48C38.1867 37.64 38.1867 37.76 38.24 37.84ZM49.76 37.08C49.8933 37.0267 49.9467 36.9333 49.92 36.8C49.92 36.7467 49.88 36.72 49.8 36.72C49.8267 36.8 49.8267 36.8667 49.8 36.92C49.7733 36.9733 49.76 37.0267 49.76 37.08ZM34.52 36.88H34.6V36.8H34.52V36.88ZM50.16 36.84C50.1333 36.84 50.0933 36.84 50.04 36.84H50.16ZM34.44 37.12H34.56C34.56 37.0933 34.56 37.08 34.56 37.08C34.5867 37.08 34.6 37.0667 34.6 37.04C34.5733 37.04 34.5467 37.0267 34.52 37C34.4933 36.9733 34.4667 36.96 34.44 36.96V37.12ZM44.44 37.16H44.4L44.36 37.2V37.32C44.4133 37.32 44.44 37.2667 44.44 37.16ZM49.76 37.4C49.8133 37.3733 49.8267 37.32 49.8 37.24C49.8 37.16 49.7733 37.12 49.72 37.12C49.6667 37.28 49.68 37.3733 49.76 37.4ZM34.4 37.56C34.4 37.5333 34.4133 37.48 34.44 37.4C34.4667 37.3467 34.4533 37.3067 34.4 37.28C34.32 37.44 34.32 37.5333 34.4 37.56ZM43.92 37.4V37.52C43.9733 37.5467 44 37.52 44 37.44L43.96 37.36C43.96 37.3867 43.9467 37.4 43.92 37.4ZM38.64 37.6V37.44V37.6ZM49.68 37.84C49.7067 37.8133 49.7067 37.76 49.68 37.68C49.68 37.5733 49.6933 37.4933 49.72 37.44C49.64 37.44 49.5867 37.48 49.56 37.56C49.56 37.6133 49.5733 37.68 49.6 37.76C49.6267 37.8133 49.6533 37.84 49.68 37.84ZM34.2 37.92C34.3067 37.92 34.3733 37.8533 34.4 37.72C34.4 37.64 34.3733 37.6 34.32 37.6C34.2933 37.6267 34.2667 37.68 34.24 37.76C34.24 37.84 34.2267 37.8933 34.2 37.92ZM37.48 38.16C37.5067 38.2133 37.5333 38.2267 37.56 38.2C37.6133 38.1733 37.64 38.1867 37.64 38.24C37.6133 38.2933 37.5733 38.32 37.52 38.32C37.4933 38.2933 37.4667 38.2933 37.44 38.32C37.4667 38.4 37.4667 38.4933 37.44 38.6C37.4133 38.7067 37.4 38.7867 37.4 38.84C37.4 38.8933 37.4267 38.9333 37.48 38.96C37.2667 39.9467 37.2133 40.7733 37.32 41.44C37.32 41.4667 37.2933 41.48 37.24 41.48C37.1867 41.48 37.16 41.4933 37.16 41.52C37.16 41.5467 37.1867 41.5733 37.24 41.6C37.2933 41.6 37.32 41.6133 37.32 41.64C37.32 41.72 37.3467 41.76 37.4 41.76C37.4533 41.6533 37.4267 41.32 37.32 40.76C37.3467 40.7867 37.4 40.7733 37.48 40.72C37.48 40.64 37.4533 40.56 37.4 40.48C37.3733 40.4 37.3467 40.3467 37.32 40.32C37.32 40.2667 37.3467 40.2133 37.4 40.16C37.4267 40.16 37.44 40.1867 37.44 40.24C37.44 40.2667 37.44 40.2933 37.44 40.32C37.4667 40.32 37.4933 40.32 37.52 40.32C37.52 40.2667 37.52 40.1467 37.52 39.96C37.52 39.7467 37.5333 39.6133 37.56 39.56C37.48 39.56 37.44 39.5467 37.44 39.52C37.52 39.4933 37.5333 39.4533 37.48 39.4C37.4533 39.3467 37.44 39.3067 37.44 39.28C37.52 39.28 37.5867 39.2667 37.64 39.24C37.64 39.0533 37.6533 38.8133 37.68 38.52C37.7333 38.2 37.7467 37.96 37.72 37.8C37.6933 37.8 37.6533 37.8 37.6 37.8L37.56 37.76C37.5333 37.7867 37.52 37.8533 37.52 37.96C37.52 38.04 37.5067 38.1067 37.48 38.16ZM49.8 37.8V37.88C49.8267 37.9067 49.8533 37.9067 49.88 37.88V37.76C49.8533 37.76 49.84 37.7733 49.84 37.8C49.84 37.8 49.8267 37.8 49.8 37.8ZM49.64 38.08C49.64 38.0533 49.6533 38.04 49.68 38.04C49.68 37.96 49.64 37.92 49.56 37.92C49.56 38.0267 49.5867 38.08 49.64 38.08ZM38.76 38.24H38.92C38.92 38.2667 38.9067 38.3067 38.88 38.36C38.8533 38.3867 38.8667 38.4 38.92 38.4C38.9733 38.3467 38.9867 38.2667 38.96 38.16C38.9333 38.0533 38.8667 38 38.76 38V38.24ZM43.72 38.28C43.7733 38.28 43.8267 38.2 43.88 38.04C43.8533 38.04 43.8267 38.0267 43.8 38C43.7733 37.9733 43.7467 37.9733 43.72 38C43.72 38.0267 43.7067 38.08 43.68 38.16C43.6533 38.2133 43.6667 38.2533 43.72 38.28ZM33.36 38.16H33.44V38.08H33.36V38.16ZM34.2 38.12C34.1467 38.12 34.12 38.1333 34.12 38.16C34.1733 38.16 34.2 38.1467 34.2 38.12ZM49.56 38.28C49.5333 38.28 49.52 38.2533 49.52 38.2C49.52 38.1467 49.5067 38.12 49.48 38.12C49.4267 38.2267 49.4533 38.28 49.56 38.28ZM49.76 38.52V38.16V38.52ZM37.8 40.88C37.8 40.64 37.7733 40.5333 37.72 40.56C37.7467 40.5867 37.7467 40.6533 37.72 40.76C37.6933 40.84 37.72 40.88 37.8 40.88C37.8533 40.9333 37.88 40.9733 37.88 41H37.84C37.7867 40.9733 37.7467 40.96 37.72 40.96C37.6133 41.5733 37.6 41.96 37.68 42.12C37.5733 42.1733 37.52 42.2667 37.52 42.4C37.5467 42.5333 37.6 42.6267 37.68 42.68C37.7067 42.5733 37.7467 42.56 37.8 42.64C37.8267 42.5067 37.8133 42.2667 37.76 41.92L37.8 41.96C37.8267 41.9867 37.8533 42 37.88 42C37.9067 41.8933 37.92 41.7333 37.92 41.52C37.92 41.3067 37.92 41.12 37.92 40.96C37.9467 40.8 38.0133 40.6933 38.12 40.64C37.9867 40.5333 37.96 40.2933 38.04 39.92C38.1467 39.52 38.1867 39.2267 38.16 39.04C38.1867 38.9867 38.24 38.9467 38.32 38.92C38.4267 38.8667 38.4667 38.8 38.44 38.72C38.3867 38.7733 38.3333 38.8 38.28 38.8C38.28 38.7733 38.2667 38.76 38.24 38.76C38.24 38.76 38.24 38.7467 38.24 38.72C38.2933 38.4267 38.2267 38.2667 38.04 38.24C37.9867 38.48 37.9467 38.6133 37.92 38.64C37.9467 38.6933 37.96 38.7467 37.96 38.8C37.96 38.8533 37.96 38.8933 37.96 38.92C37.96 38.9467 37.96 38.9867 37.96 39.04C37.9867 39.0667 38.0133 39.0933 38.04 39.12C37.9067 39.1733 37.8267 39.3333 37.8 39.6C37.8 39.84 37.8533 39.9867 37.96 40.04C37.6933 40.2 37.6267 40.36 37.76 40.52C37.7867 40.4667 37.84 40.48 37.92 40.56C37.8933 40.6133 37.88 40.6667 37.88 40.72C37.9067 40.7467 37.9067 40.7867 37.88 40.84C37.88 40.8667 37.8533 40.88 37.8 40.88ZM34.08 38.6C34.1067 38.6 34.12 38.5733 34.12 38.52C34.12 38.4667 34.1333 38.4267 34.16 38.4C34.1067 38.3733 34.08 38.44 34.08 38.6ZM43.76 38.64C43.76 38.56 43.7333 38.52 43.68 38.52C43.6267 38.5733 43.6133 38.6133 43.64 38.64C43.6667 38.64 43.7067 38.64 43.76 38.64ZM38.72 39.08C38.56 39.08 38.52 39.2133 38.6 39.48C38.5467 39.48 38.5333 39.5067 38.56 39.56L38.64 39.68L38.68 39.6C38.6 39.6 38.5733 39.56 38.6 39.48H38.68C38.7067 39.4267 38.72 39.2933 38.72 39.08C38.8 39.0267 38.8267 38.96 38.8 38.88C38.8 38.7733 38.8267 38.6933 38.88 38.64C38.8533 38.64 38.8 38.64 38.72 38.64C38.6667 38.64 38.6267 38.6267 38.6 38.6C38.6 38.68 38.6267 38.76 38.68 38.84C38.7333 38.8933 38.7467 38.9733 38.72 39.08ZM49.8 38.8C49.8533 38.8267 49.8933 38.8133 49.92 38.76C49.9733 38.7067 49.9733 38.6667 49.92 38.64C49.92 38.6667 49.8933 38.6933 49.84 38.72C49.8133 38.72 49.8 38.7467 49.8 38.8ZM43.52 39C43.6 38.8667 43.6 38.7867 43.52 38.76C43.5467 38.8133 43.5333 38.8667 43.48 38.92C43.4533 38.9733 43.4667 39 43.52 39ZM33.92 39.2C33.8667 39.1733 33.84 39.2 33.84 39.28C33.84 39.3867 33.8267 39.44 33.8 39.44C33.88 39.44 33.92 39.36 33.92 39.2H33.96C33.96 39.1467 33.9733 39.08 34 39C34.0533 38.92 34.04 38.88 33.96 38.88C33.9333 38.9333 33.92 39.04 33.92 39.2ZM49.52 39.32C49.6 39.32 49.64 39.3067 49.64 39.28C49.6667 39.2267 49.68 39.1733 49.68 39.12C49.68 39.04 49.7067 38.9867 49.76 38.96C49.7333 38.9333 49.72 38.9067 49.72 38.88H49.64C49.6133 38.96 49.6 39.04 49.6 39.12C49.6 39.2 49.5733 39.2667 49.52 39.32ZM38.24 39.72C38.2933 39.72 38.3333 39.6933 38.36 39.64C38.36 39.48 38.32 39.3867 38.24 39.36V39.72ZM49.24 39.76C49.32 39.5733 49.3067 39.44 49.2 39.36C49.2 39.3867 49.1867 39.4667 49.16 39.6C49.16 39.7067 49.1867 39.76 49.24 39.76ZM49.48 39.36C49.4533 39.36 49.4267 39.3733 49.4 39.4C49.3733 39.4 49.3467 39.4133 49.32 39.44C49.3467 39.44 49.3733 39.4267 49.4 39.4C49.4533 39.4 49.48 39.3867 49.48 39.36ZM33.8 39.68C33.8 39.6267 33.8133 39.6 33.84 39.6C33.84 39.5467 33.8 39.52 33.72 39.52C33.72 39.6 33.7467 39.6533 33.8 39.68ZM42.92 39.84C42.92 39.8667 42.9067 39.9067 42.88 39.96C42.8267 39.9867 42.8133 40.0267 42.84 40.08C42.9733 40.1333 43.0533 40.1067 43.08 40C43.0267 39.9467 43 39.8933 43 39.84C43 39.8133 43.0267 39.8133 43.08 39.84C43.16 39.84 43.2267 39.84 43.28 39.84V39.72C43.2533 39.72 43.2133 39.72 43.16 39.72C43.1067 39.72 43.0533 39.72 43 39.72C42.9467 39.6933 42.8933 39.6933 42.84 39.72C42.8133 39.72 42.8 39.76 42.8 39.84H42.92ZM33.6 39.84V39.96H33.68C33.68 39.9067 33.6933 39.8933 33.72 39.92V39.8H33.64C33.64 39.8533 33.6267 39.8667 33.6 39.84ZM42.24 40.16L42.32 40.24C42.2667 40.2933 42.2667 40.32 42.32 40.32C42.32 40.2933 42.3333 40.2667 42.36 40.24C42.4133 40.2133 42.44 40.1867 42.44 40.16C42.4667 40.1067 42.48 40.0533 42.48 40C42.4533 39.9733 42.4133 39.9733 42.36 40C42.3333 40 42.3067 39.9733 42.28 39.92C42.28 39.9467 42.2533 39.9867 42.2 40.04C42.1733 40.0933 42.1867 40.1333 42.24 40.16ZM38.4 40.52C38.48 40.52 38.52 40.4667 38.52 40.36C38.52 40.2533 38.5467 40.16 38.6 40.08C38.52 40.1067 38.4667 40.1467 38.44 40.2C38.4133 40.2533 38.4 40.32 38.4 40.4C38.4 40.4533 38.4 40.4933 38.4 40.52ZM42 40.64C42.0267 40.64 42.0533 40.6533 42.08 40.68C42.1333 40.7067 42.1867 40.72 42.24 40.72C42.2933 40.5867 42.32 40.4933 42.32 40.44C42.2667 40.4667 42.2267 40.4533 42.2 40.4C42.1733 40.3467 42.1467 40.32 42.12 40.32C42.0933 40.3733 42.0667 40.44 42.04 40.52C42.0133 40.5733 42 40.6133 42 40.64ZM38.48 40.68C38.4267 40.68 38.4 40.6933 38.4 40.72C38.4533 40.72 38.48 40.7067 38.48 40.68ZM48.96 41.72C48.9067 41.6933 48.84 41.6933 48.76 41.72C48.7067 41.72 48.68 41.7067 48.68 41.68C48.7067 41.5733 48.7333 41.4533 48.76 41.32C48.7867 41.16 48.8133 41.0267 48.84 40.92L48.72 40.68C48.6933 40.8133 48.64 41.0667 48.56 41.44C48.48 41.7867 48.4267 42.0533 48.4 42.24C48.3733 42.4267 48.3867 42.6933 48.44 43.04C48.5467 42.88 48.5733 42.6133 48.52 42.24C48.6 42.32 48.6533 42.36 48.68 42.36C48.7067 42.28 48.6933 42.2133 48.64 42.16C48.5867 42.08 48.56 42.0133 48.56 41.96C48.6133 41.9867 48.64 41.9733 48.64 41.92C48.6667 41.8667 48.6933 41.84 48.72 41.84C48.7467 41.84 48.8133 41.8667 48.92 41.92C48.8933 41.8667 48.9067 41.8 48.96 41.72ZM41.88 41.2C41.8533 41.1467 41.8667 41.1067 41.92 41.08C42 41.0533 42.04 41.0267 42.04 41C41.9867 41.0267 41.96 41 41.96 40.92C42.0933 40.92 42.1467 40.8667 42.12 40.76C42.0933 40.76 42.0667 40.76 42.04 40.76L42 40.72C41.9733 40.7733 41.8533 41.08 41.64 41.64C41.7733 41.5867 41.8533 41.5333 41.88 41.48C41.8267 41.5067 41.8 41.48 41.8 41.4H41.96C41.96 41.3733 41.9467 41.3333 41.92 41.28C41.92 41.2267 41.9067 41.2 41.88 41.2ZM42.72 40.92C42.6933 40.9733 42.6933 41.0133 42.72 41.04C42.7467 41.0667 42.7733 41.0667 42.8 41.04C42.8533 41.0133 42.8933 41 42.92 41C42.92 40.8933 42.8667 40.8533 42.76 40.88L42.72 40.92ZM43.4 40.88C43.32 40.88 43.28 40.8933 43.28 40.92H43.32C43.3467 40.92 43.3733 40.9067 43.4 40.88ZM49.04 41.04C49.04 41.0133 49.0267 41 49 41C48.9733 41 48.96 41.0133 48.96 41.04H49.04ZM38.12 41.4C38.12 41.3467 38.1333 41.28 38.16 41.2C38.2133 41.0933 38.2 41.04 38.12 41.04C38.0667 41.0667 38.04 41.1333 38.04 41.24C38.04 41.32 38.0667 41.3733 38.12 41.4ZM38.6 41.24C38.6 41.1067 38.6 41.04 38.6 41.04C38.5733 41.04 38.5467 41.04 38.52 41.04C38.52 41.0667 38.5333 41.1067 38.56 41.16C38.56 41.2133 38.5733 41.24 38.6 41.24ZM49.2 41.28C49.2 41.3067 49.1867 41.36 49.16 41.44C49.1333 41.4933 49.12 41.5467 49.12 41.6C49.1467 41.6267 49.1867 41.64 49.24 41.64C49.4 41.5333 49.4533 41.3333 49.4 41.04C49.3733 41.0667 49.36 41.12 49.36 41.2C49.3333 41.3333 49.28 41.36 49.2 41.28ZM49.56 41.16C49.5333 41.16 49.5067 41.16 49.48 41.16H49.56ZM42.72 41.28C42.72 41.2533 42.7467 41.24 42.8 41.24H42.84V41.16C42.7867 41.16 42.7467 41.2 42.72 41.28ZM38.36 41.6L38.12 41.72C38.2 41.6933 38.28 41.7333 38.36 41.84V41.6C38.3867 41.5733 38.4 41.5067 38.4 41.4C38.4 41.2933 38.4133 41.2267 38.44 41.2C38.3067 41.2267 38.28 41.36 38.36 41.6ZM49 41.44C49 41.4133 49.0133 41.3867 49.04 41.36C49.0667 41.3333 49.0667 41.2933 49.04 41.24C48.9867 41.2133 48.9467 41.2267 48.92 41.28C48.8667 41.3867 48.8933 41.44 49 41.44ZM42.6 41.6C42.6 41.5733 42.6133 41.5333 42.64 41.48C42.6667 41.4533 42.6533 41.4267 42.6 41.4C42.52 41.5067 42.52 41.5733 42.6 41.6ZM41.36 42.4C41.44 42.4 41.48 42.4 41.48 42.4C41.5067 42.3733 41.52 42.3333 41.52 42.28C41.52 42.1733 41.56 42.12 41.64 42.12C41.6133 42.0667 41.6533 41.9333 41.76 41.72C41.6533 41.7467 41.5733 41.8 41.52 41.88C41.4933 41.9333 41.4667 42.0267 41.44 42.16C41.4133 42.2667 41.3867 42.3467 41.36 42.4ZM37.2 42.24H37.16C37.1867 42.32 37.2 42.4533 37.2 42.64C37.2 42.8 37.2 42.96 37.2 43.12H37.16C37.2133 43.2533 37.24 43.32 37.24 43.32C37.24 43.2933 37.2267 43.2667 37.2 43.24C37.1733 43.1867 37.1733 43.1467 37.2 43.12C37.4133 42.9867 37.4133 42.6933 37.2 42.24C37.2267 42.24 37.24 42.2133 37.24 42.16C37.24 42.1333 37.24 42.12 37.24 42.12C37.2667 42.0933 37.2933 42.08 37.32 42.08C37.32 42.16 37.36 42.2 37.44 42.2C37.44 41.9867 37.4 41.8667 37.32 41.84C37.2933 41.8667 37.24 41.9067 37.16 41.96C37.1333 42.0133 37.1333 42.0667 37.16 42.12C37.1867 42.1733 37.2 42.2133 37.2 42.24ZM48.76 42.48C48.76 42.4533 48.7733 42.4133 48.8 42.36C48.88 42.1467 48.8667 42.0267 48.76 42C48.7067 42.24 48.7067 42.4 48.76 42.48ZM38 42.12C37.9733 42.12 37.9467 42.12 37.92 42.12H38ZM49.08 42.24C49.08 42.2133 49.1067 42.2 49.16 42.2C49.1067 42.1467 49.0667 42.12 49.04 42.12C49.04 42.2 49.0533 42.24 49.08 42.24ZM49.04 42.48C49.04 42.4533 49.0533 42.44 49.08 42.44C49.08 42.36 49.0533 42.3333 49 42.36C49 42.44 49.0133 42.48 49.04 42.48ZM41.24 42.84C41.3467 42.84 41.4 42.76 41.4 42.6L41.36 42.56C41.3333 42.5333 41.3067 42.5333 41.28 42.56C41.28 42.5867 41.2667 42.6267 41.24 42.68C41.2133 42.7333 41.2133 42.7867 41.24 42.84ZM48.68 42.72H48.8C48.8 42.6667 48.76 42.64 48.68 42.64V42.72ZM37.92 42.72C37.8933 42.8 37.9067 42.8533 37.96 42.88C38.0133 42.88 38.0667 42.8533 38.12 42.8C38.0933 42.8 38.0667 42.7867 38.04 42.76L38 42.68C38 42.76 37.9733 42.7733 37.92 42.72ZM38.2 42.84C38.2267 42.8133 38.28 42.8 38.36 42.8C38.44 42.8 38.48 42.7733 38.48 42.72C38.4533 42.72 38.4133 42.7067 38.36 42.68C38.3333 42.6533 38.2933 42.6533 38.24 42.68C38.24 42.76 38.2267 42.8133 38.2 42.84ZM37.56 42.88C37.5867 42.9067 37.5733 42.9733 37.52 43.08C37.4667 43.1867 37.4667 43.2533 37.52 43.28C37.68 43.2533 37.8 43.1733 37.88 43.04C37.8533 43.0133 37.8267 42.9867 37.8 42.96C37.72 42.88 37.72 42.8267 37.8 42.8C37.64 42.7467 37.56 42.7733 37.56 42.88ZM38.28 43.16C38.28 43.1067 38.3067 43.08 38.36 43.08C38.4133 43.08 38.44 43.0667 38.44 43.04C38.4133 43.04 38.3867 43.0133 38.36 42.96C38.3333 42.9067 38.2933 42.8933 38.24 42.92C38.24 42.9467 38.24 42.9867 38.24 43.04C38.24 43.12 38.2533 43.16 38.28 43.16ZM48.76 43.04C48.7333 43.04 48.72 43.0267 48.72 43L48.68 42.92C48.6533 42.9733 48.68 43.0133 48.76 43.04ZM41.08 43.28C41.0533 43.2533 41.04 43.2667 41.04 43.32H41C40.9733 43.4533 40.9733 43.5467 41 43.6C40.92 43.6267 40.8533 43.6933 40.8 43.8C40.7467 43.9067 40.7333 43.9867 40.76 44.04C40.7867 43.9867 40.8267 43.92 40.88 43.84C40.9333 43.7333 40.9733 43.6533 41 43.6C41.0533 43.6 41.0667 43.56 41.04 43.48C41.04 43.4267 41.04 43.3733 41.04 43.32L41.08 43.28C41.1867 43.12 41.2 43.0133 41.12 42.96C41.12 43.0133 41.1067 43.0667 41.08 43.12C41.0533 43.1733 41.0533 43.2267 41.08 43.28ZM49.2 43.12C49.2 43.0933 49.2133 43.0667 49.24 43.04C49.2667 43.0133 49.28 42.9867 49.28 42.96C49.2267 42.9333 49.1867 42.9467 49.16 43C49.1333 43.0533 49.1467 43.0933 49.2 43.12ZM31.76 43.12C31.7867 43.2 31.7733 43.4 31.72 43.72C31.6667 44.04 31.6533 44.2667 31.68 44.4C31.7333 44.4 31.76 44.3467 31.76 44.24C31.76 44.1333 31.76 44.0533 31.76 44C31.76 43.9467 31.8133 43.9467 31.92 44C31.92 43.9467 31.8933 43.8933 31.84 43.84C31.8133 43.7867 31.8 43.72 31.8 43.64C31.8533 43.64 31.9067 43.6133 31.96 43.56C31.88 43.5333 31.8667 43.4533 31.92 43.32C31.9733 43.1867 31.9733 43.0933 31.92 43.04C31.92 43.0667 31.8933 43.08 31.84 43.08C31.7867 43.08 31.76 43.0933 31.76 43.12ZM48.48 43.2C48.48 43.2267 48.5067 43.2667 48.56 43.32V43.12C48.56 43.1733 48.5333 43.2 48.48 43.2V43.16C48.4533 43.16 48.4133 43.1467 48.36 43.12C48.3333 43.0933 48.2933 43.08 48.24 43.08C48.24 43.1333 48.2267 43.2 48.2 43.28C48.2 43.3333 48.1867 43.3733 48.16 43.4C48.16 43.4267 48.16 43.4667 48.16 43.52C48.1867 43.5467 48.2133 43.5733 48.24 43.6C48.08 44.1333 48.0267 44.52 48.08 44.76C48.2133 44.7067 48.2933 44.6533 48.32 44.6C48.1867 44.5733 48.1733 44.5467 48.28 44.52C48.3333 44.52 48.3867 44.52 48.44 44.52C48.4133 44.4667 48.3733 44.4133 48.32 44.36C48.2667 44.3067 48.24 44.2667 48.24 44.24C48.3733 44.2667 48.3867 44.16 48.28 43.92C48.3067 43.92 48.32 43.9067 48.32 43.88C48.3733 43.8267 48.4267 43.8133 48.48 43.84C48.48 43.7867 48.4533 43.68 48.4 43.52C48.3733 43.3333 48.4 43.2267 48.48 43.2ZM48.92 43.2C48.8933 43.28 48.92 43.32 49 43.32C49.0267 43.3467 49.0533 43.36 49.08 43.36V43.16C49 43.16 48.9467 43.1733 48.92 43.2ZM37.56 43.64C37.72 43.5867 37.8 43.52 37.8 43.44C37.7467 43.4667 37.7067 43.4667 37.68 43.44C37.6267 43.4133 37.5867 43.4 37.56 43.4V43.64ZM37.32 43.64C37.3467 43.5867 37.3067 43.52 37.2 43.44C37.2 43.4933 37.24 43.56 37.32 43.64ZM37.92 43.56C38.0267 43.56 38.0667 43.52 38.04 43.44H37.96C37.96 43.4667 37.9467 43.4933 37.92 43.52V43.56ZM48.6 43.6V43.44V43.6ZM37.24 44.08C37.2933 43.8133 37.28 43.6667 37.2 43.64C37.2 43.72 37.2 43.8133 37.2 43.92C37.2 44.0267 37.2133 44.08 37.24 44.08ZM37.56 43.76C37.56 43.8133 37.5467 43.8533 37.52 43.88C37.6267 43.9067 37.7067 43.88 37.76 43.8C37.7867 43.7467 37.7733 43.7067 37.72 43.68C37.72 43.7333 37.6667 43.76 37.56 43.76ZM48.76 44C48.8667 44 48.9067 43.9467 48.88 43.84C48.88 43.7867 48.84 43.7733 48.76 43.8V44ZM48.48 44.32C48.5333 44.32 48.5733 44.3067 48.6 44.28C48.6267 44.2267 48.64 44.16 48.64 44.08C48.64 44 48.6533 43.9467 48.68 43.92C48.6 43.9467 48.5467 44.0133 48.52 44.12C48.52 44.2267 48.5067 44.2933 48.48 44.32ZM48.8 44.48C48.8533 44.24 48.8533 44.0933 48.8 44.04C48.72 44.3067 48.72 44.4533 48.8 44.48ZM40.68 44.24C40.6267 44.24 40.6 44.2533 40.6 44.28C40.6267 44.28 40.64 44.28 40.64 44.28C40.6667 44.28 40.68 44.2667 40.68 44.24ZM37.2 44.36H37.28V44.28H37.2V44.36ZM37.76 44.52C37.7067 44.36 37.64 44.28 37.56 44.28C37.6667 44.4933 37.6933 44.56 37.64 44.48C37.6667 44.5067 37.7067 44.52 37.76 44.52ZM38.24 44.56C38.3467 44.5867 38.4 44.56 38.4 44.48C38.4533 44.3467 38.4133 44.28 38.28 44.28C38.28 44.3067 38.2667 44.3467 38.24 44.4C38.2133 44.4533 38.2133 44.5067 38.24 44.56ZM38 44.72C38 44.6667 38 44.6 38 44.52C38.0267 44.4667 38.0133 44.4267 37.96 44.4C37.96 44.5867 37.9733 44.6933 38 44.72ZM37.64 45.52C37.6667 45.52 37.6933 45.52 37.72 45.52C37.7467 45.4933 37.7733 45.48 37.8 45.48C37.8 45.0533 37.8267 44.8 37.88 44.72C37.8 44.72 37.7333 44.6933 37.68 44.64C37.68 44.7733 37.68 44.92 37.68 45.08C37.68 45.24 37.6667 45.3867 37.64 45.52ZM31.52 45.12C31.52 45.0933 31.5333 45.0533 31.56 45C31.6133 44.8933 31.6 44.8267 31.52 44.8C31.52 44.8267 31.5067 44.8667 31.48 44.92C31.4267 45.0267 31.44 45.0933 31.52 45.12ZM47.88 47.36H47.72V48.24C47.6133 48.24 47.56 48.2667 47.56 48.32C47.64 48.3733 47.6667 48.4933 47.64 48.68C47.64 48.84 47.6 48.9733 47.52 49.08C47.6533 49.1333 47.72 49.2133 47.72 49.32C47.6667 49.2667 47.6133 49.2533 47.56 49.28C47.56 49.3067 47.5733 49.3333 47.6 49.36C47.6533 49.4133 47.6667 49.4667 47.64 49.52C47.4267 49.8933 47.4 50.4667 47.56 51.24H47.6C47.7067 51.0533 47.7467 50.8 47.72 50.48C47.72 50.1867 47.7467 49.92 47.8 49.68C47.8267 49.68 47.8533 49.6533 47.88 49.6C47.9333 49.5733 47.9867 49.5733 48.04 49.6C48.0133 49.5733 48.0133 49.5333 48.04 49.48C48.0667 49.4267 48.08 49.3867 48.08 49.36C48.0267 49.3333 47.9867 49.3333 47.96 49.36C47.96 49.3867 47.96 49.4133 47.96 49.44C47.9333 49.52 47.8933 49.56 47.84 49.56L47.72 49.32H47.8C47.8 48.8133 47.8533 48.52 47.96 48.44C47.9067 48.4133 47.84 48.4 47.76 48.4C47.7867 48.3467 47.8133 48.2533 47.84 48.12C47.8933 47.9867 47.9467 47.8933 48 47.84C48 47.7867 47.9733 47.7467 47.92 47.72C47.8667 47.6667 47.8533 47.6 47.88 47.52C47.96 47.44 48.0267 47.4 48.08 47.4C48.08 47.5867 48.0667 47.6933 48.04 47.72C48.0667 47.7467 48.1333 47.76 48.24 47.76C48.32 47.5733 48.2267 47.3867 47.96 47.2C48.0667 46.5333 48.08 46.16 48 46.08C48.0267 46.0533 48.0267 46 48 45.92C48 45.84 48.0133 45.8 48.04 45.8C48.12 45.8 48.1467 45.84 48.12 45.92C48.0933 45.9733 48.12 46 48.2 46C48.1733 45.8933 48.2 45.8267 48.28 45.8C48.3867 45.7467 48.4533 45.68 48.48 45.6C48.4267 45.5733 48.36 45.5867 48.28 45.64C48.2267 45.6667 48.1733 45.68 48.12 45.68C48.0933 45.6267 48.16 45.48 48.32 45.24C48.2933 45.2133 48.2533 45.1467 48.2 45.04C48.1733 44.9067 48.12 44.8267 48.04 44.8C48.04 44.96 48.0133 45.0267 47.96 45C47.9867 45.2933 47.96 45.6667 47.88 46.12C47.8 46.5733 47.76 46.9333 47.76 47.2C47.8667 47.2 47.9067 47.2533 47.88 47.36ZM38.24 45H38.44C38.44 44.8933 38.4267 44.84 38.4 44.84C38.4 44.8667 38.3733 44.88 38.32 44.88C38.2667 44.88 38.24 44.8933 38.24 44.92C38.24 44.92 38.24 44.9467 38.24 45ZM48.56 44.96C48.5333 44.96 48.5067 44.9467 48.48 44.92C48.4533 44.8933 48.4133 44.88 48.36 44.88C48.3867 44.9333 48.3867 44.9867 48.36 45.04C48.3333 45.0667 48.32 45.0933 48.32 45.12C48.3733 45.12 48.4267 45.0933 48.48 45.04C48.5067 44.9867 48.5333 44.96 48.56 44.96C48.5867 44.96 48.6133 44.9733 48.64 45C48.6667 45.0267 48.6933 45.04 48.72 45.04V44.84H48.6L48.56 44.88C48.56 44.9067 48.56 44.9333 48.56 44.96ZM48.56 45.2C48.56 45.2533 48.5867 45.2933 48.64 45.32C48.6933 45.32 48.72 45.3333 48.72 45.36L48.84 45.12C48.7867 45.0933 48.7467 45.1067 48.72 45.16C48.6667 45.1867 48.6133 45.2 48.56 45.2ZM31.52 45.32C31.52 45.24 31.4933 45.2 31.44 45.2C31.44 45.3067 31.4667 45.3467 31.52 45.32ZM38.24 45.36C38.24 45.44 38.2533 45.48 38.28 45.48C38.3067 45.4267 38.36 45.4267 38.44 45.48L38.48 45.52V45.44C38.48 45.3867 38.4667 45.36 38.44 45.36C38.3867 45.3867 38.3333 45.3733 38.28 45.32C38.28 45.3733 38.2667 45.3867 38.24 45.36ZM48.36 45.48C48.36 45.4267 48.3867 45.4133 48.44 45.44C48.4133 45.36 48.3733 45.32 48.32 45.32C48.32 45.4267 48.3333 45.48 48.36 45.48ZM31.4 45.8L31.44 45.68C31.44 45.6 31.4533 45.5467 31.48 45.52C31.3733 45.4933 31.3067 45.5467 31.28 45.68C31.28 45.7333 31.32 45.7733 31.4 45.8ZM37.76 46.08H37.92C37.92 45.9733 37.88 45.92 37.8 45.92C37.8267 46 37.8133 46.0533 37.76 46.08ZM31.24 46.16C31.2667 46.16 31.2933 46.16 31.32 46.16C31.32 46.08 31.2933 46.0267 31.24 46V46.16ZM37.92 46.24C37.84 46.24 37.8 46.2533 37.8 46.28C37.88 46.28 37.92 46.2667 37.92 46.24ZM48.12 47.12C48.2 47.0667 48.2533 47 48.28 46.92C48.3067 46.84 48.3067 46.76 48.28 46.68C48.28 46.5733 48.2933 46.4533 48.32 46.32H48.2C48.2 46.4 48.1867 46.5333 48.16 46.72C48.16 46.9067 48.1467 47.04 48.12 47.12ZM48.52 46.88C48.52 46.5867 48.5067 46.4267 48.48 46.4C48.48 46.6933 48.4933 46.8533 48.52 46.88ZM48.32 47.36C48.3467 47.3333 48.3733 47.3467 48.4 47.4C48.4267 47.5067 48.4133 47.5867 48.36 47.64C48.4133 47.6133 48.4533 47.5467 48.48 47.44C48.5333 47.3333 48.6 47.2667 48.68 47.24C48.6533 47.24 48.64 47.1867 48.64 47.08C48.6667 46.9733 48.64 46.92 48.56 46.92C48.5067 46.9733 48.4667 46.9733 48.44 46.92C48.4667 47.0267 48.4533 47.12 48.4 47.2C48.3467 47.2533 48.32 47.3067 48.32 47.36ZM48.76 47.96C48.76 47.88 48.7333 47.84 48.68 47.84C48.6533 47.92 48.68 47.96 48.76 47.96ZM48.2 48.24C48.1467 48.1867 48.1467 48.0667 48.2 47.88C48.1467 47.8533 48.1067 47.88 48.08 47.96C48.0533 48.12 48.0933 48.2133 48.2 48.24ZM48.56 48.12C48.5067 48.12 48.48 48.1333 48.48 48.16C48.5333 48.16 48.56 48.1467 48.56 48.12ZM48.36 48.48C48.3333 48.4267 48.3467 48.3867 48.4 48.36C48.48 48.3333 48.52 48.2933 48.52 48.24C48.3867 48.24 48.3067 48.2933 48.28 48.4L48.36 48.48ZM47.4 48.6C47.2133 48.6 47.1333 48.68 47.16 48.84C47.2133 48.8133 47.2533 48.8133 47.28 48.84C47.3067 48.8667 47.3333 48.88 47.36 48.88V48.96C47.3067 48.9867 47.24 48.9733 47.16 48.92C47.2133 49.08 47.2133 49.4 47.16 49.88C47.1067 50.3867 47.1467 50.76 47.28 51C47.2533 51 47.2267 50.9867 47.2 50.96C47.1733 50.9333 47.1467 50.9067 47.12 50.88C47.12 50.9867 47.12 51.0667 47.12 51.12C47.1467 51.1733 47.1733 51.2267 47.2 51.28C47.2533 51.3333 47.2933 51.3867 47.32 51.44C47.3467 51.28 47.3467 51.0667 47.32 50.8C47.32 50.5333 47.3467 50.36 47.4 50.28C47.2933 50.1733 47.2667 49.9333 47.32 49.56C47.4 49.2133 47.4133 48.9867 47.36 48.88C47.36 48.8533 47.3867 48.8133 47.44 48.76C47.4933 48.68 47.48 48.6267 47.4 48.6ZM47.96 49.08C47.9867 49.08 48 49.08 48 49.08C48 49.1067 48.0133 49.12 48.04 49.12C48.04 49.0133 48.0133 48.96 47.96 48.96V49.08ZM48.2 50C48.28 49.9467 48.32 49.84 48.32 49.68C48.32 49.52 48.2933 49.4267 48.24 49.4C48.2667 49.48 48.2667 49.5867 48.24 49.72C48.2133 49.8533 48.2 49.9467 48.2 50ZM48.36 49.44V49.56H48.48C48.5067 49.48 48.4933 49.4267 48.44 49.4C48.4133 49.4533 48.3867 49.4667 48.36 49.44ZM48 50.28C48 50.2533 48.0267 50.2267 48.08 50.2C48.1333 50.2 48.1467 50.1733 48.12 50.12C48.0933 50.12 48.0533 50.1067 48 50.08C47.9733 50.0533 47.9333 50.0533 47.88 50.08C47.88 50.16 47.92 50.2267 48 50.28ZM48.2 50.36V50.24C48.1467 50.2933 48.1467 50.3333 48.2 50.36ZM48.24 50.6V50.48V50.6ZM47.84 50.96C47.92 50.96 47.9733 50.8933 48 50.76C48.0267 50.6533 48.0133 50.5733 47.96 50.52C47.9067 50.6267 47.8667 50.7733 47.84 50.96ZM48.12 50.56C48.0667 50.56 48.04 50.5733 48.04 50.6C48.0933 50.6 48.12 50.5867 48.12 50.56ZM47.8 51.24C47.8533 51.24 47.88 51.28 47.88 51.36C47.88 51.4133 47.88 51.44 47.88 51.44C47.9067 51.4667 47.9467 51.48 48 51.48C47.9733 51.4 47.9733 51.3333 48 51.28C48.0533 51.2267 48.08 51.1733 48.08 51.12C47.92 51.12 47.8267 51.16 47.8 51.24ZM48.12 51.36V51.48H48.24C48.24 51.4267 48.2533 51.4133 48.28 51.44V51.32H48.2C48.1733 51.3733 48.1467 51.3867 48.12 51.36ZM47.72 51.52C47.72 51.6 47.6933 51.6133 47.64 51.56C47.5867 51.5333 47.5467 51.52 47.52 51.52C47.52 51.6533 47.52 51.8 47.52 51.96C47.52 52.1467 47.52 52.3067 47.52 52.44C47.5733 52.44 47.6 52.4 47.6 52.32C47.6267 52.2667 47.64 52.2267 47.64 52.2C47.6667 52.1733 47.72 52.1867 47.8 52.24C47.7467 52.1333 47.7333 52.0133 47.76 51.88C47.7867 51.7467 47.7733 51.6267 47.72 51.52ZM47.32 51.96C47.4 51.6667 47.3467 51.5067 47.16 51.48C47.2133 51.7467 47.2667 51.9067 47.32 51.96ZM47.84 52.16C47.8933 52.1867 47.9333 52.16 47.96 52.08C48.04 51.92 48.0133 51.84 47.88 51.84C47.88 51.8667 47.8667 51.9067 47.84 51.96C47.8133 52.04 47.8133 52.1067 47.84 52.16ZM48.24 52.08C48.2667 52.08 48.28 52.0533 48.28 52C48.2267 51.9467 48.1733 51.9333 48.12 51.96C48.1467 51.96 48.16 51.9733 48.16 52C48.1867 52.0533 48.2133 52.08 48.24 52.08ZM47.6 52.8C47.6267 52.7733 47.6667 52.76 47.72 52.76C47.7733 52.76 47.8133 52.7333 47.84 52.68C47.7867 52.6267 47.76 52.5733 47.76 52.52C47.76 52.4933 47.7733 52.4667 47.8 52.44L47.72 52.4C47.72 52.4533 47.6933 52.52 47.64 52.6C47.5867 52.68 47.5733 52.7467 47.6 52.8ZM47.32 52.48C47.2667 52.48 47.24 52.4933 47.24 52.52C47.2933 52.52 47.32 52.5067 47.32 52.48ZM48.36 52.64C48.36 52.72 48.4 52.76 48.48 52.76C48.48 52.68 48.44 52.64 48.36 52.64C48.4133 52.5867 48.44 52.5333 48.44 52.48C48.3333 52.48 48.2533 52.5333 48.2 52.64C48.2267 52.6667 48.2533 52.6667 48.28 52.64C48.3067 52.6133 48.3333 52.6133 48.36 52.64ZM48.12 52.92H48.24V52.8H48.12V52.92ZM47.56 53.24L47.72 53.4C47.64 53.32 47.5867 53.3333 47.56 53.44C47.5867 53.44 47.6 53.4533 47.6 53.48C47.6533 53.5333 47.7067 53.5467 47.76 53.52C47.76 53.4933 47.7733 53.44 47.8 53.36C47.8267 53.3067 47.84 53.2533 47.84 53.2C47.76 53.2 47.7467 53.1467 47.8 53.04C47.8267 52.96 47.8 52.92 47.72 52.92C47.7467 53 47.72 53.0533 47.64 53.08C47.5867 53.1333 47.56 53.1867 47.56 53.24ZM48.28 53.16V52.96V53.16ZM47.8 53.68L47.76 53.64C47.68 53.72 47.64 53.8533 47.64 54.04C47.64 54.2267 47.6933 54.3467 47.8 54.4C47.8533 54.2933 47.88 54.24 47.88 54.24C47.88 54.1333 47.8533 53.9467 47.8 53.68ZM48.12 54.2C48.0933 54.1733 48.08 54.08 48.08 53.92C48.08 53.76 48.0533 53.6533 48 53.6C48.0533 54 48.0933 54.2 48.12 54.2ZM48.28 53.76H48.36V53.68H48.28V53.76ZM48.32 54.56H48.44V54.44H48.32V54.56ZM47.88 55.08C47.88 54.7333 47.8533 54.5333 47.8 54.48C47.64 54.56 47.6667 54.76 47.88 55.08ZM48.2 54.84C48.1733 54.8133 48.16 54.7467 48.16 54.64C48.1867 54.5333 48.16 54.48 48.08 54.48C48.08 54.72 48.12 54.84 48.2 54.84ZM48.08 54.96C48.1333 54.9867 48.16 55.08 48.16 55.24C48.16 55.4 48.2 55.5067 48.28 55.56C48.2533 55.48 48.24 55.4 48.24 55.32C48.24 55.2667 48.24 55.2133 48.24 55.16C48.24 55.1067 48.2267 55.0533 48.2 55C48.2 54.9467 48.1733 54.9067 48.12 54.88C48.12 54.9333 48.1067 54.96 48.08 54.96ZM47.88 55.36C47.96 55.3867 48.0133 55.3467 48.04 55.24C48.0667 55.16 48.0533 55.1067 48 55.08C48 55.1067 47.9733 55.1333 47.92 55.16C47.84 55.2133 47.8267 55.28 47.88 55.36ZM48.48 55.64H48.56V55.56H48.48V55.64ZM48.24 56.76C48.3467 56.76 48.4133 56.72 48.44 56.64C48.3067 56.6933 48.24 56.7333 48.24 56.76ZM48.92 56.84C48.8667 56.84 48.84 56.7867 48.84 56.68C48.84 56.6267 48.8133 56.6133 48.76 56.64C48.7333 56.7467 48.7467 56.8267 48.8 56.88C48.8533 56.9067 48.8933 56.8933 48.92 56.84ZM37.08 27.32C37.08 27.2933 37.1067 27.28 37.16 27.28C37.1333 27.3067 37.1067 27.32 37.08 27.32ZM37.04 27.36C37.04 27.3333 37.0533 27.32 37.08 27.32C37.08 27.3733 37.0667 27.3867 37.04 27.36ZM46.12 31.08C46.0667 31.08 46.0133 31.1067 45.96 31.16C46.0133 31.16 46.0667 31.1333 46.12 31.08ZM44.6 34.04C44.6 34.0133 44.6133 34 44.64 34C44.6667 34 44.68 34.0133 44.68 34.04H44.6ZM38.36 34.04C38.36 34.1467 38.3333 34.1467 38.28 34.04H38.36ZM38.44 36.96C38.4133 36.96 38.4 37 38.4 37.08C38.4267 37.08 38.44 37.04 38.44 36.96ZM38.24 37.84C38.2933 37.84 38.3333 37.8533 38.36 37.88C38.28 37.88 38.24 37.8667 38.24 37.84ZM49.24 38.48C49.1867 38.48 49.1867 38.4533 49.24 38.4V38.48ZM38.2 38.6C38.1733 38.68 38.12 38.72 38.04 38.72C38.04 38.64 38.0933 38.6 38.2 38.6ZM48.96 39.76C48.96 39.7333 48.9867 39.72 49.04 39.72C49.04 39.7467 49.0133 39.76 48.96 39.76ZM42.92 39.84H42.96H42.92ZM41.88 41.2C41.8533 41.2 41.84 41.2267 41.84 41.28C41.8667 41.28 41.88 41.2533 41.88 41.2ZM37.72 41.76C37.72 41.7333 37.7333 41.72 37.76 41.72C37.7867 41.72 37.8 41.7333 37.8 41.76H37.72ZM48.48 47.2C48.48 47.1733 48.5067 47.16 48.56 47.16C48.56 47.1867 48.5333 47.2 48.48 47.2ZM47.88 47.36C47.9333 47.36 47.96 47.3733 47.96 47.4C47.9067 47.4 47.88 47.3867 47.88 47.36ZM47.76 48.4C47.76 48.4267 47.76 48.44 47.76 48.44C47.76 48.4667 47.7467 48.48 47.72 48.48C47.72 48.4267 47.7333 48.4 47.76 48.4ZM49.28 57.08C49.28 57.0533 49.32 57.04 49.4 57.04C49.3733 57.0667 49.3333 57.08 49.28 57.08Z" fill="white"/>
</svg>
