<svg width="50" height="38" viewBox="0 0 50 38" fill="none" xmlns="http://www.w3.org/2000/svg">
<path opacity="0.8" d="M4.04681 12.4605C4.58416 11.8757 5.18906 11.3579 5.84868 10.9183C7.56139 9.67819 9.48944 8.77185 11.534 8.24573C12.6026 7.96822 13.721 7.94274 14.8027 8.17123C14.6347 6.88846 15.7547 5.42761 16.6569 4.69864C17.9441 3.65814 19.7021 3.12099 21.301 2.81122C21.4822 2.77373 21.666 2.7494 21.8489 2.72649C22.6199 2.53892 23.4061 2.42082 24.1982 2.37359C26.2919 2.23735 28.394 2.48826 30.4011 3.11397C31.1379 3.34538 32.7417 3.68528 33.1766 4.53386C33.7295 3.775 34.5219 3.21956 35.3346 2.77339C35.6859 2.57946 36.0512 2.4122 36.4273 2.27298C37.2433 1.57434 38.2361 1.00861 39.3196 0.946389C40.2674 0.89105 41.4181 1.34467 42.1984 1.86374C42.9788 2.3828 43.3979 3.24462 43.6912 4.11878C44.0757 5.26074 44.3795 6.33467 44.3657 7.55036C44.3815 7.62686 44.3864 7.70437 44.3963 7.78209C45.095 9.32024 45.2299 11.1234 44.6121 12.7371C44.5229 12.9687 44.1271 12.9172 44.1689 12.6481C44.2332 12.2309 44.1337 11.8339 44.0979 11.4163C44.0621 10.9986 44.1201 10.5392 44.1207 10.119L44.1209 9.99428C44.1102 10.0501 44.101 10.1068 44.0903 10.1627C44.0561 10.631 43.995 11.0969 43.9075 11.5579C43.8382 11.9213 43.739 12.3544 43.5174 12.6558C43.4452 12.742 43.3648 12.8209 43.2772 12.8912C43.2348 13.0322 43.1976 13.1745 43.1442 13.3102L43.5223 13.4014C46.0991 12.8768 47.9148 15.2669 48.2978 17.6956C48.3605 17.8434 48.4194 17.9908 48.4752 18.1413C48.5131 18.2468 48.5498 18.3527 48.5844 18.4602C48.7039 18.7211 48.8083 18.9888 48.8973 19.2617C49.7658 21.9489 48.9117 25.1235 46.9189 27.0791C46.0796 27.9035 44.7182 28.9731 43.4913 29.0101C43.2017 29.019 42.9279 28.9248 42.6423 28.8992C42.3907 28.8765 42.1894 29.3295 42.091 29.4982C42.0323 29.5963 41.979 29.6971 41.927 29.7976C41.9185 29.828 41.91 29.8585 41.9003 29.8891C41.8946 29.9709 41.8807 30.0519 41.8589 30.1308C41.6297 30.9261 41.3417 31.7 41.1353 32.4981C40.957 33.2086 40.6343 33.8735 40.1875 34.4506C39.3603 35.4943 38.1356 36.2165 36.9242 36.7103C34.3475 37.7597 31.4448 37.306 29.1081 35.8526C27.8542 35.0738 26.8881 33.9612 26.0361 32.7677C26.0049 32.7243 25.9746 32.6795 25.9432 32.6349C25.4187 32.2607 24.9237 31.846 24.4629 31.3944C24.0435 30.9757 23.6603 30.5217 23.3177 30.0371C23.0742 30.5961 22.5584 31.0868 22.0137 31.4912C21.4005 32.3997 20.7359 33.1792 19.6652 33.6077C18.3959 34.1198 16.9451 34.0536 15.6245 33.7997C12.9129 33.279 10.5549 31.663 9.23797 29.1896C8.56021 27.8952 8.29831 26.4214 8.48871 24.9732C8.49936 24.8875 8.51095 24.8003 8.52447 24.7165C7.39507 25.1771 6.06005 25.3363 4.87895 25.076C3.85658 24.8488 3.1931 24.1784 2.77634 23.3161C2.71074 23.2736 2.64727 23.2294 2.58379 23.1852C-1.45841 20.3397 1.28796 15.2665 4.04681 12.4605ZM8.31247 10.1404L8.24894 10.1734C6.41366 11.1367 4.80385 12.3661 3.49964 13.9386C2.95654 14.842 2.67438 15.8811 2.68487 16.9393C3.29725 15.1261 4.43787 13.4789 5.9981 12.4156C7.22416 11.5809 8.73233 11.2264 10.1836 11.0681C10.8716 10.9993 11.5629 10.9682 12.2545 10.9748C13.1857 10.9765 14.0591 11.1696 14.9292 10.7328C15.0858 10.6542 15.2372 10.5743 15.3898 10.5003C15.0998 10.3713 14.8023 10.2606 14.4989 10.1687C13.9537 9.97429 13.3962 9.81773 12.8302 9.7001C11.8061 9.51739 10.758 9.5289 9.73954 9.73404C9.2535 9.82988 8.77621 9.96577 8.31247 10.1404ZM16.3401 7.76699C16.8512 6.34117 18.3018 5.55354 19.5979 4.97365C21.2788 4.2458 23.0697 3.80729 24.8963 3.67627C25.453 3.63144 26.0128 3.63698 26.5689 3.69279C25.0827 3.19893 23.5225 2.96219 21.9641 3.1277C20.5782 3.48358 19.2934 4.15728 18.2097 5.09646C17.5716 5.65233 17.0919 6.3113 16.6309 7.01252C16.3042 7.50395 15.9428 8.04245 15.4459 8.37964C15.749 8.53638 16.0359 8.72338 16.3022 8.93782C16.3807 8.99511 16.7382 8.4138 16.917 8.12625C16.8685 8.15272 16.8133 8.16414 16.7583 8.15909L16.6074 8.15168C16.5627 8.14912 16.5191 8.13638 16.4799 8.1144C16.4407 8.09242 16.4069 8.06177 16.381 8.02477C16.3552 7.98777 16.338 7.94538 16.3307 7.90078C16.3234 7.85617 16.3262 7.81051 16.3389 7.76724L16.3401 7.76699ZM17.046 7.92629C17.2455 7.66838 17.4702 7.43143 17.7169 7.21901C18.7454 6.3104 19.902 5.56066 21.1491 4.9941C20.7723 5.11821 20.3997 5.25643 20.0336 5.40825C18.922 5.87143 17.5527 6.545 17.0044 7.69557C17.0466 7.76464 17.061 7.84728 17.0448 7.92654L17.046 7.92629ZM17.5558 4.57989C16.8895 4.95792 16.3227 5.491 15.9023 6.13497C15.5727 6.64819 15.1871 7.3737 15.2163 8.02205C15.8587 7.58867 16.2621 6.77597 16.6814 6.1532C17.2141 5.39684 17.871 4.73816 18.624 4.20547C18.8466 4.0439 19.0729 3.89442 19.3029 3.75706C18.6974 3.97895 18.1123 4.25313 17.5539 4.57655L17.5558 4.57989ZM31.5014 3.83105C30.8825 3.60266 30.2344 3.42394 29.5966 3.2593C27.9092 2.83572 26.1687 2.67313 24.4348 2.77709C25.2817 2.90542 26.1155 3.11082 26.9262 3.39075C27.6025 3.60911 28.2573 3.8909 28.8819 4.23241C29.167 4.33919 29.4489 4.46033 29.7252 4.59635C30.591 5.02167 31.7715 5.53521 32.2943 6.4329C32.3944 5.84877 32.7346 5.23739 32.9984 4.80633L33.0179 4.77489C32.7881 4.2553 31.9621 3.99872 31.4995 3.82772L31.5014 3.83105ZM33.1821 5.28187C32.9666 5.63136 32.8085 6.01385 32.714 6.41459L32.8062 6.31699C32.8698 6.13553 32.9231 5.95125 32.9825 5.79686C33.052 5.61958 33.1413 5.45094 33.2488 5.29423C33.2248 5.2972 33.2006 5.29165 33.1801 5.27853L33.1821 5.28187ZM33.7624 5.24029C33.6638 5.36696 33.5765 5.50225 33.5016 5.64454C33.6769 5.4836 33.8595 5.33363 34.0454 5.18795C34.0859 5.1037 34.1312 5.0219 34.1811 4.94297C34.3239 4.72643 34.4715 4.50891 34.6237 4.30165C34.3119 4.58992 34.0233 4.90265 33.7604 5.23694L33.7624 5.24029ZM36.9228 2.54313L36.8349 2.61368C37.6726 2.37797 38.5787 2.37739 39.4415 2.4481C38.6194 2.20442 37.7579 2.28302 36.9209 2.53979L36.9228 2.54313ZM38.1639 1.9123C38.9951 1.86506 39.8193 2.09785 40.5071 2.57405C40.7867 2.6184 41.0651 2.66921 41.3424 2.72026C41.5165 2.75307 41.6875 2.80108 41.8536 2.86375L41.844 2.85327C40.7916 1.83085 39.489 1.5146 38.1619 1.90895L38.1639 1.9123ZM41.6264 2.14792C41.4355 2.03085 41.2361 1.92878 41.0298 1.84262C41.2734 1.96881 41.5056 2.11637 41.7236 2.28361C42.0546 2.53763 42.3572 2.82737 42.6259 3.14764C42.3753 2.73978 42.0328 2.39719 41.6264 2.14792ZM43.6912 6.48709C43.6576 6.21733 43.6104 5.94748 43.5496 5.67753C43.2905 4.83866 42.8739 4.05735 42.3226 3.3762C42.2142 3.31026 42.1025 3.25017 41.9878 3.1962C41.6223 3.0487 41.2389 2.95196 40.848 2.90861C40.8514 2.93578 40.8471 2.96334 40.8355 2.98803C40.8238 3.01271 40.8054 3.03348 40.7823 3.04784C40.7593 3.0622 40.7326 3.06956 40.7054 3.06903C40.6783 3.0685 40.6519 3.06012 40.6293 3.04487C40.5314 2.96957 40.4319 2.90041 40.3308 2.83741L40.2165 2.82241C38.9643 2.64783 37.6463 2.6327 36.4558 3.10224C36.3629 3.1389 36.2712 3.17907 36.1807 3.22275C35.9768 3.43073 35.7858 3.64727 35.605 3.86543C35.4505 4.04948 35.3061 4.24018 35.1644 4.43279C35.3089 4.34929 35.4555 4.27033 35.609 4.19493C35.9179 4.03501 36.2143 3.90386 36.4585 3.8072C36.9041 3.6307 37.3714 3.51513 37.8479 3.46352C39.4712 3.19982 41.1782 3.50213 42.4394 4.63218C42.9921 5.14522 43.4204 5.77959 43.691 6.48589L43.6912 6.48709ZM44.3488 13.6604C44.5066 13.725 44.6596 13.8008 44.8069 13.8872C44.8717 13.9261 44.9333 13.967 44.9948 14.0078C45.4641 14.2429 45.9029 14.5356 46.3012 14.8792C46.7293 15.2455 47.1102 15.6646 47.4347 16.1266C46.8359 14.8084 45.7459 13.7713 44.3486 13.6592L44.3488 13.6604ZM41.95 28.656C42.3168 28.2211 42.7516 28.3057 43.2562 28.4056C43.9187 28.534 44.7327 27.9754 45.263 27.6387C45.9372 27.211 46.5412 26.6803 47.0535 26.0653C47.1577 25.9365 47.2562 25.8039 47.3513 25.6671C46.4352 26.6569 45.0073 27.2741 43.7711 27.702C43.4081 27.827 43.0435 27.9386 42.6744 28.0399C42.3322 28.1344 41.9064 28.0817 41.8321 28.5159C41.8157 28.6188 41.81 28.7232 41.8151 28.8273C41.8621 28.774 41.9035 28.7118 41.95 28.656ZM40.7629 30.7466C40.4786 31.0684 40.1686 31.366 39.8359 31.6365C39.1069 32.1918 38.2946 32.6263 37.4294 32.9236C35.8231 33.5141 34.0694 33.7263 32.3686 33.8178C32.0022 33.8375 31.6335 33.8453 31.2553 33.8376C31.4482 33.8924 31.6442 33.9351 31.8423 33.9654C33.1456 34.178 34.5416 34.1047 35.8406 33.9206C36.814 33.7961 37.763 33.5253 38.6559 33.1172C38.7297 33.0621 38.803 33.0045 38.8751 32.9472C39.6189 32.3223 40.2565 31.579 40.7629 30.7466ZM30.1218 33.7593C29.5218 33.6919 28.9305 33.5602 28.3577 33.3666C30.4767 34.3426 32.8166 34.7199 35.1272 34.4584C35.5388 34.4099 35.9464 34.3318 36.3468 34.2247L36.3112 34.232C34.8337 34.5084 33.321 34.5454 31.8301 34.3419C31.2284 34.2584 30.648 34.0585 30.1205 33.7534L30.1218 33.7593ZM29.319 35.2194C30.5221 36.0314 31.9177 36.5045 33.3606 36.5894C34.8035 36.6744 36.2412 36.3681 37.5243 35.7023C38.9148 34.9882 39.9716 33.9742 40.4604 32.4583C40.4883 32.3727 40.5139 32.2877 40.5405 32.2011C40.4794 32.2761 40.4172 32.3513 40.35 32.4201C40.1747 32.6093 39.9815 32.7808 39.7732 32.9321C39.4751 33.2335 39.1521 33.5089 38.8077 33.7552C37.7558 34.5064 36.5105 34.8726 35.2465 35.0408C32.6791 35.3839 29.9609 34.8372 27.6524 33.6634C27.5891 33.6317 27.5276 33.597 27.4651 33.5638C28.0104 34.1916 28.6335 34.7459 29.3189 35.2131L29.319 35.2194ZM14.8873 33.0236C16.3203 33.445 17.9665 33.5842 19.3867 33.0733C19.7445 32.9438 20.0766 32.7518 20.3681 32.5062C18.567 33.4137 16.4929 33.6287 14.5762 32.8923C12.5467 32.112 11.1125 30.4382 10.5134 28.3547C10.2295 27.3244 10.1746 26.2444 10.3526 25.192C10.45 24.6362 10.6145 24.0948 10.8424 23.5798C10.9498 23.3295 11.0723 23.086 11.1924 22.843C11.3285 22.6124 11.4528 22.3749 11.5649 22.1315C11.1981 22.3757 10.9023 22.9866 10.6568 23.2618C10.2194 23.7358 9.70346 24.1293 9.13205 24.425C8.94926 25.2079 8.91116 26.0186 9.01965 26.8166C9.42755 29.8907 12.068 32.1912 14.8861 33.0176L14.8873 33.0236ZM5.27399 24.533C6.40324 24.7218 7.62873 24.4569 8.67166 23.9544C8.754 23.6371 8.86022 23.3268 8.98941 23.026C9.08521 22.8448 9.16541 22.6555 9.22913 22.4604C9.2082 22.4746 9.18835 22.4903 9.16976 22.5075C9.05688 22.5945 8.95314 22.6957 8.84985 22.7931C8.54937 23.0772 8.27713 23.3904 7.97329 23.6701C7.55226 24.0577 6.86832 24.213 6.32192 24.2812C5.5348 24.3671 4.73809 24.2563 4.00197 23.9586C4.36712 24.2606 4.80637 24.457 5.27275 24.527L5.27399 24.533ZM3.21003 22.8823C3.93369 23.3296 4.75077 23.5994 5.59538 23.67C6.21156 23.7182 7.06554 23.615 7.55154 23.1953C7.89394 22.905 8.18574 22.5492 8.51596 22.2477C8.74095 22.0404 9.00568 21.7924 9.32729 21.7894C9.79168 21.7842 9.87828 22.2861 9.80271 22.6308C9.74242 22.8326 9.65517 23.0252 9.54336 23.203C9.48812 23.3124 9.43927 23.4249 9.39703 23.54C9.97393 23.1538 10.3716 22.6352 10.7932 22.0955C11.0813 21.728 11.4353 21.4278 11.9221 21.4654C11.9835 21.4698 12.0418 21.4942 12.0883 21.535C12.1349 21.5757 12.167 21.6306 12.18 21.6913C12.2406 22.0203 12.1119 22.2451 11.9282 22.5087C11.5987 22.9808 11.3704 23.5541 11.1598 24.0875C10.7951 25.0542 10.6669 26.0962 10.7861 27.1253C10.8816 28.1182 11.208 29.0751 11.7389 29.9183C12.2698 30.7615 12.9901 31.467 13.8411 31.9775C15.6543 33.0843 17.804 33.0855 19.7213 32.2861C20.2619 32.0608 20.7846 31.7942 21.2848 31.4888C21.5724 31.089 21.8332 30.661 22.1172 30.2495C22.2957 29.9907 22.7 29.3012 23.0604 29.2116C23.0494 29.0942 23.021 28.9791 22.9762 28.8701C22.8867 28.6468 23.2079 28.4744 23.311 28.6986C23.3985 28.8871 23.4498 29.0905 23.4623 29.298C23.7157 29.4724 23.8796 29.8348 24.0578 30.0697C24.3054 30.3913 24.5746 30.6954 24.8635 30.9799C24.8135 30.8992 24.7623 30.8188 24.7111 30.7385C24.3901 30.2253 24.2002 29.4631 23.6907 29.1073C23.6314 29.064 23.5908 28.9992 23.5775 28.9266C23.5642 28.854 23.5791 28.7791 23.6191 28.7175C23.6592 28.6559 23.7213 28.6123 23.7925 28.5959C23.8638 28.5794 23.9387 28.5913 24.0017 28.6292C24.4476 28.9108 24.6856 29.3925 24.9144 29.8537C25.1397 30.2938 25.3927 30.719 25.6717 31.1267C26.263 31.7874 26.9783 32.3233 27.7759 32.703C28.2772 32.9339 28.8036 33.1044 29.3441 33.2111C29.1615 33.06 28.9869 32.8993 28.821 32.7297C28.6786 32.5847 28.9061 32.3893 29.0507 32.5214C29.3821 32.8287 29.7434 33.1014 30.1291 33.3353C30.982 33.4215 31.8406 33.4291 32.6943 33.3577C34.289 33.2421 35.9004 33.0045 37.4086 32.4592C38.2336 32.1645 39.0065 31.7394 39.6986 31.1999C40.2834 30.7386 40.7435 30.146 41.2433 29.5963C41.2349 29.1855 41.1395 28.7665 41.209 28.3569C41.2408 28.1372 41.3422 27.9339 41.498 27.7774C41.6538 27.621 41.8558 27.5197 42.0738 27.4886C42.8845 27.3363 43.6744 27.0892 44.4276 26.7521C45.891 26.1276 47.145 25.2785 47.8489 23.8003C48.4476 22.5471 48.5291 21.1217 48.2668 19.7587C47.9236 21.4651 46.8775 23.0378 45.5831 24.1447C44.2199 25.3131 42.1836 26.2119 40.377 25.8343C40.1757 25.7924 40.244 25.4542 40.4456 25.4798C42.163 25.6889 43.96 24.8508 45.2719 23.7927C46.6412 22.6709 47.568 21.0925 47.8863 19.3401C47.9282 19.0946 47.9511 18.846 47.9546 18.5968C47.9198 18.4943 47.8839 18.392 47.8455 18.2903C47.6305 17.8798 47.3875 17.4849 47.1181 17.1083C46.6658 16.474 46.1223 15.9296 45.6253 15.3357C45.489 15.1716 45.3412 15.0177 45.183 14.8751C44.8618 14.6806 44.5219 14.5196 44.1686 14.3945C43.8197 14.2635 43.4465 14.2129 43.0763 14.2466C42.8061 14.2776 42.578 14.3622 42.3017 14.3459C42.2569 14.3433 42.2129 14.3318 42.1724 14.3121C42.1319 14.2923 42.0957 14.2647 42.0657 14.2309C42.0358 14.197 42.0127 14.1575 41.9979 14.1147C41.9831 14.0719 41.9768 14.0265 41.9793 13.9813C42.031 13.7092 42.1692 13.4618 42.373 13.2766C42.3728 13.2729 42.3721 13.2693 42.3708 13.2658C42.3696 13.2256 42.3747 13.1855 42.3856 13.1468C42.1564 13.34 41.9064 13.5067 41.6403 13.6439C41.6018 13.6652 41.5583 13.6755 41.5143 13.6737C41.4704 13.6718 41.4277 13.658 41.3909 13.6335C41.3541 13.6091 41.3246 13.575 41.3055 13.535C41.2864 13.495 41.2784 13.4505 41.2825 13.4063C41.2951 13.1631 41.43 13.0629 41.6568 13.0135C41.6837 13.0077 41.7115 13.0066 41.7388 13.0102C42.3142 12.6274 42.7819 12.1014 43.0968 11.4827C43.3294 10.7752 43.4928 10.0463 43.5846 9.30629C43.6021 8.51172 43.4355 7.7233 43.0981 7.00375C42.849 6.49511 42.5221 6.02896 42.1295 5.62245C41.7443 5.3473 41.3318 5.1135 40.8986 4.9249C39.3027 4.22314 37.4138 4.01457 35.7736 4.66194L35.6852 4.70018C35.2414 4.94163 34.6964 5.29126 34.3372 5.69718C34.2865 5.78621 34.2332 5.87453 34.1853 5.96545C34.1375 6.05638 34.0695 6.17516 34.0045 6.2846C33.9769 6.38764 33.9685 6.49504 33.9799 6.60131C33.9825 6.64806 33.9718 6.69453 33.9489 6.7352C33.9261 6.77586 33.8921 6.80899 33.851 6.83063C33.8099 6.85227 33.7635 6.86152 33.7173 6.85726C33.671 6.853 33.6269 6.83541 33.5903 6.8066C33.4325 6.96314 33.225 7.05858 33.0041 7.07626C32.72 7.35978 32.4019 7.60649 32.0573 7.81072C31.8783 7.91258 31.6581 7.67148 31.7838 7.50336C31.841 7.42794 31.9011 7.35442 31.9598 7.27996C31.5442 6.97831 31.2001 6.59209 30.8016 6.25949C30.7865 6.27388 30.7686 6.28493 30.749 6.29194C30.7294 6.29895 30.7085 6.30176 30.6878 6.30019C30.667 6.29863 30.6468 6.29272 30.6284 6.28285C30.61 6.27298 30.5938 6.25936 30.5808 6.24285C30.4937 6.12004 30.4021 6.00562 30.3089 5.89528C29.6189 5.43059 28.871 5.06058 28.0848 4.79504C26.5957 4.3055 24.9987 4.39797 23.5022 4.77879C22.0056 5.15961 20.5727 5.88374 19.2842 6.73879C18.5728 7.20887 17.8752 7.76336 17.371 8.45857C17.1004 8.83367 16.8324 9.66198 16.2175 9.51875C16.0253 9.45731 15.8515 9.34795 15.7122 9.20081C15.4611 9.00233 15.172 8.85881 14.8632 8.77946C14.1535 8.55989 13.3497 8.56547 12.6183 8.64082C11.8493 8.73049 11.0949 8.91763 10.373 9.1978C11.2015 9.1052 12.039 9.12769 12.8623 9.26466C13.424 9.36411 13.9763 9.5121 14.5132 9.707C15.0349 9.88944 15.5748 10.0282 16.0398 10.3421C16.1702 10.4298 16.1897 10.685 16.0183 10.7454C15.3817 10.9744 14.8612 11.3825 14.1817 11.4995C13.5022 11.6165 12.7483 11.4758 12.0477 11.4788C10.5759 11.4842 9.08006 11.6418 7.69064 12.1525C5.03807 13.1279 3.39866 15.7233 2.87982 18.4359C3.07231 19.2041 3.35771 19.9459 3.72959 20.6445C4.0793 21.32 4.50773 22.3818 5.43259 22.1617C5.64751 22.1085 5.77234 22.4492 5.56459 22.537C4.78366 22.862 4.24627 22.4846 3.80471 21.8306C3.35695 21.1463 2.99669 20.408 2.73255 19.6331C2.65796 20.7043 2.76394 21.9201 3.20879 22.8763L3.21003 22.8823ZM2.38243 22.2422C2.16837 21.3092 2.10037 20.3488 2.18093 19.3957C2.20975 19.0179 2.26104 18.6422 2.33451 18.2708C2.14614 17.408 2.13207 16.5163 2.29315 15.6493C1.22166 17.4753 0.539376 19.8514 1.90315 21.6982C2.04789 21.8906 2.20784 22.0709 2.38144 22.2374L2.38243 22.2422Z" fill="#50735F"/>
</svg>
