<svg width="44" height="40" viewBox="0 0 44 40" fill="none" xmlns="http://www.w3.org/2000/svg">
<g opacity="0.8">
<path d="M18.1425 6.55978C18.2101 4.05125 16.2777 2.09352 14.0235 1.31629C11.4542 0.4298 8.74078 1.50216 6.75104 3.16588C4.5002 5.04813 2.84808 7.93176 2.51158 10.8514C2.2156 13.4208 3.44231 16.4261 5.98238 17.4083C7.18658 17.8747 8.68339 17.7722 9.47118 16.6367C9.49781 16.5918 9.51366 16.5413 9.51751 16.4892C9.52135 16.4371 9.51308 16.3849 9.49334 16.3365C9.4736 16.2882 9.44294 16.2451 9.40375 16.2106C9.36456 16.1761 9.31792 16.1512 9.26748 16.1377C6.1163 15.4078 4.00389 18.2903 2.85934 20.7899C1.66752 23.3941 0.432932 26.3093 0.706409 29.238C0.961879 31.973 2.9156 33.8721 5.47031 34.6099C6.74316 34.9782 8.10267 35.0526 9.41941 34.9861C10.7091 34.9219 12.0641 34.682 13.0208 33.7471C14.0584 32.7333 13.8963 30.5548 12.3658 30.1245C12.3022 30.108 12.235 30.1124 12.1742 30.1372C12.1134 30.1619 12.0621 30.2057 12.0281 30.2619C10.6281 32.4258 11.1391 35.2711 12.7394 37.1759C14.5131 39.2879 17.4909 40.0911 20.1514 39.9919C22.7939 39.8984 25.5636 38.7833 27.201 36.6408C28.762 34.5986 29.2842 31.8536 28.2657 29.4554L27.7581 29.7517C29.4215 32.0394 31.7916 33.8406 34.5793 34.4714C35.8634 34.7672 37.2018 34.7296 38.4674 34.3621C39.7329 33.9947 40.8836 33.3095 41.8101 32.3717C43.6626 30.5221 44.2928 27.8762 43.2653 25.4521C42.7116 24.1455 41.6965 23.0618 40.6419 22.1438C39.5874 21.2258 38.3911 20.3415 37.0879 19.7952C36.111 19.3852 35.0227 19.3109 34.0852 19.8493C34.0522 19.869 34.0241 19.8959 34.0029 19.9281C33.9818 19.9603 33.9683 19.9968 33.9633 20.035C33.9583 20.0731 33.962 20.1119 33.9742 20.1485C33.9863 20.185 34.0066 20.2183 34.0335 20.2458C35.7295 21.7991 38.3562 21.5806 40.1107 20.2402C42.1916 18.6508 42.4077 15.6905 41.4973 13.4039C40.4506 10.7771 37.8959 9.18998 35.2546 8.50399C33.2288 7.9757 29.2572 7.63665 29.2549 10.7163C29.2549 12.0477 30.5177 12.4611 31.6352 12.3856C32.8968 12.3 34.2721 12.0973 35.2557 11.2423C37.3332 9.44004 35.4706 6.28606 33.9378 4.83974C31.777 2.80655 28.798 1.43796 25.8112 1.45373C24.5122 1.4696 23.2366 1.80114 22.094 2.41982C20.9515 3.0385 19.9762 3.92578 19.2522 5.00532C18.678 5.8813 18.336 6.88918 18.2585 7.93401C18.2314 8.29109 18.7874 8.28883 18.8144 7.93401C19.0395 5.02897 21.44 2.84485 24.159 2.16449C27.3519 1.36698 30.7349 2.85161 33.1624 4.85889C34.2721 5.7758 35.1882 6.98106 35.5359 8.39697C35.9332 10.0179 34.9316 11.1928 33.4156 11.5994C32.1934 11.9272 29.6342 12.4025 29.7558 10.4459C29.8683 8.64366 32.1056 8.51412 33.4449 8.6538C37.358 9.06381 41.3712 11.6095 41.5231 15.891C41.5895 17.7564 40.6858 19.4753 39.0225 20.3359C37.5594 21.0929 35.6338 21.0309 34.3902 19.8853L34.3385 20.2818C35.7261 19.4866 37.313 20.3551 38.4913 21.1492C39.66 21.918 40.72 22.841 41.6424 23.8931C42.5529 24.9565 43.1831 26.2721 43.2417 27.6847C43.2934 28.9474 42.7982 30.1628 42.0814 31.1766C40.4968 33.4182 37.7339 34.4038 35.0767 33.9678C32.3161 33.5173 29.8863 31.6801 28.2679 29.4622C28.2287 29.3948 28.1643 29.3458 28.089 29.3259C28.0136 29.3061 27.9335 29.317 27.8662 29.3563C27.7989 29.3956 27.7499 29.46 27.7301 29.5354C27.7102 29.6108 27.7211 29.691 27.7604 29.7584C28.7046 31.9786 28.1115 34.5795 26.635 36.4189C25.083 38.3519 22.5688 39.28 20.1548 39.4039C17.7171 39.529 15.141 38.7788 13.4023 37.0148C11.7603 35.3488 11.2482 32.5756 12.5515 30.5672L12.2138 30.7046C13.4518 31.0538 13.2053 32.7322 12.4828 33.435C11.4913 34.4038 9.74691 34.4094 8.45605 34.4004C5.77305 34.3812 2.8222 33.4542 1.71141 30.7767C0.608497 28.1172 1.77218 24.9677 2.82107 22.4851C3.87897 19.9833 5.67626 15.9913 9.09529 16.7989L8.89271 16.2999C8.1173 17.4117 6.50457 17.0276 5.53446 16.4407C4.40003 15.7525 3.67076 14.5258 3.31288 13.2766C2.47669 10.3569 4.00389 7.14326 5.84283 4.93323C7.52308 2.91693 10.0418 1.32868 12.7529 1.60916C15.2446 1.86486 17.6901 3.94873 17.6766 6.56541C17.6766 6.87292 18.1448 6.8718 18.1527 6.56541L18.1425 6.55978Z" fill="#50735F"/>
<path d="M18.2621 6.54852C17.9762 4.09855 16.2678 2.0879 14.1453 0.946831C11.9079 -0.256186 9.31384 -0.292231 7.00447 0.721547C2.16517 2.84598 -0.504328 9.52339 2.49604 14.135C4.05137 16.5263 7.53005 17.6269 9.98909 15.9485C10.0345 15.9203 10.0719 15.881 10.0978 15.8343C10.1238 15.7875 10.1374 15.735 10.1374 15.6815C10.1374 15.6281 10.1238 15.5755 10.0978 15.5288C10.0719 15.4821 10.0345 15.4428 9.98909 15.4146C7.6077 13.6641 4.65122 17.0479 3.34911 18.7127C1.4978 21.0861 0.13491 24.0959 0.00548707 27.1327C-0.0478512 28.5055 0.288568 29.8652 0.975757 31.0544C1.66295 32.2436 2.67277 33.2136 3.88819 33.8518C6.26282 35.1202 9.19455 34.7338 11.3283 33.1681C11.95 32.7166 12.476 32.1461 12.8758 31.4897C13.03 31.2374 12.6507 30.9265 12.4583 31.1676C10.8185 33.2267 8.27958 34.4105 5.64385 33.8259C3.07789 33.2571 1.13428 31.0313 0.703249 28.481C0.208064 25.5524 1.61034 22.3567 3.19268 19.9698C3.965 18.8311 4.87738 17.7942 5.90832 16.8834C6.87393 16.0138 8.48103 15.0316 9.71899 15.9485V15.4146C8.48103 16.2031 7.10576 16.2875 5.76877 15.8775C4.35411 15.4427 3.27484 14.3805 2.60521 13.0896C1.24458 10.4673 1.7769 7.17931 3.26583 4.74512C4.70524 2.3909 7.23969 0.649453 10.0274 0.492881C12.7047 0.343067 15.3821 1.79277 16.8643 3.99717C17.3791 4.7878 17.7289 5.67439 17.8929 6.60371C17.9323 6.80872 18.2846 6.76365 18.2598 6.55301L18.2621 6.54852Z" fill="#50735F"/>
<path d="M17.9821 6.8412C18.5955 4.18623 16.581 1.77231 14.1748 0.969175C11.4614 0.0680384 8.3294 1.01536 6.12245 2.69035C4.99029 3.53805 4.07821 4.64563 3.46303 5.91981C2.84785 7.194 2.54758 8.59749 2.5875 10.0121C2.62466 11.4681 3.09487 12.88 3.93801 14.0672C4.2985 14.5613 4.76896 14.9647 5.31215 15.2454C5.90412 15.5518 6.58274 15.6386 7.19385 15.8976C7.4833 16.0213 7.74362 16.2043 7.95801 16.4349C8.15046 16.6411 8.48583 16.3752 8.34403 16.1364C7.81283 15.2353 6.7268 15.1328 5.82534 14.8084C4.49284 14.3296 3.78158 12.8473 3.42032 11.5778C2.63252 8.83496 3.60826 5.88825 5.55862 3.8911C7.42681 1.97619 10.1965 0.922985 12.8592 1.18769C15.6187 1.46705 18.053 3.84154 17.6242 6.73644C17.5905 6.96173 17.9247 7.07437 17.9799 6.83444L17.9821 6.8412Z" fill="#50735F"/>
<path d="M27.5243 29.2199C28.7274 31.4401 31.021 32.8086 33.489 33.1274C36.0944 33.4654 38.5962 32.2826 40.2112 30.2573C41.8262 28.232 42.3765 25.5263 41.5448 23.0707C40.7379 20.6872 38.711 18.7903 36.324 18.0492C35.9705 17.9449 35.6092 17.8696 35.2436 17.8239C35.1861 17.8101 35.1254 17.8187 35.074 17.848C35.0226 17.8773 34.9842 17.925 34.9667 17.9816C34.7416 18.6833 35.0793 19.3885 35.6679 19.803C36.3352 20.2738 37.1174 20.3516 37.9007 20.1747C39.4943 19.8143 40.6298 18.2406 40.7379 16.6659C40.8617 14.8636 39.6687 13.2033 38.2451 12.2289C36.4602 11.0068 34.1598 10.9369 32.0856 11.1127C31.8324 11.1341 31.7334 11.5463 32.0204 11.588C34.2206 11.9147 35.7523 9.66296 35.4957 7.65455C35.1896 5.25528 32.9601 3.5206 30.8815 2.64987C26.5069 0.81944 20.6514 2.73773 18.8012 7.29185C18.7022 7.53515 19.0893 7.68271 19.2142 7.46643C20.2631 5.66416 21.5596 4.19419 23.4435 3.24574C25.3962 2.26237 27.6639 2.14635 29.7538 2.72195C31.8167 3.28516 33.8886 4.72136 34.7304 6.74666C35.1322 7.71426 35.1423 8.76745 34.6415 9.69337C34.1407 10.6193 33.13 11.2264 32.1172 11.1093V11.5936C35.1558 11.2174 38.9214 11.9744 40.0626 15.2511C40.3089 15.9577 40.3204 16.7251 40.0955 17.4388C39.8706 18.1525 39.4213 18.7743 38.8145 19.2116C38.276 19.6098 37.6162 19.8088 36.9475 19.7748C36.1304 19.7377 35.0973 19.0111 35.4023 18.0953L35.1243 18.253C37.5597 18.6101 39.6158 20.2108 40.721 22.3904C41.8723 24.6613 41.5279 27.3173 40.1695 29.4114C39.5033 30.4438 38.5793 31.2843 37.489 31.8498C36.3986 32.4152 35.1797 32.6859 33.9527 32.6352C31.4926 32.5327 29.1438 31.1111 27.8653 29.0182C27.8355 28.9811 27.7933 28.956 27.7465 28.9475C27.6997 28.939 27.6514 28.9476 27.6104 28.9718C27.5694 28.996 27.5385 29.0342 27.5233 29.0793C27.5081 29.1244 27.5097 29.1735 27.5277 29.2176L27.5243 29.2199Z" fill="#50735F"/>
</g>
</svg>
