<svg width="34" height="18" viewBox="0 0 34 18" fill="none" xmlns="http://www.w3.org/2000/svg">
<path d="M10.768 7.808C13.9253 7.21067 17.104 6.144 20.304 4.608C20.3467 4.608 20.4533 4.608 20.624 4.608C20.8373 4.608 20.9867 4.65067 21.072 4.736C21.0293 4.94933 21.0933 5.248 21.264 5.632C21.0507 5.76 20.7733 5.93067 20.432 6.144C20.0907 6.35733 19.7707 6.54933 19.472 6.72C19.1733 6.89067 18.8747 7.04 18.576 7.168C18.5333 7.08267 18.512 7.01867 18.512 6.976C18.512 6.89067 18.512 6.80533 18.512 6.72C18.3413 7.01867 18.192 7.01867 18.064 6.72C17.9787 6.76267 17.9147 6.848 17.872 6.976C17.8293 7.06133 17.7867 7.12533 17.744 7.168L17.808 7.232L17.872 7.296C18 7.38133 18.064 7.296 18.064 7.04C18.2347 7.168 18.2987 7.25333 18.256 7.296C18.2133 7.33867 18.1067 7.424 17.936 7.552C17.7653 7.63733 17.68 7.72267 17.68 7.808C17.5947 7.808 17.5307 7.76533 17.488 7.68C17.4453 7.59467 17.3813 7.57333 17.296 7.616C17.168 7.65867 17.104 7.76533 17.104 7.936C17.1467 8.10667 17.1467 8.21333 17.104 8.256C17.0187 8.29867 16.976 8.256 16.976 8.128C16.9333 7.91467 16.9547 7.808 17.04 7.808C16.912 7.85067 16.7627 7.95733 16.592 8.128C16.4213 8.29867 16.2933 8.40533 16.208 8.448C16.1227 8.49067 16.0587 8.46933 16.016 8.384C15.9733 8.29867 15.9307 8.256 15.888 8.256C15.8027 8.256 15.76 8.384 15.76 8.64C15.6747 8.68267 15.6107 8.64 15.568 8.512C15.568 8.384 15.5467 8.32 15.504 8.32C15.4613 8.32 15.376 8.36267 15.248 8.448C15.12 8.53333 15.0347 8.512 14.992 8.384C14.9067 8.42667 14.9067 8.49067 14.992 8.576C15.0773 8.66133 15.12 8.72533 15.12 8.768C15.0347 8.72533 14.9067 8.72533 14.736 8.768C14.5653 8.768 14.416 8.72533 14.288 8.64C14.288 8.768 14.352 8.832 14.48 8.832C14.608 8.832 14.672 8.896 14.672 9.024H14.16V8.704C13.904 8.74667 13.6693 8.768 13.456 8.768C13.4133 8.98133 13.3067 9.00267 13.136 8.832C13.0933 8.87467 13.0933 8.93867 13.136 9.024C13.2213 9.10933 13.2427 9.216 13.2 9.344C13.072 9.38667 12.6027 9.472 11.792 9.6C11.024 9.68533 10.4053 9.83467 9.936 10.048C9.50933 10.2613 9.296 10.6027 9.296 11.072C9.08267 11.3707 8.74133 11.8827 8.272 12.608C7.80267 13.3333 7.41867 13.888 7.12 14.272C6.864 14.656 6.43733 15.04 5.84 15.424C5.24267 15.7653 4.58133 15.936 3.856 15.936C2.53333 15.6373 1.63733 14.848 1.168 13.568C0.656 12.2453 0.592 10.8587 0.976 9.408C1.31733 7.95733 1.936 6.86933 2.832 6.144C2.832 5.67467 2.81067 5.39733 2.768 5.312C2.896 3.86133 3.49333 2.88 4.56 2.368C5.66933 1.81333 6.82133 1.728 8.016 2.112C9.25333 2.496 10.2133 3.15733 10.896 4.096C11.4933 5.33333 11.4507 6.57067 10.768 7.808ZM8.144 3.328C7.97333 3.456 7.65333 3.648 7.184 3.904C6.75733 4.16 6.416 4.37333 6.16 4.544C5.94667 4.71467 5.75467 4.97067 5.584 5.312C5.41333 5.65333 5.392 6.05867 5.52 6.528C4.96533 6.99733 4.688 7.424 4.688 7.808C5.54133 8.27733 6.65067 8.42667 8.016 8.256C8.05867 8.17067 8.12267 7.97867 8.208 7.68C8.336 7.38133 8.42133 7.168 8.464 7.04C8.54933 6.86933 8.63467 6.63467 8.72 6.336C8.80533 6.03733 8.848 5.80267 8.848 5.632C8.89067 5.46133 8.912 5.26933 8.912 5.056C8.912 4.8 8.89067 4.58667 8.848 4.416C8.80533 4.20267 8.72 4.01067 8.592 3.84C8.464 3.62667 8.31467 3.456 8.144 3.328ZM17.488 7.232C17.4453 7.14667 17.4667 7.08267 17.552 7.04C17.5947 6.95467 17.616 6.89067 17.616 6.848C17.4027 6.80533 17.296 6.86933 17.296 7.04C17.296 7.168 17.36 7.232 17.488 7.232ZM17.04 7.488C17.2533 7.488 17.36 7.424 17.36 7.296C17.3173 7.296 17.2747 7.27467 17.232 7.232C17.1893 7.18933 17.1467 7.168 17.104 7.168C17.104 7.21067 17.0827 7.25333 17.04 7.296C17.04 7.33867 17.04 7.40267 17.04 7.488ZM16.592 7.424H16.848C16.848 7.296 16.7627 7.232 16.592 7.232V7.424ZM14.736 7.872C14.864 7.82933 15.1413 7.808 15.568 7.808C16.0373 7.808 16.4 7.744 16.656 7.616L15.376 7.424C15.376 7.552 15.3333 7.63733 15.248 7.68C15.1627 7.68 15.056 7.70133 14.928 7.744C14.8 7.744 14.736 7.78667 14.736 7.872ZM13.136 8.064C13.1787 8.32 13.3493 8.448 13.648 8.448C13.9467 8.40533 14.16 8.32 14.288 8.192C14.16 8.064 13.968 8.02133 13.712 8.064C13.456 8.10667 13.264 8.10667 13.136 8.064ZM12.752 8.384L12.816 8.448H13.072C13.072 8.23467 12.9653 8.17067 12.752 8.256V8.384ZM12.048 8.576L11.664 8.384C11.6213 8.55467 11.664 8.66133 11.792 8.704C11.9627 8.74667 12.048 8.704 12.048 8.576ZM3.664 8.64C3.62133 8.72533 3.49333 9.024 3.28 9.536C3.06667 10.0053 2.91733 10.368 2.832 10.624C2.74667 10.8373 2.64 11.1787 2.512 11.648C2.42667 12.0747 2.40533 12.48 2.448 12.864C2.49067 13.248 2.59733 13.632 2.768 14.016C3.06667 13.9733 3.344 13.9093 3.6 13.824C3.89867 13.696 4.176 13.5467 4.432 13.376C4.688 13.1627 4.88 13.0133 5.008 12.928C5.17867 12.8 5.37067 12.5867 5.584 12.288C5.84 11.9467 5.98933 11.7333 6.032 11.648C6.11733 11.52 6.26667 11.264 6.48 10.88C6.736 10.4533 6.88533 10.2187 6.928 10.176C6.11733 10.048 5.02933 9.536 3.664 8.64ZM11.984 9.216H11.6C11.8133 9.42933 11.9413 9.42933 11.984 9.216ZM10.96 9.472L10.896 9.408C10.8533 9.36533 10.8107 9.36533 10.768 9.408C10.7253 9.45067 10.7253 9.49333 10.768 9.536C10.8533 9.536 10.9173 9.51467 10.96 9.472ZM12.752 8.384C12.7947 8.384 12.816 8.40533 12.816 8.448C12.7733 8.448 12.752 8.42667 12.752 8.384ZM33.2155 2.56C32.9168 2.34667 32.6182 2.176 32.3195 2.048C31.6368 2.34667 30.7408 2.92267 29.6315 3.776C28.5222 4.62933 27.6688 5.16267 27.0715 5.376C26.9435 6.016 26.6448 6.4 26.1755 6.528C23.5302 10.24 21.7382 13.0133 20.7995 14.848C20.6288 16.256 19.9248 17.1947 18.6875 17.664C17.9622 17.3227 17.4715 16.7467 17.2155 15.936C16.9168 15.0827 16.7888 14.3147 16.8315 13.632C16.8742 12.9067 17.0235 11.9253 17.2795 10.688C17.4928 9.408 17.6208 8.59733 17.6635 8.256C17.8768 7.82933 18.1115 7.01867 18.3675 5.824C18.5808 4.62933 18.8155 3.81867 19.0715 3.392C19.6262 3.52 20.0528 3.73333 20.3515 4.032C20.6502 4.288 20.8208 4.672 20.8635 5.184C20.9062 5.65333 20.9062 6.03733 20.8635 6.336C20.8635 6.63467 20.7995 7.12533 20.6715 7.808C20.5435 8.49067 20.4582 8.91733 20.4155 9.088C21.3115 7.72267 23.0395 5.71733 25.5995 3.072C26.2822 2.51733 27.0715 2.02667 27.9675 1.6C28.9062 1.17333 29.8875 1.00267 30.9115 1.088C31.9782 1.13067 32.7462 1.62133 33.2155 2.56ZM28.4795 2.112C28.6502 2.15467 28.7995 2.13333 28.9275 2.048C29.0555 1.92 29.1622 1.87733 29.2475 1.92C29.1622 1.74933 29.2262 1.664 29.4395 1.664C29.6955 1.62133 29.8235 1.536 29.8235 1.408C29.3115 1.536 28.9702 1.57867 28.7995 1.536C25.4715 3.49867 22.7195 6.48533 20.5435 10.496C23.2315 6.61333 25.8768 3.81867 28.4795 2.112ZM30.3355 2.048C30.3355 2.13333 30.2928 2.21867 30.2075 2.304C30.5915 2.21867 30.8048 2.09067 30.8475 1.92C30.5915 2.00533 30.4208 2.048 30.3355 2.048ZM29.6955 2.624C29.7808 2.624 29.9302 2.51733 30.1435 2.304C30.0155 2.21867 29.8875 2.21867 29.7595 2.304C29.6315 2.34667 29.6102 2.45333 29.6955 2.624ZM27.9035 3.584C28.0742 3.584 28.3088 3.456 28.6075 3.2C28.9488 2.944 29.2048 2.816 29.3755 2.816C29.3755 2.77333 29.3968 2.688 29.4395 2.56C29.4395 2.51733 29.4395 2.496 29.4395 2.496C29.4395 2.45333 29.3968 2.432 29.3115 2.432C29.1835 2.60267 28.9488 2.816 28.6075 3.072C28.2662 3.28533 28.0315 3.456 27.9035 3.584ZM27.3915 4.096C27.7328 3.88267 27.9035 3.73333 27.9035 3.648C27.8608 3.69067 27.7755 3.73333 27.6475 3.776C27.5195 3.81867 27.4342 3.86133 27.3915 3.904C27.3488 3.94667 27.3488 4.01067 27.3915 4.096ZM26.5595 5.184C26.6022 5.14133 26.6875 5.056 26.8155 4.928C26.9862 4.75733 27.0715 4.608 27.0715 4.48H26.8795C26.8795 4.608 26.7942 4.736 26.6235 4.864C26.4955 4.992 26.4742 5.09867 26.5595 5.184ZM25.9195 5.696C25.9195 5.65333 25.9408 5.632 25.9835 5.632C25.9835 5.504 25.9408 5.46133 25.8555 5.504C25.8555 5.632 25.8768 5.696 25.9195 5.696ZM28.4795 2.112V2.048V2.112Z" fill="#C58A46"/>
</svg>
