<svg width="51" height="149" viewBox="0 0 51 149" fill="none" xmlns="http://www.w3.org/2000/svg">
<path d="M45.2511 7.12518C51.7305 15.5046 52.6478 28.1748 48.4326 37.7256C46.5963 41.8815 43.7497 45.5087 40.1535 48.2751C36.5573 51.0415 32.3266 52.8586 27.8487 53.5599C28.9316 54.7403 29.8713 56.1182 30.8558 57.3525C30.9039 57.4031 30.9382 57.4652 30.9554 57.533C30.9727 57.6007 30.9723 57.6718 30.9544 57.7394C30.9364 57.8069 30.9015 57.8687 30.8528 57.9189C30.8042 57.969 30.7436 58.0058 30.6768 58.0257C29.7422 58.2796 28.7913 58.4685 27.8308 58.5912C22.2508 65.4043 22.4209 74.9551 23.5351 83.2762C24.43 90.1117 28.162 98.9849 24.8104 105.672C25.2004 105.767 25.5643 105.948 25.8754 106.202C27.4952 102.804 31.8223 98.0962 35.7198 99.6446C41.0896 101.768 39.2728 108.872 37.0623 112.611C40.4303 112.692 43.8162 112.651 47.22 112.49C47.3096 112.479 47.4 112.503 47.473 112.556C47.5461 112.609 47.5963 112.688 47.6137 112.777C47.6841 112.773 47.7545 112.785 47.8198 112.811C47.8851 112.838 47.9438 112.878 47.9917 112.93C48.0396 112.982 48.0754 113.044 48.0967 113.111C48.118 113.179 48.1242 113.25 48.1149 113.32C47.8643 114.945 47.5869 116.579 47.2513 118.194C47.6406 118.329 47.7525 118.962 47.2513 119.034L47.0499 119.061C47.0478 119.077 47.0478 119.094 47.0499 119.11C47.0305 119.167 46.9941 119.218 46.9455 119.254C46.8969 119.291 46.8385 119.311 46.7779 119.314C46.7173 119.316 46.6575 119.3 46.6062 119.268C46.5549 119.235 46.5145 119.188 46.4906 119.132L45.448 119.267C42.8034 128.966 40.1767 138.674 37.3934 148.337C37.3811 148.384 37.3582 148.429 37.3265 148.466C37.2947 148.503 37.2548 148.533 37.2099 148.552C37.2032 148.636 37.1655 148.714 37.1043 148.772C37.043 148.829 36.9626 148.861 36.8788 148.862C32.5293 149.208 28.0188 148.804 23.6559 148.732C19.293 148.66 14.8361 148.579 10.4285 148.494C10.3412 148.493 10.2566 148.463 10.1873 148.41C10.118 148.356 10.0677 148.282 10.0437 148.198C7.94056 137.713 5.78819 127.238 3.82825 116.722C2.55671 116.325 1.30657 115.862 0.0828794 115.335C-0.0961108 115.255 0.0470808 115.017 0.208172 115.039L0.405062 115.075C0.026113 112.589 0.251785 110.049 1.06285 107.67C1.08365 107.613 1.11545 107.562 1.15638 107.518C1.19732 107.475 1.24657 107.44 1.3012 107.415C1.35584 107.391 1.41477 107.378 1.47451 107.377C1.53425 107.376 1.59359 107.387 1.64904 107.409H1.68037C4.66354 108.211 7.64671 108.923 10.6299 109.546C9.53357 106.404 9.13979 98.747 13.4266 98.1141C17.7134 97.4813 21.2529 102.894 22.8728 106.135C23.1828 105.871 23.559 105.699 23.9602 105.636C25.4905 100.919 25.2444 96.66 24.2645 91.7768C23.4143 87.5445 22.5283 83.3615 22.2329 79.0439C21.7854 72.2622 21.9823 63.9276 26.9314 58.6899C25.9077 58.7806 24.8788 58.7971 23.8528 58.7393C23.7937 58.7385 23.7356 58.7242 23.6828 58.6976C23.6301 58.6709 23.5841 58.6326 23.5483 58.5854C23.5125 58.5383 23.4879 58.4836 23.4763 58.4255C23.4647 58.3674 23.4664 58.3074 23.4814 58.2501C24.0988 56.6086 25.0001 55.0893 26.1439 53.7619L25.7277 53.7978C25.6349 53.8082 25.5417 53.7822 25.4675 53.7254C25.3933 53.6685 25.3439 53.5851 25.3295 53.4926C14.2052 50.9388 7.87791 36.6574 7.51546 26.2897C7.15748 16.5863 12.0215 6.50131 20.9397 2.10738C29.0435 -1.90506 39.6084 -0.163631 45.2511 7.12518ZM48.8532 33.9107C51.5381 24.7817 49.9361 12.695 42.8839 5.81463C36.3284 -0.585526 25.4995 -0.531665 18.313 4.724C10.2585 10.6125 7.14851 21.1148 8.91604 30.7061C10.5851 39.7543 16.3531 50.2028 25.6964 52.9271C25.7127 52.9251 25.7293 52.9251 25.7456 52.9271C36.5745 52.2045 45.8238 44.2559 48.8532 33.9107ZM47.2513 113.352H47.2289C41.4039 113.737 35.5592 113.716 29.7371 113.289C29.4373 115.259 29.1733 117.229 28.9227 119.195C34.2142 119.307 39.5072 119.051 44.7633 118.428C44.7961 118.36 44.8452 118.302 44.9062 118.258C44.9672 118.215 45.0382 118.187 45.1125 118.178C45.1869 118.169 45.2623 118.179 45.3319 118.207C45.4014 118.235 45.4629 118.28 45.5106 118.338L46.5801 118.203C46.7501 116.597 46.9917 114.949 47.2513 113.347V113.352ZM36.7535 148.162C39.2325 138.548 41.8726 128.975 44.4948 119.402C39.284 120.009 34.0373 120.25 28.7929 120.124C27.6474 129.343 26.9538 138.566 26.305 147.857C29.7908 147.76 33.2793 147.861 36.7535 148.162ZM36.3597 112.418C37.7022 108.827 40.481 103.208 35.8362 100.641C32.0863 98.5675 28.2022 103.738 26.2557 106.57C26.5276 106.875 26.7455 107.224 26.9001 107.602C27.4415 108.949 27.1015 110.659 26.4839 111.983C29.7654 112.303 33.0544 112.509 36.3508 112.602C36.3344 112.538 36.3375 112.471 36.3597 112.409V112.418ZM28.0054 119.2C28.2858 117.207 28.5841 115.22 28.9003 113.239C26.3989 113.042 23.9065 112.791 21.423 112.431C21.5438 114.545 21.5572 116.673 21.5259 118.809C22.1792 118.868 22.8281 118.926 23.4769 118.975C24.9894 119.074 26.4974 119.146 28.0054 119.191V119.2ZM29.8624 57.4108C28.8116 56.2297 27.8314 54.9873 26.9269 53.6901L26.6361 53.7215C25.7113 55.044 24.9594 56.48 24.3987 57.9943C26.238 58.0389 28.0751 57.8397 29.8624 57.4018V57.4108ZM25.7232 111.902C26.0051 110.892 26.4571 109.941 26.39 108.854C26.3343 108.194 26.0765 107.567 25.6516 107.059C25.6272 107.045 25.6082 107.023 25.5979 106.996C25.3015 106.64 24.877 106.416 24.4166 106.372C24.3588 106.431 24.2825 106.467 24.2009 106.475C24.1193 106.484 24.0373 106.463 23.9691 106.417C23.8455 106.446 23.7255 106.488 23.6112 106.543C21.5886 107.557 22.6043 110.048 23.5037 111.659C24.2495 111.758 24.9894 111.836 25.7232 111.893V111.902ZM25.7859 147.87C25.8462 138.575 26.552 129.294 27.898 120.097C26.2915 120.048 24.6896 119.967 23.0831 119.841L21.5349 119.72C21.4677 123.158 21.3201 126.61 21.3559 130.043C21.414 135.95 21.593 141.856 21.7586 147.762C21.7661 147.795 21.7661 147.829 21.7586 147.861H22.3716C23.4814 147.87 24.6314 147.866 25.7859 147.861V147.87ZM22.488 106.556C20.971 103.81 18.6844 100.556 15.655 99.3753C9.76626 97.0549 10.8805 106.61 11.404 109.698V109.734C15.2165 110.506 19.0439 111.131 22.8862 111.61C22.1747 110.56 21.6154 109.393 21.8391 108.091C21.9259 107.531 22.1487 107.001 22.488 106.547V106.556ZM15.2881 147.758L21.2529 147.848C21.2393 147.818 21.2303 147.786 21.2261 147.753C20.8055 141.856 20.6131 135.95 20.5504 130.034C20.5101 126.619 20.3804 123.118 20.4072 119.635C15.1046 119.186 9.50672 118.455 4.3697 116.897C6.37887 126.085 8.23589 135.299 10.1153 144.509C10.3927 145.855 10.2943 147.35 11.762 147.713C12.8046 147.964 14.2097 147.736 15.2881 147.749V147.758ZM20.4162 118.71C20.452 116.565 20.5594 114.429 20.801 112.337C14.383 111.411 8.05113 109.961 1.8683 108.002C1.15197 110.26 0.86509 112.634 1.02258 114.999C1.02666 115.066 1.00414 115.132 0.959928 115.183C1.89068 115.344 2.82143 115.528 3.74323 115.735C3.76747 115.7 3.80132 115.673 3.84067 115.657C3.88002 115.64 3.92318 115.636 3.96489 115.644C4.0066 115.652 4.04507 115.672 4.07562 115.702C4.10618 115.732 4.12751 115.77 4.13701 115.811C6.63392 116.368 9.11742 117.009 11.6278 117.463C14.5423 117.989 17.4718 118.402 20.4162 118.701V118.71Z" fill="#50735F"/>
</svg>
