<svg width="95" height="75" viewBox="0 0 95 75" fill="none" xmlns="http://www.w3.org/2000/svg">
<path d="M24.8229 50.3058C24.8477 50.3985 24.891 50.4366 24.9529 50.4201C24.9838 50.4118 24.9992 50.4076 24.9992 50.4076C24.9909 50.3767 25.0023 50.3571 25.0332 50.3489C25.0475 50.2788 24.9774 50.2644 24.8229 50.3058C25.1479 49.788 25.6521 49.0732 26.3354 48.1613C27.0412 47.2102 27.5341 46.5149 27.8139 46.0755C27.9089 46.1826 28.0027 46.2237 28.0954 46.1989C28.0883 47.1615 27.8397 47.841 27.3496 48.2374C27.3435 48.3384 27.3827 48.361 27.4672 48.3053C27.4981 48.297 27.529 48.2887 27.5599 48.2804C27.3977 48.7877 27.2155 49.0353 27.0135 49.0231C26.96 49.0706 26.9528 49.1057 26.992 49.1283C27.0395 49.1818 27.0674 49.224 27.0756 49.255C26.5999 49.5812 26.3344 49.9505 26.2792 50.3628C26.0938 50.4125 25.9094 50.5282 25.7262 50.7098C25.5739 50.8831 25.4144 51.0915 25.2477 51.3349C25.081 51.5784 24.9441 51.7476 24.8371 51.8425C25.0165 51.8938 25.1699 51.7865 25.2974 51.5204C25.4558 51.246 25.6277 51.084 25.8132 51.0343C25.8606 51.0879 25.8576 51.1384 25.8041 51.1859C25.7814 51.225 25.7743 51.2601 25.7825 51.291C25.8135 51.2827 25.8515 51.2394 25.8968 51.161C25.942 51.0826 26.0152 51.0465 26.1162 51.0525C26.1079 51.0216 26.0604 50.9681 25.9738 50.8919C25.918 50.8075 25.9169 50.7415 25.9704 50.694C26.1416 50.7144 26.2991 50.6225 26.4432 50.4183C26.5872 50.214 26.7211 50.0954 26.8447 50.0622L26.9317 50.3868C26.8389 50.4116 26.7319 50.5066 26.6105 50.6716C26.5117 50.7975 26.4076 50.8419 26.2983 50.805C26.3315 50.9286 26.3789 50.9821 26.4407 50.9656C26.1549 51.506 25.6043 52.2332 24.7892 53.1474C24.0049 54.0532 23.5294 54.6279 23.3627 54.8713C23.3318 54.8796 23.3122 54.8683 23.304 54.8374L23.2327 54.757C22.8089 55.4007 22.0453 56.3838 20.942 57.7064C19.8471 59.0599 19.0733 60.1286 18.6207 60.9125C18.7262 61.1824 19.122 62.1033 19.8083 63.6752C20.5254 65.2389 20.9464 66.501 21.0712 67.4614C21.1011 68.3147 20.9425 69.2683 20.5954 70.322C19.3751 72.0735 18.0734 72.9027 16.6901 72.8095C15.5128 72.4956 14.4283 71.4775 13.4368 69.7555C13.1061 69.0159 12.9571 68.4595 12.9896 68.0864C13.0977 67.1298 13.3675 66.0967 13.7991 64.9872C14.208 63.9169 14.5441 63.1312 14.8073 62.63C15.0788 62.1597 15.5993 61.2583 16.3686 59.9257C16.3272 59.7712 16.2455 59.528 16.1235 59.1963C16.0015 58.8646 15.9311 58.6019 15.9123 58.4081L16.0977 58.3584C15.8371 57.6332 15.6767 57.0964 15.6166 56.7481C15.5172 56.3772 15.3866 55.7662 15.2248 54.915C15.063 54.0639 14.9117 53.3756 14.7709 52.8502C14.8283 52.5698 14.8989 52.1533 14.9827 51.6008C15.0274 51.0256 15.0897 50.5782 15.1697 50.2586C15.2105 49.9164 15.309 49.5422 15.4652 49.1359C15.6214 48.7296 15.8405 48.3728 16.1225 48.0653C17.5306 48.2512 18.2259 48.744 18.2083 49.5438C17.8291 49.6123 17.4841 49.8704 17.1734 50.3181C16.8578 51.8603 16.7492 53.2477 16.8475 54.4802C16.9768 55.7045 17.3216 57.0532 17.882 58.5264C18.1866 58.1797 18.8793 57.3647 19.9599 56.0812C21.0323 54.7669 21.8701 53.8136 22.4734 53.2213C22.4651 53.1903 22.4414 53.1636 22.4022 53.1409C22.363 53.1183 22.3547 53.0874 22.3773 53.0482C22.4927 52.9842 22.6605 52.8067 22.8807 52.5158C23.0926 52.194 23.3335 51.9803 23.6034 51.8749L23.5537 51.6894C23.6321 51.7347 23.6641 51.7924 23.6498 51.8625C23.7033 51.815 23.8432 51.5953 24.0695 51.2034C24.3184 50.7723 24.5695 50.4731 24.8229 50.3058ZM27.4381 47.2695C27.3906 47.2159 27.3782 47.1696 27.4008 47.1304C27.4461 47.052 27.4646 46.9974 27.4563 46.9664C27.3553 46.9604 27.3018 47.0079 27.2957 47.1089C27.2896 47.2099 27.3371 47.2634 27.4381 47.2695ZM27.3645 47.7365C27.4263 47.7199 27.4602 47.6611 27.4663 47.5601C27.4746 47.591 27.4519 47.6302 27.3984 47.6777C27.3366 47.6942 27.3253 47.7138 27.3645 47.7365ZM27.0557 48.0677C27.0805 48.1604 27.1125 48.2181 27.1517 48.2407C26.9519 48.3605 26.7966 48.5843 26.6856 48.9122C26.801 48.8482 26.9081 48.7532 27.0069 48.6274C27.1057 48.5015 27.1849 48.3643 27.2445 48.2159L27.3214 47.9468C27.274 47.8932 27.2121 47.9098 27.136 47.9965C27.1133 48.0356 27.0866 48.0594 27.0557 48.0677ZM26.3296 48.5107C26.0702 48.779 25.9148 49.0028 25.8635 49.1822C26.1229 48.9139 26.2783 48.6901 26.3296 48.5107C26.3997 48.525 26.4419 48.4972 26.4563 48.427C26.4706 48.3569 26.4427 48.3147 26.3726 48.3004C26.3809 48.3313 26.3737 48.3663 26.3511 48.4055C26.3285 48.4447 26.3213 48.4798 26.3296 48.5107ZM26.1517 49.7013C26.1351 49.6395 26.1773 49.6116 26.2783 49.6177C26.4103 49.6154 26.5071 49.6061 26.569 49.5895C26.4823 49.5133 26.439 49.4752 26.439 49.4752C26.4307 49.4443 26.4337 49.3938 26.4481 49.3237C26.4933 49.2453 26.5077 49.1752 26.4911 49.1134C26.1699 49.3983 26.0567 49.5942 26.1517 49.7013ZM25.1904 50.0086C25.2523 49.992 25.2945 49.9641 25.3171 49.9249C25.3707 49.8774 25.4087 49.8341 25.4314 49.7949C25.4766 49.7165 25.5106 49.6577 25.5332 49.6186C25.494 49.5959 25.425 49.6475 25.3262 49.7734C25.25 49.8601 25.2048 49.9385 25.1904 50.0086ZM25.7717 49.9522C25.8026 49.9439 25.8459 49.982 25.9017 50.0664C25.9801 50.1117 26.046 50.1106 26.0995 50.0631C26.0913 50.0322 25.9891 49.9602 25.7932 49.847C25.8015 49.878 25.7902 49.8976 25.7592 49.9058C25.7592 49.9058 25.7634 49.9213 25.7717 49.9522ZM25.1574 50.8125C25.2501 50.7877 25.3572 50.6927 25.4786 50.5277C25.6227 50.3234 25.7576 50.2707 25.8835 50.3695C25.7819 49.8666 25.5923 49.9009 25.3147 50.4722C25.2242 50.629 25.1717 50.7424 25.1574 50.8125ZM24.5513 50.7761C24.6132 50.7596 24.6667 50.7121 24.7119 50.6337C24.5883 50.6668 24.5348 50.7143 24.5513 50.7761ZM24.7931 51.3076C24.5768 51.3656 24.4667 51.5111 24.4628 51.744C24.0693 51.8826 23.7141 52.2262 23.3973 52.7749C23.4674 52.7893 23.5334 52.7881 23.5952 52.7716C23.6797 52.7158 23.7456 52.7147 23.7931 52.7682C23.7947 52.4034 24.0149 52.1125 24.4537 51.8955C24.3986 52.3079 24.1425 52.774 23.6855 53.294C23.2285 53.814 22.9404 54.2225 22.8212 54.5195C23.6982 53.5888 24.2386 52.947 24.4422 52.5943C24.3329 52.5573 24.2598 52.5935 24.2228 52.7028C24.2454 52.6636 24.3299 52.6079 24.4761 52.5355C24.6141 52.4323 24.7212 52.3374 24.7974 52.2507C24.8735 52.164 24.8837 52.0785 24.828 51.994C24.8302 52.1259 24.7725 52.158 24.6549 52.0901C24.6157 52.0675 24.5879 52.0252 24.5713 51.9634C24.8059 51.6024 24.8798 51.3838 24.7931 51.3076C24.855 51.2911 24.924 51.2395 25.0001 51.1528C25.068 51.0352 25.137 50.9836 25.2071 50.998C25.1822 50.9052 25.1389 50.8671 25.0771 50.8837C25.007 50.8694 24.9339 50.9055 24.8577 50.9922L24.6971 51.1346C24.7054 51.1655 24.7136 51.1964 24.7219 51.2273C24.7611 51.25 24.7849 51.2767 24.7931 51.3076ZM22.9304 52.7013C22.9613 52.693 23.0446 52.5713 23.1804 52.3361C22.9806 52.4559 22.8972 52.5776 22.9304 52.7013ZM24.0555 52.4495L24.1483 52.4246L24.1234 52.3319L24.0307 52.3567L24.0555 52.4495ZM23.1473 53.1401C23.2401 53.1152 23.3132 53.079 23.3667 53.0316C23.4203 52.9841 23.4192 52.9181 23.3634 52.8337C23.1779 52.8834 23.1059 52.9855 23.1473 53.1401ZM19.6472 58.2522C19.7316 58.1964 19.7995 58.0788 19.8508 57.8994C19.9104 57.7509 19.967 57.653 20.0205 57.6055C20.0288 57.6364 20.0103 57.691 19.9651 57.7694C19.9507 57.8395 19.9899 57.8622 20.0826 57.8373C20.0744 57.8064 20.097 57.7672 20.1505 57.7197C20.2041 57.6723 20.2071 57.6218 20.1596 57.5682L20.0205 57.6055C20.0431 57.5663 20.0307 57.5199 19.9833 57.4664C19.9275 57.3819 19.8913 57.3088 19.8748 57.247C19.8582 57.1852 19.9117 57.1377 20.0354 57.1046C20.0746 57.1272 20.084 57.2241 20.0636 57.3952C20.2015 57.292 20.2788 57.2712 20.2954 57.3331C20.3037 57.364 20.3006 57.4145 20.2863 57.4846C20.4243 57.3814 20.5879 57.1884 20.7772 56.9058C20.9974 56.6149 21.1765 56.4178 21.3145 56.3146C21.2979 56.2528 21.2237 56.223 21.0918 56.2252C20.9825 56.1882 20.9237 56.1543 20.9154 56.1234C20.9894 55.9048 21.0881 55.7789 21.2118 55.7458C21.2201 55.7767 21.1903 55.8509 21.1224 55.9685C21.0771 56.0469 21.105 56.0891 21.206 56.0952C21.4307 56.0681 21.6376 55.9133 21.8269 55.6307C22.0389 55.3088 22.218 55.1118 22.3642 55.0395C22.3168 54.9859 22.3074 54.889 22.3361 54.7488C22.3648 54.6086 22.3667 54.4922 22.3418 54.3994C22.4572 54.3354 22.6137 54.1775 22.8112 53.9258C23.0088 53.6741 23.122 53.4781 23.1507 53.3379C23.1446 53.4389 23.0828 53.4555 22.9652 53.3876C22.9569 53.3567 22.9795 53.3175 23.0331 53.2701C23.1258 53.2452 23.1484 53.206 23.101 53.1525C22.6191 53.5797 22.368 53.8789 22.3476 54.05C22.3559 54.081 22.3755 54.0923 22.4064 54.084C22.4682 54.0674 22.5033 54.0746 22.5115 54.1055C22.3509 54.2479 22.2552 54.3233 22.2243 54.3316C22.0758 54.272 21.8605 54.3959 21.5785 54.7034C21.2882 54.9799 21.1102 55.243 21.0445 55.4925C21.23 55.4428 21.3268 55.4334 21.3351 55.4643C21.3042 55.4726 21.2775 55.4963 21.2548 55.5355C21.2322 55.5747 21.2054 55.5984 21.1745 55.6067C20.9951 55.5554 20.8632 55.5576 20.7788 55.6134C20.7561 55.6526 20.7305 55.7423 20.7018 55.8825C20.6897 56.0845 20.6444 56.1629 20.566 56.1176C20.5577 56.0867 20.569 56.0671 20.6 56.0588C20.6535 56.0113 20.6565 55.9608 20.6091 55.9073C19.8452 56.642 19.5737 57.1123 19.7945 57.3182C19.4213 57.2857 19.1597 57.422 19.0096 57.7273C18.8904 58.0243 18.8846 58.3737 18.9923 58.7755C19.0541 58.7589 19.1077 58.7114 19.1529 58.6331C19.1198 58.5094 19.1537 58.4506 19.2547 58.4567C19.2961 58.6112 19.3478 58.6802 19.4096 58.6637C19.5227 58.4677 19.6102 58.3614 19.672 58.3449L19.6472 58.2522ZM16.5292 59.7833C16.4999 59.4267 16.3738 59.0796 16.1508 58.7418C16.1673 58.8036 16.2129 58.9736 16.2874 59.2518C16.362 59.53 16.4426 59.7071 16.5292 59.7833ZM18.5096 58.4576L18.6023 58.4327L18.5775 58.34L18.4847 58.3649L18.5096 58.4576ZM18.0617 58.8261C18.0948 58.9497 18.163 59.0805 18.2662 59.2185C18.4004 59.3482 18.4139 59.4605 18.3068 59.5555C18.4222 59.4914 18.4964 59.5212 18.5295 59.6449C18.9661 59.296 19.1822 58.9896 19.1778 58.7258C19.0872 58.8826 19.0152 58.9847 18.9617 59.0321C18.8954 58.7849 18.8035 58.6273 18.6859 58.5594C18.6633 58.5986 18.6757 58.645 18.7232 58.6985C18.779 58.7829 18.7801 58.8489 18.7265 58.8964L18.6677 58.8624L18.575 58.8873C18.6142 58.9099 18.6308 58.9717 18.6247 59.0727C18.6187 59.1738 18.5847 59.2325 18.5229 59.2491C18.5146 59.2182 18.4713 59.1801 18.3929 59.1349C18.3454 59.0813 18.3134 59.0236 18.2968 58.9618L18.4632 58.47C18.3788 58.5258 18.2985 58.597 18.2223 58.6836C18.177 58.762 18.1235 58.8095 18.0617 58.8261ZM16.2462 60.9524C16.1451 60.9463 16.0803 61.0134 16.0516 61.1536C16.1134 61.1371 16.1783 61.07 16.2462 60.9524C16.3389 60.9276 16.3996 60.845 16.4283 60.7048C16.3356 60.7297 16.2748 60.8122 16.2462 60.9524ZM15.9067 61.5403L15.9407 61.4815C15.9942 61.434 16.0169 61.3948 16.0086 61.3639L15.8231 61.4136C15.848 61.5063 15.8758 61.5486 15.9067 61.5403ZM15.1997 62.4254L15.2246 62.5182L15.4101 62.4685L15.3604 62.283L15.2213 62.3203C15.2378 62.3821 15.2307 62.4171 15.1997 62.4254ZM14.8331 63.4679L14.9258 63.443C14.9341 63.4739 14.9691 63.4811 15.0309 63.4645C14.9752 63.3801 14.9926 63.2595 15.0831 63.1027C15.1509 62.9851 15.1766 62.8954 15.16 62.8336C14.9067 63.0009 14.7977 63.2123 14.8331 63.4679ZM15.4911 70.7455C15.6396 70.8051 15.7798 70.8338 15.9117 70.8316C16.0519 70.8603 16.2106 70.8343 16.3878 70.7537C16.5423 70.7123 16.6773 70.6596 16.7926 70.5956C16.8853 70.5707 17.0275 70.4829 17.219 70.3322C17.4188 70.2124 17.5455 70.1288 17.599 70.0813C17.6525 70.0339 17.7751 69.9348 17.9666 69.7841L18.2878 69.4992C18.9567 68.6574 19.2089 67.4966 19.0443 66.0168C18.8796 64.537 18.4587 63.2749 17.7813 62.2306C17.773 62.1997 17.7534 62.1884 17.7225 62.1967C17.6546 62.3143 17.4849 62.6082 17.2134 63.0785C16.9419 63.5488 16.7608 63.8624 16.6703 64.0191C16.5881 64.2068 16.438 64.512 16.22 64.9349C15.9794 65.3969 15.8262 65.7527 15.7606 66.0022C15.664 66.2599 15.5572 66.6033 15.4403 67.0322C15.3316 67.492 15.2723 67.8888 15.2623 68.2228C15.2607 68.5876 15.2674 68.9834 15.2823 69.4101C15.3055 69.8676 15.3751 70.3128 15.4911 70.7455ZM14.2933 64.6063C14.699 64.2657 14.8141 63.9533 14.6385 63.6691C14.6324 63.7701 14.5728 63.9186 14.4597 64.1145C14.3466 64.3105 14.2911 64.4744 14.2933 64.6063ZM13.9266 65.6488C14.0729 65.5765 14.1438 65.4084 14.1394 65.1445C14.0776 65.1611 14.0353 65.189 14.0127 65.2282C13.9674 65.3065 13.9531 65.3766 13.9697 65.4385C13.9636 65.5395 13.9493 65.6096 13.9266 65.6488ZM13.7445 65.8963C13.8764 65.8941 13.9043 65.9363 13.8281 66.023C13.7746 66.0705 13.7561 66.1251 13.7727 66.187C13.8963 66.1538 13.9559 66.0053 13.9515 65.7415C13.7804 65.7211 13.7114 65.7727 13.7445 65.8963ZM13.7421 66.4436C13.8348 66.4188 13.8687 66.36 13.8439 66.2673C13.7843 66.4157 13.7503 66.4745 13.7421 66.4436ZM13.6005 67.0282C13.6314 67.0199 13.6582 66.9962 13.6808 66.957C13.6786 66.825 13.6425 66.7519 13.5724 66.7376C13.5806 66.7685 13.5776 66.819 13.5633 66.8891C13.5489 66.9592 13.5613 67.0055 13.6005 67.0282ZM27.8232 48.7068L27.5856 49.1183C27.5299 49.0338 27.5133 48.972 27.536 48.9328C27.5586 48.8936 27.6008 48.8658 27.6626 48.8492C27.7471 48.7934 27.8006 48.746 27.8232 48.7068ZM27.6229 49.2574C27.6356 49.5521 27.4267 49.8234 26.9962 50.0713C26.8372 49.8489 26.9575 49.6179 27.3572 49.3783C27.3881 49.37 27.4499 49.3534 27.5426 49.3286C27.5652 49.2894 27.592 49.2657 27.6229 49.2574ZM22.2988 54.6097C22.3154 54.6716 22.2814 54.7304 22.197 54.7861C22.1434 54.8336 22.0899 54.8811 22.0364 54.9285C21.9828 54.976 21.9952 55.0224 22.0736 55.0676C22.0819 55.0985 22.0438 55.1419 21.9594 55.1976C21.8976 55.2142 21.8904 55.2492 21.9379 55.3028C21.8904 55.2492 21.8471 55.2112 21.8079 55.1885C21.7913 55.1267 21.8211 55.0525 21.8973 54.9658C21.9734 54.8791 22.0383 54.8121 22.0918 54.7646C22.1454 54.7171 22.2144 54.6655 22.2988 54.6097ZM20.8036 55.7061L20.8963 55.6812L20.9336 55.8203L20.8409 55.8452L20.8036 55.7061ZM20.3839 56.3652C20.3635 56.5363 20.2123 56.7756 19.9302 57.0831C19.9959 56.8336 20.1471 56.5943 20.3839 56.3652ZM20.6936 56.7791C20.6483 56.8575 20.5948 56.905 20.533 56.9216C20.4855 56.868 20.539 56.8205 20.6936 56.7791ZM19.6372 57.6585C19.6598 57.6193 19.6949 57.6265 19.7423 57.68L19.7672 57.7728C19.6971 57.7584 19.6466 57.7554 19.6157 57.7637C19.593 57.8029 19.5621 57.8111 19.5229 57.7885C19.5147 57.7576 19.526 57.738 19.5569 57.7297C19.6187 57.7132 19.6455 57.6894 19.6372 57.6585ZM19.075 58.157L19.0253 57.9715C19.149 57.9384 19.2006 58.0074 19.1802 58.1785C19.1493 58.1868 19.1297 58.1755 19.1214 58.1446C19.1214 58.1446 19.106 58.1487 19.075 58.157ZM19.6472 58.2522C19.3132 58.2422 19.2183 58.1352 19.3623 57.9309C19.4942 57.9287 19.5892 58.0358 19.6472 58.2522ZM19.075 58.157L19.0411 58.2158C19.0494 58.2467 19.0577 58.2776 19.0659 58.3085C19.035 58.3168 19 58.3096 18.9608 58.287C19.0143 58.2395 19.0524 58.1962 19.075 58.157ZM29.0409 44.3057L29.0036 44.1666C28.9418 44.1831 28.9192 44.2223 28.9357 44.2841C28.944 44.3151 28.9791 44.3222 29.0409 44.3057L29.0906 44.4911L28.9515 44.5284C29.0145 45.5054 28.7722 46.3322 28.2248 47.009C28.3054 47.1862 28.2717 47.4934 28.1238 47.9305C27.9986 48.3285 28.0113 48.6233 28.162 48.8148C28.0549 48.9097 27.9923 49.1087 27.9741 49.4118C27.9559 49.7148 28.0067 49.9662 28.1265 50.166C27.9802 50.2383 27.9176 50.4373 27.9386 50.763C27.9513 51.0577 27.9351 51.2443 27.8898 51.3227C28.0791 51.0401 28.4144 50.4367 28.8956 49.5127C29.3995 48.5495 29.9067 47.7841 30.4172 47.2166C30.9277 46.6492 31.5569 46.2155 32.3048 45.9158C32.4246 46.1156 32.5886 46.171 32.7966 46.0821C32.9142 46.15 33.0442 46.2643 33.1866 46.4249C33.403 46.3669 33.5462 46.3451 33.6163 46.3594C33.9178 46.7425 34.3539 47.752 34.9248 49.388C35.5266 51.0157 36.2028 51.994 36.9535 52.3229C36.9844 52.3146 36.9916 52.2796 36.975 52.2178C36.9811 52.1167 37.0192 52.0734 37.0893 52.0878C37.0749 52.1579 37.1028 52.2001 37.1729 52.2144C37.2513 52.2597 37.2946 52.2978 37.3029 52.3287C38.5227 51.9356 39.3054 51.3946 39.6509 50.7057C40.604 49.6883 41.874 48.1223 43.4607 46.0075C45.0783 43.8845 46.2525 42.3938 46.9833 41.5354C47.1301 41.9599 46.9988 42.4589 46.5893 43.0324C46.2107 43.5977 46.0123 44.0318 45.9941 44.3348C45.8705 44.368 45.823 44.3144 45.8517 44.1742C45.8291 44.2134 45.7416 44.3197 45.5892 44.493C45.4678 44.6581 45.4278 44.8179 45.4692 44.9724C45.1541 45.1562 45.0213 45.3409 45.071 45.5264C45.0401 45.5346 45.0051 45.5275 44.9659 45.5048C44.9184 45.4513 44.8792 45.4287 44.8483 45.437C44.8588 45.5998 44.7838 45.7524 44.6231 45.8948C44.4934 46.029 44.438 46.1929 44.4568 46.3866C44.5412 46.3309 44.6061 46.2638 44.6513 46.1854C44.7275 46.0988 44.8232 46.0234 44.9386 45.9594C44.9657 46.184 44.8721 46.3913 44.658 46.5812C44.4355 46.7402 44.3296 46.9011 44.3401 47.0639L44.5255 47.0142C44.594 47.3934 44.4119 47.641 43.9792 47.757C43.9957 47.8188 44.0515 47.9032 44.1464 48.0103C44.2331 48.0865 44.2497 48.1483 44.1961 48.1958C44.1426 48.2432 44.0446 48.1867 43.9022 48.026C43.9066 48.2899 43.7493 48.6302 43.4303 49.047C43.1422 49.4554 43.0046 49.8071 43.0173 50.1018C42.9245 50.1267 42.8586 50.1278 42.8194 50.1051C42.2852 51.5734 41.292 52.7506 39.8399 53.6366C38.21 54.1065 36.7812 53.8433 35.5535 52.8471C34.3567 51.8426 33.3346 50.3772 32.4872 48.4509C31.6742 49.497 30.7981 51.1729 29.8589 53.4785C28.9113 55.7533 28.3286 57.1021 28.1106 57.5249L28.1975 57.8494C28.0678 57.9836 27.9721 58.0589 27.9103 58.0755C27.8567 58.123 27.7557 58.1169 27.6072 58.0573C27.4361 58.0369 27.3042 58.0391 27.2115 58.064C26.4315 57.3785 25.8803 56.6814 25.5578 55.9727C25.6359 52.3076 25.6675 50.2617 25.6525 49.835L25.4671 49.8847C25.4505 49.8229 25.4102 49.7343 25.3462 49.619C25.2821 49.5036 25.2531 49.3954 25.2592 49.2944C25.2261 49.1708 25.2476 49.0656 25.3238 48.979C25.4165 48.9541 25.4711 48.9726 25.4877 49.0344C25.7918 48.191 25.7765 46.5883 25.4418 44.2265C25.4727 44.2182 25.5077 44.2254 25.5469 44.248C25.5552 44.2789 25.5748 44.2902 25.6057 44.2819C25.5869 44.0882 25.5896 43.7893 25.6139 43.3853C25.6299 42.9503 25.616 42.5896 25.5724 42.3031C25.5597 42.0084 25.5047 41.7415 25.4076 41.5025C25.5169 41.5395 25.5776 41.457 25.5897 41.2549C25.5935 41.022 25.5295 40.9067 25.3976 40.9089C25.3645 40.7852 25.4263 40.7687 25.583 40.8592C25.5251 40.6428 25.5187 40.4954 25.564 40.4171C25.5557 40.3861 25.5361 40.3748 25.5052 40.3831C25.4268 40.3379 25.3948 40.2802 25.4091 40.2101C25.5388 40.0759 25.5777 39.8502 25.5258 39.5328C25.4656 39.1845 25.4849 38.9474 25.5837 38.8216C25.5754 38.7907 25.5095 38.7918 25.3858 38.8249C25.4394 38.7774 25.4692 38.7032 25.4752 38.6022C25.5122 38.4929 25.542 38.4187 25.5646 38.3795C25.5481 38.3176 25.513 38.3105 25.4595 38.3579C25.4286 38.3662 25.3935 38.3591 25.3543 38.3364C25.4757 38.1714 25.5455 37.9373 25.5637 37.6343C25.5306 37.5107 25.4842 37.5231 25.4246 37.6716C25.4329 37.7025 25.4412 37.7334 25.4495 37.7643C25.4301 37.0738 25.4646 36.5842 25.5528 36.2955C25.5363 36.2337 25.5095 36.2574 25.4725 36.3667C25.4273 36.4451 25.3922 36.4379 25.3674 36.3452C25.2951 36.1989 25.3588 36.0659 25.5586 35.9461C25.4984 35.5978 25.4669 35.1093 25.4641 34.4806C25.4922 33.8436 25.4566 33.3397 25.3572 32.9688C25.3881 32.9605 25.4231 32.9677 25.4623 32.9903C25.5015 33.0129 25.5324 33.0046 25.555 32.9655C25.5054 32.78 25.4843 32.4543 25.492 31.9885C25.4914 31.4917 25.458 31.1197 25.3918 30.8724C25.4227 30.8641 25.4464 30.8909 25.463 30.9527C25.5104 31.0062 25.5496 31.0289 25.5805 31.0206C25.564 30.9588 25.5587 30.8774 25.5648 30.7763C25.5709 30.6753 25.5811 30.5898 25.5954 30.5197C25.5562 30.497 25.5264 30.5713 25.506 30.7424C25.442 30.627 25.4428 30.4446 25.5084 30.1951C25.5967 29.9064 25.6439 29.7116 25.65 29.6106C25.6251 29.5178 25.5746 29.5148 25.4985 29.6015C25.4427 29.517 25.4303 29.4707 25.4612 29.4624C25.4838 29.4232 25.5302 29.4108 25.6003 29.4251C25.5672 29.3015 25.5638 29.1036 25.5903 28.8315C25.6168 28.5593 25.5856 28.3192 25.4967 28.1112C25.5585 28.0946 25.6007 28.0667 25.6233 28.0275C25.646 27.9883 25.6531 27.9533 25.6449 27.9224C25.6592 27.8523 25.6777 27.7976 25.7003 27.7584C25.6694 27.7667 25.6385 27.775 25.6076 27.7833C25.6258 27.4802 25.6542 27.0917 25.6928 26.6175C25.7231 26.1125 25.7473 25.7084 25.7655 25.4054C25.7098 25.3209 25.6871 25.3601 25.6976 25.523C25.6916 25.624 25.6885 25.6745 25.6885 25.6745C25.5853 25.5365 25.5933 25.319 25.7125 25.022C25.8543 24.6859 25.8386 24.4416 25.6652 24.2893L25.8507 24.2396C25.6564 23.7616 25.6704 23.4431 25.8928 23.2841C25.8371 23.1997 25.804 23.0761 25.7935 22.9132C25.8658 23.0595 25.9152 22.9966 25.9416 22.7244C25.9538 22.5224 25.9557 22.406 25.9474 22.375C26.0523 22.1482 26.0293 21.939 25.8786 21.7475C26.0122 21.3804 26.136 20.6681 26.2502 19.6105C26.3561 18.522 26.5787 17.6838 26.9182 17.0959C27.2802 16.4688 27.8909 16.0899 28.7503 15.959C28.8845 16.0887 29.0454 16.1946 29.233 16.2769C29.4124 16.3282 29.6114 16.3908 29.83 16.4648C30.0712 16.4995 30.2661 16.5467 30.4146 16.6063C31.2586 17.4071 31.7809 18.9236 31.9814 21.1558C31.9113 21.1414 31.8537 21.1735 31.8084 21.2518L31.7869 21.357C31.82 21.4806 31.8943 21.5104 32.0096 21.4464C31.9644 21.5248 31.9553 21.6763 31.9823 21.9009C32.0011 22.0947 31.9683 22.2194 31.8838 22.2752C32.0451 22.6295 32.0901 23.2303 32.019 24.0776C31.9705 24.8857 31.968 25.433 32.0116 25.7195L31.7335 25.794L31.808 26.0722C31.8306 26.033 31.8295 25.967 31.8047 25.8743C31.9554 26.0658 31.996 26.4028 31.9265 26.8852C31.8487 27.3368 31.8346 27.6552 31.8843 27.8407C31.8617 27.8799 31.804 27.9119 31.7113 27.9368C31.6412 27.9224 31.5752 27.9235 31.5134 27.9401C31.5526 27.9627 31.6072 27.9812 31.6773 27.9955L31.7825 28.0171C31.7892 28.4128 31.7373 29.023 31.627 29.8477C31.5167 30.6723 31.4844 31.2939 31.5303 31.7122C31.3592 31.6918 31.2623 31.7012 31.2397 31.7404C31.2171 31.7796 31.2253 31.8105 31.2645 31.8332C31.3037 31.8558 31.3471 31.8939 31.3945 31.9474C31.4729 31.9927 31.5204 32.0462 31.537 32.108C31.5226 32.1781 31.463 32.3266 31.3582 32.5535C31.2759 32.7411 31.2318 32.8855 31.2257 32.9865C31.2423 33.0483 31.295 33.1833 31.3839 33.3914L31.1521 33.4535C31.2305 33.4987 31.247 33.5605 31.2018 33.6389C31.1874 33.709 31.1493 33.7524 31.0875 33.7689L31.1993 34.1862C31.1458 34.2337 31.084 34.2502 31.0139 34.2359L30.9087 34.2144C30.9501 34.3689 31.0326 34.4296 31.1563 34.3965C31.1811 34.4892 31.137 34.6336 31.0239 34.8295C30.9333 34.9863 30.9397 35.1337 31.0429 35.2717C30.8884 35.3131 30.802 35.4853 30.7838 35.7883C30.7965 36.0831 30.7298 36.2666 30.5835 36.3389C30.7176 36.4686 30.7108 36.7521 30.5629 37.1893C30.4459 37.6181 30.4545 37.8974 30.5886 38.0271C30.5969 38.0581 30.5362 38.1406 30.4065 38.2747C30.3077 38.4006 30.2945 38.5366 30.3668 38.6829C30.3132 38.7304 30.2627 38.7273 30.2153 38.6738C30.1678 38.6203 30.1286 38.5976 30.0977 38.6059C30.1617 38.7213 30.2031 38.8758 30.2219 39.0696C30.2407 39.2633 30.2893 39.3828 30.3677 39.4281C30.1331 39.7891 29.9607 40.3819 29.8504 41.2066C29.7627 41.992 29.5665 42.5581 29.2618 42.9047C29.2701 42.9357 29.3093 42.9583 29.3794 42.9726L29.4721 42.9478C29.4849 43.2425 29.4087 43.3292 29.2436 43.2078C29.3552 43.3767 29.3626 43.59 29.266 43.8478C29.1695 44.1056 29.1253 44.2499 29.1336 44.2808L29.0409 44.3057ZM28.9443 38.5671C29.4321 36.1837 29.7112 34.3199 29.7818 32.9759C29.8127 32.9676 29.8477 32.9747 29.8869 32.9974C29.9653 33.0426 29.9921 33.0189 29.9672 32.9262C29.9507 32.8643 29.9115 32.8417 29.8496 32.8583C29.7795 32.8439 29.7517 32.8017 29.766 32.7316C30.1081 30.9173 30.3791 28.3434 30.5792 25.01C30.4782 25.004 30.4288 25.0669 30.431 25.1988C30.4559 25.2915 30.4529 25.342 30.4219 25.3503C30.3904 24.8618 30.3843 24.0353 30.4035 22.8706C30.4227 21.7059 30.3699 20.6434 30.2451 19.683C30.1512 18.7143 29.9265 17.8138 29.5709 16.9814C29.2392 17.1034 28.9881 17.4026 28.8176 17.879C28.6779 18.3471 28.5546 18.6286 28.4475 18.7235C28.3146 19.5874 28.0101 21.7892 27.534 25.3291C27.5506 25.3909 27.5868 25.464 27.6425 25.5485C27.6983 25.6329 27.7344 25.706 27.751 25.7679C27.6092 26.104 27.5181 26.6916 27.4779 27.5306C27.4686 28.3613 27.4198 28.921 27.3315 29.2097C27.4464 30.5041 27.4789 32.6653 27.4289 35.6934C27.3707 38.6906 27.4322 40.96 27.6133 42.5017C27.7077 42.112 27.8757 41.2553 28.1173 39.9317C28.3899 38.5997 28.633 37.5904 28.8465 36.9038C29.3468 32.9599 29.8149 29.6375 30.2507 26.9367C30.2238 28.5672 29.9894 30.7834 29.5475 33.5853C29.0973 36.3562 28.8389 38.2972 28.7722 39.4083C28.6282 39.6126 28.5048 39.8941 28.4022 40.2529C28.3222 40.5725 28.2474 40.9735 28.1779 41.4559C28.131 41.8992 28.0861 42.2259 28.043 42.4362C28.3952 42.1431 28.5408 41.574 28.4801 40.7289C28.7974 40.677 28.8567 40.2802 28.658 39.5383C28.6889 39.53 28.7239 39.5372 28.7631 39.5598C28.8332 39.5742 28.8796 39.5618 28.9022 39.5226C28.9083 39.4216 28.9019 39.2742 28.8831 39.0805C28.887 38.8475 28.9074 38.6764 28.9443 38.5671ZM27.6336 18.0969C27.5944 18.0742 27.5624 18.0165 27.5375 17.9238C27.5436 17.8228 27.5157 17.7806 27.4539 17.7972C27.386 17.9147 27.4109 18.0075 27.5284 18.0753C27.5367 18.1062 27.5718 18.1134 27.6336 18.0969ZM26.8893 18.8429L27.0748 18.7932C27.0417 18.6696 26.9716 18.6552 26.8645 18.7502L26.8893 18.8429ZM26.5235 20.6305L26.5484 20.7232C26.6185 20.7376 26.6452 20.7138 26.6287 20.652C26.6347 20.551 26.6069 20.5088 26.545 20.5253C26.5616 20.5872 26.5544 20.6222 26.5235 20.6305ZM30.746 19.6979C30.7996 19.6504 30.8026 19.5999 30.7551 19.5463C30.6994 19.4619 30.6406 19.4279 30.5787 19.4445C30.6284 19.63 30.6842 19.7144 30.746 19.6979ZM26.6014 21.1066L26.5517 20.9211C26.4198 20.9233 26.3662 20.9708 26.3911 21.0635C26.4468 21.148 26.5169 21.1623 26.6014 21.1066ZM26.4441 21.4469C26.5451 21.4529 26.5832 21.4096 26.5584 21.3169C26.5192 21.2942 26.48 21.2716 26.4408 21.249L26.4532 21.2953C26.4389 21.3655 26.4358 21.416 26.4441 21.4469ZM26.9359 21.6132C26.9276 21.5823 26.9348 21.5473 26.9574 21.5081C27.0027 21.4297 27.0016 21.3637 26.9541 21.3102C26.8531 21.3041 26.7996 21.3516 26.7935 21.4526C26.8184 21.5454 26.8658 21.5989 26.9359 21.6132ZM26.4168 21.9014C26.4334 21.9632 26.4613 22.0055 26.5005 22.0281L26.7786 21.9535C26.7847 21.8525 26.7259 21.8186 26.6023 21.8517C26.5013 21.8457 26.4395 21.8622 26.4168 21.9014ZM30.7196 20.8976L30.9978 20.823C30.973 20.7303 30.8678 20.7088 30.6824 20.7585L30.7196 20.8976ZM26.2174 23.1972C26.3184 23.2032 26.3678 23.1403 26.3656 23.0084C26.3943 22.8682 26.4199 22.7785 26.4426 22.7393C26.4757 22.8629 26.5077 22.9206 26.5386 22.9123C26.5612 22.8731 26.5643 22.8226 26.5477 22.7608C26.5621 22.6907 26.5496 22.6444 26.5104 22.6217C26.463 22.5682 26.4083 22.5497 26.3465 22.5663L26.2174 23.1972ZM26.3201 23.766C26.3118 23.7351 26.3149 23.6846 26.3292 23.6145C26.3436 23.5444 26.3466 23.4939 26.3383 23.4629C26.3217 23.4011 26.2897 23.3434 26.2422 23.2899C26.0839 23.5643 26.1098 23.7229 26.3201 23.766ZM26.6107 23.7378L26.7498 23.7005C26.7167 23.5769 26.662 23.5584 26.5859 23.6451L26.6107 23.7378ZM26.5462 24.0533C26.4965 23.8678 26.4253 23.7875 26.3325 23.8123C26.3657 23.936 26.4369 24.0163 26.5462 24.0533ZM26.2713 24.3257C26.0036 24.5631 25.9606 24.7734 26.1422 24.9566C26.2493 24.8616 26.2923 24.6513 26.2713 24.3257C26.3558 24.2699 26.401 24.1915 26.4071 24.0905C26.3535 24.138 26.3072 24.1504 26.268 24.1278C26.2597 24.0969 26.2514 24.066 26.2431 24.0351C26.2183 23.9423 26.1904 23.9001 26.1595 23.9084C26.1225 24.0177 26.1598 24.1568 26.2713 24.3257ZM31.0344 22.9997C31.1807 22.9274 31.1754 22.846 31.0187 22.7555C31.0518 22.8791 31.0571 22.9605 31.0344 22.9997ZM26.624 24.5293C26.5909 24.4057 26.6362 24.3273 26.7598 24.2942L26.735 24.2014C26.704 24.2097 26.6731 24.218 26.6422 24.2263L26.5834 24.1924C26.4703 24.3883 26.4838 24.5006 26.624 24.5293ZM26.9453 24.2445L27.0844 24.2072L27.0595 24.1145L26.9204 24.1518L26.9453 24.2445ZM30.4947 24.1382L30.6338 24.1009L30.6089 24.0082L30.4699 24.0455L30.4947 24.1382ZM26.3376 25.5005L26.1613 25.3987C26.1779 25.4605 26.2366 25.4945 26.3376 25.5005ZM26.1961 26.0851C26.206 25.7512 26.1605 25.5811 26.0595 25.5751C26.0368 25.6143 26.0421 25.6957 26.0752 25.8193C26.1083 25.943 26.1486 26.0316 26.1961 26.0851ZM26.5389 25.6951C26.5698 25.6868 26.6007 25.6785 26.6316 25.6702C26.6067 25.5775 26.5593 25.524 26.4892 25.5096L26.5389 25.6951ZM30.508 24.9297C30.5389 24.9214 30.5698 24.9132 30.6007 24.9049C30.5759 24.8121 30.5284 24.7586 30.4583 24.7443L30.508 24.9297ZM26.8022 26.1215C26.8723 26.1358 26.8949 26.0966 26.8701 26.0039L26.7989 25.9236L26.8113 25.97C26.7969 26.0401 26.7939 26.0906 26.8022 26.1215ZM26.0943 26.2615L26.1316 26.4005C26.2017 26.4149 26.2284 26.3912 26.2119 26.3293C26.2179 26.2283 26.1901 26.1861 26.1282 26.2027C26.1365 26.2336 26.1252 26.2532 26.0943 26.2615ZM26.0579 26.8675C26.2268 26.756 26.3143 26.6497 26.3204 26.5487C26.2894 26.557 26.2698 26.5457 26.2616 26.5148C26.1832 26.4695 26.1172 26.4706 26.0637 26.5181C26.0802 26.5799 26.0814 26.6459 26.067 26.716C26.0444 26.7552 26.0414 26.8057 26.0579 26.8675ZM26.1822 27.3312C26.2274 27.2528 26.2263 27.1868 26.1788 27.1333C26.1313 27.0797 26.0808 27.0767 26.0273 27.1242C26.0069 27.2953 26.0585 27.3643 26.1822 27.3312ZM26.4852 27.3494C26.5553 27.3637 26.5821 27.34 26.5655 27.2781C26.5633 27.1462 26.5313 27.0885 26.4694 27.1051C26.4777 27.136 26.4747 27.1865 26.4603 27.2566C26.4377 27.2958 26.446 27.3267 26.4852 27.3494ZM26.0936 28.2991C26.1985 28.0722 26.1662 27.7661 25.9967 27.3809C26.0304 28.0013 26.0627 28.3073 26.0936 28.2991ZM26.39 27.9215C26.4518 27.9049 26.4899 27.8616 26.5043 27.7915C26.5412 27.6822 26.5514 27.5966 26.5349 27.5348C26.5492 27.4647 26.5213 27.4225 26.4512 27.4081C26.4761 27.5009 26.4742 27.6173 26.4455 27.7575C26.4002 27.8359 26.3817 27.8906 26.39 27.9215ZM26.3097 27.9927C26.3014 27.9618 26.3086 27.9267 26.3312 27.8875C26.3456 27.8174 26.3486 27.7669 26.3403 27.736C26.3238 27.6742 26.2959 27.632 26.2567 27.6094C26.265 27.6403 26.2619 27.6908 26.2476 27.7609C26.2333 27.831 26.2302 27.8815 26.2385 27.9124C26.2468 27.9433 26.2705 27.9701 26.3097 27.9927ZM26.9315 28.2733C26.8758 28.1889 26.8509 28.0961 26.857 27.9951C26.8857 27.8549 26.9113 27.7652 26.934 27.726C26.9483 27.6559 26.9008 27.6024 26.7915 27.5654C26.8065 27.9921 26.8531 28.2281 26.9315 28.2733ZM26.4339 28.4563L26.5267 28.4315L26.4894 28.2924L26.3967 28.3172L26.4339 28.4563ZM26.0391 29.2082C26.0203 29.0144 26.0788 28.8 26.2145 28.5648C26.1362 28.5196 26.063 28.5557 25.9951 28.6733C25.9273 28.7909 25.8944 28.9156 25.8967 29.0475C25.9215 29.1403 25.969 29.1938 26.0391 29.2082ZM30.6655 27.3722L30.6904 27.4649C30.7296 27.4875 30.7605 27.4793 30.7831 27.4401C30.7665 27.3782 30.7387 27.336 30.6995 27.3134C30.7078 27.3443 30.6964 27.3639 30.6655 27.3722ZM26.2957 29.2388C26.2543 29.0842 26.1986 28.9998 26.1285 28.9854L26.1657 29.1245C26.1823 29.1863 26.1947 29.2327 26.203 29.2636C26.2339 29.2553 26.2648 29.2471 26.2957 29.2388ZM25.91 29.8391C25.9718 29.8225 26.014 29.7946 26.0366 29.7554C26.0819 29.677 26.1283 29.6646 26.1757 29.7182C26.1652 29.5553 26.0673 29.4988 25.8818 29.5485C25.8901 29.5794 25.887 29.6299 25.8727 29.7C25.8584 29.7701 25.8708 29.8164 25.91 29.8391ZM26.5069 30.027C26.4512 29.9425 26.4686 29.8219 26.5591 29.6651C26.6413 29.4775 26.601 29.3889 26.4382 29.3994C26.4547 29.4612 26.4445 29.5468 26.4076 29.656C26.3706 29.7653 26.3449 29.855 26.3306 29.9251C26.3389 29.956 26.3976 29.99 26.5069 30.027ZM26.6676 29.8845L26.8066 29.8473L26.7694 29.7082L26.6303 29.7454L26.6676 29.8845ZM30.7634 29.0355C30.8931 28.9014 30.9259 28.7766 30.8619 28.6613C30.8536 28.6304 30.8185 28.6232 30.7567 28.6398C30.7733 28.7016 30.7589 28.7717 30.7137 28.8501C30.6911 28.8893 30.7076 28.9511 30.7634 29.0355ZM26.1236 30.08L26.3091 30.0303C26.2842 29.9376 26.2141 29.9232 26.0988 29.9873L26.1236 30.08ZM31.131 28.7383L31.2701 28.701L31.2452 28.6083L31.1061 28.6455L31.131 28.7383ZM27.0757 29.9242C27.1149 29.9469 27.1458 29.9386 27.1685 29.8994C27.121 29.8459 27.0777 29.8078 27.0385 29.7852L27.0757 29.9242ZM25.9448 30.5254L26.1766 30.4633C26.1374 30.4407 26.1209 30.3789 26.1269 30.2779C26.133 30.1769 26.0897 30.1388 25.9969 30.1636C25.9909 30.2646 25.9735 30.3852 25.9448 30.5254ZM26.7645 30.8027L26.9681 30.45C26.8362 30.4522 26.7496 30.3761 26.7082 30.2215C26.7247 30.2833 26.7341 30.3802 26.7363 30.5121C26.7695 30.6358 26.7788 30.7326 26.7645 30.8027ZM26.0293 31.3973C26.0437 31.3272 26.055 31.3076 26.0633 31.3385C26.1273 31.4538 26.1748 31.5074 26.2057 31.4991C26.1703 31.2435 26.1041 30.9963 26.0069 30.7573C25.9142 30.7821 25.872 30.81 25.8802 30.8409C25.9504 30.8552 25.9597 30.9521 25.9084 31.1315C25.888 31.3026 25.9283 31.3912 26.0293 31.3973ZM26.373 31.7524C26.5893 31.6945 26.5675 31.5512 26.3075 31.3227C26.2849 31.3619 26.3067 31.5052 26.373 31.7524ZM27.2042 31.3309C27.1793 31.2382 27.0968 31.1775 26.9566 31.1488C26.9815 31.2415 27.064 31.3022 27.2042 31.3309ZM25.9251 32.1209C25.956 32.1126 25.9941 32.0693 26.0393 31.9909C26.1155 31.9042 26.1773 31.8877 26.2248 31.9412C26.1834 31.7867 26.1389 31.6826 26.0914 31.6291L25.906 31.6788C25.9844 31.724 26.0051 31.8013 25.9681 31.9106C25.9229 31.989 25.9085 32.0591 25.9251 32.1209ZM26.1048 32.4206L26.0551 32.2352L26.1048 32.4206ZM26.6148 32.284L26.7075 32.2591L26.6702 32.12L26.5775 32.1449L26.6148 32.284ZM25.9475 32.7609C25.9784 32.7526 26.0176 32.7753 26.0651 32.8288C26.1125 32.8823 26.163 32.8854 26.2166 32.8379C26.2701 32.7904 26.2494 32.7131 26.1545 32.6061C26.0904 32.4907 26.0275 32.4413 25.9657 32.4579C25.9204 32.5363 25.9143 32.6373 25.9475 32.7609ZM26.8193 32.6764C26.7945 32.5837 26.7511 32.5456 26.6893 32.5621C26.7142 32.6549 26.7575 32.693 26.8193 32.6764ZM25.8366 33.0888C25.8305 33.1898 25.8667 33.2629 25.945 33.3082C25.9903 33.2298 25.9964 33.1288 25.9632 33.0052C25.9715 33.0361 25.9293 33.064 25.8366 33.0888ZM26.6472 33.5176C26.7007 33.4701 26.7264 33.3804 26.7241 33.2485C26.7528 33.1083 26.7434 33.0114 26.696 32.9579C26.6733 32.9971 26.6571 33.1837 26.6472 33.5176ZM30.3869 32.2671C30.4797 32.2422 30.5177 32.1989 30.5012 32.1371C30.5155 32.067 30.4835 32.0093 30.4051 31.964C30.4526 32.0176 30.4537 32.0835 30.4085 32.1619C30.3858 32.2011 30.3787 32.2362 30.3869 32.2671ZM25.8805 33.6237L26.0659 33.574C26.0411 33.4812 26.0091 33.4236 25.9699 33.4009C25.9533 33.3391 25.9028 33.3361 25.8184 33.3918L25.8805 33.6237ZM26.2514 33.5243L26.2763 33.617C26.3464 33.6313 26.3731 33.6076 26.3566 33.5458C26.3626 33.4448 26.3347 33.4026 26.2729 33.4191C26.2895 33.4809 26.2823 33.516 26.2514 33.5243ZM29.9639 32.7283C29.9556 32.6974 29.9669 32.6778 29.9978 32.6695C29.973 32.5768 29.9338 32.5541 29.8803 32.6016C29.9051 32.6943 29.933 32.7366 29.9639 32.7283ZM25.9435 34.6006C26.1185 34.3881 26.1604 34.1118 26.0693 33.7718C26.0384 33.7801 26.0075 33.7884 25.9765 33.7967C25.9374 33.7741 25.9023 33.7669 25.8714 33.7752C25.857 33.8453 25.8468 33.9308 25.8408 34.0318C25.8656 34.1246 25.8792 34.2369 25.8814 34.3688C25.9062 34.4615 25.9269 34.5388 25.9435 34.6006ZM26.5396 34.0434C26.6097 34.0577 26.6417 34.1154 26.6356 34.2164C26.751 34.1524 26.8106 34.0039 26.8144 33.771C26.6577 33.6804 26.566 33.7712 26.5396 34.0434ZM26.095 34.6097L26.2341 34.5725L26.2093 34.4797L26.0702 34.517L26.095 34.6097ZM30.3051 33.6307C30.3978 33.6059 30.4585 33.5234 30.4872 33.3832C30.3327 33.4246 30.272 33.5071 30.3051 33.6307ZM26.7259 34.7388C26.8164 34.5821 26.7957 34.5048 26.6638 34.507L26.7259 34.7388ZM25.8914 34.9625L26.0768 34.9128C26.052 34.82 25.9819 34.8057 25.8665 34.8697L25.8914 34.9625ZM26.1389 35.1446C26.2339 35.2517 26.267 35.3753 26.2383 35.5155C26.362 35.4824 26.4185 35.3844 26.408 35.2216C26.4202 35.0195 26.3829 34.8804 26.2962 34.8043C26.2736 34.8435 26.2706 34.894 26.2871 34.9558C26.2893 35.0877 26.24 35.1506 26.1389 35.1446ZM25.9759 35.8343C25.9676 35.8034 25.9665 35.7374 25.9726 35.6364C26.0013 35.4962 26.0073 35.3952 25.9908 35.3334C26.0051 35.2633 25.9576 35.2097 25.8483 35.1728C25.8649 35.2346 25.8588 35.3356 25.8301 35.4758C25.8241 35.5768 25.8139 35.6624 25.7995 35.7325C25.8078 35.7634 25.8666 35.7973 25.9759 35.8343ZM30.1545 34.3668L30.3399 34.3171C30.3316 34.2862 30.3234 34.2553 30.3151 34.2244C30.2985 34.1626 30.2748 34.1358 30.2439 34.1441C30.2356 34.1132 30.2005 34.106 30.1387 34.1225C30.147 34.1535 30.144 34.204 30.1296 34.2741C30.107 34.3133 30.1153 34.3442 30.1545 34.3668ZM29.9938 34.5092C29.9856 34.4783 29.9927 34.4433 30.0154 34.4041C30.038 34.3649 30.0339 34.3494 30.0029 34.3577C29.9947 34.3268 29.9596 34.3196 29.8978 34.3362C29.9309 34.4598 29.9629 34.5175 29.9938 34.5092ZM26.7186 36.3807C26.7021 36.3189 26.7247 36.2797 26.7865 36.2631C26.7307 36.1787 26.7089 36.0354 26.7211 35.8334C26.6592 35.85 26.6098 35.9129 26.5729 36.0222C26.5585 36.0923 26.5638 36.1737 26.5886 36.2664C26.6135 36.3592 26.6568 36.3972 26.7186 36.3807ZM25.8807 36.4064C26.064 36.2248 26.1514 36.1185 26.1432 36.0876C25.9207 36.2466 25.8333 36.3529 25.8807 36.4064ZM30.2978 35.2726C30.3287 35.2643 30.3637 35.2715 30.4029 35.2941C30.4421 35.3167 30.473 35.3084 30.4957 35.2692C30.5017 35.1682 30.4584 35.1301 30.3657 35.155C30.3038 35.1716 30.2812 35.2107 30.2978 35.2726ZM25.7483 36.8394C25.7958 36.893 25.8557 36.9929 25.928 37.1391C26.0312 37.2771 26.122 37.3688 26.2004 37.414C26.1364 37.2987 26.095 37.1441 26.0762 36.9504C26.08 36.7174 26.0469 36.5938 25.9768 36.5794C25.9707 36.6805 25.9368 36.7392 25.875 36.7558C25.8131 36.7724 25.7709 36.8003 25.7483 36.8394ZM25.9189 37.2907C25.9868 37.1731 25.9506 37.1 25.8104 37.0713C25.8518 37.2258 25.888 37.2989 25.9189 37.2907ZM25.8543 37.6061C25.8957 37.7607 25.8795 37.9472 25.8055 38.1658C25.8138 38.1967 25.9159 38.2688 26.1119 38.3819C26.1262 38.3118 26.1097 38.25 26.0622 38.1964C26.0147 38.1429 25.9869 38.1007 25.9786 38.0698C26.0404 38.0532 26.0909 38.0562 26.1301 38.0789C26.1218 38.048 26.0856 37.9748 26.0216 37.8595C25.9493 37.7132 25.944 37.6318 26.0059 37.6152C26.039 37.7389 26.071 37.7965 26.1019 37.7883C26.215 37.5923 26.1706 37.4882 25.9686 37.4761C25.9769 37.507 25.9656 37.5266 25.9346 37.5349L25.8543 37.6061ZM25.9919 38.8613C26.0846 38.8364 26.1536 38.7848 26.1989 38.7064C26.2358 38.5972 26.2151 38.5199 26.1367 38.4746C26.1616 38.5674 26.139 38.6065 26.0689 38.5922C25.9905 38.5469 25.9358 38.5285 25.9049 38.5367C25.8597 38.6151 25.8453 38.6852 25.8619 38.747C25.8785 38.8089 25.9218 38.8469 25.9919 38.8613ZM26.8049 38.7428C26.7575 38.6893 26.7367 38.612 26.7428 38.511C26.7798 38.4017 26.7519 38.3595 26.6592 38.3843C26.7254 38.6316 26.774 38.7511 26.8049 38.7428ZM29.5901 38.1953C29.6497 38.0468 29.6332 37.985 29.5404 38.0098C29.5095 38.0181 29.4869 38.0573 29.4725 38.1274C29.4891 38.1892 29.5283 38.2119 29.5901 38.1953ZM25.9009 40.3765C25.9937 40.3516 26.0472 40.3041 26.0616 40.234C26.0759 40.1639 26.0706 40.0825 26.0458 39.9898C26.0127 39.8662 25.992 39.7889 25.9837 39.758C26.0847 39.764 26.1578 39.7279 26.2031 39.6495C26.1865 39.5877 26.1658 39.5104 26.141 39.4177C26.147 39.3167 26.1418 39.2352 26.1252 39.1734C26.1086 39.1116 26.054 39.0931 25.9613 39.118C25.916 39.1963 25.8959 39.6158 25.9009 40.3765ZM26.6385 39.2346C26.7087 39.249 26.7426 39.1902 26.7404 39.0583C26.6929 39.0047 26.6496 38.9667 26.6104 38.944C26.6578 38.9976 26.6744 39.0594 26.6601 39.1295C26.6374 39.1687 26.6303 39.2037 26.6385 39.2346ZM26.3264 39.368C26.3965 39.3823 26.4346 39.339 26.4407 39.238C26.4467 39.137 26.4147 39.0793 26.3446 39.0649C26.3529 39.0958 26.3499 39.1464 26.3355 39.2165C26.3521 39.2783 26.349 39.3288 26.3264 39.368ZM29.764 38.8444L29.7889 38.9371L29.8816 38.9123C29.8733 38.8814 29.8847 38.8618 29.9156 38.8535L29.8783 38.7144L29.7856 38.7393C29.8021 38.8011 29.795 38.8361 29.764 38.8444ZM26.1021 40.571C26.1723 40.5854 26.2032 40.5771 26.1949 40.5462C26.2092 40.4761 26.204 40.3946 26.1791 40.3019C26.0864 40.3268 26.0607 40.4165 26.1021 40.571ZM25.9606 41.1556C26.1008 41.1842 26.1502 41.1213 26.1088 40.9668C26.0922 40.905 26.0644 40.8627 26.0252 40.8401C26.05 40.9328 26.0274 40.972 25.9573 40.9577C25.9407 40.8959 25.9509 40.8103 25.9879 40.701C26.0249 40.5917 25.9929 40.534 25.8918 40.528C25.9084 40.5898 25.9065 40.7063 25.8861 40.8774C25.8574 41.0176 25.8822 41.1103 25.9606 41.1556ZM26.2727 41.0222C26.3037 41.0139 26.3757 40.9118 26.4888 40.7159C26.3199 40.8274 26.2479 40.9295 26.2727 41.0222ZM25.9524 42.0522C26.0678 41.9882 26.1149 41.7933 26.0939 41.4677C26.063 41.476 26.028 41.4688 25.9888 41.4462C25.9413 41.3926 25.8908 41.3896 25.8373 41.4371C25.9201 41.7462 25.9585 41.9512 25.9524 42.0522ZM29.6897 41.349C29.6815 41.3181 29.6958 41.248 29.7328 41.1387C29.7841 40.9593 29.7438 40.8707 29.6119 40.8729C29.6594 40.9264 29.6687 41.0233 29.6401 41.1635C29.6031 41.2728 29.6196 41.3346 29.6897 41.349ZM25.8663 42.4728C25.8973 42.4646 25.9364 42.4872 25.9839 42.5407C26.0314 42.5943 26.0819 42.5973 26.1354 42.5498C26.1807 42.4714 26.1796 42.4055 26.1321 42.3519C26.1155 42.2901 26.0764 42.2675 26.0145 42.2841C26.0311 42.3459 26.0085 42.3851 25.9467 42.4016C25.8848 42.4182 25.8581 42.4419 25.8663 42.4728ZM26.6794 42.3544C26.7721 42.3295 26.8215 42.2666 26.8276 42.1656C26.7348 42.1904 26.6855 42.2534 26.6794 42.3544ZM28.5464 41.9038L28.5712 41.9965L28.664 41.9717C28.6474 41.9099 28.6195 41.8676 28.5803 41.845C28.5886 41.8759 28.5773 41.8955 28.5464 41.9038ZM28.6327 44.266C28.7028 44.2803 28.745 44.2524 28.7594 44.1823C28.7737 44.1122 28.7458 44.07 28.6757 44.0557C28.684 44.0866 28.6614 44.1258 28.6079 44.1732C28.5769 44.1815 28.5852 44.2124 28.6327 44.266ZM28.6436 45.6048C28.7341 45.448 28.6938 45.3594 28.5227 45.339C28.4322 45.4958 28.4725 45.5844 28.6436 45.6048ZM45.9808 43.5433C46.1271 43.471 46.2896 43.2121 46.4684 42.7667C46.2007 43.004 46.0382 43.2629 45.9808 43.5433ZM31.4008 47.5494C31.4709 47.5637 31.5173 47.5513 31.5399 47.5121C31.5543 47.442 31.5264 47.3998 31.4563 47.3855C31.4171 47.3628 31.3862 47.3711 31.3636 47.4103L31.4008 47.5494ZM45.6132 43.8406L45.638 43.9333L45.7771 43.896C45.7832 43.795 45.7512 43.7374 45.6811 43.723L45.6132 43.8406ZM45.4344 44.286C45.4261 44.2551 45.4529 44.2314 45.5147 44.2148C45.5909 44.1282 45.6052 44.0581 45.5577 44.0045C45.465 44.0294 45.4002 44.0964 45.3632 44.2057C45.3406 44.2449 45.3643 44.2717 45.4344 44.286ZM44.922 44.97C45.0622 44.9987 45.1919 44.8645 45.3111 44.5676C45.3707 44.4191 45.35 44.3418 45.2489 44.3357C45.2346 44.4058 45.1626 44.508 45.0329 44.6421C44.8949 44.7453 44.8579 44.8546 44.922 44.97ZM30.4008 49.01C30.3925 48.9791 30.4151 48.9399 30.4687 48.8924C30.5283 48.7439 30.5076 48.6667 30.4066 48.6606C30.4148 48.6915 30.3922 48.7307 30.3387 48.7782C30.2791 48.9267 30.2998 49.0039 30.4008 49.01ZM42.9276 47.5418C43.0264 47.4159 43.2395 47.1601 43.5667 46.7742C43.9167 46.3492 44.175 46.0149 44.3416 45.7715C44.5309 45.4889 44.6626 45.2383 44.7365 45.0197C44.646 45.1764 44.3651 45.5499 43.8937 46.14C43.4141 46.6992 43.0921 47.1664 42.9276 47.5418ZM29.9562 49.5764C30.0429 49.6525 30.1387 49.5772 30.2435 49.3503C30.2948 49.1709 30.2545 49.0823 30.1226 49.0845C30.1475 49.1773 30.1218 49.267 30.0456 49.3536C29.9695 49.4403 29.9397 49.5145 29.9562 49.5764ZM29.332 49.843C29.3237 49.8121 29.3463 49.7729 29.3999 49.7254C29.4677 49.6079 29.4512 49.546 29.3502 49.54C29.338 49.742 29.332 49.843 29.332 49.843ZM29.8114 49.963C29.9041 49.9382 29.9565 49.8247 29.9687 49.6227L29.7832 49.6724C29.7915 49.7033 29.7884 49.7538 29.7741 49.8239C29.7515 49.8631 29.7639 49.9095 29.8114 49.963ZM29.0911 50.0566L29.1159 50.1494C29.186 50.1637 29.2282 50.1358 29.2426 50.0657C29.2486 49.9647 29.2208 49.9225 29.1589 49.9391L29.0911 50.0566ZM26.9534 51.7227C26.9203 51.599 26.9252 51.4321 26.9683 51.2218C26.9721 50.9888 26.9266 50.8188 26.8316 50.7117L26.7795 51.0736C26.7138 51.3231 26.7006 51.4591 26.7398 51.4818C26.7481 51.5127 26.8193 51.593 26.9534 51.7227ZM28.6747 50.9136C28.8745 50.7938 28.9495 50.6412 28.8998 50.4557C28.838 50.4723 28.763 50.6249 28.6747 50.9136ZM29.3701 50.7273C29.5081 50.624 29.5719 50.491 29.5614 50.3282C29.3616 50.448 29.2978 50.581 29.3701 50.7273ZM44.2871 46.6806C44.3715 46.6248 44.393 46.5197 44.3516 46.3651C44.2197 46.3674 44.1394 46.4386 44.1107 46.5788C44.1046 46.6798 44.1634 46.7137 44.2871 46.6806ZM43.9783 47.0118C44.0566 47.0571 44.0793 47.0179 44.0461 46.8942C44.013 46.7706 43.9738 46.748 43.9286 46.8263L43.9783 47.0118ZM29.0771 51.3027C29.2603 51.1211 29.3158 50.9572 29.2435 50.8109C29.159 50.8667 29.0983 50.9492 29.0613 51.0585C29.0244 51.1678 29.0296 51.2492 29.0771 51.3027ZM28.3692 51.4427C28.5237 51.4013 28.569 51.3229 28.505 51.2075C28.3979 51.3025 28.3444 51.35 28.3444 51.35C28.3526 51.3809 28.3609 51.4118 28.3692 51.4427ZM43.614 47.5069C43.7995 47.4573 43.9065 47.3623 43.9352 47.2221C43.9579 47.1829 43.9187 47.1603 43.8177 47.1542C43.8342 47.216 43.7848 47.279 43.6695 47.343C43.5767 47.3679 43.5582 47.4225 43.614 47.5069ZM42.2455 48.5197C42.6241 47.9544 42.836 47.6326 42.8813 47.5542C42.496 47.7237 42.2841 48.0455 42.2455 48.5197ZM26.8243 52.3536C26.7316 52.3784 26.6656 52.3795 26.6264 52.3569C26.6927 52.6042 26.7454 52.7391 26.7846 52.7618C26.8933 52.302 26.8342 52.0196 26.6073 51.9148C26.593 51.9849 26.6054 52.0313 26.6446 52.0539C26.6529 52.0848 26.6808 52.127 26.7283 52.1805C26.7757 52.2341 26.8077 52.2918 26.8243 52.3536ZM28.0364 52.4263C28.0425 52.3253 28.0908 52.1964 28.1813 52.0397C28.2718 51.8829 28.316 51.7386 28.3137 51.6066C27.9533 51.8689 27.8609 52.1421 28.0364 52.4263ZM28.8056 51.773C28.8448 51.7956 28.8757 51.7874 28.8983 51.7482C28.8508 51.6946 28.8075 51.6566 28.7683 51.6339L28.8056 51.773ZM42.0634 48.7672C42.092 48.627 42.1022 48.5415 42.094 48.5106C41.9703 48.5437 41.9209 48.6066 41.9458 48.6993L42.0634 48.7672ZM26.841 53.343C26.7852 53.2585 26.7717 53.1462 26.8004 53.006C26.7981 52.8741 26.7661 52.8164 26.7043 52.833C26.7126 52.8639 26.7095 52.9144 26.6952 52.9845C26.5986 53.2423 26.6472 53.3618 26.841 53.343ZM41.7546 49.0984L41.8473 49.0736L41.81 48.9345L41.7173 48.9593L41.7546 49.0984ZM26.6622 53.7884C26.7323 53.8028 26.7549 53.7636 26.73 53.6709C26.6908 53.6482 26.6517 53.6256 26.6125 53.603L26.6622 53.7884ZM26.6473 54.2894L26.7864 54.2521L26.7491 54.113L26.61 54.1503L26.6473 54.2894ZM30.2465 25.9937C30.3249 26.0389 30.3723 26.0925 30.3889 26.1543C30.3271 26.1708 30.2796 26.1173 30.2465 25.9937ZM25.3747 34.7034L25.412 34.8424C25.3893 34.8816 25.3584 34.8899 25.3192 34.8673L25.2944 34.7746C25.3253 34.7663 25.3521 34.7425 25.3747 34.7034ZM25.335 35.1115C25.3968 35.095 25.4288 35.1527 25.4311 35.2846C25.4476 35.3464 25.4208 35.3701 25.3507 35.3558C25.3425 35.3249 25.3342 35.294 25.3259 35.2631C25.3485 35.2239 25.3516 35.1734 25.335 35.1115ZM45.3798 45.1951C45.5035 45.162 45.5551 45.231 45.5347 45.4021C45.4955 45.3795 45.4676 45.3373 45.451 45.2754C45.4119 45.2528 45.3881 45.2261 45.3798 45.1951ZM45.3956 45.4394C45.3812 45.5095 45.2979 45.6312 45.1456 45.8045C45.1577 45.6025 45.241 45.4808 45.3956 45.4394ZM52.7494 42.4751C54.9208 41.4294 57.0165 40.0397 59.0366 38.3058C59.0675 38.2975 59.1448 38.2768 59.2684 38.2437C59.4229 38.2022 59.5394 38.2042 59.6178 38.2494C59.6283 38.4122 59.7326 38.6162 59.9308 38.8612C59.8011 38.9954 59.6333 39.1729 59.4275 39.3937C59.2216 39.6145 59.027 39.8157 58.8438 39.9973C58.6606 40.1789 58.4732 40.3451 58.2817 40.4958C58.2342 40.4422 58.2063 40.4 58.198 40.3691C58.1815 40.3073 58.1649 40.2455 58.1483 40.1836C58.0827 40.4331 57.9745 40.4621 57.8238 40.2706C57.7703 40.3181 57.7405 40.3923 57.7344 40.4933C57.72 40.5634 57.7016 40.6181 57.6789 40.6573L57.7377 40.6912L57.7965 40.7252C57.9058 40.7621 57.9356 40.6879 57.8859 40.5024C58.0344 40.562 58.0973 40.6114 58.0747 40.6506C58.0521 40.6898 57.9914 40.7723 57.8926 40.8982C57.7855 40.9931 57.7402 41.0715 57.7568 41.1333C57.695 41.1499 57.6403 41.1314 57.5929 41.0779C57.5454 41.0243 57.4949 41.0213 57.4413 41.0688C57.3569 41.1245 57.3312 41.2142 57.3644 41.3379C57.4284 41.4532 57.4491 41.5305 57.4265 41.5697C57.3729 41.6172 57.3338 41.5946 57.3089 41.5018C57.2366 41.3556 57.2313 41.2741 57.2932 41.2576C57.2087 41.3133 57.1212 41.4196 57.0307 41.5764C56.9402 41.7331 56.8682 41.8353 56.8146 41.8827C56.7611 41.9302 56.7106 41.9272 56.6631 41.8736C56.6157 41.8201 56.5765 41.7975 56.5456 41.8057C56.4837 41.8223 56.4777 41.9233 56.5274 42.1088C56.4738 42.1563 56.4192 42.1378 56.3634 42.0533C56.3386 41.9606 56.3107 41.9184 56.2798 41.9267C56.2489 41.9349 56.1953 41.9824 56.1192 42.0691C56.043 42.1557 55.9771 42.1569 55.9213 42.0724C55.8678 42.1199 55.8802 42.1662 55.9586 42.2115C56.037 42.2568 56.0803 42.2948 56.0886 42.3257C56.0185 42.3114 55.9257 42.3362 55.8104 42.4003C55.6867 42.4334 55.5703 42.4315 55.461 42.3945C55.4858 42.4872 55.5446 42.5212 55.6373 42.4963C55.7301 42.4715 55.7889 42.5054 55.8137 42.5982L55.4428 42.6976L55.3807 42.4657C55.2035 42.5463 55.0376 42.6073 54.8831 42.6488C54.8936 42.8116 54.8205 42.8477 54.6637 42.7572C54.6411 42.7964 54.6535 42.8428 54.701 42.8963C54.7794 42.9416 54.8155 43.0147 54.8094 43.1157C54.725 43.1715 54.4016 43.3244 53.8391 43.5745C53.2993 43.7854 52.8801 44.0137 52.5815 44.2593C52.3138 44.4967 52.2255 44.7854 52.3166 45.1254C52.2201 45.3832 52.0722 45.8203 51.873 46.4369C51.6738 47.0535 51.5032 47.5298 51.3614 47.866C51.2505 48.1939 51.0159 48.5549 50.6578 48.949C50.2913 49.3123 49.8453 49.5643 49.3198 49.7051C48.3037 49.7454 47.5013 49.3475 46.9129 48.5114C46.2852 47.6525 45.9697 46.6604 45.9663 45.5349C45.9319 44.4178 46.1689 43.5095 46.6772 42.8101C46.5861 42.4701 46.5168 42.2733 46.4694 42.2198C46.2805 41.144 46.5228 40.3171 47.1961 39.7391C47.8921 39.122 48.7101 38.8365 49.6501 38.8828C50.621 38.9208 51.4449 39.2136 52.1216 39.7611C52.7945 40.5415 53.0038 41.4462 52.7494 42.4751ZM49.9789 39.7389C49.8801 39.8648 49.6855 40.066 49.3952 40.3425C49.1358 40.6108 48.9299 40.8316 48.7776 41.005C48.6562 41.17 48.5668 41.3927 48.5094 41.6731C48.452 41.9535 48.5153 42.2513 48.6991 42.5665C48.3884 43.0142 48.2703 43.3771 48.3448 43.6553C49.0541 43.8296 49.8868 43.7225 50.8427 43.3338C50.8571 43.2637 50.8662 43.1122 50.87 42.8793C50.9048 42.6381 50.9252 42.4669 50.9312 42.3659C50.9599 42.2257 50.9762 42.0392 50.98 41.8062C50.9839 41.5733 50.9692 41.395 50.9361 41.2714C50.9339 41.1395 50.9121 40.9962 50.8707 40.8417C50.821 40.6562 50.7641 40.5058 50.7001 40.3904C50.6277 40.2442 50.5287 40.1217 50.4028 40.0229C50.2687 39.8932 50.1273 39.7985 49.9789 39.7389ZM57.5059 40.7533C57.4584 40.6998 57.4615 40.6493 57.515 40.6018C57.5293 40.5317 57.5324 40.4812 57.5241 40.4503C57.3613 40.4608 57.2964 40.5279 57.3295 40.6515C57.3544 40.7442 57.4132 40.7782 57.5059 40.7533ZM57.231 41.0258C57.3856 40.9843 57.4504 40.9173 57.4256 40.8245C57.3947 40.8328 57.3596 40.8257 57.3204 40.803C57.2812 40.7804 57.2462 40.7732 57.2153 40.7815C57.2236 40.8124 57.2164 40.8475 57.1938 40.8867C57.202 40.9176 57.2145 40.9639 57.231 41.0258ZM56.8941 41.0664L57.0795 41.0167C57.0547 40.9239 56.9804 40.8941 56.8568 40.9273L56.8941 41.0664ZM55.6365 41.7512C55.7209 41.6954 55.9177 41.6261 56.2268 41.5433C56.5668 41.4522 56.8171 41.3354 56.9777 41.193L56.0131 41.3024C56.038 41.3951 56.0236 41.4652 55.9701 41.5127C55.9083 41.5293 55.8352 41.5654 55.7507 41.6212C55.658 41.646 55.6199 41.6894 55.6365 41.7512ZM54.5146 42.2009C54.5952 42.378 54.7437 42.4376 54.9601 42.3797C55.1682 42.2908 55.3061 42.1875 55.374 42.07C55.2564 42.0021 55.1091 42.0084 54.9319 42.089C54.7547 42.1697 54.6156 42.2069 54.5146 42.2009ZM54.2985 42.5072L54.3573 42.5412L54.5428 42.4915C54.5014 42.3369 54.4117 42.3113 54.2737 42.4145L54.2985 42.5072ZM53.8258 42.783L53.5104 42.7184C53.5126 42.8503 53.5642 42.9193 53.6652 42.9254C53.7971 42.9232 53.8507 42.8757 53.8258 42.783ZM47.7645 44.4568C47.7501 44.5269 47.7154 44.7681 47.6602 45.1804C47.5968 45.5618 47.559 45.8536 47.5469 46.0556C47.5265 46.2267 47.5154 46.4947 47.5138 46.8595C47.5348 47.1852 47.5981 47.483 47.7035 47.7529C47.809 48.0228 47.9608 48.2803 48.1589 48.5253C48.367 48.4364 48.5555 48.3362 48.7244 48.2247C48.9159 48.074 49.0879 47.912 49.2402 47.7387C49.3842 47.5344 49.4943 47.389 49.5705 47.3023C49.6693 47.1765 49.767 46.9846 49.8636 46.7269C49.9828 46.4299 50.0495 46.2464 50.0639 46.1763C50.1008 46.067 50.1593 45.8525 50.2393 45.5329C50.342 45.1741 50.4046 44.9751 50.4272 44.9359C49.8151 45.0006 48.9275 44.8409 47.7645 44.4568ZM53.9037 43.259L53.6255 43.3336C53.8214 43.4467 53.9142 43.4219 53.9037 43.259ZM53.2115 43.6433L53.1528 43.6093C53.1136 43.5867 53.0826 43.595 53.06 43.6342C53.0374 43.6734 53.0457 43.7043 53.0849 43.7269C53.1467 43.7103 53.1889 43.6825 53.2115 43.6433ZM54.2985 42.5072C54.3295 42.4989 54.3491 42.5103 54.3573 42.5412C54.3264 42.5494 54.3068 42.5381 54.2985 42.5072ZM67.9927 34.3158C67.7349 34.2192 67.4854 34.1536 67.2442 34.1188C66.8076 34.4677 66.2703 35.0589 65.6323 35.8924C64.9943 36.726 64.4797 37.278 64.0883 37.5485C64.1198 38.037 63.978 38.3731 63.6628 38.557C62.467 41.7596 61.7071 44.1166 61.3833 45.6279C61.5329 46.681 61.2051 47.4977 60.3999 48.0779C59.8081 47.9714 59.3409 47.6494 58.9981 47.1118C58.616 46.5516 58.3742 46.0201 58.2726 45.5172C58.1627 44.9835 58.0804 44.2436 58.0257 43.2975C57.9318 42.3288 57.8672 41.7167 57.8318 41.4611C57.9035 41.1106 57.9162 40.4778 57.8697 39.5626C57.7924 38.6557 57.805 38.0229 57.9077 37.6641C58.3343 37.6491 58.6848 37.7209 58.9592 37.8793C59.2252 38.0067 59.4234 38.2518 59.5537 38.6144C59.6757 38.9462 59.7503 39.2244 59.7773 39.449C59.8353 39.6654 59.8842 40.0333 59.924 40.5527C59.9638 41.0721 59.9848 41.3977 59.987 41.5296C60.3711 40.3666 61.2336 38.5784 62.5747 36.1651C62.9616 35.6307 63.4382 35.1221 64.0045 34.639C64.6016 34.1477 65.2794 33.8336 66.0378 33.6967C66.8189 33.5205 67.4705 33.7269 67.9927 34.3158ZM64.4748 34.9106C64.6067 34.9084 64.7107 34.8639 64.7869 34.7772C64.8548 34.6597 64.9238 34.6081 64.9939 34.6224C64.8989 34.5153 64.9287 34.4411 65.0833 34.3997C65.2604 34.3191 65.3366 34.2324 65.3118 34.1397C64.9657 34.3318 64.7267 34.429 64.5948 34.4312C62.5648 36.499 61.1509 39.1969 60.353 42.5248C61.5466 39.1903 62.9206 36.6522 64.4748 34.9106ZM65.8069 34.5039C65.8235 34.5658 65.8091 34.6359 65.7639 34.7142C66.0255 34.5779 66.1552 34.4437 66.153 34.3118C65.9841 34.4233 65.8687 34.4874 65.8069 34.5039ZM65.4551 35.0454C65.5169 35.0289 65.6044 34.9226 65.7175 34.7267C65.6082 34.6897 65.5155 34.7145 65.4393 34.8012C65.3549 34.857 65.3601 34.9384 65.4551 35.0454ZM64.3432 36.0888C64.4669 36.0556 64.612 35.9174 64.7787 35.6739C64.9763 35.4222 65.1369 35.2798 65.2605 35.2467C65.2522 35.2157 65.2511 35.1498 65.2572 35.0488C65.2489 35.0179 65.2448 35.0024 65.2448 35.0024C65.2365 34.9715 65.2014 34.9643 65.1396 34.9809C65.08 35.1294 64.9514 35.3295 64.7538 35.5812C64.548 35.802 64.4111 35.9712 64.3432 36.0888ZM64.0717 36.5591C64.2776 36.3383 64.3722 36.1969 64.3556 36.1351C64.333 36.1743 64.2795 36.2218 64.195 36.2776C64.1106 36.3333 64.057 36.3808 64.0344 36.42C64.0118 36.4592 64.0242 36.5055 64.0717 36.5591ZM63.6801 37.5088C63.7028 37.4696 63.748 37.3912 63.8159 37.2736C63.9064 37.1168 63.9393 36.9921 63.9144 36.8994L63.7753 36.9366C63.8002 37.0294 63.7632 37.1387 63.6644 37.2645C63.5965 37.3821 63.6018 37.4635 63.6801 37.5088ZM63.3159 38.0039C63.3076 37.973 63.3189 37.9534 63.3498 37.9451C63.325 37.8524 63.2858 37.8298 63.2323 37.8772C63.2571 37.97 63.285 38.0122 63.3159 38.0039ZM64.4748 34.9106L64.4623 34.8642L64.4748 34.9106ZM72.2702 8.96902C72.2498 9.14014 72.2584 9.41943 72.296 9.80691C72.3644 10.1861 72.3854 10.5118 72.359 10.7839C72.3325 11.056 72.2585 11.2746 72.1371 11.4397C72.3321 12.4144 72.375 13.8109 72.2658 15.6291C72.1876 17.439 72.1642 18.5882 72.1957 19.0767C72.9624 18.9707 74.1875 18.659 75.871 18.1416C76.4831 18.077 77.4115 17.8945 78.6562 17.5941C79.9234 17.2545 81.0878 17.0254 82.1492 16.9066C83.2107 16.7878 84.2053 16.8526 85.1332 17.1009C85.0797 17.1484 84.9756 17.1928 84.8211 17.2343C84.6582 17.2448 84.5697 17.2851 84.5553 17.3552C83.0628 17.225 80.8359 17.507 77.8746 18.2011C74.9134 18.8952 73.1112 19.2787 72.4682 19.3516C72.2374 19.4796 72.1285 19.6911 72.1412 19.9858C72.166 20.0785 72.2599 20.1197 72.4227 20.1092C72.6081 20.0595 72.7246 20.0614 72.7721 20.1149C72.7986 19.8428 72.8272 19.7026 72.8582 19.6943C72.8913 19.8179 73.0089 19.8858 73.2109 19.898C73.4355 19.8709 73.5735 19.7677 73.6248 19.5883C73.7959 19.6087 73.9475 19.6178 74.0794 19.6155C74.2339 19.5741 74.3843 19.5173 74.5306 19.4449C74.7078 19.3643 74.8427 19.3116 74.9355 19.2868C75.0056 19.3011 75.053 19.3547 75.0779 19.4474C75.1254 19.5009 75.1687 19.539 75.2079 19.5616C75.3315 19.5285 75.3851 19.481 75.3685 19.4192C75.3994 19.4109 75.419 19.4222 75.4273 19.4532L75.4861 19.4871C75.5705 19.4313 75.5385 19.3737 75.39 19.3141C75.3961 19.213 75.4662 19.2274 75.6003 19.3571C75.6621 19.3405 75.6693 19.3055 75.6218 19.2519C75.5661 19.1675 75.5341 19.1098 75.5258 19.0789C75.8084 19.2682 76.197 19.2966 76.6915 19.1641C77.1861 19.0316 77.5653 18.9631 77.8291 18.9587C77.86 18.9504 77.8631 18.8999 77.8382 18.8071C77.9475 18.8441 78.0444 18.8347 78.1288 18.779C78.2442 18.7149 78.372 18.6973 78.5122 18.7259C78.5348 18.6868 78.5111 18.66 78.441 18.6456C78.4018 18.623 78.3471 18.6045 78.277 18.5902C78.2069 18.5758 78.1636 18.5377 78.147 18.4759C78.2171 18.4903 78.3913 18.4602 78.6695 18.3856C78.7561 18.4618 78.7644 18.4927 78.6943 18.4784L78.614 18.5496C78.8718 18.6462 79.2284 18.6169 79.6837 18.4617C80.1391 18.3066 80.5028 18.2422 80.7749 18.2687C80.882 18.1738 80.9499 18.0562 80.9786 17.916C81.0095 17.9077 81.0415 17.9654 81.0747 18.089C81.1387 18.2044 81.2129 18.2342 81.2974 18.1784C81.3283 18.1701 81.32 18.1392 81.2725 18.0857C81.2168 18.0012 81.1848 17.9436 81.1765 17.9127C81.5066 18.1555 81.6644 18.312 81.6501 18.3821C81.7737 18.3489 81.8107 18.2396 81.761 18.0542C81.8394 18.0994 81.9363 18.0901 82.0516 18.026C82.1587 17.9311 82.2205 17.9145 82.2371 17.9763C82.2989 17.9598 82.3174 17.9051 82.2925 17.8124C82.276 17.7506 82.2636 17.7042 82.2553 17.6733C82.4038 17.7329 82.6789 17.7089 83.0807 17.6012C83.5052 17.4543 83.8731 17.4054 84.1844 17.4545C83.7003 17.7499 83.1903 17.8865 82.6544 17.8645C82.6317 17.9037 82.5906 17.9975 82.531 18.146C82.5023 18.2862 82.4375 18.3533 82.3365 18.3472C82.2355 18.3412 82.1488 18.265 82.0765 18.1187C82.0621 18.1888 82.0127 18.2518 81.9283 18.3075C81.8438 18.3633 81.7553 18.4036 81.6625 18.4284C81.6007 18.445 81.543 18.477 81.4895 18.5245C81.436 18.572 81.4216 18.6421 81.4465 18.7348C81.362 18.7906 81.2919 18.7762 81.2362 18.6918C81.203 18.5681 81.1556 18.5146 81.0937 18.5312C81.1269 18.6548 81.0816 18.7332 80.958 18.7663C80.8343 18.7994 80.7457 18.8397 80.6922 18.8872C80.6674 18.7945 80.7168 18.7315 80.8404 18.6984C80.8073 18.5748 80.7372 18.5604 80.6301 18.6554C80.5683 18.6719 80.5652 18.7225 80.621 18.8069C80.5901 18.8152 80.5354 18.7967 80.4571 18.7514C80.4013 18.667 80.3312 18.6526 80.2467 18.7084C80.1849 18.725 80.117 18.8425 80.0431 19.0611C77.9986 19.3439 75.3898 19.9933 72.2166 21.0092C72.1631 21.0566 72.1302 21.1814 72.1181 21.3834C72.1286 21.5462 72.0875 21.6401 71.9948 21.6649C72.1273 22.1595 72.1549 22.8809 72.0778 23.8292C71.9923 24.7466 71.9683 25.399 72.0059 25.7865C71.9408 26.5327 71.8402 27.7027 71.704 29.2962C71.5595 30.8588 71.4578 31.9628 71.3988 32.6081C71.348 33.2842 71.1011 34.5265 70.6581 36.3347C70.215 38.143 70.0724 39.5892 70.2304 40.6733C70.4457 41.4769 70.5495 42.1117 70.5418 42.5775C70.9018 43.6737 71.0904 44.5011 71.1076 45.0597C72.0059 48.165 73.1356 50.0322 74.4969 50.6614C73.7611 50.7591 73.091 50.6074 72.4865 50.2062C71.8904 49.8358 71.4488 49.4241 71.1617 48.971C70.8746 48.5178 70.542 47.8947 70.1639 47.1015C69.5207 45.3193 69.1472 44.1108 69.0433 43.476C69.0742 43.4677 69.1134 43.4903 69.1609 43.5439C69.1775 43.6057 69.2125 43.6129 69.2661 43.5654C69.0921 42.9163 69.0237 42.5371 69.0606 42.4278C68.9535 42.5228 68.9207 42.6475 68.9621 42.8021C68.9726 42.9649 68.982 43.0618 68.9903 43.0927C68.6756 41.9181 68.5654 41.136 68.6597 40.7463C68.6349 40.6535 68.5935 40.499 68.5355 40.2826C68.4383 40.0436 68.3732 39.8623 68.3401 39.7387C68.2987 39.5841 68.2222 39.4224 68.1107 39.2535C67.9992 39.0846 67.8805 38.9508 67.7546 38.852C67.7999 38.7736 67.8708 38.6055 67.9674 38.3477C68.033 38.0982 68.0998 37.9147 68.1677 37.7971C67.7059 34.3429 67.4671 29.3714 67.4511 22.8824C67.0327 22.9283 66.2158 23.2796 65.0004 23.9366C63.8076 24.5544 63.0029 24.7037 62.5861 24.3847C62.3051 23.8306 62.2035 23.3277 62.2813 22.8762C62.3591 22.4247 62.6773 22.1904 63.2359 22.1732C63.6973 21.9171 64.4411 21.6018 65.4671 21.2275C66.4932 20.8532 67.168 20.5895 67.4914 20.4366C67.5316 19.5976 67.566 18.1804 67.5945 16.1851C67.654 14.1814 67.7068 12.7096 67.7531 11.7696C67.7796 11.4974 67.8066 10.7945 67.8341 9.66075C67.8533 8.49609 67.8822 7.67668 67.9208 7.20254C67.9594 6.72839 68.0927 6.11294 68.3206 5.35617C68.5485 4.59939 68.8445 3.97343 69.2088 3.47828C70.0599 3.31648 70.7251 3.63519 71.2042 4.4344C71.7061 5.19442 71.9184 6.04858 71.8412 6.99687C71.9979 7.08738 72.094 7.26041 72.1293 7.51597C72.1602 7.50769 72.1787 7.45304 72.1848 7.35203L72.16 7.2593C72.3024 7.41992 72.3419 7.69093 72.2784 8.07235C72.2067 8.42285 72.207 8.67124 72.2793 8.81751L72.2329 8.82993C72.1938 8.8073 72.1587 8.80013 72.1278 8.80841L72.1899 9.04023L72.2239 8.98145L72.2702 8.96902ZM69.6414 8.43108C69.6127 8.57128 69.5829 8.64552 69.552 8.6538L69.5056 8.66623L69.4593 8.67865C69.3914 8.79623 69.4091 8.92401 69.5123 9.06199L69.4444 9.17957L69.3981 9.19199C69.4146 9.25381 69.4014 9.38987 69.3584 9.60017C69.3462 9.8022 69.3948 9.9217 69.5041 9.95867C69.4958 9.92776 69.5019 9.82675 69.5223 9.65563C69.5344 9.45361 69.5085 9.29492 69.4444 9.17957L69.5123 9.06199L69.5587 9.04957C69.5338 8.95684 69.5369 8.90633 69.5678 8.89805C69.5629 9.99261 69.5156 11.7942 69.4258 14.303C69.3361 16.8117 69.2899 18.6793 69.2872 19.9057C69.45 19.8952 69.6396 19.861 69.856 19.803C70.095 19.7059 70.2763 19.6407 70.4 19.6076C70.3927 18.715 70.4373 17.2123 70.5337 15.0994C70.6218 12.9555 70.6341 11.1467 70.5705 9.67293C70.5295 8.15998 70.3732 6.71107 70.1015 5.3262C69.8427 6.09126 69.6893 7.12622 69.6414 8.43108ZM71.4754 19.1703C71.5124 19.061 71.5309 19.0064 71.5309 19.0064C71.5226 18.9755 71.4793 18.9374 71.4009 18.8921C71.3451 18.8077 71.3131 18.75 71.3048 18.7191C71.3192 18.649 71.3294 18.5635 71.3354 18.4624C71.3724 18.3531 71.3939 18.248 71.4 18.147C71.4061 18.046 71.3925 17.9336 71.3594 17.81C71.382 17.7708 71.4242 17.7429 71.4861 17.7264C71.5479 17.7098 71.6014 17.6623 71.6467 17.584L71.5597 17.2594C71.467 17.2842 71.4165 17.2812 71.4082 17.2503C71.4225 17.1802 71.4162 17.0328 71.3891 16.8082C71.3847 16.5443 71.4205 16.3691 71.4967 16.2824C71.5133 16.3442 71.537 16.371 71.5679 16.3627L71.6325 16.0473C71.6755 15.837 71.6496 15.6783 71.5546 15.5712C71.532 15.6104 71.5218 15.6959 71.524 15.8279C71.5571 15.9515 71.5469 16.0371 71.4934 16.0845C71.4376 16.0001 71.4404 15.7012 71.5016 15.1879C71.5325 15.1796 71.5562 15.2063 71.5728 15.2682C71.5894 15.33 71.6131 15.3568 71.644 15.3485C71.7295 14.4311 71.7452 13.7478 71.691 13.2985C71.6314 13.4469 71.5978 13.7541 71.5901 14.22C71.605 14.6466 71.559 14.9075 71.4519 15.0024C71.443 14.4747 71.4482 13.6286 71.4674 12.4639C71.5175 11.291 71.5348 10.2428 71.5193 9.31931C71.5038 8.39587 71.4347 7.5199 71.3121 6.6914C71.343 6.68312 71.3543 6.66352 71.346 6.63261C71.3377 6.6017 71.3181 6.59039 71.2872 6.59867C71.2315 6.51422 71.1995 6.45655 71.1912 6.42564C71.2138 6.38644 71.2364 6.34725 71.2591 6.30806C71.3126 6.26059 71.3352 6.2214 71.3269 6.19049C71.1558 6.17008 71.1042 6.10109 71.1721 5.98351C71.1109 6.49685 71.1686 7.39241 71.3454 8.67021C71.3227 8.7094 71.2764 8.72183 71.2063 8.70748C71.1671 8.68485 71.132 8.67768 71.1011 8.68596C71.1094 8.71687 71.1373 8.7591 71.1848 8.81263C71.2322 8.86617 71.2642 8.92385 71.2808 8.98567C71.1594 9.15072 71.0866 9.43526 71.0623 9.83931C71.069 10.2351 71.1672 10.54 71.3571 10.7542C71.3345 10.7934 71.2923 10.8212 71.2305 10.8378C71.1604 10.8235 71.0985 10.84 71.045 10.8875C71.108 11.8645 71.0902 13.3435 70.9916 15.3245C70.8929 17.3055 70.8699 18.7031 70.9224 19.5173C71.0543 19.5151 71.2108 19.3572 71.3918 19.0437C71.4001 19.0746 71.4238 19.1013 71.463 19.124L71.4754 19.1703ZM72.0351 8.83326C72.0886 8.78578 72.1029 8.71568 72.0781 8.62295C72.0533 8.53023 72.0058 8.47669 71.9357 8.46234C71.944 8.49325 71.9409 8.54376 71.9266 8.61386C71.9122 8.68396 71.9092 8.73447 71.9175 8.76538C71.9258 8.79629 71.965 8.81891 72.0351 8.83326ZM69.3717 10.3917C69.4727 10.3978 69.5108 10.3544 69.4859 10.2617C69.4528 10.1381 69.4053 10.0845 69.3435 10.1011C69.391 10.1546 69.4034 10.201 69.3808 10.2402C69.3664 10.3103 69.3634 10.3608 69.3717 10.3917ZM68.5495 10.6617C68.5186 10.67 68.5156 10.7205 68.5404 10.8132C68.5713 10.8049 68.5744 10.7544 68.5495 10.6617ZM71.622 9.88811L71.7147 9.86326L71.6899 9.77053L71.5972 9.79538L71.622 9.88811ZM69.4495 10.8678C69.4413 10.8369 69.4443 10.7864 69.4586 10.7162C69.479 10.5451 69.4429 10.472 69.3501 10.4969C69.3667 10.5587 69.3565 10.6442 69.3195 10.7535C69.3135 10.8545 69.3568 10.8926 69.4495 10.8678ZM68.0801 11.1353L68.1174 11.2744C68.1875 11.2888 68.2143 11.265 68.1977 11.2032C68.2038 11.1022 68.1759 11.06 68.1141 11.0765C68.1306 11.1383 68.1193 11.1579 68.0801 11.1353ZM72.2596 10.413L72.185 10.1348L72.2008 10.379L72.2596 10.413ZM68.1365 11.7165C68.1591 11.6773 68.1734 11.6072 68.1795 11.5062C68.1939 11.4361 68.1969 11.3856 68.1886 11.3547C68.0959 11.3796 68.0785 11.5002 68.1365 11.7165ZM69.4132 11.4738C69.4705 11.1934 69.4487 11.0502 69.3477 11.0441C69.356 11.075 69.353 11.1255 69.3386 11.1956C69.3552 11.2575 69.3563 11.3234 69.3419 11.3935C69.3502 11.4244 69.374 11.4512 69.4132 11.4738ZM68.495 11.5708C68.4867 11.5399 68.498 11.5203 68.5289 11.512C68.5041 11.4193 68.4649 11.3966 68.4113 11.4441C68.4362 11.5368 68.4641 11.5791 68.495 11.5708ZM68.5389 12.1056C68.4914 12.0521 68.4707 11.9748 68.4768 11.8738C68.4828 11.7728 68.4395 11.7347 68.3468 11.7596C68.386 11.7822 68.3984 11.8286 68.384 11.8987C68.4006 11.9605 68.4172 12.0223 68.4337 12.0841C68.4729 12.1067 68.508 12.1139 68.5389 12.1056ZM71.6047 10.9363L71.6296 11.029C71.6687 11.0517 71.6997 11.0434 71.7223 11.0042C71.7057 10.9424 71.6778 10.9001 71.6386 10.8775C71.6469 10.9084 71.6356 10.928 71.6047 10.9363ZM68.1092 12.1711L68.1556 12.1587C68.1081 12.1051 68.0957 12.0588 68.1183 12.0196C68.1635 11.9412 68.182 11.8865 68.1737 11.8556C68.0893 11.9114 68.0678 12.0165 68.1092 12.1711ZM69.4198 11.8696L69.3577 11.6378L69.4198 11.8696ZM71.7165 11.3536C71.7761 11.2051 71.7596 11.1433 71.6668 11.1681C71.6072 11.3166 71.6238 11.3784 71.7165 11.3536ZM68.1498 12.5081C68.1415 12.4771 68.1445 12.4266 68.1589 12.3565C68.2041 12.2782 68.1804 12.2514 68.0877 12.2762L68.1498 12.5081ZM71.6123 12.0772C71.705 12.0524 71.7431 12.009 71.7265 11.9472C71.7243 11.8153 71.7582 11.7565 71.8283 11.7709C71.7891 11.7482 71.7726 11.6864 71.7786 11.5854C71.7847 11.4844 71.7414 11.4463 71.6486 11.4712C71.6652 11.533 71.6591 11.634 71.6304 11.7742C71.6244 11.8752 71.6183 11.9762 71.6123 12.0772ZM68.4686 12.7705C68.4603 12.7396 68.4633 12.6891 68.4777 12.619C68.4898 12.417 68.4536 12.3438 68.3692 12.3996C68.3775 12.4305 68.3673 12.516 68.3386 12.6562C68.3325 12.7573 68.3758 12.7953 68.4686 12.7705ZM72.0477 11.6624C72.0312 11.6006 72.0383 11.5655 72.0692 11.5572C72.0527 11.4954 72.0135 11.4728 71.9517 11.4893C71.9848 11.613 72.0168 11.6707 72.0477 11.6624ZM68.0704 13.3244L68.1167 13.312C68.1018 12.8853 68.0902 12.6565 68.0819 12.6256C68.0698 12.8277 68.0659 13.0606 68.0704 13.3244ZM69.3777 12.8251C69.3694 12.7941 69.3724 12.7436 69.3868 12.6735C69.4011 12.6034 69.3774 12.5767 69.3156 12.5932L69.3777 12.8251ZM68.3676 13.692C68.4377 13.7064 68.4687 13.6981 68.4604 13.6672C68.4747 13.5971 68.4695 13.5157 68.4446 13.4229C68.3745 13.4086 68.356 13.4632 68.3892 13.5869C68.4057 13.6487 68.3985 13.6837 68.3676 13.692ZM68.0158 14.2335C68.1908 14.021 68.207 13.8344 68.0646 13.6738C68.0812 13.7356 68.071 13.8212 68.034 13.9305C68.0279 14.0315 68.0219 14.1325 68.0158 14.2335ZM72.0892 12.7445L72.1819 12.7197L72.1571 12.6269L72.0644 12.6518L72.0892 12.7445ZM68.3064 14.2054L68.3313 14.2981C68.3705 14.3207 68.4014 14.3124 68.424 14.2732C68.4074 14.2114 68.3795 14.1692 68.3404 14.1466C68.3486 14.1775 68.3373 14.1971 68.3064 14.2054ZM68.097 14.9075C68.0887 14.8766 68.0876 14.8106 68.0937 14.7096C68.1224 14.5694 68.1326 14.4838 68.1243 14.4529C68.1386 14.3828 68.0912 14.3293 67.9819 14.2923C68.0376 14.3768 68.0553 14.5045 68.0349 14.6757C68.0062 14.8159 68.0269 14.8931 68.097 14.9075ZM68.4 14.9257C68.3918 14.8948 68.4031 14.8752 68.434 14.8669C68.4091 14.7741 68.3545 14.7557 68.27 14.8114L68.3288 14.8454C68.3454 14.9072 68.3691 14.9339 68.4 14.9257ZM67.9894 15.4332C68.0512 15.4167 68.0852 15.3579 68.0912 15.2569C68.0973 15.1559 68.0611 15.0827 67.9828 15.0375C67.991 15.0684 67.9921 15.1343 67.9861 15.2354C68.0109 15.3281 68.012 15.394 67.9894 15.4332ZM68.3918 15.8223C68.4017 15.4884 68.3675 15.2988 68.2891 15.2535C68.3057 15.3154 68.3109 15.3968 68.3049 15.4978C68.3297 15.5905 68.3308 15.6565 68.3082 15.6957C68.3165 15.7266 68.3444 15.7688 68.3918 15.8223ZM67.92 16.8433C67.8583 18.715 67.8546 19.8755 67.9087 20.3248C68.0653 18.5601 68.0691 17.3996 67.92 16.8433C68.08 16.2041 68.1073 15.7495 68.0018 15.4796C67.934 15.5972 67.9067 16.0517 67.92 16.8433ZM68.3024 16.0451L68.2561 16.0575C68.2666 16.2203 68.2627 16.4533 68.2445 16.7563C68.249 17.0201 68.2647 17.2644 68.2918 17.489C68.4562 17.1137 68.4598 16.6324 68.3024 16.0451ZM69.3291 16.1675L69.2579 16.0872C69.2413 16.0254 69.2176 15.9986 69.1867 16.0069C69.1641 16.0461 69.161 16.0966 69.1776 16.1584C69.2168 16.1811 69.2673 16.1841 69.3291 16.1675ZM68.2332 20.2378C68.2476 20.1677 68.2908 19.2782 68.363 17.5693L68.2239 17.6066C68.2449 17.9323 68.2331 18.3827 68.1884 18.9578C68.1747 19.5247 68.1896 19.9514 68.2332 20.2378ZM69.1794 17.6487C69.2721 17.6239 69.2978 17.5342 69.2564 17.3797C69.1863 17.3653 69.1678 17.42 69.2009 17.5436C69.2175 17.6054 69.2103 17.6405 69.1794 17.6487ZM69.1927 18.4403C69.2236 18.432 69.2493 18.3423 69.2697 18.1712C69.1687 18.1651 69.1347 18.2239 69.1678 18.3475C69.1761 18.3785 69.1844 18.4094 69.1927 18.4403ZM69.2275 19.1266C69.2479 18.9555 69.2231 18.8628 69.153 18.8485C69.1613 18.8794 69.1582 18.9299 69.1439 19C69.1295 19.0701 69.1574 19.1123 69.2275 19.1266ZM71.2818 20.1167C71.2735 20.0858 71.2961 20.0466 71.3496 19.9991C71.3949 19.9207 71.3938 19.8548 71.3463 19.8012C71.0372 19.8841 70.86 19.9647 70.8148 20.0431C70.8849 20.0574 70.8932 20.0883 70.8396 20.1358C70.7635 20.2224 70.777 20.3348 70.8802 20.4728C70.9111 20.4645 70.9534 20.4366 71.0069 20.3891C71.0522 20.3107 71.1253 20.2746 71.2263 20.2806C71.218 20.2497 71.2365 20.1951 71.2818 20.1167ZM69.9836 20.4646C69.967 20.4027 69.8886 20.3575 69.7484 20.3288C69.6949 20.3763 69.6063 20.4166 69.4826 20.4497C69.3899 20.4745 69.3364 20.522 69.322 20.5921C69.3839 20.5756 69.4581 20.6054 69.5448 20.6815C69.6314 20.7577 69.7324 20.7637 69.8478 20.6997C69.8621 20.6296 69.8301 20.5719 69.7517 20.5267C69.7043 20.4731 69.7114 20.4381 69.7733 20.4215C69.8682 20.5286 69.9198 20.5976 69.9281 20.6285C70.0374 20.6655 70.1414 20.621 70.2402 20.4952C70.3699 20.361 70.376 20.26 70.2584 20.1921C70.2998 20.3467 70.2422 20.3787 70.0854 20.2882C70.0462 20.2656 70.0111 20.2584 69.9802 20.2667C69.972 20.2358 69.9482 20.209 69.909 20.1864C69.8864 20.2256 69.9184 20.2832 70.0051 20.3594C70.0443 20.382 70.0371 20.4171 69.9836 20.4646ZM71.1402 20.7013C71.1711 20.693 71.1907 20.7043 71.199 20.7352C71.199 20.7352 71.2145 20.731 71.2454 20.7228C71.2123 20.5991 71.1689 20.561 71.1154 20.6085L71.1402 20.7013ZM81.0565 18.3921C81.0316 18.2993 80.9883 18.2612 80.9265 18.2778C80.9596 18.4014 81.0029 18.4395 81.0565 18.3921ZM80.7319 18.479L80.8246 18.4542L80.7998 18.3614L80.7071 18.3863L80.7319 18.479ZM77.57 19.4753C77.5844 19.4052 77.5606 19.3785 77.4988 19.395C77.4287 19.3807 77.3895 19.358 77.3812 19.3271C77.4144 19.4508 77.4773 19.5002 77.57 19.4753ZM71.2326 25.4968C71.2635 25.4885 71.2706 25.4534 71.2541 25.3916C71.2375 25.3298 71.2519 25.2597 71.2971 25.1813C71.2353 25.1979 71.1848 25.1948 71.1456 25.1722C71.3139 24.5639 71.3227 24.164 71.172 23.9725C71.3409 23.861 71.4253 23.8052 71.4253 23.8052C71.3298 23.2014 71.3344 22.786 71.4393 22.5592C71.3383 22.5531 71.2671 22.4728 71.2257 22.3182C71.1842 22.1637 71.2212 22.0544 71.3366 21.9904L71.3614 22.0831C71.4067 22.0047 71.4086 21.8882 71.3672 21.7337C71.3258 21.5791 71.2659 21.4792 71.1875 21.434C71.1566 21.4423 71.0948 21.4588 71.002 21.4837C70.9093 21.5085 70.8362 21.5447 70.7826 21.5922C70.8368 22.0415 70.82 22.6588 70.7323 23.4443C70.6363 24.1989 70.6071 24.7699 70.6447 25.1573C70.4416 26.0068 70.3777 26.8191 70.4528 27.594L70.2764 27.4922C70.2621 27.5623 70.2715 27.6592 70.3046 27.7828C70.3604 27.8673 70.3965 27.9404 70.4131 28.0022C70.4523 28.0249 70.4606 28.0558 70.4379 28.095C70.407 28.1032 70.3678 28.0806 70.3204 28.0271C70.3038 27.9653 70.2687 27.9581 70.2152 28.0056C70.2693 28.4549 70.2443 29.0413 70.14 29.765C70.0275 30.4577 69.9734 30.936 69.9779 31.1998C70.0849 31.1049 70.2086 31.0717 70.3488 31.1004C70.3647 30.6655 70.4433 30.0315 70.5846 29.1986C70.7175 28.3348 70.8044 27.7317 70.8452 27.3895C70.9071 27.3729 70.9349 27.4152 70.9289 27.5162C70.9454 27.578 70.9692 27.6048 71.0001 27.5965C70.9752 27.5037 70.9937 27.4491 71.0555 27.4325C71.039 27.3707 71.0111 27.3285 70.9719 27.3059C70.9636 27.275 70.9399 27.2482 70.9007 27.2256C70.8615 27.2029 70.8336 27.1607 70.8171 27.0989C70.9882 27.1193 71.0809 27.0945 71.0952 27.0244C70.9302 26.9029 70.8775 26.768 70.9371 26.6195C70.9514 26.5494 71.0174 26.5483 71.1349 26.6162C71.1719 26.5069 71.1358 26.4337 71.0265 26.3968C70.9398 26.3206 70.884 26.2362 70.8592 26.1434C70.921 26.1269 70.9561 26.134 70.9644 26.1649L71.0356 26.2452C71.0808 26.1669 71.0643 26.105 70.9859 26.0598C70.9301 25.9753 70.9135 25.9135 70.9362 25.8743C70.9671 25.8661 71.0021 25.8732 71.0413 25.8959C71.1114 25.9102 71.1661 25.9287 71.2053 25.9513C71.1887 25.8895 71.1876 25.8235 71.2019 25.7534C71.2389 25.6441 71.2491 25.5586 71.2326 25.4968ZM69.2311 22.1073C69.2052 22.8762 69.2233 24.1799 69.2852 26.0185C69.3389 27.8262 69.3313 29.2197 69.2624 30.1989C69.3574 30.306 69.3957 30.511 69.3776 30.814C69.3594 31.1171 69.4008 31.2716 69.5018 31.2777C69.9502 27.0164 70.2113 23.8489 70.2851 21.7752C70.0913 21.794 69.8904 21.8478 69.6823 21.9367C69.4742 22.0256 69.3238 22.0824 69.2311 22.1073ZM67.8628 25.9027C67.5897 26.7379 67.6192 27.3429 67.9516 27.7176C67.9736 27.1817 67.9592 26.3242 67.9083 25.1452C67.8883 23.9579 67.8822 23.1313 67.8899 22.6654L67.7044 22.7151C67.7171 23.0099 67.7177 23.5067 67.7062 24.2055C67.7173 24.8651 67.7695 25.4308 67.8628 25.9027ZM68.1101 23.3021C68.172 23.2856 68.2059 23.2268 68.212 23.1258C68.2407 22.9856 68.2467 22.8845 68.2302 22.8227C68.2362 22.7217 68.2042 22.664 68.1341 22.6497C68.128 22.7507 68.1148 22.8868 68.0944 23.0579C68.0966 23.1898 68.1019 23.2712 68.1101 23.3021ZM68.2262 24.6624C68.193 24.5388 68.1825 24.376 68.1947 24.1739C68.2294 23.9327 68.2344 23.7658 68.2095 23.673C68.2156 23.572 68.1712 23.468 68.0762 23.3609C68.1093 23.4845 68.1055 23.7175 68.0647 24.0597C68.0465 24.3627 68.1003 24.5636 68.2262 24.6624ZM68.1774 25.2221C68.2083 25.2139 68.2392 25.2056 68.2701 25.1973C68.2453 25.1046 68.1978 25.051 68.1277 25.0367L68.1774 25.2221ZM68.2719 26.6876L68.3182 26.6752C68.3243 26.5742 68.318 26.4268 68.2992 26.2331C68.2721 26.0084 68.2544 25.8806 68.2461 25.8497C68.0546 26.0004 68.0632 26.2797 68.2719 26.6876ZM68.3225 27.6182C68.3059 27.5564 68.3037 27.4245 68.3158 27.2225C68.3279 27.0204 68.2794 26.9009 68.1701 26.864C68.1707 27.3608 68.2215 27.6122 68.3225 27.6182ZM68.2737 28.1779C68.2654 28.147 68.2643 28.0811 68.2703 27.9801C68.2907 27.8089 68.2504 27.7204 68.1494 27.7143L68.2737 28.1779ZM68.009 31.8268L68.0339 31.9195C68.0113 31.9587 67.9845 31.9824 67.9536 31.9907C67.995 32.1452 67.9693 32.2349 67.8766 32.2598C67.8065 32.2454 67.7756 32.2537 67.7839 32.2846C67.8148 32.2764 67.8498 32.2835 67.889 32.3062L67.9942 32.3277C67.88 33.3853 67.9118 34.1221 68.0896 34.5383C68.036 34.5858 68.0322 34.8187 68.0781 35.2371C67.9423 35.4723 67.9889 35.7082 68.218 35.945C68.1397 35.8997 68.0891 35.8967 68.0665 35.9359C68.0439 35.9751 68.0563 36.0215 68.1038 36.075C68.1965 36.0501 68.247 36.0532 68.2553 36.0841C68.2719 36.1459 68.2462 36.2356 68.1783 36.3532C68.1022 36.4398 68.0724 36.5141 68.0889 36.5759L68.1817 36.5511C68.2518 36.5654 68.291 36.588 68.2992 36.6189C68.2065 36.6438 68.1571 36.7067 68.151 36.8077C68.1367 36.8778 68.1955 36.9118 68.3274 36.9095C68.0763 37.2087 68.0755 37.3912 68.325 37.4568C68.2692 37.3724 68.2753 37.2714 68.3432 37.1538C68.411 37.0362 68.4058 36.9548 68.3274 36.9095C68.3191 36.8786 68.3459 36.8549 68.4077 36.8383C68.3326 36.0634 68.2552 35.1565 68.1757 34.1177C68.127 33.0706 68.0715 32.307 68.009 31.8268C67.9985 31.6639 67.9968 31.1012 68.0039 30.1386C68.0336 29.1367 67.9627 28.3772 67.7909 27.86C67.7623 28.0002 67.7626 28.2486 67.7918 28.6052C67.8128 28.9309 67.809 29.1638 67.7803 29.304C67.8587 29.3493 67.8609 29.4812 67.787 29.6998C67.7356 29.8792 67.7729 30.0182 67.8988 30.117C67.8679 30.1253 67.8328 30.1181 67.7936 30.0955L67.7721 30.2007C67.898 30.2995 67.9261 30.5901 67.8566 31.0725C67.8097 31.5157 67.8142 31.7796 67.8699 31.864L68.009 31.8268ZM68.2439 29.1798C68.2848 28.8375 68.2618 28.6283 68.1752 28.5522C68.1917 28.614 68.1898 28.7305 68.1694 28.9016C68.1407 29.0418 68.1656 29.1345 68.2439 29.1798ZM70.9016 27.9707C70.9468 27.8923 70.9344 27.846 70.8643 27.8316L70.9016 27.9707ZM68.2415 29.727L68.3061 29.4116C68.236 29.3972 68.1937 29.4251 68.1794 29.4952C68.1877 29.5261 68.2084 29.6034 68.2415 29.727ZM68.2863 31.0071L68.24 31.0195C68.2648 31.1122 68.267 31.2441 68.2466 31.4152C68.2262 31.5864 68.2552 31.6945 68.3336 31.7398C68.2574 31.8265 68.2412 32.013 68.2848 32.2995C68.3201 32.5551 68.3306 32.7179 68.3163 32.788C68.4151 32.6621 68.4313 32.4756 68.3651 32.2283C68.3297 31.9727 68.3192 31.8099 68.3336 31.7398C68.3645 31.7315 68.3487 31.4873 68.2863 31.0071C68.4469 30.8646 68.4188 30.574 68.2018 30.1352L68.2863 31.0071ZM69.9597 31.5029L69.9224 31.3638L69.9597 31.5029ZM68.4978 34.578C68.4895 34.5471 68.4986 34.3956 68.5251 34.1235C68.5515 33.8513 68.5173 33.6617 68.4223 33.5547C68.4389 33.6165 68.437 33.7329 68.4166 33.9041C68.3962 34.0752 68.3829 34.2112 68.3769 34.3122C68.3934 34.3741 68.4337 34.4627 68.4978 34.578ZM68.6105 35.7405C68.5939 35.6786 68.5958 35.5622 68.6162 35.3911C68.6366 35.2199 68.6386 35.1035 68.622 35.0417C68.6054 34.9798 68.5497 34.8954 68.4547 34.7883C68.5503 35.3922 68.6022 35.7095 68.6105 35.7405ZM68.8246 41.5469C68.845 41.3758 68.8047 41.2872 68.7037 41.2811C68.712 41.312 68.7244 41.3584 68.7409 41.4202C68.7658 41.5129 68.7937 41.5552 68.8246 41.5469ZM68.8403 41.7911L68.7906 41.6057L68.8403 41.7911ZM69.3106 42.0627C69.4199 42.0996 69.4539 42.0408 69.4125 41.8863C69.3959 41.8245 69.3722 41.7977 69.3412 41.806C69.3578 41.8678 69.3548 41.9183 69.3322 41.9575C69.3095 41.9967 69.3024 42.0317 69.3106 42.0627ZM68.943 42.3599C69.0976 42.3185 69.1542 42.2205 69.1128 42.066C68.9582 42.1074 68.9016 42.2054 68.943 42.3599ZM69.353 43.89L69.3157 43.7509C69.2909 43.6581 69.263 43.6159 69.2321 43.6242C69.22 43.8262 69.2603 43.9148 69.353 43.89ZM69.8448 44.0563C69.7786 43.8091 69.7187 43.7092 69.6651 43.7566C69.6734 43.7875 69.7054 43.8452 69.7612 43.9297C69.7778 43.9915 69.8056 44.0337 69.8448 44.0563ZM69.5451 44.236C69.5286 44.1742 69.5079 44.0969 69.483 44.0042C69.4974 43.9341 69.4695 43.8919 69.3994 43.8775C69.4159 43.9393 69.4367 44.0166 69.4615 44.1094C69.4472 44.1795 69.475 44.2217 69.5451 44.236ZM69.9724 44.7179C69.9762 44.4849 69.9307 44.3149 69.8357 44.2078C69.8131 44.247 69.8184 44.3285 69.8515 44.4521C69.8846 44.5757 69.9249 44.6643 69.9724 44.7179ZM69.6478 44.8048C69.6396 44.7739 69.6426 44.7234 69.6569 44.6533C69.6796 44.6141 69.6558 44.5873 69.5857 44.573C69.594 44.6039 69.5827 44.6235 69.5518 44.6318C69.5209 44.6401 69.5096 44.6597 69.5178 44.6906L69.5766 44.7245C69.5932 44.7863 69.6169 44.8131 69.6478 44.8048ZM70.2209 45.6451C70.2043 45.5833 70.1783 45.4246 70.143 45.1691C70.085 44.9527 70.021 44.8374 69.9509 44.823C69.9757 44.9157 70.0017 45.0744 70.0287 45.2991C70.0641 45.5546 70.1281 45.67 70.2209 45.6451ZM69.8184 45.256C69.7688 45.0706 69.7285 44.982 69.6975 44.9903C69.6523 45.0687 69.6534 45.1346 69.7009 45.1882C69.7174 45.25 69.7566 45.2726 69.8184 45.256ZM71.2872 6.59867L71.2533 6.65746L71.3121 6.6914L71.2872 6.59867ZM69.5056 8.66623L69.552 8.6538C69.5934 8.80835 69.5987 8.88977 69.5678 8.89805L69.5056 8.66623ZM71.1832 10.1051C71.2759 10.0802 71.3347 10.1142 71.3596 10.2069C71.306 10.2544 71.271 10.2472 71.2544 10.1854C71.2152 10.1627 71.1915 10.136 71.1832 10.1051ZM71.0892 14.2051L71.2283 14.1678L71.2904 14.3997L71.1513 14.4369L71.0892 14.2051ZM71.3312 17.5194L71.4703 17.4821L71.4952 17.5749C71.4643 17.5831 71.4529 17.6027 71.4612 17.6336C71.4612 17.6336 71.4458 17.6378 71.4149 17.6461L71.3221 17.6709L71.2973 17.5782L71.3312 17.5194ZM75.3685 19.4192C75.2592 19.3822 75.1447 19.2639 75.0249 19.064C75.1342 19.101 75.2487 19.2194 75.3685 19.4192ZM77.1237 18.5514C77.3875 18.5469 77.5515 18.6024 77.6155 18.7177C77.5537 18.7343 77.4836 18.72 77.4052 18.6747C77.2959 18.6377 77.2424 18.6852 77.2446 18.8171C77.1601 18.8729 77.121 18.8503 77.127 18.7492C77.1022 18.6565 77.1011 18.5906 77.1237 18.5514ZM78.9567 18.1596C79.0103 18.1121 79.0495 18.1347 79.0743 18.2275C79.1218 18.281 79.161 18.3036 79.1919 18.2953C79.1384 18.3428 79.06 18.2976 78.9567 18.1596ZM76.1409 18.9638C76.1718 18.9555 76.2069 18.9627 76.2461 18.9853C76.3079 18.9687 76.3543 18.9563 76.3852 18.948C76.4017 19.0098 76.3441 19.0419 76.2122 19.0441C76.1503 19.0606 76.1266 19.0339 76.1409 18.9638ZM79.6771 18.066C79.6688 18.0351 79.711 18.0072 79.8037 17.9823L79.841 18.1214L79.7822 18.0875C79.743 18.0649 79.708 18.0577 79.6771 18.066ZM79.9892 17.9326C80.051 17.9161 80.0943 17.9542 80.1192 18.0469C80.1667 18.1004 80.1636 18.1509 80.1101 18.1984C80.0483 18.215 80.0204 18.1727 80.0265 18.0717C80.0099 18.0099 79.9975 17.9635 79.9892 17.9326ZM79.3061 18.1653C79.3453 18.188 79.4113 18.1869 79.504 18.162C79.5123 18.1929 79.4897 18.2321 79.4361 18.2796C79.3743 18.2962 79.3517 18.3354 79.3683 18.3972C79.3064 18.4137 79.2827 18.387 79.2971 18.3169C79.3423 18.2385 79.3453 18.188 79.3061 18.1653ZM81.4886 17.7793C81.6122 17.7462 81.6597 17.7997 81.631 17.9399C81.5692 17.9565 81.5217 17.903 81.4886 17.7793ZM81.7204 17.7172C81.7822 17.7007 81.8297 17.7542 81.8628 17.8778C81.801 17.8944 81.7536 17.8409 81.7204 17.7172ZM71.2326 25.4968C71.1934 25.4741 71.1542 25.4515 71.115 25.4289C71.1768 25.4123 71.216 25.4349 71.2326 25.4968ZM70.1639 47.1015L70.2011 47.2406C70.1084 47.2655 70.0496 47.2315 70.0248 47.1388L70.1639 47.1015Z" fill="#C58A46"/>
</svg>
