<svg width="69" height="53" viewBox="0 0 69 53" fill="none" xmlns="http://www.w3.org/2000/svg">
<path opacity="0.8" d="M61.8234 8.64663C60.8873 7.97304 59.8749 7.41478 58.8077 6.98372C56.0077 5.72416 52.9997 5.00271 49.9379 4.85635C48.3371 4.77621 46.7395 5.06921 45.2687 5.71263C45.13 3.83876 43.1079 2.09076 41.6106 1.31959C39.4743 0.21867 36.8167 -0.027761 34.4522 0.00237681C34.1837 0.00237681 33.9151 0.021896 33.6483 0.0431697C32.497 0.00335137 31.3445 0.0668214 30.2043 0.232851C27.1875 0.655417 24.2726 1.63112 21.6031 3.1119C20.6236 3.65793 18.4435 4.61348 18.0748 5.94841C17.0655 5.03186 15.7753 4.47519 14.4886 4.07985C13.932 3.90746 13.3635 3.7771 12.7877 3.68984C11.4221 2.93639 9.844 2.42406 8.28524 2.65452C6.92134 2.85485 5.41876 3.83877 4.46209 4.80672C3.50543 5.77468 3.16313 7.12378 3.0034 8.45339C2.79275 10.1908 2.6769 11.8076 3.0543 13.5325C3.0543 13.646 3.0701 13.7577 3.07888 13.8711C2.53823 16.2644 2.87701 18.8687 4.23039 20.9819C4.42523 21.285 4.9729 21.0953 4.83423 20.7248C4.62007 20.1504 4.64465 19.5565 4.57268 18.952C4.50071 18.3475 4.28305 17.711 4.15842 17.1136L4.12155 16.9363C4.15315 17.0125 4.18299 17.0906 4.21459 17.1668C4.40105 17.8228 4.62494 18.4675 4.88513 19.0974C5.09051 19.5938 5.35908 20.1806 5.76281 20.544C5.89083 20.6454 6.0284 20.7339 6.17356 20.8082C6.27537 20.9961 6.37016 21.1875 6.48601 21.3648L5.9752 21.6059C2.15732 21.6183 0.279095 25.5522 0.449363 29.1191C0.403724 29.3478 0.363351 29.5747 0.328244 29.8052C0.305424 29.9665 0.28436 30.1278 0.266807 30.2909C0.173775 30.6972 0.10403 31.1086 0.0579199 31.523C-0.386184 35.6005 1.76236 39.8641 5.17125 42.0589C6.60713 42.9843 8.85749 44.1047 10.6128 43.7962C11.0271 43.7235 11.3887 43.5091 11.7872 43.3885C12.1382 43.2821 12.5578 43.8671 12.7473 44.0781C12.8597 44.2004 12.965 44.3281 13.0686 44.4557C13.0896 44.4965 13.1107 44.5373 13.1335 44.5781C13.1657 44.6927 13.2092 44.8038 13.2634 44.9096C13.8234 45.9733 14.4606 46.9891 14.9889 48.0634C15.4515 49.0215 16.106 49.8721 16.911 50.5613C18.3943 51.8023 20.348 52.4688 22.2157 52.8145C26.1881 53.5485 30.1815 52.0487 33.076 49.2937C34.6295 47.817 35.6757 45.9502 36.5358 44.0019C36.5674 43.931 36.5973 43.8583 36.6289 43.7856C37.2645 43.0991 37.8461 42.3635 38.3684 41.5855C38.8416 40.8667 39.2526 40.1081 39.5972 39.3181C40.108 40.0414 40.9856 40.5874 41.8791 41.0023C43.0183 42.1138 44.1927 43.0268 45.841 43.3211C47.7964 43.6757 49.8396 43.1545 51.6424 42.4046C55.3444 40.8658 58.2214 37.8733 59.3659 33.9678C59.9486 31.9273 59.8873 29.7541 59.1904 27.7505C59.15 27.6317 59.1079 27.5112 59.064 27.3959C60.8053 27.7186 62.7502 27.5519 64.3529 26.834C65.7396 26.2099 66.4856 25.0611 66.8244 23.712C66.9051 23.6322 66.9824 23.5507 67.0596 23.4691C71.9693 18.2322 66.5716 11.8253 61.8234 8.64663ZM55.0758 6.60259L55.1759 6.63094C58.0687 7.46061 60.7193 8.73528 63.0364 10.5879C64.0744 11.7127 64.7813 13.1075 65.0778 14.6157C63.6735 12.2171 61.5671 10.2102 59.0359 9.1572C57.0471 8.33107 54.7985 8.27079 52.6886 8.47289C51.6902 8.57763 50.6981 8.73683 49.7168 8.94979C48.3932 9.22635 47.2084 9.75819 45.8427 9.39299C45.597 9.3274 45.3582 9.25824 45.1195 9.19797C45.4938 8.92914 45.8842 8.68404 46.2886 8.46404C47.0064 8.02711 47.753 7.64032 48.5231 7.30639C49.9253 6.74505 51.419 6.45285 52.9273 6.4448C53.6465 6.43803 54.3651 6.4908 55.0758 6.60259ZM42.9639 5.59029C41.8177 3.71288 39.5234 3.01971 37.5101 2.57651C34.906 2.03616 32.2308 1.93969 29.5952 2.29109C28.7905 2.39122 27.9962 2.56388 27.222 2.80698C29.1897 1.66706 31.3383 0.871059 33.6026 0.647684C35.6778 0.745842 37.7027 1.3258 39.5199 2.34251C40.5907 2.94526 41.4666 3.74126 42.3285 4.60285C42.9376 5.2056 43.6099 5.86509 44.4156 6.19838C44.0308 6.51054 43.6779 6.86096 43.3624 7.24434C43.2676 7.34894 42.5883 6.62741 42.2495 6.27107C42.3262 6.29444 42.408 6.29444 42.4847 6.27107L42.6971 6.2161C42.7599 6.1993 42.8182 6.16834 42.8675 6.12554C42.9168 6.08273 42.9558 6.0292 42.9816 5.96896C43.0075 5.90873 43.0195 5.84338 43.0167 5.77779C43.014 5.7122 42.9965 5.64809 42.9657 5.59029H42.9639ZM42.0073 6.02465C41.6477 5.71657 41.2584 5.44573 40.8452 5.21623C39.1155 4.22674 37.2505 3.50091 35.3106 3.06226C35.8829 3.12785 36.4533 3.21474 37.0186 3.32288C38.7353 3.65439 40.8803 4.20928 41.9985 5.68426C41.9588 5.79492 41.9626 5.9167 42.009 6.02465H42.0073ZM40.2976 1.41533C41.3561 1.75684 42.3189 2.34814 43.1061 3.14027C43.7258 3.77317 44.4876 4.69149 44.6368 5.62221C43.5959 5.19497 42.7831 4.15786 42.0038 3.39555C41.0239 2.47662 39.896 1.73322 38.6686 1.19727C38.3046 1.03299 37.939 0.887015 37.5715 0.759372C38.4976 0.896719 39.4102 1.11441 40.2993 1.41L40.2976 1.41533ZM20.2497 4.45569C21.0624 3.94866 21.9313 3.50369 22.7897 3.08176C25.0642 1.98257 27.4909 1.23896 29.9866 0.876384C28.8204 1.3082 27.6953 1.84579 26.6251 2.48257C25.7278 2.99224 24.8798 3.58578 24.0922 4.25538C23.7183 4.49116 23.3532 4.74644 23.0003 5.02123C21.8945 5.88104 20.3673 6.95891 19.8881 8.38958C19.5739 7.58826 18.9104 6.81886 18.4083 6.28347L18.3715 6.24447C18.5453 5.43784 19.6441 4.82977 20.2515 4.45039L20.2497 4.45569ZM18.2872 7.01387C18.6965 7.44748 19.0337 7.94496 19.286 8.48709L19.1263 8.3754C18.9823 8.13607 18.8524 7.88965 18.7226 7.68755C18.5715 7.45587 18.3949 7.24233 18.1959 7.05109C18.2309 7.04826 18.2638 7.03321 18.289 7.00855L18.2872 7.01387ZM17.4499 7.12556C17.6274 7.27669 17.7913 7.44341 17.9397 7.62373C17.643 7.44645 17.3393 7.28689 17.0322 7.13443C16.9498 7.02653 16.8613 6.92353 16.7671 6.82596C16.5003 6.56004 16.2264 6.29411 15.9491 6.04415C16.4772 6.36235 16.9796 6.72216 17.4517 7.12023L17.4499 7.12556ZM12.1628 4.21991L12.3085 4.29438C11.0482 4.20574 9.75974 4.47166 8.55381 4.82622C9.65091 4.23765 10.899 4.09581 12.1646 4.21459L12.1628 4.21991ZM10.2126 3.68807C9.01693 3.86558 7.91353 4.43931 7.07581 5.31907C6.69139 5.46444 6.31048 5.61866 5.93132 5.7729C5.69338 5.87082 5.46432 5.98946 5.24673 6.12746L5.25727 6.10974C6.45266 4.34579 8.21152 3.51255 10.2144 3.68274L10.2126 3.68807ZM5.35908 5.0425C5.59593 4.81982 5.84946 4.61594 6.11739 4.43266C5.8082 4.68384 5.52156 4.96206 5.26078 5.2641C4.86489 5.72283 4.51996 6.22399 4.23214 6.75859C4.4684 6.10475 4.85458 5.51667 5.35908 5.0425ZM3.70027 11.8217C3.66867 11.4282 3.65639 11.0305 3.66341 10.6286C3.78499 9.35928 4.14733 8.12542 4.73066 6.99437C4.86534 6.86868 5.00655 6.75033 5.1537 6.63981C5.62989 6.32244 6.1466 6.07196 6.68963 5.89523C6.6927 5.9349 6.70699 5.97281 6.73081 6.0045C6.75463 6.03618 6.78696 6.06028 6.82397 6.07392C6.86097 6.08756 6.90107 6.09017 6.9395 6.08143C6.97793 6.07269 7.01306 6.05299 7.0407 6.02465C7.15772 5.88873 7.27884 5.76108 7.40406 5.64171L7.56204 5.58674C9.29106 4.9698 11.1605 4.56028 12.9913 4.87762C13.1341 4.90244 13.2763 4.93258 13.4179 4.96803C13.769 5.20382 14.1042 5.45557 14.4255 5.71263C14.6993 5.92891 14.9608 6.1576 15.2189 6.38984C14.9889 6.3136 14.7572 6.24448 14.5167 6.18243C14.0305 6.04592 13.5706 5.94663 13.195 5.88104C12.5094 5.76122 11.811 5.7344 11.1184 5.80127C8.73286 5.90409 6.39473 6.83659 4.93428 8.81506C4.29945 9.70744 3.87715 10.7358 3.70027 11.82V11.8217ZM4.87635 22.2175C4.67108 22.3559 4.47576 22.5087 4.29182 22.6749C4.21108 22.7494 4.1356 22.8256 4.06012 22.9018C3.46212 23.3743 2.92439 23.9197 2.45924 24.5257C1.95825 25.1727 1.5401 25.8809 1.21469 26.6336C1.67811 24.5825 2.92265 22.7866 4.87635 22.2158V22.2175ZM12.6999 42.8389C12.0505 42.3283 11.4572 42.5765 10.7691 42.8673C9.86506 43.2449 8.54328 42.69 7.69018 42.3674C6.60578 41.9576 5.59084 41.3804 4.68151 40.6566C4.49544 40.5041 4.3164 40.3446 4.14086 40.1779C5.73472 41.3161 7.94646 41.7734 9.82995 42.0181C10.3829 42.089 10.9341 42.1404 11.4888 42.1759C12.0031 42.2096 12.5929 42.0092 12.8263 42.6049C12.8799 42.7464 12.9187 42.8932 12.9422 43.0428C12.8597 42.9807 12.7824 42.9045 12.6999 42.8389ZM15.003 45.4627C15.5018 45.8367 16.0302 46.1688 16.5828 46.4555C17.7826 47.0306 19.0654 47.4094 20.3831 47.5777C22.8406 47.9446 25.3964 47.7301 27.8416 47.3596C28.3682 47.2798 28.8948 47.1823 29.4302 47.06C29.1721 47.1948 28.9059 47.3132 28.6333 47.4146C26.8428 48.1006 24.8364 48.4073 22.9354 48.5279C21.5147 48.6374 20.0859 48.5317 18.6962 48.2141C18.5751 48.1574 18.454 48.0971 18.3346 48.0368C17.0932 47.3669 15.968 46.4975 15.003 45.4627ZM31.0188 46.615C31.8519 46.3425 32.6539 45.9812 33.4113 45.5371C30.6858 47.549 27.47 48.7746 24.108 49.0828C23.5084 49.135 22.906 49.1438 22.3052 49.1094H22.3579C24.54 49.0674 26.7015 48.6748 28.7614 47.9464C29.5922 47.6505 30.3587 47.1954 31.0188 46.6061V46.615ZM32.5898 48.4552C31.1182 49.9643 29.2733 51.048 27.2468 51.5936C25.2203 52.1391 23.0861 52.1267 21.0659 51.5576C18.8788 50.9513 17.0778 49.8203 15.9368 47.8081C15.8719 47.6947 15.8104 47.5812 15.7472 47.466C15.8561 47.5546 15.9667 47.6432 16.0825 47.7212C16.3874 47.9388 16.7125 48.1258 17.0532 48.2797C17.5658 48.6206 18.106 48.9171 18.6681 49.1661C20.3849 49.9249 22.2631 50.0791 24.1097 49.9461C27.8609 49.6784 31.5647 48.1006 34.5014 45.7517C34.5821 45.6878 34.6594 45.6205 34.7384 45.5549C34.1479 46.6082 33.4251 47.58 32.5881 48.4463L32.5898 48.4552ZM52.4621 41.0838C50.5488 42.105 48.2493 42.7875 46.0797 42.479C45.5329 42.4002 45.0042 42.2249 44.5174 41.9614C47.3453 42.7219 50.3575 42.417 52.8659 40.8055C55.5217 39.0983 57.0682 36.2955 57.3069 33.1558C57.4073 31.6069 57.1675 30.0547 56.6048 28.6103C56.3027 27.8486 55.9095 27.127 55.4339 26.4616C55.2075 26.1372 54.9617 25.827 54.7195 25.5167C54.4581 25.2289 54.2115 24.9277 53.9805 24.6144C54.5738 24.8537 55.1741 25.6355 55.6042 25.9546C56.3656 26.5 57.2149 26.9079 58.1144 27.1601C58.6046 28.2198 58.8974 29.3617 58.978 30.5285C59.3027 35.0208 56.2256 39.0699 52.4621 41.075V41.0838ZM63.6314 26.178C62.0814 26.779 60.2611 26.763 58.6304 26.3553C58.42 25.9283 58.1777 25.5182 57.9055 25.1285C57.7159 24.8989 57.5462 24.6534 57.3982 24.3946C57.4321 24.4086 57.465 24.4252 57.4965 24.4442C57.6825 24.5346 57.8598 24.6481 58.0354 24.7562C58.5462 25.0718 59.0254 25.437 59.5397 25.7454C60.2524 26.1727 61.2705 26.1922 62.0674 26.1284C63.2118 26.0189 64.3119 25.6268 65.2709 24.9867C64.8406 25.5236 64.2739 25.9323 63.6314 26.1691V26.178ZM66.0801 23.2227C65.1829 24.0719 64.1006 24.6961 62.9205 25.0452C62.0586 25.2951 60.8141 25.3997 59.9996 24.9459C59.4274 24.6339 58.9078 24.2137 58.3496 23.8822C57.9687 23.6535 57.5193 23.3787 57.0611 23.4691C56.3994 23.5985 56.424 24.3378 56.6328 24.8058C56.7779 25.0751 56.9586 25.3232 57.17 25.5433C57.2807 25.6826 57.3832 25.8282 57.4772 25.9794C56.5433 25.6001 55.8254 24.9796 55.0671 24.336C54.5492 23.8982 53.9577 23.5755 53.2766 23.7723C53.1906 23.7966 53.1149 23.8485 53.0607 23.9201C53.0065 23.9918 52.977 24.0793 52.9764 24.1694C52.987 24.6552 53.2362 24.937 53.575 25.2579C54.1824 25.8323 54.6756 26.5804 55.132 27.2772C55.9351 28.5446 56.424 29.9889 56.5574 31.4876C56.7138 32.9278 56.5313 34.385 56.0246 35.7405C55.518 37.096 54.7015 38.3115 53.6417 39.288C51.3896 41.3959 48.3335 42.0305 45.3723 41.4579C44.5374 41.2966 43.7158 41.0714 42.9148 40.7842C42.3882 40.3002 41.8914 39.7684 41.3666 39.2667C41.0366 38.9511 40.2589 38.0896 39.72 38.0683C39.7012 37.8981 39.7078 37.726 39.7394 37.5577C39.8008 37.2138 39.2935 37.0631 39.2127 37.4123C39.1439 37.7062 39.1308 38.0106 39.1741 38.3094C38.8652 38.632 38.7388 39.1958 38.5545 39.5822C38.2972 40.1126 38.0039 40.6244 37.6768 41.114C37.7242 40.9846 37.7734 40.8551 37.8225 40.7257C38.1279 39.9014 38.1736 38.7614 38.7932 38.1055C38.8648 38.0263 38.9034 37.9223 38.901 37.8151C38.8986 37.7079 38.8554 37.6058 38.7803 37.5299C38.7052 37.4541 38.6041 37.4105 38.498 37.408C38.3918 37.4056 38.2888 37.4446 38.2104 37.5169C37.6593 38.0488 37.4627 38.804 37.2731 39.5273C37.0822 40.2195 36.8477 40.8987 36.5709 41.5607C35.9247 42.6745 35.0655 43.6471 34.0432 44.422C33.3984 44.898 32.7002 45.2955 31.9632 45.6063C32.1783 45.3376 32.3793 45.0577 32.5652 44.7677C32.725 44.5195 32.3441 44.3086 32.1773 44.5391C31.7966 45.0737 31.3632 45.5678 30.8836 46.014C29.6963 46.3878 28.4777 46.6513 27.243 46.8012C24.9418 47.1061 22.5808 47.2426 20.276 46.9111C19.0163 46.7347 17.7923 46.3578 16.6495 45.7942C15.6823 45.3102 14.8538 44.6029 13.9814 43.9682C13.8725 43.3814 13.8848 42.7574 13.6654 42.1954C13.5555 41.8922 13.3516 41.6329 13.084 41.4563C12.8164 41.2796 12.4994 41.195 12.1804 41.215C10.983 41.2371 9.78712 41.1181 8.61701 40.8605C6.3526 40.4031 4.31991 39.5645 2.88403 37.6694C1.66406 36.0632 1.12868 34.0599 1.1006 32.0443C2.09062 34.3702 4.04081 36.299 6.20691 37.4921C8.48886 38.7526 11.6485 39.4316 14.106 38.3626C14.3798 38.2438 14.1832 37.7828 13.9041 37.8786C11.5239 38.6817 8.72233 38.0186 6.54569 36.9C4.26879 35.7076 2.48661 33.7355 1.51837 31.3369C1.3865 31 1.28086 30.6533 1.20241 30.2998C1.22172 30.1438 1.24278 29.9878 1.26736 29.8318C1.45221 29.1847 1.68154 28.5515 1.9537 27.9366C2.41009 26.9013 3.02271 25.967 3.55458 24.976C3.69995 24.7025 3.86481 24.4401 4.04783 24.1907C4.44727 23.8196 4.88309 23.4905 5.34854 23.2085C5.80604 22.9195 6.3219 22.7378 6.85814 22.6767C7.25134 22.6412 7.60066 22.6944 7.98859 22.5898C8.05159 22.5729 8.11068 22.5437 8.16245 22.5037C8.21422 22.4637 8.25767 22.4138 8.29029 22.3568C8.3229 22.2998 8.34406 22.2368 8.35253 22.1716C8.361 22.1063 8.35663 22.04 8.33966 21.9764C8.18608 21.6047 7.91681 21.2935 7.57257 21.09C7.57172 21.0847 7.57172 21.0794 7.57257 21.0741C7.56235 21.0165 7.5434 20.9609 7.5164 20.9092C7.8992 21.1164 8.30367 21.2799 8.72232 21.3967C8.78332 21.4157 8.84829 21.4175 8.91023 21.402C8.97217 21.3864 9.02875 21.3542 9.07388 21.3086C9.11901 21.263 9.15099 21.2058 9.16637 21.1433C9.18174 21.0807 9.17994 21.0151 9.16116 20.9535C9.07164 20.6114 8.85047 20.5085 8.51344 20.505C8.47342 20.5047 8.43365 20.5113 8.39583 20.5245C7.46506 20.1494 6.64541 19.5389 6.01558 18.7517C5.47666 17.814 5.02984 16.8254 4.68151 15.8C4.42279 14.675 4.4276 13.5047 4.69555 12.382C4.90009 11.5852 5.22768 10.826 5.66626 10.1322C6.13292 9.62753 6.65065 9.17357 7.21097 8.77781C9.27351 7.30992 11.8978 6.4572 14.4202 6.89508L14.5571 6.92345C15.2592 7.13619 16.1369 7.47303 16.7671 7.9446C16.8654 8.05628 16.9672 8.1662 17.062 8.28144C17.1568 8.39667 17.2884 8.54559 17.4131 8.68209C17.4826 8.82053 17.5261 8.97082 17.5412 9.1253C17.5512 9.19257 17.5802 9.2555 17.6246 9.30661C17.6691 9.35771 17.7272 9.39482 17.7919 9.41351C17.8567 9.4322 17.9254 9.43169 17.9899 9.41202C18.0544 9.39235 18.1119 9.35436 18.1556 9.30258C18.4259 9.47878 18.749 9.55343 19.0684 9.51353C19.5557 9.83313 20.0805 10.0904 20.6306 10.2794C20.915 10.3716 21.1572 9.96383 20.929 9.76173C20.8255 9.67132 20.7184 9.58445 20.6131 9.49581C21.1151 8.94447 21.4907 8.29385 21.9594 7.7035C21.9851 7.71952 22.0139 7.72996 22.0438 7.73416C22.0737 7.73836 22.1042 7.73622 22.1332 7.72789C22.1623 7.71955 22.1893 7.70519 22.2126 7.68573C22.2358 7.66627 22.2548 7.64214 22.2684 7.61486C22.3561 7.41453 22.4527 7.22484 22.5527 7.04047C23.3969 6.17645 24.3515 5.43001 25.3911 4.8209C27.3641 3.6863 29.6619 3.34769 31.9017 3.44874C34.1415 3.54979 36.3919 4.15786 38.4755 4.99463C39.6253 5.45379 40.7803 6.03705 41.7018 6.87736C42.1968 7.3312 42.8218 8.43034 43.6538 8.04564C43.9089 7.90168 44.1238 7.69497 44.2787 7.44467C44.5772 7.0885 44.9461 6.79925 45.3617 6.59549C46.3061 6.07428 47.4506 5.84559 48.5126 5.73745C49.6323 5.6386 50.76 5.68268 51.8688 5.86864C50.6637 5.98082 49.4795 6.25937 48.3493 6.69653C47.58 7.00331 46.8383 7.3764 46.1323 7.81164C45.4442 8.2247 44.7175 8.58104 44.1488 9.1643C43.9891 9.32739 44.0364 9.69613 44.298 9.73159C45.2705 9.86987 46.1306 10.2971 47.1311 10.2634C48.1317 10.2297 49.1621 9.80783 50.1591 9.60572C52.2532 9.18025 54.4264 8.96397 56.5521 9.28131C60.6105 9.88761 63.7051 13.0964 65.2411 16.8016C65.1935 17.9509 65.006 19.0899 64.6829 20.193C64.3845 21.2567 64.0878 22.893 62.7081 22.8522C62.3869 22.8398 62.3096 23.361 62.6309 23.4248C63.8368 23.657 64.4898 22.9621 64.9251 21.902C65.3604 20.797 65.6553 19.6408 65.8028 18.4609C66.2241 19.9625 66.4312 21.7229 66.0801 23.2139V23.2227ZM67.0684 22.0686C67.0982 20.6787 66.9122 19.2927 66.5172 17.961C66.365 17.4321 66.1816 16.9129 65.9678 16.4062C65.9817 15.1236 65.7393 13.8514 65.2551 12.6656C67.3159 14.9472 68.9852 18.1259 67.5897 21.1538C67.4406 21.4702 67.2662 21.7737 67.0684 22.0615V22.0686Z" fill="#50735F"/>
</svg>
