<svg width="108" height="58" viewBox="0 0 108 58" fill="none" xmlns="http://www.w3.org/2000/svg">
<path d="M3.27522 23.4969C3.31262 23.4068 3.24017 23.2912 3.50309 23.2487C3.43765 23.2093 3.38624 23.1801 3.30677 23.1312L3.56736 23.1121C3.64565 23.0639 3.45051 22.9572 3.67603 22.9343C3.68899 22.9151 3.68899 22.8939 3.67603 22.8747C3.57788 22.8181 3.65851 22.7997 3.72394 22.7585C3.83145 22.6918 4.04763 22.6315 3.87235 22.5115L4.03361 22.3699C4.0918 22.3127 4.13843 22.2522 4.17267 22.1895C4.20539 22.0962 4.2124 21.999 4.34795 21.9292C4.4648 21.8721 4.15397 21.8714 4.31055 21.8022C4.36314 21.7806 4.33159 21.6987 4.37833 21.6358C4.39819 21.6682 4.41689 21.6993 4.44026 21.7387C4.60386 21.639 4.60386 21.639 4.49051 21.5209C4.61037 21.4471 4.72309 21.37 4.82822 21.2898C4.88183 21.2529 4.90851 21.2066 4.90311 21.1598C4.89772 21.1129 4.86065 21.0687 4.79901 21.0358L4.94157 21.0256C5.01361 20.9441 5.09478 20.865 5.18462 20.7888C5.36575 20.6548 5.36925 20.6193 5.15424 20.4999C5.53285 20.3329 5.72917 20.1075 5.86588 19.8605C5.93015 19.7436 5.95119 19.6186 6.14283 19.5246C6.16785 19.5097 6.1871 19.4923 6.19944 19.4733C6.21179 19.4544 6.21697 19.4342 6.21468 19.4141C6.21239 19.394 6.20267 19.3744 6.18611 19.3564C6.16955 19.3384 6.14649 19.3224 6.11829 19.3093H6.29123C6.29123 19.1309 6.56351 19.0319 6.79371 18.8864L6.5413 18.8712C6.50625 18.7366 6.84162 18.8401 6.84162 18.7302C7.0134 18.7087 7.06481 18.6236 7.10688 18.5537C7.14895 18.4839 7.34059 18.4001 7.10688 18.3061L7.36045 18.2693C7.27515 18.1086 7.29852 18.0858 7.58014 18.0756V17.8553L7.82437 17.8115C7.95057 17.8883 7.99965 17.9511 7.86293 18.047C7.74607 18.127 7.71102 18.2375 7.63506 18.3334C7.59582 18.3954 7.54409 18.4548 7.48081 18.5105C7.22269 18.6973 7.01129 18.9019 6.85214 19.1188C6.82059 19.1646 6.71659 19.1938 6.66868 19.2376C6.62077 19.2814 6.68854 19.3182 6.56117 19.3474C6.46769 19.3684 6.42094 19.4573 6.36836 19.5201C6.23982 19.6732 6.18139 19.8452 5.94885 19.9703C5.92373 19.9837 5.90837 20.0015 5.90562 20.0205C5.9547 20.3278 5.60063 20.5539 5.35874 20.7983C5.09296 21.0685 4.87578 21.3519 4.7102 21.6447C4.57464 21.8828 4.48817 22.133 4.22291 22.347C4.17033 22.3908 4.19253 22.4613 4.17734 22.5191C4.17386 22.5518 4.16166 22.5841 4.14111 22.615C4.08619 22.6785 3.89105 22.7096 3.99037 22.8093C3.72862 22.9877 3.85365 23.2201 3.70642 23.4087C3.6328 23.502 3.70642 23.6214 3.52529 23.6919C3.51238 23.6979 3.50235 23.7056 3.49604 23.7142C3.48974 23.7228 3.48735 23.7322 3.48907 23.7414C3.59424 23.9319 3.35469 24.0951 3.34767 24.276C3.33766 24.3136 3.31467 24.3498 3.2799 24.3827C3.16304 24.5275 3.04619 24.671 2.92934 24.8164C2.86039 24.9085 2.78911 24.9377 2.57877 24.9434C2.50944 25.0539 2.44011 25.1641 2.37077 25.2742C2.36025 25.2926 2.32987 25.3136 2.33805 25.3275C2.46542 25.518 2.14407 25.6818 2.22821 25.8698C2.00852 25.9561 2.10317 26.12 1.93607 26.2197C1.92906 26.2235 1.93607 26.2317 1.92906 26.2412L2.10551 26.2876C2.0354 26.3727 1.96529 26.4571 1.89751 26.5416C1.86143 26.5737 1.8387 26.6096 1.8309 26.647C1.84609 26.7822 1.70704 26.8914 1.6416 27.0121C1.58371 27.1067 1.53649 27.2032 1.5002 27.301C1.42093 27.5481 1.38999 27.799 1.40789 28.0496C1.40556 28.1066 1.39105 28.1633 1.36466 28.2185C1.28636 28.4414 1.23611 28.663 1.38335 28.8859C1.39153 28.8979 1.4149 28.9125 1.40789 28.9202C1.27234 29.0713 1.47216 29.2192 1.4149 29.3729C1.36999 29.5213 1.34499 29.6714 1.34011 29.8218C1.33194 29.8904 1.3518 29.9596 1.3483 30.0282C1.34479 30.0967 1.3296 30.1552 1.31791 30.2231C1.36115 30.251 1.47684 30.2936 1.46866 30.3272C1.40789 30.5812 1.55045 30.8485 1.37517 31.1006C1.49203 31.2714 1.35647 31.4619 1.52825 31.6308C1.57149 31.6746 1.52825 31.7426 1.5411 31.7985C1.58668 32.0251 1.54812 32.2594 1.74443 32.4728C1.75962 32.4899 1.75144 32.5185 1.77365 32.5261C2.12421 32.6569 1.98632 32.8588 1.92322 33.0062C1.84259 33.1966 1.98515 33.3465 2.03423 33.5141C2.04475 33.549 2.10317 33.5871 2.08798 33.6157C2.03471 33.7365 2.06204 33.8636 2.16511 33.9745C2.21013 34.043 2.23727 34.1146 2.24574 34.1872C2.29088 34.2894 2.35267 34.3893 2.43037 34.4856C2.46776 34.5491 2.54722 34.6272 2.51216 34.6729C2.38012 34.826 2.54488 34.8945 2.74587 34.965C2.72835 35.0215 2.71082 35.0761 2.69095 35.1396C2.88493 35.1688 2.97257 35.2273 3.00646 35.346C3.06956 35.5619 3.25302 35.7644 3.27756 35.9899C3.27756 36.0292 3.24601 36.1441 3.45752 36.141C3.47154 36.141 3.4914 36.181 3.50075 36.2045C3.5732 36.3759 3.64331 36.548 3.71343 36.7194C3.96466 36.7575 3.80341 36.9175 3.90273 36.9512C4.08035 37.0147 3.97752 37.0852 4.01959 37.1474C4.07329 37.2279 4.15237 37.3026 4.2533 37.3684C4.35613 37.4319 4.47415 37.4788 4.38183 37.5754C4.37599 37.5811 4.4239 37.6046 4.45078 37.6166C4.47765 37.6287 4.53258 37.6395 4.53024 37.6427C4.46013 37.7544 4.7102 37.8033 4.70202 37.9049C4.69437 37.9392 4.70403 37.974 4.72997 38.0055C4.7559 38.0371 4.79714 38.0642 4.84925 38.084C4.91936 38.1119 4.91703 38.2325 4.96611 38.2357C5.16125 38.2484 5.0666 38.331 5.11685 38.3697C5.18122 38.4199 5.25272 38.4672 5.33069 38.5113C5.53285 38.6186 5.51532 38.7291 5.42651 38.8523C5.86004 38.8859 5.84953 38.9653 5.8098 39.2047L5.93834 39.1818C6.11615 39.335 6.27691 39.4938 6.41978 39.6574C6.52494 39.7971 6.73061 39.9254 6.65933 40.0854C6.9316 40.2054 7.19101 40.3121 7.2845 40.4994C7.31722 40.5667 7.31605 40.6733 7.55326 40.653C7.57663 40.653 7.62104 40.7222 7.6561 40.7597C7.73088 40.841 7.68881 40.9712 7.95641 40.9737C7.96758 40.9747 7.97816 40.9771 7.98729 40.9808C7.99642 40.9844 8.00385 40.9892 8.009 40.9946C8.0721 41.1362 8.31399 41.2175 8.40864 41.342C8.44358 41.3878 8.50249 41.4271 8.57808 41.455C8.66476 41.493 8.72361 41.5466 8.74401 41.6061C8.80776 41.7104 8.92055 41.8039 9.0712 41.8772C9.22164 41.9465 9.34145 42.0333 9.42176 42.1312C9.43975 42.153 9.46603 42.1725 9.49889 42.1884C9.60523 42.2423 9.71507 42.2944 9.82374 42.3478C9.68702 42.4379 10.0703 42.443 9.92774 42.5344C9.95579 42.542 9.985 42.549 10.0119 42.5579C10.1042 42.5884 10.2526 42.6087 10.2783 42.6513C10.3706 42.8062 10.7083 42.8557 10.7796 43.0189C10.7925 43.0507 10.9222 43.0754 11.0063 43.0888C11.1232 43.1065 11.2038 43.1192 11.24 43.1992C11.2599 43.2399 11.4363 43.257 11.5906 43.2583C11.5041 43.1878 11.4282 43.1123 11.33 43.0469C11.082 42.8689 10.8578 42.6816 10.6593 42.4862C10.3017 42.1554 9.96514 41.8195 9.62042 41.4855C9.30842 41.1832 8.9041 40.9096 8.57808 40.6118C8.38412 40.42 8.21467 40.2212 8.07093 40.0168C7.81694 39.715 7.59418 39.4057 7.40369 39.0904C7.33621 38.9339 7.25431 38.7795 7.1583 38.6275C6.97483 38.3818 6.80773 38.1303 6.58337 37.896C6.46652 37.769 6.35667 37.6516 6.36836 37.5081C6.03416 37.2738 6.17438 36.9664 5.95937 36.7131C5.9173 36.6629 5.97573 36.5899 5.95937 36.5302C5.93132 36.4477 5.9804 36.3499 5.82499 36.2864C5.87173 35.9746 5.56089 35.7022 5.48845 35.4025C5.43937 35.1993 5.32719 35.0006 5.28863 34.7974C5.24121 34.5453 5.15402 34.2959 5.02804 34.0519C4.96727 33.9338 5.01519 33.798 4.97312 33.6779C4.92053 33.5262 4.95442 33.3662 4.81186 33.2227C4.78613 33.1747 4.77662 33.1246 4.78381 33.0747C4.77849 33.0185 4.76718 32.9626 4.74993 32.9071C4.66462 32.6779 4.53608 32.4512 4.50103 32.2201C4.48233 32.0969 4.40053 31.9794 4.40637 31.8588C4.41222 31.7381 4.39703 31.6346 4.38417 31.5216C4.34444 31.2876 4.34444 31.0521 4.38417 30.8181C4.22058 30.7317 4.53959 30.6752 4.42741 30.5742C4.35496 30.5107 4.45429 30.4155 4.49051 30.3336C4.57114 30.1545 4.57465 29.9659 4.64008 29.7843C4.74876 29.484 4.88548 29.1868 5.00467 28.8871C5.10361 28.6395 5.19748 28.3912 5.28629 28.1423C5.33537 28.0045 5.37042 27.8655 5.40899 27.7271C5.46274 27.5277 5.50831 27.327 5.57141 27.1289C5.59362 27.0578 5.67191 26.9918 5.69411 26.9207C5.76305 26.6927 5.82148 26.4635 5.87874 26.2343C5.91146 26.1073 5.88926 25.9657 5.96755 25.8463C6.10544 25.638 6.0844 25.4113 6.2889 25.2113C6.42912 25.0704 6.4747 24.9015 6.56234 24.7446C6.57285 24.7262 6.5787 24.7072 6.59155 24.69C6.76216 24.4525 6.79838 24.2049 6.85681 23.9541C6.90823 23.7363 6.91991 23.4982 7.15012 23.2956C7.19101 23.2594 7.15011 23.1991 7.16764 23.1521C7.26463 22.9013 7.40135 22.6531 7.46212 22.3997C7.56027 22.0073 7.81268 21.6422 8.04639 21.2714C8.10014 21.1825 8.14922 21.0929 8.19362 21.0021C8.24242 20.8692 8.31684 20.7393 8.41565 20.6148C8.55879 20.4345 8.65174 20.2436 8.69143 20.0484C8.7316 19.9263 8.79706 19.807 8.88657 19.6929C9.0268 19.5024 9.21143 19.3195 9.36217 19.1303C9.48954 18.969 9.60289 18.8045 9.71273 18.6394C9.97565 18.2451 10.2117 17.8438 10.623 17.4851C10.7405 17.3787 10.8836 17.2814 11.0484 17.1955C11.3066 17.0641 11.3989 16.8863 11.5672 16.7288C11.5847 16.7123 11.5766 16.6844 11.5988 16.6755C11.8932 16.5536 11.9704 16.3517 12.1936 16.2025C12.398 16.0659 12.5511 15.9078 12.7322 15.7612C12.8351 15.6786 12.9426 15.5973 13.0583 15.5205C13.4223 15.2791 13.7428 15.0193 14.0153 14.7446C14.1704 14.6097 14.3385 14.4793 14.519 14.3541C14.6101 14.283 14.5926 14.1928 14.727 14.1166C14.8987 14.0194 14.9723 13.8709 15.088 13.7439C15.0986 13.7331 15.1021 13.7178 15.1172 13.7109C15.3101 13.6258 15.3591 13.4943 15.4737 13.3838C15.6139 13.2486 15.7342 13.1064 15.8826 12.9743C16.0426 12.8492 16.1769 12.7151 16.2835 12.5743C16.344 12.515 16.4111 12.4577 16.4844 12.4028C16.6013 12.2796 16.8292 12.1888 16.835 12.0314C16.8466 12.0003 16.8761 11.9721 16.9191 11.9507C17.1529 11.8123 17.1715 11.7933 17.1867 11.6294L16.932 11.6142C16.9226 11.6561 16.9133 11.6974 16.9028 11.7488C16.5183 11.8358 16.3653 12.0339 16.1654 12.2193C15.9855 12.1933 15.8593 12.2898 15.7973 12.3463C15.6291 12.5044 15.3755 12.6155 15.1745 12.7502C15.0062 12.8638 14.7223 12.9089 14.6276 13.0746C14.5645 13.1851 14.3238 13.2696 14.1462 13.3553C14.0971 13.3794 13.9896 13.368 13.9125 13.3731L13.9183 13.3788C13.9183 13.3381 13.9183 13.2975 13.9183 13.2562L13.9277 13.2626L14.311 13.1C14.263 12.9794 14.1637 13.0435 14.0714 13.0753C14.0235 13.0022 14.1158 12.9641 14.207 12.9438C14.4599 12.881 14.6771 12.7823 14.8356 12.6581H14.5575C14.7199 12.5666 15.0156 12.6003 15.0086 12.4517C15.164 12.4073 15.365 12.3927 15.4117 12.2612L15.2575 12.2041C15.3743 12.0898 15.3743 12.0898 15.6232 12.1469C15.6384 11.9984 16.0124 11.9298 15.8733 11.7329L16.1537 11.7748C16.114 11.7113 16.079 11.6625 16.2227 11.6066C16.3033 11.5748 16.2916 11.5018 16.4751 11.5253C16.5826 11.5393 16.6819 11.4618 16.7088 11.3869C16.7357 11.312 16.7544 11.2561 16.7801 11.1818C17.0056 11.2256 17.0886 11.0694 17.2346 11.0827C17.4929 11.1062 17.4824 10.9456 17.7173 10.9361C17.556 10.8808 17.4695 10.8256 17.6238 10.7519C17.6448 10.7824 17.6647 10.8154 17.6845 10.8427C17.7138 10.743 18.0515 10.7373 17.9311 10.6027C17.9627 10.5963 18.0071 10.5944 18.0246 10.5824C18.1029 10.5252 18.3261 10.543 18.2898 10.4167C18.2805 10.3874 18.4745 10.3532 18.5341 10.3024C18.7339 10.1404 18.9828 9.99885 19.1359 9.81598C19.2597 9.66803 19.4479 9.53533 19.5904 9.38865C19.7423 9.23118 19.8802 9.06482 20.1058 8.9302C20.208 8.86965 20.304 8.80606 20.3932 8.73971C20.4528 8.69527 20.4844 8.60256 20.5393 8.60002C20.7041 8.59113 20.7017 8.55176 20.6748 8.48763C20.6748 8.48128 20.6994 8.46414 20.7169 8.46287C21.0266 8.42922 21.0383 8.23301 21.2755 8.16063C21.3619 7.97966 21.6903 7.89839 21.8492 7.75742C21.9965 7.62726 22.1846 7.52185 22.3482 7.40311C22.6579 7.17961 22.9512 6.94022 23.3309 6.75608C23.7107 6.57195 24.0625 6.36558 24.4936 6.20747C24.6537 6.14906 24.7647 6.04683 24.9821 6.02588C25.002 6.02588 25.0323 6.01381 25.037 6.00429C25.113 5.85951 25.3525 5.8138 25.5559 5.74459C25.6295 5.71982 25.7276 5.68109 25.7346 5.64109C25.7522 5.52997 25.9087 5.58648 26.0116 5.56108C26.0747 5.47727 26.1086 5.38202 26.3481 5.35916C26.465 5.3471 26.5888 5.26582 26.6718 5.20106C26.9055 5.01819 27.339 4.98199 27.5926 4.80738C27.7562 4.69499 28.0238 4.62832 28.2447 4.54133C28.434 4.58768 28.5146 4.47783 28.656 4.45307C28.7506 4.43656 28.8243 4.35973 28.9119 4.35782C29.0451 4.35782 29.1047 4.34449 29.1152 4.26893C29.1152 4.25178 29.1748 4.22892 29.2146 4.22194C29.3515 4.19887 29.4733 4.15477 29.5651 4.09495C29.6458 4.04606 29.8526 4.04352 29.9496 3.96795C30.2207 3.99462 30.334 3.84096 30.5537 3.80921C30.8739 3.75905 31.124 3.63904 31.3927 3.53872C31.4993 3.5035 31.6191 3.4818 31.7433 3.47522C31.8157 3.46824 31.8298 3.37807 32.0015 3.40665C32.0716 3.41808 32.2201 3.33426 32.2948 3.27965C32.3953 3.206 32.5846 3.3222 32.6548 3.21616C32.6637 3.20843 32.6759 3.20194 32.6903 3.1972C32.7047 3.19246 32.7209 3.1896 32.7377 3.18885C33.038 3.17425 33.2566 3.05297 33.537 3.0117C33.8175 2.97043 34.1213 2.93804 34.3784 2.86058C34.6276 2.78543 34.8903 2.72436 35.1624 2.67834C35.5656 2.60532 35.9559 2.50817 36.3497 2.41928C36.6594 2.34943 36.9573 2.25101 37.2787 2.21418C37.4808 2.19132 37.5965 2.10052 37.7543 2.08719C37.9599 2.06878 38.1049 1.97099 38.2638 1.96845C38.6891 1.96083 39.0023 1.77415 39.4405 1.78812C39.6169 1.7932 39.7969 1.70431 39.9839 1.67637C40.3812 1.61668 40.7831 1.56398 41.1863 1.51763C41.4305 1.49032 41.6864 1.4935 41.926 1.45921C42.1655 1.42492 42.3876 1.34682 42.6271 1.3119C43.2932 1.21538 43.9628 1.12141 44.665 1.16014C44.7099 1.16129 44.7548 1.15762 44.7971 1.14935C45.1231 1.08585 45.4433 1.01601 45.7763 0.968383C46.0579 0.927745 46.3606 0.93219 46.6411 0.887107C46.9617 0.84442 47.2902 0.821627 47.6203 0.819166C48.0702 0.802022 48.4874 0.705507 48.9244 0.674394C49.4245 0.639471 49.92 0.587404 50.4213 0.556926C50.7485 0.537242 51.0909 0.551846 51.3982 0.463586C51.4294 0.455324 51.464 0.451397 51.4987 0.452156C52.1332 0.452156 52.7537 0.365167 53.3929 0.382311C53.6769 0.389295 53.9632 0.335323 54.2518 0.318814C54.4574 0.311627 54.6637 0.313325 54.8688 0.323893C55.2696 0.339767 55.6739 0.349927 56.07 0.384215C56.5188 0.422948 56.9733 0.3912 57.422 0.447712C57.8708 0.504224 58.3382 0.530257 58.7962 0.57026C59.5076 0.63259 60.226 0.668654 60.9464 0.678203C61.3613 0.698015 61.7728 0.735595 62.1768 0.790592C62.9608 0.872218 63.7535 0.926934 64.5502 0.954413C65.1566 0.974732 65.7561 1.04839 66.3614 1.08712C66.6793 1.10807 66.9749 1.18618 67.3103 1.17094C67.5066 1.16141 67.7122 1.20903 67.9132 1.23443C68.2264 1.27063 68.5454 1.29793 68.8481 1.34873C69.1507 1.39952 69.4569 1.46937 69.7595 1.53096C70.0844 1.59446 70.4127 1.65795 70.7329 1.73161C71.1291 1.81987 71.5205 1.91384 71.9108 2.00782C72.1866 2.07428 72.4593 2.14349 72.7288 2.21545C72.9906 2.28466 73.2617 2.27133 73.5386 2.25863C73.7456 2.24277 73.9556 2.24277 74.1626 2.25863C74.4594 2.28974 74.7574 2.36467 75.0776 2.2999C75.1801 2.28793 75.2864 2.28989 75.3872 2.30562C75.8098 2.34647 76.2426 2.34539 76.6645 2.30244C76.7202 2.29264 76.7789 2.28854 76.8374 2.29038C77.2172 2.33356 77.5958 2.38181 77.9767 2.42626C78.2104 2.45293 78.45 2.47515 78.6872 2.49928C78.901 2.52024 79.1394 2.51452 79.3241 2.54627C79.5225 2.57447 79.725 2.59338 79.9294 2.60278C79.9751 2.60851 80.0227 2.60851 80.0684 2.60278C80.4424 2.53103 80.7988 2.57611 81.161 2.63516C81.2693 2.64943 81.3711 2.67558 81.4602 2.71199C81.5922 2.76047 81.7453 2.78936 81.9042 2.79581C82.2349 2.81896 82.5532 2.87906 82.839 2.97233C83.1078 3.05805 83.4502 3.07837 83.761 3.12409C83.8931 3.14314 84.0438 3.13742 84.1607 3.16917C84.6176 3.29616 84.6129 3.29616 85.0043 3.29997C85.0471 3.36817 85.1168 3.43048 85.2084 3.48257C85.3 3.53466 85.4114 3.57527 85.5349 3.60158C85.682 3.64504 85.8216 3.69562 85.952 3.7527C86.0969 3.80985 86.2231 3.87969 86.4195 3.87969C86.4595 3.88323 86.4975 3.89163 86.5307 3.90427C86.5639 3.91692 86.5914 3.93348 86.6111 3.95272C86.7805 4.11463 87.0668 4.2067 87.3286 4.31147C87.4916 4.36886 87.6397 4.43784 87.7691 4.51656C87.9732 4.66252 88.1341 4.82492 88.2459 4.99787C88.3791 5.17375 88.5182 5.34837 88.6514 5.52362C88.8851 5.82205 89.3525 5.9827 89.7405 6.1916C89.8336 6.22879 89.9386 6.25634 90.0501 6.27288C90.5199 6.38546 90.959 6.53244 91.3554 6.70973C91.6652 6.84307 91.9982 6.95961 92.3498 7.05769C92.8022 7.17526 93.2119 7.33615 93.5593 7.53265C93.932 7.74853 94.2919 7.97268 94.6729 8.18476C95.0047 8.37016 95.1917 8.60002 95.374 8.82988C95.5832 9.09656 95.7246 9.37976 95.9349 9.64517C96.1075 9.84549 96.2482 10.0535 96.3556 10.2668C96.3929 10.3388 96.4198 10.4122 96.4362 10.4865C96.4795 10.7405 96.6699 10.9691 96.8242 11.2059C96.9901 11.4675 97.1338 11.7329 97.2764 11.999C97.3991 12.2282 97.4552 12.4733 97.634 12.6879C97.8618 12.9616 97.9086 13.2594 98.1224 13.5324C98.2802 13.7331 98.5326 13.8893 98.7815 14.0512C98.8259 14.0798 98.8983 14.1033 98.9135 14.1363C99.0362 14.3369 99.3249 14.4753 99.5317 14.6442C99.557 14.6721 99.5781 14.7009 99.5948 14.7306C99.6345 14.7801 99.6556 14.843 99.7245 14.8741C99.9582 14.9795 100.045 15.1281 100.183 15.2633C100.354 15.4303 100.364 15.6215 100.488 15.7942C100.631 15.9955 100.798 16.1923 100.955 16.391C100.969 16.4082 101.009 16.4272 101.002 16.4399C100.941 16.5491 101.158 16.5828 101.202 16.6647C101.252 16.7569 101.317 16.8464 101.398 16.932C101.469 17.0019 101.547 17.0697 101.632 17.1352C101.675 17.172 101.748 17.2095 101.748 17.2463C101.745 17.2979 101.763 17.3493 101.801 17.3968C101.838 17.4443 101.894 17.4867 101.965 17.5213C102.106 17.6045 102.134 17.7518 102.178 17.875C102.215 17.9721 102.212 18.0692 102.351 18.1499C102.403 18.192 102.429 18.2416 102.427 18.2921C102.44 18.3718 102.479 18.4496 102.544 18.5213C102.626 18.6185 102.594 18.7455 102.683 18.8388C102.772 18.9322 102.93 19.002 102.88 19.1252C102.87 19.1487 102.971 19.1804 102.98 19.2115C103.071 19.4852 103.219 19.7523 103.421 20.0078C103.471 20.0713 103.328 20.1456 103.507 20.2027C103.592 20.2307 103.605 20.3348 103.631 20.4066C103.657 20.4783 103.652 20.5539 103.668 20.6275C103.672 20.6356 103.68 20.6431 103.69 20.6493C103.701 20.6555 103.713 20.6602 103.728 20.6631C103.892 20.6726 103.904 20.7653 103.906 20.8053C103.906 20.9056 103.917 20.9882 104.088 21.051C104.125 21.0644 104.116 21.1222 104.115 21.159C104.11 21.2339 104.155 21.3072 104.241 21.366C104.325 21.4295 104.32 21.5311 104.358 21.62L104.449 21.6143L104.534 21.7546C104.631 21.9127 104.728 22.0721 104.823 22.2289C104.832 22.246 104.809 22.2727 104.823 22.2848C105.101 22.4842 105.045 22.7375 105.197 22.9559C105.33 23.1464 105.261 23.3509 105.314 23.5471C105.366 23.7287 105.322 23.9185 105.328 24.1046C105.34 24.2961 105.374 24.4869 105.431 24.6761C105.482 24.8716 105.418 25.0767 105.411 25.2774C105.411 25.3409 105.433 25.4107 105.438 25.4774C105.438 25.5275 105.43 25.5777 105.426 25.6272C105.421 25.6768 105.415 25.7403 105.412 25.7961C105.412 25.8704 105.412 25.9441 105.4 26.0177C105.378 26.2171 105.367 26.4165 105.323 26.6146C105.292 26.8333 105.239 27.051 105.166 27.2667C105.08 27.4762 105.101 27.6985 105.072 27.915C105.064 27.9785 105.048 28.0363 105.034 28.0966C105.027 28.115 105.021 28.1337 105.019 28.1525C105.075 28.597 104.989 29.0465 105.172 29.4859C105.221 29.6047 105.172 29.7361 105.159 29.8618C105.161 29.9811 105.145 30.1002 105.11 30.218C105.025 30.425 105.157 30.6269 105.118 30.8327C105.075 31.0638 105.092 31.2987 105.055 31.5311C104.991 31.9439 104.921 32.3566 104.822 32.768C104.771 32.9808 104.658 33.189 104.574 33.3992C104.499 33.5833 104.409 33.7662 104.354 33.9523C104.237 34.3555 104.132 34.7606 104.025 35.1657C104.014 35.2031 104.025 35.2412 104.015 35.2793C103.991 35.4304 104.006 35.5886 103.929 35.7321C103.778 36.0159 103.784 36.3035 103.754 36.5937C103.716 36.9588 103.66 37.3233 103.62 37.6884C103.605 37.8306 103.629 37.9748 103.606 38.117C103.6 38.204 103.556 38.289 103.479 38.3653C103.243 38.5621 103.09 38.7851 103.031 39.018C103.014 39.126 102.926 39.227 102.783 39.3025C102.666 39.3609 102.59 39.4377 102.459 39.493C102.488 39.4428 102.516 39.3926 102.563 39.3088C102.468 39.3342 102.406 39.3399 102.386 39.3583C102.21 39.5215 102.045 39.6892 101.868 39.8517C101.78 39.933 101.664 40.0047 101.577 40.086C101.052 40.5635 100.537 41.0435 100.008 41.5198C99.8637 41.6425 99.7077 41.7612 99.541 41.8753C99.18 42.1388 98.8294 42.4081 98.4438 42.6602C98.1061 42.8805 97.8677 43.1313 97.5907 43.3707C97.4739 43.4761 97.2986 43.5612 97.1584 43.6634C97.0076 43.7589 96.8727 43.8616 96.7552 43.9701C96.5569 44.171 96.3053 44.355 96.0085 44.5162C95.658 44.7111 95.3331 44.9168 94.9896 45.1143C94.7161 45.2705 94.4357 45.4229 94.1541 45.5746C94.0799 45.6152 93.9971 45.6508 93.9075 45.6807C93.3986 45.8678 92.924 46.0811 92.49 46.3176C92.1804 46.4712 91.8345 46.6039 91.5061 46.7462C91.3566 46.8054 91.2131 46.869 91.0761 46.9366C90.4096 47.2827 89.6567 47.576 88.8395 47.8078C88.2743 47.9738 87.6886 48.1183 87.0867 48.2402C86.5307 48.3521 86.0073 48.507 85.5325 48.6999C84.8898 48.9497 84.2211 49.1791 83.5296 49.387C82.7748 49.6225 81.9696 49.813 81.2498 50.0854C80.9168 50.2124 80.6083 50.3553 80.2893 50.4918C80.225 50.5197 80.1724 50.5604 80.1011 50.5763C79.7926 50.6448 79.5835 50.8017 79.2446 50.8506C79.1277 50.8677 78.9466 50.8912 78.9127 50.9966C78.9045 51.0226 78.8146 51.0525 78.7538 51.0601C78.4033 51.1039 78.1812 51.276 77.84 51.3262C77.8178 51.3262 77.7769 51.3261 77.7722 51.33C77.6437 51.5071 77.2908 51.4677 77.0629 51.5478C77.0128 51.5608 76.9685 51.5797 76.9332 51.603C76.8678 51.6633 76.7825 51.6601 76.6668 51.6589C76.5234 51.6599 76.3819 51.6768 76.2508 51.7084C75.9773 51.7719 75.739 51.883 75.4165 51.8779C75.3627 51.8779 75.2669 51.8925 75.2587 51.909C75.1979 52.0456 74.852 52.0272 74.7913 52.1668C74.7819 52.1916 74.6826 52.2088 74.6195 52.2234C74.5026 52.25 74.3928 52.2735 74.3706 52.3618C74.3654 52.3762 74.3536 52.3896 74.3364 52.401C74.3192 52.4123 74.297 52.4211 74.2719 52.4265C74.2469 52.432 74.2197 52.434 74.1928 52.4324C74.166 52.4307 74.1403 52.4254 74.1182 52.417C73.971 52.3726 73.8845 52.417 73.7735 52.4513C73.5152 52.5319 73.2827 52.6418 72.9637 52.6532C72.8901 52.6532 72.8258 52.6983 72.7498 52.711C72.6084 52.7339 72.4986 52.7936 72.3058 52.7561C72.2204 52.7411 72.1281 52.7426 72.0446 52.7605C71.961 52.7783 71.8915 52.8113 71.8477 52.8539C71.7612 52.9282 71.5357 52.9675 71.3569 52.9929C71.1349 53.0234 70.9444 53.0469 70.7902 53.1618C70.6359 53.2768 70.3695 53.2996 70.1136 53.3301C70.1031 53.1682 70.1031 53.1682 70.2936 53.1041L70.4291 53.205C70.449 53.1256 70.463 53.0723 70.4758 53.0221C70.7822 52.9786 71.0703 52.9034 71.3242 52.8005C71.3593 52.7885 71.3996 52.7817 71.4411 52.7809C71.4831 52.7809 71.5579 52.7936 71.5661 52.7859C71.7636 52.5821 72.1609 52.6456 72.4635 52.5859C72.4741 52.5859 72.4834 52.5796 72.522 52.5675L72.4051 52.5199L73.2231 52.2659C73.2348 52.3173 73.243 52.3503 73.25 52.3834C73.331 52.3073 73.445 52.2431 73.582 52.1964C73.7191 52.1497 73.8751 52.1219 74.0364 52.1154C74.1205 52.111 74.1918 52.0456 74.2841 52.0011L74.4314 52.0748C74.4534 52.067 74.4719 52.0567 74.4853 52.0444C74.4987 52.0321 74.5067 52.0183 74.5086 52.0041C74.5105 51.9899 74.5063 51.9756 74.4964 51.9624C74.4864 51.9492 74.471 51.9375 74.4512 51.9281C74.5681 51.9389 74.6172 51.9154 74.5926 51.8506C74.6586 51.8688 74.7349 51.8723 74.8055 51.8605C74.8762 51.8486 74.9356 51.8223 74.9712 51.7871L75.2283 51.8005C75.1231 51.7065 75.1231 51.7065 74.9806 51.7916L74.6031 51.8551L74.4594 51.9319C74.3245 51.9362 74.1909 51.9486 74.0609 51.9687C72.9053 52.2227 71.7566 52.4888 70.5974 52.7396C69.8729 52.8964 69.1075 52.9815 68.3433 53.0621C67.5323 53.1485 66.7166 53.2241 65.9022 53.3022C65.1122 53.3777 64.32 53.4463 63.53 53.525C63.2683 53.5511 63.0147 53.6057 62.7529 53.633C62.3323 53.6774 61.9069 53.706 61.4851 53.7479C61.2442 53.7692 61.0069 53.8013 60.7758 53.8438C60.3771 53.9334 59.9499 53.9796 59.5184 53.9797C59.3547 53.9821 59.1923 53.9967 59.0358 54.0228C58.1208 54.1498 57.1872 54.1352 56.2547 54.1448C55.3818 54.1543 54.5112 54.1498 53.6406 54.2273C53.0564 54.2787 52.4616 54.2546 51.8703 54.2667C51.5197 54.2743 51.161 54.287 50.8069 54.2971V54.3391C51.078 54.3603 51.3511 54.373 51.6249 54.3772C51.6688 54.3728 51.7141 54.378 51.7512 54.3915C51.7883 54.405 51.8142 54.4258 51.8235 54.4495L51.8317 54.4445C51.3794 54.5295 50.8899 55.505 50.4295 55.434C50.2754 55.4184 50.1183 55.4138 49.9621 55.42C49.6571 55.42 49.3521 55.4131 49.0471 55.42C48.8134 55.4239 48.5914 55.4556 48.3658 55.4492C47.9101 55.4372 47.4789 55.521 47.0302 55.5324L46.4179 55.5489C46.2578 55.5527 46.0953 55.5489 45.9691 55.6188C45.951 55.6258 45.9299 55.6301 45.9079 55.6315C45.8858 55.6328 45.8634 55.6311 45.8429 55.6264C45.6642 55.5629 45.4854 55.6105 45.3054 55.6162C45.0647 55.6239 44.838 55.6867 44.5821 55.6372C44.3823 55.5978 44.1871 55.6886 43.9581 55.6499C43.7618 55.6162 43.5292 55.6448 43.3119 55.6435C43.0945 55.6423 42.8959 55.634 42.689 55.6378C42.4701 55.6397 42.2518 55.6505 42.0358 55.6702C41.5439 55.7223 41.0554 55.7839 40.5658 55.8417C39.7583 55.9375 38.9415 56.0036 38.1212 56.0607C37.5907 56.0982 37.0695 56.1585 36.5425 56.2214C36.3874 56.2476 36.2438 56.2908 36.1207 56.3484C35.7514 56.4995 35.3354 56.6081 34.9428 56.737C34.4964 56.883 33.9764 56.9274 33.5405 57.0887C33.3407 57.163 33.0509 57.1706 32.7985 57.2005C32.3603 57.2532 31.9174 57.2951 31.4792 57.3497C31.0994 57.4075 30.704 57.429 30.3107 57.4132C30.1178 57.4011 29.918 57.4303 29.7264 57.4227C29.2298 57.4037 28.7331 57.4303 28.233 57.41C27.7539 57.3903 27.2736 57.3764 26.7992 57.3345C26.3299 57.2934 25.8729 57.2184 25.4402 57.1116C25.2065 57.0532 24.9657 56.9586 24.6701 56.9598C24.6145 56.9562 24.561 56.946 24.5136 56.9299C24.4661 56.9137 24.4258 56.8921 24.3955 56.8665C24.3149 56.8093 24.1244 56.7979 23.9503 56.7598C23.9503 56.7516 23.9339 56.7173 23.9175 56.6766L23.7084 56.716C23.5915 56.6481 23.5156 56.5649 23.3017 56.5408C23.1755 56.5261 23.1007 56.3973 22.9874 56.328C22.9103 56.2811 22.9103 56.1966 22.7326 56.1903C22.6824 56.1903 22.6462 56.0975 22.5959 56.0499C22.5083 55.9661 22.5001 55.841 22.2454 55.8594C22.1285 55.7401 22.2535 55.5889 22.0023 55.4969C21.9369 55.4734 21.9719 55.3699 21.9602 55.2918H21.7616L21.9743 55.1457C21.917 55.107 21.8188 55.0695 21.8083 55.0257C21.7978 54.9819 21.8855 54.94 21.9369 54.8886L21.7487 54.8009L21.9427 54.674L21.7464 54.6352L21.9567 54.3717L21.6237 54.3336L21.91 54.2428C21.8901 54.1908 21.8095 54.112 21.8504 54.0619C21.9439 53.9482 21.6915 53.9558 21.6961 53.8555L21.8212 53.7444L21.681 53.611L21.9684 53.5837L21.7931 53.3812L21.6506 53.4358C21.6915 53.3615 21.716 53.3151 21.7441 53.2694C21.7651 53.237 21.8212 53.2059 21.8118 53.1748C21.7898 53.1265 21.7501 53.0812 21.695 53.0415C21.4613 52.851 21.2428 52.6503 20.9798 52.47C20.7169 52.2897 20.5849 52.0662 20.3243 51.8985C19.9001 51.6198 19.6232 51.2883 19.1768 51.021C19.1546 51.007 19.1195 50.9931 19.1172 50.9772C19.0763 50.7702 18.825 50.6165 18.6731 50.4375C18.5002 50.2337 18.2887 50.0381 18.1683 49.8209C17.9405 49.772 18.0643 49.6304 17.9288 49.5517C17.8045 49.4704 17.6968 49.382 17.6074 49.2882C17.355 49.0552 17.1225 48.8145 16.8525 48.5897C16.6845 48.4633 16.5022 48.3427 16.3068 48.2284C15.97 48.0196 15.6644 47.7964 15.393 47.5611C15.2166 47.4004 14.9957 47.2544 14.8006 47.0988C14.6054 46.9433 14.4196 46.761 14.1906 46.608C13.9265 46.4315 13.8073 45.2311 13.4567 45.0883C13.4205 45.0743 13.4205 45.0337 13.4065 45.0044C13.3681 44.9514 13.3088 44.9035 13.2327 44.8642C13.1566 44.8249 13.0655 44.7952 12.966 44.7771C12.9461 44.7771 12.9216 44.7822 12.8982 44.7847C12.8503 44.6641 12.8503 44.6641 12.7077 44.6197C12.8047 44.48 12.7883 44.4406 12.585 44.3746C12.4973 44.3434 12.4027 44.3184 12.3034 44.3003C12.2297 44.2923 12.161 44.2744 12.1034 44.2482C12.0458 44.2221 12.0012 44.1884 11.9739 44.1504C11.9213 44.0679 11.8161 44.0476 11.6572 44.0507C11.6467 43.8672 11.4457 43.7879 11.129 43.7726C11.1115 43.7275 11.2108 43.6564 11.0414 43.6456L11.0484 43.6494C10.9163 43.5224 10.9163 43.5224 10.581 43.5072V43.3891L10.3811 43.3974C10.1778 43.2532 10.0306 43.0621 9.569 43.0684L9.68585 42.9414C9.43929 42.7891 9.19273 42.6341 8.93799 42.483C8.90293 42.462 8.85853 42.3808 8.74284 42.4874C8.72064 42.3751 8.74284 42.2519 8.49978 42.2868C8.47529 42.2189 8.43607 42.1528 8.38293 42.09C8.31586 42.0445 8.23715 42.0045 8.14922 41.9712C8.16611 41.9687 8.18224 41.9648 8.19713 41.9598C8.22334 41.9509 8.24798 41.9407 8.27075 41.9293C7.99147 41.8207 7.8454 41.648 7.56962 41.5356C7.49484 41.5052 7.52054 41.4023 7.49133 41.3058C7.39785 41.2537 7.14077 41.3851 7.04612 41.215C7.08869 41.2324 7.13451 41.2473 7.18283 41.2594C7.20971 41.2639 7.26463 41.2594 7.27281 41.2512C7.29034 41.2308 7.30553 41.194 7.28567 41.1839C7.21322 41.1451 7.11506 41.1204 7.04612 41.0785C6.90589 40.9953 6.73294 40.9159 6.65699 40.8162C6.59389 40.733 6.49222 40.7349 6.33564 40.7203L6.6044 40.6721C6.48755 40.587 6.43613 40.4752 6.12881 40.5324C6.18256 40.4689 6.21177 40.4384 6.25501 40.3908L5.93249 40.2536C6.07739 40.0371 5.74553 39.9565 5.52584 39.8422C5.50013 39.8282 5.46624 39.8098 5.46624 39.7933C5.4776 39.6746 5.43066 39.5564 5.33025 39.4509C5.22983 39.3453 5.07955 39.2562 4.89483 39.1926C4.84253 39.0129 4.73593 38.8391 4.57932 38.6783C4.44844 38.5513 4.1528 38.4446 4.23927 38.2605C4.24201 38.2543 4.24218 38.2478 4.23975 38.2415C4.23733 38.2353 4.23238 38.2294 4.22525 38.2243C3.95649 38.1176 3.88404 37.9436 3.72862 37.7982L3.73797 37.8033C3.67603 37.7347 3.61293 37.6655 3.551 37.5963C3.53581 37.5798 3.53113 37.5595 3.51478 37.543C3.46686 37.4915 3.28107 37.4795 3.39792 37.3779C3.43531 37.343 3.29509 37.2591 3.26354 37.1937C3.18992 37.0433 3.12682 36.8928 2.79612 36.8286H2.9901C2.95972 36.7423 2.93751 36.6635 2.9048 36.5867C2.86506 36.4915 2.73652 36.4464 2.52619 36.4521C2.64304 36.3486 2.78677 36.2775 2.54488 36.1981C2.50925 36.1759 2.48405 36.1494 2.47143 36.1207C2.45881 36.0921 2.45916 36.0622 2.47243 36.0337C2.53787 35.9187 2.42803 35.8717 2.27261 35.8311C2.40115 35.7397 2.39998 35.7397 2.33338 35.6362C2.2935 35.5911 2.2667 35.5429 2.25392 35.4933C2.25392 35.3803 2.13706 35.3314 1.90335 35.3187L2.13706 35.2012C2.04942 35.0279 1.96412 34.859 1.87648 34.6844L1.62758 34.678C1.70114 34.6123 1.74293 34.5376 1.74906 34.4608C1.75519 34.3839 1.72546 34.3075 1.66263 34.2386C1.54578 34.1154 1.68483 33.9465 1.42892 33.8354C1.49979 33.7408 1.49979 33.6348 1.42892 33.5402C1.36465 33.4468 1.37985 33.4316 1.4523 33.3293L1.29337 33.2843C1.3074 33.1998 1.32025 33.1192 1.3331 33.0385C1.12627 33.0214 1.41023 32.8595 1.14263 32.8436L1.43126 32.7846L1.09706 32.6976L1.19872 32.5706L0.977866 32.5071C1.03279 32.4125 1.0398 32.3407 1.10757 32.2963C1.16862 32.2531 1.20297 32.2006 1.2057 32.1462C1.20843 32.0918 1.1794 32.0383 1.12277 31.9934C0.991889 31.8816 1.06668 31.7934 1.10757 31.688L0.908922 31.6245C0.930934 31.5673 0.970434 31.5126 1.02578 31.4626C1.12627 31.4022 1.08888 31.3514 1.05733 31.2886C0.940473 31.0536 0.832966 30.8168 1.04564 30.5774L0.907754 30.4917C0.927619 30.3418 1.02461 30.1907 0.941641 30.0777C0.851663 29.9507 1.06901 29.7983 0.77454 29.7202C0.994226 29.51 1.04214 29.31 0.795573 29.0992C0.846989 29.0541 1.00474 29.0091 0.844652 28.9367C0.829461 28.9297 0.844653 28.8941 0.865686 28.8732C0.94069 28.7968 1.00062 28.7164 1.04447 28.6332C1.07252 28.5474 0.99072 28.4744 0.75 28.437L0.963844 28.4185C1.05265 28.256 1.01175 28.0782 1.14964 27.9207C0.991888 27.7366 1.33661 27.5702 1.21391 27.3874C1.37868 27.2489 1.35998 27.0889 1.3927 26.9346C1.41958 26.8076 1.44528 26.6756 1.46281 26.5454C1.46982 26.4921 1.50021 26.4273 1.33778 26.3974L1.56214 26.3092C1.56214 26.1619 1.4336 26.0114 1.69418 25.885C1.74443 25.8609 1.66497 25.758 1.63926 25.6729C1.75612 25.6349 1.83207 25.5498 1.89167 25.4494C1.95594 25.3396 1.99801 25.2202 2.15108 25.1281C2.18264 25.1091 2.16394 25.0647 2.17212 25.0348C2.17083 25.0129 2.17925 24.9911 2.19666 24.9713C2.26677 24.9186 2.38713 24.77 2.36843 24.7269C2.31585 24.6113 2.43621 24.5364 2.56942 24.4665C2.70264 24.3967 2.78677 24.3427 2.62902 24.276C2.719 24.189 2.87208 24.1052 2.87675 24.022C2.88376 23.9084 3.04619 23.8366 3.05437 23.7369C3.06255 23.6373 3.28808 23.6023 3.26704 23.5001L3.27522 23.4969ZM76.9893 51.229L76.7615 51.2055C76.8514 51.3179 76.918 51.269 76.98 51.2252V51.1515H76.9508L76.9893 51.229ZM84.1174 48.8955C84.0462 48.925 83.9783 48.9568 83.9141 48.9907C83.8872 49.006 83.8896 49.0352 83.8685 49.0784C84.1139 48.98 84.1139 48.9806 84.1174 48.8955C84.2027 48.9184 84.2892 48.9584 84.3839 48.9025C84.2834 48.8003 84.1992 48.9146 84.1128 48.8955H84.1174ZM20.1805 9.6801C20.2208 9.66168 20.2562 9.64031 20.2857 9.6166C20.3036 9.59503 20.3065 9.57067 20.2939 9.54802C20.2939 9.53786 20.2214 9.5258 20.2098 9.53151C20.1771 9.5463 20.1554 9.56708 20.149 9.58993C20.1526 9.62037 20.1632 9.65108 20.1805 9.6801C20.1677 9.67057 20.1583 9.65533 20.1408 9.65089C20.0801 9.63438 20.0158 9.62168 19.9527 9.60771C19.9457 9.6185 19.934 9.63946 19.934 9.63946C19.9959 9.65152 20.0578 9.66232 20.1198 9.67248C20.1398 9.67563 20.16 9.67818 20.1805 9.6801ZM76.2111 51.4792C76.3034 51.4754 76.3945 51.4716 76.4845 51.4652L76.668 51.2747C76.4506 51.3065 76.4121 51.3763 76.488 51.4697L76.1795 51.3871L76.1421 51.4081L76.2216 51.4874L76.0942 51.5173L76.1316 51.5433L76.2111 51.4792ZM43.4217 1.5316C43.6134 1.61224 43.7793 1.51572 43.9674 1.51382C43.7699 1.38238 43.5806 1.39254 43.4287 1.53604C43.2698 1.45858 43.1039 1.49159 42.9438 1.5316C42.9134 1.53922 42.9111 1.58049 42.8947 1.60843C43.0805 1.63446 43.2453 1.49985 43.4217 1.66113V1.5316ZM101.381 17.8026C101.393 17.8009 101.404 17.7981 101.413 17.7943C101.42 17.7905 101.428 17.7791 101.426 17.7784C101.303 17.727 101.088 17.727 101.1 17.5949L101.334 17.6483C101.141 17.4578 101.003 17.2895 100.687 17.1587L100.929 17.146C100.871 17.1085 100.837 17.0825 100.794 17.0597C100.724 17.0241 100.648 16.9917 100.574 16.9574C100.678 16.8222 100.643 16.7669 100.322 16.6742L100.583 16.9619L100.378 16.9206C100.417 17.0546 100.447 17.1632 100.483 17.2711C100.569 17.5327 100.644 17.7949 100.849 18.0413C100.985 18.1994 101.092 18.3644 101.169 18.534C101.319 18.9005 101.515 19.2611 101.753 19.6135C101.903 19.819 102.084 20.0176 102.293 20.2072C102.524 20.4217 102.674 20.6592 102.733 20.9056C102.808 21.2301 102.85 21.5571 103.112 21.8619C103.205 21.9692 103.263 22.0843 103.285 22.2022C103.332 22.6372 103.536 23.063 103.883 23.4557C103.963 23.5537 104.03 23.6547 104.083 23.7579C104.2 23.942 104.304 24.1274 104.421 24.3116C104.458 24.37 104.503 24.4322 104.645 24.4303C104.805 24.2913 104.665 24.189 104.49 24.0741C104.582 24.0678 104.7 24.0893 104.653 23.9998C104.617 23.9363 104.697 23.85 104.685 23.7763C104.685 23.7465 104.568 23.7211 104.491 23.6861C104.511 23.5877 104.627 23.4836 104.521 23.3528C104.447 23.2588 104.62 23.1255 104.429 23.0264C104.422 23.0226 104.429 22.9966 104.447 22.9947C104.583 22.9712 104.512 22.9312 104.478 22.8937C104.455 22.8683 104.41 22.8423 104.413 22.8175C104.422 22.7579 104.405 22.698 104.363 22.6428C104.321 22.5875 104.255 22.5386 104.171 22.5C104.125 22.4778 104.081 22.4219 104.102 22.3997C104.197 22.2981 104.07 22.2353 104.012 22.1521C103.943 22.0277 103.894 21.9002 103.867 21.7711C103.7 21.7711 103.567 21.7266 103.606 21.7C103.796 21.5685 103.537 21.5343 103.442 21.4733C103.613 21.2936 103.508 21.2193 103.182 21.1006L103.335 21.0009C103.233 20.933 103.146 20.8588 103.076 20.7799C103.024 20.705 103.051 20.6161 103.026 20.5348C103.014 20.4954 102.933 20.4618 102.927 20.4231C102.898 20.2262 102.722 20.0567 102.594 19.8783L102.605 19.8833C102.7 19.7748 102.425 19.7881 102.413 19.7163L102.51 19.6287L102.321 19.6243C102.355 19.5481 102.386 19.477 102.421 19.3995L102.173 19.3703L102.302 19.289C102.259 19.19 102.009 19.1315 102.141 19.0039L101.965 19.009L102.098 18.8966C101.934 18.6896 101.864 18.4794 101.672 18.2997L101.505 18.268C101.483 18.2502 101.462 18.2318 101.441 18.214L101.675 18.162C101.615 18.1124 101.53 18.0724 101.522 18.028C101.493 17.8953 101.504 17.8946 101.377 17.8026H101.381ZM21.6868 51.5264C21.6599 51.5156 21.6085 51.5042 21.6108 51.4947C21.626 51.3861 21.6938 51.2826 21.6833 51.1702C21.6646 50.9581 21.6693 50.9524 21.4823 50.7092C21.4636 50.6857 21.5033 50.6407 21.5384 50.6146C21.5735 50.5886 21.6272 50.5918 21.7137 50.5715L21.4017 50.4127C21.5185 50.334 21.6623 50.2552 21.4402 50.1625C21.4195 50.1473 21.4053 50.1298 21.3986 50.1112C21.3919 50.0927 21.393 50.0735 21.4017 50.0552C21.4519 49.9505 21.3888 49.8863 21.1539 49.8609C21.3549 49.8343 21.3012 49.7873 21.2498 49.7428C21.1984 49.6984 21.1423 49.6654 21.099 49.6235C21.0674 49.6017 21.0442 49.5767 21.0308 49.55C21.0173 49.5233 21.0139 49.4953 21.0207 49.4679C21.0348 49.426 20.9132 49.3606 20.8279 49.3225C20.7859 49.3041 20.6865 49.3225 20.5884 49.3225C20.6456 49.2139 20.5498 49.151 20.3745 49.1021C20.1539 49.051 19.949 48.9818 19.7669 48.897C19.4982 48.7602 19.1924 48.6467 18.8601 48.5605C18.6988 48.5148 18.4815 48.497 18.3565 48.391C18.2863 48.3326 18.1134 48.311 17.9942 48.2748C17.9813 48.2322 17.9685 48.191 17.9545 48.1478L17.7558 48.1719C17.7044 48.1014 17.7453 47.9814 17.4917 48.0075C17.4754 48.0075 17.4532 47.9662 17.4216 47.9548C17.348 47.9368 17.2772 47.9156 17.2101 47.8913C17.1377 47.8544 17.1049 47.7903 17.0266 47.7643C16.7929 47.6792 16.5043 47.6341 16.3676 47.4823C16.0603 47.4436 15.9446 47.2919 15.7705 47.1782C15.57 47.0406 15.2894 46.944 14.9747 46.9045C15.3007 47.0658 15.4561 47.2855 15.6817 47.476C15.953 47.6925 16.2468 47.9005 16.5616 48.0989C16.9024 48.3121 17.2081 48.5412 17.4754 48.7834C17.7289 49.031 18.0737 49.2539 18.284 49.5104C18.5177 49.7962 18.7596 50.0819 19.0307 50.3549C19.3182 50.6476 19.5145 50.9639 19.8978 51.2318C20.2226 51.4591 20.482 51.7157 20.766 51.9582C20.9915 52.1487 21.2334 52.3328 21.4449 52.5297C21.5255 52.6021 21.6354 52.6052 21.7639 52.6217C21.8224 52.5259 21.8597 52.4408 21.7008 52.3678L21.8574 52.3138C21.7207 52.2611 21.8866 52.1189 21.6108 52.1093C21.6459 52.0719 21.6728 52.0458 21.6985 52.0179L21.7604 52.0814L21.8083 52.0598L21.6915 52.0223C21.7539 51.9432 21.7849 51.8578 21.7827 51.7717C21.7805 51.6857 21.745 51.6008 21.6786 51.5226L21.8037 51.4883L21.7394 51.456C21.7207 51.4763 21.7043 51.5023 21.6868 51.5264ZM32.2037 4.18829H32.3907L32.4012 4.16035L32.2095 4.10638C32.2095 4.09685 32.2095 4.08733 32.2154 4.0778H32.7097C32.8383 4.00028 32.9983 3.94006 33.1771 3.90192C33.197 3.89747 33.211 3.87843 33.2215 3.86446C33.232 3.85049 33.2414 3.82572 33.2519 3.80667C33.2839 3.81767 33.318 3.82681 33.3535 3.83398C33.3973 3.84418 33.4456 3.84727 33.4926 3.84287C33.5588 3.82525 33.6214 3.80397 33.6796 3.77937C33.6702 3.74635 33.6609 3.71206 33.6574 3.70064C33.8665 3.59587 34.1248 3.59587 34.3304 3.50697C34.5361 3.41808 34.7979 3.4384 34.9907 3.34252C35.1835 3.24664 35.492 3.33045 35.6077 3.17488L35.7491 3.2606C36.0213 3.05615 36.4069 2.98694 36.8113 2.92979C36.8022 2.91222 36.7975 2.89407 36.7972 2.87582C36.8087 2.85642 36.8252 2.83803 36.8463 2.82121C36.9326 2.84021 37.0229 2.85322 37.1151 2.85994C37.1769 2.85189 37.2332 2.8345 37.2775 2.80978C37.1466 2.66755 37.3371 2.71771 37.4516 2.72025C37.4838 2.72016 37.5149 2.71386 37.5393 2.70247C37.5977 2.67453 37.6421 2.62628 37.7064 2.61739C37.7706 2.6085 37.8571 2.63516 37.9261 2.64532L37.9728 2.58183C38.0055 2.60215 38.0324 2.62056 38.0651 2.64151C38.1013 2.59072 38.1329 2.54436 38.182 2.47896C38.5325 2.56151 38.7522 2.48468 38.8597 2.27831C39.0934 2.38372 39.2395 2.10179 39.4498 2.26752C39.7618 2.17291 40.0516 2.08401 40.3426 1.99766C40.3683 1.99004 40.4092 1.99766 40.4431 1.99766C40.5299 1.99459 40.6161 1.98693 40.7002 1.9748C40.8007 1.95702 40.8684 1.91511 41.0052 1.91765C41.1419 1.92019 41.2973 1.79701 41.4913 1.88019C41.51 1.87364 41.5276 1.8662 41.5439 1.85797C41.5369 1.82304 41.5275 1.7786 41.5158 1.73097C41.3803 1.74685 41.2821 1.76145 41.1793 1.76971C40.3655 1.84454 39.5685 1.96563 38.8013 2.131C37.9214 2.30879 37.0683 2.52405 36.1989 2.71835C35.3296 2.91264 34.4929 3.12599 33.6095 3.27902C32.4292 3.48411 31.4219 3.86763 30.3212 4.154C29.8316 4.28099 29.3945 4.4664 28.9294 4.6226C28.2512 4.8434 27.6033 5.09063 26.9908 5.36234C26.1343 5.75157 25.2661 6.13318 24.427 6.53385C23.9721 6.75014 23.5457 6.98353 23.151 7.23231C22.6123 7.57201 22.1203 7.93077 21.6038 8.28317C21.2626 8.5143 20.8969 8.7359 20.572 8.97338C20.3383 9.14609 20.1455 9.33849 19.9352 9.52199L19.9854 9.55437C20.1572 9.45278 20.3792 9.46929 20.6421 9.46548C20.2659 9.24261 20.863 9.28324 20.8291 9.13085C21.0301 9.21403 21.1797 9.20451 21.3094 9.13085C21.3199 9.12514 21.3094 9.10799 21.3094 9.08831L21.106 9.10863C21.0815 9.05847 21.0371 8.98989 21.1925 9.01846C21.3795 9.05275 21.2942 8.9664 21.3432 8.9429L21.4601 8.99624L21.6868 8.84512L21.418 8.83623C21.5483 8.79377 21.6833 8.75581 21.8224 8.72257C21.9392 8.70162 21.8527 8.57526 22.0736 8.60447C22.1058 8.6039 22.1374 8.59985 22.1667 8.59255C22.1959 8.58525 22.2222 8.57485 22.244 8.56195C22.2658 8.54906 22.2826 8.53394 22.2934 8.51747C22.3043 8.501 22.309 8.48351 22.3073 8.46604C22.2921 8.40255 22.4931 8.40255 22.4405 8.33905C22.5422 8.33143 22.6649 8.33905 22.7326 8.31175C22.8004 8.28445 22.8051 8.2165 22.8495 8.15555L23.0949 8.12316C23.1229 8.07491 22.9418 8.01776 23.1183 7.98157C23.1335 7.97839 23.179 8.01903 23.2059 8.03554C23.2515 7.99617 23.2795 7.94918 23.3391 7.92632C23.4146 7.90404 23.4963 7.8886 23.581 7.88061C23.4934 7.7625 23.5144 7.70028 23.6383 7.70091C23.6546 7.72694 23.6722 7.75298 23.6944 7.78473L24.0449 7.66599L23.8813 7.56439C23.9982 7.54408 24.115 7.5009 24.2109 7.50979C24.3908 7.5263 24.4305 7.46661 24.4901 7.40629L24.5638 7.39422C24.7577 7.34152 24.808 7.27485 24.7087 7.20373L24.9716 7.18786C24.9821 7.14214 24.9926 7.0888 25.0043 7.0342L25.2684 6.99293L25.0627 7.10023H25.2625V6.99293V6.97007C25.2736 6.97045 25.2846 6.97152 25.2953 6.97324L25.4261 7.00817C25.4927 6.94149 25.5255 6.85323 25.6073 6.83736C25.795 6.80524 25.9518 6.73401 26.0431 6.63925C26.0572 6.62655 26.0922 6.6056 26.1027 6.6075C26.2862 6.64941 26.2967 6.55734 26.3692 6.51099C26.4053 6.48425 26.4526 6.4625 26.507 6.44749C26.6356 6.41955 26.7711 6.39987 26.9336 6.3713L26.7232 6.28431C26.7302 6.27542 26.7384 6.26653 26.7454 6.257L26.992 6.27669C27.0306 6.21319 27.0644 6.1643 27.089 6.12493C27.2187 6.11032 27.3531 6.11667 27.4127 6.08366C27.498 6.0354 27.5996 6.0481 27.6908 6.03603C27.6359 5.86078 27.6405 5.85443 27.9245 5.84047C27.9854 5.8416 28.0453 5.83148 28.0943 5.81176C28.1433 5.79205 28.1786 5.76389 28.1944 5.73189L28.1874 5.7357C28.2822 5.72336 28.3674 5.69525 28.4313 5.65529C28.4952 5.61533 28.5346 5.56552 28.5438 5.51282L28.8406 5.4633C28.8243 5.43091 28.8149 5.4125 28.8079 5.3998L29.1935 5.32106C29.176 5.28551 29.1643 5.25757 29.169 5.27027C29.3735 5.17439 29.7264 5.22518 29.7287 5.00993L29.8643 5.04168C30.0781 4.81309 30.3551 4.63975 30.9008 4.66705L30.8038 4.52355L31.3098 4.46005L31.3857 4.36989L31.5107 4.44926C31.6077 4.38132 31.679 4.29687 31.8006 4.25877C31.9221 4.22067 32.0284 4.08987 32.2271 4.19527C32.199 4.20416 32.1698 4.21305 32.2095 4.20099C32.1757 4.22258 32.1885 4.20543 32.2025 4.18829H32.2037ZM72.0919 2.36276C72.1177 2.38245 72.1445 2.4015 72.1714 2.42055L72.2076 2.39451L72.0814 2.36784C72.1387 2.29165 72.0814 2.22942 71.9505 2.22117C71.6245 2.19831 71.3768 2.08719 71.0882 2.02433C70.4209 1.87956 69.7478 1.74367 69.0736 1.60843C68.8774 1.56997 68.6763 1.53941 68.4718 1.51699C67.9039 1.4535 67.3348 1.39508 66.7645 1.34047C66.1943 1.28586 65.6416 1.23253 65.0772 1.1938C64.6752 1.16586 64.2592 1.17284 63.8607 1.14681C63.2601 1.10744 62.6641 1.04839 62.0647 1.00458C61.5575 0.967747 61.0492 0.941079 60.5456 0.909966C60.1424 0.887107 59.7346 0.883298 59.335 0.84647C58.3265 0.760749 57.3239 0.65598 56.2967 0.624867C55.82 0.610897 55.3444 0.569625 54.8688 0.569625C54.1596 0.563227 53.4504 0.578491 52.7444 0.615343C51.6693 0.678839 50.6012 0.781703 49.5297 0.869328C49.3229 0.885837 49.1172 0.905521 48.9104 0.923935C48.811 0.93219 48.7608 0.956953 48.8204 1.03505C49.5519 0.982987 50.2822 1.06998 51.0254 1.09855C50.7695 1.20649 50.4774 1.22554 50.1794 1.22554C49.9585 1.22872 49.698 1.18935 49.5274 1.23951C49.1885 1.33984 48.8414 1.29856 48.5259 1.27888C48.1148 1.25259 47.6985 1.29209 47.3282 1.39254C47.2382 1.41476 47.112 1.44778 47.0407 1.43C46.8152 1.37413 46.6153 1.40143 46.4003 1.43953C46.3027 1.44827 46.2034 1.45061 46.1047 1.44651C46.0537 1.44838 46.0034 1.45394 45.9551 1.46302C45.8874 1.48081 45.8175 1.49609 45.7459 1.50874C45.5777 1.52588 45.4071 1.53858 45.2376 1.54937C44.9654 1.56588 44.7083 1.64208 44.4559 1.65732C43.8634 1.69351 43.3481 1.83384 42.8059 1.93861C42.5138 1.99512 42.2216 2.0529 41.933 2.11386C41.4808 2.2091 40.9514 2.19196 40.5658 2.38689C40.5471 2.39642 40.491 2.38118 40.4641 2.38689C40.2304 2.45737 39.9231 2.42245 39.7093 2.53865C39.5772 2.6104 39.4019 2.6485 39.2231 2.58437C39.1448 2.62374 39.0677 2.68787 39.0233 2.68152C38.8796 2.6612 38.8188 2.71009 38.7253 2.74501C38.6449 2.76534 38.5601 2.78006 38.4729 2.78883C38.3012 2.82057 38.0394 2.82883 37.9798 2.89233C37.8501 3.03011 37.5825 2.96979 37.4376 3.05234C37.2273 3.00027 37.1209 3.07075 37.0169 3.15393C36.9709 3.18065 36.9157 3.20222 36.8545 3.21743C36.4891 3.33426 36.123 3.45046 35.7561 3.56602C35.6976 3.58444 35.624 3.61301 35.5691 3.60666C35.4008 3.58698 35.3599 3.65111 35.2723 3.70317C35.0211 3.85112 34.75 3.98827 34.348 4.00542C34.2907 4.00542 34.2311 4.04161 34.1844 4.06383C34.1376 4.08606 34.0909 4.12162 34.0325 4.13432C33.4232 4.27861 32.8333 4.4458 32.2668 4.63467C32.1184 4.68229 31.949 4.71213 31.8076 4.76547C31.3553 4.93501 30.9089 5.11026 30.4649 5.28614C30.1665 5.40382 29.8713 5.52341 29.5791 5.6449C29.3454 5.74078 29.1456 5.85888 28.8979 5.93634C28.6434 6.01174 28.4078 6.10457 28.1968 6.21255C28.1605 6.228 28.1186 6.23905 28.0739 6.24497C28.0291 6.25088 27.9826 6.25152 27.9373 6.24684C27.9066 6.24127 27.8739 6.2397 27.8419 6.24225C27.8098 6.2448 27.7793 6.25141 27.7528 6.26154C27.7263 6.27168 27.7046 6.28505 27.6893 6.30058C27.6741 6.31612 27.6658 6.33338 27.6651 6.35098C27.644 6.45892 27.5132 6.50273 27.3729 6.54147C27.1474 6.60496 26.9055 6.64497 26.68 6.70656C26.6122 6.72497 26.5725 6.77831 26.5281 6.81831C26.4521 6.88752 26.4112 6.97769 26.3049 7.02595C26.1232 7.10057 25.9273 7.16443 25.7206 7.21643C25.5605 7.26088 25.3619 7.27485 25.3221 7.3993C25.3163 7.41708 25.2555 7.4374 25.2158 7.44185C25.0429 7.46089 24.8723 7.47677 24.8267 7.59297C24.8267 7.60059 24.7636 7.61075 24.7402 7.60567C24.6035 7.57455 24.5334 7.63424 24.4831 7.67488C24.2237 7.88759 23.7364 7.97268 23.5039 8.19809C23.1884 8.26159 23.1007 8.4997 22.7104 8.50859C22.6859 8.50859 22.6567 8.53272 22.6392 8.54795C22.541 8.63748 22.4545 8.7321 22.3424 8.81591C22.305 8.84321 22.2021 8.84448 22.1086 8.86036C22.1332 9.03878 21.8971 9.13466 21.6319 9.20832C21.4395 9.25537 21.2836 9.33761 21.1913 9.44072C21.1697 9.46686 21.1343 9.48895 21.0897 9.50421C20.8466 9.57469 20.6001 9.64136 20.5533 9.81344C20.5475 9.83312 20.4914 9.84773 20.4587 9.86487C20.2366 9.98043 20.0216 10.0998 19.7926 10.2109C19.5636 10.322 19.3252 10.4598 19.0482 10.5379C18.7713 10.616 18.7701 10.7919 18.5493 10.8789C18.6346 10.9665 18.485 11.0027 18.4149 11.0548C18.2987 11.131 18.1899 11.2105 18.0889 11.2929C17.8376 11.5355 17.6051 11.7831 17.362 12.0276C17.2685 12.1215 17.1692 12.2136 17.0711 12.3063C16.6691 12.6835 16.2613 13.0594 15.8675 13.4391C15.5262 13.7693 15.2072 14.1058 14.8683 14.4366C14.3729 14.9186 13.7687 15.3611 13.1821 15.81C12.7322 16.1548 12.3291 16.518 11.9026 16.8723C11.6689 17.0673 11.4445 17.2679 11.1851 17.4527C10.9083 17.6462 10.6833 17.8599 10.5167 18.0877L9.80505 19.0757C9.56199 19.4116 9.29089 19.7424 9.08639 20.0846C8.94033 20.3291 8.87255 20.585 8.68909 20.8263C8.53951 21.0231 8.47057 21.2377 8.36423 21.4441C8.15974 21.8397 7.94473 22.2333 7.75308 22.6308C7.65493 22.8347 7.59299 23.0442 7.51938 23.2512C7.43641 23.4861 7.36045 23.7217 7.28567 23.9566C7.21088 24.1916 7.15713 24.4183 7.04378 24.6411C6.77034 25.1802 6.39407 25.7009 6.26202 26.2647C6.10544 26.941 5.84836 27.6109 5.63101 28.2827C5.53869 28.569 5.44872 28.8541 5.33887 29.1399C5.208 29.4796 5.03972 29.8148 4.91703 30.1558C4.76209 30.6108 4.71887 31.075 4.78849 31.5362C4.80835 31.6804 4.79784 31.827 4.83406 31.9699C4.89716 32.2131 4.99181 32.4544 5.06076 32.6969C5.17761 33.0893 5.26759 33.4836 5.38561 33.8754C5.50364 34.2672 5.63334 34.6425 5.76539 35.0247C5.88224 35.3708 6.00962 35.7155 6.13348 36.061C6.25034 36.3753 6.35784 36.6896 6.47353 37.0039C6.61665 37.3805 6.8345 37.7475 7.12324 38.0986C7.37564 38.4129 7.6783 38.7183 7.79983 39.0612C7.82932 39.1353 7.87036 39.208 7.92252 39.2783C8.11066 39.5501 8.2836 39.8257 8.49978 40.0898C8.68281 40.3059 8.89084 40.5154 9.12262 40.7172C9.31543 40.8892 9.57601 41.0391 9.75597 41.2137C10.1883 41.6347 10.5739 42.0684 11.0495 42.4773C11.4327 42.8135 11.8473 43.1388 12.2917 43.452C12.6329 43.6901 13.015 43.9123 13.2347 44.1968C13.267 44.2376 13.3172 44.2736 13.3808 44.3015C13.5619 44.3796 13.6145 44.492 13.6566 44.6031C13.9101 44.5873 13.9791 45.6028 14.0235 45.8289C14.4769 45.7463 14.4313 45.9699 14.5458 46.0892L14.7188 46.0715L14.7608 46.1813C14.935 46.2543 15.0763 46.3051 15.1979 46.3667C15.2937 46.415 15.3451 46.5001 15.4515 46.5261C15.5553 46.5475 15.6499 46.5805 15.7289 46.6229C15.808 46.6653 15.8699 46.7163 15.9107 46.7725C16.0825 46.7687 16.1082 46.8702 16.2402 46.9064C16.4607 46.968 16.6587 47.0508 16.8245 47.1509C16.9308 47.2144 16.9846 47.2931 17.1751 47.3103C17.2863 47.3313 17.3867 47.3664 17.4684 47.4125C17.646 47.4912 17.8189 47.5712 17.9884 47.6557C18.0655 47.6944 18.1309 47.7827 18.1882 47.7827C18.4382 47.7687 18.3892 47.8779 18.4546 47.9471C18.6883 47.8697 18.7479 48.0106 18.8951 48.0494C19.0669 48.0926 19.2457 48.1275 19.2177 48.2456C19.3123 48.2538 19.4093 48.2456 19.4666 48.2703C19.588 48.3177 19.6963 48.3744 19.7879 48.4386C20.0742 48.645 20.364 48.8501 20.7718 48.9885C20.9202 49.0386 21.0371 49.085 21.0593 49.1847C21.0604 49.2003 21.0673 49.2157 21.0796 49.2299C21.0918 49.244 21.1092 49.2568 21.1306 49.2672C21.2731 49.3091 21.2895 49.3809 21.3339 49.4545C21.4391 49.6292 21.5676 49.7993 21.6915 49.9701C21.7451 50.0262 21.7931 50.0839 21.8352 50.1429C21.9521 50.3708 21.9696 50.6127 22.1776 50.8273C22.1847 50.8357 22.1884 50.8448 22.1884 50.854C22.1884 50.8632 22.1847 50.8723 22.1776 50.8807C21.9509 51.0077 22.1776 51.1594 22.132 51.3004C22.1068 51.4045 22.1068 51.51 22.132 51.6141C22.1682 51.8046 21.9719 52.0255 22.3412 52.1855C22.3482 52.1904 22.3531 52.1961 22.3555 52.2021C22.3579 52.2082 22.3578 52.2144 22.3552 52.2205C22.2734 52.3646 22.3856 52.5271 22.1776 52.6649C22.152 52.682 22.1335 52.7019 22.1231 52.7232C22.1127 52.7445 22.1108 52.7667 22.1174 52.7884C22.124 52.8102 22.1391 52.8309 22.1615 52.8492C22.184 52.8675 22.2134 52.8831 22.2477 52.8948C22.2956 52.9138 22.3015 52.9621 22.333 52.9957C22.4639 53.1354 22.5831 53.2796 22.735 53.4123C23.2778 53.8685 23.9201 54.2875 24.6479 54.66C24.7615 54.7326 24.8924 54.7966 25.037 54.8505C25.564 55.0099 26.1086 55.1534 26.6379 55.3096C27.0972 55.4454 27.5435 55.5934 28.0004 55.7305C28.4573 55.8677 28.8617 56.0277 29.4027 56.0442C29.7381 56.0544 30.0688 56.1014 30.403 56.1268C30.4861 56.1279 30.5692 56.1241 30.6507 56.1153V56.0823L30.112 56.0093C30.3457 55.9515 30.4275 55.9502 30.6051 55.9921C30.722 56.0188 30.8388 56.0766 30.9475 56.0671C31.2887 56.036 31.6148 56.0823 31.9454 56.1026C32.2294 56.1204 32.5215 56.1318 32.7973 56.1591C33.161 56.2075 33.5445 56.1834 33.8782 56.0912C33.8934 56.1376 33.9051 56.1756 33.9156 56.2068C34.1963 56.2166 34.4779 56.2149 34.7581 56.2017C35.0103 56.1696 35.257 56.1258 35.4955 56.0709L36.0073 55.7909L36.3906 55.8385C36.359 55.775 36.3403 55.7356 36.3205 55.6937L37.1875 55.5985V55.5312L37.8618 55.4518C37.8524 55.4677 37.8431 55.4842 37.8349 55.5L37.8945 55.507L37.9027 55.4512C38.1866 55.4264 38.4694 55.4023 38.7522 55.3762C38.7861 55.3731 38.8165 55.3591 38.8492 55.3559C38.9329 55.3468 39.0176 55.3409 39.1028 55.3381C39.2886 55.3337 39.5398 55.3718 39.6462 55.321C39.8097 55.2416 39.9605 55.2753 40.1136 55.2638C40.1942 55.2575 40.2889 55.2683 40.3531 55.2486C40.5424 55.1895 40.7645 55.2848 40.9432 55.2042C41.4364 55.2676 41.9435 55.187 42.4378 55.2486C42.5932 55.1851 42.7556 55.2848 42.8725 55.2575C43.0653 55.2137 43.2301 55.2473 43.4054 55.2575C43.557 55.274 43.7111 55.2831 43.8658 55.2848C44.2537 55.2664 44.6382 55.2295 45.025 55.208C45.5438 55.1787 46.0626 55.1495 46.5826 55.1356C47.0816 55.1222 47.5911 55.0981 48.0819 55.1356C48.6556 55.1781 49.2154 55.1438 49.7809 55.1305C50.7707 55.107 51.7581 54.099 52.7479 54.0717C53.0248 54.0635 53.3053 54.0762 53.5799 54.0584C54.0742 54.026 54.5579 53.9695 55.0651 53.9847C55.6085 54.0006 56.1542 53.972 56.701 53.9682C57.2771 53.9644 57.8544 53.9778 58.4235 53.8965C58.6771 53.8603 58.9493 53.8622 59.2123 53.8393C59.6364 53.8025 60.0618 53.7663 60.4813 53.7168C60.8178 53.6774 61.1427 53.5898 61.4792 53.5765C62.0179 53.5593 62.5169 53.473 63.0264 53.3974C63.2032 53.3684 63.3831 53.3452 63.5651 53.3282C64.0664 53.2882 64.5794 53.2774 65.0702 53.2139C66.0693 53.0869 67.0953 53.0367 68.0909 52.8964C68.5489 52.8329 69.0257 52.8107 69.4931 52.7491C69.92 52.6898 70.3406 52.6178 70.7528 52.5332C70.9865 52.4856 71.2038 52.4062 71.4387 52.3516C71.919 52.2449 72.4086 52.1497 72.8912 52.0462C73.292 51.9605 73.6917 51.8729 74.0866 51.7808C74.3531 51.7173 74.6172 51.6538 74.8731 51.5782C75.129 51.5027 75.3405 51.4271 75.5742 51.3541C75.8079 51.2811 76.0334 51.2271 76.2438 51.1528C76.7591 50.9623 77.2487 50.7547 77.8377 50.6302C78.1582 50.5667 78.4676 50.4877 78.762 50.394C79.0904 50.2854 79.4935 50.2505 79.8254 50.1337C79.8459 50.1273 79.8695 50.1244 79.8931 50.1254C80.1794 50.1254 80.3711 50.0232 80.5837 49.9419C81.0979 49.7445 81.6074 49.5425 82.1309 49.352C82.4598 49.2241 82.809 49.1123 83.1744 49.0181C83.588 48.913 83.9608 48.7661 84.2728 48.585C84.371 48.5317 84.489 48.4898 84.586 48.4358C84.912 48.2523 85.3374 48.1386 85.6786 47.9596C86.0198 47.7805 86.4311 47.6205 86.7782 47.4275C87.0178 47.2941 87.2678 47.1379 87.657 47.11C87.6955 47.11 87.7282 47.0789 87.7633 47.063C87.997 46.9576 88.2178 46.8496 88.4516 46.7455C88.711 46.6306 88.9692 46.5138 89.2438 46.409C89.5184 46.3042 89.7112 46.1677 89.9578 46.0547C90.5234 45.7962 91.0971 45.5467 91.6884 45.3041C91.9139 45.2121 92.171 45.1302 92.2131 44.9524C92.2131 44.9295 92.282 44.9098 92.3183 44.8889C92.3545 44.8679 92.4351 44.8355 92.4585 44.8019C92.4808 44.7412 92.5352 44.6854 92.6151 44.6412C92.691 44.6076 92.7004 44.5308 92.7436 44.4742C92.8137 44.3834 92.8476 44.2723 92.9668 44.2069C93.2379 44.0564 93.4085 43.8736 93.62 43.7028C93.8315 43.532 93.9928 43.3129 94.4929 43.3218C94.3632 43.4488 94.2417 43.5758 94.0956 43.7028C93.7976 43.9568 93.4751 44.1987 93.1842 44.4533C92.8161 44.7746 92.4527 45.094 91.9163 45.3422C91.6499 45.4692 91.4091 45.6083 91.1532 45.7404C91.0095 45.814 90.8611 45.8858 90.7115 45.9556C89.9648 46.3017 89.2228 46.6496 88.4679 46.99C87.9187 47.2376 87.352 47.4738 86.7957 47.717C86.6607 47.7763 86.5323 47.8399 86.4113 47.9075C85.9181 48.1837 85.4087 48.4491 84.801 48.653C84.7029 48.686 84.6129 48.7266 84.5194 48.7634C84.616 48.7798 84.7206 48.7748 84.8104 48.7495C85.1042 48.6607 85.3786 48.5542 85.6284 48.432C86.0537 48.2256 86.6018 48.1513 87.1077 48.0396C87.6137 47.9278 88.0811 47.8021 88.5649 47.6802C89.1714 47.5278 89.6738 47.2846 90.2254 47.0833C90.6554 46.9265 90.9698 46.6966 91.4103 46.5468C91.5026 46.5157 91.5482 46.4306 91.644 46.4141C92.0565 46.3398 92.2283 46.0896 92.6338 46.0191C92.7296 45.9137 92.9154 45.8547 93.0778 45.7931C93.2402 45.7315 93.3267 45.64 93.5523 45.6026C93.7778 45.5651 93.9484 45.4292 94.1587 45.3435C94.3564 45.2583 94.5245 45.1547 94.6554 45.0375C94.7851 44.9251 95.1041 44.9105 95.1228 44.7524C95.4254 44.5797 95.7222 44.4038 96.0331 44.2355C96.2317 44.1146 96.3898 43.9758 96.5005 43.8253C96.5238 43.7993 96.5297 43.7618 96.5648 43.7453C96.698 43.6736 96.8487 43.6107 96.9737 43.5358C97.1045 43.4571 97.2218 43.372 97.3243 43.2818C97.558 43.0697 97.7228 42.8373 98.0535 42.6519C98.4321 42.4366 98.7242 42.1757 99.0537 41.935C99.1285 41.8811 99.2173 41.8328 99.2875 41.7763C99.5995 41.5013 99.9021 41.2245 100.212 40.9508C100.301 40.8715 100.409 40.7984 100.498 40.7191C100.682 40.5559 100.849 40.3895 101.038 40.2263C101.239 40.0492 101.454 39.8771 101.649 39.698C101.717 39.6345 101.711 39.5463 101.794 39.4955C102.028 39.3552 102.185 39.1894 102.396 39.044C102.628 38.8665 102.804 38.6693 102.917 38.4605C103.052 38.2656 103.156 38.0646 103.227 37.8598C103.319 37.5544 103.326 37.2471 103.4 36.9429C103.48 36.6121 103.368 36.2756 103.516 35.946C103.578 35.7907 103.624 35.6337 103.653 35.4755C103.719 35.1841 103.763 34.892 103.835 34.6012C103.894 34.3662 103.984 34.1345 104.054 33.9027C104.075 33.8303 104.063 33.7541 104.09 33.6824C104.149 33.5325 104.22 33.384 104.291 33.2379C104.319 33.1795 104.376 33.1249 104.395 33.0658C104.451 32.895 104.498 32.723 104.542 32.5509C104.579 32.4137 104.608 32.2759 104.637 32.1388C104.68 31.9375 104.663 31.7337 104.739 31.5349C104.758 31.5054 104.767 31.4742 104.766 31.4429C104.7 31.2524 104.782 31.0619 104.78 30.8758C104.78 30.7146 104.792 30.5527 104.801 30.3914C104.801 30.2987 104.767 30.2079 104.776 30.112C104.776 30.0485 104.925 29.9507 104.733 29.8904C104.833 29.7822 104.852 29.6573 104.785 29.5418C104.636 29.6872 104.63 29.8009 104.745 29.8929C104.708 29.9069 104.649 29.9164 104.638 29.9348C104.569 30.0529 104.513 30.1736 104.45 30.293C104.362 30.4587 104.367 30.6339 104.216 30.7946C104.06 30.9487 103.947 31.1145 103.88 31.2867C103.821 31.4695 103.673 31.6302 103.571 31.801C103.554 31.8312 103.54 31.8619 103.529 31.8931C103.459 32.1001 103.387 32.3071 103.322 32.5153C103.258 32.7236 103.206 32.9338 103.139 33.1427C103.089 33.3097 103.048 33.4779 102.977 33.6424C102.905 33.8068 102.797 33.984 102.705 34.1548C102.614 34.3256 102.536 34.4939 102.438 34.6628C102.309 34.8837 102.171 35.1034 102.03 35.3225C101.874 35.5613 101.716 35.7987 101.556 36.0349C101.446 36.1956 101.306 36.3524 101.214 36.5143C101.161 36.6096 101.151 36.7099 101.02 36.7905C100.968 36.8252 100.934 36.8665 100.92 36.9105C100.837 37.1595 100.569 37.3665 100.389 37.5931C100.137 37.9106 99.8215 38.2129 99.5364 38.5227C99.3027 38.7767 99.0689 39.0383 98.8352 39.2948C98.7301 39.4066 98.6015 39.5126 98.4964 39.6244C98.2825 39.8447 98.0839 40.0689 97.8642 40.2892C97.6048 40.5483 97.3325 40.8035 97.0626 41.06C96.8031 41.3051 96.5402 41.5494 96.2738 41.7928C96.2171 41.8356 96.1533 41.8756 96.0833 41.9122C96.0377 41.8715 96.0284 41.8398 96.0506 41.8188C96.2843 41.6048 96.4479 41.3743 96.7132 41.1674C97.0287 40.9229 97.218 40.6365 97.5159 40.3851C97.5722 40.3462 97.619 40.3035 97.655 40.2581C97.7193 40.1393 97.683 39.9946 97.9576 39.9342C98.1727 39.6733 98.3853 39.4123 98.6015 39.152C98.7184 39.0148 98.8212 38.8758 98.9521 38.745C99.1287 38.585 99.271 38.4145 99.3763 38.237C99.3961 38.2008 99.3985 38.15 99.444 38.1316C99.707 38.0281 99.7502 37.8547 99.9045 37.7176C100.062 37.5709 100.204 37.4195 100.33 37.2642C100.401 37.1804 100.426 37.0833 100.506 37.0026C100.557 36.9571 100.589 36.9062 100.601 36.8534C100.617 36.7206 100.682 36.591 100.794 36.4724C100.954 36.3257 101.013 36.2819 101.013 36.1111C101.011 36.0548 101.036 35.9992 101.086 35.9498C101.224 35.8305 101.227 35.6997 101.259 35.5689C101.283 35.4654 101.31 35.3435 101.424 35.2698C101.609 35.1498 101.627 35.0158 101.682 34.878C101.76 34.6825 101.815 34.478 101.969 34.3002C102.117 34.1378 102.245 33.97 102.35 33.798C102.384 33.7395 102.448 33.6849 102.479 33.6259C102.543 33.5033 102.651 33.377 102.639 33.2551C102.62 33.0449 102.729 32.8474 102.776 32.6449C102.808 32.5039 102.892 32.3661 102.934 32.2258C102.977 32.0855 103.021 31.9305 103.07 31.7813C103.084 31.6878 103.123 31.596 103.187 31.5089C103.385 31.289 103.518 31.0532 103.578 30.8104C103.615 30.6993 103.695 30.5946 103.716 30.4853C103.738 30.3958 103.716 30.3126 103.812 30.2212C103.889 30.1444 103.825 30.025 103.827 29.9247C103.826 29.9056 103.837 29.8868 103.858 29.8713C103.974 29.792 103.974 29.6993 103.974 29.604C103.989 29.5291 104.014 29.4548 104.048 29.3818C104.083 29.2688 104.158 29.1545 104.022 29.044C104.191 28.9938 104.292 28.9386 104.132 28.8389C104.122 28.826 104.116 28.812 104.116 28.7979C104.116 28.7838 104.122 28.7699 104.132 28.757C104.2 28.6452 104.385 28.5405 104.17 28.4166C104.151 28.4058 104.182 28.3455 104.219 28.3341C104.389 28.2795 104.368 28.2103 104.319 28.1239C104.296 28.0839 104.344 28.0325 104.351 27.9861C104.364 27.9023 104.369 27.8179 104.378 27.7321L104.302 27.5378L104.507 27.3524L104.355 27.2807C104.369 27.1988 104.388 27.1321 104.39 27.0648C104.39 26.9454 104.382 26.826 104.39 26.7073C104.399 26.4616 104.471 26.2171 104.293 25.9758C104.219 25.8702 104.194 25.7559 104.223 25.6437C104.308 25.3529 104.223 25.0723 104.161 24.784C104.065 24.3997 103.895 24.022 103.653 23.6569C103.508 23.4182 103.222 23.2125 103.157 22.9534C103.109 22.7705 102.98 22.5915 102.959 22.4086C102.931 22.1546 102.709 21.9355 102.633 21.6924C102.6 21.587 102.439 21.4841 102.454 21.3857C102.473 21.2771 102.325 21.1996 102.372 21.0815C102.407 20.9467 102.372 20.8093 102.272 20.6847C102.121 20.4701 101.921 20.2669 101.731 20.0605C101.63 19.9506 101.497 19.8491 101.413 19.7354C101.303 19.5779 101.238 19.4109 101.143 19.2503C101.032 19.0598 100.839 18.8782 100.814 18.6871C100.782 18.4648 100.553 18.2972 100.443 18.0997C100.345 17.9213 100.246 17.7422 100.171 17.5606C100.054 17.2717 100.054 16.9727 99.8776 16.6838C99.7677 16.5015 99.7607 16.3028 99.6018 16.118C99.4849 15.9853 99.437 15.8348 99.2582 15.7154C99.2175 15.6774 99.1898 15.6357 99.1765 15.5922C99.1344 15.5154 99.1063 15.436 99.0526 15.3624C98.9497 15.2221 98.8282 15.0862 98.7242 14.9465C98.6681 14.8716 98.6436 14.7897 98.584 14.716C98.5314 14.6525 98.3678 14.5801 98.3947 14.5395C98.473 14.4214 98.2229 14.422 98.2031 14.3401C98.1867 14.2766 98.0582 14.2283 98.0161 14.1661C98.0091 14.1467 97.9922 14.1288 97.9675 14.1143C97.9427 14.0998 97.911 14.0894 97.8759 14.0842C97.836 14.0747 97.8001 14.0609 97.7704 14.0435C97.7408 14.0262 97.718 14.0057 97.7036 13.9834C97.6891 13.961 97.6832 13.9373 97.6863 13.9137C97.6895 13.8901 97.7015 13.8671 97.7216 13.8461C97.766 13.7992 97.8155 13.7538 97.87 13.7102C97.5592 13.6277 97.4505 13.4924 97.4295 13.3242C97.4024 13.2624 97.3578 13.2033 97.2974 13.1489H97.4821C97.5096 13.1058 97.5151 13.0595 97.4983 13.0148C97.4814 12.9701 97.4427 12.9287 97.3862 12.8949C97.3524 12.8727 97.3079 12.8251 97.3243 12.8149C97.4482 12.7349 97.3126 12.7076 97.2402 12.6625C97.2042 12.6342 97.1802 12.6019 97.1701 12.5679C97.1502 12.526 97.1537 12.4809 97.128 12.4409C96.9872 12.2347 96.8701 12.0239 96.7774 11.8098C96.7003 11.6193 96.5659 11.4466 96.4713 11.2637C96.4339 11.19 96.2983 11.1304 96.2668 11.0567C96.178 10.856 96.1429 10.6484 96.0459 10.4497C95.9805 10.3176 96.0179 10.1658 95.8122 10.0554C95.769 10.0325 95.7783 9.98297 95.7526 9.94805C95.6755 9.84138 95.6054 9.7328 95.5107 9.63057C95.3574 9.44231 95.2221 9.24987 95.1052 9.05402C94.9405 8.81718 94.7886 8.58605 94.4731 8.39493C94.1576 8.2038 93.8631 8.02919 93.5756 7.8387C93.2352 7.60561 92.8011 7.41795 92.3066 7.29009C91.7274 7.13192 91.1878 6.93411 90.701 6.70148C90.4615 6.58857 90.169 6.51405 89.8561 6.48622C89.8456 6.52178 89.8199 6.56179 89.8363 6.5675C90.0338 6.64116 90.0443 6.75354 90.07 6.86593C90.083 6.95908 90.1199 7.05077 90.1798 7.13833C90.3247 7.31612 90.2967 7.50026 90.2967 7.68504C90.2966 7.72069 90.3037 7.75625 90.3177 7.79108C90.3706 7.88989 90.4139 7.99014 90.4474 8.09142C90.4508 8.17118 90.4398 8.25093 90.4147 8.32953C90.7372 8.31683 90.5117 8.43366 90.5643 8.48192L90.7302 8.51494C90.6683 8.55875 90.6134 8.59558 90.5573 8.63812C90.5012 8.58161 90.4661 8.50605 90.4147 8.50224C90.2453 8.49081 90.2979 8.4235 90.2698 8.37524C90.1833 8.21714 90.1097 8.05776 90.0116 7.90029C89.9412 7.76153 89.8387 7.62818 89.7066 7.50344C89.4676 7.30989 89.3225 7.08667 89.2847 6.8545C89.2567 6.69132 89.1994 6.54972 88.9973 6.42781C88.9621 6.40264 88.9323 6.37537 88.9085 6.34653C88.6225 6.05859 88.1711 5.82936 87.623 5.69379C87.4384 5.64807 87.3251 5.53822 87.1031 5.52298C87.0213 5.51727 86.9091 5.51219 86.8693 5.48298C86.6356 5.31027 86.3014 5.20677 85.9614 5.10772C85.8702 5.08041 85.7826 5.04993 85.6938 5.02009C85.4778 4.93444 85.2491 4.85863 85.0102 4.79341C84.5346 4.6861 84.0648 4.5572 83.525 4.56546C83.4583 4.55982 83.3949 4.54615 83.3392 4.52545C83.2845 4.50359 83.2247 4.48566 83.1616 4.47212C82.6088 4.41497 82.1017 4.28607 81.5805 4.18003C81.1026 4.08288 80.6281 3.98065 80.1455 3.89112C79.8172 3.82763 79.4631 3.80477 79.1441 3.73302C78.6206 3.61491 78.1146 3.47332 77.604 3.33871C77.3971 3.2841 77.2055 3.21171 76.9917 3.166C76.46 3.05805 75.9248 2.95265 75.3802 2.86502C74.8906 2.78565 74.3835 2.73803 73.8903 2.66437C73.4848 2.60088 73.0899 2.52659 72.6575 2.54754C72.2789 2.56659 71.8874 2.55325 71.5217 2.60024C71.2599 2.63326 70.9982 2.6212 70.7411 2.64024C70.5393 2.6485 70.34 2.66982 70.1475 2.70374C70.0587 2.72216 69.9208 2.74819 69.8682 2.7266C69.728 2.66755 69.5971 2.71453 69.4651 2.71327C69.2313 2.71327 69.0058 2.72469 68.7756 2.72914C68.425 2.73549 68.0745 2.74036 67.7239 2.74374C67.3734 2.74692 67.0228 2.74819 66.6792 2.68025C66.5624 2.65802 66.3696 2.69104 66.3135 2.65358C66.1698 2.5577 65.9851 2.55516 65.7982 2.53421C65.5551 2.50754 65.3132 2.4542 65.0702 2.45102C64.7878 2.43847 64.5113 2.40026 64.2522 2.338C64.1014 2.30879 63.9589 2.26752 63.8128 2.23196C63.6667 2.1964 63.5008 2.13164 63.336 2.12148C63.1713 2.11132 63.1023 2.03639 62.9633 2.01099C62.5122 1.92527 62.0635 1.83384 61.6136 1.74621C61.5389 1.72952 61.4602 1.71862 61.3799 1.71383C60.8268 1.68646 60.2793 1.63227 59.7439 1.55192C59.5177 1.53162 59.2882 1.52438 59.0592 1.53033C58.8991 1.53033 58.7402 1.53795 58.5824 1.54239C58.5158 1.44207 58.6163 1.4154 58.7507 1.42365C59.0603 1.43572 59.3688 1.45477 59.6855 1.47127L59.7591 1.40778C59.8844 1.42394 60.0125 1.43266 60.1412 1.43381C60.5165 1.41455 60.895 1.44102 61.249 1.51128C61.4173 1.54303 61.5692 1.49858 61.7445 1.5462C62.1433 1.64374 62.5522 1.72855 62.9691 1.80019C63.0311 1.95639 63.28 2.00337 63.5359 2.04274C63.6352 2.05798 63.7696 2.04655 63.8362 2.0783C64.0874 2.18878 64.4076 2.17862 64.6857 2.23768C64.8645 2.27577 65.0783 2.33038 65.2419 2.30625C65.4488 2.27577 65.4628 2.36149 65.5633 2.39451C65.6883 2.31387 65.8519 2.33483 66.0097 2.34879C66.0774 2.35451 66.1417 2.37737 66.2107 2.37991C66.7949 2.40277 67.3722 2.42055 67.953 2.44341C68.0909 2.44848 68.2276 2.48595 68.3608 2.4815C68.5279 2.47579 68.681 2.4142 68.8656 2.47452C68.9252 2.4942 69.0724 2.42626 69.146 2.44277C69.4814 2.51897 69.7829 2.39134 70.1159 2.40721C70.3501 2.40878 70.5842 2.40284 70.8171 2.38943C70.8673 2.38943 70.9468 2.43833 70.969 2.43071C71.2085 2.34118 71.489 2.4034 71.7309 2.35197L71.8477 2.44785L72.0919 2.36276ZM22.3505 54.9476C22.139 55.0511 22.1016 55.1413 22.2477 55.2651C22.4721 55.4594 22.4732 55.714 22.8133 55.8772C22.8355 55.888 22.8331 55.9128 22.846 55.9312C22.9301 56.0582 23.0248 56.1718 23.2795 56.2284C23.4085 56.2589 23.5243 56.3036 23.6196 56.3598C23.8447 56.4948 24.1541 56.5797 24.4878 56.5979C24.6582 56.6146 24.8235 56.6443 24.9786 56.6862C25.0487 56.702 25.1387 56.7376 25.1504 56.7712C25.1924 56.883 25.3268 56.9128 25.5009 56.9509C25.7047 56.9915 25.9127 57.0257 26.1238 57.0532C26.5459 57.1045 26.9766 57.1326 27.4092 57.137C27.6803 57.1465 27.9572 57.1167 28.2166 57.2106C28.3708 57.2526 28.5422 57.2724 28.7144 57.2684C28.9663 57.2722 29.2184 57.2675 29.4693 57.2545C30.1774 57.2208 30.8926 57.2767 31.5996 57.2081C32.1464 57.1548 32.6921 57.1071 33.1549 56.9122C33.2722 56.864 33.3598 56.7976 33.4061 56.7217C33.5043 56.57 33.523 56.5573 33.8163 56.5465L34.057 56.5357C34.0161 56.3973 34.2732 56.4798 34.3585 56.4277C34.3246 56.4061 34.3024 56.3814 34.2802 56.3807C33.7509 56.3807 33.2285 56.3026 32.6957 56.3344C32.4321 56.3564 32.1649 56.363 31.8987 56.3541C30.928 56.2965 29.9585 56.2307 28.9902 56.1566C28.7728 56.1397 28.5632 56.101 28.372 56.0423C27.8813 55.8918 27.4197 55.7147 26.9254 55.5686C26.4311 55.4226 25.9158 55.3083 25.4156 55.173C25.2113 55.1156 25.0142 55.0509 24.8255 54.9794C24.5521 54.879 24.3581 54.7381 24.1431 54.6028C23.9281 54.4676 23.6535 54.3577 23.4279 54.2219C23.2351 54.1082 23.0143 53.9895 22.9196 53.8498C22.825 53.7101 22.645 53.6472 22.4873 53.5399C22.2968 53.6631 22.1367 53.7825 22.2255 53.9368C22.2842 54.0046 22.2958 54.0818 22.2582 54.1539C22.1823 54.2638 22.4358 54.3958 22.1834 54.4949C22.1834 54.4949 22.1834 54.5101 22.1834 54.5127C22.4171 54.592 22.25 54.6981 22.2547 54.7933C22.2734 54.8469 22.3056 54.8988 22.3505 54.9476ZM75.6817 2.64215V2.68088C75.794 2.70882 75.9116 2.73011 76.0323 2.74438C76.2812 2.76089 76.4822 2.85169 76.7544 2.84851C76.8566 2.84843 76.9576 2.8603 77.0505 2.8833C77.1435 2.90631 77.2262 2.93992 77.2931 2.98185C77.4731 3.13552 77.7605 3.15711 78.0106 3.22949C78.1123 3.2587 78.2268 3.27457 78.3261 3.30505C78.7295 3.42454 79.1569 3.5183 79.5998 3.58444C80.2367 3.68413 80.8584 3.81048 81.4847 3.92859C82.0327 4.03209 82.5773 4.14194 83.1207 4.24607C83.3544 4.28925 83.5881 4.321 83.8218 4.35719C84.0088 4.3864 84.1934 4.42068 84.3815 4.44354C84.7129 4.47344 85.0305 4.53814 85.3164 4.63403C85.7838 4.80801 86.2512 4.98136 86.8051 5.07851C86.8896 5.09764 86.9684 5.12353 87.0388 5.15534C87.2269 5.22773 87.415 5.30138 87.5962 5.37885C87.713 5.43091 87.824 5.42139 87.9619 5.36932C87.8807 5.2559 87.7618 5.15153 87.6114 5.06136C87.394 4.92421 87.1685 4.7896 86.9757 4.64229C86.8732 4.54798 86.7525 4.45985 86.6158 4.37941C86.4253 4.28607 86.2278 4.19591 86.056 4.09368C85.7405 3.90319 85.3128 3.8162 84.9226 3.69492C84.6818 3.62063 84.4364 3.55142 84.1922 3.48157C83.8826 3.39331 83.5857 3.28283 83.2574 3.22314C82.6579 3.11456 82.0257 3.08091 81.4006 3.03265C81.2882 3.03092 81.1793 3.01127 81.0874 2.97614C80.8303 2.84216 80.5277 2.83708 80.2075 2.85867C79.9317 2.87709 79.6594 2.89233 79.3895 2.82248C79.3111 2.81089 79.23 2.80554 79.1488 2.8066C78.8076 2.78502 78.464 2.77105 78.1263 2.73803C77.6776 2.69485 77.2253 2.65358 76.8199 2.52405C76.7165 2.49679 76.604 2.48124 76.4892 2.47833C76.1152 2.4561 75.9692 2.49992 75.8909 2.6504L75.6817 2.64215ZM38.9894 55.7648C39.167 55.855 39.3003 55.7896 39.4428 55.7566C39.4428 55.742 39.4346 55.728 39.4311 55.714L38.9894 55.7648ZM75.6537 51.5732L75.5835 51.5922V51.7268L75.8173 51.6671L75.6537 51.5732ZM104.68 24.9046C104.727 24.8062 104.727 24.8062 104.532 24.7535C104.583 24.81 104.629 24.8558 104.674 24.904L104.68 24.9046ZM104.657 24.7027V24.5211C104.465 24.5745 104.49 24.6214 104.651 24.7021L104.657 24.7027ZM78.0024 50.8633L77.9639 50.8258L77.639 50.9064C77.6484 50.9166 77.6565 50.9274 77.6659 50.9376L78.0024 50.8633ZM39.6345 55.7578L39.9453 55.7248C39.8121 55.667 39.6987 55.6467 39.6286 55.7578H39.6345ZM46.2952 1.27317C46.0825 1.21919 46.0825 1.21919 46.0439 1.30682L46.2952 1.27317ZM42.044 1.77606C41.9587 1.73669 41.912 1.71256 41.8383 1.68145C41.8138 1.73796 41.7963 1.77796 41.7671 1.84336L42.044 1.77606ZM40.4828 55.7001C40.4513 55.6194 40.3882 55.5972 40.2316 55.6562L40.4828 55.7001ZM42.2707 1.62748L42.2602 1.67192L42.4939 1.68843L42.5044 1.64462L42.2707 1.62748ZM104.688 25.1301C104.698 25.2126 104.704 25.257 104.711 25.3205C104.86 25.2494 104.774 25.2094 104.688 25.1301ZM42.7451 1.5989L42.6867 1.56842C42.6501 1.5862 42.6157 1.60529 42.5839 1.62557C42.5839 1.62557 42.6213 1.64843 42.6411 1.66113L42.7451 1.5989ZM44.0469 1.50366L44.1322 1.50747L44.1427 1.42302H44.0469V1.50366ZM16.7626 11.2961L16.8701 11.3545C16.9133 11.3253 16.9554 11.2961 16.9986 11.2675L16.9332 11.2358L16.7626 11.2961ZM104.746 25.8799H104.678C104.678 25.9098 104.678 25.9403 104.669 25.9701H104.735L104.746 25.8799ZM77.1681 51.0341L77.1774 51.0747L77.3434 51.0684C77.3434 51.0569 77.3434 51.0455 77.3434 51.0341H77.1681ZM45.649 1.26682L45.67 1.29602L45.8009 1.27571C45.8009 1.26555 45.7892 1.25539 45.7845 1.24459L45.649 1.26682ZM48.2969 1.06299C48.2969 1.04839 48.2969 1.03442 48.2887 1.02045L48.1228 1.03696V1.06299H48.2969ZM31.1193 4.60546C31.093 4.59153 31.0631 4.57977 31.0305 4.57054C31.0165 4.56736 30.9931 4.57879 30.9744 4.58387C30.9907 4.59721 31.0013 4.61625 31.0235 4.62133C31.0457 4.62641 31.076 4.61371 31.1228 4.60546H31.1193ZM38.8036 55.8239L38.7861 55.8004L38.6237 55.8334L38.6447 55.8626L38.8036 55.8239ZM42.3537 1.76653C42.3123 1.75336 42.2684 1.74272 42.2228 1.73478C42.2134 1.73478 42.1772 1.76336 42.1842 1.77161C42.192 1.77868 42.2024 1.78473 42.215 1.78934C42.2275 1.79395 42.2417 1.797 42.2567 1.79828C42.2824 1.79955 42.3069 1.78368 42.3572 1.76653H42.3537ZM5.66139 38.9964C5.6497 39.0047 5.62984 39.0136 5.62984 39.0218C5.62984 39.0301 5.6462 39.0421 5.65555 39.0523C5.67415 39.0421 5.69061 39.0308 5.70463 39.0186C5.70463 39.0186 5.68593 39.004 5.67074 38.9964H5.66139ZM47.3141 1.10807C47.3013 1.0922 47.2931 1.07379 47.2849 1.07379C47.2532 1.07458 47.2218 1.07757 47.1914 1.08268C47.2008 1.09284 47.2078 1.11061 47.2195 1.11188C47.2512 1.11337 47.2832 1.11208 47.3141 1.10807ZM97.5872 13.2619C97.5779 13.2524 97.572 13.2391 97.5568 13.2334C97.5417 13.2276 97.5218 13.2334 97.5031 13.2365C97.5136 13.2467 97.5194 13.2594 97.5346 13.2645C97.5498 13.2696 97.5685 13.2638 97.5872 13.2619ZM34.1224 3.67397L34.0991 3.64349L34.0453 3.65555C34.0558 3.66825 34.0652 3.68095 34.0745 3.69365L34.1224 3.67397ZM45.3171 1.35317C45.3253 1.35317 45.337 1.35 45.3405 1.34682C45.344 1.34365 45.3405 1.3373 45.3335 1.33285L45.2972 1.34428L45.3171 1.35317ZM38.1457 55.8709C38.1387 55.862 38.1317 55.8531 38.1235 55.8442L38.071 55.8594C38.0815 55.8709 38.0932 55.8817 38.1037 55.8925L38.1457 55.8709ZM46.793 1.19062L46.8572 1.19633C46.8646 1.17535 46.8697 1.15415 46.8724 1.13284C46.8724 1.13284 46.835 1.12712 46.8152 1.12395C46.8023 1.14427 46.7953 1.16649 46.7883 1.18872L46.793 1.19062Z" fill="#50735F"/>
<path d="M73.0665 52.9048C73.075 52.9632 73.1056 53.0064 73.0799 53.0197C72.9786 53.0712 72.8674 53.1468 72.7465 53.1538C72.0722 53.1912 71.525 53.3805 70.9411 53.531C70.7066 53.5945 70.4623 53.6434 70.2228 53.6993C69.8857 53.7774 69.5522 53.8606 69.2102 53.9318C69.0447 53.9629 68.8731 53.9842 68.6984 53.9953C68.2635 54.0302 67.8934 54.1528 67.4903 54.229C67.0872 54.3052 66.6768 54.4107 66.2126 54.3599C66.1165 54.3505 66.0173 54.3558 65.9268 54.3751C65.4626 54.4793 64.9655 54.4907 64.4757 54.5104C64.1532 54.5231 63.8258 54.4977 63.4985 54.4951C63.1711 54.4926 62.8425 54.4951 62.5152 54.4951C62.4089 54.4951 62.3026 54.4951 62.1976 54.4888C62.1377 54.4856 62.0583 54.4577 62.0229 54.4697C61.6454 54.5968 61.2411 54.4551 60.8515 54.5053C60.6511 54.5313 60.4203 54.4951 60.2028 54.4843C60.0213 54.4661 59.8369 54.4565 59.652 54.4558C59.4041 54.4608 59.156 54.4521 58.9117 54.4297C58.7897 54.4322 58.6689 54.4433 58.5526 54.4627C58.5367 54.4526 58.4976 54.4068 58.4549 54.4056C58.3036 54.4023 58.152 54.4076 58.0029 54.4215C57.8205 54.4479 57.6258 54.4386 57.4557 54.3954C57.3562 54.3699 57.244 54.361 57.1344 54.37C56.6214 54.41 56.112 54.3643 55.599 54.3643L55.4023 54.2252C55.7617 54.1746 56.1417 54.1797 56.4956 54.2398C56.5139 54.243 56.5408 54.2506 56.5518 54.2468C56.8584 54.1439 57.2053 54.2468 57.5229 54.196C57.5458 54.1936 57.5694 54.1937 57.5923 54.1962C57.6152 54.1987 57.6369 54.2036 57.656 54.2106C57.7513 54.2512 57.827 54.269 57.9406 54.2176C58.0148 54.1957 58.1025 54.1898 58.1849 54.2011C58.5208 54.2328 58.8677 54.2011 59.2012 54.257C59.3014 54.2735 59.459 54.2119 59.5432 54.2341C59.6886 54.2728 59.8303 54.1465 59.9757 54.2519C60.0111 54.2773 60.2371 54.229 60.3763 54.2208C60.4477 54.213 60.522 54.217 60.5888 54.2322C60.6288 54.2515 60.6814 54.2623 60.736 54.2623C60.7906 54.2623 60.8432 54.2515 60.8832 54.2322C60.8937 54.229 60.9053 54.2271 60.9173 54.2264C60.9293 54.2258 60.9414 54.2264 60.9529 54.2284C61.224 54.2836 61.4952 54.2093 61.7761 54.2366C62.0519 54.2539 62.3309 54.2517 62.6056 54.2303C62.9268 54.2138 63.2481 54.2303 63.573 54.215C63.9045 54.2049 64.2369 54.2049 64.5685 54.215C64.9213 54.2246 65.2748 54.2246 65.6275 54.215C65.8473 54.1986 66.0636 54.1716 66.2737 54.1344C66.3727 54.1204 66.4594 54.0626 66.5705 54.1223C66.5815 54.1287 66.6487 54.1223 66.6524 54.1134C66.7061 53.994 66.9492 54.0124 67.0714 54.0016C67.3364 53.9788 67.5673 53.8911 67.8592 53.9038C67.9814 53.9089 68.1622 53.8524 68.2892 53.8162C68.4919 53.7483 68.7284 53.7127 68.9696 53.7139C69.027 53.5812 69.4399 53.705 69.4472 53.5355C69.6561 53.5596 69.7745 53.4262 69.8991 53.4326C70.1947 53.4478 70.3462 53.2573 70.6491 53.3183C70.6833 53.3252 70.7469 53.2878 70.8006 53.2751C70.9051 53.2436 71.0162 53.2185 71.1316 53.2001C71.4492 53.1665 71.7766 53.155 72.0881 53.1112C72.3475 53.0659 72.6009 53.0118 72.8466 52.9492L73.0665 52.9048Z" fill="black"/>
<path d="M14.4766 13.125L14.0454 13.5467C14.1541 13.6407 14.1175 13.7226 13.8451 13.7823C13.712 13.8122 13.6362 13.9093 13.5239 13.9665C13.3675 14.0497 13.1989 14.1266 13.0426 14.2104C12.9534 14.2587 12.8862 14.3171 12.7983 14.3666C12.7497 14.3878 12.6959 14.4056 12.6383 14.4193C12.6163 14.3889 12.5686 14.3558 12.5772 14.3279C12.6012 14.2611 12.633 14.1951 12.6725 14.1304C12.9876 14.1742 13.0389 13.99 13.2734 13.9398C13.1171 13.823 13.2124 13.7391 13.3797 13.6553C13.5159 13.5783 13.6436 13.4973 13.762 13.4127H14.0833C13.9086 13.2634 14.17 13.0316 14.4888 13.0132L14.4791 13.0068C14.4302 13.0481 14.3569 13.0894 14.4791 13.1294L14.4766 13.125ZM13.5788 13.8128L13.6375 13.6547C13.4628 13.7023 13.5678 13.7582 13.58 13.8122C13.5519 13.802 13.5263 13.7855 13.4945 13.7817C13.4567 13.7804 13.4186 13.7825 13.3822 13.788C13.3797 13.7935 13.3797 13.7991 13.3822 13.8045C13.4164 13.8085 13.4511 13.8113 13.486 13.8128C13.5165 13.8128 13.5483 13.8128 13.5788 13.8128Z" fill="black"/>
<path d="M11.4689 14.9929C11.5105 14.9637 11.541 14.9193 11.5911 14.9085C11.6697 14.8928 11.7567 14.8928 11.8354 14.9085C11.8604 14.9233 11.8776 14.9411 11.8856 14.9603C11.8935 14.9795 11.8918 14.9995 11.8806 15.0183C11.6827 15.1776 11.5068 15.347 11.2136 15.4676C11.2527 15.4194 11.2539 15.3769 11.1257 15.3559L11.221 15.4638C11.166 15.613 11.1122 15.7621 10.7788 15.8167C10.7667 15.8186 10.7564 15.8226 10.7495 15.8281C10.62 15.976 10.383 15.9842 10.0801 15.962C10.2254 15.9017 10.3537 15.8484 10.4844 15.7964C10.5015 15.7894 10.5455 15.7964 10.5528 15.7888C10.6188 15.7253 10.4172 15.5984 10.6591 15.5984C10.9009 15.5984 10.824 15.4778 10.962 15.4518C10.9889 15.4467 11.0048 15.4105 11.0084 15.3883C11.028 15.2836 11.0316 15.2874 11.2613 15.2106C11.2886 15.196 11.3096 15.1786 11.3227 15.1594C11.3358 15.1402 11.3406 15.1198 11.337 15.0995C11.3272 15.0361 11.3517 15.0012 11.4689 14.9866V15.1459L11.6595 15.0081L11.4689 14.9929Z" fill="black"/>
<path d="M8.12924 17.362L8.31491 17.4254C8.35522 17.3429 8.58853 17.315 8.51035 17.202C8.51035 17.1957 8.53234 17.1766 8.55066 17.1735C8.89268 17.1138 8.9049 16.9196 9.10156 16.8035C9.21516 16.8085 9.27379 16.8314 9.22371 16.8898C9.19341 16.9241 9.15745 16.957 9.11622 16.9882C8.94887 17.1151 8.74244 17.2242 8.66426 17.381C8.64105 17.4286 8.49081 17.4584 8.37721 17.5079C8.30025 17.4679 8.10359 17.4908 8.12924 17.362Z" fill="black"/>
<path d="M9.97789 16.3002C9.88628 16.1475 10.0439 16.1146 10.2442 16.0962L9.97789 16.3002Z" fill="black"/>
<path d="M11.8281 14.7081L12.1946 14.6257C12.1414 14.6786 12.0766 14.7282 12.0016 14.7734C11.9796 14.7835 11.8941 14.7563 11.8379 14.7461L11.8281 14.7081Z" fill="black"/>
<path d="M55.0139 54.2448L54.6621 54.2208C54.8856 54.1612 54.8856 54.1612 55.0139 54.2448Z" fill="black"/>
<path d="M12.9173 44.1541L13.2458 44.2263C13.0284 44.284 12.9686 44.2263 12.8867 44.1946C12.8989 44.1813 12.9099 44.168 12.9173 44.1541Z" fill="black"/>
<path d="M1.0397 31.7817V31.9015L0.984968 31.9053L0.947266 31.7817H1.0397Z" fill="black"/>
<path d="M0.893602 30.9917L0.935132 31.1184L0.872836 31.1254C0.854514 31.0849 0.837414 31.0437 0.820312 31.0025L0.893602 30.9917Z" fill="black"/>
<path d="M12.2344 14.5879L12.4445 14.489L12.4872 14.5131L12.2796 14.612L12.2344 14.5879Z" fill="black"/>
<path d="M9.20703 16.6449L9.28521 16.5498L9.34506 16.5644L9.25467 16.6563L9.20703 16.6449Z" fill="black"/>
<path d="M3.85083 37.5383L3.77387 37.6961C3.6676 37.6042 3.72501 37.5694 3.8606 37.5434L3.85083 37.5383Z" fill="black"/>
<path d="M9.60742 16.4901L9.70514 16.4141L9.75889 16.4299L9.67827 16.5136L9.60742 16.4901Z" fill="black"/>
<path d="M54.1289 54.195L54.3207 54.1885C54.2144 54.2593 54.2144 54.2593 54.1375 54.1885L54.1289 54.195Z" fill="black"/>
<path d="M3.14579 36.9731C3.12755 36.9401 3.10809 36.9097 3.08984 36.8736L3.14214 36.866C3.15917 36.8996 3.1762 36.9331 3.19201 36.9667L3.14579 36.9731Z" fill="black"/>
<path d="M1.91403 34.6544C1.89701 34.6584 1.87268 34.6669 1.86539 34.6643C1.85809 34.6617 1.84836 34.6459 1.83984 34.6361L1.89092 34.6243L1.91403 34.6544Z" fill="black"/>
<path d="M5.39535 39.2028C5.36848 39.2205 5.35138 39.2408 5.33183 39.2421C5.31671 39.2413 5.30221 39.2385 5.28962 39.2341C5.27704 39.2297 5.26678 39.2237 5.25977 39.2167C5.26004 39.2094 5.26388 39.2023 5.27093 39.196C5.27798 39.1896 5.28801 39.1844 5.30008 39.1806C5.32573 39.1787 5.35504 39.1926 5.39535 39.2028Z" fill="black"/>
<path d="M11.4921 43.3862L11.293 43.4092C11.293 43.3941 11.293 43.3797 11.293 43.3652L11.4957 43.3902L11.4921 43.3862Z" fill="black"/>
<path d="M4.7722 38.6604C4.76568 38.6645 4.76046 38.6719 4.75264 38.6719C4.74482 38.6719 4.73309 38.6672 4.72266 38.6645L4.75525 38.6448L4.7722 38.6604Z" fill="black"/>
<path d="M0.775431 29.783C0.805837 29.8153 0.827728 29.8305 0.821646 29.8349C0.79943 29.848 0.774088 29.8595 0.746241 29.8691C0.737728 29.8584 0.719484 29.8463 0.723133 29.8375C0.736814 29.8184 0.754345 29.8001 0.775431 29.783Z" fill="black"/>
<path d="M3.37905 23.2454L3.16406 23.2683V23.2349L3.36928 23.2493L3.37905 23.2454Z" fill="black"/>
<path d="M9.75986 16.3034C9.7404 16.2968 9.71243 16.2929 9.70513 16.2837C9.69783 16.2745 9.71243 16.2614 9.71729 16.2502C9.7427 16.2551 9.76621 16.2624 9.78662 16.2719C9.78662 16.2719 9.76959 16.2903 9.75986 16.3034Z" fill="black"/>
<path d="M23.0195 54.4394C23.0107 54.4477 23.0005 54.4556 22.989 54.463C22.9794 54.4632 22.9699 54.4615 22.9623 54.4584C22.9605 54.449 22.9605 54.4396 22.9623 54.4302L23.0195 54.4394Z" fill="black"/>
<path d="M23.9111 55.1482C23.9111 55.1544 23.9111 55.1598 23.9111 55.1659C23.8987 55.1617 23.8872 55.1567 23.877 55.151C23.877 55.151 23.877 55.1414 23.8871 55.136L23.9111 55.1482Z" fill="black"/>
<path d="M100.399 12.3526L100.255 12.3964C99.9887 12.3259 99.7505 12.2694 99.5221 12.2008C99.4256 12.1632 99.3334 12.1227 99.246 12.0795C99.1104 12.0262 99.0457 11.915 98.8161 11.9353C98.788 11.9353 98.7489 11.9214 98.722 11.9093C98.3922 11.7556 98.0343 11.6152 97.7448 11.4438C97.5176 11.3104 97.3686 11.1395 97.1988 10.9814C97.1646 10.9503 97.1988 10.9014 97.1988 10.8169C97.4248 10.9769 97.5652 11.1345 97.7949 11.2246C98.1296 11.3548 98.3421 11.5574 98.744 11.6426C98.8016 11.6515 98.8536 11.6684 98.8942 11.6915C99.0408 11.7956 99.2521 11.856 99.4415 11.9328C99.7713 12.0668 100.079 12.2148 100.397 12.3571L100.399 12.3526Z" fill="black"/>
<path d="M96.5252 10.4393C96.4874 10.4173 96.4568 10.3922 96.4348 10.365C96.4238 10.3434 96.4996 10.3237 96.3872 10.3015C96.083 10.245 95.8522 10.1453 95.7862 9.963C95.7371 9.84749 95.6722 9.73395 95.592 9.62326C95.5554 9.58502 95.5146 9.54791 95.4698 9.51213C95.3941 9.43212 95.2573 9.36607 95.3086 9.25812C95.3257 9.22319 95.2243 9.16032 95.1486 9.13111C95.0093 9.07333 94.8969 9.03268 94.9751 8.91647C95.013 8.86123 94.9116 8.77359 94.8456 8.70882C94.732 8.59769 94.6697 8.49354 94.8371 8.4021C94.8721 8.4824 94.9245 8.56038 94.9934 8.63452C95.0585 8.68149 95.1038 8.73506 95.1263 8.79174C95.1488 8.84843 95.1481 8.90694 95.1241 8.96346C95.1144 8.98506 95.1547 9.01363 95.1718 9.03903L95.2842 9.00474C95.3672 9.08158 95.4527 9.15842 95.5285 9.23653C95.5664 9.26767 95.5906 9.30281 95.5993 9.3394C95.6044 9.37995 95.6266 9.41941 95.6644 9.45497C95.7022 9.49053 95.7546 9.52133 95.818 9.54515C95.9413 9.6027 96.0336 9.67605 96.0855 9.75789C96.1172 9.81377 96.0928 9.8633 96.2455 9.85822C96.256 9.86111 96.2651 9.86527 96.2719 9.87035C96.2787 9.87544 96.283 9.88129 96.2846 9.88743C96.221 10.0348 96.48 10.1052 96.5716 10.2157C96.608 10.2523 96.6224 10.2937 96.613 10.3346C96.6037 10.3754 96.5709 10.4139 96.5191 10.445L96.5252 10.4393Z" fill="black"/>
<path d="M57.3224 1.20544C57.0903 1.12939 56.8338 1.18896 56.5895 1.16742C56.4478 1.15474 56.3037 1.15221 56.1608 1.14524C55.947 1.13573 55.732 1.12432 55.5183 1.11735C55.1677 1.10594 54.8171 1.09771 54.4665 1.08693C54.4176 1.08767 54.3692 1.08177 54.3261 1.06982C54.0818 0.981103 53.8081 0.974765 53.5296 0.966527C53.4906 0.966527 53.4527 0.943714 53.3672 0.916464C53.471 0.887313 53.559 0.844854 53.6005 0.853092C53.7996 0.901255 53.9987 0.853092 54.1917 0.868935C54.2931 0.890256 54.3872 0.920008 54.4702 0.957022C54.574 0.868935 54.7304 0.852458 54.9148 0.914563C54.9472 0.927277 54.9851 0.935614 55.0252 0.938822C55.0653 0.942031 55.1063 0.940009 55.1445 0.93294C55.2165 0.922167 55.3289 0.983638 55.4315 1.01532C55.7296 0.96526 56.0423 0.932307 56.3257 1.05842C56.344 1.04004 56.3782 0.990609 56.3941 0.995045C56.4906 1.00392 56.6298 1.05271 56.6665 1.0356C56.7947 0.977935 56.8534 1.00202 56.9218 1.06095C56.9364 1.07363 56.9841 1.09137 56.9951 1.08757C57.2772 1.00202 57.276 1.12306 57.3236 1.20797L57.3224 1.20544ZM54.2552 0.931673C54.2393 0.926604 54.2235 0.920266 54.2064 0.91583C54.1893 0.911394 54.1856 0.92597 54.188 0.928505C54.1961 0.937844 54.206 0.946757 54.2173 0.955121L54.2552 0.931673Z" fill="black"/>
<path d="M57.3228 1.20623L57.4767 1.01611C57.5915 1.02815 57.721 1.03766 57.8431 1.0554C58.0276 1.07831 58.2191 1.08175 58.4062 1.06554C58.5359 1.05726 58.6675 1.0671 58.7873 1.09406C59.0671 1.16504 59.3627 1.08709 59.6522 1.13905C59.8207 1.16947 60.0357 1.12765 60.2397 1.15173C60.3728 1.16694 60.5365 1.22777 60.699 1.14286C60.7491 1.11751 60.9237 1.1568 61.0654 1.16884C60.9848 1.26136 60.9262 1.33361 60.7222 1.25502C60.6917 1.24479 60.6559 1.2397 60.6196 1.24045C60.4305 1.25242 60.2386 1.24157 60.0589 1.20876C59.9087 1.17454 59.6729 1.19862 59.508 1.23538C59.1758 1.31079 58.8631 1.24298 58.5418 1.23538L57.3203 1.20433L57.3228 1.20623Z" fill="black"/>
<path d="M99.7117 42.1876C99.6775 42.1705 99.6421 42.154 99.5957 42.1319C99.669 42.0374 99.9316 42.0406 99.9695 41.9221C99.9875 41.8769 100.028 41.835 100.088 41.8008C100.148 41.7666 100.224 41.7413 100.309 41.7275C100.149 41.8695 99.9915 42.0127 99.8205 42.1528C99.8009 42.1699 99.7398 42.173 99.6983 42.1832L99.7117 42.1876Z" fill="black"/>
<path d="M100.393 12.3524L100.693 12.5147C100.388 12.5337 100.388 12.5337 100.4 12.3486L100.393 12.3524Z" fill="black"/>
<path d="M96.5195 10.4415C96.6979 10.406 96.842 10.4054 96.886 10.5683C96.7394 10.5144 96.6417 10.4764 96.5318 10.4415H96.5195Z" fill="black"/>
<path d="M97.1022 10.737L96.8848 10.6736L96.9165 10.6458L97.1291 10.7123L97.1022 10.737Z" fill="black"/>
<path d="M28.2371 6.54028L28.0074 6.64231C27.9964 6.55549 27.9964 6.55549 28.2371 6.54028Z" fill="black"/>
<path d="M99.7046 42.1843C99.7046 42.2369 99.7633 42.3054 99.5752 42.3199C99.5178 42.2388 99.6717 42.2306 99.7132 42.1888L99.7046 42.1843Z" fill="black"/>
<path d="M48.8363 1.36722C48.8009 1.37675 48.7636 1.38402 48.7251 1.38887C48.7056 1.38887 48.6848 1.37903 48.6641 1.37378C48.6815 1.35925 48.7025 1.34602 48.7264 1.33442C48.7325 1.33246 48.7618 1.34557 48.8363 1.36722Z" fill="black"/>
<path d="M25.773 6.95581L25.6227 7.15226C25.4994 7.04833 25.6118 6.99573 25.773 6.95581Z" fill="black"/>
<path d="M25.5365 7.15824L25.3203 7.17596V7.14185C25.3912 7.14841 25.4608 7.15431 25.5329 7.15956L25.5365 7.15824Z" fill="black"/>
<path d="M29.4075 5.48429C29.3926 5.47465 29.3804 5.46398 29.371 5.4526C29.3621 5.43749 29.3556 5.42202 29.3516 5.40634C29.3735 5.40634 29.4136 5.40064 29.4148 5.40634C29.426 5.42215 29.4314 5.43892 29.4306 5.45577C29.4243 5.46809 29.4145 5.47984 29.4014 5.49063L29.4075 5.48429Z" fill="black"/>
<path d="M107.183 19.6345V19.7987C107.105 19.7404 106.983 19.6776 107.194 19.6402L107.183 19.6345Z" fill="black"/>
<path d="M105.92 17.5537L105.939 17.6805H105.891C105.9 17.6386 105.91 17.5962 105.919 17.5537H105.92Z" fill="black"/>
</svg>
