<svg width="1180" height="374" viewBox="0 0 1180 374" fill="none" xmlns="http://www.w3.org/2000/svg">
<path opacity="0.6" d="M-58 372.588C-37 371.088 8.9 366.888 24.5 362.088C44 356.088 131 309.588 146 302.088C161 294.588 213.5 261.588 221 230.088C228.5 198.588 188.5 191.588 168.5 208.088C154.804 219.387 158 276.088 184.5 293.588C211 311.088 293.5 270.088 332 181.588C370.5 93.0879 537 128.588 566 102.088C595 75.5879 798.5 123.588 822.5 139.588C846.5 155.588 942.5 118.588 960.5 102.088C976.379 87.5323 987.5 44.5877 999.5 26.0877C1011.5 7.58773 1058.5 0.0877329 1083 1.08773C1095.5 1.59799 1109 1.58838 1118 3.58789C1125 5.58838 1172.2 10.6876 1179 1.08773" stroke="#50735F" stroke-dasharray="4 4"/>
</svg>
