<svg width="2" height="4" viewBox="0 0 2 4" fill="none" xmlns="http://www.w3.org/2000/svg">
<path d="M1.69785 3.25555L1.20978 3.16423L1.49835 3.42876C1.43713 3.15931 1.42391 2.88305 1.45916 2.61C1.48783 2.32118 1.46621 2.03019 1.39503 1.74717C1.25609 1.23388 0.892719 0.802471 0.810781 0.276585C0.797094 0.229589 0.773035 0.185449 0.739993 0.146695C0.706951 0.107941 0.665574 0.0753272 0.618237 0.0507484C0.5709 0.0261696 0.518532 0.0101067 0.464148 0.003467C0.409765 -0.00317268 0.354431 -0.000257786 0.301329 0.0120584C0.196069 0.0438498 0.10809 0.109321 0.0546862 0.195572C0.00128239 0.281823 -0.0136787 0.382602 0.0127637 0.478107C0.0947022 1.00714 0.461653 1.42283 0.600592 1.94871C0.653406 2.20113 0.661809 2.45924 0.625522 2.71392C0.595081 3.02199 0.620343 3.33238 0.700343 3.63343C0.718375 3.69585 0.754451 3.75306 0.80504 3.79944C0.85563 3.84581 0.918994 3.87976 0.988908 3.89796L1.47697 3.98927C1.58414 4.01244 1.69729 3.99776 1.79242 3.94837C1.88754 3.89898 1.95713 3.81878 1.98642 3.72477C2.01386 3.62881 1.99941 3.52724 1.94593 3.44029C1.89245 3.35334 1.80387 3.28736 1.69785 3.25555Z" fill="#434343"/>
</svg>
