<svg width="4" height="4" viewBox="0 0 4 4" fill="none" xmlns="http://www.w3.org/2000/svg">
<path d="M3.71806 3.16294C3.63915 3.14161 3.56157 3.11469 3.48581 3.0823C3.5588 3.11529 3.45263 3.0823 3.44931 3.06031L3.33651 2.99066C3.20549 2.90541 3.08408 2.80327 2.97485 2.68639C2.70943 2.41879 2.47055 2.11454 2.22503 1.82128C1.73067 1.22009 1.19981 0.615227 0.453294 0.505254L0.824892 0.831513L0.75522 0.321965C0.742473 0.267258 0.720067 0.215875 0.689294 0.170761C0.658522 0.125648 0.619987 0.0877045 0.575901 0.0590923C0.531815 0.0304802 0.483044 0.0117589 0.432395 0.00402969C0.381747 -0.00369956 0.330214 -0.000283963 0.280759 0.0140533C0.182472 0.0518103 0.100463 0.128708 0.0507634 0.229717C0.00106384 0.330727 -0.0127523 0.448583 0.012014 0.56025L0.081686 1.06613C0.103722 1.15738 0.15176 1.23836 0.218681 1.29712C0.285603 1.35587 0.367862 1.38926 0.453294 1.39236C0.363712 1.39236 0.479832 1.39236 0.499739 1.39236L0.612544 1.42904C0.629134 1.42904 0.718718 1.48036 0.645725 1.42904C0.677654 1.44393 0.708684 1.46108 0.738625 1.48036C0.812541 1.52483 0.883506 1.57505 0.950972 1.63065L1.04055 1.70397C0.987465 1.65631 1.08036 1.74429 1.08036 1.74429C1.34384 2.00915 1.59205 2.29197 1.82356 2.59108C2.29469 3.16294 2.81892 3.81178 3.51235 3.98774C3.6126 4.01457 3.71837 3.99699 3.80704 3.93876C3.89571 3.88053 3.96023 3.78627 3.9868 3.67615C4.01305 3.56491 3.99984 3.4468 3.94989 3.34596C3.89994 3.24511 3.81701 3.16914 3.71806 3.13361V3.16294Z" fill="#434343"/>
</svg>
