<svg width="26" height="21" viewBox="0 0 26 21" fill="none" xmlns="http://www.w3.org/2000/svg">
<path d="M3.46983 20.1356C1.31929 19.6465 0.943737 16.6784 0.844536 14.7144C0.743812 13.5984 0.781908 12.4735 0.9579 11.3676C1.27239 10.007 1.91071 8.75 2.81439 7.7118C3.74499 6.62273 4.76961 5.6243 5.87545 4.72903L7.3989 3.46753C7.96374 2.94489 8.58845 2.49649 9.25893 2.13246C10.6017 1.48148 12.1854 1.39689 13.6202 1.12473C15.1577 0.730726 16.7732 0.820347 18.2614 1.38218C19.0798 1.58814 19.9195 1.67274 20.7415 1.86767C21.1375 1.94456 21.5238 2.06795 21.8929 2.23545C22.201 2.41022 22.4948 2.61071 22.7716 2.83495C23.357 3.22994 23.9104 3.67399 24.4261 4.16265C24.8619 4.61503 25.287 5.20348 25.1665 5.89859C25.0673 6.45763 25.8751 6.69669 25.9602 6.13398C26.233 4.56721 25.0532 3.47488 23.9868 2.65839C23.4726 2.22418 22.9252 1.83427 22.35 1.49252C21.6297 1.15067 20.8642 0.922587 20.0789 0.815801C19.2641 0.672364 18.4811 0.49213 17.6804 0.26778C16.8401 0.0355511 15.968 -0.046524 15.1012 0.0250504C14.2225 0.0949299 13.3581 0.278821 12.4936 0.43697C11.7177 0.576729 10.9276 0.672354 10.1624 0.874637C9.39601 1.07015 8.6691 1.40511 8.01536 1.86398C7.41307 2.29429 6.85329 2.81287 6.27934 3.28732C5.0638 4.245 3.91208 5.28699 2.8321 6.40614C1.78541 7.48093 0.967152 8.77138 0.430011 10.1944C0.00132034 11.4301 -0.0199379 12.7689 0.0084053 14.0708C0.0615488 16.5754 0.497327 20.36 3.26433 20.9889C3.77805 21.1066 4.00126 20.2533 3.48046 20.1319L3.46983 20.1356Z" fill="#434343"/>
</svg>
