<svg width="117" height="68" viewBox="0 0 117 68" fill="none" xmlns="http://www.w3.org/2000/svg">
<path d="M28 52.12C28 51.8533 27.8933 51.8267 27.68 52.04C27.7867 52.1467 27.8933 52.1733 28 52.12C28 52.2267 27.92 52.3067 27.76 52.36C27.6533 52.4133 27.6 52.4667 27.6 52.52C27.6 53.4267 27.36 53.88 26.88 53.88V54.44H26.56C26.5067 54.6533 26.4533 54.8667 26.4 55.08C26.4 55.2933 26.3733 55.5067 26.32 55.72C26.16 55.6667 26 55.6667 25.84 55.72L25.28 56.36C24.9067 56.7867 24.6933 57.2133 24.64 57.64C24.5333 57.64 24.4267 57.5867 24.32 57.48C24.32 57.6933 24.1333 57.9867 23.76 58.36C23.3867 58.7333 23.28 59.08 23.44 59.4C23.1733 59.7733 22.72 60.2533 22.08 60.84C21.44 61.48 21.0133 61.9333 20.8 62.2C20.48 61.88 20.08 62.0133 19.6 62.6C19.76 62.6533 19.8667 62.6267 19.92 62.52C20.0267 62.4667 20.1067 62.44 20.16 62.44C19.84 62.8667 19.2533 63.32 18.4 63.8C17.6 64.3333 17.0667 64.7333 16.8 65C16.48 65.1067 16 65.32 15.36 65.64C14.72 65.96 14.1333 66.2 13.6 66.36C13.0667 66.52 12.5333 66.5467 12 66.44C8.96 66.92 6.34667 65.32 4.16 61.64C3.25333 58.5467 2.90667 56.4933 3.12 55.48C3.28 55.48 3.33333 55.5867 3.28 55.8C3.44 55.7467 3.52 55.6667 3.52 55.56C3.52 55.4533 3.49333 55.32 3.44 55.16C3.38667 55 3.36 54.8667 3.36 54.76C3.46667 54.6533 3.70667 54.6 4.08 54.6C4.08 54.44 4 54.3867 3.84 54.44C3.73333 54.44 3.62667 54.44 3.52 54.44C3.52 54.3867 3.54667 54.2533 3.6 54.04C3.65333 53.8267 3.70667 53.6667 3.76 53.56C3.54667 53.6133 3.44 53.7733 3.44 54.04C3.44 54.2533 3.36 54.3867 3.2 54.44C3.25333 54.3333 3.30667 54.1467 3.36 53.88C3.41333 53.6133 3.46667 53.4267 3.52 53.32C3.89333 53.3733 4.16 53.1333 4.32 52.6C5.70667 50.4667 6.74667 49.1867 7.44 48.76C7.44 49.1867 7.28 49.7467 6.96 50.44C6.64 51.1333 6.48 51.6667 6.48 52.04C6.48 52.0933 6.45333 52.12 6.4 52.12C6.34667 52.12 6.29333 52.1467 6.24 52.2C6.4 52.2533 6.48 52.2 6.48 52.04C6.64 52.04 6.66667 52.12 6.56 52.28C6.50667 52.3333 6.48 52.3867 6.48 52.44C6.48 52.4933 6.50667 52.5467 6.56 52.6C6.61333 52.76 6.69333 52.7867 6.8 52.68C6.90667 52.52 7.01333 52.44 7.12 52.44C7.01333 52.6533 6.98667 52.8933 7.04 53.16C6.88 53.2133 6.72 53.3733 6.56 53.64C6.4 53.9067 6.29333 54.0667 6.24 54.12C6.24 54.3333 6.32 54.44 6.48 54.44C6.10667 55.2933 5.81333 56.28 5.6 57.4C5.38667 58.52 5.38667 59.64 5.6 60.76C5.86667 61.88 6.45333 62.6 7.36 62.92C7.52 62.9733 7.76 63 8.08 63C8.45333 63 8.74667 63.0533 8.96 63.16C9.44 63.2133 10.0267 63.16 10.72 63C11.4667 62.8933 12 62.8667 12.32 62.92C12.5867 62.76 13.2267 62.4133 14.24 61.88C15.3067 61.3467 16.1067 60.92 16.64 60.6C17.12 60.0667 17.7067 59.64 18.4 59.32C18.6667 59.16 19.0667 58.76 19.6 58.12C20.1333 57.48 20.6133 57.0533 21.04 56.84C21.2 56.52 21.28 56.3333 21.28 56.28C21.7067 56.0133 22.1867 55.48 22.72 54.68C23.3067 53.88 23.8133 53.3467 24.24 53.08C24.1867 52.9733 24.1867 52.8667 24.24 52.76C24.2933 52.6 24.32 52.4667 24.32 52.36C26.5067 49.16 27.36 45.88 26.88 42.52C26.08 39.5867 23.36 37.7467 18.72 37C17.5467 37.1067 16.3733 37.1067 15.2 37C14.4533 37.1067 12.8267 37.48 10.32 38.12C7.86667 38.7067 5.97333 39 4.64 39C2.4 38.7867 0.853333 37.0267 2.98023e-08 33.72C0.0533334 32.5467 0.426667 31 1.12 29.08C1.81333 27.16 2.21333 25.96 2.32 25.48C2.48 25.32 2.64 24.9467 2.8 24.36C2.96 23.7733 3.14667 23.4 3.36 23.24C3.62667 22.2267 4.08 20.9733 4.72 19.48C5.36 17.9333 5.78667 16.8133 6 16.12C5.04 16.4933 4.53333 16.7867 4.48 17C3.62667 17 3.09333 16.5733 2.88 15.72C2.72 14.8133 2.77333 14.0933 3.04 13.56C3.36 13.1867 4.16 12.8933 5.44 12.68C6.72 12.4667 7.52 12.12 7.84 11.64C8 11.5867 8.13333 11.6133 8.24 11.72C8.34667 11.8267 8.45333 11.88 8.56 11.88C15.44 10.6 19.2 9.93333 19.84 9.88C23.2533 9.45333 25.84 9.21333 27.6 9.16C33.04 8.89333 36.7733 9.10667 38.8 9.8C39.2267 10.4933 39.3867 10.9467 39.28 11.16C39.8133 12.0133 39.9733 12.7333 39.76 13.32C39.6 13.32 39.3333 13.4267 38.96 13.64C38.64 13.8 38.3733 13.8267 38.16 13.72C38.1067 13.6133 38.0533 13.4533 38 13.24C37.9467 13.0267 37.8667 12.84 37.76 12.68C36.8533 12.2533 35.7867 12.0133 34.56 11.96C33.3867 11.9067 32.0267 11.9333 30.48 12.04C28.9333 12.0933 27.7333 12.0933 26.88 12.04C23.2533 12.4133 20.32 12.7867 18.08 13.16C17.3867 13.32 16.1333 13.5867 14.32 13.96C12.56 14.28 11.2267 14.5467 10.32 14.76C9.89333 15.08 9.52 15.6933 9.2 16.6C8.88 17.5067 8.61333 18.0933 8.4 18.36C8.34667 18.4667 8.34667 18.5733 8.4 18.68C8.45333 18.7867 8.48 18.8667 8.48 18.92C8.26667 19.1867 8 19.6933 7.68 20.44C7.41333 21.1867 7.2 21.6933 7.04 21.96C7.14667 21.96 7.2 21.9867 7.2 22.04C7.25333 22.0933 7.25333 22.1733 7.2 22.28C7.2 22.3333 7.17333 22.4133 7.12 22.52C7.06667 22.6267 7.01333 22.76 6.96 22.92C6.90667 23.0267 6.90667 23.1333 6.96 23.24C6.85333 23.24 6.77333 23.1867 6.72 23.08C6.72 22.9733 6.69333 22.92 6.64 22.92C6.53333 23.0267 6.50667 23.1333 6.56 23.24C6.66667 23.3467 6.72 23.4533 6.72 23.56C6.45333 23.4 6.29333 23.5333 6.24 23.96C6.18667 24.2267 6.24 24.4133 6.4 24.52C6.29333 24.4667 6.21333 24.4933 6.16 24.6C6.10667 24.6533 6.05333 24.68 6 24.68L6.16 25L4.56 29.8H4.08C4.08 29.8533 4.16 29.88 4.32 29.88C3.25333 33.1333 2.69333 35.2667 2.64 36.28C5.52 36.44 8.13333 36.0667 10.48 35.16C10.8 35.1067 11.36 35.0267 12.16 34.92C13.0133 34.8133 13.6 34.7333 13.92 34.68C19.4667 34.4667 23.2 35.72 25.12 38.44C26.3467 39.2933 27.52 41.0533 28.64 43.72C28.5333 43.08 28.48 42.7067 28.48 42.6C29.4933 44.0933 29.5733 46.1467 28.72 48.76C29.04 49.0267 29.0667 49.5067 28.8 50.2C28.5333 50.8933 28.4267 51.3467 28.48 51.56C28.2133 51.56 28.08 51.6933 28.08 51.96C28.0267 52.0133 28 52.0667 28 52.12ZM15.68 11.4C15.68 11.24 15.5467 11.2933 15.28 11.56C12.72 11.8267 11.12 12.1733 10.48 12.6C11.7067 12.6 12.64 12.44 13.28 12.12C13.28 12.1733 13.2533 12.2 13.2 12.2C13.0933 12.3067 13.0667 12.4133 13.12 12.52C13.3867 12.52 13.5733 12.3867 13.68 12.12C13.7333 12.12 13.7867 12.1733 13.84 12.28C13.8933 12.3867 13.9733 12.4133 14.08 12.36C14.08 12.3067 14.0533 12.2533 14 12.2C13.8933 12.04 13.92 11.9333 14.08 11.88L14.32 12.36C14.32 12.36 14.3467 12.3067 14.4 12.2C14.5067 11.8267 14.6133 11.72 14.72 11.88L14.56 12.04C14.6133 12.3067 15.0133 12.3067 15.76 12.04C15.9733 12.0933 16.2667 12.0667 16.64 11.96C17.0667 11.8533 17.3867 11.88 17.6 12.04C18.08 11.88 18.3467 11.8 18.4 11.8C18.2933 11.9067 18.24 11.9867 18.24 12.04C18.3467 11.9867 18.5067 11.9067 18.72 11.8C18.9867 11.6933 19.2267 11.56 19.44 11.4C19.44 11.4533 19.4133 11.5333 19.36 11.64C19.2533 11.8533 19.28 11.9867 19.44 12.04C19.44 11.9333 19.52 11.9067 19.68 11.96C19.84 11.96 19.9467 11.9867 20 12.04V11.72C20.0533 11.72 20.1067 11.7467 20.16 11.8C20.2133 11.8 20.2667 11.8 20.32 11.8C21.44 11.4267 22.24 11.3733 22.72 11.64C24 11.32 24.7467 11.2933 24.96 11.56C25.0667 11.4533 25.12 11.32 25.12 11.16C25.12 10.9467 25.1733 10.8133 25.28 10.76C25.28 10.8133 25.28 10.8933 25.28 11C25.3333 11.1067 25.3867 11.1867 25.44 11.24C25.8133 11.2933 26.08 11.24 26.24 11.08C26.4 11.4 26.8267 11.3467 27.52 10.92C27.52 11.0267 27.5733 11.1333 27.68 11.24C27.7867 11.2933 27.84 11.24 27.84 11.08C27.7333 11.0267 27.7333 10.92 27.84 10.76C27.8933 10.6533 27.9467 10.6267 28 10.68V10.84C28.1067 11 28.56 11.0533 29.36 11C30.2133 10.8933 30.7467 10.8667 30.96 10.92C31.0133 10.76 31.12 10.68 31.28 10.68C31.5467 10.68 31.68 10.5733 31.68 10.36L31.84 10.68C32.1067 10.6267 32.5067 10.6 33.04 10.6C33.5733 10.6 33.8933 10.5467 34 10.44C34.64 10.8133 35.2 11.0267 35.68 11.08C35.68 10.8133 35.7867 10.68 36 10.68C36.2133 10.84 37.0133 10.84 38.4 10.68C38.1867 10.3067 37.84 10.1467 37.36 10.2C35.12 9.56 31.2533 9.42666 25.76 9.8C22.9867 9.96 20.5333 10.3067 18.4 10.84C17.0667 10.9467 16.16 11.1333 15.68 11.4ZM33.76 10.76C33.7067 10.8667 33.6267 10.8667 33.52 10.76C33.4667 10.8667 33.4933 10.92 33.6 10.92C33.6533 10.8667 33.7067 10.8133 33.76 10.76ZM33.04 10.84H32.96C32.9067 10.84 32.88 10.8667 32.88 10.92C32.9867 10.92 33.04 10.8933 33.04 10.84ZM34.4 10.84C34.24 10.84 34.1333 10.8667 34.08 10.92C34.2933 10.92 34.4 10.8933 34.4 10.84ZM17.44 12.28C17.44 12.12 17.36 12.04 17.2 12.04C17.2 12.2533 17.28 12.3333 17.44 12.28ZM5.76 25.32C5.86667 25.2667 5.89333 25.2133 5.84 25.16C5.84 25.0533 5.78667 25 5.68 25C5.68 25.2133 5.70667 25.32 5.76 25.32ZM4.96 27.88C5.01333 27.7733 4.93333 27.6933 4.72 27.64C4.77333 27.64 4.82667 27.6667 4.88 27.72C4.88 27.8267 4.90667 27.88 4.96 27.88ZM4.32 29.48C4.64 29.16 4.64 29 4.32 29V29.48ZM2.32 30.12H2.56V29.96H2.32V30.12ZM13.44 35.32C13.3867 35.48 13.28 35.5867 13.12 35.64C13.0133 35.6933 12.8533 35.6933 12.64 35.64C12.4267 35.5867 12.2933 35.56 12.24 35.56C12.08 35.56 11.8667 35.64 11.6 35.8C11.3333 35.96 11.0933 35.9867 10.88 35.88C10.88 36.0933 10.72 36.2533 10.4 36.36C10.1333 36.4133 9.97333 36.4933 9.92 36.6C10.2933 36.44 10.9333 36.3067 11.84 36.2C12.8 36.04 13.4933 35.8533 13.92 35.64C13.92 35.7467 14 35.8 14.16 35.8C14.6933 35.64 15.8133 35.64 17.52 35.8C19.2267 35.9067 20.2667 35.9333 20.64 35.88C18.1333 35.1333 16.1867 34.92 14.8 35.24C14.7467 35.24 14.72 35.2133 14.72 35.16C14.72 35.0533 14.6933 34.9733 14.64 34.92C14.5867 35.0267 14.4533 35.1333 14.24 35.24C14.0267 35.2933 13.8933 35.3467 13.84 35.4C13.68 35.24 13.5467 35.2133 13.44 35.32ZM13.28 35.32C13.2267 35.32 13.2 35.32 13.2 35.32C13.1467 35.32 13.12 35.3467 13.12 35.4C13.2267 35.4 13.28 35.3733 13.28 35.32ZM28.64 44.44C28.5867 44.44 28.56 44.44 28.56 44.44C28.5067 44.44 28.48 44.4667 28.48 44.52C28.5867 44.52 28.64 44.4933 28.64 44.44ZM27.2 48.68C27.3067 48.68 27.3867 48.5733 27.44 48.36C27.4933 48.1467 27.4933 47.9333 27.44 47.72C27.44 47.5067 27.4133 47.4 27.36 47.4C27.3067 47.5067 27.28 47.72 27.28 48.04C27.28 48.36 27.2533 48.5733 27.2 48.68ZM24 55.08C24.16 55.08 24.2933 55 24.4 54.84C24.56 54.6267 24.6933 54.52 24.8 54.52C24.8533 54.3067 25.2 53.56 25.84 52.28C26.48 51 26.8267 49.9867 26.88 49.24C26.72 49.6133 26.4533 50.2267 26.08 51.08C25.7067 51.9333 25.36 52.7067 25.04 53.4C24.72 54.04 24.3733 54.6 24 55.08ZM24.8 52.6C25.0667 52.6533 25.2533 52.4667 25.36 52.04C25.4133 51.88 25.3867 51.7733 25.28 51.72C25.2267 51.88 25.12 52.04 24.96 52.2C24.8533 52.36 24.8 52.4933 24.8 52.6ZM24.72 52.68C24.4 53.32 23.9733 54.0133 23.44 54.76C22.9067 55.4533 22.5067 55.9867 22.24 56.36C21.9733 56.68 21.4133 57.2933 20.56 58.2C19.76 59.1067 19.3067 59.6133 19.2 59.72C21.28 58.1733 23.2 55.8267 24.96 52.68H24.72ZM27.04 53.48C27.2533 53.48 27.36 53.4267 27.36 53.32C27.0933 53.32 26.96 53.32 26.96 53.32C26.96 53.3733 26.9867 53.4267 27.04 53.48ZM23.36 54.52C23.36 54.4667 23.3867 54.4133 23.44 54.36C23.5467 54.2 23.5467 54.0933 23.44 54.04C23.44 54.0933 23.4133 54.1467 23.36 54.2C23.2533 54.36 23.2533 54.4667 23.36 54.52ZM4.24 54.6C4.34667 54.6533 4.42667 54.6533 4.48 54.6C4.53333 54.4933 4.56 54.3867 4.56 54.28H4.24V54.6ZM23.92 55.4V55.56H24.16C24.16 55.5067 24.1867 55.48 24.24 55.48V55.32H24C24 55.3733 23.9733 55.4 23.92 55.4ZM23.68 55.88C23.84 55.88 23.92 55.8267 23.92 55.72C23.7067 55.72 23.6267 55.7733 23.68 55.88ZM23.04 56.68C23.2 56.6267 23.4133 56.4667 23.68 56.2C23.4667 56.2 23.2533 56.36 23.04 56.68ZM22.56 57.24H22.8V57H22.56V57.24ZM21.6 58.6C21.6533 58.4933 21.7067 58.4133 21.76 58.36C21.8667 58.2533 21.92 58.1733 21.92 58.12H21.6C21.6533 58.2267 21.6267 58.3333 21.52 58.44C21.4667 58.5467 21.4933 58.6 21.6 58.6ZM22.8 58.44L22.64 58.52C22.5867 58.52 22.56 58.5467 22.56 58.6L22.64 58.52C22.7467 58.52 22.8 58.4933 22.8 58.44ZM20.16 59.88C19.7867 60.1467 19.28 60.6 18.64 61.24C18.0533 61.72 17.7333 61.9867 17.68 62.04C18.16 61.88 18.48 61.6133 18.64 61.24C19.12 61.0267 19.6267 60.5733 20.16 59.88C20.3733 59.8267 20.56 59.6933 20.72 59.48C20.9333 59.2667 21.0133 59.08 20.96 58.92C20.8533 59.08 20.6933 59.2667 20.48 59.48C20.32 59.6933 20.2133 59.8267 20.16 59.88ZM18.48 59.72C18.2667 59.6667 18.1067 59.72 18 59.88C17.9467 59.9867 17.9733 60.0667 18.08 60.12C18.08 60.0667 18.16 60.0133 18.32 59.96C18.48 59.96 18.5333 59.88 18.48 59.72ZM18.88 60.12C18.9867 60.1733 19.04 60.12 19.04 59.96L19.12 59.8C18.9067 59.8 18.8267 59.9067 18.88 60.12ZM21.84 60.04H22V59.8H21.84V60.04ZM17.44 60.36H17.68C17.68 60.2533 17.6 60.2 17.44 60.2V60.36ZM17.44 61.24C18.0267 60.9733 18.4533 60.6267 18.72 60.2C18.24 60.4133 17.8133 60.76 17.44 61.24ZM21.76 60.84C21.8667 60.8933 21.9467 60.8133 22 60.6C22.1067 60.44 22.1867 60.3333 22.24 60.28C21.8667 60.3333 21.7067 60.52 21.76 60.84ZM16.8 61C16.7467 60.8933 16.6667 60.84 16.56 60.84C16.4533 60.8933 16.4267 61 16.48 61.16C16.2133 61.2667 15.6533 61.56 14.8 62.04C14 62.52 13.3067 62.8133 12.72 62.92L12.48 63.16C11.9467 63.2667 11.52 63.4267 11.2 63.64C10.9867 63.7467 10.5333 63.8 9.84 63.8C9.2 63.8 8.8 63.9067 8.64 64.12C10.8267 64.2267 12.48 63.8533 13.6 63L13.68 63.08C13.7333 63.1333 13.7867 63.16 13.84 63.16C13.8933 62.84 14.16 62.6 14.64 62.44C15.1733 62.28 15.4933 62.0667 15.6 61.8C15.7067 61.9067 15.8667 61.88 16.08 61.72C16.2933 61.56 16.4267 61.3733 16.48 61.16C16.6933 61.16 16.8 61.1067 16.8 61C17.0133 61 17.12 60.8933 17.12 60.68C16.9067 60.68 16.8 60.7867 16.8 61ZM20.96 61.16C21.0133 61.2133 21.0933 61.24 21.2 61.24C21.3067 61.2933 21.3867 61.2667 21.44 61.16C21.5467 61.1067 21.6 61.0533 21.6 61C21.4933 60.7867 21.28 60.84 20.96 61.16ZM21.04 61.32L20.88 61.48L21.04 61.32ZM20.48 61.56V61.72H20.64C20.7467 61.6667 20.7733 61.6133 20.72 61.56C20.72 61.5067 20.6667 61.48 20.56 61.48C20.56 61.5333 20.5333 61.56 20.48 61.56ZM17.04 62.52C17.2533 62.52 17.4133 62.4133 17.52 62.2C17.5733 62.1467 17.5733 62.0933 17.52 62.04C17.52 62.0933 17.44 62.1467 17.28 62.2C17.12 62.3067 17.04 62.4133 17.04 62.52ZM19.2 62.52C19.0933 62.52 19.04 62.5467 19.04 62.6C19.1467 62.6 19.2 62.5733 19.2 62.52ZM15.2 62.92C15.36 62.92 15.4667 62.84 15.52 62.68C15.3067 62.68 15.2 62.76 15.2 62.92ZM14.72 63.88H15.04C15.04 63.8267 15.0133 63.7733 14.96 63.72C14.96 63.6133 14.9333 63.56 14.88 63.56C14.88 63.6133 14.8533 63.6667 14.8 63.72C14.7467 63.7733 14.72 63.8267 14.72 63.88ZM13.6 63.96C13.6 63.9067 13.6267 63.8533 13.68 63.8C13.7333 63.7467 13.76 63.6933 13.76 63.64C13.6533 63.5867 13.5733 63.6133 13.52 63.72C13.4667 63.8267 13.4933 63.9067 13.6 63.96ZM13.44 64.44L13.2 64.52C13.0933 64.6267 13.0667 64.68 13.12 64.68C13.28 64.6267 13.3867 64.5467 13.44 64.44ZM30.08 9.96L30.24 9.88C30.4 9.93333 30.4533 10.0133 30.4 10.12H30.16C30.16 10.0667 30.1333 10.0133 30.08 9.96ZM26.16 10.2C26.16 10.1467 26.2133 10.12 26.32 10.12C26.32 10.1733 26.2667 10.2 26.16 10.2ZM30.64 10.36C30.8 10.3067 30.88 10.3867 30.88 10.6C30.88 10.76 30.8 10.7867 30.64 10.68V10.36ZM36.32 10.36C36.48 10.4667 36.5333 10.6 36.48 10.76C36.3733 10.8133 36.32 10.68 36.32 10.36ZM28 10.68C28.0533 10.68 28.1067 10.6533 28.16 10.6C28.16 10.6533 28.1067 10.68 28 10.68ZM28.56 10.44C28.8267 10.44 28.96 10.5467 28.96 10.76C28.9067 10.76 28.8267 10.7867 28.72 10.84C28.6667 10.8933 28.6133 10.8933 28.56 10.84V10.44ZM24 10.68C24 10.6267 24.08 10.6 24.24 10.6C24.24 10.6533 24.16 10.68 24 10.68ZM27.28 10.6H27.52V10.76H27.28V10.6ZM35.76 10.6C35.5467 10.8133 35.3067 10.8933 35.04 10.84C35.2 10.68 35.44 10.6 35.76 10.6ZM18.64 11.08C18.64 11.0267 18.6667 11 18.72 11L18.88 10.92C18.88 10.9733 18.8267 11 18.72 11L18.64 11.08ZM22.8 10.92H22.96V11.16H22.8V10.92ZM19.52 11.16C19.6267 11.1067 19.68 11.16 19.68 11.32L19.6 11.4C19.5467 11.4 19.52 11.32 19.52 11.16ZM20.8 11.32L21.04 11.24V11.4L20.88 11.32H20.8ZM16.32 11.4C16.3733 11.3467 16.4267 11.32 16.48 11.32C16.5333 11.32 16.56 11.3467 16.56 11.4H16.32ZM15.68 11.4C15.6267 11.4 15.6 11.4533 15.6 11.56C15.6533 11.56 15.68 11.5067 15.68 11.4ZM20 11.72C19.9467 11.6667 19.92 11.6133 19.92 11.56C19.9733 11.56 20 11.6133 20 11.72ZM16.16 11.72C16.16 11.6667 16.2133 11.64 16.32 11.64C16.32 11.6933 16.2667 11.72 16.16 11.72ZM19.52 11.72C19.52 11.6667 19.5733 11.64 19.68 11.64C19.68 11.6933 19.6267 11.72 19.52 11.72ZM14.72 11.88H15.04C15.04 11.9867 14.9867 12.0667 14.88 12.12C14.7733 12.0133 14.72 11.9333 14.72 11.88ZM25.6 38.6C25.6 38.5467 25.6267 38.52 25.68 38.52C25.7333 38.5733 25.7867 38.6267 25.84 38.68H25.68L25.6 38.6ZM25.84 38.92C26 38.8667 26.1333 38.8933 26.24 39C26.4 39.0533 26.5333 39.1867 26.64 39.4C26.8 39.56 26.9333 39.6667 27.04 39.72C26.88 39.8267 26.6667 39.72 26.4 39.4C26.1867 39.08 26 38.92 25.84 38.92ZM27.12 40.04C27.12 40.1467 27.1733 40.2533 27.28 40.36C27.28 40.2533 27.2267 40.1467 27.12 40.04ZM7.04 48.68C7.04 48.6267 7.06667 48.6 7.12 48.6C7.12 48.6533 7.09333 48.68 7.04 48.68ZM5.6 49.96C5.81333 50.1733 5.52 50.6 4.72 51.24C4.66667 51.3467 4.64 51.4533 4.64 51.56C4.64 51.72 4.53333 51.7733 4.32 51.72C4.42667 51.5067 4.61333 51.2133 4.88 50.84C5.2 50.4667 5.44 50.1733 5.6 49.96ZM4.24 51.88V52.12V51.88ZM4.08 52.2V52.52V52.2ZM26.64 54.84C26.64 54.7867 26.6933 54.76 26.8 54.76C26.8 54.8133 26.7467 54.84 26.64 54.84ZM3.12 54.84C3.22667 54.84 3.25333 54.9467 3.2 55.16C3.2 55.2667 3.14667 55.2933 3.04 55.24C2.98667 55.1867 2.98667 55.1333 3.04 55.08C3.09333 54.9733 3.12 54.8933 3.12 54.84ZM24.64 57.96C24.64 57.7467 24.6933 57.6667 24.8 57.72V57.88C24.7467 57.88 24.72 57.9067 24.72 57.96H24.64ZM24.48 58.12L24.64 57.96C24.5333 57.96 24.48 58.0133 24.48 58.12ZM24.48 58.12C24.48 58.3867 24.3733 58.5467 24.16 58.6C24.1067 58.3867 24.2133 58.2267 24.48 58.12ZM23.76 59.08C23.76 58.92 23.7867 58.8133 23.84 58.76C24.0533 58.76 24.0533 58.8667 23.84 59.08H23.76ZM60.7019 13C60.7552 13 60.8085 13.0533 60.8619 13.16C60.9152 13.2667 60.9685 13.32 61.0219 13.32V13C61.2352 13.0533 61.5552 13.24 61.9819 13.56C62.4085 13.88 62.8352 14.0133 63.2619 13.96C63.2619 14.0133 63.2619 14.0667 63.2619 14.12C63.3152 14.1733 63.3419 14.2267 63.3419 14.28C63.8219 14.4933 64.3819 14.7867 65.0219 15.16C65.7152 15.48 66.2219 15.72 66.5419 15.88C67.0219 16.36 67.5819 17.1333 68.2219 18.2C68.8619 19.2667 69.2885 19.9333 69.5019 20.2C69.4485 20.4667 69.5019 20.76 69.6619 21.08C69.8219 21.3467 69.8752 21.5333 69.8219 21.64C70.1952 22.3333 70.3819 23.1867 70.3819 24.2L70.6219 24.44C70.6219 24.6533 70.7019 25.32 70.8619 26.44C71.0219 27.56 71.0752 28.36 71.0219 28.84C71.0752 29 71.1819 29.08 71.3419 29.08C71.2352 31.6933 71.2085 33.4267 71.2619 34.28C70.6752 37.8533 70.1952 40.0133 69.8219 40.76C69.8752 40.8667 69.8752 41.0267 69.8219 41.24C69.7685 41.4 69.7952 41.5333 69.9019 41.64C69.2619 43.72 68.1685 46.5733 66.6219 50.2C66.2485 50.68 65.6352 51.6933 64.7819 53.24C63.9819 54.7867 63.2619 55.88 62.6219 56.52C62.0352 57.6933 61.1019 58.8667 59.8219 60.04C57.6885 62.8667 54.9952 64.76 51.7419 65.72C51.5285 65.72 51.1552 65.7467 50.6219 65.8C50.1419 65.8533 49.7685 65.8533 49.5019 65.8C49.3419 65.7467 49.0752 65.6667 48.7019 65.56C48.3819 65.4533 48.1419 65.3733 47.9819 65.32C47.8219 65.2667 47.5819 65.16 47.2619 65C46.9419 64.8933 46.7019 64.76 46.5419 64.6C46.3819 64.4933 46.1952 64.3333 45.9819 64.12C45.8219 63.9067 45.6885 63.6667 45.5819 63.4C44.7819 62.9733 44.2752 62.3333 44.0619 61.48C43.6885 61.2667 43.3685 60.7333 43.1019 59.88C42.8352 59.0267 42.6219 58.4933 42.4619 58.28C42.4085 58.1733 42.4085 58.0933 42.4619 58.04C42.5152 57.9867 42.5419 57.9333 42.5419 57.88C40.7285 50.9467 41.8219 42.52 45.8219 32.6C45.9285 32.5467 46.0352 32.36 46.1419 32.04C46.3019 31.6667 46.4619 31.4533 46.6219 31.4C46.5685 30.9733 46.7285 30.5733 47.1019 30.2C47.4752 29.7733 47.6352 29.4 47.5819 29.08L48.0619 28.84C48.7019 27.3467 50.0352 26.04 52.0619 24.92C52.2752 24.8667 52.5152 24.8933 52.7819 25C53.1019 25.1067 53.3685 25.16 53.5819 25.16C53.7419 25.2667 54.2219 25.5867 55.0219 26.12C55.8219 26.6533 56.3819 27.1333 56.7019 27.56C57.3952 27.9333 57.7685 28.3067 57.8219 28.68C57.7685 28.7333 57.6619 28.7867 57.5019 28.84C57.3419 28.8933 57.2085 28.9467 57.1019 29C56.9952 29.0533 56.8885 29.1333 56.7819 29.24C56.6752 29.3467 56.6219 29.48 56.6219 29.64C56.5152 29.5333 56.3019 29.24 55.9819 28.76C55.6619 28.2267 55.3685 27.88 55.1019 27.72C54.5152 27.7733 54.0085 27.9333 53.5819 28.2C53.1552 28.4667 52.7019 28.84 52.2219 29.32C51.7952 29.7467 51.4752 30.04 51.2619 30.2C50.6219 31.1067 49.2085 33.6667 47.0219 37.88C47.0219 38.6267 46.8619 39.1067 46.5419 39.32C45.2619 44.6 44.5952 47.8267 44.5419 49C44.4885 49.16 44.4619 49.4 44.4619 49.72C44.4619 49.9867 44.4352 50.2267 44.3819 50.44C44.3819 50.6533 44.3285 50.7867 44.2219 50.84C44.2752 51.2667 44.3019 51.96 44.3019 52.92C44.3019 53.88 44.3552 54.6 44.4619 55.08C44.4619 57.0533 44.7552 58.7867 45.3419 60.28C45.6619 61.2933 46.1152 61.96 46.7019 62.28C47.2885 62.6533 48.1419 62.84 49.2619 62.84C51.5019 62.3067 53.9019 60.8133 56.4619 58.36C56.5685 58.4133 56.6752 58.4133 56.7819 58.36C56.8885 58.3067 56.9685 58.28 57.0219 58.28C57.0219 58.2267 56.9952 58.1467 56.9419 58.04C56.8885 57.9867 56.8885 57.9067 56.9419 57.8C57.1552 57.8533 57.3419 57.8 57.5019 57.64C57.7152 57.4267 57.9019 57.32 58.0619 57.32C58.0085 57.2133 57.9285 57.1067 57.8219 57C57.9285 56.9467 58.0885 56.76 58.3019 56.44C58.4085 56.4933 58.4085 56.6 58.3019 56.76C58.1952 56.8667 58.1419 56.9467 58.1419 57C58.3019 57 58.4085 56.9467 58.4619 56.84C58.5685 56.68 58.6752 56.6 58.7819 56.6C58.7285 56.76 58.5685 56.9733 58.3019 57.24C58.0885 57.5067 57.9552 57.7467 57.9019 57.96C57.8485 57.96 57.7952 57.96 57.7419 57.96C57.6885 57.9067 57.6352 57.88 57.5819 57.88C57.5285 58.04 57.2619 58.3867 56.7819 58.92C56.3019 59.4533 56.1152 59.88 56.2219 60.2C56.2219 60.04 56.2752 59.9067 56.3819 59.8C56.5419 59.6933 56.7019 59.6933 56.8619 59.8C57.0752 59.5333 57.4485 59.1333 57.9819 58.6C58.5152 58.0667 58.9685 57.5867 59.3419 57.16C59.7152 56.68 60.0085 56.1733 60.2219 55.64C60.9152 54.9467 61.2352 54.3867 61.1819 53.96C61.2352 53.96 61.3152 54.0133 61.4219 54.12C61.5819 54.0133 61.6352 53.88 61.5819 53.72C61.5285 53.5067 61.5552 53.3467 61.6619 53.24C61.8752 53.3467 62.0085 53.3467 62.0619 53.24C62.1685 53.1333 62.2485 52.9733 62.3019 52.76C62.4085 52.4933 62.5419 52.3333 62.7019 52.28C62.4352 51.6933 62.5685 51.32 63.1019 51.16L62.8619 50.68C62.7552 50.7333 62.6219 50.8933 62.4619 51.16C62.3552 51.3733 62.1952 51.5067 61.9819 51.56C62.0352 51.3467 62.1152 51.1333 62.2219 50.92C62.3285 50.7067 62.4619 50.4933 62.6219 50.28C62.7819 50.0667 62.8885 49.88 62.9419 49.72C62.9419 49.6667 62.9152 49.64 62.8619 49.64C62.7552 49.64 62.7019 49.64 62.7019 49.64C62.7019 49.5867 62.7019 49.5067 62.7019 49.4C62.7552 49.4 62.7819 49.4267 62.7819 49.48C62.7819 49.48 62.8085 49.48 62.8619 49.48C63.2352 48.9467 64.2752 46.84 65.9819 43.16C65.7152 43.1067 65.7152 42.8133 65.9819 42.28C66.0885 42.28 66.1152 42.36 66.0619 42.52C66.0619 42.6267 66.0885 42.68 66.1419 42.68C66.1952 42.6267 66.2219 42.4933 66.2219 42.28C66.2752 42.0667 66.3552 41.88 66.4619 41.72C66.4085 41.6133 66.3285 41.6667 66.2219 41.88C66.1685 42.04 66.1419 42.12 66.1419 42.12C66.1952 41.7467 66.4619 40.5467 66.9419 38.52C67.4752 36.44 67.6885 34.8933 67.5819 33.88C67.9019 33.72 67.9819 32.1733 67.8219 29.24C67.7152 26.2533 67.6619 24.6533 67.6619 24.44C67.6619 24.3867 67.5819 24.36 67.4219 24.36C67.3685 23.4 67.0752 22.12 66.5419 20.52C66.0085 18.92 65.7152 18.0133 65.6619 17.8C65.1285 17.16 64.6485 16.44 64.2219 15.64C63.5285 15.32 62.3552 15.16 60.7019 15.16C60.6485 15.16 60.5952 15.1867 60.5419 15.24L60.4619 15.32C58.9152 15.4267 57.9552 15.6667 57.5819 16.04L57.3419 15.8C57.0752 16.3867 56.3819 16.5733 55.2619 16.36C55.3152 16.52 55.5552 16.6 55.9819 16.6C56.0352 16.76 55.9819 16.8933 55.8219 17C55.7152 17.0533 55.6619 17.1333 55.6619 17.24C55.5552 17.24 55.4485 17.2133 55.3419 17.16C55.2885 17.1067 55.2352 17.08 55.1819 17.08C55.1819 17.1333 55.1819 17.1867 55.1819 17.24C55.2352 17.2933 55.2619 17.3733 55.2619 17.48C55.2085 17.48 55.1019 17.5333 54.9419 17.64C54.7819 17.6933 54.6485 17.7467 54.5419 17.8C54.4352 17.8 54.3285 17.8533 54.2219 17.96C54.1152 18.0133 54.0352 18.0933 53.9819 18.2C53.9819 18.3067 53.9819 18.4133 53.9819 18.52C53.8752 18.4133 53.7419 18.44 53.5819 18.6C53.4219 18.7067 53.2885 18.68 53.1819 18.52C53.1285 18.6267 52.9952 18.76 52.7819 18.92C52.6219 19.08 52.4885 19.1867 52.3819 19.24H52.7819C52.7819 19.3467 52.6752 19.4533 52.4619 19.56C52.3019 19.6667 52.1152 19.72 51.9019 19.72C51.7419 19.72 51.6619 19.64 51.6619 19.48C51.5019 19.5333 51.4752 19.64 51.5819 19.8C51.6352 19.8533 51.6619 19.9067 51.6619 19.96C51.5019 20.12 51.2352 20.2 50.8619 20.2C50.8085 20.3067 50.8085 20.4133 50.8619 20.52C50.9152 20.6267 50.9152 20.76 50.8619 20.92C50.8085 20.9733 50.7019 21.08 50.5419 21.24C50.4352 21.3467 50.3552 21.4 50.3019 21.4C50.2485 21.4 50.1152 21.3733 49.9019 21.32C49.7952 21.3733 49.7952 21.4267 49.9019 21.48C49.9552 21.5333 50.0352 21.56 50.1419 21.56C50.0352 21.6667 49.9285 21.8 49.8219 21.96C49.7152 22.12 49.6085 22.2267 49.5019 22.28L49.2619 22.04C49.2085 22.1467 49.1819 22.3067 49.1819 22.52C49.2352 22.68 49.1819 22.7867 49.0219 22.84V22.44C48.8085 22.4933 48.6752 22.6 48.6219 22.76C48.5685 22.92 48.6219 23.08 48.7819 23.24C48.7285 23.2933 48.5952 23.32 48.3819 23.32C48.2219 23.32 48.1152 23.3733 48.0619 23.48C48.0619 23.64 48.1152 23.6933 48.2219 23.64C48.3285 23.5333 48.4085 23.48 48.4619 23.48C48.5152 23.64 48.3285 23.72 47.9019 23.72C48.0085 23.88 47.9819 24.1467 47.8219 24.52C47.7152 24.52 47.6619 24.4667 47.6619 24.36C47.7152 24.2533 47.7685 24.2 47.8219 24.2C47.2352 24.7867 47.0485 25.16 47.2619 25.32H46.8619C46.8085 25.3733 46.8085 25.4533 46.8619 25.56C46.9152 25.6133 46.9419 25.6667 46.9419 25.72C46.8352 25.8267 46.7285 25.88 46.6219 25.88C46.5152 25.88 46.4352 25.9067 46.3819 25.96V26.6C46.2752 26.4933 46.2485 26.4133 46.3019 26.36C45.7685 26.9467 45.4485 27.56 45.3419 28.2C45.2885 28.2533 45.1819 28.3067 45.0219 28.36C44.8619 28.36 44.7552 28.36 44.7019 28.36C44.7019 28.4667 44.7019 28.5467 44.7019 28.6C44.7552 28.6 44.8352 28.6 44.9419 28.6C45.0485 28.6 45.0752 28.6533 45.0219 28.76C44.8085 28.8667 44.6219 28.9467 44.4619 29C44.4085 29.2667 44.3285 29.5333 44.2219 29.8C44.1152 30.0133 44.0619 30.1467 44.0619 30.2C44.0619 30.3067 44.0352 30.36 43.9819 30.36C43.9819 30.36 43.9552 30.3333 43.9019 30.28C43.2619 31.1333 42.8885 31.88 42.7819 32.52H42.5419C42.4885 32.6267 42.5152 32.7067 42.6219 32.76C42.7285 32.8133 42.7552 32.8933 42.7019 33C42.1152 33.32 41.6619 34.1467 41.3419 35.48C41.2885 34.9467 41.5019 34.1467 41.9819 33.08C42.5152 32.0133 42.7819 31.24 42.7819 30.76C42.9952 30.7067 43.1019 30.6 43.1019 30.44C43.3152 30.3333 43.5019 30.1467 43.6619 29.88C43.8219 29.56 43.9819 29.1867 44.1419 28.76C44.3552 28.3333 44.5152 28.04 44.6219 27.88C44.5152 27.88 44.4352 27.96 44.3819 28.12C44.3285 28.2267 44.2485 28.2 44.1419 28.04C44.0885 28.0933 44.0085 28.2267 43.9019 28.44C43.8485 28.6533 43.7419 28.76 43.5819 28.76C44.5952 26.52 45.5019 25 46.3019 24.2C46.3019 24.0933 46.3285 23.9867 46.3819 23.88C46.4352 23.72 46.4352 23.5867 46.3819 23.48C46.4885 23.48 46.5952 23.3733 46.7019 23.16C46.8085 22.9467 46.9419 22.8667 47.1019 22.92C48.8619 19.7733 51.2619 17.16 54.3019 15.08C55.4752 13.8 56.9952 13.0267 58.8619 12.76C58.9685 12.76 59.2885 12.8933 59.8219 13.16C59.8752 13 59.8219 12.92 59.6619 12.92C59.5552 12.8667 59.5019 12.7867 59.5019 12.68C60.1419 12.9467 60.5419 13.16 60.7019 13.32V13ZM57.3419 14.12C56.9152 14.44 56.5152 14.6 56.1419 14.6C56.0352 14.6533 55.9019 14.76 55.7419 14.92C55.6352 15.0267 55.5285 15.1333 55.4219 15.24C55.3685 15.2933 55.2352 15.3733 55.0219 15.48C54.8619 15.5333 54.7019 15.56 54.5419 15.56C50.8085 18.44 48.0085 21.5333 46.1419 24.84L45.9819 25C45.8219 25.1067 45.6885 25.16 45.5819 25.16C45.6885 25.3733 45.5819 25.6667 45.2619 26.04C44.9952 26.36 44.9152 26.6267 45.0219 26.84C44.3819 27.32 44.1685 27.6667 44.3819 27.88C44.9152 27.4 45.5552 26.5467 46.3019 25.32C47.1019 24.0933 47.6352 23.32 47.9019 23C48.1685 23.2667 48.3019 23.24 48.3019 22.92C48.3552 22.92 48.3285 22.8933 48.2219 22.84C48.0619 22.7867 48.0085 22.7067 48.0619 22.6C48.5952 22.3333 48.8619 21.9867 48.8619 21.56C49.2885 21.2933 49.8485 20.7333 50.5419 19.88C51.2352 19.0267 51.8219 18.44 52.3019 18.12C52.5685 17.7467 52.9152 17.3733 53.3419 17C53.7685 16.5733 54.1685 16.2533 54.5419 16.04C54.9152 15.8267 55.4219 15.5333 56.0619 15.16C56.7552 14.7333 57.2085 14.44 57.4219 14.28C57.5285 14.3333 57.7152 14.3333 57.9819 14.28C58.2485 14.2267 58.4085 14.12 58.4619 13.96C58.3552 13.9067 58.1685 13.9333 57.9019 14.04C57.6885 14.1467 57.5019 14.1733 57.3419 14.12ZM59.9019 14.76C59.7952 14.76 59.7419 14.7867 59.7419 14.84C59.8485 14.84 59.9019 14.8133 59.9019 14.76ZM65.5819 15.8H65.7419C65.8485 15.8 65.8752 15.7733 65.8219 15.72L65.7419 15.64C65.6885 15.5867 65.6352 15.56 65.5819 15.56V15.8ZM54.7819 17.24H55.0219V17.08H54.7819V17.24ZM54.6219 17.32C54.5152 17.32 54.4085 17.3733 54.3019 17.48C54.3019 17.5333 54.3019 17.5867 54.3019 17.64C54.4619 17.5867 54.5685 17.48 54.6219 17.32ZM67.0219 17.96H67.1819V17.72H67.0219V17.96ZM66.7019 18.12C66.5952 18.12 66.5419 18.1467 66.5419 18.2C66.6485 18.2 66.7019 18.1733 66.7019 18.12ZM67.5819 19H67.7419V18.76H67.5819V19ZM67.1819 19.48C67.3952 19.48 67.5285 19.4533 67.5819 19.4C67.5819 19.1867 67.4485 19.08 67.1819 19.08V19.48ZM68.3819 19.88C68.2219 19.88 68.1419 19.9067 68.1419 19.96C68.2485 19.96 68.3285 19.9333 68.3819 19.88ZM67.5019 20.36C67.5019 20.68 67.6352 20.8667 67.9019 20.92C67.9019 20.8133 67.8485 20.7067 67.7419 20.6C67.8485 20.6 67.9552 20.5467 68.0619 20.44C67.7952 20.1733 67.6085 20.1467 67.5019 20.36ZM68.5419 21.16C68.6485 21.5333 68.8085 21.7467 69.0219 21.8C68.9152 21.3733 68.8885 21.1333 68.9419 21.08C68.8885 21.08 68.8085 21.08 68.7019 21.08L68.5419 21.16ZM69.5019 28.6C69.6085 28.5467 69.6619 28.5733 69.6619 28.68C69.7152 28.7867 69.7685 28.84 69.8219 28.84C69.7152 28.5733 69.8219 28.3867 70.1419 28.28C70.0352 28.1733 70.0085 28.04 70.0619 27.88C70.1152 27.72 70.0619 27.64 69.9019 27.64C69.9552 27.8533 69.8752 28.04 69.6619 28.2C69.5019 28.3067 69.3419 28.3067 69.1819 28.2C69.7685 27.1867 69.7419 26.0133 69.1019 24.68C69.1019 24.7867 69.0219 24.84 68.8619 24.84C68.9152 24.68 68.9419 24.4933 68.9419 24.28C68.9952 24.0667 68.9952 23.88 68.9419 23.72C68.8885 23.56 68.7819 23.48 68.6219 23.48C68.6219 23.2667 68.5419 22.9467 68.3819 22.52C68.2752 22.0933 68.3019 21.8 68.4619 21.64C68.3019 21.6933 68.1952 21.6667 68.1419 21.56C68.0885 21.4533 68.1152 21.3733 68.2219 21.32C68.1152 21.32 68.0085 21.2667 67.9019 21.16C68.7019 24.68 69.0219 27.4 68.8619 29.32C68.8619 29.3733 68.8885 29.4 68.9419 29.4C68.9952 29.4 69.0485 29.4267 69.1019 29.48C69.1019 29.5333 69.0219 29.56 68.8619 29.56C68.8619 29.8267 68.8085 30.0667 68.7019 30.28C68.7552 30.28 68.8352 30.3333 68.9419 30.44C68.7285 33.3733 68.4885 35.16 68.2219 35.8C68.2219 35.9067 68.2752 36.0133 68.3819 36.12C68.4352 36.2267 68.4619 36.3067 68.4619 36.36C68.3019 36.3067 68.1952 36.3333 68.1419 36.44C68.1419 36.4933 68.1419 36.6 68.1419 36.76H68.4619C68.4619 36.8667 68.3819 36.92 68.2219 36.92C68.1152 36.92 68.0619 36.9467 68.0619 37C68.1152 37.0533 68.0885 37.2133 67.9819 37.48C67.9285 37.6933 68.0085 37.8 68.2219 37.8C67.9552 37.8 67.7952 37.9333 67.7419 38.2C67.7419 38.2533 67.8219 38.28 67.9819 38.28C68.0352 38.28 68.0619 38.3067 68.0619 38.36C68.1152 38.36 68.1419 38.3867 68.1419 38.44C67.7685 38.4933 67.7152 38.8667 67.9819 39.56C67.8752 39.56 67.8219 39.5067 67.8219 39.4C67.7685 39.3467 67.7152 39.32 67.6619 39.32C67.6085 39.4267 67.5552 39.64 67.5019 39.96C67.5019 40.2267 67.4752 40.4667 67.4219 40.68C67.3685 40.84 67.2885 40.9467 67.1819 41C67.1819 41.0533 67.2619 41.08 67.4219 41.08C67.5285 41.1867 67.5819 41.24 67.5819 41.24H67.1019C67.2085 41.5067 67.1819 41.8 67.0219 42.12C66.8619 42.3867 66.8352 42.5733 66.9419 42.68V42.52C66.9952 42.4667 67.0485 42.44 67.1019 42.44C67.1019 42.76 66.9952 42.92 66.7819 42.92C66.9419 43.1333 66.8352 43.4533 66.4619 43.88C66.1419 44.3067 66.0885 44.6533 66.3019 44.92C65.8752 45.3467 65.8219 45.64 66.1419 45.8C66.7285 44.8933 67.1019 44.4133 67.2619 44.36C67.2619 44.4133 67.2352 44.52 67.1819 44.68C67.1285 44.84 67.1019 44.9467 67.1019 45C67.2619 45.0533 67.3419 44.9733 67.3419 44.76C67.3952 44.5467 67.4752 44.44 67.5819 44.44C67.5819 44.4933 67.5552 44.5467 67.5019 44.6C67.4485 44.6533 67.4485 44.7333 67.5019 44.84C67.6619 44.7867 67.7685 44.6267 67.8219 44.36C67.9285 44.0933 68.0085 43.8 68.0619 43.48C68.1685 43.16 68.2752 42.8933 68.3819 42.68C67.9019 42.7867 67.6352 42.7867 67.5819 42.68C67.7419 42.5733 68.0352 42.4133 68.4619 42.2C68.4619 41.7733 68.5952 41.5333 68.8619 41.48C68.8085 41.3733 68.7285 41.24 68.6219 41.08C68.5685 40.92 68.5419 40.8133 68.5419 40.76C68.7552 40.8133 68.8885 40.68 68.9419 40.36C68.9952 40.04 69.0752 39.8533 69.1819 39.8C69.1285 39.6933 69.0219 39.6933 68.8619 39.8C68.7552 39.8533 68.7019 39.8533 68.7019 39.8L69.0219 39.16L69.1019 39.24L69.1819 39.32C69.1819 39.2667 69.1819 39.16 69.1819 39C69.2352 38.7867 69.2885 38.6 69.3419 38.44C69.2352 38.44 69.1019 38.4667 68.9419 38.52C68.8352 38.5733 68.7552 38.5467 68.7019 38.44C68.7019 38.3867 68.9152 38.2267 69.3419 37.96C69.3419 38.2267 69.3685 38.36 69.4219 38.36C69.3685 38.1467 69.4219 37.8 69.5819 37.32C69.7952 36.84 69.7952 36.4933 69.5819 36.28C69.4752 36.6 69.3419 36.76 69.1819 36.76C69.1819 36.12 69.2885 35.7733 69.5019 35.72C69.6085 35.72 69.6619 35.8267 69.6619 36.04H70.1419C69.9819 35.9333 69.9285 35.6667 69.9819 35.24C69.8752 35.1867 69.7685 35.1867 69.6619 35.24C69.5552 35.2933 69.4752 35.32 69.4219 35.32C69.4752 35.2133 69.4219 35.1333 69.2619 35.08C69.1552 35.0267 69.1019 34.9733 69.1019 34.92C69.1019 34.76 69.2085 34.6533 69.4219 34.6C69.6885 34.4933 69.8219 34.3867 69.8219 34.28V34.68C69.8219 34.8933 69.8752 35 69.9819 35C70.0885 32.8667 70.1152 31.6933 70.0619 31.48C70.0085 31.6933 69.9819 32.0133 69.9819 32.44C70.0352 32.8133 69.9819 33.0267 69.8219 33.08C69.8219 32.92 69.8219 32.68 69.8219 32.36C69.8752 32.04 69.8752 31.7733 69.8219 31.56C69.7685 31.3467 69.6352 31.16 69.4219 31C69.4752 30.8933 69.4752 30.8133 69.4219 30.76C69.4219 30.6533 69.4219 30.5467 69.4219 30.44C69.4219 30.3333 69.5019 30.28 69.6619 30.28C69.6619 30.3333 69.6619 30.4133 69.6619 30.52C69.6085 30.5733 69.5819 30.6267 69.5819 30.68C69.6352 30.68 69.7152 30.68 69.8219 30.68C69.8219 30.52 69.7952 30.2533 69.7419 29.88C69.7419 29.5067 69.7685 29.24 69.8219 29.08C69.5552 29.08 69.4219 29.0533 69.4219 29C69.4752 28.9467 69.5019 28.8133 69.5019 28.6ZM69.5819 23.8C69.5819 23.6933 69.5019 23.4 69.3419 22.92C69.2352 23.0267 69.1552 23.16 69.1019 23.32C69.1019 23.4267 69.1285 23.5333 69.1819 23.64C69.2885 23.7467 69.4219 23.8 69.5819 23.8ZM69.5019 25.4C69.7152 25.4533 69.8219 25.4267 69.8219 25.32C69.7685 25.16 69.6619 25.0533 69.5019 25V25.4ZM69.8219 25.96L69.6619 26.04C69.6085 26.04 69.5819 26.0667 69.5819 26.12L69.6619 26.04C69.7152 26.04 69.7685 26.0133 69.8219 25.96ZM70.0619 27.24C70.0619 27.1333 70.0085 27.0267 69.9019 26.92C69.9019 27.1867 69.9552 27.2933 70.0619 27.24ZM70.1419 30.68C70.1419 30.5733 70.1419 30.3867 70.1419 30.12C70.1952 29.8 70.1952 29.56 70.1419 29.4C70.1419 29.1867 70.0885 29.0533 69.9819 29C69.9819 29.96 70.0352 30.52 70.1419 30.68ZM70.3019 31.08L69.9819 31.16C69.9285 31.2667 69.9285 31.32 69.9819 31.32C70.0885 31.3733 70.1952 31.2933 70.3019 31.08ZM65.0219 48.36V48.52C65.0219 48.6267 65.0752 48.68 65.1819 48.68C65.2885 48.68 65.3419 48.7067 65.3419 48.76C65.3419 48.2267 65.4752 47.96 65.7419 47.96C65.7419 48.3867 65.7152 48.68 65.6619 48.84C65.9819 48.7867 66.1419 48.5467 66.1419 48.12C66.1952 47.64 66.3019 47.3467 66.4619 47.24C66.5685 47.2933 66.6752 47.24 66.7819 47.08C66.8885 46.8667 66.9685 46.6533 67.0219 46.44C67.0752 46.2267 67.0752 46.0667 67.0219 45.96C67.3952 45.8 67.5819 45.6667 67.5819 45.56C67.3152 45.56 67.2885 45.48 67.5019 45.32C67.6085 45.2133 67.6619 45.1333 67.6619 45.08L66.9419 45.32C66.8352 45.8 66.6752 46.1467 66.4619 46.36C66.3552 46.3067 66.3285 46.2267 66.3819 46.12C66.4885 46.0133 66.5152 45.9333 66.4619 45.88C66.3019 45.9333 66.1419 45.96 65.9819 45.96C65.8752 45.9067 65.7685 45.9067 65.6619 45.96C65.6085 46.0133 65.5819 46.1467 65.5819 46.36C65.7952 46.36 65.9285 46.4133 65.9819 46.52C65.6085 46.52 65.3952 46.6267 65.3419 46.84C65.3419 46.8933 65.4219 46.92 65.5819 46.92C65.6352 46.92 65.6619 46.9467 65.6619 47C65.7152 47 65.7419 47.0267 65.7419 47.08C65.6352 47.1333 65.4485 47.1333 65.1819 47.08C65.2352 47.1867 65.1552 47.4267 64.9419 47.8C64.7819 48.12 64.8085 48.3067 65.0219 48.36ZM66.7019 45.48V45.16V45.48ZM64.2219 48.68H64.3819V48.44H64.2219V48.68ZM64.7819 48.76V48.52C64.7285 48.4133 64.6752 48.3867 64.6219 48.44C64.4619 48.5467 64.4619 48.6533 64.6219 48.76C64.6752 48.76 64.7285 48.76 64.7819 48.76ZM64.6219 49.16V49C64.4619 48.84 64.3019 48.9467 64.1419 49.32C64.0885 49.48 64.1152 49.5867 64.2219 49.64C64.2219 49.48 64.3285 49.4 64.5419 49.4C64.3819 49.56 64.3819 49.6667 64.5419 49.72C64.7019 49.7733 64.7819 49.8533 64.7819 49.96C64.7285 50.0667 64.5685 50.28 64.3019 50.6C64.0885 50.8667 64.0085 51.1067 64.0619 51.32C63.9019 51.32 63.8219 51.2667 63.8219 51.16C63.7685 51.0533 63.7952 50.9733 63.9019 50.92C64.0085 50.8667 64.0619 50.7867 64.0619 50.68C63.9552 50.7333 63.8219 50.7333 63.6619 50.68C63.5019 50.6267 63.4219 50.6267 63.4219 50.68C63.6885 50.84 63.6619 51.1333 63.3419 51.56C63.8752 51.6667 64.3285 51.5333 64.7019 51.16C65.0752 50.7867 65.1819 50.3867 65.0219 49.96C65.1285 50.0133 65.2352 49.9867 65.3419 49.88C65.4485 49.7733 65.5285 49.72 65.5819 49.72C65.4219 49.6667 65.3952 49.56 65.5019 49.4C65.6619 49.1867 65.7419 49.0533 65.7419 49C65.6352 48.9467 65.4752 49 65.2619 49.16C65.2619 49.2133 65.2885 49.2933 65.3419 49.4C65.3952 49.5067 65.3685 49.5867 65.2619 49.64C65.1019 49.3733 64.9419 49.32 64.7819 49.48C64.6752 49.2667 64.6219 49.16 64.6219 49.16ZM63.5819 49.88H63.4219V49.96C63.3685 50.0133 63.3419 50.0667 63.3419 50.12L63.4219 50.2C63.4752 50.2 63.5285 50.2 63.5819 50.2V49.88ZM63.8219 50.2H63.6619C63.6619 50.36 63.7152 50.44 63.8219 50.44V50.2ZM64.2219 50.2C64.0619 50.1467 63.9819 50.2267 63.9819 50.44C63.9285 50.4933 63.9552 50.5467 64.0619 50.6C64.0619 50.5467 64.0885 50.4933 64.1419 50.44C64.2485 50.3867 64.2752 50.3067 64.2219 50.2ZM63.1819 52.04L63.2619 52.28C63.3152 52.4933 63.3152 52.6533 63.2619 52.76C63.2085 52.8133 63.1019 52.84 62.9419 52.84C62.8885 52.84 62.8885 52.76 62.9419 52.6C62.9952 52.44 62.9685 52.3333 62.8619 52.28C62.8619 52.3867 62.8352 52.4933 62.7819 52.6C62.6752 52.7067 62.6219 52.7867 62.6219 52.84C62.6219 52.8933 62.6752 52.9467 62.7819 53C62.8885 53.0533 62.9419 53.1067 62.9419 53.16C62.8885 53.2667 62.7819 53.5067 62.6219 53.88C62.4619 54.2 62.3019 54.4667 62.1419 54.68C62.0352 54.8933 61.8752 55 61.6619 55C61.7685 55 61.7952 55.08 61.7419 55.24C61.6885 55.3467 61.6619 55.4267 61.6619 55.48C61.8752 55.48 62.0619 55.2933 62.2219 54.92C62.3819 54.4933 62.5952 54.28 62.8619 54.28C62.9152 54.1733 62.8885 54.12 62.7819 54.12C62.7285 54.0667 62.7019 54.0133 62.7019 53.96C62.8619 53.64 63.0485 53.56 63.2619 53.72C63.2085 53.2933 63.3685 52.84 63.7419 52.36C63.7952 52.36 63.8485 52.3867 63.9019 52.44V52.6C63.9552 52.5467 64.0619 52.36 64.2219 52.04C63.9552 51.9867 63.6085 51.9867 63.1819 52.04ZM62.3019 53.24C62.5152 53.2933 62.6485 53.24 62.7019 53.08C62.4352 53.08 62.3019 53.1333 62.3019 53.24ZM61.5019 54.52C61.7685 54.52 61.9285 54.36 61.9819 54.04C61.9819 53.88 61.9285 53.8 61.8219 53.8C61.8219 53.96 61.7685 54.0933 61.6619 54.2C61.5552 54.3067 61.5019 54.4133 61.5019 54.52ZM61.1819 56.2C61.2352 56.1467 61.2885 56.12 61.3419 56.12C61.3419 55.96 61.2885 55.88 61.1819 55.88C61.1819 55.9333 61.1552 56.0133 61.1019 56.12C61.0485 56.1733 61.0752 56.2 61.1819 56.2ZM60.4619 57.08C60.5685 57.08 60.6752 57.0533 60.7819 57C60.9419 56.8933 61.0752 56.8933 61.1819 57C61.1819 56.8933 61.1019 56.8133 60.9419 56.76C60.8352 56.7067 60.7285 56.7333 60.6219 56.84C60.5152 56.8933 60.4619 56.9733 60.4619 57.08ZM60.2219 57.88L59.9019 57.96H60.1419L60.2219 57.88ZM61.0219 13C60.9152 13 60.8352 12.9733 60.7819 12.92C60.7819 12.76 60.8619 12.76 61.0219 12.92V13ZM53.1819 18.92C53.2352 19.0267 53.1019 19.08 52.7819 19.08C52.8352 18.9733 52.9685 18.92 53.1819 18.92ZM51.8219 20.04C51.9285 20.0933 51.9285 20.2 51.8219 20.36C51.7152 20.4667 51.6352 20.4667 51.5819 20.36C51.5285 20.2533 51.5552 20.2 51.6619 20.2C51.7685 20.1467 51.8219 20.0933 51.8219 20.04ZM50.4619 21.48C50.6752 21.5867 50.6752 21.72 50.4619 21.88C50.3552 21.9333 50.2752 21.96 50.2219 21.96L50.4619 21.48ZM69.0219 25.64C69.0752 25.5867 69.1285 25.5867 69.1819 25.64C69.2352 25.6933 69.2885 25.72 69.3419 25.72C69.3419 25.8267 69.2619 25.88 69.1019 25.88C68.9952 25.8267 68.9685 25.7467 69.0219 25.64ZM69.3419 26.76C69.4485 26.8667 69.5019 26.9733 69.5019 27.08C69.3419 27.1333 69.2352 27.1333 69.1819 27.08C69.1819 26.9733 69.2352 26.8667 69.3419 26.76ZM69.5019 28.6C69.5019 28.5467 69.5019 28.4667 69.5019 28.36V28.6ZM68.9419 28.6L69.0219 28.52L69.1019 28.6H68.9419ZM43.5819 28.76V29.24C43.5285 29.24 43.4485 29.2667 43.3419 29.32C43.2885 29.3733 43.2352 29.3733 43.1819 29.32C43.2885 29.0533 43.4219 28.8667 43.5819 28.76ZM43.1819 29.56C43.3419 29.56 43.2885 29.6933 43.0219 29.96C42.8619 30.6 42.6219 31.1067 42.3019 31.48C42.3552 31.5867 42.3552 31.6933 42.3019 31.8C42.2485 31.9067 42.2219 32.0133 42.2219 32.12C42.0619 32.12 41.9552 32.2533 41.9019 32.52C41.8485 32.7867 41.7685 32.9467 41.6619 33C41.7152 32.8933 41.8219 32.5467 41.9819 31.96C42.1952 31.3733 42.3819 30.8933 42.5419 30.52C42.7552 30.1467 42.9685 29.8267 43.1819 29.56ZM69.4219 32.2C69.4752 32.2 69.5019 32.3333 69.5019 32.6C69.4485 32.6 69.4219 32.4667 69.4219 32.2ZM69.5819 33C69.6352 33.16 69.5019 33.2933 69.1819 33.4C69.1819 33.1333 69.3152 33 69.5819 33ZM41.5819 33.16V33.48H41.5019V33.32C41.5552 33.32 41.5819 33.2667 41.5819 33.16ZM69.8219 33.32C70.1419 33.4267 70.1419 33.64 69.8219 33.96C69.6085 33.7467 69.5019 33.5867 69.5019 33.48C69.7152 33.6933 69.8219 33.64 69.8219 33.32ZM41.3419 34.12C41.1285 34.3333 41.0485 34.44 41.1019 34.44L41.1819 34.28C41.1819 34.1733 41.2352 34.12 41.3419 34.12ZM40.7819 36.92C40.7285 36.7067 40.8619 36.3067 41.1819 35.72C41.2352 35.88 41.1019 36.28 40.7819 36.92ZM40.7819 36.92C40.8352 37.0267 40.8352 37.1333 40.7819 37.24L40.7019 37.48C40.5952 37.4267 40.5685 37.3467 40.6219 37.24C40.6752 37.08 40.7019 36.9733 40.7019 36.92H40.7819ZM68.2219 37.24H68.4619V37.4H68.2219V37.24ZM67.9819 38.68V39.08C67.7685 39.0267 67.7685 38.8933 67.9819 38.68ZM68.7019 39.24C68.6485 39.5067 68.5152 39.6133 68.3019 39.56C68.1952 39.56 68.1419 39.4533 68.1419 39.24C68.3552 39.1867 68.5419 39.1867 68.7019 39.24ZM67.6619 40.76C67.6619 40.7067 67.6885 40.68 67.7419 40.68C67.8485 40.68 67.9019 40.7067 67.9019 40.76H67.6619ZM67.5819 43.08C67.4752 43.08 67.4219 43.1067 67.4219 43.16C67.2085 43.16 67.1819 43.1067 67.3419 43C67.5019 42.8933 67.5819 42.92 67.5819 43.08ZM67.5819 43.08H67.9819C67.9285 43.3467 67.7952 43.3733 67.5819 43.16V43.08ZM65.9819 46.92C65.9819 46.8667 66.0085 46.84 66.0619 46.84C66.1152 46.84 66.1419 46.8667 66.1419 46.92H65.9819ZM65.5819 47.56H65.7419V47.8H65.5819V47.56ZM65.0219 48.36C64.9685 48.2 65.0752 48.0667 65.3419 47.96C65.2352 48.1733 65.1285 48.3067 65.0219 48.36ZM64.6219 49.16C64.4619 49.1067 64.3819 49.16 64.3819 49.32C64.5419 49.32 64.6219 49.2667 64.6219 49.16ZM62.1419 51.64C62.1419 51.9067 61.9819 52.04 61.6619 52.04C61.6619 51.88 61.8219 51.7467 62.1419 51.64ZM61.0219 53.16C61.1819 53.2133 61.2619 53.32 61.2619 53.48C61.1019 53.48 61.0219 53.3733 61.0219 53.16ZM59.1019 56.52C59.3685 56.52 59.3685 56.68 59.1019 57C58.9952 57.16 58.8885 57.2133 58.7819 57.16C58.7819 57.0533 58.8085 56.9733 58.8619 56.92C58.9152 56.8667 58.9685 56.8133 59.0219 56.76C59.0752 56.7067 59.1019 56.6267 59.1019 56.52ZM57.5819 57.32C57.5819 57.2667 57.6352 57.24 57.7419 57.24L57.8219 57.16C57.7685 57.2133 57.7152 57.24 57.6619 57.24L57.5819 57.32ZM58.3019 57.64V57.96C58.1952 57.9067 58.1952 57.8 58.3019 57.64ZM57.8219 58.36C57.8219 58.4667 57.7685 58.5733 57.6619 58.68C57.5552 58.7333 57.5019 58.7867 57.5019 58.84C57.2885 58.7867 57.3152 58.6533 57.5819 58.44C57.6352 58.3867 57.7152 58.36 57.8219 58.36ZM95.6569 31.96C95.5502 32.0133 95.4169 32.12 95.2569 32.28C95.0969 32.44 94.9635 32.5467 94.8569 32.6C94.6969 33.3467 94.1635 34.3333 93.2569 35.56C92.4035 36.7867 91.8702 37.8267 91.6569 38.68C91.3369 38.68 91.0435 38.9467 90.7769 39.48C90.5102 40.0133 90.2169 40.3067 89.8969 40.36C90.0035 40.6267 89.8969 40.9733 89.5769 41.4C89.2569 41.7733 89.1235 42.04 89.1769 42.2C88.8569 42.52 88.4302 43.08 87.8969 43.88C87.4169 44.68 86.9902 45.24 86.6169 45.56C86.2435 46.68 85.7369 47.5067 85.0969 48.04C85.1502 48.2533 85.0969 48.44 84.9369 48.6C84.8302 48.7067 84.7769 48.84 84.7769 49C84.1369 49.8 83.2035 51.16 81.9769 53.08C80.7502 55 79.7635 56.4133 79.0169 57.32C78.8035 57.9067 78.3235 58.68 77.5769 59.64C76.8835 60.6 76.4302 61.3733 76.2169 61.96C75.8435 62.3333 75.3902 62.9733 74.8569 63.88C74.3235 64.84 73.8969 65.48 73.5769 65.8C73.5769 66.0133 73.4702 66.2533 73.2569 66.52C73.0969 66.84 73.0435 67.1333 73.0969 67.4C72.8835 67.4 72.7235 67.5067 72.6169 67.72C71.9769 67.56 71.6035 67.16 71.4969 66.52C71.3369 65.88 71.3902 65.32 71.6569 64.84C71.6035 64.7867 71.4969 64.8667 71.3369 65.08C71.2835 65.1333 71.2302 65.16 71.1769 65.16C71.0702 65 71.1769 64.6533 71.4969 64.12C71.5502 64.0133 71.5502 63.9067 71.4969 63.8C71.3902 63.7467 71.3369 63.6933 71.3369 63.64C71.3369 62.7867 71.7902 61.96 72.6969 61.16C73.6035 60.36 74.1102 59.64 74.2169 59C75.4969 57.6133 76.7502 55.72 77.9769 53.32H78.3769C79.2302 51.9333 79.7902 51.1333 80.0569 50.92V50.44C80.1102 50.44 80.1635 50.4133 80.2169 50.36C80.2702 50.2533 80.3502 50.2267 80.4569 50.28C80.6169 49.9067 80.9902 49.3467 81.5769 48.6C82.1635 47.8 82.5369 47.1067 82.6969 46.52C82.8035 46.52 82.8835 46.44 82.9369 46.28C83.0435 46.0667 83.1769 45.9867 83.3369 46.04C83.6569 45.1333 84.3769 43.9067 85.4969 42.36C86.6169 40.8133 87.3102 39.56 87.5769 38.6C88.2169 38.0667 88.9369 37.1333 89.7369 35.8C90.5369 34.4133 91.1235 33.5067 91.4969 33.08C91.4969 32.92 91.5502 32.7333 91.6569 32.52C91.7635 32.2533 91.8169 32.0933 91.8169 32.04C92.6702 31.24 93.6569 29.8267 94.7769 27.8C95.9502 25.72 96.8835 24.3067 97.5769 23.56C97.5769 23.0267 97.8169 22.6267 98.2969 22.36C98.5102 21.88 98.9102 21.24 99.4969 20.44C100.137 19.5867 100.564 18.8667 100.777 18.28C100.884 18.28 100.99 18.2267 101.097 18.12C101.204 17.96 101.31 17.9067 101.417 17.96C101.63 17.4267 102.057 16.7333 102.697 15.88C103.337 15.0267 103.764 14.3867 103.977 13.96C104.03 14.0133 104.084 14.0133 104.137 13.96C104.244 13.9067 104.324 13.88 104.377 13.88C104.377 13.6667 104.484 13.4533 104.697 13.24C104.91 13.0267 105.017 12.84 105.017 12.68C101.39 15.1333 97.6302 16.36 93.7369 16.36C94.1102 17.4267 94.0569 18.4933 93.5769 19.56C93.1502 20.6267 92.4835 21.4267 91.5769 21.96C91.5235 22.4933 91.1502 22.92 90.4569 23.24V23.72C89.8169 24.36 88.7502 24.68 87.2569 24.68C86.1902 24.5733 85.3102 24.1733 84.6169 23.48C83.9235 22.7333 83.6035 21.8533 83.6569 20.84C83.3369 19.4533 83.4435 18.0933 83.9769 16.76C84.5102 15.4267 85.2569 14.3867 86.2169 13.64V13.24C86.3235 13.1867 86.6702 12.9733 87.2569 12.6C87.8435 12.2267 88.2435 11.9867 88.4569 11.88C88.6702 11.7733 89.0969 11.5867 89.7369 11.32C90.3769 11 90.8035 10.8933 91.0169 11C91.2835 11.1067 91.7102 11.2133 92.2969 11.32C92.6702 12.1733 92.8569 12.8133 92.8569 13.24C92.8569 13.4533 92.7769 13.5333 92.6169 13.48C92.6702 13.5867 92.7502 13.72 92.8569 13.88C92.9635 14.04 93.0169 14.1467 93.0169 14.2C94.5102 14.4667 95.9769 14.3867 97.4169 13.96C98.8569 13.48 100.484 12.7067 102.297 11.64C104.11 10.52 105.337 9.82666 105.977 9.56C106.084 9.56 106.137 9.50666 106.137 9.4C106.19 9.24 106.244 9.13333 106.297 9.08C107.684 8.70666 108.564 8.06666 108.937 7.16C109.044 7.16 109.124 7.24 109.177 7.4C109.39 7.24 109.79 6.84 110.377 6.2C111.017 5.56 111.55 5.10666 111.977 4.84C112.084 4.36 112.43 3.77333 113.017 3.08C113.657 2.33333 114.03 1.64 114.137 0.999998C114.297 0.946665 114.457 0.786666 114.617 0.52C114.83 0.25333 114.99 0.0933288 115.097 0.0399961C116.004 0.359998 116.324 0.999998 116.057 1.96C116.484 3.18666 116.67 3.98666 116.617 4.36C116.564 4.57333 116.404 4.86666 116.137 5.24C115.924 5.56 115.817 5.88 115.817 6.2H115.417C115.15 6.62667 114.617 7.24 113.817 8.04C113.07 8.78666 112.564 9.42666 112.297 9.96L112.137 10.04C112.084 10.0933 112.03 10.0933 111.977 10.04C111.55 10.68 110.75 11.6133 109.577 12.84C108.457 14.0133 107.657 15 107.177 15.8C106.537 16.28 105.657 17.3467 104.537 19C104.057 19.1067 103.844 19.4267 103.897 19.96C103.044 20.8667 101.924 22.3333 100.537 24.36C99.1502 26.3867 98.1102 27.8 97.4169 28.6C97.3635 29.1333 97.0702 29.7467 96.5369 30.44C96.0569 31.08 95.7635 31.5867 95.6569 31.96ZM92.0569 17.8L92.1369 17.72C92.1902 17.72 92.2435 17.72 92.2969 17.72C92.3502 17.6133 92.3235 17.5333 92.2169 17.48C92.1102 17.4267 92.0569 17.3733 92.0569 17.32C92.4835 16.68 92.2969 16.0667 91.4969 15.48C90.7502 14.84 90.3235 14.3333 90.2169 13.96C89.3635 14.6 88.6969 15.0533 88.2169 15.32C88.1102 15.9067 87.6835 16.5467 86.9369 17.24C86.2435 17.88 85.8435 18.52 85.7369 19.16C85.6835 19.16 85.5235 19.4533 85.2569 20.04C85.7369 20.52 86.5635 20.7333 87.7369 20.68C89.6035 19.88 90.9902 18.9733 91.8969 17.96C91.9502 18.0133 92.0035 18.0133 92.0569 17.96C92.1102 17.9067 92.1102 17.8533 92.0569 17.8ZM92.2969 17.48H92.4569V17.24H92.2969V17.48ZM97.4169 25.16L97.5769 25C97.5769 24.84 97.4969 24.7867 97.3369 24.84C97.3369 25 97.3635 25.1067 97.4169 25.16ZM96.1369 26.92H95.9769C96.0302 26.9733 96.0302 27.0533 95.9769 27.16C95.9235 27.2133 95.8969 27.2667 95.8969 27.32H95.8169C95.8169 27.3733 95.7635 27.4533 95.6569 27.56C95.6035 27.6133 95.6035 27.6933 95.6569 27.8C95.5502 27.8533 95.4169 27.9867 95.2569 28.2C95.1502 28.36 95.0702 28.4667 95.0169 28.52C95.3369 28.4667 95.5502 28.2267 95.6569 27.8C95.8702 27.6933 95.9502 27.5333 95.8969 27.32C96.0569 27.3733 96.1369 27.2933 96.1369 27.08C96.1369 27.0267 96.1369 26.9733 96.1369 26.92C96.2435 26.92 96.2969 26.84 96.2969 26.68L96.2169 26.76C96.1635 26.8133 96.1369 26.8667 96.1369 26.92ZM93.8969 30.52C94.6435 29.6133 94.9902 29 94.9369 28.68C94.8835 28.84 94.7235 29.1333 94.4569 29.56C94.1902 29.9333 94.0035 30.2533 93.8969 30.52ZM92.8569 32.2C92.6435 32.36 92.4569 32.5733 92.2969 32.84C92.1369 33.0533 91.9769 33.32 91.8169 33.64C91.6569 33.96 91.5235 34.2 91.4169 34.36C91.8969 33.9867 92.3769 33.2667 92.8569 32.2C93.0169 32.0933 93.3635 31.5867 93.8969 30.68C93.4169 30.9467 93.0702 31.4533 92.8569 32.2ZM92.2969 34.92C92.2969 34.8667 92.3235 34.7867 92.3769 34.68C92.4302 34.5733 92.4035 34.52 92.2969 34.52C92.0302 34.7867 92.0302 34.92 92.2969 34.92ZM88.9369 38.36C88.3502 38.84 88.0569 39.2667 88.0569 39.64C88.0035 39.48 87.9502 39.4533 87.8969 39.56C87.8435 39.6667 87.7902 39.72 87.7369 39.72C87.6835 39.9333 87.4702 40.3067 87.0969 40.84C86.7235 41.3733 86.5635 41.8 86.6169 42.12C88.0035 39.9333 88.7769 38.68 88.9369 38.36C89.7902 37.2933 90.5902 36.04 91.3369 34.6C90.5369 35.4 89.7369 36.6533 88.9369 38.36ZM86.1369 42.92C86.3502 42.4933 86.3769 42.2533 86.2169 42.2C86.2169 42.2533 86.1635 42.3333 86.0569 42.44C85.9502 42.6533 85.9769 42.8133 86.1369 42.92ZM86.7769 43.16H86.8569C87.0169 43 87.0169 42.92 86.8569 42.92C86.8035 42.9733 86.7769 43.0533 86.7769 43.16ZM84.8569 44.68C84.2702 45.16 83.7635 45.8533 83.3369 46.76C83.7102 46.7067 84.0035 46.4133 84.2169 45.88C84.4835 45.3467 84.7235 45.0533 84.9369 45C84.9902 44.9467 84.9902 44.8933 84.9369 44.84C84.8835 44.7867 84.8569 44.7333 84.8569 44.68C85.2302 44.2533 85.5769 43.7467 85.8969 43.16C85.4169 43.16 85.0702 43.6667 84.8569 44.68ZM85.0969 46.28C85.0969 46.2267 85.1235 46.1467 85.1769 46.04C85.2302 45.9333 85.2569 45.8533 85.2569 45.8C85.2569 45.7467 85.2035 45.6933 85.0969 45.64C85.0969 45.6933 85.0702 45.7733 85.0169 45.88C84.9635 45.9333 84.9369 46.0133 84.9369 46.12C84.9369 46.1733 84.9902 46.2267 85.0969 46.28ZM79.8969 52.2C79.3102 52.4133 79.0702 52.76 79.1769 53.24C79.6035 52.8133 79.8435 52.4667 79.8969 52.2C80.1635 52.0933 80.4035 51.8267 80.6169 51.4C80.8835 50.9733 81.1235 50.7067 81.3369 50.6C81.4435 49.96 81.8169 49.32 82.4569 48.68C82.4569 48.4133 82.6169 48.0933 82.9369 47.72C83.3102 47.3467 83.4169 47.08 83.2569 46.92C82.8302 47.5067 82.2702 48.36 81.5769 49.48C80.8835 50.5467 80.3235 51.3467 79.8969 51.88V52.2ZM83.7369 48.28C83.7369 48.1733 83.7902 48.04 83.8969 47.88C84.0569 47.72 84.0569 47.5867 83.8969 47.48C83.8969 47.5867 83.8435 47.6933 83.7369 47.8C83.6835 47.9067 83.6302 47.9867 83.5769 48.04C83.5769 48.0933 83.6302 48.1733 83.7369 48.28ZM81.0969 52.2C81.1502 52.0933 81.2569 51.96 81.4169 51.8C81.5769 51.5867 81.6835 51.4 81.7369 51.24C81.8435 51.0267 81.8702 50.84 81.8169 50.68C81.8169 50.84 81.6835 51.08 81.4169 51.4C81.1502 51.72 81.0435 51.9867 81.0969 52.2ZM76.0569 58.04H75.9769C75.4435 58.68 75.1235 59.24 75.0169 59.72C74.8035 59.72 74.6435 59.8533 74.5369 60.12C74.4302 60.3867 74.2969 60.52 74.1369 60.52C74.1369 60.7333 74.0035 61 73.7369 61.32C73.4702 61.6933 73.4169 61.96 73.5769 62.12L75.0169 59.72C75.0702 59.6133 75.2302 59.3733 75.4969 59C75.7635 58.6267 75.9502 58.3067 76.0569 58.04C77.6569 55.9067 78.6969 54.3333 79.1769 53.32C78.4302 53.4267 78.1635 53.8533 78.3769 54.6C78.2702 54.5467 78.1902 54.5733 78.1369 54.68C78.0835 54.7867 78.0302 54.7867 77.9769 54.68C77.8169 55.0533 77.4969 55.5867 77.0169 56.28C76.5369 56.9733 76.2169 57.56 76.0569 58.04ZM80.1369 53.64C80.2969 53.48 80.2969 53.3733 80.1369 53.32V53.64ZM78.6169 55.88C78.5102 55.8267 78.4569 55.88 78.4569 56.04L78.6169 55.88C78.6169 55.8267 78.6702 55.7467 78.7769 55.64C78.8835 55.5333 78.9635 55.4533 79.0169 55.4C79.0702 55.3467 79.0435 55.2667 78.9369 55.16C78.9369 55.2667 78.8569 55.3733 78.6969 55.48C78.5902 55.5867 78.5635 55.72 78.6169 55.88ZM78.1369 56.44C78.0302 56.5467 77.9769 56.6267 77.9769 56.68C78.0835 56.7333 78.1369 56.6533 78.1369 56.44ZM76.4569 59.08L76.2969 59.16C76.2435 59.16 76.2169 59.1867 76.2169 59.24L76.3769 59.16C76.4302 59.16 76.4569 59.1333 76.4569 59.08ZM73.1769 62.6C73.0169 62.5467 72.9369 62.6 72.9369 62.76C72.9902 62.8133 73.0435 62.8667 73.0969 62.92C73.0435 62.8133 73.0702 62.7067 73.1769 62.6C73.2302 62.5467 73.2835 62.4667 73.3369 62.36L73.4169 62.2C73.3102 62.1467 73.2302 62.1467 73.1769 62.2C73.1769 62.3067 73.1769 62.44 73.1769 62.6ZM92.0569 17.8C91.9502 17.8 91.8969 17.7733 91.8969 17.72C92.0035 17.72 92.0569 17.7467 92.0569 17.8ZM101.497 40.84C101.337 40.68 101.124 40.68 100.857 40.84C100.644 41 100.59 41.2133 100.697 41.48C98.0835 42.8133 96.4302 44.6533 95.7369 47C95.7902 47.2667 96.0569 47.3733 96.5369 47.32C97.0169 47.2133 97.3102 47.1867 97.4169 47.24C97.8435 46.9733 98.4035 46.5467 99.0969 45.96C99.8435 45.32 100.377 44.8933 100.697 44.68C102.724 42.28 103.177 40.1467 102.057 38.28C102.057 38.2267 101.977 38.1733 101.817 38.12C101.71 38.0667 101.63 38.0133 101.577 37.96C101.524 37.9067 101.55 37.8267 101.657 37.72C102.297 37.9867 102.804 38.44 103.177 39.08C103.55 39.6667 103.924 40.4933 104.297 41.56C104.67 42.6267 104.91 43.2933 105.017 43.56C105.124 44.6267 104.777 45.8 103.977 47.08L102.057 49L100.617 50.44C100.51 50.5467 100.324 50.6267 100.057 50.68C99.8435 50.68 99.6835 50.7067 99.5769 50.76C98.3502 51.24 97.5502 51.4533 97.1769 51.4C97.1235 51.4 96.8835 51.3467 96.4569 51.24C96.0302 51.1333 95.8169 51.16 95.8169 51.32C95.4435 51.0533 95.0702 50.92 94.6969 50.92C93.0969 48.6267 92.9635 45.9067 94.2969 42.76C94.4035 42.8133 94.4569 42.7867 94.4569 42.68C94.5102 42.5733 94.5902 42.5467 94.6969 42.6C94.7502 42.12 94.9902 41.6133 95.4169 41.08C95.8969 40.4933 96.1902 40.0667 96.2969 39.8C96.5102 39.6933 97.0702 39.32 97.9769 38.68C98.8835 38.04 99.7102 37.6933 100.457 37.64C101.364 38.6533 101.844 39.56 101.897 40.36C101.79 40.36 101.71 40.44 101.657 40.6C101.604 40.76 101.55 40.84 101.497 40.84Z" fill="#C58A46"/>
</svg>
