<svg width="98" height="71" viewBox="0 0 98 71" fill="none" xmlns="http://www.w3.org/2000/svg">
<path d="M13.88 57.16C13.88 56.84 13.9867 56.28 14.2 55.48C14.4667 54.68 14.6 54.12 14.6 53.8C14.6533 53.8 14.7333 53.8267 14.84 53.88C14.9467 53.9333 15.0533 53.9333 15.16 53.88C15.2133 53.6667 15.0533 53.5067 14.68 53.4C15 51.8 15.32 50.7067 15.64 50.12C15.8 50.28 15.8533 50.44 15.8 50.6C15.7467 50.7067 15.64 50.8667 15.48 51.08C15.3733 51.2933 15.32 51.4533 15.32 51.56C15.48 51.72 15.6133 51.7733 15.72 51.72C15.7733 51.6133 15.7467 51.56 15.64 51.56C15.5333 51.5067 15.5067 51.4267 15.56 51.32C15.8267 50.84 16.0667 50.28 16.28 49.64C16.4933 48.9467 16.7067 48.1733 16.92 47.32C17.1333 46.4667 17.2933 45.8533 17.4 45.48C17.1333 45.8 16.84 46.5733 16.52 47.8C16.2 48.9733 15.88 49.6933 15.56 49.96C16.68 45.16 17.72 41.5333 18.68 39.08C18.5733 38.3867 18.7067 37.8267 19.08 37.4C21 30.52 22.44 25.88 23.4 23.48C22.9733 23.8533 22.4933 24.4667 21.96 25.32C21.4267 26.1733 20.9733 26.76 20.6 27.08C20.4933 27.6667 20.0933 28.3333 19.4 29.08C18.7067 29.7733 18.3067 30.44 18.2 31.08H17.96C17.9067 31.4533 17.64 31.8533 17.16 32.28C16.68 32.7067 16.3867 33.1333 16.28 33.56C15.9067 33.9333 15.2667 34.6533 14.36 35.72C13.4533 36.7867 12.7333 37.5867 12.2 38.12C11.6667 38.6533 10.92 39.24 9.96 39.88C9 40.52 8.01333 41 7 41.32C6.09333 41.48 4.92 41.2933 3.48 40.76C2.46667 39.6933 1.72 38.3333 1.24 36.68C0.813334 35.0267 0.786667 33.4267 1.16 31.88C1.16 31.8267 1.13333 31.7467 1.08 31.64C1.02667 31.5333 1.02667 31.4267 1.08 31.32C1.18667 31.0533 1.32 30.4933 1.48 29.64C1.64 28.7333 1.85333 28.1467 2.12 27.88C2.28 26.3333 2.92 24.76 4.04 23.16C4.04 23.1067 4.01333 23.0533 3.96 23C3.90667 22.9467 3.90667 22.8667 3.96 22.76C4.06667 22.8133 4.17333 22.7867 4.28 22.68C4.28 22.36 4.46667 21.96 4.84 21.48C5.26667 20.9467 5.48 20.4667 5.48 20.04C5.8 19.6667 6.52 18.7333 7.64 17.24C8.81333 15.6933 9.82667 14.5467 10.68 13.8C11.5867 13 12.6267 12.36 13.8 11.88C14.5467 11.9333 15.3467 12.3067 16.2 13C17.1067 13.6933 17.72 14.12 18.04 14.28C18.1467 14.4933 18.28 14.8133 18.44 15.24C18.6533 15.6667 18.8133 15.9867 18.92 16.2C19.0267 16.1467 19.1867 16.1733 19.4 16.28C19.4533 16.4933 19.4533 16.6267 19.4 16.68C19.4 16.68 19.3467 16.7333 19.24 16.84C19.1867 16.9467 19.16 17.08 19.16 17.24C18.5733 17.1867 17.9333 16.92 17.24 16.44C16.5467 15.9067 15.96 15.5867 15.48 15.48C15.2667 15.5333 15.0533 15.64 14.84 15.8C14.7867 15.8 14.76 15.8 14.76 15.8L14.6 15.72C12.4133 17.0533 10.7067 18.7333 9.48 20.76C8.89333 21.1333 8.6 21.56 8.6 22.04C6.25333 25.08 4.49333 28.8933 3.32 33.48C3.32 36.1467 3.37333 37.6667 3.48 38.04C3.64 38.2533 3.8 38.3867 3.96 38.44C4.17333 38.44 4.41333 38.4133 4.68 38.36C5 38.3067 5.26667 38.28 5.48 38.28C6.44 37.9067 7.4 37.3467 8.36 36.6C9.32 35.8 10.0133 35.1867 10.44 34.76C10.8667 34.28 11.6133 33.3733 12.68 32.04C13.7467 30.7067 14.36 29.9333 14.52 29.72C14.5733 29.72 14.6267 29.6667 14.68 29.56C14.7867 29.4533 14.8667 29.3733 14.92 29.32C14.9733 29.2667 15.0533 29.2667 15.16 29.32C15.3733 28.68 15.8267 27.9333 16.52 27.08C17.2667 26.2267 17.7467 25.5333 17.96 25C18.12 25 18.3333 24.7333 18.6 24.2C18.8667 23.6667 19.2133 23.3467 19.64 23.24C19.64 23.1867 19.6133 23.1333 19.56 23.08C19.5067 22.9733 19.5067 22.8667 19.56 22.76C19.6133 22.8667 19.6667 22.8933 19.72 22.84C19.8267 22.7333 19.9333 22.68 20.04 22.68C20.0933 22.2 20.44 21.5867 21.08 20.84C21.7733 20.04 22.1733 19.3467 22.28 18.76C22.5467 18.8667 22.7333 18.8933 22.84 18.84C22.84 18.68 22.7333 18.6267 22.52 18.68C22.8933 17.9333 23.5333 17 24.44 15.88C25.4 14.7067 26.0133 13.9333 26.28 13.56C26.28 13.5067 26.2533 13.4533 26.2 13.4C26.2 13.3467 26.2 13.2667 26.2 13.16C26.52 12.8933 26.8933 12.4667 27.32 11.88C27.8 11.24 28.12 10.8133 28.28 10.6C28.3867 10.6533 28.5467 10.7067 28.76 10.76C28.9733 10.8133 29.1333 10.8667 29.24 10.92C29.3467 10.92 29.4267 11 29.48 11.16C29.5867 11.32 29.6133 11.5067 29.56 11.72C29.72 11.6667 30.1733 11.7733 30.92 12.04C30.92 12.36 30.9733 12.52 31.08 12.52C27.9333 19.7733 24.36 29.64 20.36 42.12C20.36 42.28 20.4133 42.36 20.52 42.36C20.4133 42.4667 20.3067 42.68 20.2 43C20.0933 43.2667 20.0133 43.4533 19.96 43.56C19.96 43.6667 20.0667 43.72 20.28 43.72C19.9067 44.2533 19.5067 45.4267 19.08 47.24C19.1333 47.24 19.16 47.2133 19.16 47.16C19.2133 47.0533 19.2933 47.0267 19.4 47.08C19.1333 47.4 18.8667 47.9333 18.6 48.68C18.3867 49.4267 18.2267 49.9067 18.12 50.12C18.28 50.28 18.3867 50.2533 18.44 50.04C18.44 50.1467 18.3333 50.3333 18.12 50.6C17.96 50.8133 17.9067 51.0267 17.96 51.24C17.96 51.2933 17.9867 51.2933 18.04 51.24C18.0933 51.1867 18.12 51.1333 18.12 51.08C18.2267 51.1333 18.1467 51.2933 17.88 51.56C17.8267 51.72 17.9067 51.8 18.12 51.8C17.96 52.3333 17.7733 52.7333 17.56 53C17.6133 53 17.6667 53.0533 17.72 53.16C17.72 53.48 17.6133 53.6667 17.4 53.72C17.4 53.7733 17.4267 53.8533 17.48 53.96C17.5333 54.0667 17.5333 54.1733 17.48 54.28C17.16 54.8133 16.92 55.3733 16.76 55.96C16.6 56.4933 16.44 57.16 16.28 57.96C16.1733 58.76 16.0667 59.4 15.96 59.88C16.0667 59.88 16.12 59.7467 16.12 59.48C16.12 59.32 16.1467 59.2133 16.2 59.16C16.2533 59.4267 16.12 59.8267 15.8 60.36C15.5333 60.8933 15.4267 61.3733 15.48 61.8C15.48 61.8533 15.56 61.88 15.72 61.88C15.7733 61.9867 15.7467 62.0667 15.64 62.12C15.5333 62.1733 15.4267 62.1733 15.32 62.12C15.5867 62.5467 15.6667 62.8133 15.56 62.92C15.4 62.8667 15.32 62.7333 15.32 62.52C15.16 63.32 15.08 63.7467 15.08 63.8C15.1867 63.8533 15.24 63.8 15.24 63.64L15.32 63.48C15.32 63.8 15.2667 64.3067 15.16 65C15.0533 65.7467 15 66.2533 15 66.52C15 66.84 15.08 67.3467 15.24 68.04C14.1733 68.4133 13.4 67.96 12.92 66.68C12.4933 65.4 12.4667 64.3067 12.84 63.4C12.84 63.3467 12.7867 63.32 12.68 63.32L12.6 63.24C12.6 63.08 12.6267 62.8667 12.68 62.6C12.7867 62.3333 12.84 62.1467 12.84 62.04C12.8933 61.9333 12.84 61.8 12.68 61.64C12.84 61.64 12.9467 61.64 13 61.64C13.1067 61.6933 13.1333 61.8 13.08 61.96C13.4 61.9067 13.4267 61.7467 13.16 61.48C13.0533 61.4267 12.9467 61.4267 12.84 61.48C13.2667 61.2667 13.24 61.16 12.76 61.16C13.1333 59.9333 13.4267 59.1067 13.64 58.68C13.6933 58.9467 13.6933 59.16 13.64 59.32C13.64 59.48 13.5867 59.7467 13.48 60.12C13.3733 60.5467 13.2933 60.8667 13.24 61.08C13.4533 60.8667 13.6133 60.5733 13.72 60.2C13.8267 59.8267 13.9067 59.3733 13.96 58.84C14.0667 58.3067 14.1467 57.9067 14.2 57.64C14.04 57.5867 13.9333 57.6133 13.88 57.72C13.8267 57.8267 13.8 57.96 13.8 58.12C13.7467 58.12 13.6933 58.0933 13.64 58.04C13.64 57.9333 13.6133 57.9067 13.56 57.96C13.56 57.8 13.5867 57.6933 13.64 57.64C13.7467 57.5867 13.8533 57.5333 13.96 57.48C14.12 57.4267 14.2267 57.3733 14.28 57.32C14.28 57.16 14.3333 56.92 14.44 56.6C14.6 56.2267 14.68 55.9333 14.68 55.72C14.5733 55.8267 14.44 56.0667 14.28 56.44C14.1733 56.8133 14.04 57.0533 13.88 57.16ZM27.08 13C27.2933 13 27.4267 12.9467 27.48 12.84C27.2667 12.84 27.1333 12.8933 27.08 13ZM26.36 13.32C26.6267 13.16 26.76 13.0533 26.76 13C26.6 13 26.4667 13.1067 26.36 13.32ZM20.44 25.48C20.6 25.4267 20.7333 25.24 20.84 24.92C21.1067 24.92 21.24 24.7867 21.24 24.52C21.2933 24.2533 21.4 24.12 21.56 24.12C21.56 24.0667 21.5333 23.9867 21.48 23.88C21.4267 23.7733 21.4267 23.6667 21.48 23.56C21.5333 23.56 21.5867 23.5333 21.64 23.48C21.6933 23.3733 21.7733 23.3467 21.88 23.4C21.88 23.56 21.9067 23.64 21.96 23.64C21.96 23.4267 22.0933 23.1867 22.36 22.92C22.6267 22.6533 22.6533 22.4133 22.44 22.2C22.6 22.2 23 21.88 23.64 21.24C23.48 21.2933 23.4 21.2133 23.4 21C23.5067 21.0533 23.6133 21.0267 23.72 20.92C23.8267 20.76 23.8267 20.6267 23.72 20.52C23.88 20.52 23.96 20.4667 23.96 20.36C24.0133 20.2 24.1467 20.1467 24.36 20.2C24.4133 20.0933 24.3867 20.04 24.28 20.04C24.1733 19.9867 24.12 19.9333 24.12 19.88C24.2267 19.88 24.3333 19.8533 24.44 19.8C24.6 19.7467 24.7333 19.72 24.84 19.72C24.7867 19.56 24.8133 19.3733 24.92 19.16C25.0267 18.9467 25.0267 18.8133 24.92 18.76C24.9733 18.7067 25.1067 18.68 25.32 18.68C25.3733 18.5733 25.3733 18.4667 25.32 18.36C25.2667 18.2533 25.24 18.1733 25.24 18.12C25.4533 18.12 25.5333 18.0133 25.48 17.8C25.48 17.7467 25.4533 17.6933 25.4 17.64C25.56 17.5333 25.6933 17.3733 25.8 17.16C25.96 16.9467 25.96 16.7867 25.8 16.68C26.28 16.52 26.52 16.0667 26.52 15.32C25.6133 16.7067 25.1333 17.5067 25.08 17.72C24.76 17.88 24.28 18.5467 23.64 19.72C23.6933 19.72 23.7733 19.6933 23.88 19.64C24.04 19.5867 24.12 19.6133 24.12 19.72L23.8 20.36C23.7467 20.36 23.72 20.2533 23.72 20.04C23.6133 19.9867 23.5067 19.9867 23.4 20.04C23.2933 20.0933 23.2133 20.12 23.16 20.12C23.2133 20.28 23.2133 20.44 23.16 20.6C23.1067 20.7067 23.1333 20.7867 23.24 20.84C23.1333 20.84 23 20.92 22.84 21.08C22.7333 21.24 22.6 21.2933 22.44 21.24C22.44 21.5067 22.36 21.8 22.2 22.12C22.04 22.44 21.9333 22.6533 21.88 22.76C21.72 22.6533 21.5867 22.7333 21.48 23C21.48 23.1067 21.5067 23.1867 21.56 23.24C21.56 23.2933 21.3733 23.5067 21 23.88C20.6267 24.2533 20.4933 24.5733 20.6 24.84C20.4933 24.7867 20.3867 24.8133 20.28 24.92C20.2267 25.08 20.2267 25.2133 20.28 25.32C20.3867 25.3733 20.44 25.4267 20.44 25.48ZM24.76 16.76C24.8667 16.8133 24.9467 16.76 25 16.6C25.0533 16.44 25.0267 16.3333 24.92 16.28C24.92 16.3333 24.8667 16.4133 24.76 16.52C24.7067 16.5733 24.7067 16.6533 24.76 16.76ZM24.6 17.16C24.6 17.0533 24.6267 17 24.68 17C24.68 16.8933 24.6 16.84 24.44 16.84L24.52 17C24.52 17.0533 24.5467 17.1067 24.6 17.16ZM24.36 17.32L24.12 17.4C24.0667 17.5067 24.0933 17.56 24.2 17.56C24.3067 17.5067 24.36 17.4267 24.36 17.32ZM23.8 17.88C23.8 17.72 23.7467 17.64 23.64 17.64C23.5867 17.8 23.64 17.88 23.8 17.88ZM23.64 18.6C23.64 18.5467 23.6133 18.4933 23.56 18.44C23.4533 18.12 23.3733 18.04 23.32 18.2C23.3733 18.2 23.4 18.2533 23.4 18.36C23.4 18.52 23.4267 18.6267 23.48 18.68C23.5333 18.68 23.5867 18.6533 23.64 18.6ZM23.32 23.24C23.4267 23.2933 23.5333 23.2667 23.64 23.16C23.7467 23 23.6933 22.92 23.48 22.92C23.48 23.0267 23.4267 23.1333 23.32 23.24ZM20.04 23.4C20.1467 23.4533 20.2267 23.4267 20.28 23.32C20.3867 23.2133 20.3867 23.1333 20.28 23.08C20.28 23.1333 20.2267 23.1867 20.12 23.24C20.0133 23.24 19.9867 23.2933 20.04 23.4ZM20.52 23.4V23.08V23.4ZM19.48 24.6C19.5867 24.6 19.7467 24.44 19.96 24.12C19.8533 24.12 19.7733 24.1467 19.72 24.2C19.6667 24.2533 19.6133 24.3333 19.56 24.44C19.56 24.4933 19.5333 24.5467 19.48 24.6ZM18.12 28.2H18.04L17.88 28.44C17.7733 28.5467 17.72 28.6533 17.72 28.76C17.24 29.1333 16.9733 29.48 16.92 29.8C16.6533 29.9067 16.4133 30.2 16.2 30.68C16.6267 30.4667 16.8667 30.1733 16.92 29.8C17.08 29.7467 17.1333 29.8 17.08 29.96C16.9733 30.1733 16.9733 30.28 17.08 30.28C17.1867 30.2267 17.24 30.12 17.24 29.96C17.2933 29.7467 17.4 29.6667 17.56 29.72C17.5067 29.6667 17.56 29.3467 17.72 28.76C17.88 28.6533 18.0133 28.4667 18.12 28.2C18.2267 28.1467 18.3067 28.0933 18.36 28.04C18.4133 27.9333 18.4667 27.88 18.52 27.88C18.5733 28.04 18.76 28.0667 19.08 27.96C18.92 27.6933 19 27.4533 19.32 27.24C19.64 26.9733 19.72 26.7333 19.56 26.52C19.56 26.7333 19.48 26.84 19.32 26.84C19.32 26.6267 19.3733 26.4933 19.48 26.44H19.96C19.9067 26.2267 20.0133 26.0933 20.28 26.04C20.6 25.9333 20.7867 25.8 20.84 25.64C20.68 25.5867 20.4933 25.64 20.28 25.8C20.12 25.9067 20.0133 25.9333 19.96 25.88C19.96 25.8267 19.96 25.7467 19.96 25.64C20.0133 25.5333 20.0667 25.4533 20.12 25.4C19.5333 25.8267 18.8667 26.76 18.12 28.2ZM18.44 26.12H18.6V25.96C18.4933 25.96 18.44 26.0133 18.44 26.12ZM18.2 26.52C18.2 26.4667 18.1733 26.44 18.12 26.44C18.0667 26.44 18.04 26.4667 18.04 26.52H18.2ZM17.48 27.32H17.64V27.08H17.48V27.32ZM22.76 27.24V27.32V27.24ZM17 28.28L17.24 27.8H17C16.68 28.12 16.68 28.28 17 28.28ZM22.68 28.04C22.68 27.9867 22.7067 27.96 22.76 27.96C22.76 27.7467 22.68 27.6933 22.52 27.8L22.6 27.96C22.6 28.0133 22.6267 28.04 22.68 28.04ZM18.2 28.36V28.52H18.44C18.44 28.4667 18.4667 28.44 18.52 28.44V28.28H18.36C18.3067 28.3333 18.2533 28.36 18.2 28.36ZM16.52 28.52C16.5733 28.52 16.6533 28.5733 16.76 28.68C16.76 28.5733 16.76 28.4933 16.76 28.44C16.6533 28.44 16.5733 28.4667 16.52 28.52ZM22.44 28.68C22.3333 28.68 22.28 28.7067 22.28 28.76C22.3867 28.76 22.44 28.7333 22.44 28.68ZM16.12 29.16C16.44 29.0533 16.5733 28.92 16.52 28.76C16.2533 28.76 16.12 28.8933 16.12 29.16ZM17.96 29.24C17.96 29.1867 18.0133 29.1333 18.12 29.08C18.2267 29.0267 18.2533 28.92 18.2 28.76C17.9867 28.7067 17.88 28.8133 17.88 29.08C17.88 29.1867 17.9067 29.24 17.96 29.24ZM22.04 29.48C21.7733 29.64 21.7467 29.88 21.96 30.2C21.96 30.0933 21.9867 29.96 22.04 29.8C22.1467 29.64 22.1467 29.5333 22.04 29.48C22.1467 29.4267 22.2 29.32 22.2 29.16C22.0933 29.2667 22.04 29.3733 22.04 29.48ZM16.76 30.44C16.76 30.5467 16.8133 30.6267 16.92 30.68C17.08 30.68 17.1867 30.6 17.24 30.44H16.76ZM21.56 31.16H21.48C21.48 31.2667 21.4533 31.3467 21.4 31.4C21.3467 31.4533 21.3467 31.5333 21.4 31.64C21.5067 31.6933 21.56 31.6667 21.56 31.56C21.6133 31.4533 21.6133 31.3733 21.56 31.32V31.16C21.9867 30.84 22.04 30.5733 21.72 30.36C21.72 30.5733 21.6667 30.84 21.56 31.16ZM15.08 31.4C15.0267 31.6133 15.0533 31.7733 15.16 31.88C14.8933 31.88 14.7067 31.9867 14.6 32.2C14.8667 32.36 15.0533 32.4133 15.16 32.36C15.16 32.2533 15.2133 32.2 15.32 32.2C15.3733 32.0933 15.3733 32.0133 15.32 31.96C15.2667 31.8533 15.24 31.7733 15.24 31.72C15.5067 31.6667 15.72 31.5333 15.88 31.32C16.0933 31.0533 16.1467 30.8133 16.04 30.6C15.6133 31.1333 15.2933 31.4 15.08 31.4ZM16.12 31.56C16.3333 31.5067 16.4933 31.2933 16.6 30.92C16.3867 30.9733 16.2267 31.1867 16.12 31.56ZM16.2 31.88H16.44V31.72H16.2V31.88ZM21.32 32.36L21.4 31.88L21.32 31.8C21.32 31.8533 21.2933 31.9067 21.24 31.96C21.1333 32.1733 21.16 32.3067 21.32 32.36ZM13.4 33.64C13.6667 33.6933 13.88 33.6133 14.04 33.4C14.2 33.1867 14.3867 33.08 14.6 33.08C14.5467 32.9733 14.5733 32.84 14.68 32.68C14.84 32.52 14.8133 32.4133 14.6 32.36C14.4933 32.5733 14.28 32.8133 13.96 33.08C13.6933 33.2933 13.5067 33.48 13.4 33.64ZM15.32 32.76C15.5333 32.5467 15.5333 32.4133 15.32 32.36V32.76ZM20.92 33C21.0267 33 21.1067 32.9467 21.16 32.84C21.2133 32.68 21.2667 32.6 21.32 32.6C21.0533 32.6 20.92 32.7333 20.92 33ZM20.76 33.64C20.8667 33.6933 20.9467 33.64 21 33.48C21.0533 33.32 21.0267 33.2133 20.92 33.16C20.8133 33.4267 20.76 33.5867 20.76 33.64ZM15.24 33.32L15.08 33.48L15.24 33.32ZM11.4 34.76C11.4 34.8667 11.3467 34.9467 11.24 35C11.08 35.16 11.0533 35.32 11.16 35.48C10.4667 35.7467 9.85333 36.2533 9.32 37C9.42667 37 9.56 36.9733 9.72 36.92C9.88 36.8133 10.04 36.7867 10.2 36.84C10.1467 37 10.1467 37.08 10.2 37.08C10.3067 37.08 10.4933 37.08 10.76 37.08C10.4933 36.8667 10.5467 36.6 10.92 36.28C11.3467 35.9067 11.7733 35.6933 12.2 35.64C12.2 35.5333 12.2267 35.48 12.28 35.48C12.28 35.3733 12.2267 35.32 12.12 35.32C12.0667 35.2667 12.0667 35.1867 12.12 35.08C12.1733 35.08 12.28 35.08 12.44 35.08C12.6 35.08 12.68 35.1067 12.68 35.16C12.52 35.48 12.52 35.6667 12.68 35.72C12.6267 35.56 12.6533 35.4267 12.76 35.32C12.8667 35.2133 12.92 35.1067 12.92 35L12.68 34.76C12.84 34.76 13 34.6267 13.16 34.36C13.32 34.0933 13.5067 33.9867 13.72 34.04C13.56 33.8267 13.24 33.96 12.76 34.44C12.28 34.92 11.8267 35.0267 11.4 34.76ZM20.36 35.4C20.36 35.2933 20.4133 35.08 20.52 34.76C20.68 34.44 20.7067 34.2 20.6 34.04C20.3867 34.8933 20.3067 35.3467 20.36 35.4ZM13.72 34.68H13.88V34.52H13.72V34.68ZM19.88 36.2C20.04 36.2 20.1467 36.0667 20.2 35.8C20.2533 35.64 20.2 35.56 20.04 35.56C19.9333 35.88 19.88 36.0933 19.88 36.2ZM19.8 37.08C19.8 37.0267 19.8267 36.9467 19.88 36.84C19.9333 36.7333 19.96 36.6533 19.96 36.6C19.96 36.4933 19.9333 36.4133 19.88 36.36C19.6667 36.7867 19.64 37.0267 19.8 37.08ZM11.16 36.84C11.32 36.8933 11.4 36.8133 11.4 36.6C11.4533 36.5467 11.4267 36.4933 11.32 36.44C11.2133 36.6533 11.16 36.7867 11.16 36.84ZM10.84 36.84V37C10.9467 37.0533 11 37.0267 11 36.92C11.0533 36.76 11.0267 36.68 10.92 36.68C10.92 36.7867 10.8933 36.84 10.84 36.84ZM19.56 37.88L19.8 37.4C19.5867 37.3467 19.48 37.4533 19.48 37.72C19.48 37.8267 19.5067 37.88 19.56 37.88ZM19.08 39.08C19.24 39.0267 19.3467 38.8667 19.4 38.6C19.5067 38.28 19.48 38.0933 19.32 38.04C19.32 38.0933 19.2667 38.2267 19.16 38.44C19.1067 38.6533 19.08 38.8667 19.08 39.08ZM19 39.8C19.2133 39.5867 19.2133 39.4 19 39.24C18.9467 39.3467 18.9467 39.5333 19 39.8ZM18.12 41.72C18.3867 41.6667 18.6 41.4 18.76 40.92C18.92 40.44 18.9467 40.12 18.84 39.96C18.7333 40.1733 18.6 40.4933 18.44 40.92C18.3333 41.2933 18.2267 41.56 18.12 41.72ZM17.88 42.36C17.9333 42.4667 17.9067 42.6533 17.8 42.92C17.6933 43.1867 17.7467 43.32 17.96 43.32C18.0133 43.2133 18.0667 43.0267 18.12 42.76C18.2267 42.44 18.3067 42.2267 18.36 42.12C18.2 42.0667 18.12 42.0933 18.12 42.2C18.0667 42.3067 17.9867 42.36 17.88 42.36ZM19.64 43.56C19.5333 43.56 19.48 43.5867 19.48 43.64C19.5867 43.64 19.64 43.6133 19.64 43.56ZM17.64 44.28C17.64 44.2267 17.6667 44.1467 17.72 44.04C17.88 43.7733 17.8533 43.64 17.64 43.64C17.64 43.6933 17.6133 43.8267 17.56 44.04C17.5067 44.2 17.5333 44.28 17.64 44.28ZM15.48 52.52L15.56 52.04C15.5067 51.9867 15.4267 51.96 15.32 51.96C15.32 52.28 15.3733 52.4667 15.48 52.52ZM15.32 53.16V52.76C15.2133 52.7067 15.1333 52.76 15.08 52.92C15.1333 53.0267 15.2133 53.1067 15.32 53.16ZM14.76 54.92C14.8667 54.92 14.9733 54.7067 15.08 54.28H14.76C14.8133 54.4933 14.8133 54.7067 14.76 54.92ZM14.52 55.16C14.52 55.3733 14.5733 55.5067 14.68 55.56C14.68 55.5067 14.7067 55.4267 14.76 55.32C14.8667 55.2667 14.8933 55.1867 14.84 55.08C14.7867 55.0267 14.7333 55.0267 14.68 55.08C14.6267 55.1333 14.5733 55.16 14.52 55.16ZM24.84 18.28C24.9467 18.2267 25 18.28 25 18.44C25.0533 18.4933 25.08 18.5467 25.08 18.6C24.9733 18.4933 24.8933 18.44 24.84 18.44V18.28ZM24.2 19.32C24.2 19.2667 24.2267 19.24 24.28 19.24C24.3333 19.24 24.36 19.2667 24.36 19.32H24.2ZM20.84 24.92V24.84V24.92ZM19.56 26.12C19.56 26.0667 19.5867 26.04 19.64 26.04C19.7467 26.04 19.8 26.0667 19.8 26.12H19.56ZM11.96 35.08C12.0133 35.24 11.9867 35.3467 11.88 35.4C11.7733 35.4 11.6933 35.3467 11.64 35.24C11.64 35.1333 11.7467 35.08 11.96 35.08ZM18.68 48.84C18.7333 48.84 18.7867 48.8667 18.84 48.92C18.7333 48.9733 18.6533 49.0267 18.6 49.08V48.92L18.68 48.84ZM13.88 57.16C14.04 57.2133 14.0667 57.2933 13.96 57.4C13.8533 57.5067 13.7467 57.5333 13.64 57.48C13.6933 57.2667 13.7733 57.16 13.88 57.16ZM14.04 58.28C13.9867 58.44 13.8533 58.52 13.64 58.52C13.5867 58.36 13.64 58.28 13.8 58.28C13.9067 58.28 13.9867 58.28 14.04 58.28ZM12.6 66.28C12.76 66.28 12.84 66.3867 12.84 66.6C12.6267 66.6 12.5467 66.4933 12.6 66.28ZM41.8494 47.08C42.0094 46.9733 42.1427 46.5467 42.2494 45.8L42.0894 45.72C42.036 45.72 42.0094 45.6933 42.0094 45.64C42.0094 45.64 42.0094 45.5867 42.0094 45.48C41.956 45.3733 41.9027 45.4267 41.8494 45.64C41.796 45.8 41.7694 45.88 41.7694 45.88C41.6094 45.8267 41.6094 45.56 41.7694 45.08C41.876 45.08 42.0627 45.1867 42.3294 45.4C42.5427 45.08 42.3827 44.84 41.8494 44.68C42.5427 41.5333 43.796 36.8133 45.6094 30.52C47.476 24.2267 48.7827 19.4267 49.5294 16.12C48.8894 16.76 48.116 17.88 47.2094 19.48C46.3027 21.0267 45.5827 22.12 45.0494 22.76C44.9427 22.76 44.676 22.8133 44.2494 22.92C43.8227 22.9733 43.4227 23 43.0494 23C42.676 22.9467 42.3827 22.7867 42.1694 22.52C42.1694 22.3067 42.0094 22.04 41.6894 21.72C41.4227 21.4 41.316 21.0533 41.3694 20.68C41.636 20.52 41.8227 20.4667 41.9294 20.52C42.4627 19.9333 43.156 19.08 44.0094 17.96C44.916 16.7867 45.7427 15.7467 46.4894 14.84C47.2894 13.9333 48.116 13.16 48.9694 12.52C49.3427 12.52 49.556 12.4933 49.6094 12.44C51.156 13.08 51.8227 14.28 51.6094 16.04C51.876 16.1467 52.0627 16.4933 52.1694 17.08C52.276 17.6133 52.3294 17.9067 52.3294 17.96C52.1694 18.3333 52.0627 18.5467 52.0094 18.6C52.116 18.6533 52.1694 18.8133 52.1694 19.08C52.2227 19.3467 52.3027 19.5067 52.4094 19.56C52.3027 19.9867 52.0627 20.84 51.6894 22.12C51.3694 23.3467 51.156 24.36 51.0494 25.16C50.6227 26.0667 50.1427 27.5067 49.6094 29.48C49.1294 31.4 48.756 32.7067 48.4894 33.4C48.5427 33.56 48.5427 33.7733 48.4894 34.04C48.436 34.3067 48.4094 34.4933 48.4094 34.6C47.9827 35.3467 47.6627 36.4667 47.4494 37.96C46.4894 40.7867 45.956 42.7067 45.8494 43.72C45.5827 44.1467 45.316 45 45.0494 46.28C44.836 47.5067 44.676 48.2267 44.5694 48.44C44.5694 48.5467 44.516 48.6267 44.4094 48.68C44.3027 48.7333 44.2494 48.7867 44.2494 48.84C44.4627 49.2133 44.356 49.6667 43.9294 50.2C43.9294 50.9467 43.716 52.2267 43.2894 54.04C42.916 55.8 42.7027 57.16 42.6494 58.12L42.2494 58.52C42.2494 59.5867 42.116 60.92 41.8494 62.52C41.5827 64.12 41.4227 65.32 41.3694 66.12C41.316 66.92 41.476 68.0667 41.8494 69.56C41.8494 69.88 41.7427 70.0933 41.5294 70.2C41.3694 70.3067 41.156 70.3333 40.8894 70.28C40.676 70.2267 40.4627 70.2267 40.2494 70.28C40.1427 70.12 40.0094 69.88 39.8494 69.56C39.6894 69.24 39.5294 68.9733 39.3694 68.76C39.2094 68.5467 39.0227 68.44 38.8094 68.44C37.8494 65.1333 37.9027 61.9067 38.9694 58.76C39.076 58.44 39.1294 57.9067 39.1294 57.16C39.1827 56.4133 39.2627 55.88 39.3694 55.56C39.5294 54.9733 39.7427 53.96 40.0094 52.52C40.3294 51.08 40.596 50.0133 40.8094 49.32C40.8627 49.2667 40.9694 49.1867 41.1294 49.08C41.2894 48.92 41.4227 48.8133 41.5294 48.76C41.5827 48.6533 41.556 48.6 41.4494 48.6C41.3427 48.5467 41.2894 48.4933 41.2894 48.44C41.6627 48.1733 41.8494 47.72 41.8494 47.08ZM47.4494 25.8C47.4494 25.6933 47.5027 25.5867 47.6094 25.48C47.716 25.3733 47.6894 25.2933 47.5294 25.24C47.5294 25.2933 47.476 25.4 47.3694 25.56C47.2627 25.6667 47.2894 25.7467 47.4494 25.8ZM47.1294 27.32C47.396 26.7867 47.4227 26.4667 47.2094 26.36C46.996 26.9467 46.9694 27.2667 47.1294 27.32ZM46.6494 27.8C46.8094 27.8533 46.9427 27.8 47.0494 27.64C47.1027 27.5333 47.076 27.4533 46.9694 27.4C46.916 27.5067 46.836 27.5867 46.7294 27.64C46.676 27.6933 46.6494 27.7467 46.6494 27.8ZM48.0094 28.12C48.116 28.0133 48.1427 27.9067 48.0894 27.8C48.0894 27.6933 48.036 27.64 47.9294 27.64C47.9294 27.96 47.956 28.12 48.0094 28.12ZM46.4894 29.32C46.3827 29.32 46.3027 29.3467 46.2494 29.4L46.3294 29.8C46.3294 29.7467 46.356 29.6933 46.4094 29.64C46.516 29.5333 46.5427 29.4267 46.4894 29.32C46.596 29.4267 46.676 29.3733 46.7294 29.16C46.836 28.9467 46.7827 28.84 46.5694 28.84C46.516 28.84 46.4894 29 46.4894 29.32ZM47.2094 30.68L47.2894 30.36L47.2094 30.28V30.68ZM46.8094 32.04H46.7294C46.7827 32.0933 46.756 32.12 46.6494 32.12V32.36C46.756 32.36 46.8094 32.2533 46.8094 32.04C46.8627 31.9867 46.9427 31.88 47.0494 31.72C46.996 31.72 46.916 31.8267 46.8094 32.04ZM46.6494 32.92C46.6494 32.8133 46.676 32.7867 46.7294 32.84C46.7294 32.68 46.676 32.6 46.5694 32.6C46.5694 32.8133 46.596 32.92 46.6494 32.92ZM46.3294 33.88C46.3294 33.8267 46.356 33.7467 46.4094 33.64C46.5694 33.3733 46.5427 33.2133 46.3294 33.16C46.3827 33.2667 46.356 33.4267 46.2494 33.64C46.196 33.8 46.2227 33.88 46.3294 33.88ZM46.0094 35.56C45.956 35.4 46.0094 35.1333 46.1694 34.76C46.3294 34.3867 46.3027 34.1733 46.0894 34.12C46.1427 34.3333 46.0894 34.6267 45.9294 35C45.7694 35.32 45.796 35.5067 46.0094 35.56ZM45.0494 38.84C45.0494 38.68 45.156 38.2267 45.3694 37.48C45.636 36.68 45.716 36.1467 45.6094 35.88C45.6094 35.9333 45.476 36.3867 45.2094 37.24C44.996 38.04 44.9427 38.5733 45.0494 38.84ZM41.9294 50.36C41.076 53.56 40.5427 56.3067 40.3294 58.6C39.6894 61.32 39.396 63.4 39.4494 64.84C39.6627 62.9733 40.0627 60.4667 40.6494 57.32C41.2894 54.12 41.716 51.8 41.9294 50.36C42.2494 49.6133 42.6227 48.28 43.0494 46.36C43.476 44.3867 43.876 42.9733 44.2494 42.12C44.2494 41.7467 44.356 41.24 44.5694 40.6C44.836 39.9067 44.916 39.3467 44.8094 38.92C43.2094 45 42.2494 48.8133 41.9294 50.36ZM43.6894 39.24C43.796 39.24 43.796 39.2933 43.6894 39.4C43.636 39.5067 43.636 39.6133 43.6894 39.72C43.8494 39.6667 43.9294 39.56 43.9294 39.4C43.9294 39.24 43.9827 39.1333 44.0894 39.08C43.8227 38.9733 43.6894 39.0267 43.6894 39.24ZM43.2894 40.52C43.2894 40.4133 43.2627 40.36 43.2094 40.36V40.76C43.476 40.8133 43.636 40.68 43.6894 40.36C43.6894 40.2533 43.6094 40.1733 43.4494 40.12C43.4494 40.3333 43.396 40.4667 43.2894 40.52ZM42.4894 43.88C42.4894 43.9333 42.4094 44.0133 42.2494 44.12C42.1427 44.1733 42.116 44.28 42.1694 44.44C42.7027 44.2267 42.916 43.6133 42.8094 42.6C42.9694 42.4933 43.076 42.3333 43.1294 42.12C43.1827 41.9067 43.2627 41.7467 43.3694 41.64C43.316 41.64 43.2894 41.6133 43.2894 41.56C43.2894 41.5067 43.2627 41.48 43.2094 41.48C42.516 42.6533 42.276 43.4533 42.4894 43.88ZM43.8494 47.08C43.8494 47.0267 43.876 46.9733 43.9294 46.92C43.9827 46.8667 43.9827 46.84 43.9294 46.84C43.9294 46.7867 43.876 46.76 43.7694 46.76C43.7694 46.9733 43.796 47.08 43.8494 47.08ZM42.9694 49.8C43.1294 49.8 43.236 49.6933 43.2894 49.48C43.3427 49.2133 43.316 49.0533 43.2094 49C43.156 49.2133 43.076 49.48 42.9694 49.8ZM40.8894 50.36C41.0494 50.2 41.076 49.96 40.9694 49.64C41.0227 49.64 41.076 49.6133 41.1294 49.56C41.236 49.56 41.2894 49.5333 41.2894 49.48C41.236 49.5333 41.156 49.5333 41.0494 49.48C40.996 49.4267 40.9427 49.4 40.8894 49.4C40.8894 49.56 40.8627 49.7467 40.8094 49.96C40.756 50.1733 40.7827 50.3067 40.8894 50.36ZM40.4894 51.08C40.6494 51.1333 40.756 51.0267 40.8094 50.76C40.8094 50.6533 40.7827 50.6 40.7294 50.6C40.7294 50.6533 40.676 50.7333 40.5694 50.84C40.4627 50.8933 40.436 50.9733 40.4894 51.08ZM42.6494 51.72H42.8094V51.56H42.6494V51.72ZM42.1694 54.6C42.276 54.3867 42.2227 54.2533 42.0094 54.2C42.0094 54.2533 42.036 54.3333 42.0894 54.44C42.0894 54.5467 42.116 54.6 42.1694 54.6ZM40.0094 55.24C40.116 55.3467 40.196 55.2933 40.2494 55.08C40.356 54.8667 40.3027 54.76 40.0894 54.76C40.1427 54.8667 40.1427 54.9733 40.0894 55.08C40.036 55.1333 40.0094 55.1867 40.0094 55.24ZM40.0094 56.04C40.0094 55.72 39.9827 55.56 39.9294 55.56C39.9294 55.6133 39.9294 55.6933 39.9294 55.8C39.9294 55.96 39.956 56.04 40.0094 56.04ZM39.8494 57.16C39.8494 57.1067 39.876 56.9733 39.9294 56.76C39.9827 56.5467 39.956 56.44 39.8494 56.44C39.8494 56.5467 39.796 56.7067 39.6894 56.92C39.636 57.08 39.6894 57.16 39.8494 57.16ZM39.5294 57.56H39.7694V57.4H39.5294V57.56ZM39.5294 58.52C39.7427 58.0933 39.7694 57.8533 39.6094 57.8C39.6094 57.8533 39.5827 57.9333 39.5294 58.04C39.5294 58.1467 39.5027 58.2533 39.4494 58.36C39.4494 58.4133 39.476 58.4667 39.5294 58.52ZM39.3694 59.4H39.5294V59H39.3694V59.4ZM38.9694 60.04C38.9694 59.9867 38.996 59.96 39.0494 59.96L39.1294 59.8C39.236 59.9067 39.316 59.96 39.3694 59.96C39.3694 59.5333 39.2627 59.32 39.0494 59.32C39.1027 59.48 39.076 59.6133 38.9694 59.72C38.916 59.88 38.916 59.9867 38.9694 60.04ZM38.8894 60.84C38.7827 61.0533 38.756 61.3467 38.8094 61.72C38.756 61.56 38.7827 61.4533 38.8894 61.4C38.996 61.3467 39.0494 61.2667 39.0494 61.16C38.9427 61.16 38.8894 61.0533 38.8894 60.84ZM38.8894 62.84C38.836 62.84 38.8094 62.84 38.8094 62.84C38.7027 62.84 38.6494 62.8667 38.6494 62.92C38.8094 62.92 38.8894 62.8933 38.8894 62.84ZM41.5294 46.36C41.5827 46.4667 41.6094 46.5467 41.6094 46.6C41.6094 46.6533 41.636 46.7333 41.6894 46.84C41.7427 46.84 41.7694 46.8133 41.7694 46.76C41.8227 46.6533 41.876 46.6 41.9294 46.6C41.876 46.7067 41.8494 46.8667 41.8494 47.08C41.796 47.08 41.7427 47.0533 41.6894 47C41.636 46.9467 41.5827 46.92 41.5294 46.92C41.476 46.9733 41.396 47.2667 41.2894 47.8C41.1827 48.28 41.0494 48.6 40.8894 48.76C40.9427 48.3867 41.0227 47.9333 41.1294 47.4C41.2894 46.8667 41.396 46.52 41.4494 46.36H41.5294ZM41.5294 47.72C41.6894 47.7733 41.6894 47.8533 41.5294 47.96L41.4494 48.04C41.3427 47.9867 41.3427 47.9333 41.4494 47.88L41.5294 47.72ZM76.2194 31.96C76.1127 32.0133 75.9794 32.12 75.8194 32.28C75.6594 32.44 75.526 32.5467 75.4194 32.6C75.2594 33.3467 74.726 34.3333 73.8194 35.56C72.966 36.7867 72.4327 37.8267 72.2194 38.68C71.8994 38.68 71.606 38.9467 71.3394 39.48C71.0727 40.0133 70.7794 40.3067 70.4594 40.36C70.566 40.6267 70.4594 40.9733 70.1394 41.4C69.8194 41.7733 69.686 42.04 69.7394 42.2C69.4194 42.52 68.9927 43.08 68.4594 43.88C67.9794 44.68 67.5527 45.24 67.1794 45.56C66.806 46.68 66.2994 47.5067 65.6594 48.04C65.7127 48.2533 65.6594 48.44 65.4994 48.6C65.3927 48.7067 65.3394 48.84 65.3394 49C64.6994 49.8 63.766 51.16 62.5394 53.08C61.3127 55 60.326 56.4133 59.5794 57.32C59.366 57.9067 58.886 58.68 58.1394 59.64C57.446 60.6 56.9927 61.3733 56.7794 61.96C56.406 62.3333 55.9527 62.9733 55.4194 63.88C54.886 64.84 54.4594 65.48 54.1394 65.8C54.1394 66.0133 54.0327 66.2533 53.8194 66.52C53.6594 66.84 53.606 67.1333 53.6594 67.4C53.446 67.4 53.286 67.5067 53.1794 67.72C52.5394 67.56 52.166 67.16 52.0594 66.52C51.8994 65.88 51.9527 65.32 52.2194 64.84C52.166 64.7867 52.0594 64.8667 51.8994 65.08C51.846 65.1333 51.7927 65.16 51.7394 65.16C51.6327 65 51.7394 64.6533 52.0594 64.12C52.1127 64.0133 52.1127 63.9067 52.0594 63.8C51.9527 63.7467 51.8994 63.6933 51.8994 63.64C51.8994 62.7867 52.3527 61.96 53.2594 61.16C54.166 60.36 54.6727 59.64 54.7794 59C56.0594 57.6133 57.3127 55.72 58.5394 53.32H58.9394C59.7927 51.9333 60.3527 51.1333 60.6194 50.92V50.44C60.6727 50.44 60.726 50.4133 60.7794 50.36C60.8327 50.2533 60.9127 50.2267 61.0194 50.28C61.1794 49.9067 61.5527 49.3467 62.1394 48.6C62.726 47.8 63.0994 47.1067 63.2594 46.52C63.366 46.52 63.446 46.44 63.4994 46.28C63.606 46.0667 63.7394 45.9867 63.8994 46.04C64.2194 45.1333 64.9394 43.9067 66.0594 42.36C67.1794 40.8133 67.8727 39.56 68.1394 38.6C68.7794 38.0667 69.4994 37.1333 70.2994 35.8C71.0994 34.4133 71.686 33.5067 72.0594 33.08C72.0594 32.92 72.1127 32.7333 72.2194 32.52C72.326 32.2533 72.3794 32.0933 72.3794 32.04C73.2327 31.24 74.2194 29.8267 75.3394 27.8C76.5127 25.72 77.446 24.3067 78.1394 23.56C78.1394 23.0267 78.3794 22.6267 78.8594 22.36C79.0727 21.88 79.4727 21.24 80.0594 20.44C80.6994 19.5867 81.126 18.8667 81.3394 18.28C81.446 18.28 81.5527 18.2267 81.6594 18.12C81.766 17.96 81.8727 17.9067 81.9794 17.96C82.1927 17.4267 82.6194 16.7333 83.2594 15.88C83.8994 15.0267 84.326 14.3867 84.5394 13.96C84.5927 14.0133 84.646 14.0133 84.6994 13.96C84.806 13.9067 84.886 13.88 84.9394 13.88C84.9394 13.6667 85.046 13.4533 85.2594 13.24C85.4727 13.0267 85.5794 12.84 85.5794 12.68C81.9527 15.1333 78.1927 16.36 74.2994 16.36C74.6727 17.4267 74.6194 18.4933 74.1394 19.56C73.7127 20.6267 73.046 21.4267 72.1394 21.96C72.086 22.4933 71.7127 22.92 71.0194 23.24V23.72C70.3794 24.36 69.3127 24.68 67.8194 24.68C66.7527 24.5733 65.8727 24.1733 65.1794 23.48C64.486 22.7333 64.166 21.8533 64.2194 20.84C63.8994 19.4533 64.006 18.0933 64.5394 16.76C65.0727 15.4267 65.8194 14.3867 66.7794 13.64V13.24C66.886 13.1867 67.2327 12.9733 67.8194 12.6C68.406 12.2267 68.806 11.9867 69.0194 11.88C69.2327 11.7733 69.6594 11.5867 70.2994 11.32C70.9394 11 71.366 10.8933 71.5794 11C71.846 11.1067 72.2727 11.2133 72.8594 11.32C73.2327 12.1733 73.4194 12.8133 73.4194 13.24C73.4194 13.4533 73.3394 13.5333 73.1794 13.48C73.2327 13.5867 73.3127 13.72 73.4194 13.88C73.526 14.04 73.5794 14.1467 73.5794 14.2C75.0727 14.4667 76.5394 14.3867 77.9794 13.96C79.4194 13.48 81.046 12.7067 82.8594 11.64C84.6727 10.52 85.8994 9.82666 86.5394 9.56C86.646 9.56 86.6994 9.50666 86.6994 9.4C86.7527 9.24 86.806 9.13333 86.8594 9.08C88.246 8.70666 89.126 8.06666 89.4994 7.16C89.606 7.16 89.686 7.24 89.7394 7.4C89.9527 7.24 90.3527 6.84 90.9394 6.2C91.5794 5.56 92.1127 5.10666 92.5394 4.84C92.646 4.36 92.9927 3.77333 93.5794 3.08C94.2194 2.33333 94.5927 1.64 94.6994 0.999998C94.8594 0.946665 95.0194 0.786666 95.1794 0.52C95.3927 0.25333 95.5527 0.0933288 95.6594 0.0399961C96.566 0.359998 96.886 0.999998 96.6194 1.96C97.046 3.18666 97.2327 3.98666 97.1794 4.36C97.126 4.57333 96.966 4.86666 96.6994 5.24C96.486 5.56 96.3794 5.88 96.3794 6.2H95.9794C95.7127 6.62667 95.1794 7.24 94.3794 8.04C93.6327 8.78666 93.126 9.42666 92.8594 9.96L92.6994 10.04C92.646 10.0933 92.5927 10.0933 92.5394 10.04C92.1127 10.68 91.3127 11.6133 90.1394 12.84C89.0194 14.0133 88.2194 15 87.7394 15.8C87.0994 16.28 86.2194 17.3467 85.0994 19C84.6194 19.1067 84.406 19.4267 84.4594 19.96C83.606 20.8667 82.486 22.3333 81.0994 24.36C79.7127 26.3867 78.6727 27.8 77.9794 28.6C77.926 29.1333 77.6327 29.7467 77.0994 30.44C76.6194 31.08 76.326 31.5867 76.2194 31.96ZM72.6194 17.8L72.6994 17.72C72.7527 17.72 72.806 17.72 72.8594 17.72C72.9127 17.6133 72.886 17.5333 72.7794 17.48C72.6727 17.4267 72.6194 17.3733 72.6194 17.32C73.046 16.68 72.8594 16.0667 72.0594 15.48C71.3127 14.84 70.886 14.3333 70.7794 13.96C69.926 14.6 69.2594 15.0533 68.7794 15.32C68.6727 15.9067 68.246 16.5467 67.4994 17.24C66.806 17.88 66.406 18.52 66.2994 19.16C66.246 19.16 66.086 19.4533 65.8194 20.04C66.2994 20.52 67.126 20.7333 68.2994 20.68C70.166 19.88 71.5527 18.9733 72.4594 17.96C72.5127 18.0133 72.566 18.0133 72.6194 17.96C72.6727 17.9067 72.6727 17.8533 72.6194 17.8ZM72.8594 17.48H73.0194V17.24H72.8594V17.48ZM77.9794 25.16L78.1394 25C78.1394 24.84 78.0594 24.7867 77.8994 24.84C77.8994 25 77.926 25.1067 77.9794 25.16ZM76.6994 26.92H76.5394C76.5927 26.9733 76.5927 27.0533 76.5394 27.16C76.486 27.2133 76.4594 27.2667 76.4594 27.32H76.3794C76.3794 27.3733 76.326 27.4533 76.2194 27.56C76.166 27.6133 76.166 27.6933 76.2194 27.8C76.1127 27.8533 75.9794 27.9867 75.8194 28.2C75.7127 28.36 75.6327 28.4667 75.5794 28.52C75.8994 28.4667 76.1127 28.2267 76.2194 27.8C76.4327 27.6933 76.5127 27.5333 76.4594 27.32C76.6194 27.3733 76.6994 27.2933 76.6994 27.08C76.6994 27.0267 76.6994 26.9733 76.6994 26.92C76.806 26.92 76.8594 26.84 76.8594 26.68L76.7794 26.76C76.726 26.8133 76.6994 26.8667 76.6994 26.92ZM74.4594 30.52C75.206 29.6133 75.5527 29 75.4994 28.68C75.446 28.84 75.286 29.1333 75.0194 29.56C74.7527 29.9333 74.566 30.2533 74.4594 30.52ZM73.4194 32.2C73.206 32.36 73.0194 32.5733 72.8594 32.84C72.6994 33.0533 72.5394 33.32 72.3794 33.64C72.2194 33.96 72.086 34.2 71.9794 34.36C72.4594 33.9867 72.9394 33.2667 73.4194 32.2C73.5794 32.0933 73.926 31.5867 74.4594 30.68C73.9794 30.9467 73.6327 31.4533 73.4194 32.2ZM72.8594 34.92C72.8594 34.8667 72.886 34.7867 72.9394 34.68C72.9927 34.5733 72.966 34.52 72.8594 34.52C72.5927 34.7867 72.5927 34.92 72.8594 34.92ZM69.4994 38.36C68.9127 38.84 68.6194 39.2667 68.6194 39.64C68.566 39.48 68.5127 39.4533 68.4594 39.56C68.406 39.6667 68.3527 39.72 68.2994 39.72C68.246 39.9333 68.0327 40.3067 67.6594 40.84C67.286 41.3733 67.126 41.8 67.1794 42.12C68.566 39.9333 69.3394 38.68 69.4994 38.36C70.3527 37.2933 71.1527 36.04 71.8994 34.6C71.0994 35.4 70.2994 36.6533 69.4994 38.36ZM66.6994 42.92C66.9127 42.4933 66.9394 42.2533 66.7794 42.2C66.7794 42.2533 66.726 42.3333 66.6194 42.44C66.5127 42.6533 66.5394 42.8133 66.6994 42.92ZM67.3394 43.16H67.4194C67.5794 43 67.5794 42.92 67.4194 42.92C67.366 42.9733 67.3394 43.0533 67.3394 43.16ZM65.4194 44.68C64.8327 45.16 64.326 45.8533 63.8994 46.76C64.2727 46.7067 64.566 46.4133 64.7794 45.88C65.046 45.3467 65.286 45.0533 65.4994 45C65.5527 44.9467 65.5527 44.8933 65.4994 44.84C65.446 44.7867 65.4194 44.7333 65.4194 44.68C65.7927 44.2533 66.1394 43.7467 66.4594 43.16C65.9794 43.16 65.6327 43.6667 65.4194 44.68ZM65.6594 46.28C65.6594 46.2267 65.686 46.1467 65.7394 46.04C65.7927 45.9333 65.8194 45.8533 65.8194 45.8C65.8194 45.7467 65.766 45.6933 65.6594 45.64C65.6594 45.6933 65.6327 45.7733 65.5794 45.88C65.526 45.9333 65.4994 46.0133 65.4994 46.12C65.4994 46.1733 65.5527 46.2267 65.6594 46.28ZM60.4594 52.2C59.8727 52.4133 59.6327 52.76 59.7394 53.24C60.166 52.8133 60.406 52.4667 60.4594 52.2C60.726 52.0933 60.966 51.8267 61.1794 51.4C61.446 50.9733 61.686 50.7067 61.8994 50.6C62.006 49.96 62.3794 49.32 63.0194 48.68C63.0194 48.4133 63.1794 48.0933 63.4994 47.72C63.8727 47.3467 63.9794 47.08 63.8194 46.92C63.3927 47.5067 62.8327 48.36 62.1394 49.48C61.446 50.5467 60.886 51.3467 60.4594 51.88V52.2ZM64.2994 48.28C64.2994 48.1733 64.3527 48.04 64.4594 47.88C64.6194 47.72 64.6194 47.5867 64.4594 47.48C64.4594 47.5867 64.406 47.6933 64.2994 47.8C64.246 47.9067 64.1927 47.9867 64.1394 48.04C64.1394 48.0933 64.1927 48.1733 64.2994 48.28ZM61.6594 52.2C61.7127 52.0933 61.8194 51.96 61.9794 51.8C62.1394 51.5867 62.246 51.4 62.2994 51.24C62.406 51.0267 62.4327 50.84 62.3794 50.68C62.3794 50.84 62.246 51.08 61.9794 51.4C61.7127 51.72 61.606 51.9867 61.6594 52.2ZM56.6194 58.04H56.5394C56.006 58.68 55.686 59.24 55.5794 59.72C55.366 59.72 55.206 59.8533 55.0994 60.12C54.9927 60.3867 54.8594 60.52 54.6994 60.52C54.6994 60.7333 54.566 61 54.2994 61.32C54.0327 61.6933 53.9794 61.96 54.1394 62.12L55.5794 59.72C55.6327 59.6133 55.7927 59.3733 56.0594 59C56.326 58.6267 56.5127 58.3067 56.6194 58.04C58.2194 55.9067 59.2594 54.3333 59.7394 53.32C58.9927 53.4267 58.726 53.8533 58.9394 54.6C58.8327 54.5467 58.7527 54.5733 58.6994 54.68C58.646 54.7867 58.5927 54.7867 58.5394 54.68C58.3794 55.0533 58.0594 55.5867 57.5794 56.28C57.0994 56.9733 56.7794 57.56 56.6194 58.04ZM60.6994 53.64C60.8594 53.48 60.8594 53.3733 60.6994 53.32V53.64ZM59.1794 55.88C59.0727 55.8267 59.0194 55.88 59.0194 56.04L59.1794 55.88C59.1794 55.8267 59.2327 55.7467 59.3394 55.64C59.446 55.5333 59.526 55.4533 59.5794 55.4C59.6327 55.3467 59.606 55.2667 59.4994 55.16C59.4994 55.2667 59.4194 55.3733 59.2594 55.48C59.1527 55.5867 59.126 55.72 59.1794 55.88ZM58.6994 56.44C58.5927 56.5467 58.5394 56.6267 58.5394 56.68C58.646 56.7333 58.6994 56.6533 58.6994 56.44ZM57.0194 59.08L56.8594 59.16C56.806 59.16 56.7794 59.1867 56.7794 59.24L56.9394 59.16C56.9927 59.16 57.0194 59.1333 57.0194 59.08ZM53.7394 62.6C53.5794 62.5467 53.4994 62.6 53.4994 62.76C53.5527 62.8133 53.606 62.8667 53.6594 62.92C53.606 62.8133 53.6327 62.7067 53.7394 62.6C53.7927 62.5467 53.846 62.4667 53.8994 62.36L53.9794 62.2C53.8727 62.1467 53.7927 62.1467 53.7394 62.2C53.7394 62.3067 53.7394 62.44 53.7394 62.6ZM72.6194 17.8C72.5127 17.8 72.4594 17.7733 72.4594 17.72C72.566 17.72 72.6194 17.7467 72.6194 17.8ZM82.0594 40.84C81.8994 40.68 81.686 40.68 81.4194 40.84C81.206 41 81.1527 41.2133 81.2594 41.48C78.646 42.8133 76.9927 44.6533 76.2994 47C76.3527 47.2667 76.6194 47.3733 77.0994 47.32C77.5794 47.2133 77.8727 47.1867 77.9794 47.24C78.406 46.9733 78.966 46.5467 79.6594 45.96C80.406 45.32 80.9394 44.8933 81.2594 44.68C83.286 42.28 83.7394 40.1467 82.6194 38.28C82.6194 38.2267 82.5394 38.1733 82.3794 38.12C82.2727 38.0667 82.1927 38.0133 82.1394 37.96C82.086 37.9067 82.1127 37.8267 82.2194 37.72C82.8594 37.9867 83.366 38.44 83.7394 39.08C84.1127 39.6667 84.486 40.4933 84.8594 41.56C85.2327 42.6267 85.4727 43.2933 85.5794 43.56C85.686 44.6267 85.3394 45.8 84.5394 47.08L82.6194 49L81.1794 50.44C81.0727 50.5467 80.886 50.6267 80.6194 50.68C80.406 50.68 80.246 50.7067 80.1394 50.76C78.9127 51.24 78.1127 51.4533 77.7394 51.4C77.686 51.4 77.446 51.3467 77.0194 51.24C76.5927 51.1333 76.3794 51.16 76.3794 51.32C76.006 51.0533 75.6327 50.92 75.2594 50.92C73.6594 48.6267 73.526 45.9067 74.8594 42.76C74.966 42.8133 75.0194 42.7867 75.0194 42.68C75.0727 42.5733 75.1527 42.5467 75.2594 42.6C75.3127 42.12 75.5527 41.6133 75.9794 41.08C76.4594 40.4933 76.7527 40.0667 76.8594 39.8C77.0727 39.6933 77.6327 39.32 78.5394 38.68C79.446 38.04 80.2727 37.6933 81.0194 37.64C81.926 38.6533 82.406 39.56 82.4594 40.36C82.3527 40.36 82.2727 40.44 82.2194 40.6C82.166 40.76 82.1127 40.84 82.0594 40.84Z" fill="#C58A46"/>
</svg>
