<svg width="72" height="72" viewBox="0 0 72 72" fill="none" xmlns="http://www.w3.org/2000/svg">
<path d="M36 10.2815C21.8101 10.2815 10.3604 21.7469 10.3604 35.9532C10.3604 50.1187 21.8101 61.6228 36 61.6228C50.149 61.6228 61.638 50.1187 61.638 35.9532C61.638 21.7469 50.149 10.2815 36 10.2815Z" fill="#3F9C35"/>
<path d="M42.7876 19.3314L36.4899 25.5951V52.6567H45.2819V34.2748L51.0476 40.047L57.2614 33.8242L42.7876 19.3314ZM14.7354 33.8242L20.9104 40.047L26.717 34.2338V52.6567H35.509V25.6361L29.2113 19.2905L14.7354 33.8242Z" fill="white"/>
<path d="M34.7326 2.05545L34.691 2.8301L36.1639 2.87332L36.0821 6.68101H37.1043L37.1862 2.91133H38.6176L38.6579 2.138L34.7326 2.05545ZM40.7023 2.38314L39.884 6.8829L42.9104 7.45569L43.0338 6.76362L40.988 6.39268L41.2348 5.12651L43.1156 5.4542L43.2377 4.75557L41.3569 4.42789L41.5609 3.23905L43.5651 3.60999L43.6884 2.91136L40.7023 2.38314ZM28.5563 2.86287C28.2591 2.87133 27.9443 2.9326 27.699 2.99394C26.3083 3.36486 25.4913 4.55328 25.9001 5.98242C26.2679 7.45521 27.4941 7.99063 28.9252 7.58152C29.293 7.49971 29.7017 7.33546 30.0292 7.09L29.785 6.39268C29.4984 6.59996 29.2119 6.7631 28.8849 6.84488C27.9034 7.09035 27.1675 6.63752 26.9223 5.6993C26.6771 4.75563 27.0857 3.93803 28.0263 3.69257C28.3533 3.61077 28.7209 3.56637 29.007 3.60999L28.8447 2.87335C28.7526 2.86248 28.6554 2.86005 28.5563 2.86287ZM45.7329 3.4029L46.3863 6.02699L43.9742 7.66279L45.0367 8.07174L46.7551 6.71905L47.2046 8.89095L48.3489 9.29989L47.6137 6.47395L49.8218 4.91941L48.7996 4.55372L47.2448 5.78057L46.837 3.81708L45.7329 3.4029ZM23.1191 4.55372L22.1787 4.96267L24.0179 9.21732L24.9583 8.80837L23.1191 4.55372ZM51.1298 5.53546L50.7207 6.2721L51.9884 6.96547L50.1076 10.2816L51.0077 10.7718L52.8885 7.49894L54.1147 8.19757L54.5238 7.49894L51.1298 5.53546ZM19.8069 6.10826L19.0302 6.55521L21.0331 9.79011L17.5988 7.45569L16.2895 8.28014L18.7431 12.1691L19.5199 11.7156L17.517 8.48068L20.9513 10.8164L22.219 9.99721L19.8069 6.10826ZM56.1605 8.68909L53.338 12.371L54.1563 12.987L56.9788 9.29989L56.1605 8.68909ZM13.2228 10.7718L12.2421 11.7156L14.1229 16.2612L14.8581 15.6058L14.3684 14.4603L15.7985 13.1076L16.9026 13.6791L17.6806 12.9437L13.2228 10.7718ZM59.0661 11.0615L55.7916 14.3344L57.9153 16.4657L58.5323 15.8916L57.0983 14.4983L59.8013 11.7982L59.0661 11.0615ZM13.1825 11.7156L15.1854 12.7419L14.0411 13.8049L13.1825 11.7156ZM9.62487 14.7434C9.25646 14.9943 8.88814 15.4029 8.6429 15.7684C7.78403 16.9155 7.8662 18.3489 9.05205 19.2091C10.2788 20.1096 11.5866 19.7816 12.4863 18.5537C12.8139 18.1031 13.0593 17.6115 13.2228 17.0791L11.3823 15.7684L10.525 16.9979L11.0562 17.4068L11.4238 16.9166L12.2006 17.4894C12.1597 17.7354 12.0367 17.9389 11.8733 18.1434C11.3005 18.9622 10.4424 18.8803 9.7067 18.3479C8.84782 17.7751 8.72472 16.8336 9.33781 16.0148C9.58359 15.687 9.87008 15.4038 10.2379 15.2402L9.62487 14.7434ZM62.4991 14.7434L58.7764 17.4894L60.6183 19.9457L61.1911 19.5354L59.9649 17.8577L60.9846 17.0791L62.1289 18.635L62.7004 18.226L61.5561 16.6702L62.5367 15.9742L63.7252 17.5706L64.2981 17.1617L62.4991 14.7434ZM6.59714 20.2183C6.06424 20.2395 5.6579 20.6925 5.41254 21.2145L4.59424 22.9342L8.72473 24.899L9.17415 23.9985L7.457 23.1793L7.62067 22.8516C7.82503 22.4016 7.98823 22.3611 8.47924 22.402L9.87036 22.5659L10.36 21.5422L8.6429 21.419C8.23363 21.3781 7.988 21.46 7.74276 21.7873C7.90625 21.214 7.74343 20.6001 7.17125 20.3546C6.96678 20.2524 6.77476 20.2113 6.59714 20.2183ZM6.5127 21.2368C6.61174 21.2278 6.72124 21.2446 6.84393 21.2958C7.33462 21.5418 7.25232 22.0327 7.04785 22.4833L6.84393 22.8935L5.61647 22.3194L5.86196 21.8699C6.01531 21.5323 6.21559 21.2638 6.5127 21.2368ZM66.436 23.0141C66.3274 23.0244 66.2136 23.0519 66.0957 23.098C65.5235 23.3026 65.3597 23.7945 65.3216 24.4088L65.2788 24.899C65.2788 25.2677 65.2784 25.7994 64.9514 25.9227C64.461 26.0863 64.1719 25.7183 64.0084 25.3092C63.8449 24.8996 63.7631 24.449 63.8448 23.9985L63.0719 24.2436C63.1101 24.7351 63.2345 25.1856 63.398 25.6356C63.7249 26.4953 64.3796 27.232 65.3606 26.8638C66.0145 26.6183 66.1776 26.0862 66.1776 25.4311V24.899C66.1776 24.5717 66.2215 24.1209 66.5049 24.0391C66.9136 23.8755 67.2026 24.3258 67.3661 24.6945C67.4859 25.0218 67.5679 25.3906 67.5297 25.7588L68.2649 25.5137C68.2213 25.1455 68.1401 24.735 67.9766 24.3668C67.7286 23.6857 67.1967 22.9423 66.436 23.0141ZM4.95533 25.6513C4.02949 25.7129 3.31676 26.281 3.04075 27.3553C2.67273 28.7473 3.40845 29.7711 4.7579 30.1393C6.14827 30.508 7.25328 29.9758 7.66223 28.5428C8.03009 27.1508 7.29324 26.1276 5.94379 25.7588C5.59619 25.6668 5.26394 25.6308 4.95533 25.6513ZM5.08132 26.6842C5.27684 26.6951 5.47403 26.7312 5.65803 26.7825C6.39412 26.9871 7.21137 27.4784 6.96602 28.379C6.72067 29.2386 5.78098 29.2793 5.04495 29.1156C4.30886 28.9111 3.49032 28.3788 3.73566 27.5191C3.91968 26.8437 4.49477 26.6515 5.08132 26.6842ZM68.9182 27.3147L68.1012 27.4785L68.3844 28.9111L64.6682 29.6491L64.8696 30.6715L68.5922 29.9348L68.8754 31.3268L69.6924 31.163L68.9182 27.3147ZM65.2787 32.6782L65.3216 33.7019L66.4659 34.0702L66.5477 36.035L65.4034 36.4859L65.4424 37.5502L69.982 35.626L69.943 34.2747L65.2787 32.6782ZM67.2024 34.2747L69.3274 34.9707L67.2401 35.7899L67.2024 34.2747ZM5.73986 35.1345L5.78016 37.1412L2.01855 37.2225V38.2462L6.63874 38.123L6.5582 35.1345H5.73986ZM65.3216 38.819L65.1969 39.7195L68.8754 40.3342L64.9137 41.3985L64.6682 42.8718L69.2027 43.6084L69.3651 42.7486L65.6489 42.1352L69.6547 41.0302L69.856 39.5556L65.3216 38.819ZM6.68027 39.5556L2.5095 42.1758L2.79526 43.4865L7.66223 44.3044L7.457 43.3227L6.23084 43.1169L5.86196 41.194L6.88419 40.5793L6.68027 39.5556ZM5.20862 41.5624L5.49437 43.0763L3.28625 42.7079L5.20862 41.5624ZM64.1721 44.7553L63.5993 46.188C63.0706 47.6204 63.3982 48.8079 64.8696 49.3403C66.3028 49.9136 67.3217 49.3823 67.8557 47.9902L68.4662 46.3924L64.1721 44.7553ZM7.44142 45.6361C7.24269 45.6073 7.01766 45.636 6.76209 45.7384C6.18963 45.9429 6.02629 46.5151 6.14902 47.0884C5.82188 46.5969 5.33102 46.4343 4.79946 46.6388C3.98157 46.9667 4.02225 47.7857 4.30848 48.4817L5.00339 50.2408L9.25598 48.5224L8.6429 46.9665C8.39766 46.3214 8.0376 45.7224 7.44142 45.6361ZM64.4604 45.9428L67.4479 47.0884L67.2401 47.58C66.9131 48.4811 66.0954 48.6851 65.2398 48.3572C64.2534 47.989 63.9275 47.2936 64.2981 46.3112L64.4604 45.9428ZM7.47 46.6585C7.80537 46.7006 8.02674 47.0622 8.15192 47.3755L8.31558 47.8264L6.96602 48.3572L6.84393 47.9483C6.63945 47.4977 6.51632 46.9252 7.12968 46.7201C7.19612 46.6894 7.25919 46.6704 7.31932 46.6611C7.37192 46.653 7.42208 46.6525 7.47 46.6585ZM5.62686 47.4843C5.93355 47.5208 6.14841 47.8053 6.27111 48.1121L6.43477 48.6036L5.20862 49.0952L5.00339 48.563C4.83984 48.1534 4.84063 47.7035 5.29044 47.5393C5.41312 47.4882 5.52463 47.472 5.62686 47.4843ZM62.4173 49.2184L61.8834 50.1189L62.6627 51.06L61.6379 52.739L60.4559 52.4926L59.8831 53.3931L64.7501 54.2949L65.4424 53.1073L62.4173 49.2184ZM9.31443 50.6707C8.8841 50.6911 8.43295 50.8508 7.98825 51.1425C6.76163 51.8795 6.39429 53.0667 7.17125 54.3355C7.94804 55.523 9.21575 55.7268 10.4016 54.9489C11.5875 54.1711 11.9963 53.0253 11.1783 51.756C10.6926 50.9882 10.0316 50.6367 9.31443 50.6707ZM63.1524 51.5921L64.5422 53.3524L62.3354 52.9029L63.1524 51.5921ZM9.63006 51.659C10.0032 51.6437 10.36 51.7773 10.6055 52.1662C11.0551 52.9031 10.4419 53.6388 9.82879 54.0484C9.17429 54.4581 8.23392 54.7044 7.78433 53.9265C7.2937 53.1487 7.90656 52.4527 8.56107 52.043C8.86761 51.8385 9.25689 51.6742 9.63006 51.659ZM59.1479 54.2948L58.4881 55.0315L59.9208 56.3003L59.6766 56.5873C59.3496 56.9561 59.1856 56.9554 58.7388 56.7918L57.4256 56.2596L56.6891 57.0789L58.2868 57.6923C58.6573 57.815 58.9404 57.8568 59.2674 57.5704C58.9404 58.1022 58.9406 58.7153 59.4311 59.1249C60.0851 59.7391 60.8643 59.3708 61.3548 58.7566L62.6186 57.3646L59.1479 54.2948ZM12.9371 54.4181L12.3227 54.9489L13.632 56.4641L10.8108 58.9624L11.4641 59.7396L14.94 56.6686L12.9371 54.4181ZM60.4559 56.7512L61.4366 57.6516L61.1093 58.02C60.7823 58.3887 60.4113 58.6346 60.0026 58.2664C59.5939 57.9385 59.8398 57.4473 60.1286 57.1195L60.4559 56.7512ZM55.6695 58.0606L54.442 59.003C53.2562 59.9445 52.9293 61.1314 53.9108 62.3598C54.8514 63.5473 55.9964 63.6696 57.1801 62.7281L58.5323 61.6638L55.6695 58.0606ZM16.1674 58.1838L14.7763 59.9441L16.0038 60.8852L16.4129 60.3531L15.9219 59.9848L16.535 59.2075C16.7802 59.2893 16.9853 59.4122 17.1896 59.5758C17.9668 60.1491 17.8853 61.049 17.313 61.7451C16.6585 62.5638 15.7586 62.6458 14.9815 62.0321C14.6545 61.7861 14.3683 61.4585 14.2048 61.0897L13.6722 61.7044C13.9589 62.0732 14.3266 62.4412 14.6945 62.7281C15.7986 63.5878 17.2303 63.5877 18.13 62.4411C19.0707 61.2132 18.784 59.9036 17.6391 59.003C17.1889 58.6343 16.6988 58.3884 16.1674 58.1838ZM55.3006 59.2481L57.2619 61.7451L56.8528 62.0728C56.1187 62.687 55.3416 62.4414 54.7693 61.7044C54.074 60.8857 54.1968 60.1077 55.0148 59.4526L55.3006 59.2481ZM21.6877 64.0795L21.2786 64.9393L22.219 65.3889L22.6281 64.5291L21.6877 64.0795ZM50.1076 64.0795L49.1269 64.5291L49.5348 65.3483L50.4765 64.9393L50.1076 64.0795ZM28.277 64.3534C27.2869 64.4263 26.4366 65.0597 26.1858 66.1256C25.818 67.6403 26.5947 68.7049 28.0666 69.0734C28.598 69.2372 29.1297 69.2782 29.7019 69.2372L30.2747 67.0273L28.7628 66.659L28.5979 67.3131L29.2122 67.4769L28.9667 68.46C28.7215 68.46 28.4755 68.4593 28.2303 68.3774C27.2896 68.1318 27.0037 67.3133 27.208 66.4126C27.4533 65.43 28.271 64.9385 29.2525 65.2251C29.6612 65.307 30.0296 65.4707 30.3566 65.7572L30.5618 64.98C30.1939 64.7751 29.6618 64.5705 29.2122 64.4478C29.0436 64.4017 28.8749 64.372 28.7083 64.3574C28.5624 64.3446 28.4185 64.3431 28.277 64.3534ZM44.5327 64.3561C44.2394 64.3657 43.9643 64.4272 43.6884 64.4885C42.9113 64.6931 42.0113 65.2666 42.2571 66.2082C42.4206 66.7814 42.8702 67.0268 43.443 67.1087L43.9326 67.1912C44.3005 67.2322 44.7926 67.2727 44.8743 67.6002C44.997 68.0914 44.5881 68.3372 44.2197 68.46C43.7701 68.5419 43.3605 68.5825 42.9104 68.5006L43.0741 69.2373C43.5242 69.2781 44.015 69.1962 44.4652 69.0734C45.3235 68.8687 46.1002 68.2548 45.855 67.3131C45.6507 66.6171 45.1601 66.4539 44.547 66.372L44.0145 66.2894C43.6875 66.2894 43.2792 66.2076 43.1975 65.9211C43.0748 65.4708 43.5648 65.2257 43.9326 65.1438C44.2596 65.062 44.6279 65.0203 44.9549 65.0613L44.8328 64.3666C44.7305 64.3564 44.6305 64.3529 44.5327 64.3561ZM40.9075 65.1032L37.0225 65.5122L37.1043 66.3314L38.5357 66.1676L38.9033 69.9333L39.9255 69.852L39.558 66.085L40.988 65.9211L40.9075 65.1032ZM34.1182 65.2251C32.6462 65.1433 31.7878 66.0444 31.7061 67.4363C31.6244 68.8693 32.3202 69.8514 33.7921 69.9333C35.2232 70.0561 36.1225 69.1563 36.2042 67.7234C36.2859 66.2904 35.5498 65.307 34.1182 65.2251ZM34.0376 65.9211C34.9783 66.003 35.1826 66.904 35.1417 67.6408C35.1008 68.4187 34.773 69.2782 33.8324 69.2373C32.9735 69.1964 32.729 68.2546 32.7699 67.5176C32.8108 66.7807 33.1793 65.8802 34.0376 65.9211Z" fill="black"/>
</svg>
