<svg width="30" height="29" viewBox="0 0 30 29" fill="none" xmlns="http://www.w3.org/2000/svg">
<path d="M4.84899 21.8627C4.45761 21.1717 3.97201 20.5484 3.52748 19.8937C3.08295 19.239 2.89934 18.5239 2.56111 17.8547C2.1933 17.1635 1.86108 16.4539 1.56575 15.7287C1.28883 14.9861 1.06203 14.2258 0.886883 13.4529C0.685148 12.6889 0.550156 11.9089 0.483425 11.1215C0.466508 10.2817 0.512539 9.44189 0.621132 8.60898C0.657371 8.21277 0.671865 7.81655 0.674281 7.41792C0.700223 7.02749 0.781568 6.64273 0.915873 6.2752C1.12606 5.55043 1.19854 4.80632 1.4353 4.10087C1.54806 3.72349 1.72723 3.36925 1.96438 3.05478C2.18268 2.79504 2.45467 2.58569 2.76163 2.44114C3.1032 2.26087 3.47875 2.15419 3.86407 2.12797C4.2494 2.10176 4.63594 2.15659 4.99877 2.28894C5.05663 2.3083 5.11966 2.30505 5.17523 2.27985C5.23079 2.25466 5.27476 2.20938 5.29831 2.1531C5.32186 2.09682 5.32325 2.03372 5.30219 1.97646C5.28114 1.9192 5.2392 1.87203 5.1848 1.84442C3.9406 1.32258 2.18665 1.80576 1.4353 2.94366C1.05899 3.579 0.812634 4.28277 0.71052 5.0141C0.635802 5.43745 0.536584 5.85611 0.413363 6.26796C0.282809 6.64931 0.212705 7.04873 0.205594 7.45175C0.205594 8.31423 0.072719 9.16946 0.0195688 10.0295C-0.0338418 10.8675 0.022196 11.7089 0.186267 12.5324C0.488272 14.1758 1.00402 15.7726 1.72037 17.2821C1.91848 17.688 2.13833 18.0794 2.31952 18.4901C2.50072 18.9008 2.6505 19.3067 2.85344 19.698C3.28347 20.5291 3.93577 21.2297 4.39963 22.0439C4.54941 22.3096 4.99636 22.1284 4.84415 21.8603L4.84899 21.8627Z" fill="white"/>
<path d="M5.32934 2.0981C5.41124 1.89489 5.52818 1.70763 5.67482 1.54485C5.80896 1.352 5.97192 1.1809 6.158 1.03751C6.41198 0.898519 6.69301 0.816104 6.98183 0.795918C7.31649 0.740428 7.65736 0.733099 7.9941 0.774169C8.34925 0.852497 8.69219 0.978471 9.01361 1.14865C9.2552 1.26703 9.52579 1.39023 9.77946 1.50136C10.2626 1.73087 10.8256 1.98455 11.171 2.41459C11.3691 2.65618 11.7533 2.36385 11.5552 2.12467C11.2138 1.75797 10.8032 1.4624 10.3472 1.25495C9.86402 0.998861 9.38083 0.771764 8.87832 0.559163C8.59343 0.427629 8.29186 0.335773 7.98202 0.286164C7.68737 0.25357 7.39002 0.25357 7.09537 0.286164C6.5977 0.32965 6.06136 0.43594 5.68448 0.788664C5.29524 1.11778 5.00085 1.54479 4.83166 2.02563C4.75435 2.3252 5.2327 2.38318 5.31485 2.08602L5.32934 2.0981Z" fill="white"/>
<path d="M11.5647 2.4193C11.9054 2.05932 12.3982 1.95544 12.8621 1.86122C13.3918 1.75012 13.9389 1.75012 14.4686 1.86122C15.0195 1.9796 15.435 2.36374 15.8022 2.76237C16.138 3.11992 16.4666 3.48714 16.527 3.99932C16.5313 4.03104 16.5418 4.06161 16.5579 4.08928C16.574 4.11695 16.5954 4.14118 16.6208 4.16059C16.6463 4.17999 16.6753 4.19419 16.7063 4.20238C16.7372 4.21056 16.7695 4.21257 16.8012 4.20829C16.8329 4.20401 16.8635 4.19351 16.8912 4.17741C16.9189 4.16131 16.9431 4.13993 16.9625 4.11446C16.9819 4.089 16.9961 4.05996 17.0043 4.02901C17.0125 3.99806 17.0145 3.96581 17.0102 3.93408C16.9256 3.3446 16.5777 2.89282 16.1815 2.47004C15.7273 1.98685 15.2514 1.55682 14.5919 1.39737C13.9687 1.26321 13.3236 1.26816 12.7026 1.41186C12.13 1.53266 11.5961 1.69211 11.1806 2.13664C10.968 2.36132 11.3497 2.65606 11.5599 2.43379L11.5647 2.4193Z" fill="white"/>
<path d="M16.9503 4.22642C17.1413 4.16185 17.3378 4.11495 17.5374 4.08629C17.7924 4.09446 18.0438 4.14932 18.2791 4.24816C18.569 4.3303 18.8661 4.3907 19.1561 4.47525C19.446 4.55981 19.702 4.67336 19.9726 4.77724C20.2292 4.86732 20.4795 4.97467 20.7216 5.09856C20.9508 5.23501 21.1445 5.42377 21.2869 5.6494C21.4043 5.84615 21.4861 6.06205 21.5285 6.28719C21.5937 6.52878 21.7048 6.84768 21.6106 7.10135C21.5019 7.39126 21.9464 7.58454 22.0552 7.28738C22.1447 6.98057 22.1396 6.6539 22.0407 6.35001C21.9868 6.0705 21.8967 5.79924 21.7725 5.5431C21.6328 5.28172 21.4441 5.04961 21.2168 4.85939C20.944 4.66519 20.6446 4.5114 20.3278 4.40278C20.0065 4.27957 19.6924 4.13703 19.3614 4.04039C19.0304 3.94376 18.6801 3.8737 18.3443 3.77223C18.0712 3.6641 17.7804 3.60758 17.4867 3.60553C17.24 3.63976 16.9972 3.69801 16.7619 3.77947C16.4647 3.86644 16.6507 4.31098 16.9455 4.22642H16.9503Z" fill="white"/>
<path d="M21.9635 7.47106C22.2635 7.39958 22.5771 7.40959 22.8719 7.50005C23.1788 7.56603 23.4807 7.65322 23.7755 7.76097C24.1282 7.91801 24.4495 8.13302 24.8046 8.28764C25.1119 8.40666 25.4072 8.55471 25.6864 8.72976C25.8983 8.89569 26.0904 9.08536 26.259 9.29507C26.4136 9.4666 26.5707 9.63572 26.718 9.81208C26.8654 9.98844 27.3703 10.5369 27.1722 10.8485C27.0031 11.107 27.3824 11.4042 27.5515 11.1457C28.0347 10.4016 27.1432 9.55599 26.6842 9.04864C26.532 8.88195 26.3943 8.70558 26.2324 8.55097C26.0125 8.35375 25.7641 8.19085 25.4956 8.06778C25.2129 7.93007 24.9158 7.8262 24.6379 7.67158C24.3486 7.49592 24.0447 7.34557 23.7296 7.22221C23.4445 7.12799 23.1377 7.07001 22.8453 6.99511C22.5342 6.91903 22.2094 6.91903 21.8983 6.99511C21.5987 7.06518 21.6567 7.54353 21.9635 7.4783V7.47106Z" fill="white"/>
<path d="M27.4304 11.1674C27.8435 11.3462 28.3678 11.496 28.6625 11.8584C29.0054 12.2858 29.2377 12.7911 29.339 13.3297C29.5008 14.3178 29.0563 15.3131 28.6698 16.1949C28.1435 17.3237 27.3639 18.3158 26.3916 19.094C25.4314 19.9352 24.3972 20.688 23.3016 21.3432C22.2579 21.9351 21.0959 22.2734 20.016 22.7928C18.8587 23.3412 17.6411 23.7447 16.4646 24.2423C15.8775 24.4839 15.3001 24.7521 14.7009 24.9671C14.1018 25.1821 13.4737 25.3972 12.8576 25.6146C12.5733 25.7314 12.2779 25.8189 11.9758 25.8755C11.6937 25.9203 11.4157 25.9881 11.1447 26.0785C10.8596 26.1654 10.5721 26.2089 10.2846 26.279C9.99715 26.349 9.75314 26.4312 9.48739 26.5206C9.21625 26.6169 8.93356 26.6771 8.64665 26.6993C8.55279 26.689 8.46241 26.6579 8.38215 26.6081C8.30189 26.5584 8.23377 26.4913 8.1828 26.4118C7.89047 26.0543 7.69961 25.6218 7.43386 25.2401C7.0786 24.7252 6.69044 24.2337 6.27181 23.7688C6.08337 23.5635 5.86593 23.3775 5.68957 23.1649C5.56343 22.9979 5.45112 22.821 5.35376 22.6358C5.20397 22.3797 5.04694 22.1284 4.87058 21.8868C4.69421 21.6452 4.30525 21.9255 4.48645 22.1767C4.66764 22.428 4.82709 22.6865 4.96963 22.9523C5.06827 23.1391 5.18306 23.3169 5.31269 23.4837C5.52046 23.7253 5.75963 23.9307 5.96982 24.1675C6.18 24.4042 6.39985 24.6724 6.60037 24.9357C6.92911 25.3743 7.23318 25.8308 7.51117 26.3031C7.75276 26.6873 8.06683 27.1439 8.55485 27.1801C8.84256 27.1787 9.12814 27.1305 9.40042 27.0376C9.69275 26.9603 9.97782 26.8636 10.2701 26.796C10.5625 26.7283 10.8838 26.6728 11.1858 26.5834C11.4711 26.4921 11.7626 26.4211 12.0579 26.3708C12.3655 26.3141 12.6666 26.2267 12.9566 26.1098C13.2755 25.9963 13.5945 25.8876 13.923 25.7765C14.5729 25.5518 15.2228 25.3199 15.8557 25.0517C16.4887 24.7835 17.0782 24.5226 17.7015 24.281C18.3248 24.0394 18.9457 23.7978 19.5569 23.5562C20.1682 23.3146 20.7407 23.0127 21.3471 22.7711C21.9535 22.5295 22.5164 22.3145 23.0769 22.0463C23.6624 21.7467 24.2274 21.4085 24.7681 21.034C25.3213 20.662 25.8166 20.2319 26.3336 19.8116C27.3579 18.9781 28.2977 18.0383 28.9138 16.8569C29.1639 16.3666 29.3779 15.8587 29.554 15.3373C29.7362 14.843 29.8374 14.3225 29.8536 13.7959C29.8375 13.2503 29.6944 12.7159 29.4356 12.2352C29.3093 11.9584 29.1379 11.7045 28.9283 11.4839C28.7432 11.3124 28.5309 11.1728 28.3001 11.0708C28.0755 10.962 27.8459 10.8702 27.6164 10.7712C27.559 10.7537 27.4971 10.7582 27.4428 10.7839C27.3885 10.8096 27.3457 10.8546 27.3227 10.9101C27.2998 10.9656 27.2984 11.0277 27.3187 11.0842C27.3391 11.1407 27.3798 11.1876 27.4328 11.2157L27.4304 11.1674Z" fill="white"/>
<path d="M4.46005 21.9278C4.18705 22.7661 3.97686 23.619 3.70628 24.4597C3.64102 24.6511 3.58776 24.8463 3.54683 25.0444C3.51304 25.1488 3.51304 25.2612 3.54683 25.3657C3.61807 25.4906 3.72488 25.5915 3.85365 25.6556C4.28177 25.896 4.72951 26.0997 5.19207 26.2644C5.74531 26.4794 6.30339 26.6823 6.86147 26.8805C7.306 27.0399 7.76019 27.1824 8.19264 27.3636C8.25049 27.383 8.31353 27.3798 8.36909 27.3546C8.42465 27.3294 8.46862 27.2841 8.49218 27.2278C8.51573 27.1715 8.51712 27.1084 8.49606 27.0512C8.475 26.9939 8.43306 26.9467 8.37866 26.9191C7.52826 26.5495 6.62712 26.2861 5.75981 25.9527C5.29112 25.774 4.82002 25.5952 4.36824 25.3753C4.24001 25.3156 4.11785 25.2436 4.00344 25.1603C3.95029 25.1241 3.98653 25.141 3.98411 25.1458L3.96962 25.1265C4.0131 25.2425 3.96962 25.1048 3.99378 25.1748C4.01793 25.2449 3.9817 25.298 3.99378 25.1941C3.99378 25.1603 3.99377 25.1241 4.0131 25.0903C4.03582 24.9752 4.06486 24.8615 4.10007 24.7496C4.22812 24.3365 4.36824 23.933 4.48421 23.5151C4.61708 23.0319 4.74029 22.5656 4.8925 22.0994C4.98672 21.807 4.54219 21.6162 4.44797 21.9133L4.46005 21.9278Z" fill="white"/>
<path d="M8.26031 27.4144C8.61303 27.569 8.95851 27.7381 9.30882 27.8976C9.65912 28.0571 9.95628 28.231 10.2897 28.3615C10.6262 28.48 10.9699 28.5769 11.3189 28.6514C11.6595 28.7359 12.0026 28.7552 12.3456 28.8181C12.7902 28.9026 13.4739 29.2143 13.8145 28.7552C13.9395 28.555 14.0279 28.3341 14.0754 28.1029C14.1576 27.8106 14.23 27.5159 14.317 27.2236C14.5061 26.5569 14.7485 25.9066 15.0418 25.2788C15.0611 25.2209 15.0579 25.1579 15.0327 25.1023C15.0075 25.0467 14.9622 25.0028 14.9059 24.9792C14.8497 24.9557 14.7866 24.9543 14.7293 24.9753C14.672 24.9964 14.6249 25.0383 14.5973 25.0927C14.3547 25.6174 14.1465 26.1573 13.974 26.709C13.8266 27.1922 13.7324 27.7164 13.5657 28.2068C13.5198 28.3373 13.4884 28.5064 13.3241 28.5185C13.0405 28.5004 12.7604 28.446 12.4906 28.3566C12.1717 28.289 11.8455 28.2769 11.5242 28.2044C11.2029 28.1319 10.8961 28.0522 10.5893 27.9628C10.2408 27.8287 9.90115 27.673 9.57215 27.4966C9.2001 27.3226 8.83046 27.139 8.45358 26.9747C8.39612 26.9572 8.33421 26.9618 8.27991 26.9874C8.22561 27.0131 8.18283 27.0581 8.1599 27.1136C8.13697 27.1691 8.13554 27.2312 8.15589 27.2877C8.17624 27.3442 8.21691 27.3911 8.26997 27.4193L8.26031 27.4144Z" fill="white"/>
<path d="M4.93126 2.13674C5.05717 2.50745 5.13827 2.8919 5.17285 3.28188C5.17285 3.68051 5.13661 4.0743 5.15594 4.47292C5.17768 4.92228 5.21634 5.36923 5.23567 5.81617C5.25258 6.22205 5.32989 6.62551 5.34922 7.02413C5.35359 7.48334 5.3302 7.9424 5.27915 8.39879C5.25016 8.83365 5.25016 9.26852 5.23567 9.70339C5.22117 10.1383 5.19701 10.6239 5.1801 11.0853C5.16319 11.5467 5.1801 11.9381 5.12937 12.3609C5.1056 12.5548 5.0951 12.7502 5.09796 12.9455C5.12443 13.1304 5.13895 13.3169 5.14145 13.5036C5.11246 13.8733 5.18252 14.2284 5.15836 14.6029C5.12899 15.0185 5.13951 15.4359 5.18976 15.8495C5.24806 16.2725 5.28355 16.6983 5.29606 17.1251C5.29606 17.5189 5.27432 17.9127 5.29606 18.304C5.34024 18.707 5.43104 19.1034 5.56665 19.4854C5.69469 19.8865 5.83481 20.2803 5.96286 20.6813C6.0909 21.0824 6.17304 21.4906 6.28901 21.8893C6.42188 22.3435 6.57408 22.788 6.70454 23.2422C6.82571 23.6597 6.98755 24.0643 7.18773 24.4501C7.29057 24.6381 7.37706 24.8345 7.44623 25.0372C7.49468 25.2347 7.5635 25.4266 7.65158 25.6098C7.80051 25.9604 7.90912 26.3267 7.97532 26.7018C8.05987 26.9989 8.5044 26.8129 8.42226 26.5182C8.36559 26.1889 8.27907 25.8654 8.16376 25.5518C8.08531 25.4038 8.0175 25.2504 7.96082 25.0928C7.91267 24.9141 7.8546 24.7383 7.78687 24.5661C7.62259 24.2013 7.42449 23.8607 7.2892 23.4814C7.1539 23.1021 7.06452 22.6986 6.93406 22.3121C6.67314 21.5293 6.49194 20.7272 6.22619 19.9445C6.09332 19.5458 5.94595 19.1448 5.84931 18.7365C5.77012 18.3472 5.74009 17.9495 5.75992 17.5527C5.77122 17.144 5.75831 16.735 5.72127 16.3278C5.65658 15.9133 5.61464 15.4955 5.59564 15.0764C5.59564 14.8783 5.62946 14.6802 5.63188 14.4821C5.63429 14.284 5.61013 14.0979 5.59805 13.9047C5.58597 13.7114 5.6198 13.5495 5.61738 13.3707C5.61497 13.192 5.56665 13.0156 5.56665 12.8368C5.56665 12.6581 5.59805 12.46 5.61255 12.2715C5.63188 12.0299 5.62705 11.7883 5.63429 11.5612C5.63429 11.1119 5.66811 10.6649 5.68744 10.218C5.70677 9.77104 5.7116 9.34584 5.72368 8.91098C5.73576 8.47611 5.78649 8.01949 5.81065 7.57255C5.82515 7.10267 5.80091 6.63239 5.73818 6.16648C5.68503 5.6833 5.67778 5.20012 5.64396 4.73143C5.61013 4.26274 5.64396 3.79889 5.64396 3.3302C5.61818 2.89722 5.53699 2.46933 5.40236 2.05701C5.3323 1.75743 4.85395 1.81542 4.91918 2.12224L4.93126 2.13674Z" fill="white"/>
<path d="M11.1376 2.30088C11.1357 2.69632 11.0887 3.09025 10.9975 3.47503C10.9201 3.85376 10.8765 4.23857 10.867 4.625C10.867 5.43191 10.8912 6.23641 10.867 7.04091C10.8124 8.66698 10.6559 10.288 10.3983 11.8945C10.2703 12.7087 10.0963 13.5107 9.94656 14.3104C9.79677 15.1101 9.72912 15.9291 9.63007 16.7432C9.43197 18.3498 8.95845 19.9008 8.63955 21.4833C8.46034 22.3538 8.35528 23.238 8.32548 24.1263C8.3383 25.0231 8.28258 25.9196 8.15878 26.8079C8.10321 27.1124 8.58156 27.1727 8.64196 26.8683C8.75836 26.0806 8.81088 25.2848 8.799 24.4887C8.80891 23.6911 8.8808 22.8954 9.01401 22.109C9.29426 20.5024 9.77986 18.9417 10.0359 17.3303C10.164 16.5234 10.1978 15.7068 10.3331 14.8999C10.4684 14.093 10.6472 13.2957 10.7897 12.484C11.0754 10.8651 11.2554 9.22923 11.3285 7.58691C11.3671 6.67611 11.3454 5.77015 11.3454 4.85935C11.3429 4.42386 11.3842 3.98923 11.4686 3.562C11.5694 3.12553 11.6188 2.67878 11.616 2.23083C11.616 1.92159 11.1328 1.98924 11.1328 2.29364L11.1376 2.30088Z" fill="white"/>
<path d="M16.6142 3.97028C16.4741 4.26985 16.2543 4.52351 16.131 4.83758C16.0183 5.20741 15.9263 5.58328 15.8556 5.96341C15.7545 6.34024 15.6327 6.71123 15.4908 7.07472C15.3531 7.44919 15.2758 7.83815 15.1743 8.22228C15.0729 8.60641 14.9086 8.97123 14.7757 9.34811C14.6428 9.72499 14.5341 10.1115 14.4133 10.4981C14.1911 11.276 13.9978 12.0612 13.7755 12.8367C12.8744 15.9774 11.6012 18.9538 10.2483 21.9085C9.48486 23.573 8.7166 25.2303 7.98216 26.907C7.96466 26.9644 7.96919 27.0264 7.99487 27.0806C8.02055 27.1349 8.06553 27.1777 8.12104 27.2007C8.17656 27.2236 8.23862 27.225 8.29513 27.2047C8.35164 27.1843 8.39854 27.1437 8.42669 27.0906C9.72404 24.1263 11.1881 21.2296 12.3985 18.229C13.0097 16.7166 13.5484 15.1753 14.0389 13.6219C14.5293 12.0684 14.8409 10.4667 15.4377 8.9519C15.5832 8.54171 15.7034 8.12296 15.7977 7.69803C15.9088 7.27283 16.09 6.86938 16.218 6.44901C16.3461 6.02864 16.3992 5.58653 16.5297 5.16616C16.6432 4.79169 16.8896 4.50418 17.0539 4.15629C17.1844 3.87363 16.7399 3.69003 16.6094 3.97028H16.6142Z" fill="white"/>
<path d="M21.5887 7.17867C21.4148 7.58696 21.3327 8.02425 21.1805 8.43979C21.0602 8.72935 20.9113 9.00615 20.7359 9.26602L19.714 10.9427C18.9506 12.1917 18.1799 13.4335 17.4165 14.6825C16.653 15.9315 15.863 17.1854 15.0489 18.4151C14.0342 19.9492 12.9422 21.4253 11.8502 22.9063C10.8871 24.2221 9.77844 25.4248 8.54521 26.4915C8.30362 26.6944 8.59836 27.0786 8.83512 26.8781C9.95802 25.9008 10.9832 24.8166 11.8961 23.6407C12.4276 22.9667 12.9253 22.2637 13.4326 21.5727C13.9786 20.8286 14.5174 20.0773 15.0295 19.3114C16.7207 16.7819 18.2959 14.1728 19.8879 11.5805C20.2769 10.9475 20.661 10.3097 21.05 9.67673C21.239 9.39555 21.4085 9.10173 21.5573 8.79734C21.7579 8.3359 21.8376 7.83098 22.0405 7.36954C22.0599 7.31168 22.0566 7.24864 22.0314 7.19308C22.0062 7.13751 21.961 7.09355 21.9047 7.06999C21.8484 7.04644 21.7853 7.04506 21.728 7.06612C21.6708 7.08717 21.6236 7.12911 21.596 7.18351L21.5887 7.17867Z" fill="white"/>
<path d="M27.2224 10.7083C26.5556 12.2207 25.4491 13.4722 24.3692 14.6994C23.2898 15.9338 22.1386 17.1035 20.9217 18.2025C20.3274 18.734 19.7282 19.2631 19.1436 19.8067C18.5712 20.3557 17.9661 20.8697 17.3316 21.3456C16.0101 22.312 14.5847 23.1068 13.2391 24.0321C12.867 24.2882 12.4925 24.5395 12.1036 24.7569C11.7146 24.9743 11.3063 25.1724 10.8956 25.373C10.2071 25.7184 9.5717 26.1533 8.89524 26.5181C8.62466 26.6655 8.80585 27.1124 9.07885 26.965C9.678 26.6389 10.2457 26.2548 10.8497 25.9383C11.5624 25.5614 12.2824 25.2256 12.9588 24.7835C13.6353 24.3414 14.3359 23.8461 15.0389 23.3992C15.742 22.9522 16.4329 22.527 17.1142 22.0656C18.4695 21.1451 19.6026 19.9734 20.8323 18.9031C22.0781 17.8108 23.2568 16.6442 24.3619 15.4097C25.6037 14.023 26.8962 12.6048 27.6573 10.8823C27.6766 10.8244 27.6734 10.7614 27.6482 10.7058C27.623 10.6503 27.5777 10.6063 27.5214 10.5828C27.4651 10.5592 27.402 10.5578 27.3448 10.5789C27.2875 10.5999 27.2403 10.6419 27.2127 10.6963L27.2224 10.7083Z" fill="white"/>
</svg>
