<svg width="88" height="69" viewBox="0 0 88 69" fill="none" xmlns="http://www.w3.org/2000/svg">
<path d="M75.4445 29.8736C72.5418 30.9521 73.3207 34.0112 76.5293 33.9981C79.3783 34.0242 80.2309 30.6891 77.6844 29.4658C77.4076 29.3329 76.4398 29.5038 75.4445 29.8736ZM77.7163 32.378C77.5784 32.665 76.9699 32.6553 76.3609 32.3628C75.143 31.7778 75.3075 30.7263 76.6077 30.8563C77.576 30.9681 78.0748 31.6317 77.7163 32.378Z" fill="white"/>
<path d="M5.39473 26.5941C2.49198 27.6726 3.27091 30.7317 6.47947 30.7185C9.32851 30.7447 10.1811 27.4096 7.63461 26.1863C7.35782 26.0533 6.38996 26.2243 5.39473 26.5941ZM7.6665 29.0985C7.52862 29.3855 6.92008 29.3758 6.31113 29.0833C5.09323 28.4982 5.25767 27.4468 6.55789 27.5768C7.52615 27.6886 8.025 28.3522 7.6665 29.0985Z" fill="white"/>
<path d="M24.8258 12.0012C22.6778 12.5113 22.1222 13.6677 22.8262 16.0222C23.4982 18.302 25.7943 19.4644 28.1133 18.7399C33.0647 17.2043 29.8823 10.8127 24.8258 12.0012ZM28.85 14.9425C29.634 16.5645 29.2868 17.2873 27.4754 17.6625C25.5073 18.0811 24.2104 17.1023 23.9803 15.0347C23.7716 13.6298 23.9336 13.2925 24.842 12.9578C26.2668 12.3969 28.066 13.3205 28.85 14.9425Z" fill="white"/>
<path d="M52.7018 29.5928C50.5537 30.1028 49.9982 31.2593 50.7022 33.6138C51.3741 35.8936 53.6703 37.0559 55.9893 36.3314C60.9407 34.7959 57.7583 28.4042 52.7018 29.5928ZM56.726 32.534C57.51 34.156 57.1628 34.8788 55.3514 35.2541C53.3833 35.6726 52.0864 34.6938 51.8562 32.6262C51.6476 31.2213 51.8096 30.884 52.718 30.5494C54.1428 29.9885 55.942 30.912 56.726 32.534Z" fill="white"/>
<path d="M68.9499 56.3722C69.2311 55.7868 69.5547 55.2218 69.8843 54.6642C70.7184 53.2637 71.0504 53.0765 70.7947 52.7195C70.1088 51.7461 68.7415 54.642 68.0783 55.9535C68.0256 56.0631 68.021 56.1903 68.0655 56.3071C68.11 56.4239 68.1999 56.5207 68.3155 56.5762C68.4311 56.6318 68.5628 56.6415 68.6818 56.6032C68.8008 56.5649 68.8972 56.4818 68.9499 56.3722Z" fill="white"/>
<path d="M71.1892 56.6014C72.6187 56.1849 72.4906 56.254 73.7569 55.9302C74.3097 55.9751 74.416 55.2201 73.7409 55.094C73.3853 55.0042 72.2108 55.4036 71.8684 55.5138C70.3939 55.9943 69.5214 56.111 69.7313 56.6621C69.9413 57.2132 70.4963 56.8089 71.1892 56.6014Z" fill="white"/>
<path d="M70.0998 59.5811C74.5369 60.5419 74.5084 60.6902 74.7191 60.4492C75.3828 59.7099 73.0961 59.3319 70.2353 58.7457C70.1319 58.7463 70.0334 58.7815 69.9564 58.8453C69.8794 58.9091 69.8286 58.9976 69.8127 59.0958C69.7967 59.194 69.8166 59.296 69.8689 59.3844C69.9212 59.4729 70.0028 59.5423 70.0998 59.5811Z" fill="white"/>
<path d="M67.0095 60.3617C66.953 60.3775 66.901 60.4049 66.8571 60.4419C66.8131 60.479 66.7781 60.5249 66.7543 60.5768C66.7332 60.6207 65.1912 65.2833 65.1739 65.3291C65.1165 65.4073 65.0907 65.504 65.1013 65.6017C65.1119 65.6994 65.1581 65.7917 65.2317 65.8618C65.3052 65.9319 65.4011 65.9753 65.5022 65.9841C65.6033 65.9929 65.7027 65.9665 65.7827 65.9097C66.088 65.7187 66.3345 64.7609 66.6803 63.7248C67.2978 61.8465 68.1117 60.004 67.0095 60.3617Z" fill="white"/>
<path d="M63.6583 59.8777C63.0897 60.2709 62.5198 60.6636 61.9485 61.0556C61.6586 61.254 61.3648 61.4506 61.0728 61.6435C60.8418 61.7983 60.5951 61.9364 60.376 62.1058C60.292 62.1682 60.2141 62.2377 60.1432 62.3137C60.0228 62.436 59.9188 62.5932 60.0292 62.7587C60.0794 62.8326 60.1492 62.8925 60.2309 62.9317C60.3125 62.9709 60.4029 62.988 60.492 62.9811C60.8736 62.9573 61.5887 62.3777 62.8067 61.5714C65.4281 59.8497 66.0364 59.7097 65.6529 59.1742C65.6182 59.1135 65.5675 59.0624 65.506 59.0266C65.4446 58.9907 65.3748 58.9714 65.3044 58.9708C65.0896 59.0011 64.8878 59.0819 64.7166 59.2063C64.3505 59.3952 63.9939 59.6336 63.6583 59.8777Z" fill="white"/>
<path d="M59.8579 57.6016C60.0144 57.5822 64.1207 57.8481 64.2782 57.8562C64.3934 57.8472 64.5011 57.8024 64.5853 57.7285C64.6695 57.6547 64.7259 57.5557 64.7462 57.446C64.7665 57.3363 64.7496 57.2218 64.698 57.1192C64.6464 57.0166 64.5628 56.9314 64.4595 56.8762C63.7828 56.7819 63.1029 56.7229 62.4227 56.6992C62.8786 56.7382 60.1786 56.4993 59.6353 56.7111C59.5354 56.7526 59.4549 56.8269 59.4072 56.9214C59.3596 57.0158 59.3479 57.1246 59.3741 57.2294C59.4003 57.3342 59.4628 57.4285 59.551 57.4963C59.6391 57.5641 59.7476 57.6013 59.8579 57.6016Z" fill="white"/>
<path d="M66.1075 56.074C66.669 55.8934 66.3643 55.3913 65.6297 53.6695C65.5012 53.3737 64.8798 51.7919 64.5867 51.6511C64.4973 51.6117 64.3992 51.5976 64.304 51.6104C64.2088 51.6232 64.1205 51.6624 64.0498 51.7233C63.979 51.7842 63.9286 51.8643 63.9048 51.9539C63.8809 52.0436 63.8844 52.1391 63.915 52.229C65.5791 55.8696 65.5163 56.2672 66.1075 56.074Z" fill="white"/>
<path d="M37.4617 31.3809C37.674 30.9387 37.9185 30.512 38.1674 30.0908C38.7974 29.0331 39.0481 28.8917 38.855 28.6221C38.337 27.8869 37.3042 30.0741 36.8033 31.0646C36.7635 31.1474 36.7601 31.2435 36.7937 31.3317C36.8273 31.4199 36.8952 31.4931 36.9825 31.535C37.0698 31.5769 37.1693 31.5842 37.2592 31.5553C37.349 31.5264 37.4219 31.4637 37.4617 31.3809Z" fill="white"/>
<path d="M39.1527 31.5541C40.2324 31.2395 40.1356 31.2916 41.092 31.0471C41.5095 31.081 41.5898 30.5108 41.0799 30.4155C40.8113 30.3477 39.9243 30.6494 39.6657 30.7326C38.552 31.0955 37.893 31.1836 38.0516 31.5999C38.2101 32.0161 38.6293 31.7107 39.1527 31.5541Z" fill="white"/>
<path d="M38.3296 33.8046C41.6809 34.5302 41.6593 34.6422 41.8185 34.4602C42.3198 33.9018 40.5926 33.6163 38.432 33.1735C38.3539 33.174 38.2795 33.2006 38.2213 33.2488C38.1631 33.297 38.1248 33.3638 38.1128 33.438C38.1007 33.5122 38.1157 33.5892 38.1553 33.656C38.1948 33.7228 38.2564 33.7753 38.3296 33.8046Z" fill="white"/>
<path d="M35.9964 34.394C35.9537 34.406 35.9145 34.4266 35.8813 34.4546C35.848 34.4826 35.8216 34.5173 35.8036 34.5565C35.7877 34.5896 34.623 38.1112 34.61 38.1458C34.5666 38.2049 34.5472 38.2779 34.5552 38.3517C34.5632 38.4255 34.5981 38.4952 34.6536 38.5481C34.7092 38.6011 34.7816 38.6339 34.858 38.6405C34.9343 38.6471 35.0094 38.6272 35.0698 38.5843C35.3004 38.44 35.4866 37.7167 35.7478 36.9341C36.2141 35.5155 36.8288 34.1239 35.9964 34.394Z" fill="white"/>
<path d="M33.4653 34.0285C33.0358 34.3255 32.6053 34.6221 32.1739 34.9182C31.9549 35.068 31.733 35.2165 31.5124 35.3622C31.338 35.4791 31.1516 35.5834 30.9862 35.7114C30.9228 35.7585 30.8639 35.811 30.8104 35.8684C30.7194 35.9607 30.6409 36.0795 30.7242 36.2045C30.7622 36.2603 30.8149 36.3055 30.8766 36.3352C30.9383 36.3648 31.0065 36.3777 31.0738 36.3724C31.362 36.3545 31.9022 35.9167 32.8221 35.3078C34.8019 34.0074 35.2614 33.9017 34.9717 33.4972C34.9455 33.4513 34.9072 33.4128 34.8608 33.3857C34.8144 33.3586 34.7617 33.344 34.7085 33.3436C34.5463 33.3664 34.3939 33.4275 34.2645 33.5214C33.9881 33.6641 33.7187 33.8442 33.4653 34.0285Z" fill="white"/>
<path d="M30.5941 32.3094C30.7123 32.2947 33.8137 32.4956 33.9327 32.5017C34.0197 32.4949 34.101 32.4611 34.1646 32.4053C34.2282 32.3495 34.2708 32.2747 34.2861 32.1919C34.3015 32.109 34.2887 32.0225 34.2497 31.9451C34.2107 31.8676 34.1476 31.8033 34.0696 31.7615C33.5585 31.6903 33.045 31.6457 32.5312 31.6279C32.8756 31.6573 30.8363 31.4769 30.426 31.6369C30.3505 31.6682 30.2897 31.7243 30.2537 31.7957C30.2178 31.867 30.2089 31.9492 30.2287 32.0283C30.2485 32.1074 30.2957 32.1786 30.3623 32.2299C30.4288 32.2811 30.5108 32.3092 30.5941 32.3094Z" fill="white"/>
<path d="M35.3144 31.1556C35.7384 31.0192 35.5083 30.64 34.9535 29.3396C34.8565 29.1162 34.3871 27.9215 34.1657 27.8151C34.0982 27.7854 34.0241 27.7747 33.9522 27.7844C33.8803 27.7941 33.8137 27.8237 33.7602 27.8697C33.7067 27.9157 33.6687 27.9761 33.6507 28.0439C33.6327 28.1116 33.6353 28.1837 33.6585 28.2516C34.9153 31.0013 34.8678 31.3016 35.3144 31.1556Z" fill="white"/>
</svg>
