<svg width="172" height="41" viewBox="0 0 172 41" fill="none" xmlns="http://www.w3.org/2000/svg">
<g opacity="0.4" clip-path="url(#clip0_1_67756)">
<path d="M32.8509 0.54887C32.27 0.678004 32.0441 2.19533 32.2378 4.68115C32.3346 5.94021 32.9154 6.55359 32.9154 5.42367C32.9154 4.93942 33.0768 4.45517 33.2704 4.35832C33.7222 4.06777 33.8835 4.26147 33.9481 5.26226C33.9803 5.77879 34.3353 6.26304 34.8516 6.52131C35.3034 6.7473 35.7552 7.07013 35.8843 7.26383C36.0134 7.42525 36.1424 7.10241 36.1424 6.52131C36.1424 5.42367 36.7233 5.13312 37.401 5.94021C37.7882 6.39218 38.6918 6.39218 39.4017 5.97249C39.6276 5.81108 39.5308 5.55281 39.1758 5.13312C38.6595 4.55202 38.6918 4.51974 39.4985 4.1969C40.6925 3.74493 40.628 3.71265 40.8539 5.13312L41.0475 6.39218L41.9511 5.87564C42.4674 5.58509 42.7901 5.22997 42.6933 5.06856C42.5965 4.90714 42.4029 4.9717 42.2415 5.19769C42.0479 5.52052 41.9511 5.39139 41.9511 4.81029C41.9511 4.35832 41.8543 3.87407 41.7252 3.74493C41.5961 3.6158 41.5316 2.93785 41.5961 2.25989C41.6606 1.12997 41.5638 0.936272 40.8216 0.64572C39.9826 0.322886 33.9481 0.258319 32.8509 0.54887ZM38.2077 2.55045C38.3046 2.71186 38.1755 2.93785 37.885 3.0347C37.6269 3.13155 37.4978 3.35753 37.5946 3.55123C37.9496 4.13233 36.562 3.87407 36.0134 3.26068C35.4648 2.67958 35.4648 2.6473 36.0456 2.48588C37.046 2.22761 38.0464 2.25989 38.2077 2.55045ZM37.6914 4.42289C37.3687 4.48745 36.8524 4.48745 36.562 4.42289C36.2393 4.32604 36.4974 4.26147 37.1106 4.26147C37.7237 4.26147 37.9818 4.32604 37.6914 4.42289Z" fill="black"/>
<path d="M67.9291 2.80866C67.2192 2.87323 66.477 3.09922 66.2511 3.29292C66.0252 3.45433 65.2507 3.68032 64.4762 3.77717C63.734 3.84173 63.0563 3.97087 62.9918 4.00315C62.9595 4.06772 64.2503 4.19685 65.8961 4.32599C67.671 4.42284 69.1554 4.71339 69.6072 5.00394C70.0267 5.29449 70.3494 5.42362 70.3494 5.29449C70.3494 5.19764 70.7366 5.32677 71.1884 5.64961C71.9952 6.16614 71.9952 6.16614 71.6725 5.52048C71.1884 4.64882 71.2207 4.35827 71.7693 4.81024C72.0274 5.03622 72.2533 5.06851 72.3502 4.87481C72.4147 4.68111 73.0601 4.68111 74.1896 4.87481C75.1254 5.06851 75.9321 5.16536 75.9967 5.10079C76.0612 5.03622 75.3835 4.51969 74.5445 3.93859C72.8987 2.80866 70.898 2.45355 67.9291 2.80866ZM73.5119 3.68032C74.1896 4.03544 74.0927 4.06772 72.5438 4.03544C70.7044 3.97087 70.0267 3.74488 70.0267 3.19607C70.0267 2.77638 72.4147 3.1315 73.5119 3.68032Z" fill="black"/>
<path d="M61.4746 4.1C60.926 4.19685 60.8292 4.42283 60.926 5.81102C61.0873 8.07087 60.3129 8.49055 55.8596 8.71653L52.4389 8.87795L52.3421 10.363C52.2453 11.7835 52.2131 11.8157 51.3418 11.6866C50.8254 11.622 49.9864 11.7835 49.4701 12.0417C48.0502 12.7843 43.6292 12.7197 42.0479 11.9126C41.4025 11.5898 40.7894 11.2992 40.7571 11.2992C40.6926 11.2992 40.6603 11.9126 40.6603 12.6551C40.6603 14.7858 40.3376 15.0441 38.8532 14.2047C38.1433 13.8496 37.8528 13.5913 38.1433 13.6882C38.8855 13.9142 40.8217 11.3315 40.3054 10.8472C40.0472 10.589 39.8858 10.6213 39.789 10.9118C39.5954 11.4283 37.3365 12.5905 36.5297 12.5905C36.1748 12.5905 35.5294 12.3 35.0776 11.9449C34.0449 11.1378 33.8191 11.1378 33.0768 11.9449C32.141 12.978 29.6562 14.5276 28.914 14.5276C27.365 14.5276 25.8806 16.0772 24.3639 19.1441C22.5568 22.8244 22.1695 23.3732 21.3305 23.1472C20.8142 23.0181 20.911 23.2764 21.8791 24.6646C22.5245 25.5685 23.7185 27.5055 24.5575 28.9906C25.3643 30.4756 26.1388 31.6701 26.2678 31.6378C26.3969 31.6055 26.6228 31.7024 26.7196 31.8315C26.8487 31.9606 26.7519 31.9606 26.5583 31.8315C25.7515 31.3795 26.171 32.1543 27.4618 33.5748C28.204 34.3819 28.9463 35.0276 29.1399 35.0276C29.3335 35.0276 29.5271 35.2213 29.6239 35.4795C29.8176 36.0283 28.4945 35.6732 27.6555 34.9307C27.3327 34.6402 26.7519 34.3819 26.3969 34.3173C25.4933 34.1882 25.1384 33.8008 25.9774 33.8976C27.01 34.0268 27.1714 33.9299 26.7196 33.478C26.4292 33.1874 25.6224 33.1228 23.8798 33.2843C22.5568 33.3811 21.75 33.478 22.105 33.5102C22.4922 33.5425 22.9117 33.7039 23.0731 33.8331C23.2667 33.9945 24.3639 34.3819 25.5579 34.6724C27.1391 35.0921 27.7845 35.415 27.9459 35.8992C28.0427 36.2543 28.3009 36.448 28.4945 36.3835C28.7526 36.2866 28.8817 36.9 28.9463 38.3205C28.9463 39.4827 29.1399 40.5803 29.3335 40.774C29.5917 41.0323 29.6885 41.0323 29.6885 40.7094C29.6885 40.4835 29.8176 40.3866 29.9789 40.5157C30.1725 40.6126 30.3339 40.0638 30.3984 39.3213L30.4952 37.9331L31.2052 39.4504L31.9151 41H41.8543C49.2765 41 51.9226 40.9031 52.2131 40.6126C52.4389 40.3866 53.3102 40.1929 54.1493 40.1929H55.666L55.6337 38.8047L55.6014 37.4488H112.203H168.773L168.708 23.1472L168.612 8.87795L124.821 8.7811C83.1279 8.71653 79.4491 8.65197 81.4821 7.87716C82.0952 7.6189 82.1275 7.10236 81.5144 7.10236C81.2562 7.10236 80.9658 7.45748 80.869 7.90945L80.6753 8.71653H71.317C66.186 8.71653 61.9264 8.5874 61.8296 8.45827C61.7327 8.29685 61.8618 7.29606 62.0877 6.16614C62.5395 4.06771 62.5072 3.93858 61.4746 4.1ZM168.45 23.0827V37.126H110.525H52.6003V23.3087C52.6003 15.6898 52.6971 9.3622 52.8262 9.26535C52.923 9.13622 78.9973 9.03937 110.751 9.03937H168.45V23.0827ZM39.0468 12.6228C38.8209 12.978 38.595 13.2039 38.4982 13.1071C38.4014 13.0102 38.4982 12.7197 38.7241 12.4291C39.305 11.7512 39.4663 11.8157 39.0468 12.6228ZM35.1421 14.5598C34.884 14.7213 34.5613 14.8504 34.4322 14.8504C34.2708 14.8504 34.2386 14.9795 34.3354 15.1409C34.4322 15.3024 34.3031 15.5929 34.0449 15.8189C33.6254 16.174 33.5609 16.0449 33.5609 14.9795C33.5609 14.2693 33.6577 13.3976 33.7545 13.0102C33.9481 12.3 33.9804 12.3323 34.7872 13.2685C35.4648 14.0756 35.5294 14.3016 35.1421 14.5598ZM39.6277 15.4638C39.7245 15.722 39.5954 15.8512 39.3373 15.7543C39.1114 15.6898 38.8532 15.4315 38.7887 15.2055C38.6918 14.9472 38.8209 14.8181 39.0791 14.915C39.305 14.9795 39.5631 15.2378 39.6277 15.4638ZM37.9174 16.852L38.7241 17.5299L37.6592 19.4346C37.1106 20.4677 36.5297 21.3071 36.4329 21.3071C36.207 21.3071 34.8517 18.337 34.8517 17.885C34.8517 17.4654 36.2393 16.1417 36.6911 16.1417C36.917 16.1417 37.4656 16.4646 37.9174 16.852ZM52.2776 25.3748C52.2776 32.7031 52.3421 32.6063 49.696 28.1835C48.5988 26.3756 47.8888 24.7614 47.5984 23.4055C46.9853 20.4354 47.1466 20.1449 49.5024 19.5638C50.5673 19.3055 51.6645 19.0795 51.8903 19.0795C52.1808 19.0472 52.2776 20.5 52.2776 25.3748ZM26.3324 29.2488C26.0742 30.185 25.4933 29.9591 25.4933 28.926C25.4933 27.9898 26.2356 27.1504 26.3969 27.9252C26.4615 28.2157 26.4292 28.8291 26.3324 29.2488ZM25.1706 33.8976C25.1706 34.3173 24.8157 34.3173 24.2025 33.8976C23.8153 33.6394 23.8476 33.5748 24.4607 33.5748C24.8479 33.5748 25.1706 33.7039 25.1706 33.8976ZM30.3339 37.3197C30.3339 37.9654 30.108 37.8685 29.6885 37.126C29.398 36.6094 29.4303 36.5449 29.8498 36.674C30.108 36.8031 30.3339 37.0614 30.3339 37.3197Z" fill="black"/>
<path d="M53.4397 11.0086C53.3429 11.5575 53.2461 17.0134 53.2461 23.0827C53.2461 29.152 53.3429 34.6079 53.4397 35.1567L53.6656 36.1575H110.59C161.093 36.1575 167.515 36.0929 167.353 35.6732C167.257 35.415 167.321 35.189 167.482 35.189C167.676 35.189 167.805 30.7338 167.805 23.2441C167.805 16.3031 167.676 11.2992 167.515 11.2992C167.353 11.2992 167.289 11.0086 167.386 10.6535C167.547 10.0079 167.386 10.0079 110.59 10.0079H53.6656L53.4397 11.0086ZM139.02 10.5567C123.466 10.6212 97.908 10.6212 82.2247 10.5567C66.5414 10.5244 79.2881 10.4921 110.526 10.4921C141.763 10.4921 154.574 10.5244 139.02 10.5567ZM138.859 11.2024C123.401 11.2669 97.9725 11.2669 82.3861 11.2024C66.7996 11.1701 79.4817 11.1378 110.526 11.1378C141.602 11.1378 154.349 11.1701 138.859 11.2024ZM138.697 11.848C123.337 11.9126 98.0694 11.9126 82.5474 11.848C67.0577 11.8157 79.6431 11.7835 110.526 11.7835C141.408 11.7835 154.09 11.8157 138.697 11.848ZM166.74 12.8165C166.869 13.1071 166.773 13.4299 166.579 13.4945C166.288 13.5913 166.192 16.1094 166.192 23.1795V32.7677H110.364H54.5369V23.2441C54.5369 18.0142 54.4401 13.3976 54.3433 12.9779L54.1497 12.2677H110.332C162.803 12.2677 166.547 12.3 166.74 12.8165ZM166.74 17.8205C166.643 18.0787 166.547 17.9819 166.547 17.6268C166.514 17.2716 166.611 17.0779 166.708 17.2071C166.805 17.3039 166.837 17.5945 166.74 17.8205ZM166.74 24.9228C166.643 25.1811 166.547 25.0842 166.547 24.7291C166.514 24.374 166.611 24.1803 166.708 24.3094C166.805 24.4063 166.837 24.6968 166.74 24.9228ZM166.74 33.7362C166.547 34.1559 160.803 34.2205 110.493 34.1559C66.0574 34.0913 54.4078 33.9622 54.311 33.6716C54.1819 33.3488 65.6378 33.252 110.429 33.1874C141.376 33.1228 166.74 33.1228 166.805 33.1551C166.869 33.1874 166.837 33.4457 166.74 33.7362ZM166.676 35.189C166.805 35.415 148.056 35.5118 110.719 35.5118C73.4795 35.5118 54.5369 35.415 54.5369 35.189C54.5369 34.963 73.4149 34.8661 110.493 34.8661C147.475 34.8661 166.547 34.963 166.676 35.189Z" fill="black"/>
<path d="M102.167 18.111C100.586 18.563 99.7146 19.6283 99.7146 21.1779C99.7146 22.3079 99.8759 22.6953 100.779 23.4378C101.36 23.9543 102.361 24.6646 103.038 25.0197C104.426 25.7622 104.716 26.2787 104.039 26.9567C102.909 28.0543 100.295 26.9244 99.7468 25.1165C99.4887 24.148 99.4564 24.2126 99.4241 25.9559C99.3919 27.6024 99.4564 27.7961 99.8759 27.4409C100.263 27.1181 100.554 27.1181 101.199 27.4087C103.038 28.2157 106.04 27.5701 106.814 26.1819C107.363 25.1488 107.201 23.4378 106.459 22.663C106.104 22.2433 105.007 21.4685 104.039 20.9197C102.651 20.1449 102.296 19.7898 102.361 19.2409C102.425 18.7244 102.716 18.5307 103.522 18.4661C104.813 18.337 106.04 19.0795 106.588 20.274C106.943 21.1457 106.943 21.1134 107.072 19.7252C107.201 18.111 107.072 17.9173 106.265 18.337C105.943 18.5307 105.459 18.563 105.201 18.4338C104.329 17.9496 103.103 17.8205 102.167 18.111ZM103.91 21.2102C106.136 22.5338 106.814 23.3732 106.782 24.6646L106.717 25.6653L106.588 24.6968C106.395 23.4378 105.814 22.8244 103.555 21.4362C101.877 20.4354 101.102 19.4024 101.619 18.8858C101.715 18.7567 101.877 19.015 101.973 19.4346C102.103 19.8866 102.813 20.5646 103.91 21.2102Z" fill="black"/>
<path d="M59.6357 18.337C59.8616 18.4985 60.7329 20.5646 61.6042 22.9536L63.1531 27.2796L64.3149 27.3764C65.4443 27.4733 65.5089 27.4087 66.477 25.504C67.0255 24.4063 67.5419 23.567 67.6387 23.6315C67.7032 23.7284 68.0259 24.5678 68.3486 25.5363C68.9295 27.1504 69.0263 27.2796 70.0912 27.3764L71.2207 27.4733L72.931 23.5993C73.8668 21.4685 74.8995 19.467 75.2222 19.1764C76.158 18.337 75.9644 18.0788 74.3831 18.0788C72.9633 18.0788 72.4469 18.4662 73.415 18.8536C73.6732 18.9504 73.8991 19.3055 73.8991 19.6607C73.8991 20.4355 72.5437 23.8898 72.221 23.8898C72.1242 23.8898 71.6079 22.6953 71.1561 21.2748C70.4139 19.1118 70.3494 18.5953 70.7043 18.3693C70.9948 18.2079 70.0267 18.0788 68.2841 18.0788C66.0574 18.0788 65.5089 18.1756 65.7347 18.4662C65.9284 18.6922 66.3479 19.7575 66.7028 20.8229C67.1869 22.2756 67.2514 22.9536 67.0255 23.5024C66.8319 23.8898 66.606 24.2126 66.5092 24.2126C66.1543 24.2126 64.4762 19.0473 64.6698 18.563C64.7989 18.1433 64.3471 18.0788 62.0237 18.0788C60.4747 18.0788 59.4098 18.2079 59.6357 18.337ZM65.1539 21.9851C66.0897 24.5678 66.3479 25.4717 66.0252 25.1489C65.9284 25.0843 65.3475 23.567 64.7021 21.7914C64.0567 20.0158 63.6695 18.7244 63.8308 18.8859C63.9922 19.0796 64.6053 20.4678 65.1539 21.9851ZM70.9948 21.8882C71.5756 23.5347 71.9629 24.9552 71.8661 25.052C71.7047 25.2134 69.704 19.4992 69.704 18.9181C69.704 18.3048 69.9944 18.9504 70.9948 21.8882Z" fill="black"/>
<path d="M108.944 18.563C108.654 18.8536 108.428 19.2087 108.428 19.3378C108.428 20.3386 111.203 20.7583 111.558 19.8221C112.042 18.4985 109.977 17.53 108.944 18.563ZM111.235 19.4347C111.138 19.6929 111.042 19.5961 111.042 19.241C111.009 18.8859 111.106 18.6922 111.203 18.8213C111.3 18.9181 111.332 19.2087 111.235 19.4347Z" fill="black"/>
<path d="M117.237 18.4338C117.625 18.6598 117.786 19.1764 117.786 20.3386V21.9527L116.431 21.759C113.914 21.4039 112.397 23.5669 113.397 25.9882C114.01 27.4086 114.785 27.796 116.882 27.6346C117.818 27.5701 119.141 27.4732 119.819 27.4732L121.013 27.4409V22.7598V18.0787H118.851C117.205 18.111 116.786 18.1756 117.237 18.4338ZM120.271 24.9228C120.239 26.2142 120.174 25.2456 120.174 22.7598C120.174 20.274 120.206 19.2086 120.271 20.4031C120.335 21.5976 120.335 23.6315 120.271 24.9228ZM116.076 25.8913C116.011 26.6661 115.947 26.1173 115.947 24.6968C115.947 23.2764 116.011 22.663 116.076 23.3086C116.14 23.9866 116.14 25.1488 116.076 25.8913ZM117.721 24.5031C117.818 26.4724 117.56 27.0858 116.753 27.1181C116.592 27.1181 116.495 26.0205 116.495 24.6645C116.495 22.5338 116.56 22.2433 117.076 22.3401C117.528 22.437 117.657 22.8567 117.721 24.5031Z" fill="black"/>
<path d="M134.019 18.3047C134.503 18.4338 134.567 18.9181 134.567 22.7598C134.567 26.6015 134.503 27.0858 134.019 27.2149C133.696 27.3118 134.89 27.3764 136.665 27.3764C138.44 27.3764 139.634 27.3118 139.343 27.2149C138.859 27.0858 138.762 26.6984 138.762 24.9874C138.762 22.9858 138.794 22.8889 139.504 22.9858C140.118 23.0826 140.247 23.3086 140.376 24.9551C140.505 26.311 140.731 26.9889 141.182 27.3118C142.344 28.1512 144.571 27.7638 145.023 26.6015C145.152 26.2141 145.087 26.1173 144.732 26.2787C144.345 26.4078 144.248 26.1819 144.248 25.0197C144.248 23.9543 144.087 23.5023 143.603 23.1472L142.957 22.6952L143.603 22.1141C144.248 21.5008 144.474 19.8866 143.99 19.1118C143.506 18.3693 141.57 18.0787 137.471 18.111C135.245 18.1433 133.696 18.2078 134.019 18.3047ZM139.988 18.7889C140.505 19.3055 140.505 21.6945 139.988 22.211C139.085 23.1149 138.762 22.6307 138.762 20.5C138.762 18.3693 139.085 17.885 139.988 18.7889ZM138.343 25.0842C138.278 26.311 138.246 25.3102 138.246 22.9212C138.246 20.5323 138.278 19.5315 138.343 20.726C138.407 21.9527 138.407 23.8897 138.343 25.0842ZM143.925 20.3386C143.925 20.8551 143.829 21.3393 143.7 21.4039C143.538 21.5008 143.441 21.0165 143.441 20.3386C143.409 19.6606 143.538 19.1763 143.667 19.2409C143.796 19.3378 143.925 19.822 143.925 20.3386ZM143.861 25.5362L143.764 26.9567L143.603 25.2779C143.506 24.3417 143.57 23.7283 143.7 23.8575C143.861 24.0189 143.925 24.7614 143.861 25.5362Z" fill="black"/>
<path d="M92.6156 19.8544C92.3897 20.2741 91.5829 20.952 90.873 21.3071C90.1308 21.6623 89.7435 21.9528 89.9694 21.9528C90.2276 21.9528 90.3566 22.6953 90.3566 24.5355C90.3566 27.0536 90.3889 27.1505 91.2279 27.4733C92.7769 28.0544 94.9067 27.0213 94.8745 25.6654C94.8745 25.504 94.7131 25.6008 94.5195 25.8914C93.9064 26.989 93.5837 26.4402 93.5837 24.2449C93.5837 22.7599 93.7127 21.9528 94.0032 21.856C94.3259 21.7268 94.3259 21.6623 94.0032 21.6623C93.745 21.63 93.5837 21.1457 93.5837 20.3386C93.5837 18.8536 93.2287 18.6922 92.6156 19.8544ZM93.1642 25.0843C93.0996 26.1174 93.0673 25.3426 93.0673 23.4056C93.0673 21.4363 93.0996 20.5969 93.1642 21.5331C93.2287 22.4694 93.2287 24.0512 93.1642 25.0843Z" fill="black"/>
<path d="M159.382 20.8874C159.157 21.2102 159.092 21.3716 159.221 21.2425C159.382 21.1134 159.673 21.2102 159.866 21.5008C160.318 22.1141 161.415 21.759 161.286 21.0165C161.157 20.274 159.931 20.2094 159.382 20.8874Z" fill="black"/>
<path d="M76.9316 22.0819C74.9631 22.9535 74.35 24.7614 75.5117 26.2464C76.8993 28.022 80.0295 28.0866 81.514 26.4079L82.1271 25.6976L80.9654 26.4079C80.32 26.7953 79.4809 27.1181 79.0937 27.1181C78.5128 27.1181 78.416 26.9244 78.416 25.8267V24.5354H80.1909C81.2235 24.5354 81.9657 24.4063 81.9657 24.1803C81.9657 23.0181 80.1586 21.6299 78.6742 21.6299C78.2547 21.6622 77.4802 21.8559 76.9316 22.0819ZM79.6423 23.1795C79.7391 24.0512 79.6423 24.2126 79.0937 24.2126C78.5451 24.2126 78.416 24.0189 78.416 23.0504C78.416 22.1464 78.5128 21.9204 78.9969 22.0173C79.3519 22.0819 79.5778 22.4693 79.6423 23.1795ZM78.0933 24.7614C78.0933 26.5047 77.9965 27.1181 77.7706 26.7953C77.222 25.9236 77.3834 22.2756 77.9965 22.2756C78.0611 22.2756 78.0933 23.4055 78.0933 24.7614ZM81.4494 23.7606C81.5462 24.0189 81.514 24.148 81.3203 24.0512C81.1267 23.9543 80.9976 23.7283 80.9976 23.5346C80.9976 23.0827 81.2235 23.1795 81.4494 23.7606Z" fill="black"/>
<path d="M84.2248 22.0173C83.8053 22.2756 83.2889 22.8567 83.1276 23.341C82.8694 24.0512 82.934 24.3418 83.5794 25.0197C83.9666 25.4394 84.8056 25.9559 85.3865 26.1496C86.8386 26.6339 86.9032 27.6024 85.451 27.3118C84.2893 27.0858 83.6116 26.6016 83.2567 25.6654C83.0308 25.1811 82.9662 25.3748 82.9662 26.4402C82.934 27.6347 82.9985 27.7961 83.3857 27.4732C83.7407 27.1504 84.0311 27.1504 84.5797 27.441C85.5478 27.9898 88.0972 27.667 88.6458 26.9244C89.3235 25.9882 89.1298 24.9551 88.194 24.2772C86.8064 23.3087 85.1929 22.5662 85.1929 22.889C85.1929 23.0504 85.6447 23.341 86.161 23.5669C87.6454 24.1803 88.7426 25.1488 88.7426 25.8268C88.7426 26.1496 88.6135 26.5047 88.4844 26.6016C88.3553 26.6662 88.2263 26.3756 88.2585 25.9236C88.2585 25.2457 87.9681 24.9229 86.8064 24.3095C84.8702 23.2764 84.6765 23.0504 85.1929 22.437C85.7737 21.7268 87.0968 22.0819 88.0004 23.1795L88.7426 24.0512V23.0504C88.7426 22.211 88.6135 22.0173 88.0326 22.0173C87.6131 22.0173 86.7741 21.9205 86.161 21.8236C85.451 21.6945 84.7088 21.7591 84.2248 22.0173Z" fill="black"/>
<path d="M108.041 21.8559C108.299 21.9527 108.428 22.8567 108.428 24.7291V27.4409H110.138H111.817L111.72 24.5354L111.623 21.6299L109.622 21.6622C108.525 21.6622 107.815 21.759 108.041 21.8559ZM111.236 25.8913C111.171 26.6661 111.107 26.0527 111.107 24.5354C111.107 23.0181 111.171 22.4047 111.236 23.1472C111.3 23.922 111.3 25.1488 111.236 25.8913Z" fill="black"/>
<path d="M123.982 22.1141C122.562 22.7275 121.787 24.5031 122.368 25.7622C122.594 26.2464 123.336 26.8921 124.014 27.2472C125.531 27.9897 127.112 27.7315 128.338 26.6015L129.242 25.7622L128.177 26.4724C126.628 27.5055 125.724 27.2472 125.595 25.7299L125.498 24.5354H127.467H129.435L128.951 23.6315C128.693 23.1149 128.241 22.5338 127.983 22.3078C127.209 21.6622 125.176 21.5653 123.982 22.1141ZM126.821 23.0827C126.821 23.9866 126.692 24.2126 126.176 24.2126C125.692 24.2126 125.531 23.9866 125.531 23.3086C125.531 22.2756 125.757 21.9527 126.402 21.9527C126.66 21.9527 126.821 22.3401 126.821 23.0827ZM125.111 25.8913C125.047 26.6661 124.982 26.1173 124.982 24.6968C124.982 23.2764 125.047 22.663 125.111 23.3086C125.176 23.9866 125.176 25.1488 125.111 25.8913ZM128.693 24.0512C128.596 24.148 128.403 23.9866 128.306 23.6638C128.112 23.2118 128.145 23.1795 128.467 23.4701C128.693 23.696 128.79 23.9543 128.693 24.0512Z" fill="black"/>
<path d="M147.248 22.1142C146.377 22.7276 146.313 23.3087 147.022 23.9221C147.474 24.2772 147.442 24.3741 146.667 24.7615C146.022 25.1166 145.861 25.4394 145.925 26.0851C146.054 27.3119 147.507 27.9575 149.023 27.5056C149.798 27.2473 150.346 27.2473 150.766 27.4733C151.54 27.893 153.089 27.5701 153.67 26.8599C153.961 26.5048 153.993 26.4079 153.702 26.6016C153.38 26.7631 153.283 26.3756 153.283 24.9229C153.283 22.4371 152.702 21.856 149.959 21.6945C148.475 21.63 147.765 21.7268 147.248 22.1142ZM149.991 23.3733C150.088 24.4064 150.024 24.6001 149.572 24.4064C149.281 24.3095 148.894 24.2127 148.733 24.2127C148.539 24.2127 148.571 23.9221 148.765 23.5347C149.055 23.0505 149.023 22.7599 148.733 22.3725C148.378 21.9528 148.41 21.9205 149.088 22.0174C149.765 22.0819 149.927 22.3079 149.991 23.3733ZM148.346 23.3087C148.249 23.567 148.152 23.4701 148.152 23.115C148.12 22.7599 148.216 22.5662 148.313 22.6953C148.41 22.7922 148.442 23.0827 148.346 23.3087ZM152.928 25.1812C152.896 27.3119 152.734 26.989 152.541 24.4386C152.476 23.4056 152.541 22.7599 152.67 22.9859C152.831 23.2119 152.928 24.2127 152.928 25.1812ZM148.346 26.5371C148.281 26.9568 148.216 26.6985 148.216 25.9882C148.184 25.278 148.249 24.9552 148.346 25.2457C148.41 25.5686 148.41 26.1497 148.346 26.5371ZM149.991 25.8914C149.927 26.5694 149.733 26.9568 149.41 26.9568C149.088 26.9568 148.894 26.5694 148.83 25.8914C148.733 25.0197 148.83 24.8583 149.41 24.8583C149.991 24.8583 150.088 25.0197 149.991 25.8914Z" fill="black"/>
<path d="M156.188 21.8559C154.542 22.5016 154.09 24.0512 155.252 25.1488C155.897 25.7299 155.897 25.7945 155.349 26.0851C154.897 26.3433 154.736 26.8599 154.703 27.9898C154.639 29.7977 155.22 30.7016 156.478 30.637C157.156 30.6047 157.188 30.5725 156.672 30.4433C155.833 30.2173 155.22 29.7331 155.22 29.2488C155.22 28.8292 158.995 28.7646 159.641 29.152C160.157 29.4748 159.834 30.2819 159.157 30.4433C158.769 30.5402 158.834 30.6047 159.35 30.637C160.318 30.6693 161.674 29.3134 161.674 28.2803C161.674 27.0536 160.544 26.4725 158.221 26.4725C157.091 26.4725 156.188 26.3433 156.188 26.1496C156.188 25.9559 156.51 25.8268 156.93 25.8268C157.608 25.8268 157.64 25.7299 157.543 23.8575C157.414 22.0819 157.479 21.9205 158.027 22.0173C158.769 22.1465 159.028 24.6323 158.382 25.4071C157.995 25.8914 158.092 25.9236 159.221 25.7299C161.641 25.3425 162.351 23.7606 160.641 22.5016C159.77 21.8559 157.124 21.4685 156.188 21.8559ZM157.059 24.7614C156.995 25.278 156.93 24.8583 156.93 23.8898C156.93 22.9213 156.995 22.5016 157.059 22.9858C157.124 23.5024 157.124 24.2772 157.059 24.7614ZM161.061 24.4386C160.77 24.9229 160.738 24.826 160.738 23.8898C160.738 22.9536 160.77 22.8567 161.061 23.3087C161.286 23.6961 161.286 24.0835 161.061 24.4386ZM161.351 28.474C161.351 28.7646 161.254 29.0874 161.125 29.152C160.964 29.2488 160.867 28.8292 160.835 28.2158C160.835 27.5378 160.931 27.2473 161.093 27.5055C161.222 27.7315 161.351 28.1835 161.351 28.474Z" fill="black"/>
<path d="M72.8983 5.55273C73.2855 6.06926 73.2532 6.13383 72.8015 6.13383C72.4788 6.13383 72.3497 6.26296 72.4465 6.45667C72.7369 6.90863 73.1564 6.84407 73.35 6.32753C73.4469 6.06926 73.2855 5.68186 72.9951 5.42359C72.511 5.03619 72.4788 5.06848 72.8983 5.55273Z" fill="black"/>
<path d="M41.6289 6.58588C41.6289 6.87643 41.7903 7.10242 41.9516 7.10242C42.1452 7.10242 42.2743 6.97328 42.2743 6.81187C42.2743 6.61816 42.1452 6.39218 41.9516 6.29533C41.7903 6.19848 41.6289 6.32761 41.6289 6.58588Z" fill="black"/>
<path d="M40.6602 8.07091C40.6602 8.4906 40.8215 8.65201 41.1442 8.52288C41.5315 8.36146 41.5637 8.20004 41.2733 7.87721C40.7892 7.26382 40.6602 7.29611 40.6602 8.07091Z" fill="black"/>
<path d="M35.3035 8.42597C35.239 8.5551 35.3035 8.78108 35.4971 8.87793C35.6907 9.00707 35.7553 9.55589 35.6262 10.2016C35.4326 11.2346 35.4971 11.2992 36.2716 11.2992C36.7234 11.2992 37.1429 11.1378 37.1752 10.9764C37.3043 10.0724 37.2397 9.84644 36.8202 9.84644C36.562 9.84644 36.3039 9.65274 36.2393 9.42675C36.1425 9.20077 36.3684 9.03935 36.7557 9.03935C37.1429 9.03935 37.4333 8.91022 37.4333 8.7488C37.4333 8.39368 35.5294 8.10313 35.3035 8.42597Z" fill="black"/>
<path d="M14.1992 20.952C15.7159 21.2748 16.9744 21.5008 17.0389 21.4685C17.2648 21.2748 14.9091 20.6937 13.2311 20.5323C11.7789 20.4031 11.9403 20.4677 14.1992 20.952Z" fill="black"/>
<path d="M9.3584 20.9197C9.3584 21.0811 9.81018 21.1457 10.3265 21.0489C10.8751 20.9843 11.2946 20.8552 11.2946 20.7906C11.2946 20.726 10.8751 20.6615 10.3265 20.6615C9.81018 20.6615 9.3584 20.7906 9.3584 20.9197Z" fill="black"/>
<path d="M18.362 22.1141C18.9429 22.3724 19.5238 22.5984 19.6528 22.5984C20.0724 22.5661 18.2007 21.6622 17.7489 21.6622C17.4907 21.6622 17.7489 21.8559 18.362 22.1141Z" fill="black"/>
<path d="M7.48624 23.3409C7.4217 24.5354 7.32489 24.5999 5.42095 25.5362C4.25922 26.0527 3.80744 26.3755 4.35603 26.2787C4.90462 26.1496 5.48549 25.9559 5.67911 25.7944C5.84046 25.6653 6.29224 25.6007 6.67948 25.6976C7.48624 25.9236 7.7444 27.1181 7.7444 30.9275C7.7444 33.3165 7.84121 33.7362 8.58342 34.737C9.06747 35.3503 9.5838 35.8346 9.80969 35.8023C10.0356 35.8023 10.0033 35.7055 9.74515 35.6086C8.80931 35.2535 8.0671 32.9936 8.03483 30.4433C8.00256 27.344 7.55078 21.6621 7.48624 23.3409ZM7.26035 25.181C7.16353 25.3425 6.8731 25.5039 6.67948 25.5039C6.45359 25.5039 6.48586 25.3747 6.77629 25.181C7.38943 24.7936 7.51851 24.7936 7.26035 25.181Z" fill="black"/>
<path d="M2.4848 28.926C2.64615 30.2819 2.54934 30.4433 0.451782 31.8961C0.0968105 32.1221 0.290432 32.0898 0.839024 31.8315C1.38762 31.5733 2.00075 31.1213 2.22664 30.863C2.71069 30.2819 3.42064 30.1851 3.71107 30.6693C4.35647 31.7347 2.32345 33.7685 0.742214 33.6394C0.322702 33.6071 0 33.704 0 33.8654C0 34.0268 0.354972 34.1237 0.806754 34.0591C1.25854 34.0268 1.61351 34.0914 1.61351 34.1882C1.61351 34.3174 1.8394 34.7048 2.09756 35.0599C2.54934 35.641 2.58161 35.641 2.45253 34.8662C2.32345 33.8977 3.13021 32.9292 3.54972 33.5426C3.71107 33.8331 3.87242 33.8654 4.0015 33.6071C4.3242 33.0906 5.16323 33.1874 5.16323 33.7363C5.16323 33.9945 5.32458 34.2205 5.48593 34.2205C5.67955 34.2205 5.80863 34.4142 5.80863 34.6725C5.80863 34.9307 6.00225 35.189 6.19587 35.2536C6.42176 35.3504 6.61539 35.6733 6.61539 36.0284C6.61539 36.4158 6.80901 36.6095 7.13171 36.5449C7.6803 36.4804 8.80976 38.3205 8.51933 38.8048C8.42251 38.9339 8.61614 38.9662 8.90657 38.837C9.29381 38.7079 9.39062 38.7402 9.22927 38.9985C9.06792 39.2567 9.22927 39.3859 9.64878 39.3859C10.036 39.3859 10.3265 39.2244 10.3265 39.0307C10.3265 38.837 9.32608 37.3197 8.06754 35.641C6.84128 33.9945 5.80863 32.5095 5.80863 32.3481C5.80863 32.2189 5.29231 31.6055 4.6469 31.0567C4.03377 30.5079 3.22702 29.4748 2.90432 28.8292L2.29118 27.6024L2.4848 28.926ZM4.42101 32.8323C4.13058 33.1229 3.80788 33.2843 3.6788 33.1874C3.3561 32.8646 3.87242 32.2835 4.45328 32.2835C4.93734 32.2835 4.93734 32.3158 4.42101 32.8323Z" fill="black"/>
<path d="M10.4881 33.5748L9.19727 33.8007L10.4881 33.833C11.198 33.8653 12.0048 33.7362 12.2629 33.5748C12.8438 33.1874 12.5856 33.1874 10.4881 33.5748Z" fill="black"/>
<path d="M13.9733 33.7362C13.6829 34.059 14.0056 34.1236 15.7482 33.9622C18.9752 33.7362 19.6206 33.3165 16.7808 33.3165C15.1996 33.3165 14.2315 33.4456 13.9733 33.7362Z" fill="black"/>
<path d="M20.685 34.8661C19.7492 35.3504 18.3938 35.8669 17.7161 35.9638C16.3608 36.1898 14.5214 37.0614 13.2306 38.0945L12.4238 38.7724L13.3274 38.385C13.8114 38.1591 14.1987 37.8685 14.1987 37.7071C14.1987 37.578 14.2955 37.4811 14.4568 37.5134C14.5859 37.5457 15.0054 37.4165 15.425 37.1906C16.0058 36.8354 16.1349 36.8677 16.1349 37.2874C16.1349 37.9976 16.0058 38.2559 15.7477 38.1913C15.5863 38.1268 15.4895 38.2236 15.4895 38.4173C15.4895 38.5787 15.0377 39.2567 14.4568 39.9346C13.4565 41.1614 13.4565 41.1614 14.8764 39.7732C15.6831 39.0307 16.5544 38.4173 16.8771 38.4173C17.1675 38.4173 17.7484 38.9984 18.1356 39.7087C18.5552 40.4189 19.0392 41 19.2651 41C19.9105 41 21.4272 40.322 21.6854 39.9346C21.8467 39.6764 22.1049 39.6764 22.6535 39.9346C23.557 40.3866 26.1064 40.9677 26.8809 40.9354C27.4617 40.9031 27.6876 40.0315 27.1068 40.0315C26.9454 40.0315 26.8163 39.7087 26.8163 39.3213C26.8486 37.5134 26.5904 37.1583 25.0415 36.8031L23.912 36.5449L25.0415 38.2236C25.6546 39.1276 25.9773 39.9346 25.7837 39.9992C25.5901 40.0638 24.6865 39.289 23.7507 38.2882C22.8471 37.2874 21.879 36.4803 21.6208 36.4803C21.2981 36.4803 21.2659 36.3835 21.4917 36.1575C21.7176 35.9315 22.1371 35.8992 22.7826 36.1252C23.7184 36.448 23.7184 36.448 23.0084 35.9638C21.6854 35.0276 22.234 34.8339 23.8797 35.6732C24.751 36.1252 25.6869 36.4803 25.945 36.4803C26.2355 36.4803 26.5904 36.7709 26.7841 37.126C26.9777 37.4811 27.0422 37.7717 26.9131 37.7717C26.7841 37.7717 26.9454 38.0622 27.2681 38.4173C27.5908 38.7724 27.7199 39.063 27.5585 39.063C27.3972 39.063 27.4295 39.1921 27.5908 39.3213C27.7844 39.4504 28.1071 39.9024 28.3008 40.3543C28.9139 41.6457 28.7848 40.2898 28.2039 38.8693C27.8812 38.1591 27.5585 37.1906 27.4617 36.674C27.2681 35.8669 26.9777 35.6409 25.2674 35.0598C24.1702 34.6724 23.1698 34.285 23.0407 34.1236C22.718 33.8008 22.6857 33.8331 20.685 34.8661ZM25.6546 35.8346C25.7514 36.0283 25.6223 36.0606 25.3642 35.9638C24.7833 35.7378 24.6865 35.5118 25.1383 35.5118C25.3319 35.5118 25.5578 35.6409 25.6546 35.8346ZM20.8141 36.4803C20.9432 36.674 20.6527 37.126 20.1687 37.5134C19.4265 38.0945 19.3296 38.3205 19.5233 39.515L19.6846 40.8386L19.2651 39.8701C18.7165 38.7079 18.8779 37.126 19.6201 36.5449C20.2332 36.0606 20.5559 36.0606 20.8141 36.4803ZM21.6208 38.8047C21.6208 38.9661 21.4595 39.063 21.2659 39.063C21.1045 39.063 21.04 38.9016 21.1368 38.7402C21.2336 38.5465 21.169 38.4173 21.0077 38.4173C20.8141 38.4173 20.6527 38.1591 20.6527 37.8685C20.6527 37.3843 20.7173 37.4165 21.1368 37.9654C21.3949 38.2882 21.6208 38.6756 21.6208 38.8047ZM25.6546 37.8039C26.0096 38.3528 25.6223 38.4819 25.1705 37.9331C24.9124 37.6425 24.9124 37.4488 25.106 37.4488C25.2996 37.4488 25.5578 37.6102 25.6546 37.8039Z" fill="black"/>
<path d="M10.8426 35.0276C10.4876 35.2859 10.3585 35.5118 10.5199 35.5118C10.7135 35.5118 11.133 35.2859 11.488 35.0276C11.8107 34.7693 11.972 34.5756 11.7784 34.5756C11.617 34.5756 11.1653 34.7693 10.8426 35.0276Z" fill="black"/>
<path d="M1.61351 36.6418C2.58162 37.6103 3.45291 38.4174 3.51745 38.4174C3.61426 38.4174 2.90432 37.6103 1.93621 36.6418C0.968108 35.6733 0.0968131 34.8662 0.0322727 34.8662C-0.0645378 34.8662 0.645406 35.6733 1.61351 36.6418Z" fill="black"/>
<path d="M3.96891 37.9654C4.25935 38.3205 4.45297 38.7079 4.35616 38.8048C4.25935 38.9016 4.77567 39.4827 5.55015 40.0638C6.32464 40.6772 6.74415 40.9032 6.48599 40.5803C6.2601 40.2898 6.16329 40.0315 6.29237 40.0315C6.42145 40.0315 6.35691 39.8055 6.13102 39.5473C5.90512 39.289 5.61469 39.1599 5.45334 39.2567C5.29199 39.3536 5.16291 39.2567 5.16291 39.063C5.16291 38.8693 5.00156 38.8048 4.77567 38.9339C4.54978 39.063 4.51751 39.0307 4.64659 38.8048C4.77567 38.6111 5.09837 38.5465 5.3888 38.6433C5.74377 38.7725 5.84058 38.7402 5.67923 38.4496C5.55015 38.2237 5.25972 38.1268 5.0661 38.1914C4.84021 38.2559 4.38843 38.0945 4.03345 37.804C3.38805 37.2874 3.38805 37.2874 3.96891 37.9654Z" fill="black"/>
<path d="M11.5849 39.289C11.1654 39.8055 11.1977 39.8378 11.714 39.4181C12.2303 38.9985 12.3917 38.7402 12.1335 38.7402C12.069 38.7402 11.8108 38.9985 11.5849 39.289Z" fill="black"/>
<path d="M7.6159 39.4826C7.71271 39.8055 7.90633 39.9669 8.00314 39.87C8.09995 39.7732 8.00314 39.5149 7.77725 39.2889C7.45455 38.9984 7.42228 39.0307 7.6159 39.4826Z" fill="black"/>
<path d="M10.5523 40.0638C10.7782 40.2898 11.0363 40.3866 11.1331 40.2898C11.2299 40.1929 11.0686 39.9992 10.7459 39.9024C10.2941 39.7086 10.2618 39.7409 10.5523 40.0638Z" fill="black"/>
</g>
<defs>
<clipPath id="clip0_1_67756">
<rect width="172" height="41" fill="white"/>
</clipPath>
</defs>
</svg>
