<svg width="72" height="72" viewBox="0 0 72 72" fill="none" xmlns="http://www.w3.org/2000/svg">
<g clip-path="url(#clip0_1_80819)">
<path d="M13.9934 57.0197C20.5336 63.5616 28.7086 66.0005 35.6657 66.0005C44.1422 66.0005 52.6765 62.5718 57.9825 56.4746C63.2893 50.3775 66.0001 42.7018 66.0001 31.8276V4.99976H39.1794C28.1211 4.99976 21.0502 8.38546 17.2926 10.896C13.4058 13.507 6.50677 20.4937 5.20137 31.8556C4.16874 40.8077 7.10894 50.1475 13.9934 57.0191" fill="#00A687"/>
<path d="M48.4884 38.8143C48.0724 38.5991 47.6708 38.4843 47.2836 38.4843C46.9251 38.4843 46.6382 38.5561 46.4087 38.6995C46.1792 38.843 45.9641 39.1012 45.7346 39.4886L44.0995 42.3291L42.4932 39.3021C42.2207 38.757 41.776 38.4844 41.1593 38.4844C40.7577 38.4844 40.2701 38.6135 39.7107 38.8574L42.6222 44.1655L39.3377 49.7462H41.819L43.9417 46.0592L45.6485 48.9141C45.8636 49.2871 46.1075 49.5597 46.3513 49.7032C46.5951 49.8466 46.925 49.9327 47.3123 49.9327C47.7139 49.9327 48.1585 49.8466 48.6175 49.6888L45.376 44.0938L48.4884 38.8143ZM36.9716 47.9671H33.4289V44.8827H36.9429V43.1037H33.4289V40.3493H36.699C37.201 40.3493 37.5739 40.2632 37.7891 40.0767C38.0042 39.9045 38.119 39.6033 38.119 39.1729C38.119 38.929 38.1046 38.7281 38.0759 38.556H31.1628V49.7464H38.3485C38.3628 49.646 38.3628 49.5599 38.3772 49.4739C38.3772 49.3878 38.3915 49.2874 38.3915 49.1582C38.3915 48.7852 38.2768 48.484 38.033 48.2831C37.7461 48.0679 37.4162 47.9675 36.9716 47.9675L36.9716 47.9671ZM21.9544 38.5561C21.5241 38.5561 21.1799 38.6708 20.9218 38.886C20.6636 39.1012 20.5345 39.4025 20.5345 39.7611C20.5345 40.005 20.5489 40.2346 20.5775 40.4354H24.0484V49.746H26.3433V40.4354H28.4373C28.8676 40.4354 29.1975 40.335 29.4413 40.1198C29.6851 39.9189 29.7998 39.632 29.7998 39.2734C29.7998 39.0295 29.7855 38.7856 29.7568 38.5561H21.9544ZM52.7767 41.3535C52.834 41.3105 52.8914 41.2531 52.9488 41.1814C53.0062 41.1096 53.0348 41.0379 53.0635 40.9518C53.0922 40.8657 53.1066 40.7653 53.1066 40.6506C53.1066 40.378 53.0205 40.1771 52.834 40.0337C52.6476 39.9046 52.3607 39.8328 51.9591 39.8328C51.8587 39.8328 51.744 39.8328 51.6149 39.8472C51.4858 39.8615 51.3568 39.8615 51.2277 39.8759V42.6303H51.8014V41.5831H52.0309L52.5042 42.3864C52.5615 42.4869 52.6189 42.5586 52.6906 42.6016C52.7623 42.6447 52.8484 42.6734 52.9488 42.6734C53.0062 42.6734 53.0492 42.659 53.1209 42.659C53.1783 42.6447 53.2357 42.6303 53.2787 42.6016L52.5902 41.4539C52.6476 41.4396 52.7193 41.3966 52.7767 41.3535ZM52.3751 41.0809C52.2747 41.1527 52.1456 41.1957 51.9878 41.1957H51.8014V40.2345C51.8301 40.2345 51.8587 40.2345 51.8874 40.2202H52.0165C52.1743 40.2202 52.289 40.2489 52.3894 40.3206C52.4755 40.3923 52.5185 40.5071 52.5185 40.6793C52.5185 40.8801 52.4611 40.9949 52.3751 41.0809ZM52.0739 38.4843C50.5249 38.4843 49.277 39.7468 49.277 41.3105C49.277 42.8742 50.5392 44.1367 52.0739 44.1367C53.6229 44.1367 54.8851 42.8742 54.8851 41.3105C54.8851 39.7468 53.6229 38.4843 52.0739 38.4843ZM52.0739 43.4767C50.8835 43.4767 49.9225 42.5012 49.9225 41.3104C49.9225 40.1197 50.8835 39.1441 52.0739 39.1441C53.2643 39.1441 54.2253 40.1196 54.2253 41.3104C54.2396 42.5011 53.2643 43.4767 52.0739 43.4767ZM54.7703 24.5972C53.9097 23.5786 52.6906 23.0765 51.1129 23.0765C50.0803 23.0765 49.1767 23.306 48.4165 23.7651C47.6564 24.2242 47.0683 24.8985 46.6381 25.7735C46.2221 26.663 46.007 27.6959 46.007 28.8723C46.007 30.0631 46.1935 31.1103 46.5807 31.9998C46.968 32.8893 47.5273 33.5779 48.2588 34.0513C49.0046 34.5248 49.9083 34.7686 50.9839 34.7686C52.6047 34.7686 53.8667 34.2522 54.7417 33.2049C55.6166 32.1576 56.0612 30.7087 56.0612 28.858C56.0469 27.0361 55.6309 25.6158 54.7703 24.5972ZM53.0205 31.8851C52.5615 32.6024 51.9018 32.961 51.0413 32.961C50.1807 32.961 49.5209 32.6024 49.0476 31.8851C48.5886 31.1678 48.3448 30.1636 48.3448 28.8867C48.3448 27.6242 48.5743 26.6344 49.0476 25.9602C49.5065 25.2715 50.195 24.9272 51.0843 24.9272C51.9305 24.9272 52.5903 25.2715 53.0348 25.9602C53.4794 26.6488 53.709 27.6243 53.709 28.8867C53.709 30.1636 53.4795 31.1677 53.0205 31.8851ZM39.4094 28.815C39.1942 29.4462 39.7249 29.9913 40.2269 30.6369L42.6652 33.8074C43.1098 34.3813 43.6978 34.6825 44.4436 34.6825C44.8883 34.6825 45.3185 34.5534 45.7488 34.2952L41.6181 28.6715L45.2755 23.7507C45.1177 23.5929 44.9312 23.4781 44.6874 23.3777C44.4436 23.2916 44.1998 23.2486 43.9273 23.2486C43.6117 23.2486 43.3392 23.3203 43.0954 23.4638C42.8515 23.6072 42.5934 23.8368 42.3639 24.1524L40.0978 27.1507C39.8826 27.4377 39.7105 27.6959 39.6101 27.9254C39.5097 28.155 39.3376 28.4419 39.4236 28.6141V24.5398C39.4236 23.679 38.936 23.2343 37.9463 23.2343C37.7742 23.2343 37.5017 23.263 37.1431 23.3204V34.4813H39.4093L39.4094 28.815ZM35.5369 34.2091C35.5369 34.123 35.5512 34.0226 35.5512 33.8935C35.5512 33.5205 35.4365 33.2192 35.1927 33.0184C34.9488 32.8175 34.619 32.7027 34.1744 32.7027H30.6317V29.6183H34.1457V27.8393H30.6317V25.0849H33.8875C34.3895 25.0849 34.7624 24.9988 34.9775 24.8123C35.1927 24.6401 35.3074 24.3389 35.3074 23.9085C35.3074 23.6646 35.2931 23.4637 35.2644 23.2916H28.3513V34.482H35.537C35.5226 34.3816 35.537 34.2955 35.537 34.2095L35.5369 34.2091ZM25.052 33.2049C25.9269 32.1576 26.3715 30.7086 26.3715 28.858C26.3715 27.036 25.9413 25.6157 25.0807 24.5971C24.2201 23.5785 23.001 23.0764 21.4233 23.0764C20.3907 23.0764 19.4871 23.306 18.7269 23.765C17.9668 24.2241 17.3787 24.8984 16.9485 25.7735C16.5325 26.6629 16.3174 27.6959 16.3174 28.8723C16.3174 30.063 16.5038 31.1102 16.8911 31.9997C17.2783 32.8892 17.8377 33.5778 18.5692 34.0513C19.315 34.5247 20.2186 34.7686 21.2943 34.7686C22.915 34.7686 24.1627 34.2521 25.052 33.2049ZM19.3723 31.8707C18.9133 31.1534 18.6695 30.1492 18.6695 28.8723C18.6695 27.6098 18.899 26.62 19.3723 25.9458C19.8313 25.2571 20.5197 24.9128 21.409 24.9128C22.2552 24.9128 22.915 25.2571 23.3596 25.9458C23.8042 26.6344 24.0337 27.6099 24.0337 28.8723C24.0337 30.1635 23.8042 31.1678 23.3452 31.8707C22.8863 32.588 22.2265 32.9466 21.366 32.9466C20.4911 32.9466 19.8313 32.588 19.3723 31.8707Z" fill="white"/>
</g>
<defs>
<clipPath id="clip0_1_80819">
<rect width="61" height="61" fill="white" transform="translate(5 5)"/>
</clipPath>
</defs>
</svg>
