<svg width="631" height="128" viewBox="0 0 631 128" fill="none" xmlns="http://www.w3.org/2000/svg">
<path opacity="0.8" d="M557.387 12.2317C556.087 13.9024 556.023 15.4634 557.165 17.0853C558.828 19.3582 563.616 16.5008 563.208 13.4502C562.983 11.7614 562.186 11.0916 560.028 10.8253C558.869 10.7029 558.257 11.0065 557.387 12.2317ZM561.495 12.8473C563.361 14.5942 560.357 17.7678 558.292 16.1584C557.388 15.5028 557.359 15.2849 558.047 13.9177C558.799 12.2094 560.312 11.73 561.495 12.8473Z" fill="#50735F"/>
<path opacity="0.8" d="M548.44 34.6751C547.9 35.8379 547.893 36.1834 548.659 37.1145C549.109 37.6858 549.927 38.2081 550.407 38.2014C551.547 38.3361 553.158 36.3986 552.985 35.1014C552.668 32.7325 549.481 32.4694 548.44 34.6751ZM551.41 35.3117C551.508 36.045 551.193 36.4889 550.511 36.58C549.356 36.7343 548.852 35.3663 549.895 34.7678C550.974 34.0496 551.259 34.1837 551.41 35.3117Z" fill="#50735F"/>
<path opacity="0.8" d="M581.239 20.8659C580.159 22.2422 580.341 23.1564 581.93 24.2347C583.386 25.2135 584.649 24.7515 585.372 22.9536C585.715 21.9107 585.602 21.5151 584.465 20.6697C582.86 19.4762 582.261 19.4976 581.239 20.8659ZM584.066 22.1896C584.127 22.6506 583.826 23.1015 583.353 23.1647C582.347 23.2991 581.589 22.5791 582.044 21.9317C582.662 21.1452 583.95 21.3251 584.066 22.1896Z" fill="#50735F"/>
<path d="M605.166 17.6163C604.642 17.1429 604.082 16.7151 603.492 16.3372C604.723 15.0111 605.851 13.583 606.864 12.0667C607.428 11.1703 606.917 10.7976 606.438 11.1098L601.919 14.3228C600.546 10.6364 599.828 6.1192 599.599 15.8789C599.384 15.8556 599.168 15.8556 598.953 15.8789C598.314 15.9028 597.675 15.8742 597.04 15.7933C593.405 15.6472 593.773 16.8962 594.409 17.1882C594.811 17.3796 598.312 18.3465 598.743 18.4472C598.709 18.9508 597.193 23.9213 597.408 25.6184C598.159 27.4818 600.135 22.048 601.66 19.4293C602.139 19.676 606.352 21.9019 606.921 22.0631C607.801 22.3098 608.122 21.8113 607.959 21.3983C607.849 21.081 605.51 17.9688 605.166 17.6163ZM602.866 19.1472C600.742 18.14 601.909 17.6364 598.231 24.2537C599.187 16.7954 601.292 18.3918 596.045 16.7501C597.724 16.6595 600.139 17.3041 600.058 16.3019C600.369 16.176 600.197 16.1257 600.402 12.2228C601.665 16.1659 601.005 16.0602 605.664 12.5602C602.44 17.1228 601.359 15.6573 604.176 17.8832C604.492 18.1493 604.778 18.4535 605.027 18.7897C605.003 18.7544 605.53 19.4544 605.271 19.1271C606.18 20.3961 605.793 19.8775 606.706 21.1012C606.701 21.0861 603.97 19.6609 602.875 19.1472H602.866Z" fill="#50735F"/>
<path d="M537.773 42.1884C537.362 41.8038 536.922 41.4562 536.458 41.1491C537.425 40.0717 538.311 38.9114 539.107 37.6794C539.551 36.951 539.149 36.6482 538.773 36.9019L535.222 39.5125C534.143 36.5173 533.579 32.847 533.399 40.7768C533.23 40.7579 533.06 40.7579 532.892 40.7768C532.39 40.7962 531.887 40.773 531.389 40.7072C528.532 40.5886 528.822 41.6033 529.322 41.8406C529.637 41.9961 532.388 42.7817 532.726 42.8636C532.7 43.2727 531.509 47.3113 531.678 48.6902C532.268 50.2041 533.82 45.7892 535.019 43.6615C535.395 43.862 538.705 45.6705 539.153 45.8014C539.844 46.0019 540.096 45.5968 539.968 45.2613C539.882 45.0035 538.044 42.4749 537.773 42.1884ZM535.966 43.4323C534.297 42.614 535.214 42.2048 532.324 47.5813C533.076 41.5215 534.729 42.8186 530.607 41.4847C531.926 41.411 533.824 41.9348 533.76 41.1205C534.004 41.0182 533.869 40.9773 534.03 37.8062C535.023 41.01 534.504 40.9241 538.164 38.0804C535.631 41.7875 534.782 40.5968 536.995 42.4053C537.244 42.6215 537.469 42.8687 537.664 43.1418C537.646 43.1132 538.059 43.6819 537.856 43.4159C538.57 44.4471 538.266 44.0256 538.983 45.0199C538.98 45.0076 536.834 43.8497 535.973 43.4323H535.966Z" fill="#50735F"/>
<path opacity="0.8" d="M577 90.0003C555.5 104 541 113.5 527.5 103C522.354 98.9979 528 70.5003 534.5 74.5003C541 78.5003 522.5 112.5 489.5 109.5C456.5 106.5 431.5 66 404 66C381.5 66 349.63 88.7061 323 103.5C303.5 114.333 271.414 122.659 236 119C175.442 112.744 150.5 50.2541 93.5 56.5002C57 60.5 3.5 94.5002 0.5 127" stroke="#50735F" stroke-width="0.8" stroke-dasharray="4 4"/>
<g opacity="0.7">
<path d="M603.075 81.5294C603.066 81.5909 603.057 81.6525 603.049 81.7141L603.484 81.752M603.075 81.5294L603.227 81.1692C603.203 81.2931 603.18 81.4181 603.157 81.5441M603.075 81.5294L603.157 81.5441M603.075 81.5294L603.157 81.5441M603.484 81.752L603.047 81.728C603.04 81.7749 603.034 81.8219 603.028 81.8689C603.044 81.9003 603.068 81.935 603.102 81.9687C603.155 82.0218 603.218 82.0582 603.283 82.0785C603.354 82.1009 603.415 82.1003 603.455 82.0957C603.464 81.9811 603.474 81.8666 603.484 81.752ZM603.484 81.752C603.495 81.5447 603.386 81.593 603.29 81.6358C603.202 81.6744 603.125 81.7085 603.157 81.5441M602.837 83.6479C602.878 83.141 602.93 82.6351 602.994 82.1308C603.03 82.145 603.066 82.1545 603.101 82.1602C603.185 82.1743 603.256 82.1656 603.299 82.1576C603.344 82.1493 603.381 82.1372 603.405 82.1286C603.421 82.1228 603.438 82.116 603.453 82.1096L602.666 81.4526C602.659 81.4893 602.653 81.5315 602.651 81.5765C602.649 81.6215 602.65 81.6857 602.668 81.7576C602.686 81.832 602.727 81.9292 602.814 82.0144C602.857 82.0571 602.904 82.089 602.952 82.1123C602.909 82.6239 602.871 83.1358 602.837 83.6479ZM602.837 83.6479C602.642 86.5889 602.585 89.5373 602.667 92.4834M602.837 83.6479C602.834 83.6877 602.831 83.7274 602.828 83.7672L602.827 83.7786L602.825 83.7899C602.732 84.5505 602.6 85.2976 602.475 86.0096C602.411 86.3753 602.348 86.7319 602.293 87.0763C602.128 88.1027 602.023 89.0604 602.093 89.9983M602.667 92.4834L602.329 83.7289C602.237 84.4778 602.11 85.2001 601.986 85.9036C601.732 87.3457 601.492 88.7089 601.597 90.0604M602.667 92.4834C602.432 91.666 602.24 90.8365 602.093 89.9983M602.667 92.4834C602.673 92.6991 602.68 92.9147 602.688 93.1304C602.688 93.1416 602.688 93.1528 602.689 93.1641C602.711 93.7923 602.739 94.4204 602.774 95.0483L602.774 95.0509C602.782 95.1845 602.798 95.32 602.817 95.4514C602.831 95.5479 602.847 95.6422 602.862 95.7319L602.864 95.7476C602.899 95.9624 602.931 96.1553 602.946 96.3422C602.972 96.6559 602.944 96.8885 602.841 97.0748C602.686 96.7275 602.657 96.3103 602.629 95.9108C602.619 95.7626 602.609 95.6168 602.592 95.4779C602.562 95.2207 602.544 94.9401 602.526 94.6526C602.496 94.1727 602.464 93.6733 602.371 93.2307C602.042 92.1925 601.783 91.1333 601.597 90.0604M602.667 92.4834C602.725 92.6829 602.785 92.8817 602.848 93.0796L602.855 93.1035L602.861 93.1281C602.942 93.5182 602.979 93.9378 603.006 94.3279C603.013 94.4321 603.02 94.5335 603.026 94.6322C603.035 94.7709 603.043 94.9043 603.053 95.0329C603.053 95.0333 603.053 95.0336 603.053 95.034C603.063 95.1676 603.075 95.2959 603.089 95.4195C603.107 95.5716 603.118 95.7326 603.128 95.8815C603.131 95.9152 603.133 95.9482 603.135 95.9804C603.148 96.1629 603.163 96.3289 603.189 96.4837C603.23 96.7292 603.295 96.9058 603.394 97.0341L602.667 92.4834ZM602.093 89.9983C602.092 89.9904 602.091 89.9825 602.089 89.9746L601.597 90.0604M602.093 89.9983C602.094 90.0061 602.094 90.0139 602.095 90.0217L601.597 90.0604M602.985 81.7215C602.985 81.7202 602.985 81.7197 602.985 81.7202L602.985 81.7215Z" fill="#50735F" stroke="#50735F"/>
<path d="M600.421 92.92C600.35 92.8917 600.274 92.8703 600.238 92.86C600.235 92.8591 600.232 92.8583 600.23 92.8576C599.595 90.9298 599.899 88.4862 600.238 85.8639L600.239 85.862C600.529 83.5425 601.007 81.2547 601.665 79.0205C601.63 79.1596 601.595 79.2988 601.561 79.4383C600.402 83.833 600.017 88.395 600.421 92.92Z" fill="#50735F" stroke="#50735F"/>
<path d="M600.79 76.1775C600.812 76.1304 600.835 76.083 600.858 76.0356C600.795 76.6097 600.657 77.1631 600.486 77.7295C600.412 77.9755 600.329 78.2314 600.244 78.4939C600.083 78.9902 599.915 79.5102 599.784 80.032L599.783 80.032L599.781 80.0419C599.259 82.3068 598.954 84.6164 598.871 86.9392C598.849 87.2665 598.821 87.6051 598.792 87.9496C598.729 88.7039 598.664 89.4864 598.666 90.2395C598.668 90.7271 598.716 91.1932 598.76 91.617C598.767 91.6884 598.774 91.7587 598.781 91.8277C598.789 91.9019 598.796 91.9746 598.802 92.0462C598.798 92.042 598.794 92.0378 598.79 92.0337C598.709 91.9493 598.614 91.8878 598.569 91.8592C598.569 91.8589 598.568 91.8587 598.568 91.8585C598.198 88.6773 598.527 85.0885 598.98 81.414C599.149 80.0512 599.537 78.9239 600.016 77.8287C600.236 77.3251 600.474 76.8319 600.72 76.3213C600.743 76.2735 600.766 76.2256 600.79 76.1775Z" fill="#50735F" stroke="#50735F"/>
<path d="M596.846 91.1554C596.914 91.5729 596.903 91.9921 596.892 92.405C596.877 92.943 596.863 93.4703 597.025 93.9693C597.112 93.917 597.166 93.8301 597.181 93.6013C597.189 93.4744 597.182 93.3337 597.171 93.1687C597.17 93.1502 597.169 93.1311 597.167 93.1115C597.158 92.9712 597.146 92.807 597.15 92.6575L597.15 92.6555C597.166 92.1579 597.171 91.6378 597.173 91.1019C597.173 91.1009 597.173 91.1 597.173 91.099C597.173 90.9233 597.174 90.7458 597.174 90.5669M596.846 91.1554L597.87 85.2085M596.846 91.1554C596.805 90.9163 596.685 90.6971 596.565 90.4784C596.457 90.2813 596.349 90.0846 596.299 89.8743L596.846 91.1554ZM597.174 90.5669C597.243 90.7163 597.307 90.8864 597.339 91.0704L597.339 91.0745L597.339 91.0745C597.416 91.5437 597.403 92.0345 597.391 92.4581C597.389 92.5283 597.387 92.5966 597.386 92.6627C597.386 92.663 597.386 92.6634 597.386 92.6637C597.384 92.7252 597.383 92.7846 597.383 92.8419C597.382 93.3105 597.423 93.6953 597.593 94.0407C597.712 93.7588 597.688 93.4033 597.666 93.0761C597.656 92.9327 597.647 92.7947 597.65 92.6707C597.673 91.9112 597.674 91.117 597.675 90.3033C597.676 88.6428 597.677 86.9014 597.87 85.2085M597.174 90.5669C597.174 90.4925 597.174 90.4179 597.174 90.343C597.176 88.6666 597.177 86.8722 597.373 85.1524M597.174 90.5669C597.123 90.4566 597.069 90.3576 597.022 90.2727L597.021 90.2707C596.897 90.0437 596.819 89.9016 596.786 89.7597L596.786 89.7596L596.783 89.75C596.541 88.8042 596.477 87.8093 596.47 86.7363C596.467 86.307 596.474 85.8485 596.481 85.3754C596.481 85.3638 596.481 85.3522 596.482 85.3405M597.87 85.2085L597.374 85.1518C597.374 85.152 597.373 85.1522 597.373 85.1524M597.87 85.2085L597.373 85.1528C597.373 85.1527 597.373 85.1526 597.373 85.1524M597.373 85.1524C597.393 84.974 597.429 84.7841 597.461 84.6118C597.467 84.5797 597.473 84.5482 597.478 84.5175C597.512 84.3341 597.54 84.1678 597.552 84.0123M597.552 84.0123C597.541 84.0282 597.529 84.044 597.517 84.0595L596.482 85.3405M597.552 84.0123C597.554 83.9925 597.555 83.9728 597.556 83.9533C597.559 83.9014 597.56 83.8527 597.559 83.8072M597.552 84.0123C597.639 83.8885 597.689 83.7542 597.719 83.6638C597.736 83.6118 597.752 83.5587 597.765 83.5145L597.768 83.5057C597.783 83.4565 597.795 83.4174 597.807 83.3819C597.827 83.3232 597.839 83.3034 597.838 83.3032C597.838 83.3031 597.836 83.3058 597.832 83.3103C597.821 83.3238 597.795 83.3485 597.753 83.3678C597.727 83.3802 597.701 83.3868 597.679 83.3898C597.696 83.2434 597.712 83.0967 597.727 82.95L597.559 83.8072M596.482 85.3405C596.485 85.1175 596.488 84.8913 596.491 84.6635M596.482 85.3405L596.375 85.4731L596.491 84.6635M597.559 83.8072L597.128 83.7452L597.559 83.8072ZM596.491 84.6635C596.495 84.2201 596.496 83.7705 596.486 83.3259L596.453 81.8736L596.035 82.4352M596.491 84.6635L596.633 83.6742C596.738 82.9398 596.792 82.1998 596.846 81.4448C596.863 81.2117 596.88 80.9771 596.898 80.7408C596.941 80.1924 596.993 79.6388 597.076 79.0903M596.035 82.4352L599.36 74.6182L599.065 74.481C598.516 75.5721 598.014 76.6858 597.561 77.819C597.557 77.8272 597.554 77.8354 597.551 77.8436C597.386 78.2566 597.228 78.6723 597.076 79.0903M596.035 82.4352C596.094 82.1828 596.158 81.943 596.214 81.7326C596.22 81.7083 596.226 81.6845 596.233 81.6611C596.487 80.795 596.768 79.9377 597.076 79.0903M596.035 82.4352L595.751 81.5266C596.369 79.4171 597.147 77.3586 598.078 75.3692C598.234 75.3175 598.359 75.2226 598.445 75.1389C598.506 75.0796 598.561 75.0128 598.612 74.9443C598.135 75.8492 597.715 76.7839 597.357 77.7427L597.349 77.7646L597.343 77.7872C597.227 78.2147 597.142 78.6509 597.076 79.0903M597.234 94.4253L597.333 94.3656C597.302 94.387 597.269 94.4069 597.234 94.4253ZM597.234 94.4253L597.102 94.17C597.139 94.2561 597.183 94.3413 597.234 94.4253ZM599.585 72.9368C599.561 72.9877 599.538 73.0388 599.515 73.0899L599.515 73.0896L599.112 73.1656C599.356 72.8229 599.595 72.4764 599.835 72.1307C599.956 71.9553 600.077 71.7802 600.199 71.6058C599.997 72.0395 599.793 72.4842 599.585 72.9368ZM598.287 72.7748L598.994 73.1878L598.789 73.2266C598.608 73.2607 598.481 73.3638 598.408 73.435C598.331 73.5107 598.268 73.5975 598.218 73.672C598.152 73.7721 598.079 73.9008 598.016 74.0115C597.992 74.0554 597.968 74.0965 597.948 74.1319C597.88 74.2472 597.827 74.3279 597.785 74.3804L597.584 74.321C597.805 73.7983 598.042 73.2827 598.287 72.7748ZM600.498 71.3283C600.501 71.3315 600.502 71.3331 600.502 71.333C600.502 71.333 600.501 71.3314 600.498 71.3283Z" fill="#50735F" stroke="#50735F"/>
<path d="M597.854 69.093C597.854 69.0934 597.853 69.0938 597.853 69.0941L597.749 69.0419M597.854 69.093C597.854 69.0926 597.854 69.0922 597.854 69.0918L597.75 69.0401M597.854 69.093C597.981 68.8398 598.116 68.5643 598.258 68.2749C598.534 67.7126 598.835 67.0976 599.159 66.4909C599.221 66.3771 599.29 66.2402 599.366 66.0913C599.539 65.7478 599.745 65.3406 599.979 65.0063C600.058 64.8937 600.131 64.8047 600.195 64.7405C600.227 64.7089 600.253 64.6866 600.274 64.6715C600.284 64.6641 600.292 64.6591 600.298 64.6558C600.303 64.6525 600.306 64.6514 600.306 64.6514C600.302 64.6532 600.277 64.6606 600.242 64.6572L600.627 64.4235M597.854 69.093L597.407 68.8691M597.749 69.0419C597.75 69.0413 597.75 69.0407 597.75 69.0401M597.749 69.0419L597.407 68.8691M597.749 69.0419C596.614 71.2757 595.488 73.5513 594.5 76.0192C594.466 76.1042 594.433 76.1894 594.399 76.2748L597.407 68.8691M597.75 69.0401L597.407 68.8691M597.75 69.0401C597.919 68.7087 598.087 68.3783 598.256 68.0484C598.528 67.514 598.8 66.9808 599.07 66.4466L598.719 66.2524M597.407 68.8691C597.53 68.6251 597.662 68.3542 597.803 68.067C598.082 67.4989 598.392 66.8669 598.719 66.2524M597.407 68.8691L600.627 64.4235M598.719 66.2524L599.073 66.441C599.447 65.7001 599.816 64.9573 600.177 64.2071L600.627 64.4235M598.719 66.2524C598.768 66.1649 598.827 66.0462 598.897 65.9095C599.322 65.0674 600.093 63.5423 600.627 64.4235" fill="#50735F" stroke="#50735F"/>
<mask id="path-12-inside-1_1_88310" fill="white">
<path fill-rule="evenodd" clip-rule="evenodd" d="M595.001 71.4064C594.664 71.005 595.122 70.0169 595.298 69.4847C595.963 67.3791 597.023 65.4194 598.421 63.7104L598.636 63.7526C598.624 63.8141 598.69 63.8431 598.676 63.9123C597.963 65.4329 597.1 67.1798 596.303 68.8835C595.944 69.7612 595.508 70.6055 595.001 71.4064Z"/>
</mask>
<path fill-rule="evenodd" clip-rule="evenodd" d="M595.001 71.4064C594.664 71.005 595.122 70.0169 595.298 69.4847C595.963 67.3791 597.023 65.4194 598.421 63.7104L598.636 63.7526C598.624 63.8141 598.69 63.8431 598.676 63.9123C597.963 65.4329 597.1 67.1798 596.303 68.8835C595.944 69.7612 595.508 70.6055 595.001 71.4064Z" fill="#50735F"/>
<path d="M595.001 71.4064L594.234 72.0486L595.113 73.0975L595.845 71.9416L595.001 71.4064ZM595.298 69.4847L596.248 69.7993L596.25 69.7925L596.252 69.7857L595.298 69.4847ZM598.421 63.7104L598.613 62.7291L598.026 62.6137L597.647 63.0772L598.421 63.7104ZM598.636 63.7526L599.617 63.9454L599.81 62.9641L598.829 62.7714L598.636 63.7526ZM598.676 63.9123L599.582 64.3373L599.634 64.2258L599.658 64.105L598.676 63.9123ZM596.303 68.8835L595.397 68.4595L595.386 68.482L595.377 68.5051L596.303 68.8835ZM595.767 70.7641C595.89 70.9103 595.881 71.0376 595.88 71.0012C595.88 70.9702 595.888 70.8895 595.925 70.7458C595.961 70.6089 596.012 70.4572 596.071 70.2913C596.123 70.1467 596.199 69.9469 596.248 69.7993L594.349 69.1701C594.3 69.3191 594.092 69.8492 593.989 70.2434C593.932 70.4635 593.878 70.7383 593.881 71.0221C593.883 71.3005 593.944 71.7018 594.234 72.0486L595.767 70.7641ZM596.252 69.7857C596.878 67.8012 597.877 65.9543 599.195 64.3435L597.647 63.0772C596.168 64.8846 595.048 66.957 594.345 69.1837L596.252 69.7857ZM598.228 64.6916L598.443 64.7339L598.829 62.7714L598.613 62.7291L598.228 64.6916ZM597.655 63.5599C597.635 63.662 597.63 63.765 597.639 63.8659C597.648 63.9656 597.67 64.0512 597.694 64.1199C597.717 64.1866 597.742 64.2387 597.758 64.27C597.766 64.2859 597.773 64.299 597.778 64.3072C597.78 64.3114 597.782 64.315 597.784 64.3173C597.784 64.3184 597.785 64.3195 597.785 64.3202C597.786 64.3211 597.786 64.3215 597.786 64.3218C597.789 64.3271 597.779 64.3097 597.767 64.2858C597.755 64.2597 597.735 64.2162 597.718 64.1595C597.7 64.1013 597.685 64.0315 597.68 63.9524C597.675 63.8728 597.68 63.7944 597.695 63.7196L599.658 64.105C599.676 64.0129 599.682 63.9185 599.676 63.8238C599.67 63.7296 599.652 63.6457 599.63 63.5741C599.609 63.504 599.584 63.4478 599.565 63.4094C599.548 63.3732 599.531 63.3439 599.527 63.3373C599.519 63.323 599.528 63.3381 599.536 63.3539C599.546 63.3734 599.566 63.4135 599.584 63.4678C599.604 63.524 599.623 63.5967 599.631 63.6827C599.639 63.77 599.634 63.8586 599.617 63.9454L597.655 63.5599ZM597.771 63.4873C597.417 64.2421 597.025 65.054 596.62 65.8953C596.216 66.7347 595.799 67.602 595.397 68.4595L597.208 69.3076C597.605 68.4613 598.017 67.6033 598.422 66.7632C598.826 65.9249 599.222 65.103 599.582 64.3373L597.771 63.4873ZM595.377 68.5051C595.041 69.3283 594.632 70.12 594.156 70.8712L595.845 71.9416C596.384 71.0909 596.847 70.1941 597.228 69.2619L595.377 68.5051Z" fill="#50735F" mask="url(#path-12-inside-1_1_88310)"/>
<mask id="path-14-inside-2_1_88310" fill="white">
<path fill-rule="evenodd" clip-rule="evenodd" d="M589.184 64.6749C588.92 63.5391 589.025 62.3487 589.484 61.2766C589.703 62.1978 589.315 63.519 589.184 64.6749Z"/>
</mask>
<path fill-rule="evenodd" clip-rule="evenodd" d="M589.184 64.6749C588.92 63.5391 589.025 62.3487 589.484 61.2766C589.703 62.1978 589.315 63.519 589.184 64.6749Z" fill="#50735F"/>
<path d="M589.184 64.6749L588.21 64.9011L590.178 64.7877L589.184 64.6749ZM589.484 61.2766L590.457 61.046L589.758 58.0952L588.565 60.8832L589.484 61.2766ZM590.158 64.4487C589.942 63.52 590.028 62.5466 590.404 61.6701L588.565 60.8832C588.022 62.1507 587.898 63.5581 588.21 64.9011L590.158 64.4487ZM588.511 61.5072C588.573 61.7678 588.56 62.1632 588.476 62.7436C588.406 63.2233 588.256 63.9883 588.19 64.5621L590.178 64.7877C590.244 64.2057 590.353 63.732 590.455 63.0319C590.542 62.4324 590.614 61.7066 590.457 61.046L588.511 61.5072Z" fill="#50735F" mask="url(#path-14-inside-2_1_88310)"/>
<path d="M594.303 92.0057C594.055 91.483 593.822 90.9494 593.602 90.4063C593.623 90.4096 593.645 90.4116 593.667 90.4123C593.729 90.5171 593.789 90.6209 593.85 90.7243C594.091 91.1358 594.327 91.5395 594.554 91.9586L594.32 92.0435C594.315 92.0315 594.309 92.0195 594.304 92.0077L594.303 92.0057ZM595.173 92.3827L595.465 92.2793C595.463 92.3212 595.461 92.3582 595.457 92.3905C595.397 92.4222 595.322 92.4718 595.255 92.5445C595.228 92.4907 595.2 92.4367 595.173 92.3827ZM593.611 81.5614C593.448 80.6045 593.29 79.6753 593.269 78.741L593.703 79.126C593.781 81.0661 593.95 83.0034 594.209 84.9317C594.029 84.0105 593.861 83.0838 593.711 82.1549L593.711 82.1534C593.678 81.9547 593.644 81.7575 593.611 81.5614ZM591.632 84.4376C591.455 83.807 591.282 83.1712 591.11 82.5319L591.693 82.4348C591.758 83.0533 591.836 83.6709 591.927 84.2873C591.869 84.2953 591.807 84.3147 591.743 84.3513C591.698 84.3769 591.662 84.4065 591.632 84.4376ZM591.995 84.9529C592.001 84.9916 592.012 85.0379 592.026 85.0862L591.901 84.9983C591.928 84.9811 591.959 84.9655 591.995 84.9529Z" fill="#50735F" stroke="#50735F"/>
<path d="M622.595 79.3786L622.593 79.3867L622.592 79.3948C622.339 81.4197 621.979 83.4297 621.516 85.4168L620.678 84.5841L620.682 85.7911C620.682 85.7896 620.682 85.7897 620.682 85.7916C620.681 85.7974 620.678 85.8201 620.665 85.8692C620.658 85.8986 620.649 85.9298 620.639 85.9682L620.638 85.9699C620.628 86.0057 620.617 86.0482 620.606 86.091C620.586 86.172 620.559 86.2914 620.558 86.4169C620.558 86.4365 620.559 86.4578 620.56 86.4806C620.448 86.5848 620.411 86.7108 620.397 86.7671C620.397 86.7692 620.396 86.7713 620.396 86.7735C620.369 86.8072 620.341 86.8414 620.311 86.8777C620.288 86.9049 620.265 86.9333 620.24 86.9636C620.153 87.0709 620.056 87.1942 619.965 87.3358L619.961 87.342L619.957 87.3482C619.867 87.4988 619.799 87.6613 619.756 87.8304C619.735 87.8413 619.712 87.8543 619.69 87.8698C620.048 86.0049 620.479 84.1544 620.982 82.3226L620.984 82.3139L620.986 82.3051C621.136 81.6688 621.25 81.0339 621.368 80.3703C621.403 80.1772 621.438 79.9817 621.474 79.783C621.578 79.2168 621.695 78.6143 621.851 77.9467C621.828 78.1915 621.842 78.4399 621.892 78.6841L622.753 78.6336C622.687 78.907 622.629 79.1636 622.595 79.3786ZM622.158 76.7396C622.181 76.6549 622.204 76.5703 622.228 76.4866L622.341 76.6014L622.135 76.9903C622.097 77.0612 622.063 77.1336 622.033 77.2072C622.072 77.0555 622.114 76.9004 622.158 76.7417L622.158 76.7417L622.158 76.7396ZM623.056 77.0819L622.956 76.7477L623.031 76.3671C623.067 76.3452 623.106 76.3169 623.144 76.2816C623.146 76.2801 623.147 76.2786 623.149 76.277L623.274 76.2655C623.257 76.4015 623.234 76.5463 623.207 76.6987C623.173 76.8813 623.134 77.0683 623.092 77.2567C623.085 77.1992 623.073 77.1405 623.056 77.0819ZM619.186 91.8038C619.186 91.8035 619.188 91.8024 619.192 91.801C619.188 91.8034 619.186 91.804 619.186 91.8038Z" fill="#50735F" stroke="#50735F"/>
<mask id="path-18-inside-3_1_88310" fill="white">
<path fill-rule="evenodd" clip-rule="evenodd" d="M622.017 66.0233C620.643 69.6679 619.54 73.409 618.717 77.2161C617.514 82.5689 615.841 89.3385 615.266 95.1502C614.965 97.0401 614.811 98.9507 614.807 100.865C614.923 102.588 615.185 105.482 617.612 105.32C618.52 105.251 619.603 103.316 620.146 102.137C622.05 97.8879 623.415 92.5268 624.669 87.727C625.587 84.1826 626.247 80.5765 626.644 76.9368C626.987 73.8103 627.514 70.72 627.433 68.0452C627.357 65.7867 626.801 63.5776 625.009 62.419C623.453 62.7763 622.623 64.4417 622.017 66.0233ZM614.104 102.571C613.459 98.3324 614.493 92.4593 615.599 86.8317C615.926 85.1635 616.146 83.4341 616.559 81.9422C618.476 74.949 619.879 67.0325 622.915 62.6706C622.613 62.8729 622.258 62.9835 621.895 62.9891C619.41 67.2948 617.536 71.9249 616.326 76.7465C615.614 79.3534 615.475 82.2564 614.712 84.9648C614.223 86.8017 613.856 88.6688 613.614 90.5539C613.335 92.5831 612.928 94.0442 612.717 95.895C612.621 97.0618 612.585 98.2328 612.61 99.4032C612.573 101.344 612.742 101.984 613.465 103.18C613.795 103.7 614.029 104.377 614.741 104.533C614.795 104.543 614.879 104.56 614.9 104.492C614.485 103.922 614.207 103.264 614.089 102.568L614.104 102.571ZM616.591 66.3309C614.857 69.7511 614.015 74.4082 612.769 79.042C611.877 82.364 611.329 85.6418 610.628 89.209C610.138 91.7076 609.461 94.1776 609.169 96.276C609.022 97.309 609.413 97.6734 609.84 98.4678C610.253 99.2902 610.737 100.075 611.288 100.812C611.484 101.074 611.612 101.602 611.958 101.463C611.34 98.1477 612.487 94.3807 612.921 90.5456C613.081 88.8184 613.369 87.1056 613.784 85.4213C614.618 82.3915 614.936 79.1083 615.717 76.3076C616.868 72.0555 618.444 67.9298 620.42 63.9929C620.427 63.9545 620.435 63.9161 620.357 63.9086C619.081 64.712 617.659 65.287 616.571 66.351L616.591 66.3309ZM587.062 72.8909C586.894 71.5485 586.434 69.989 586.332 68.4758C586.274 67.7139 586.296 66.8718 586.293 66.0728C586.289 65.4014 586.001 64.2269 586.996 63.9991C587.346 64.611 587.125 65.334 587.125 65.9409C587.138 67.8853 587.349 69.8234 587.754 71.7253C588.706 76.4881 589.971 81.1829 591.541 85.7792C591.915 86.8827 592.278 88.04 592.724 89.1018C593.614 91.2007 594.922 93.1983 595.371 95.5061C599.069 96.2325 602.163 97.0638 605.24 96.9256C605.182 96.0439 604.95 95.2718 604.84 94.4517C604.745 94.936 605.003 95.857 604.409 95.9159C603.584 92.3392 603.412 88.6431 603.901 85.0052C604.197 82.6845 604.695 80.3939 605.389 78.1594C605.558 77.7056 605.806 77.0517 606.291 76.9394C605.397 82.1452 604.038 88.697 604.791 93.1965C604.924 89.7573 604.603 86.0215 605.761 82.2806C606.216 82.2422 605.642 83.2153 605.895 83.1053C606.568 79.2763 607.742 75.5526 609.388 72.0302C610.105 70.2544 611.005 68.5581 612.074 66.9688C612.371 66.556 612.743 65.7588 613.436 66.0545C612.649 67.0203 611.974 68.0715 611.423 69.1883C610.276 72.0609 609.606 75.754 608.483 78.9109C608.38 79.2339 608.914 78.7081 608.796 79.1879C608.569 81.4827 607.821 83.787 607.437 86.107C607.26 87.2539 607.702 85.4085 607.784 85.0732C608.784 81.1178 609.723 77.5176 610.806 73.7539C611.325 72.2418 611.933 70.7615 612.626 69.3209C612.79 68.9377 612.602 68.3499 613.188 68.3294C612.948 70.446 611.84 72.432 611.216 74.6329C609.452 80.8897 607.521 88.1995 606.247 94.6881C605.852 93.9719 606.106 95.403 605.553 94.8472C605.646 95.5369 605.683 96.2331 605.663 96.9288C606.536 96.9565 607.422 96.9949 608.354 97.0901C609.748 90.5611 610.857 83.0021 612.7 76.4655C613.713 72.8558 614.278 69.246 615.75 66.5489C611.505 65.4757 608.095 63.4485 603.783 62.4339C597.991 61.0688 592.116 60.0882 586.195 59.4983C586.067 59.9864 585.97 60.4819 585.903 60.9821C586.105 60.9737 586.551 60.167 587.075 60.6293C586.312 60.9745 586.122 62.7975 585.984 63.9443C585.577 67.4013 586.103 71.4729 586.458 74.2574C586.537 74.5045 586.699 73.8816 586.84 74.1808C586.99 74.3139 587.135 75.0371 587.234 74.7771C587.234 74.7771 587.157 74.762 587.178 74.6943C587.096 74.1033 587.05 73.5077 587.042 72.9109L587.062 72.8909ZM610.214 71.4819C608.247 76.0061 606.107 81.9015 606.024 87.57C606.787 81.7316 608.706 76.3118 610.194 71.5019L610.214 71.4819ZM605.585 89.0328C605.44 90.1738 605.411 91.3266 605.5 92.4734C605.525 91.3286 606.027 89.8702 605.565 89.0528L605.585 89.0328ZM594.853 95.3804C594.906 95.391 594.949 95.3355 594.949 95.2556C594.133 93.3314 593.143 91.4854 591.992 89.7404C592.01 90.5424 593.274 91.3417 592.566 92.0647C591.966 91.947 591.943 91.4154 591.568 91.1263C591.825 91.6878 592.085 92.2738 592.413 92.8412C592.741 93.4086 593.438 93.841 593.183 94.5334C592.167 94.0544 591.896 92.9552 591.372 92.1257C590.759 91.2207 590.208 90.2749 589.724 89.295C588.35 86.1327 587.317 82.833 586.643 79.4518C585.479 74.5656 584.98 69.5446 585.16 64.5248C585.057 65.0476 584.959 65.5473 584.858 66.0624C584.746 66.9586 584.99 67.9488 584.543 68.396C583.882 66.1503 584.872 62.1688 585.657 59.3527C585.314 59.3492 584.879 59.2478 584.568 59.2827C583.942 61.4346 583.441 63.6208 583.067 65.8304C583.539 65.3801 583.514 64.1218 584.1 63.9016C584.069 66.8657 583.743 69.4205 584.062 71.9824C584.477 74.3168 585.057 76.6188 585.799 78.8708C586.654 82.2337 587.725 85.5379 589.006 88.7627C589.428 89.7877 590.129 90.8516 589.959 92.0399C589.295 91.7257 589.285 90.3106 588.754 90.3339C588.637 91.1733 589.19 92.5435 588.51 93.0806C588.072 91.4457 588.196 89.4339 587.61 87.9055C587.424 89.2184 588.155 91.3501 586.991 92.1915C586.709 90.5392 586.899 88.5964 586.634 86.8994C586.436 88.8407 586.623 91.0174 586.429 93.183C589.268 93.9323 592.057 94.6556 594.833 95.4004L594.853 95.3804ZM585.517 92.7482C585.496 91.5544 585.706 90.1985 585.658 89.0232C585.351 90.0568 585.044 91.0904 584.692 92.0673C584.662 92.2211 584.097 92.4535 584.379 92.5248C584.66 92.596 585.303 93.0256 585.498 92.7606L585.517 92.7482ZM586.665 86.131C586.718 85.1987 586.52 84.2693 586.092 83.4395C584.911 86.0741 584.088 89.2499 582.722 91.6086C582.365 91.3547 582.402 91.8171 581.973 91.6849C582.288 90.0889 582.766 88.5293 583.398 87.0304C584.013 85.2777 584.789 83.5859 585.716 81.9764C585.497 81.55 585.479 80.9877 585.26 80.5613C584.94 81.5765 584.212 82.4795 584.037 83.4112C584.204 83.2923 584.229 82.9619 584.489 82.981C583.934 84.3412 583.101 85.982 582.496 87.516C581.978 88.8515 581.648 90.4552 580.483 91.017C580.277 90.3616 581.418 89.2683 581.24 88.6666C580.561 88.6689 580.86 90.1169 580.17 90.0532C579.73 89.1205 580.47 88.156 580.781 87.3068C581.877 84.2883 583.573 81.5075 584.813 78.9725C584.752 78.5453 584.635 78.1278 584.466 77.7307C583.432 80.7213 582.453 83.9145 580.785 85.9823C580.601 86.1058 580.434 85.7377 580.335 86.0376C579.952 86.7428 579.635 87.4827 579.39 88.2474C579.121 88.929 578.94 90.0113 578.105 89.9113C578.53 87.5036 579.962 85.054 580.897 82.8105C580.857 82.7307 580.39 82.7907 580.44 82.4971C580.571 81.3811 581.371 80.7637 581.413 79.8217C579.613 83.0768 578.041 86.4522 576.706 89.9238C579.065 91.0341 581.549 91.8596 584.103 92.3828C584.725 90.3571 585.305 87.4449 586.646 86.1434L586.665 86.131ZM583.572 74.5608C583.528 75.2309 583.506 75.8732 583.48 76.531C583.112 76.778 582.834 77.1381 582.688 77.557C582.915 77.4979 583.055 77.5573 583.083 77.7785C582.705 78.8938 582.136 80.2033 581.841 81.1355C582.761 80.1105 582.893 77.8928 584.076 77.2388C584.271 77.1813 584.391 77.4605 584.429 77.3083C584.048 76.403 583.864 75.4725 583.553 74.5732L583.572 74.5608ZM581.884 77.1757C581.804 74.0061 582.88 70.1134 582.868 66.9251C582.899 66.7637 582.507 67.1338 582.528 66.7865C582.593 64.8782 582.866 62.9828 583.343 61.1338C583.531 60.4602 583.977 59.8133 583.857 59.2467C583.35 59.147 583.159 59.6686 582.968 60.0303C582.227 61.3068 581.686 62.6898 581.365 64.1307C581.286 64.5305 581.46 64.9478 581.412 65.3936C581.285 66.4865 580.923 67.5972 580.76 68.7148C580.061 73.3683 579.67 78.3296 579.026 82.7463C579.494 81.8642 579.977 80.9929 580.435 80.0847C580.121 78.3065 580.542 75.8819 580.681 73.5859C580.739 72.5992 580.862 71.6093 580.966 70.6317C581.07 69.6541 581.031 68.5126 581.606 67.7392C582.132 70.9964 581.28 75.1726 581.002 78.9427C581.26 78.4025 581.879 77.8134 581.866 77.188L581.884 77.1757ZM580.093 67.9212C580.019 68.2979 579.883 67.9757 579.697 68.067C579.512 68.1583 579.4 69.2142 579.308 69.6832C578.311 74.8643 577.769 80.1227 577.69 85.3983C579.069 79.6807 579.182 73.7386 580.075 67.9335L580.093 67.9212ZM581.369 59.1093C580.931 60.4845 579.979 62.118 579.868 63.3738C580.245 63.288 580.298 62.7715 580.417 62.4515C580.842 61.3053 581.332 59.9884 582.103 59.4771C582.298 60.3138 581.68 61.1426 581.319 61.9659C580.695 63.1809 580.289 64.4952 580.117 65.8498C580.764 63.5805 581.604 61.3707 582.628 59.2448C582.204 59.2501 581.782 59.2046 581.369 59.1093ZM576.789 86.898C576.855 79.4919 577.689 72.1126 579.278 64.8785C578.999 65.319 578.884 66.0707 578.604 66.4389C578.465 66.6192 578.272 66.5015 578.25 66.7367C576.432 74.3642 575.23 82.1125 575.354 88.5963C575.258 89.0806 575.36 89.4997 575.971 89.516C576.45 88.9474 576.576 87.8622 576.951 87.1295C576.948 87.0755 576.933 87.023 576.906 86.9761C576.879 86.9292 576.842 86.8893 576.797 86.8596L576.789 86.898ZM579.869 66.7434C579.855 67.06 579.626 67.4941 579.744 67.7487C579.893 67.4348 580 66.7691 579.874 66.7203L579.869 66.7434ZM580.407 59.128C579.28 61.3333 578.359 63.6383 577.657 66.0135C577.831 65.1294 578.577 64.4615 578.926 63.6198C579.575 62.1025 579.817 60.4254 580.69 59.1117C580.601 59.0762 580.502 59.0738 580.412 59.105L580.407 59.128ZM576.798 69.3738C576.811 69.3046 576.716 69.3019 576.707 69.4279C575.025 75.6036 574.047 81.9496 573.79 88.345C574.041 88.4502 574.704 89.0994 574.822 88.6995C574.225 83.0809 575.277 76.3411 576.779 69.3862L576.798 69.3738ZM577.272 63.0954C576.71 64.0929 576.213 65.1264 575.786 66.189C575.297 67.6258 574.99 69.2264 574.584 70.8073C573.57 74.7521 572.553 79.0717 572.434 82.8889C572.484 83.6229 572.486 84.3594 572.441 85.0938C572.389 85.3552 572.268 85.5231 572.232 85.7875C572.243 86.3138 572.188 86.8395 572.069 87.3522C572.489 87.4906 572.647 88.0248 573.137 87.9294C572.872 79.318 575.833 67.6992 578.943 60.2378C578.427 61.1585 577.797 62.0887 577.272 63.0954ZM569.692 80.3861C569.711 81.7897 569.831 83.1902 570.051 84.5765C570.087 85.1664 569.924 85.6694 570.071 85.9778C570.311 86.504 571.086 86.7041 571.47 86.9871C571.477 85.0403 571.612 82.8472 571.779 80.9397C572.049 77.9166 572.539 74.9173 573.246 71.9659C573.682 69.9102 574.276 67.8913 575.023 65.9273C575.278 65.3226 575.692 64.7972 575.945 64.2001C576.452 62.9324 577.087 61.7194 577.838 60.5797C578.133 60.1346 578.804 59.404 578.778 59.1674C578.3 59.1214 578.284 59.6531 578.113 59.9149C576.76 62.0446 574.838 63.783 573.891 66.4475C573.575 66.2258 574.091 65.4327 573.927 65.129C572.224 69.1222 570.169 75.1141 569.692 80.3861ZM566.699 87.7825C567.168 87.4675 569.045 86.4868 569.204 85.8793C569.174 85.1933 569.086 84.5111 568.942 83.8397C568.766 82.7326 568.692 81.6116 568.722 80.4909C569.15 76.3969 570.161 72.385 571.724 68.5769C573.018 65.3657 573.809 62.3514 575.755 60.2504C576.367 59.5722 577.135 59.2837 577.857 58.5314C577.41 57.9245 577.054 57.2558 576.53 56.6737C576.031 56.1982 575.505 55.7511 574.956 55.3347C574.651 55.0591 574.462 54.5589 574.09 54.5018C573.718 54.4447 572.471 55.2618 572.196 55.527C571.525 56.2873 570.922 57.1037 570.391 57.9671C569.11 59.7521 568.061 61.6923 567.269 63.7415C566.874 64.8138 566.319 65.8544 565.909 66.9237C565.161 68.9963 564.525 71.1076 564.004 73.2485C562.458 79.085 560.69 86.339 564.047 89.2898C564.985 88.8736 565.874 88.3547 566.698 87.7426L566.699 87.7825ZM576.876 60.3587C576.156 60.9661 575.597 61.7424 575.25 62.6184C575.653 61.7473 576.679 60.871 576.829 60.3097L576.876 60.3587ZM572.121 53.4683C570.712 54.5952 569.501 55.9496 568.539 57.4757C568.197 57.9993 567.805 58.5692 567.485 59.105C565.655 62.3613 564.277 65.851 563.387 69.4785C562.999 70.8873 562.874 72.0923 562.456 73.4874C561.298 77.5556 560.038 82.0189 560.04 85.7881C559.987 86.7866 560.224 87.7792 560.724 88.6452C561.368 88.9401 562.031 89.1929 562.708 89.402C562.032 88.2703 561.554 87.0316 561.295 85.7392C560.881 82.3602 561.865 78.202 562.96 74.297C563.67 71.7377 564.197 69.1745 565.1 66.7729C565.493 65.7082 566.095 64.6767 566.521 63.6027C566.946 62.5143 567.447 61.4574 568.021 60.4399C569.612 57.6625 571.14 55.168 573.352 53.9097C572.873 53.7838 572.564 53.5713 572.113 53.4269L572.121 53.4683Z"/>
</mask>
<path fill-rule="evenodd" clip-rule="evenodd" d="M622.017 66.0233C620.643 69.6679 619.54 73.409 618.717 77.2161C617.514 82.5689 615.841 89.3385 615.266 95.1502C614.965 97.0401 614.811 98.9507 614.807 100.865C614.923 102.588 615.185 105.482 617.612 105.32C618.52 105.251 619.603 103.316 620.146 102.137C622.05 97.8879 623.415 92.5268 624.669 87.727C625.587 84.1826 626.247 80.5765 626.644 76.9368C626.987 73.8103 627.514 70.72 627.433 68.0452C627.357 65.7867 626.801 63.5776 625.009 62.419C623.453 62.7763 622.623 64.4417 622.017 66.0233ZM614.104 102.571C613.459 98.3324 614.493 92.4593 615.599 86.8317C615.926 85.1635 616.146 83.4341 616.559 81.9422C618.476 74.949 619.879 67.0325 622.915 62.6706C622.613 62.8729 622.258 62.9835 621.895 62.9891C619.41 67.2948 617.536 71.9249 616.326 76.7465C615.614 79.3534 615.475 82.2564 614.712 84.9648C614.223 86.8017 613.856 88.6688 613.614 90.5539C613.335 92.5831 612.928 94.0442 612.717 95.895C612.621 97.0618 612.585 98.2328 612.61 99.4032C612.573 101.344 612.742 101.984 613.465 103.18C613.795 103.7 614.029 104.377 614.741 104.533C614.795 104.543 614.879 104.56 614.9 104.492C614.485 103.922 614.207 103.264 614.089 102.568L614.104 102.571ZM616.591 66.3309C614.857 69.7511 614.015 74.4082 612.769 79.042C611.877 82.364 611.329 85.6418 610.628 89.209C610.138 91.7076 609.461 94.1776 609.169 96.276C609.022 97.309 609.413 97.6734 609.84 98.4678C610.253 99.2902 610.737 100.075 611.288 100.812C611.484 101.074 611.612 101.602 611.958 101.463C611.34 98.1477 612.487 94.3807 612.921 90.5456C613.081 88.8184 613.369 87.1056 613.784 85.4213C614.618 82.3915 614.936 79.1083 615.717 76.3076C616.868 72.0555 618.444 67.9298 620.42 63.9929C620.427 63.9545 620.435 63.9161 620.357 63.9086C619.081 64.712 617.659 65.287 616.571 66.351L616.591 66.3309ZM587.062 72.8909C586.894 71.5485 586.434 69.989 586.332 68.4758C586.274 67.7139 586.296 66.8718 586.293 66.0728C586.289 65.4014 586.001 64.2269 586.996 63.9991C587.346 64.611 587.125 65.334 587.125 65.9409C587.138 67.8853 587.349 69.8234 587.754 71.7253C588.706 76.4881 589.971 81.1829 591.541 85.7792C591.915 86.8827 592.278 88.04 592.724 89.1018C593.614 91.2007 594.922 93.1983 595.371 95.5061C599.069 96.2325 602.163 97.0638 605.24 96.9256C605.182 96.0439 604.95 95.2718 604.84 94.4517C604.745 94.936 605.003 95.857 604.409 95.9159C603.584 92.3392 603.412 88.6431 603.901 85.0052C604.197 82.6845 604.695 80.3939 605.389 78.1594C605.558 77.7056 605.806 77.0517 606.291 76.9394C605.397 82.1452 604.038 88.697 604.791 93.1965C604.924 89.7573 604.603 86.0215 605.761 82.2806C606.216 82.2422 605.642 83.2153 605.895 83.1053C606.568 79.2763 607.742 75.5526 609.388 72.0302C610.105 70.2544 611.005 68.5581 612.074 66.9688C612.371 66.556 612.743 65.7588 613.436 66.0545C612.649 67.0203 611.974 68.0715 611.423 69.1883C610.276 72.0609 609.606 75.754 608.483 78.9109C608.38 79.2339 608.914 78.7081 608.796 79.1879C608.569 81.4827 607.821 83.787 607.437 86.107C607.26 87.2539 607.702 85.4085 607.784 85.0732C608.784 81.1178 609.723 77.5176 610.806 73.7539C611.325 72.2418 611.933 70.7615 612.626 69.3209C612.79 68.9377 612.602 68.3499 613.188 68.3294C612.948 70.446 611.84 72.432 611.216 74.6329C609.452 80.8897 607.521 88.1995 606.247 94.6881C605.852 93.9719 606.106 95.403 605.553 94.8472C605.646 95.5369 605.683 96.2331 605.663 96.9288C606.536 96.9565 607.422 96.9949 608.354 97.0901C609.748 90.5611 610.857 83.0021 612.7 76.4655C613.713 72.8558 614.278 69.246 615.75 66.5489C611.505 65.4757 608.095 63.4485 603.783 62.4339C597.991 61.0688 592.116 60.0882 586.195 59.4983C586.067 59.9864 585.97 60.4819 585.903 60.9821C586.105 60.9737 586.551 60.167 587.075 60.6293C586.312 60.9745 586.122 62.7975 585.984 63.9443C585.577 67.4013 586.103 71.4729 586.458 74.2574C586.537 74.5045 586.699 73.8816 586.84 74.1808C586.99 74.3139 587.135 75.0371 587.234 74.7771C587.234 74.7771 587.157 74.762 587.178 74.6943C587.096 74.1033 587.05 73.5077 587.042 72.9109L587.062 72.8909ZM610.214 71.4819C608.247 76.0061 606.107 81.9015 606.024 87.57C606.787 81.7316 608.706 76.3118 610.194 71.5019L610.214 71.4819ZM605.585 89.0328C605.44 90.1738 605.411 91.3266 605.5 92.4734C605.525 91.3286 606.027 89.8702 605.565 89.0528L605.585 89.0328ZM594.853 95.3804C594.906 95.391 594.949 95.3355 594.949 95.2556C594.133 93.3314 593.143 91.4854 591.992 89.7404C592.01 90.5424 593.274 91.3417 592.566 92.0647C591.966 91.947 591.943 91.4154 591.568 91.1263C591.825 91.6878 592.085 92.2738 592.413 92.8412C592.741 93.4086 593.438 93.841 593.183 94.5334C592.167 94.0544 591.896 92.9552 591.372 92.1257C590.759 91.2207 590.208 90.2749 589.724 89.295C588.35 86.1327 587.317 82.833 586.643 79.4518C585.479 74.5656 584.98 69.5446 585.16 64.5248C585.057 65.0476 584.959 65.5473 584.858 66.0624C584.746 66.9586 584.99 67.9488 584.543 68.396C583.882 66.1503 584.872 62.1688 585.657 59.3527C585.314 59.3492 584.879 59.2478 584.568 59.2827C583.942 61.4346 583.441 63.6208 583.067 65.8304C583.539 65.3801 583.514 64.1218 584.1 63.9016C584.069 66.8657 583.743 69.4205 584.062 71.9824C584.477 74.3168 585.057 76.6188 585.799 78.8708C586.654 82.2337 587.725 85.5379 589.006 88.7627C589.428 89.7877 590.129 90.8516 589.959 92.0399C589.295 91.7257 589.285 90.3106 588.754 90.3339C588.637 91.1733 589.19 92.5435 588.51 93.0806C588.072 91.4457 588.196 89.4339 587.61 87.9055C587.424 89.2184 588.155 91.3501 586.991 92.1915C586.709 90.5392 586.899 88.5964 586.634 86.8994C586.436 88.8407 586.623 91.0174 586.429 93.183C589.268 93.9323 592.057 94.6556 594.833 95.4004L594.853 95.3804ZM585.517 92.7482C585.496 91.5544 585.706 90.1985 585.658 89.0232C585.351 90.0568 585.044 91.0904 584.692 92.0673C584.662 92.2211 584.097 92.4535 584.379 92.5248C584.66 92.596 585.303 93.0256 585.498 92.7606L585.517 92.7482ZM586.665 86.131C586.718 85.1987 586.52 84.2693 586.092 83.4395C584.911 86.0741 584.088 89.2499 582.722 91.6086C582.365 91.3547 582.402 91.8171 581.973 91.6849C582.288 90.0889 582.766 88.5293 583.398 87.0304C584.013 85.2777 584.789 83.5859 585.716 81.9764C585.497 81.55 585.479 80.9877 585.26 80.5613C584.94 81.5765 584.212 82.4795 584.037 83.4112C584.204 83.2923 584.229 82.9619 584.489 82.981C583.934 84.3412 583.101 85.982 582.496 87.516C581.978 88.8515 581.648 90.4552 580.483 91.017C580.277 90.3616 581.418 89.2683 581.24 88.6666C580.561 88.6689 580.86 90.1169 580.17 90.0532C579.73 89.1205 580.47 88.156 580.781 87.3068C581.877 84.2883 583.573 81.5075 584.813 78.9725C584.752 78.5453 584.635 78.1278 584.466 77.7307C583.432 80.7213 582.453 83.9145 580.785 85.9823C580.601 86.1058 580.434 85.7377 580.335 86.0376C579.952 86.7428 579.635 87.4827 579.39 88.2474C579.121 88.929 578.94 90.0113 578.105 89.9113C578.53 87.5036 579.962 85.054 580.897 82.8105C580.857 82.7307 580.39 82.7907 580.44 82.4971C580.571 81.3811 581.371 80.7637 581.413 79.8217C579.613 83.0768 578.041 86.4522 576.706 89.9238C579.065 91.0341 581.549 91.8596 584.103 92.3828C584.725 90.3571 585.305 87.4449 586.646 86.1434L586.665 86.131ZM583.572 74.5608C583.528 75.2309 583.506 75.8732 583.48 76.531C583.112 76.778 582.834 77.1381 582.688 77.557C582.915 77.4979 583.055 77.5573 583.083 77.7785C582.705 78.8938 582.136 80.2033 581.841 81.1355C582.761 80.1105 582.893 77.8928 584.076 77.2388C584.271 77.1813 584.391 77.4605 584.429 77.3083C584.048 76.403 583.864 75.4725 583.553 74.5732L583.572 74.5608ZM581.884 77.1757C581.804 74.0061 582.88 70.1134 582.868 66.9251C582.899 66.7637 582.507 67.1338 582.528 66.7865C582.593 64.8782 582.866 62.9828 583.343 61.1338C583.531 60.4602 583.977 59.8133 583.857 59.2467C583.35 59.147 583.159 59.6686 582.968 60.0303C582.227 61.3068 581.686 62.6898 581.365 64.1307C581.286 64.5305 581.46 64.9478 581.412 65.3936C581.285 66.4865 580.923 67.5972 580.76 68.7148C580.061 73.3683 579.67 78.3296 579.026 82.7463C579.494 81.8642 579.977 80.9929 580.435 80.0847C580.121 78.3065 580.542 75.8819 580.681 73.5859C580.739 72.5992 580.862 71.6093 580.966 70.6317C581.07 69.6541 581.031 68.5126 581.606 67.7392C582.132 70.9964 581.28 75.1726 581.002 78.9427C581.26 78.4025 581.879 77.8134 581.866 77.188L581.884 77.1757ZM580.093 67.9212C580.019 68.2979 579.883 67.9757 579.697 68.067C579.512 68.1583 579.4 69.2142 579.308 69.6832C578.311 74.8643 577.769 80.1227 577.69 85.3983C579.069 79.6807 579.182 73.7386 580.075 67.9335L580.093 67.9212ZM581.369 59.1093C580.931 60.4845 579.979 62.118 579.868 63.3738C580.245 63.288 580.298 62.7715 580.417 62.4515C580.842 61.3053 581.332 59.9884 582.103 59.4771C582.298 60.3138 581.68 61.1426 581.319 61.9659C580.695 63.1809 580.289 64.4952 580.117 65.8498C580.764 63.5805 581.604 61.3707 582.628 59.2448C582.204 59.2501 581.782 59.2046 581.369 59.1093ZM576.789 86.898C576.855 79.4919 577.689 72.1126 579.278 64.8785C578.999 65.319 578.884 66.0707 578.604 66.4389C578.465 66.6192 578.272 66.5015 578.25 66.7367C576.432 74.3642 575.23 82.1125 575.354 88.5963C575.258 89.0806 575.36 89.4997 575.971 89.516C576.45 88.9474 576.576 87.8622 576.951 87.1295C576.948 87.0755 576.933 87.023 576.906 86.9761C576.879 86.9292 576.842 86.8893 576.797 86.8596L576.789 86.898ZM579.869 66.7434C579.855 67.06 579.626 67.4941 579.744 67.7487C579.893 67.4348 580 66.7691 579.874 66.7203L579.869 66.7434ZM580.407 59.128C579.28 61.3333 578.359 63.6383 577.657 66.0135C577.831 65.1294 578.577 64.4615 578.926 63.6198C579.575 62.1025 579.817 60.4254 580.69 59.1117C580.601 59.0762 580.502 59.0738 580.412 59.105L580.407 59.128ZM576.798 69.3738C576.811 69.3046 576.716 69.3019 576.707 69.4279C575.025 75.6036 574.047 81.9496 573.79 88.345C574.041 88.4502 574.704 89.0994 574.822 88.6995C574.225 83.0809 575.277 76.3411 576.779 69.3862L576.798 69.3738ZM577.272 63.0954C576.71 64.0929 576.213 65.1264 575.786 66.189C575.297 67.6258 574.99 69.2264 574.584 70.8073C573.57 74.7521 572.553 79.0717 572.434 82.8889C572.484 83.6229 572.486 84.3594 572.441 85.0938C572.389 85.3552 572.268 85.5231 572.232 85.7875C572.243 86.3138 572.188 86.8395 572.069 87.3522C572.489 87.4906 572.647 88.0248 573.137 87.9294C572.872 79.318 575.833 67.6992 578.943 60.2378C578.427 61.1585 577.797 62.0887 577.272 63.0954ZM569.692 80.3861C569.711 81.7897 569.831 83.1902 570.051 84.5765C570.087 85.1664 569.924 85.6694 570.071 85.9778C570.311 86.504 571.086 86.7041 571.47 86.9871C571.477 85.0403 571.612 82.8472 571.779 80.9397C572.049 77.9166 572.539 74.9173 573.246 71.9659C573.682 69.9102 574.276 67.8913 575.023 65.9273C575.278 65.3226 575.692 64.7972 575.945 64.2001C576.452 62.9324 577.087 61.7194 577.838 60.5797C578.133 60.1346 578.804 59.404 578.778 59.1674C578.3 59.1214 578.284 59.6531 578.113 59.9149C576.76 62.0446 574.838 63.783 573.891 66.4475C573.575 66.2258 574.091 65.4327 573.927 65.129C572.224 69.1222 570.169 75.1141 569.692 80.3861ZM566.699 87.7825C567.168 87.4675 569.045 86.4868 569.204 85.8793C569.174 85.1933 569.086 84.5111 568.942 83.8397C568.766 82.7326 568.692 81.6116 568.722 80.4909C569.15 76.3969 570.161 72.385 571.724 68.5769C573.018 65.3657 573.809 62.3514 575.755 60.2504C576.367 59.5722 577.135 59.2837 577.857 58.5314C577.41 57.9245 577.054 57.2558 576.53 56.6737C576.031 56.1982 575.505 55.7511 574.956 55.3347C574.651 55.0591 574.462 54.5589 574.09 54.5018C573.718 54.4447 572.471 55.2618 572.196 55.527C571.525 56.2873 570.922 57.1037 570.391 57.9671C569.11 59.7521 568.061 61.6923 567.269 63.7415C566.874 64.8138 566.319 65.8544 565.909 66.9237C565.161 68.9963 564.525 71.1076 564.004 73.2485C562.458 79.085 560.69 86.339 564.047 89.2898C564.985 88.8736 565.874 88.3547 566.698 87.7426L566.699 87.7825ZM576.876 60.3587C576.156 60.9661 575.597 61.7424 575.25 62.6184C575.653 61.7473 576.679 60.871 576.829 60.3097L576.876 60.3587ZM572.121 53.4683C570.712 54.5952 569.501 55.9496 568.539 57.4757C568.197 57.9993 567.805 58.5692 567.485 59.105C565.655 62.3613 564.277 65.851 563.387 69.4785C562.999 70.8873 562.874 72.0923 562.456 73.4874C561.298 77.5556 560.038 82.0189 560.04 85.7881C559.987 86.7866 560.224 87.7792 560.724 88.6452C561.368 88.9401 562.031 89.1929 562.708 89.402C562.032 88.2703 561.554 87.0316 561.295 85.7392C560.881 82.3602 561.865 78.202 562.96 74.297C563.67 71.7377 564.197 69.1745 565.1 66.7729C565.493 65.7082 566.095 64.6767 566.521 63.6027C566.946 62.5143 567.447 61.4574 568.021 60.4399C569.612 57.6625 571.14 55.168 573.352 53.9097C572.873 53.7838 572.564 53.5713 572.113 53.4269L572.121 53.4683Z" stroke="#50735F" stroke-width="2" mask="url(#path-18-inside-3_1_88310)"/>
</g>
</svg>
