<svg width="92" height="48" viewBox="0 0 92 48" fill="none" xmlns="http://www.w3.org/2000/svg">
<path d="M51.8019 10.526C51.7002 9.82625 52.2703 9.25405 52.7641 8.88959C53.4317 8.41772 54.1661 8.04915 54.9427 7.79622C56.7582 7.15477 58.6936 7.06731 60.6144 7.1074C61.7317 7.10909 62.8478 7.18577 63.9549 7.33699C65.0855 7.55636 66.1639 7.99057 67.1321 8.61625C69.0565 9.78981 70.7159 11.3716 72.4624 12.8003C73.9148 13.9884 75.32 15.2202 76.1334 16.9988C76.6081 18.1231 76.9482 19.3001 77.1465 20.5049C77.2709 21.1388 77.3341 21.7832 77.3353 22.4293C77.3353 22.9213 77.259 23.4096 77.2445 23.8871C77.2227 24.7946 77.4878 25.7094 78.3628 26.0738C79.3033 26.4602 80.2946 25.9499 81.1878 25.6438C82.1563 25.3629 83.1703 25.275 84.1725 25.385C85.2279 25.4234 86.2397 25.8175 87.0446 26.5039C87.9964 27.3307 88.7593 28.3538 89.2813 29.5034C89.5403 30.0584 89.7246 30.6455 89.8296 31.2492C89.9349 31.8797 89.9204 32.5175 90.0511 33.148C90.3234 34.4491 90.8826 35.8049 90.3017 37.106C89.8514 38.1156 88.94 38.8408 88.3373 39.752C88.3 39.818 88.2802 39.8924 88.2797 39.9683C88.2792 40.0441 88.298 40.1189 88.3344 40.1854C88.3708 40.2518 88.4236 40.3078 88.4876 40.3481C88.5517 40.3883 88.6249 40.4115 88.7004 40.4153C89.8224 40.3934 90.5776 40.9802 90.879 42.11C91.0957 43.0941 91.1787 44.1031 91.1259 45.1095C91.1259 45.8603 91.0351 46.6986 90.1564 46.7204C89.9224 46.7249 89.6893 46.6904 89.4665 46.6184C89.2059 46.537 88.9332 46.5012 88.6604 46.5127H65.4872C62.0595 46.5127 58.6137 46.4143 55.1896 46.6257C51.86 46.8334 48.5049 47.2926 45.1644 47.0885C43.5377 46.9865 41.9218 46.7241 40.3024 46.5309C38.6988 46.3706 37.0846 46.345 35.4768 46.4544C33.861 46.5236 32.2415 46.5163 30.6221 46.5674C29.0027 46.6184 27.3142 46.684 25.6621 46.6439C24.0088 46.6357 22.3644 46.4003 20.7747 45.9442C20.0451 45.7006 19.3033 45.495 18.5526 45.3282C17.7681 45.2298 16.9749 45.2225 16.1888 45.3064C15.3951 45.3045 14.6077 45.1651 13.8613 44.8945C13.1406 44.6826 12.3967 44.5602 11.6463 44.5301C9.94339 44.4316 8.24406 44.5118 6.54474 44.5738C5.72776 44.5993 4.91078 44.6248 4.0938 44.6248V45.5068L4.5731 45.474C4.53679 45.1861 4.50048 44.8981 4.46054 44.6102C3.48379 44.8143 3.37122 43.6699 3.3095 42.9046C3.24051 41.8768 3.34218 40.8344 3.17153 39.814C2.83747 37.8349 2.13304 35.9361 1.62107 34.0045C1.0907 31.9836 0.846233 29.8979 0.894864 27.8087C0.882166 26.8928 1.05511 25.9839 1.40321 25.1372C1.75192 24.3802 2.18431 23.6651 2.69223 23.0051C3.18968 22.3381 3.73434 21.7149 4.22816 21.0407C4.72198 20.3664 5.20489 19.6594 5.94199 19.2439C6.67909 18.8284 7.53964 18.7519 8.33847 18.5623C9.1373 18.3728 9.98696 18.0594 10.8221 17.8334C12.4609 17.4612 14.1383 17.2874 15.8184 17.3159C17.6521 17.3159 19.9868 16.9514 21.5264 18.2708C22.1272 18.868 22.6876 19.5048 23.2039 20.1769C23.8357 20.8854 24.5296 21.5355 25.2772 22.1194C25.6403 22.4183 26.0034 21.8643 25.8509 21.5145C25.4228 20.5631 25.1483 19.5493 25.0376 18.5113C24.9867 17.5386 25.0921 16.5639 25.3498 15.6248C25.8073 13.7734 25.9889 11.849 26.5771 10.0304C27.1271 8.4796 28.0182 7.07319 29.1842 5.91562C30.3423 4.67877 31.6556 3.59821 33.0912 2.70109C34.3838 1.89199 35.8326 1.17765 37.3467 1.01729C39.0092 0.80336 40.6933 0.822976 42.3503 1.07559C44.0423 1.33876 45.6115 2.12183 46.8419 3.31702C47.4227 3.94817 47.9117 4.65861 48.2943 5.42723C48.9299 6.53804 49.4728 7.69978 49.9174 8.90054C50.105 9.36729 50.2272 9.85791 50.2805 10.3584C50.2868 10.4803 50.2795 10.6025 50.2587 10.7228C50.2187 10.8103 50.2587 10.7666 50.1897 10.8212C50.1389 10.8212 50.2696 10.7556 50.1897 10.8212C50.1529 10.8261 50.1166 10.8334 50.0808 10.8431C49.547 10.9269 49.7721 11.7761 50.3023 11.6923C52.3393 11.3679 50.128 7.15112 49.7068 6.29465C49.2448 5.32 48.7121 4.38082 48.1128 3.48468C47.1787 2.23127 45.8966 1.28283 44.4272 0.758512C42.6938 0.157006 40.8581 -0.0908167 39.0279 0.0295944C38.1753 0.0389098 37.3251 0.120613 36.4862 0.273798C35.6751 0.458933 34.889 0.740328 34.1442 1.11205C32.4891 1.93173 30.9624 2.99016 29.6127 4.25368C28.2917 5.39579 27.185 6.76586 26.3447 8.29917C25.299 10.362 25.1102 12.7274 24.6091 14.9651C24.3441 16.1496 24.0681 17.294 24.1625 18.5222C24.2862 19.7141 24.6001 20.8782 25.092 21.97L25.6694 21.3687C24.9457 20.7948 24.2771 20.1542 23.6723 19.4553C23.1717 18.8127 22.6295 18.204 22.0492 17.633C20.5968 16.3902 18.5598 16.3938 16.7879 16.4375C14.9506 16.4849 13.1569 16.4667 11.3413 16.8348C10.4263 17.0243 9.52582 17.294 8.63985 17.5637C7.80472 17.8188 6.92238 17.8917 6.09813 18.2015C5.29688 18.5196 4.60189 19.0592 4.0938 19.7578C3.53825 20.4867 3.0045 21.1937 2.43443 21.9081C1.34512 23.3112 0.303014 24.8565 0.085152 26.7007C-0.1155 28.8713 0.039037 31.0603 0.542654 33.1808C1.01106 35.3202 1.7881 37.3721 2.24561 39.5151C2.5252 40.8235 2.34001 42.1611 2.51793 43.4841C2.55399 44.0612 2.76565 44.6133 3.12432 45.0658C3.32577 45.263 3.57596 45.4028 3.84912 45.4707C4.12228 45.5386 4.40853 45.5322 4.6784 45.4521C5.13954 45.3537 5.0415 44.5556 4.56584 44.5884L4.08654 44.6175C3.54915 44.654 3.53826 45.4995 4.08654 45.4995C5.84759 45.4995 7.60138 45.3829 9.36242 45.361C10.2375 45.361 11.1126 45.361 11.984 45.423C12.7977 45.5195 13.5995 45.699 14.3769 45.9587C15.1291 46.1532 15.9091 46.2161 16.6826 46.1446C17.5369 46.0721 18.3973 46.151 19.2243 46.3779C20.0159 46.5965 20.7965 46.8699 21.5954 47.0703C22.3982 47.2607 23.2157 47.3826 24.039 47.4348C25.7424 47.5392 27.45 47.5563 29.1551 47.4858C30.869 47.4348 32.5865 47.4166 34.3039 47.3692C36.0214 47.3218 37.699 47.1651 39.3874 47.2999C41.0758 47.4348 42.6771 47.7409 44.3256 47.8904C47.8005 48.2074 51.2899 47.7592 54.7539 47.5259C58.3268 47.2854 61.9179 47.3801 65.4945 47.3801H88.2211C88.5679 47.3502 88.9172 47.376 89.2559 47.4566C89.7354 47.619 90.2517 47.6367 90.741 47.5077C91.5979 47.2562 91.903 46.4143 91.9683 45.5542C92.0363 44.5455 91.9949 43.5325 91.8448 42.5328C91.6923 41.505 91.2711 40.4408 90.3634 39.9051C89.8559 39.6316 89.2826 39.5054 88.7076 39.5406L89.0707 40.2039C89.6553 39.3183 90.5014 38.6331 90.9807 37.6527C91.5289 36.5593 91.4636 35.3748 91.1876 34.2122C91.0497 33.6218 90.8681 33.035 90.7846 32.43C90.7011 31.825 90.7083 31.2127 90.5667 30.6077C90.279 29.4575 89.7668 28.3761 89.0599 27.426C88.4319 26.5217 87.6293 25.7532 86.6997 25.1663C85.7375 24.5978 84.5719 24.4739 83.4826 24.4739C82.4554 24.4526 81.4329 24.6193 80.4652 24.9659C79.5611 25.3012 78.1922 25.6948 78.0978 24.2552C78.0906 23.8011 78.1124 23.347 78.1631 22.8957C78.202 22.2371 78.1716 21.5762 78.0724 20.924C77.8947 19.5886 77.5583 18.2794 77.0702 17.0243C76.2968 15.0854 74.917 13.6932 73.3629 12.4139C71.5474 10.9196 69.8045 9.27228 67.8256 8.01126C66.8426 7.34708 65.755 6.85421 64.6085 6.55342C63.4455 6.32831 62.2635 6.21722 61.0792 6.22175C58.8134 6.13792 56.5258 6.22176 54.3799 7.05273C52.8803 7.62857 50.7017 8.71465 50.9958 10.7374C51.0793 11.295 51.889 11.0581 51.8091 10.5005L51.8019 10.526Z" fill="#434343"/>
</svg>
