<svg width="35" height="42" viewBox="0 0 35 42" fill="none" xmlns="http://www.w3.org/2000/svg">
<path d="M16.011 9.90165C16.8309 7.07288 19.074 5.33711 22.0064 4.11874C23.1159 3.66094 24.1462 3.04875 25.0625 2.30294C28.5479 -0.455658 32.4369 0.0758561 33.781 3.46853C34.3705 4.9259 34.5951 6.49299 34.4373 8.04925C33.8389 13.8886 33.2853 19.7312 31.9916 25.5682C31.3555 28.4451 30.34 31.2388 28.9686 33.8845C28.3949 35.0048 28.0068 36.164 27.5052 37.3086C27.1229 38.1787 27.1075 38.1755 25.9687 38.5233L25.2232 41.3005C24.7771 41.0887 24.3529 40.8391 23.9556 40.5549C20.1248 37.1881 16.0188 34.1078 11.6745 31.3418C8.14865 29.0934 5.13872 26.2071 2.81956 22.8505C1.4488 20.8273 0.41458 18.6913 0.606713 16.2351C0.711054 14.8785 1.21772 13.5738 2.06941 12.4686C2.42265 11.9957 2.71238 11.5034 3.009 11.0094C3.7242 9.76469 4.72348 8.6823 5.93497 7.84015C7.03202 7.07007 8.4034 6.73051 9.75675 6.89388C10.1548 6.95933 10.5567 7.00282 10.9605 7.02413C11.7479 7.00642 12.5279 7.15756 13.2413 7.46605C13.9546 7.77454 14.5824 8.23223 15.0768 8.80424C15.3255 9.11616 15.5728 9.39415 16.011 9.90165ZM25.6501 4.74856C23.5032 6.20849 21.6747 8.0424 20.2654 10.1492C19.0346 12.0668 17.9671 14.0216 18.1513 16.1229C18.1512 16.2658 18.1144 16.4068 18.0442 16.5341C17.974 16.6613 17.8723 16.7711 17.7478 16.8541C17.3164 17.0524 16.9772 17.3925 16.7951 17.8094C16.6998 17.9354 16.5789 18.0426 16.4393 18.1245C16.2998 18.2065 16.1444 18.2616 15.9823 18.2867C15.8328 18.2616 15.6938 18.1984 15.5804 18.1041C15.4671 18.0097 15.3837 17.8878 15.3395 17.7516C15.1404 16.9156 15.0543 16.0588 15.0831 15.2013C15.1605 14.0461 14.9452 12.8919 14.4548 11.8334C13.7491 10.1484 13.297 9.8702 10.9744 9.96668C10.5612 9.98085 10.1411 9.99663 9.72935 10.0447C6.60949 10.3957 6.45206 10.494 5.64404 12.9158C5.0291 14.6037 4.86701 16.4051 5.17219 18.1601C5.47737 19.9151 6.24035 21.5692 7.39335 22.9756C11.0977 27.8085 15.5689 32.0786 20.6532 35.6391C21.4514 36.1776 22.3056 36.6393 23.203 37.0173C23.7479 37.2044 24.3119 37.339 24.8865 37.4193C25.0713 37.1135 25.2337 36.7964 25.3727 36.4701C26.0882 34.2001 26.9879 31.935 27.4592 29.6534C28.5893 24.0326 29.5247 18.4504 30.6184 12.8586C30.8964 11.6785 30.7108 10.4469 30.0959 9.39074C29.0635 7.5176 27.5472 5.91917 25.6846 4.74051L25.6501 4.74856ZM25.73 3.18854L25.8749 3.3534C26.2429 3.19222 26.5989 3.01327 26.9701 2.86501C28.6554 2.19788 30.0721 2.38808 30.9749 3.5339C31.4346 4.15312 31.7928 4.83384 32.0376 5.55358C32.4948 7.04816 32.626 8.61581 32.4235 10.1631C32.4091 10.6649 32.424 11.1669 32.468 11.6667C33.0664 10.0094 33.2837 8.25416 33.1055 6.51706C33.0227 5.53342 32.7738 4.56942 32.368 3.6611C31.3051 1.24413 28.7363 0.925331 26.1133 2.83196C26.035 2.92556 25.9083 3.05788 25.7645 3.18049L25.73 3.18854ZM16.9967 12.0763C17.8712 10.7899 18.5458 9.74883 19.2701 8.7304C19.9944 7.71197 20.7979 6.68877 21.6801 5.51705C20.2745 6.02416 19.0707 6.93066 18.2378 8.1092C17.4049 9.28773 16.9846 10.679 17.0362 12.0876L16.9967 12.0763ZM30.7717 7.56153C30.8777 6.95067 30.8462 6.32662 30.6795 5.72956C30.5127 5.1325 30.2143 4.57566 29.8034 4.09489C29.0975 3.28678 28.316 3.29094 27.1603 4.02636L30.7717 7.56153ZM3.8027 17.7366C3.89898 16.6934 3.92295 15.6534 4.10534 14.6038C4.28773 13.5542 4.64212 12.5193 4.95267 11.3713C4.50657 11.5413 4.11651 11.8203 3.82324 12.1791C3.52996 12.538 3.34424 12.9635 3.28546 13.4112C3.06182 14.8733 3.23987 16.3622 3.8027 17.7366ZM5.64192 22.6785C5.97625 23.8341 6.55096 24.9148 7.33307 25.8586C8.11518 26.8024 9.08927 27.5907 10.1995 28.1784L5.64192 22.6785ZM12.1449 8.89211C10.4094 7.69388 9.65848 7.75943 8.22837 9.21653L12.1449 8.89211ZM2.10584 16.2348C1.94862 17.0119 1.96969 17.8104 2.16764 18.577C2.3656 19.3436 2.73588 20.0607 3.25376 20.6803L2.10584 16.2348ZM7.49827 8.20166C6.06153 8.78342 5.6906 9.10286 5.25267 10.0408C6.48903 9.75925 6.80469 8.82929 7.49827 8.20166ZM24.3367 38.7738L24.6734 38.0102L23.419 37.9672C23.5143 38.1055 23.6215 38.2363 23.7394 38.3583C23.9304 38.5067 24.1298 38.6455 24.3367 38.7738Z" fill="#884F56"/>
</svg>
