<svg width="64" height="80" viewBox="0 0 64 80" fill="none" xmlns="http://www.w3.org/2000/svg">
<path d="M5 21.3998L21 7.39978L21.5 49.8998L5 40.3998V21.3998Z" fill="#669078"/>
<path d="M21.1957 6.15053C21.1563 6.2293 21.0775 6.29823 20.9988 6.29823C20.92 6.29823 20.8609 6.38684 20.8609 6.49515C20.8609 6.62315 20.792 6.69207 20.664 6.69207C20.5557 6.69207 20.4671 6.76099 20.4671 6.83976C20.4671 6.91853 20.3982 6.98746 20.3194 6.98746C20.2406 6.98746 20.0929 7.07607 20.0043 7.18438C19.9058 7.29269 19.7778 7.3813 19.7089 7.3813C19.64 7.3813 19.5809 7.45023 19.5809 7.529C19.5809 7.60777 19.512 7.67669 19.4332 7.67669C19.3545 7.67669 19.2855 7.73576 19.2855 7.81453C19.2855 7.88346 19.1969 7.97207 19.0886 8.00161C18.9803 8.03115 18.8917 8.11976 18.8917 8.20838C18.8917 8.29699 18.8228 8.36592 18.744 8.36592C18.6652 8.36592 18.5963 8.43484 18.5963 8.51361C18.5963 8.59238 18.5274 8.6613 18.4486 8.6613C18.3698 8.6613 18.3009 8.73022 18.3009 8.80899C18.3009 8.88776 18.2123 8.95669 18.104 8.95669C17.9957 8.95669 17.9071 9.02561 17.9071 9.10438C17.9071 9.18315 17.8382 9.25207 17.7594 9.25207C17.6806 9.25207 17.6117 9.34069 17.6117 9.44899C17.6117 9.5573 17.5428 9.64592 17.464 9.64592C17.3852 9.64592 17.3163 9.71484 17.3163 9.79361C17.3163 9.87238 17.2277 9.9413 17.1194 9.9413C17.0111 9.9413 16.9225 10.0102 16.9225 10.089C16.9225 10.1678 16.8535 10.2367 16.7748 10.2367C16.696 10.2367 16.6271 10.3056 16.6271 10.3844C16.6271 10.4632 16.568 10.5321 16.4991 10.5321C16.4302 10.5321 16.3022 10.6207 16.2037 10.729C16.1151 10.8373 15.9674 10.9259 15.8886 10.9259C15.8098 10.9259 15.7409 10.9948 15.7409 11.0736C15.7409 11.1524 15.6523 11.2213 15.544 11.2213C15.416 11.2213 15.3471 11.2902 15.3471 11.4182C15.3471 11.5265 15.2782 11.6152 15.1994 11.6152C15.1206 11.6152 15.0517 11.6841 15.0517 11.7628C15.0517 11.8416 14.9828 11.9105 14.904 11.9105C14.8252 11.9105 14.7563 11.9795 14.7563 12.0582C14.7563 12.137 14.6677 12.2059 14.5594 12.2059C14.4511 12.2059 14.3625 12.2748 14.3625 12.3536C14.3625 12.4324 14.2935 12.5013 14.2148 12.5013C14.136 12.5013 14.0671 12.5899 14.0671 12.6982C14.0671 12.8262 13.9982 12.8951 13.8702 12.8951C13.7618 12.8951 13.6732 12.9641 13.6732 13.0428C13.6732 13.1216 13.6043 13.1905 13.5255 13.1905C13.4468 13.1905 13.3778 13.2595 13.3778 13.3382C13.3778 13.417 13.3089 13.4859 13.2302 13.4859C13.1514 13.4859 13.0825 13.545 13.0825 13.6238C13.0825 13.6927 12.9938 13.7813 12.8855 13.8108C12.7772 13.8404 12.6886 13.929 12.6886 14.0176C12.6886 14.1062 12.6197 14.1751 12.5409 14.1751C12.4622 14.1751 12.3932 14.2441 12.3932 14.3228C12.3932 14.4016 12.3243 14.4705 12.2455 14.4705C12.1668 14.4705 12.0978 14.5296 12.0978 14.6084C12.0978 14.6871 11.9698 14.7758 11.8025 14.8151C11.6449 14.8545 11.5071 14.9431 11.5071 15.0219C11.5071 15.1007 11.4382 15.1598 11.3594 15.1598C11.2806 15.1598 11.2117 15.2287 11.2117 15.3075C11.2117 15.3862 11.1231 15.4551 11.0148 15.4551C10.9065 15.4551 10.8178 15.5241 10.8178 15.6028C10.8178 15.6816 10.7588 15.7505 10.68 15.7505C10.6111 15.7505 10.5225 15.8391 10.4929 15.9475C10.4634 16.0558 10.3748 16.1444 10.2862 16.1444C10.1975 16.1444 10.1286 16.2133 10.1286 16.2921C10.1286 16.3708 10.0597 16.4398 9.98093 16.4398C9.90216 16.4398 9.83323 16.5087 9.83323 16.5875C9.83323 16.6662 9.76431 16.7351 9.68554 16.7351C9.60677 16.7351 9.53785 16.7942 9.53785 16.873C9.53785 16.9419 9.44923 17.0305 9.34093 17.0601C9.23262 17.0896 9.144 17.1782 9.144 17.2668C9.144 17.3555 9.07508 17.4244 8.99631 17.4244C8.91754 17.4244 8.84862 17.4933 8.84862 17.5721C8.84862 17.6508 8.77969 17.7198 8.70093 17.7198C8.62216 17.7198 8.55323 17.7887 8.55323 17.8675C8.55323 17.9462 8.49416 18.0151 8.43508 18.0151C8.27754 18.0151 7.864 18.4484 7.864 18.5961C7.864 18.6552 7.79508 18.7044 7.71631 18.7044C7.63754 18.7044 7.56862 18.7733 7.56862 18.8521C7.56862 18.9308 7.48 18.9998 7.37169 18.9998C7.26339 18.9998 7.096 19.0884 7.00739 19.1967C6.90893 19.305 6.78093 19.3936 6.712 19.3936C6.64308 19.3936 6.584 19.4625 6.584 19.5413C6.584 19.6201 6.51508 19.689 6.43631 19.689C6.35754 19.689 6.28862 19.7579 6.28862 19.8367C6.28862 19.9155 6.21969 19.9844 6.14093 19.9844C6.06216 19.9844 5.99323 20.0435 5.99323 20.1222C5.99323 20.1912 5.90462 20.2798 5.79631 20.3093C5.688 20.3388 5.59939 20.4275 5.59939 20.5161C5.59939 20.6047 5.53046 20.6736 5.45169 20.6736C5.37293 20.6736 5.304 20.7425 5.304 20.8213C5.304 20.9001 5.24493 20.969 5.16616 20.969C5.09723 20.969 5.00862 21.0675 4.96923 21.1856C4.89046 21.4908 4.89046 39.5782 4.96923 40.2379C5.01846 40.5825 5.07754 40.7598 5.16616 40.7598C5.25477 40.7598 5.304 40.8681 5.304 41.0551C5.304 41.2422 5.35323 41.3505 5.44185 41.3505C5.51077 41.3505 5.59939 41.4391 5.62893 41.5475C5.65846 41.6558 5.74708 41.7444 5.83569 41.7444C5.92431 41.7444 5.99323 41.8133 5.99323 41.8921C5.99323 41.9905 6.09169 42.0398 6.28862 42.0398C6.48554 42.0398 6.584 42.089 6.584 42.1875C6.584 42.2662 6.65293 42.3351 6.73169 42.3351C6.82031 42.3351 6.90893 42.3942 6.93846 42.473C6.968 42.5518 7.12554 42.6502 7.28308 42.6798C7.44062 42.7191 7.56862 42.8078 7.56862 42.8865C7.56862 42.9751 7.67693 43.0244 7.91323 43.0244C8.14954 43.0244 8.25785 43.0736 8.25785 43.1622C8.25785 43.241 8.39569 43.3296 8.55323 43.369C8.72062 43.4084 8.84862 43.4773 8.84862 43.5265C8.84862 43.5758 8.90769 43.6151 8.97662 43.6151C9.04554 43.6151 9.17354 43.7038 9.272 43.8121C9.36062 43.9204 9.528 44.009 9.63631 44.009C9.74462 44.009 9.83323 44.0779 9.83323 44.1567C9.83323 44.2551 9.93169 44.3044 10.1286 44.3044C10.3157 44.3044 10.424 44.3536 10.424 44.4422C10.424 44.521 10.5717 44.6096 10.7686 44.6391C10.9754 44.6785 11.1132 44.7671 11.1132 44.8459C11.1132 44.9247 11.2018 44.9936 11.3102 44.9936C11.4185 44.9936 11.5071 45.0625 11.5071 45.1413C11.5071 45.2398 11.6055 45.289 11.8025 45.289C11.9994 45.289 12.0978 45.3382 12.0978 45.4367C12.0978 45.5155 12.1865 45.5844 12.2948 45.5844C12.4031 45.5844 12.5705 45.673 12.6591 45.7813C12.7575 45.8896 12.8855 45.9782 12.9545 45.9782C13.0234 45.9782 13.0825 46.0176 13.0825 46.0767C13.0825 46.1259 13.24 46.1948 13.4271 46.2342C13.624 46.2638 13.7717 46.3524 13.7717 46.4311C13.7717 46.5198 13.88 46.569 14.0671 46.569C14.2542 46.569 14.3625 46.6182 14.3625 46.7068C14.3625 46.7856 14.4905 46.8742 14.648 46.9136C14.8055 46.9431 14.9631 47.0416 14.9926 47.1204C15.0222 47.1991 15.1108 47.2582 15.1994 47.2582C15.2782 47.2582 15.3471 47.3271 15.3471 47.4059C15.3471 47.5044 15.4554 47.5536 15.6917 47.5536C15.928 47.5536 16.0363 47.6028 16.0363 47.6915C16.0363 47.7702 16.1643 47.8588 16.3218 47.8982C16.4794 47.9278 16.6369 48.0262 16.6665 48.105C16.696 48.1838 16.8338 48.2428 16.9717 48.2428C17.1292 48.2428 17.2178 48.3019 17.2178 48.3905C17.2178 48.4693 17.3065 48.5382 17.4148 48.5382C17.5231 48.5382 17.6117 48.6071 17.6117 48.6859C17.6117 48.7844 17.7102 48.8336 17.9071 48.8336C18.0745 48.8336 18.232 48.8927 18.2615 48.9715C18.2911 49.0502 18.4486 49.1487 18.6062 49.1782C18.7637 49.2176 18.8917 49.3062 18.8917 49.385C18.8917 49.4638 18.9803 49.5228 19.0886 49.5228C19.1969 49.5228 19.2855 49.5918 19.2855 49.6705C19.2855 49.769 19.384 49.8182 19.5809 49.8182C19.768 49.8182 19.8763 49.8675 19.8763 49.9561C19.8763 50.0348 20.024 50.1235 20.2209 50.153C20.4277 50.1924 20.5655 50.281 20.5655 50.3598C20.5655 50.4385 20.6345 50.5075 20.7132 50.5075C20.792 50.5075 20.8609 50.5764 20.8609 50.6551C20.8609 50.7339 20.92 50.8028 20.9889 50.8028C21.0972 50.8028 21.1366 51.1573 21.1858 52.3979C21.2252 53.4613 21.2843 54.0127 21.3631 54.0619C21.432 54.1013 21.5009 54.4558 21.5305 54.8791C21.56 55.4207 21.6092 55.6275 21.7077 55.6275C21.8062 55.6275 21.8455 55.7751 21.8455 56.169C21.8455 56.5825 21.8751 56.7105 21.9932 56.7105C22.1015 56.7105 22.1409 56.8287 22.1409 57.1536C22.1409 57.4687 22.1803 57.5967 22.2788 57.5967C22.3575 57.5967 22.4462 57.7444 22.4757 57.9315C22.5151 58.1185 22.584 58.2859 22.6431 58.3056C22.7022 58.3253 22.7711 58.5222 22.8006 58.7585C22.8302 59.0145 22.9089 59.1721 22.9877 59.1721C23.0665 59.1721 23.1255 59.2607 23.1255 59.369C23.1255 59.4773 23.1945 59.5659 23.2732 59.5659C23.3717 59.5659 23.4209 59.6644 23.4209 59.8416C23.4209 59.9893 23.5095 60.1862 23.6178 60.2847C23.7262 60.3733 23.8148 60.5407 23.8148 60.649C23.8148 60.7573 23.8837 60.8459 23.9625 60.8459C24.0412 60.8459 24.1102 60.9148 24.1102 60.9936C24.1102 61.0724 24.1791 61.1413 24.2578 61.1413C24.3366 61.1413 24.4055 61.2299 24.4055 61.3382C24.4055 61.4465 24.4745 61.5351 24.5532 61.5351C24.632 61.5351 24.7009 61.6041 24.7009 61.6828C24.7009 61.7616 24.7895 61.8305 24.8978 61.8305C25.0062 61.8305 25.0948 61.8995 25.0948 61.9782C25.0948 62.057 25.1637 62.1259 25.2425 62.1259C25.3212 62.1259 25.3902 62.2145 25.3902 62.3228C25.3902 62.4311 25.4591 62.5198 25.5378 62.5198C25.6166 62.5198 25.6855 62.5887 25.6855 62.6675C25.6855 62.7462 25.7742 62.8151 25.8825 62.8151C25.9908 62.8151 26.0794 62.8841 26.0794 62.9628C26.0794 63.0416 26.1483 63.1105 26.2271 63.1105C26.3058 63.1105 26.3748 63.1696 26.3748 63.2484C26.3748 63.3271 26.5126 63.4158 26.6702 63.4551C26.8375 63.4945 26.9655 63.5831 26.9655 63.6619C26.9655 63.7407 27.0542 63.7998 27.1625 63.7998C27.2708 63.7998 27.3594 63.8687 27.3594 63.9475C27.3594 64.0459 27.4578 64.0951 27.6548 64.0951C27.8418 64.0951 27.9502 64.1444 27.9502 64.233C27.9502 64.3118 28.0978 64.4004 28.2948 64.4299C28.4818 64.4693 28.6394 64.5382 28.6394 64.5875C28.6394 64.6367 28.7969 64.7056 28.984 64.745C29.1809 64.7745 29.3286 64.8631 29.3286 64.9419C29.3286 65.0404 29.4665 65.0798 29.8209 65.0798C30.1951 65.0798 30.3132 65.1191 30.3132 65.2275C30.3132 65.3456 30.4412 65.3751 30.904 65.3751C31.3471 65.3751 31.5145 65.4145 31.5538 65.5228C31.5932 65.6016 31.7311 65.6705 31.8886 65.6705C32.0855 65.6705 32.1742 65.6115 32.2234 65.4441C32.312 65.1093 32.3022 65.0798 32.0855 65.0798C31.9772 65.0798 31.8886 65.0207 31.8886 64.9419C31.8886 64.8533 31.6917 64.7844 31.2782 64.745C30.9335 64.7056 30.6283 64.6268 30.5988 64.5678C30.5594 64.5087 30.3329 64.4398 30.0769 64.4201C29.7815 64.3807 29.624 64.3216 29.624 64.233C29.624 64.1444 29.5058 64.0951 29.2794 64.0951C29.0431 64.0951 28.9348 64.0459 28.9348 63.9475C28.9348 63.849 28.8363 63.7998 28.6394 63.7998C28.472 63.7998 28.3145 63.7407 28.2849 63.6619C28.2554 63.5831 28.0978 63.4847 27.9403 63.4551C27.7828 63.4158 27.6548 63.3271 27.6548 63.2484C27.6548 63.1598 27.5465 63.1105 27.3594 63.1105C27.1625 63.1105 27.064 63.0613 27.064 62.9628C27.064 62.8841 26.9754 62.8151 26.8671 62.8151C26.7588 62.8151 26.6702 62.7462 26.6702 62.6675C26.6702 62.5887 26.6012 62.5198 26.5225 62.5198C26.4437 62.5198 26.3748 62.4311 26.3748 62.3228C26.3748 62.1948 26.3058 62.1259 26.1778 62.1259C26.0695 62.1259 25.9809 62.057 25.9809 61.9782C25.9809 61.8995 25.912 61.8305 25.8332 61.8305C25.7545 61.8305 25.6855 61.7616 25.6855 61.6828C25.6855 61.6041 25.6166 61.5351 25.5378 61.5351C25.4591 61.5351 25.3902 61.4662 25.3902 61.3875C25.3902 61.3087 25.3212 61.2398 25.2425 61.2398C25.1637 61.2398 25.0948 61.1511 25.0948 61.0428C25.0948 60.9345 25.0258 60.8459 24.9471 60.8459C24.8683 60.8459 24.7994 60.7868 24.7994 60.7081C24.7994 60.6391 24.7108 60.5505 24.6025 60.521C24.4646 60.4915 24.4055 60.3831 24.4055 60.2158C24.4055 60.0582 24.3465 59.9598 24.2578 59.9598C24.1791 59.9598 24.1102 59.8711 24.1102 59.7628C24.1102 59.6545 24.0511 59.5659 23.9723 59.5659C23.8935 59.5659 23.8049 59.4182 23.7754 59.2213C23.736 59.0342 23.6671 58.8767 23.6178 58.8767C23.5785 58.8767 23.5095 58.7487 23.4702 58.5813C23.4308 58.4238 23.3422 58.2859 23.2634 58.2859C23.1748 58.2859 23.1255 58.1776 23.1255 57.9413C23.1255 57.705 23.0763 57.5967 22.9778 57.5967C22.8695 57.5967 22.8302 57.4785 22.8302 57.1536C22.8302 56.8582 22.7809 56.6908 22.6923 56.6515C22.5938 56.6121 22.5249 56.3758 22.4855 55.9622C22.4363 55.529 22.3674 55.3321 22.2788 55.3321C22.1705 55.3321 22.1409 55.145 22.1409 54.5444C22.1409 53.9142 22.1114 53.7567 21.9932 53.7567C21.8652 53.7567 21.8455 53.5105 21.8455 52.1321V50.5075H22.1409C22.3083 50.5075 22.4658 50.4484 22.4954 50.3696C22.5249 50.2908 22.6825 50.1924 22.84 50.1628C22.9975 50.1235 23.1255 50.0348 23.1255 49.9561C23.1255 49.8675 23.2338 49.8182 23.4209 49.8182C23.6178 49.8182 23.7163 49.769 23.7163 49.6705C23.7163 49.5918 23.8049 49.5228 23.9132 49.5228C24.0215 49.5228 24.1102 49.4539 24.1102 49.3751C24.1102 49.2767 24.2086 49.2275 24.4055 49.2275C24.5729 49.2275 24.7305 49.1684 24.76 49.0896C24.7895 49.0108 24.9471 48.9124 25.1046 48.8828C25.2622 48.8435 25.3902 48.7548 25.3902 48.6761C25.3902 48.5875 25.4985 48.5382 25.7348 48.5382C25.9711 48.5382 26.0794 48.489 26.0794 48.4004C26.0794 48.3216 26.2074 48.233 26.3649 48.1936C26.5225 48.1641 26.68 48.0656 26.7095 47.9868C26.7391 47.9081 26.8277 47.849 26.9163 47.849C26.9951 47.849 27.064 47.7801 27.064 47.7013C27.064 47.6028 27.1625 47.5536 27.3594 47.5536C27.5563 47.5536 27.6548 47.5044 27.6548 47.4059C27.6548 47.3075 27.7532 47.2582 27.9502 47.2582C28.1175 47.2582 28.2751 47.1991 28.3046 47.1204C28.3342 47.0416 28.4917 46.9431 28.6492 46.9136C28.8068 46.8742 28.9348 46.7856 28.9348 46.7068C28.9348 46.6281 29.0234 46.569 29.1317 46.569C29.24 46.569 29.3286 46.5001 29.3286 46.4213C29.3286 46.3228 29.4271 46.2736 29.624 46.2736C29.8209 46.2736 29.9194 46.2244 29.9194 46.1259C29.9194 46.0275 30.0178 45.9782 30.2148 45.9782C30.3822 45.9782 30.5397 45.9191 30.5692 45.8404C30.5988 45.7616 30.7563 45.6631 30.9138 45.6336C31.0714 45.5942 31.1994 45.5056 31.1994 45.4268C31.1994 45.3481 31.288 45.289 31.3963 45.289C31.5046 45.289 31.5932 45.2201 31.5932 45.1413C31.5932 45.0428 31.6917 44.9936 31.8886 44.9936C32.056 44.9936 32.2135 44.9345 32.2431 44.8558C32.2726 44.777 32.4302 44.6785 32.5877 44.649C32.7452 44.6096 32.8732 44.521 32.8732 44.4422C32.8732 44.3536 32.9815 44.3044 33.1686 44.3044C33.3557 44.3044 33.464 44.2551 33.464 44.1665C33.464 44.0878 33.6117 43.9991 33.8086 43.9696C33.9957 43.9302 34.1532 43.8613 34.1532 43.8121C34.1532 43.753 34.2123 43.7136 34.2812 43.7136C34.3502 43.7136 34.4782 43.625 34.5766 43.5167C34.6652 43.4084 34.8326 43.3198 34.9409 43.3198C35.0492 43.3198 35.1378 43.2508 35.1378 43.1721C35.1378 43.0736 35.2363 43.0244 35.4332 43.0244C35.6203 43.0244 35.7286 42.9751 35.7286 42.8865C35.7286 42.8078 35.8763 42.7191 36.0634 42.6896C36.2505 42.6502 36.4277 42.5616 36.4572 42.4828C36.4868 42.4041 36.5557 42.3351 36.6148 42.3351C36.6738 42.3351 36.792 42.2662 36.8708 42.1875C36.9594 42.1087 37.1071 42.0398 37.2154 42.0398C37.3138 42.0398 37.4025 41.9708 37.4025 41.8921C37.4025 41.8133 37.4714 41.7444 37.5502 41.7444C37.6289 41.7444 37.6978 41.6755 37.6978 41.5967C37.6978 41.5179 37.7668 41.449 37.8554 41.449C37.944 41.449 38.0326 41.3604 38.0622 41.2521C38.0917 41.1438 38.1803 41.0551 38.2492 41.0551C38.3477 41.0551 38.3871 40.9173 38.3871 40.5628C38.3871 40.1887 38.4265 40.0705 38.5348 40.0705C38.6628 40.0705 38.6825 38.9579 38.6825 30.6675C38.6825 22.377 38.6628 21.2644 38.5348 21.2644C38.456 21.2644 38.3871 21.1955 38.3871 21.1167C38.3871 21.0379 38.328 20.969 38.2492 20.969C38.1803 20.969 38.0917 20.8804 38.0622 20.7721C38.0326 20.6638 37.944 20.5751 37.8554 20.5751C37.7668 20.5751 37.6978 20.5062 37.6978 20.4275C37.6978 20.3487 37.6289 20.2798 37.5502 20.2798C37.4714 20.2798 37.4025 20.2108 37.4025 20.1321C37.4025 20.0533 37.3335 19.9844 37.2548 19.9844C37.176 19.9844 37.1071 19.9155 37.1071 19.8367C37.1071 19.7579 37.0185 19.689 36.9102 19.689C36.8018 19.689 36.7132 19.6201 36.7132 19.5413C36.7132 19.4625 36.6443 19.3936 36.5655 19.3936C36.4868 19.3936 36.4178 19.3345 36.4178 19.2558C36.4178 19.1868 36.3292 19.0982 36.2209 19.0687C36.1126 19.0392 36.024 18.9505 36.024 18.8619C36.024 18.7733 35.9551 18.7044 35.8763 18.7044C35.7975 18.7044 35.6498 18.6158 35.5612 18.5075C35.4628 18.3992 35.3348 18.3105 35.2658 18.3105C35.1969 18.3105 35.1378 18.2416 35.1378 18.1628C35.1378 18.0841 35.0689 18.0151 34.9902 18.0151C34.9114 18.0151 34.8425 17.9462 34.8425 17.8675C34.8425 17.7887 34.7735 17.7198 34.6948 17.7198C34.616 17.7198 34.5471 17.6508 34.5471 17.5721C34.5471 17.4933 34.4585 17.4244 34.3502 17.4244C34.2222 17.4244 34.1532 17.3555 34.1532 17.2275C34.1532 17.1191 34.0843 17.0305 34.0055 17.0305C33.9268 17.0305 33.8578 16.9616 33.8578 16.8828C33.8578 16.8041 33.7692 16.7351 33.6609 16.7351C33.5526 16.7351 33.464 16.6662 33.464 16.5875C33.464 16.5087 33.3951 16.4398 33.3163 16.4398C33.2375 16.4398 33.1686 16.3708 33.1686 16.2921C33.1686 16.2133 33.1095 16.1444 33.0406 16.1444C32.9717 16.1444 32.8437 16.0558 32.7452 15.9475C32.6566 15.8391 32.5089 15.7505 32.4302 15.7505C32.3514 15.7505 32.2825 15.6816 32.2825 15.6028C32.2825 15.5241 32.1938 15.4551 32.0855 15.4551C31.9575 15.4551 31.8886 15.3862 31.8886 15.2582C31.8886 15.1499 31.8197 15.0613 31.7409 15.0613C31.6622 15.0613 31.5932 14.9924 31.5932 14.9136C31.5932 14.8348 31.5342 14.7659 31.4554 14.7659C31.3766 14.7659 31.2978 14.697 31.2585 14.6182C31.2289 14.5395 31.1403 14.4705 31.0517 14.4705C30.9729 14.4705 30.904 14.4016 30.904 14.3228C30.904 14.2441 30.8351 14.1751 30.7563 14.1751C30.6775 14.1751 30.6086 14.1062 30.6086 14.0275C30.6086 13.9487 30.5397 13.8798 30.4511 13.8798C30.3625 13.8798 30.2738 13.7911 30.2443 13.6828C30.2148 13.5745 30.1262 13.4859 30.0572 13.4859C29.9785 13.4859 29.9194 13.417 29.9194 13.3382C29.9194 13.2595 29.8505 13.1905 29.7717 13.1905C29.6929 13.1905 29.624 13.1315 29.624 13.0527C29.624 12.9739 29.496 12.8853 29.3286 12.8459C29.1711 12.8065 29.0332 12.7179 29.0332 12.6391C29.0332 12.5604 28.9446 12.5013 28.8363 12.5013C28.728 12.5013 28.6394 12.4324 28.6394 12.3536C28.6394 12.2748 28.5705 12.2059 28.4917 12.2059C28.4129 12.2059 28.344 12.137 28.344 12.0582C28.344 11.9795 28.2751 11.9105 28.1963 11.9105C28.1175 11.9105 28.0486 11.8416 28.0486 11.753C28.0486 11.6644 27.96 11.5758 27.8517 11.5462C27.7434 11.5167 27.6548 11.4281 27.6548 11.3591C27.6548 11.2804 27.5858 11.2213 27.5071 11.2213C27.4283 11.2213 27.3594 11.1524 27.3594 11.0736C27.3594 10.9948 27.2905 10.9259 27.2117 10.9259C27.1329 10.9259 27.064 10.857 27.064 10.7782C27.064 10.6995 26.9951 10.6305 26.9065 10.6305C26.8178 10.6305 26.7292 10.5419 26.6997 10.4336C26.6702 10.3253 26.5815 10.2367 26.5126 10.2367C26.4338 10.2367 26.3748 10.1678 26.3748 10.089C26.3748 9.99053 26.2763 9.9413 26.0892 9.9413C25.8923 9.9413 25.7938 9.88223 25.7545 9.74438C25.7249 9.63607 25.6363 9.54745 25.5477 9.54745C25.4591 9.54745 25.3902 9.47853 25.3902 9.39977C25.3902 9.321 25.3212 9.25207 25.2425 9.25207C25.1637 9.25207 25.0948 9.18315 25.0948 9.10438C25.0948 9.02561 25.0258 8.95669 24.9471 8.95669C24.8683 8.95669 24.7994 8.89761 24.7994 8.81884C24.7994 8.74992 24.7108 8.6613 24.6025 8.63176C24.4942 8.60223 24.4055 8.51361 24.4055 8.425C24.4055 8.33638 24.3366 8.26746 24.2578 8.26746C24.1791 8.26746 24.1102 8.19853 24.1102 8.11976C24.1102 8.04099 24.0412 7.97207 23.9625 7.97207C23.8837 7.97207 23.8148 7.90315 23.8148 7.82438C23.8148 7.74561 23.7262 7.67669 23.6178 7.67669C23.5095 7.67669 23.4209 7.61761 23.4209 7.53884C23.4209 7.46007 23.2929 7.37146 23.1255 7.33207C22.968 7.29269 22.8302 7.20407 22.8302 7.1253C22.8302 7.04653 22.7612 6.98746 22.6825 6.98746C22.6037 6.98746 22.5348 6.91853 22.5348 6.83976C22.5348 6.76099 22.4462 6.69207 22.3378 6.69207C22.2295 6.69207 22.1409 6.62315 22.1409 6.54438C22.1409 6.46561 22.0818 6.39669 22.0031 6.39669C21.9342 6.39669 21.8455 6.30807 21.816 6.19976C21.7569 5.96346 21.2745 5.92407 21.1957 6.15053ZM20.8609 18.0151C20.8609 27.1425 20.8412 28.3536 20.7132 28.3536C20.6345 28.3536 20.5655 28.2847 20.5655 28.2059C20.5655 28.1075 20.4572 28.0582 20.2209 28.0582C19.9846 28.0582 19.8763 28.009 19.8763 27.9105C19.8763 27.8121 19.768 27.7628 19.5317 27.7628C19.3249 27.7628 19.1969 27.7136 19.2068 27.6545C19.2265 27.5955 19.1083 27.497 18.9409 27.4379C18.7834 27.3887 18.616 27.3001 18.5865 27.2508C18.5569 27.2016 18.3403 27.1327 18.1138 27.1031C17.8677 27.0638 17.7102 26.9948 17.7102 26.9161C17.7102 26.8275 17.592 26.7782 17.3655 26.7782C17.1292 26.7782 17.0209 26.729 17.0209 26.6305C17.0209 26.5321 16.9126 26.4828 16.6763 26.4828C16.4006 26.4828 16.3317 26.4435 16.3317 26.2859C16.3317 26.1284 16.2628 26.089 16.0363 26.089C15.8394 26.089 15.7409 26.0398 15.7409 25.9413C15.7409 25.8428 15.6326 25.7936 15.3963 25.7936C15.16 25.7936 15.0517 25.7444 15.0517 25.6459C15.0517 25.5475 14.9434 25.4982 14.7071 25.4982C14.4708 25.4982 14.3625 25.449 14.3625 25.3505C14.3625 25.2718 14.2246 25.1831 14.0178 25.1438C13.8308 25.1142 13.6732 25.0355 13.6732 24.9665C13.6732 24.9075 13.5551 24.8385 13.4074 24.8287C13.2597 24.8188 13.1022 24.7401 13.0529 24.6613C13.0037 24.5727 12.8265 24.5136 12.6 24.5136C12.3046 24.5136 12.2062 24.4742 12.1668 24.3167C12.1274 24.169 12.0289 24.1198 11.8123 24.1198C11.6055 24.1198 11.5071 24.0705 11.5071 23.9721C11.5071 23.8736 11.3988 23.8244 11.1625 23.8244C10.9262 23.8244 10.8178 23.7751 10.8178 23.6767C10.8178 23.5782 10.7194 23.529 10.5225 23.529C10.3255 23.529 10.2271 23.4798 10.2271 23.3813C10.2271 23.2828 10.1188 23.2336 9.88246 23.2336C9.64616 23.2336 9.53785 23.1844 9.53785 23.0859C9.53785 23.0071 9.4 22.9185 9.19323 22.8791C8.99631 22.8496 8.84862 22.761 8.84862 22.6822C8.84862 22.5936 8.74031 22.5444 8.55323 22.5444C8.35631 22.5444 8.25785 22.4951 8.25785 22.3967C8.25785 22.2982 8.14954 22.249 7.91323 22.249C7.68677 22.249 7.56862 22.1998 7.56862 22.1111C7.56862 22.0028 6.93846 21.7862 6.79077 21.8551C6.77108 21.865 6.712 21.8059 6.66277 21.7173C6.61354 21.6287 6.44616 21.5598 6.28862 21.5598C5.97354 21.5598 5.89477 21.4219 6.14093 21.3235C6.21969 21.2939 6.28862 21.2053 6.28862 21.1167C6.28862 21.0379 6.35754 20.969 6.43631 20.969C6.51508 20.969 6.584 20.9001 6.584 20.8213C6.584 20.7425 6.67262 20.6736 6.78093 20.6736C6.88923 20.6736 6.97785 20.6047 6.97785 20.5259C6.97785 20.4471 7.04677 20.3782 7.12554 20.3782C7.20431 20.3782 7.27323 20.2896 7.27323 20.1813C7.27323 20.073 7.34216 19.9844 7.42093 19.9844C7.49969 19.9844 7.56862 19.9155 7.56862 19.8367C7.56862 19.7579 7.65723 19.689 7.76554 19.689C7.87385 19.689 7.96246 19.6201 7.96246 19.5413C7.96246 19.4625 8.03139 19.3936 8.11016 19.3936C8.18893 19.3936 8.25785 19.3247 8.25785 19.2459C8.25785 19.1671 8.32677 19.0982 8.40554 19.0982C8.48431 19.0982 8.55323 19.0096 8.55323 18.9013C8.55323 18.7733 8.62216 18.7044 8.75016 18.7044C8.85846 18.7044 8.94708 18.6355 8.94708 18.5567C8.94708 18.4779 9.016 18.409 9.09477 18.409C9.17354 18.409 9.32123 18.3204 9.40985 18.2121C9.50831 18.1038 9.63631 18.0151 9.70523 18.0151C9.77416 18.0151 9.83323 17.9462 9.83323 17.8675C9.83323 17.7887 9.90216 17.7198 9.98093 17.7198C10.0597 17.7198 10.1286 17.6508 10.1286 17.5721C10.1286 17.4933 10.2172 17.4244 10.3255 17.4244C10.4338 17.4244 10.5225 17.3555 10.5225 17.2767C10.5225 17.1979 10.5914 17.129 10.6702 17.129C10.7489 17.129 10.8178 17.0404 10.8178 16.9321C10.8178 16.8041 10.8868 16.7351 11.0148 16.7351C11.1231 16.7351 11.2117 16.6662 11.2117 16.5875C11.2117 16.5087 11.2806 16.4398 11.3594 16.4398C11.4382 16.4398 11.5071 16.3708 11.5071 16.2921C11.5071 16.2133 11.576 16.1444 11.6548 16.1444C11.7335 16.1444 11.8025 16.0755 11.8025 15.9967C11.8025 15.9179 11.8714 15.849 11.96 15.849C12.0486 15.849 12.1372 15.7604 12.1668 15.6521C12.1963 15.5438 12.2849 15.4551 12.3538 15.4551C12.4326 15.4551 12.4917 15.3862 12.4917 15.3075C12.4917 15.2287 12.5606 15.1598 12.6394 15.1598C12.7182 15.1598 12.7871 15.0908 12.7871 15.0121C12.7871 14.9333 12.856 14.8644 12.9348 14.8644C13.0135 14.8644 13.0825 14.7955 13.0825 14.7167C13.0825 14.6379 13.1711 14.569 13.2794 14.569C13.4074 14.569 13.4763 14.5001 13.4763 14.3721C13.4763 14.2244 13.5452 14.1751 13.7323 14.1751C13.8997 14.1751 14.008 14.1161 14.0375 13.9881C14.0671 13.8699 14.1458 13.8207 14.2246 13.8502C14.3132 13.8798 14.3625 13.8404 14.3625 13.7321C14.3625 13.6435 14.4511 13.545 14.5594 13.5155C14.6677 13.4859 14.7563 13.3973 14.7563 13.3284C14.7563 13.2496 14.8252 13.1905 14.904 13.1905C14.9828 13.1905 15.0517 13.1216 15.0517 13.0428C15.0517 12.9641 15.1206 12.8951 15.1994 12.8951C15.2782 12.8951 15.3471 12.8262 15.3471 12.7475C15.3471 12.6687 15.416 12.5998 15.5046 12.5998C15.5932 12.5998 15.6818 12.5111 15.7114 12.4028C15.7409 12.2945 15.8295 12.2059 15.8985 12.2059C15.9772 12.2059 16.0363 12.137 16.0363 12.0582C16.0363 11.9795 16.1052 11.9105 16.184 11.9105C16.2628 11.9105 16.3317 11.8416 16.3317 11.7628C16.3317 11.6841 16.4203 11.6152 16.5286 11.6152C16.6369 11.6152 16.7255 11.5561 16.7255 11.4773C16.7255 11.3985 16.7945 11.3198 16.8732 11.2804C16.952 11.2508 17.0209 11.1622 17.0209 11.0736C17.0209 10.9948 17.0898 10.9259 17.1686 10.9259C17.2474 10.9259 17.3163 10.857 17.3163 10.7782C17.3163 10.6995 17.4049 10.6305 17.5132 10.6305C17.6215 10.6305 17.7102 10.5715 17.7102 10.4927C17.7102 10.4139 17.8185 10.3253 17.9563 10.2958C18.0942 10.2564 18.2025 10.1678 18.2025 10.089C18.2025 10.0102 18.2911 9.9413 18.3994 9.9413C18.5077 9.9413 18.5963 9.87238 18.5963 9.79361C18.5963 9.71484 18.6652 9.64592 18.744 9.64592C18.8228 9.64592 18.8917 9.577 18.8917 9.49823C18.8917 9.41946 18.9606 9.35053 19.0492 9.35053C19.1378 9.35053 19.2265 9.26192 19.256 9.15361C19.2855 9.0453 19.3742 8.95669 19.4431 8.95669C19.5218 8.95669 19.5809 8.88776 19.5809 8.80899C19.5809 8.73022 19.6498 8.6613 19.7286 8.6613C19.8074 8.6613 19.8763 8.59238 19.8763 8.51361C19.8763 8.43484 19.9649 8.36592 20.0732 8.36592C20.1815 8.36592 20.2702 8.297 20.2702 8.21823C20.2702 8.13946 20.3391 8.07053 20.4178 8.07053C20.4966 8.07053 20.5655 7.98192 20.5655 7.87361C20.5655 7.7653 20.6345 7.67669 20.7132 7.67669C20.8412 7.67669 20.8609 8.88776 20.8609 18.0151ZM5.89477 22.0915C5.89477 22.2392 6.10154 22.3475 6.39693 22.3475C6.49539 22.3475 6.584 22.4164 6.584 22.4951C6.584 22.5936 6.68246 22.6428 6.87939 22.6428C7.07631 22.6428 7.17477 22.6921 7.17477 22.7905C7.17477 22.889 7.28308 22.9382 7.51939 22.9382C7.75569 22.9382 7.864 22.9875 7.864 23.0859C7.864 23.1844 7.97231 23.2336 8.20862 23.2336C8.44493 23.2336 8.55323 23.2828 8.55323 23.3715C8.55323 23.4502 8.69108 23.5487 8.86831 23.5782C9.03569 23.6176 9.24246 23.7161 9.32123 23.785C9.39016 23.8638 9.60677 23.9228 9.79385 23.9228C10.0302 23.9228 10.1286 23.9721 10.1286 24.0705C10.1286 24.169 10.2271 24.2182 10.4142 24.2182C10.6111 24.2182 10.7095 24.2773 10.7489 24.4151C10.7883 24.5628 10.8868 24.6121 11.1034 24.6121C11.3102 24.6121 11.4086 24.6613 11.4086 24.7598C11.4086 24.8582 11.5169 24.9075 11.7532 24.9075C11.9895 24.9075 12.0978 24.9567 12.0978 25.0551C12.0978 25.1536 12.1963 25.2028 12.3932 25.2028C12.5803 25.2028 12.6886 25.2521 12.6886 25.3407C12.6886 25.4195 12.8363 25.5081 13.0234 25.5376C13.2105 25.577 13.3877 25.6656 13.4172 25.7444C13.4468 25.833 13.5945 25.8921 13.7717 25.8921C13.9686 25.8921 14.0671 25.9413 14.0671 26.0398C14.0671 26.1382 14.1754 26.1875 14.4117 26.1875C14.648 26.1875 14.7563 26.2367 14.7563 26.3351C14.7563 26.4435 14.8745 26.4828 15.1994 26.4828C15.5735 26.4828 15.6425 26.5124 15.6425 26.6798C15.6425 26.8275 15.7114 26.8767 15.928 26.8767C16.0855 26.8767 16.2332 26.9358 16.2726 27.0244C16.3022 27.113 16.4498 27.1721 16.6271 27.1721C16.824 27.1721 16.9225 27.2213 16.9225 27.3198C16.9225 27.4182 17.0308 27.4675 17.2671 27.4675C17.5034 27.4675 17.6117 27.5167 17.6117 27.6053C17.6117 27.6841 17.7397 27.7727 17.8972 27.8121C18.0548 27.8416 18.2123 27.9401 18.2418 28.0188C18.2714 28.0976 18.4289 28.1567 18.5963 28.1567C18.7932 28.1567 18.8917 28.2059 18.8917 28.3044C18.8917 28.4028 19 28.4521 19.2363 28.4521C19.4726 28.4521 19.5809 28.5013 19.5809 28.5998C19.5809 28.6982 19.6892 28.7475 19.9255 28.7475C20.1717 28.7475 20.2702 28.7868 20.2702 28.8951C20.2702 28.9838 20.3883 29.0724 20.5655 29.1019L20.8609 29.161V33.9758V38.7905H20.5655C20.3588 38.7905 20.2702 38.7413 20.2702 38.633C20.2702 38.5444 20.1815 38.4558 20.0732 38.4262C19.9649 38.3967 19.8763 38.3376 19.8763 38.2884C19.8763 38.249 19.7188 38.1801 19.5317 38.1407C19.3348 38.1111 19.1871 38.0225 19.1871 37.9438C19.1871 37.8551 19.0788 37.8059 18.8917 37.8059C18.6948 37.8059 18.5963 37.7567 18.5963 37.6582C18.5963 37.5598 18.488 37.5105 18.2517 37.5105C18.0055 37.5105 17.9071 37.4711 17.9071 37.3628C17.9071 37.2742 17.7889 37.1856 17.6215 37.1561C17.4542 37.1167 17.3065 37.0379 17.2769 36.9591C17.2474 36.8804 17.0898 36.8213 16.9225 36.8213C16.7255 36.8213 16.6271 36.7721 16.6271 36.6736C16.6271 36.5751 16.5286 36.5259 16.3317 36.5259C16.1348 36.5259 16.0363 36.4767 16.0363 36.3782C16.0363 36.2995 15.8985 36.2108 15.6917 36.1715C15.4948 36.1419 15.3471 36.0533 15.3471 35.9745C15.3471 35.8859 15.2388 35.8367 15.0517 35.8367C14.8449 35.8367 14.7563 35.7875 14.7563 35.6791C14.7563 35.561 14.6677 35.5413 14.392 35.561C14.0474 35.5905 14.0178 35.6201 13.9883 35.9056C13.9588 36.1813 13.9883 36.2305 14.1557 36.2305C14.2738 36.2305 14.3625 36.2896 14.3625 36.3684C14.3625 36.4471 14.5102 36.5358 14.7071 36.5653C14.8942 36.6047 15.0517 36.6736 15.0517 36.7228C15.0517 36.7622 15.1797 36.8311 15.3372 36.8705C15.4948 36.9001 15.6523 36.9985 15.6818 37.0773C15.7114 37.1561 15.8689 37.2151 16.0363 37.2151C16.2332 37.2151 16.3317 37.2644 16.3317 37.3628C16.3317 37.4613 16.4302 37.5105 16.6271 37.5105C16.824 37.5105 16.9225 37.5598 16.9225 37.6582C16.9225 37.737 17.0603 37.8256 17.2671 37.865C17.464 37.8945 17.6117 37.9831 17.6117 38.0619C17.6117 38.1505 17.72 38.1998 17.9071 38.1998C18.104 38.1998 18.2025 38.249 18.2025 38.3475C18.2025 38.4459 18.3108 38.4951 18.5471 38.4951C18.7834 38.4951 18.8917 38.5444 18.8917 38.6428C18.8917 38.7216 19.0295 38.8102 19.2363 38.8496C19.4332 38.8791 19.5809 38.9678 19.5809 39.0465C19.5809 39.1351 19.6892 39.1844 19.8763 39.1844C20.0732 39.1844 20.1717 39.2336 20.1717 39.3321C20.1717 39.4305 20.28 39.4798 20.5163 39.4798H20.8609V44.4521C20.8609 48.8041 20.8412 49.4244 20.7132 49.4244C20.6345 49.4244 20.5655 49.3555 20.5655 49.2767C20.5655 49.1782 20.4671 49.129 20.2702 49.129C20.0732 49.129 19.9748 49.0798 19.9748 48.9813C19.9748 48.8828 19.8665 48.8336 19.6302 48.8336C19.3938 48.8336 19.2855 48.7844 19.2855 48.6859C19.2855 48.6071 19.1969 48.5382 19.0886 48.5382C18.9803 48.5382 18.8917 48.4791 18.8917 48.4004C18.8917 48.3216 18.7637 48.233 18.5963 48.1936C18.4388 48.1542 18.3009 48.0656 18.3009 47.9868C18.3009 47.8982 18.1926 47.849 18.0055 47.849C17.8086 47.849 17.7102 47.7998 17.7102 47.7013C17.7102 47.6127 17.6117 47.5536 17.4542 47.5536C17.2671 47.5536 17.208 47.5142 17.2474 47.4059C17.2966 47.3075 17.208 47.2484 16.9717 47.1991C16.7748 47.1696 16.6271 47.081 16.6271 47.0022C16.6271 46.9136 16.5188 46.8644 16.3317 46.8644C16.1348 46.8644 16.0363 46.8151 16.0363 46.7167C16.0363 46.6182 15.928 46.569 15.6917 46.569C15.416 46.569 15.3471 46.5296 15.3471 46.3721C15.3471 46.2638 15.2782 46.1751 15.1994 46.1751C15.1206 46.1751 15.0517 46.1358 15.0517 46.0767C15.0517 46.0275 14.8942 45.9585 14.7071 45.9191C14.5102 45.8896 14.3625 45.801 14.3625 45.7222C14.3625 45.6336 14.2542 45.5844 14.0671 45.5844C13.8702 45.5844 13.7717 45.5351 13.7717 45.4367C13.7717 45.3382 13.6634 45.289 13.4271 45.289C13.1514 45.289 13.0825 45.2496 13.0825 45.0921C13.0825 44.9838 13.0135 44.8951 12.9348 44.8951C12.856 44.8951 12.7871 44.8262 12.7871 44.7475C12.7871 44.649 12.6788 44.5998 12.4425 44.5998C12.2062 44.5998 12.0978 44.5505 12.0978 44.4521C12.0978 44.3536 11.9994 44.3044 11.8025 44.3044C11.5957 44.3044 11.5071 44.2551 11.5071 44.1468C11.5071 44.0582 11.4185 43.9696 11.3102 43.9401C11.2018 43.9105 11.1132 43.8515 11.1132 43.8121C11.1132 43.7628 10.9852 43.7038 10.8178 43.6644C10.6603 43.625 10.5225 43.5364 10.5225 43.4576C10.5225 43.369 10.4142 43.3198 10.1778 43.3198C9.94154 43.3198 9.83323 43.2705 9.83323 43.1721C9.83323 43.0736 9.73477 43.0244 9.53785 43.0244C9.31139 43.0244 9.24246 42.985 9.24246 42.8275C9.24246 42.6995 9.17354 42.6305 9.04554 42.6305C8.93723 42.6305 8.84862 42.5616 8.84862 42.4828C8.84862 42.3844 8.75016 42.3351 8.55323 42.3351C8.35631 42.3351 8.25785 42.2859 8.25785 42.1875C8.25785 42.089 8.14954 42.0398 7.91323 42.0398C7.63754 42.0398 7.56862 42.0004 7.56862 41.8428C7.56862 41.6853 7.49969 41.6459 7.27323 41.6459C7.096 41.6459 6.98769 41.5967 6.99754 41.5278C7.01723 41.4588 6.92862 41.3899 6.81046 41.3702C6.68246 41.3505 6.584 41.2718 6.584 41.193C6.584 41.1142 6.51508 41.0551 6.43631 41.0551C6.35754 41.0551 6.28862 40.9862 6.28862 40.9075C6.28862 40.8287 6.21969 40.7598 6.14093 40.7598C6.04246 40.7598 5.99323 40.6613 5.99323 40.4644C5.99323 40.2871 5.93416 40.1395 5.84554 40.1099C5.71754 40.0607 5.69785 38.9579 5.69785 31.0022C5.69785 25.0355 5.72739 21.9536 5.79631 21.9536C5.85539 21.9536 5.89477 22.0127 5.89477 22.0915Z" fill="black"/>
<path d="M8.67586 70.3352V71.2705H8.3214C8.0457 71.2705 7.97678 71.3001 8.00632 71.4379C8.02601 71.5561 8.14417 71.625 8.36078 71.6447L8.67586 71.6742V72.6589C8.67586 73.4564 8.7054 73.6336 8.82355 73.6336C8.92201 73.6336 8.97124 73.7321 8.97124 73.929C8.97124 74.1555 9.01063 74.2244 9.16817 74.2244C9.27647 74.2244 9.36509 74.2933 9.36509 74.3721C9.36509 74.4509 9.41432 74.5198 9.46355 74.5198C9.52263 74.5198 9.56201 74.3819 9.56201 74.2244C9.56201 74.0275 9.51278 73.929 9.41432 73.929C9.33555 73.929 9.26663 73.8404 9.26663 73.7321C9.26663 73.6238 9.1977 73.5352 9.11893 73.5352C9.00078 73.5352 8.97124 73.3678 8.97124 72.6096V71.6841L9.61124 71.6152C10.0543 71.5659 10.2512 71.497 10.2512 71.4084C10.2512 71.3001 10.0937 71.2705 9.61124 71.2705H8.97124V70.3352C8.97124 69.5672 8.9417 69.3998 8.82355 69.3998C8.7054 69.3998 8.67586 69.5672 8.67586 70.3352Z" fill="black"/>
<path d="M21.6719 71.8121C21.6719 73.8896 21.6916 74.2244 21.8196 74.2244C21.9377 74.2244 21.9673 74.0865 21.9673 73.5844C21.9673 73.0822 21.9968 72.9444 22.115 72.9444C22.2233 72.9444 22.2626 72.8262 22.2626 72.4521C22.2626 72.0976 22.302 71.9597 22.4005 71.9597C22.4793 71.9597 22.5679 71.8121 22.5974 71.6151C22.6368 71.4084 22.7254 71.2705 22.8042 71.2705C22.883 71.2705 22.9519 71.2016 22.9519 71.1228C22.9519 71.0441 23.0208 70.9751 23.0996 70.9751C23.2276 70.9751 23.2473 71.2213 23.2473 72.5997C23.2473 73.9782 23.267 74.2244 23.395 74.2244C23.523 74.2244 23.5426 73.9782 23.5426 72.5997C23.5426 71.5856 23.5033 70.9751 23.4442 70.9751C23.395 70.9751 23.3457 70.9062 23.3457 70.8274C23.3457 70.729 23.2374 70.6797 23.0011 70.6797C22.755 70.6797 22.6565 70.7191 22.6565 70.8373C22.6565 70.9259 22.5679 71.0145 22.4596 71.0441C22.3316 71.0736 22.2626 71.1819 22.2626 71.3296C22.2626 71.4773 22.2036 71.5659 22.115 71.5659C22.0066 71.5659 21.9673 71.4477 21.9673 71.0736C21.9673 70.6994 22.0066 70.5813 22.115 70.5813C22.2331 70.5813 22.2626 70.4533 22.2626 69.9905V69.3997H21.9673H21.6719V71.8121Z" fill="black"/>
<path d="M25.2173 70.532C25.2173 70.6108 25.1582 70.6797 25.0794 70.6797C24.9416 70.6797 24.8234 70.9653 24.8234 71.3296C24.8234 71.4477 24.7545 71.5659 24.6757 71.6053C24.4689 71.684 24.4591 73.5351 24.6659 73.5351C24.7348 73.5351 24.8234 73.6237 24.8529 73.732C24.9022 73.9191 24.9711 73.9388 25.5323 73.9093C26.0837 73.8797 26.1526 73.86 26.1822 73.6631C26.2019 73.5351 26.2609 73.4662 26.3496 73.4957C26.448 73.5351 26.4776 73.2693 26.4874 72.1173C26.5071 70.8865 26.4874 70.6797 26.3496 70.6797C26.2708 70.6797 26.2019 70.6108 26.2019 70.532C26.2019 70.4237 26.0837 70.3844 25.7096 70.3844C25.3354 70.3844 25.2173 70.4237 25.2173 70.532ZM25.808 70.8274C25.808 70.9062 25.8966 70.9751 26.0049 70.9751C26.192 70.9751 26.2019 71.044 26.2019 72.1074C26.2019 73.0527 26.1723 73.2397 26.0542 73.2397C25.9754 73.2397 25.9065 73.2988 25.9065 73.3776C25.9065 73.4564 25.7686 73.545 25.6013 73.5844C25.2369 73.6631 24.9514 73.417 24.912 72.9837C24.8529 72.2453 24.9219 71.6644 25.0696 71.6644C25.168 71.6644 25.2173 71.556 25.2173 71.3197C25.2173 71.0834 25.2665 70.9751 25.3649 70.9751C25.4437 70.9751 25.5126 70.9062 25.5126 70.8274C25.5126 70.7487 25.5816 70.6797 25.6603 70.6797C25.7391 70.6797 25.808 70.7487 25.808 70.8274Z" fill="black"/>
<path d="M27.8172 70.6797C27.7778 70.8373 27.6892 70.9751 27.6203 70.9751C27.512 70.9751 27.4824 71.2114 27.4824 72.1074C27.4824 73.0526 27.512 73.2397 27.6301 73.2397C27.7286 73.2397 27.7778 73.348 27.7778 73.5843V73.929H28.2701C28.6935 73.929 28.7624 73.8994 28.7624 73.732C28.7624 73.6237 28.8215 73.5351 28.9003 73.5351C28.979 73.5351 29.0677 73.3973 29.107 73.2397C29.1464 73.0723 29.2055 72.9443 29.2547 72.9443C29.3433 72.9443 29.4517 73.289 29.4517 73.604C29.4517 73.7911 29.5107 73.8305 29.747 73.8305C29.9144 73.8305 30.0424 73.7813 30.0424 73.732C30.0424 73.673 29.9735 73.6336 29.8947 73.6336C29.7766 73.6336 29.747 73.4563 29.747 72.5997C29.747 71.7431 29.7766 71.5659 29.8947 71.5659C30.003 71.5659 30.0424 71.4477 30.0424 71.1228C30.0424 70.7979 30.003 70.6797 29.8947 70.6797C29.816 70.6797 29.747 70.6108 29.747 70.532C29.747 70.4533 29.688 70.3843 29.6092 70.3843C29.5107 70.3843 29.4615 70.5911 29.432 71.1326C29.4024 71.5757 29.3335 71.9105 29.2547 71.9597C29.1858 71.9991 29.107 72.2354 29.0873 72.4914C29.048 72.7868 28.9889 72.9443 28.9003 72.9443C28.8117 72.9443 28.7624 73.0526 28.7624 73.2299C28.7624 73.4563 28.7132 73.5253 28.4966 73.5646C28.1224 73.6336 28.0732 73.5843 28.0732 73.092C28.0732 72.8065 28.024 72.649 27.9255 72.6096C27.7384 72.5406 27.7581 71.9597 27.9452 71.9597C28.0437 71.9597 28.0732 71.753 28.0732 71.172C28.0732 70.3745 27.9255 70.0988 27.8172 70.6797Z" fill="black"/>
<path d="M32.0112 70.5321C32.0112 70.6108 31.9226 70.6797 31.8143 70.6797C31.7059 70.6797 31.6173 70.7487 31.6173 70.8274C31.6173 70.9062 31.5484 70.9751 31.4696 70.9751C31.3121 70.9751 31.2826 71.1622 31.381 71.6545C31.4401 71.9105 31.4893 71.9597 31.7256 71.9597C31.9127 71.9597 32.0112 72.009 32.0112 72.1074C32.0112 72.2059 32.1195 72.2551 32.3558 72.2551C32.5921 72.2551 32.7004 72.3044 32.7004 72.4028C32.7004 72.4816 32.7693 72.5505 32.8481 72.5505C32.9564 72.5505 32.9958 72.6687 32.9958 73.0428C32.9958 73.3973 32.9564 73.5351 32.8579 73.5351C32.789 73.5351 32.7004 73.6237 32.6709 73.7321C32.6315 73.8797 32.533 73.929 32.3164 73.929C32.0801 73.929 32.0112 73.8896 32.0112 73.7321C32.0112 73.6237 31.9423 73.5351 31.8635 73.5351C31.7552 73.5351 31.7158 73.417 31.7158 73.0625C31.7158 72.5801 31.5878 72.2551 31.4499 72.393C31.4106 72.4324 31.3712 72.7573 31.3712 73.1117C31.3712 73.6139 31.4106 73.7616 31.5484 73.8404C31.637 73.8994 31.7158 74.0077 31.7158 74.0767C31.7158 74.1948 31.8536 74.2244 32.2967 74.2244C32.8678 74.2244 32.8875 74.2145 32.9466 73.9191C32.9958 73.7222 33.0549 73.6336 33.1533 73.673C33.2616 73.7124 33.2912 73.5844 33.2912 72.9936C33.2912 72.4028 33.2616 72.2551 33.1435 72.2551C33.0647 72.2551 32.9958 72.1862 32.9958 72.1074C32.9958 72.009 32.8875 71.9597 32.6512 71.9597C32.4149 71.9597 32.3066 71.9105 32.3066 71.8219C32.3066 71.7431 32.1786 71.6545 32.0112 71.6151C31.765 71.5659 31.7158 71.5068 31.7158 71.2607C31.7158 71.0047 31.7552 70.9751 32.0112 70.9751C32.2081 70.9751 32.3066 70.9259 32.3066 70.8274C32.3066 70.7487 32.3755 70.6797 32.4543 70.6797C32.533 70.6797 32.6019 70.7487 32.6019 70.8274C32.6019 70.9062 32.6906 70.9751 32.7989 70.9751C32.9072 70.9751 32.9958 71.0441 32.9958 71.1228C32.9958 71.2016 33.0647 71.2705 33.1435 71.2705C33.2419 71.2705 33.2912 71.1721 33.2912 70.9751C33.2912 70.7487 33.2419 70.6797 33.1041 70.6797C32.9958 70.6797 32.8481 70.6108 32.7595 70.5321C32.6807 70.4533 32.4838 70.3844 32.3164 70.3844C32.1096 70.3844 32.0112 70.4336 32.0112 70.5321Z" fill="black"/>
<path d="M11.305 70.8668C11.236 71.1327 11.3443 71.9597 11.4428 71.9597C11.492 71.9597 11.5314 72.3733 11.5314 72.8656C11.5314 73.9093 11.5905 74.2244 11.7874 74.2244C11.8957 74.2244 11.9253 74.0077 11.9253 73.2397C11.9253 72.4324 11.9548 72.2551 12.073 72.2551C12.1714 72.2551 12.2206 72.1567 12.2206 71.9597C12.2206 71.7727 12.2699 71.6644 12.3585 71.6644C12.4274 71.6644 12.516 71.5757 12.5456 71.4674C12.585 71.3001 12.6834 71.2705 13.1954 71.2705C13.668 71.2705 13.796 71.241 13.796 71.1228C13.796 71.0441 13.7271 70.9751 13.6483 70.9751C13.5696 70.9751 13.5006 70.9062 13.5006 70.8274C13.5006 70.729 13.4022 70.6797 13.2053 70.6797C13.0182 70.6797 12.9099 70.729 12.9099 70.8176C12.9099 70.8865 12.7819 70.9751 12.6145 71.0047C12.4077 71.0539 12.3093 71.1425 12.26 71.3197C12.201 71.5561 11.9253 71.6742 11.9253 71.4674C11.9253 71.4084 11.8662 71.369 11.7874 71.369C11.7086 71.369 11.62 71.2213 11.5905 71.0244C11.5117 70.6502 11.3837 70.5714 11.305 70.8668Z" fill="black"/>
<path d="M15.469 70.8274C15.469 70.9062 15.4001 70.9751 15.3213 70.9751C15.2425 70.9751 15.1736 71.0637 15.1736 71.1721C15.1736 71.2804 15.1145 71.369 15.0358 71.369C14.8782 71.369 14.7798 71.6644 14.7798 72.1665C14.7798 72.393 14.7207 72.5505 14.6321 72.5899C14.5435 72.6194 14.4844 72.7671 14.4844 72.9444C14.4844 73.1413 14.5336 73.2397 14.6321 73.2397C14.7305 73.2397 14.7798 73.3481 14.7798 73.5844C14.7798 73.8601 14.8191 73.929 14.9767 73.929C15.085 73.929 15.1736 73.9979 15.1736 74.0767C15.1736 74.185 15.2918 74.2244 15.6167 74.2244C15.9416 74.2244 16.0598 74.185 16.0598 74.0767C16.0598 73.9979 16.1484 73.929 16.2567 73.929C16.3847 73.929 16.4536 73.8601 16.4536 73.7321C16.4536 73.6237 16.5225 73.5351 16.6013 73.5351C16.6801 73.5351 16.749 73.4662 16.749 73.3874C16.749 73.3087 16.8179 73.2397 16.8967 73.2397C16.9755 73.2397 17.0641 73.1019 17.1035 72.8951C17.133 72.7081 17.2019 72.5505 17.2511 72.5505C17.3004 72.5505 17.3398 72.5013 17.3398 72.4521C17.3398 72.393 17.2315 72.3536 17.0936 72.3536C16.8967 72.3536 16.8278 72.4127 16.7884 72.649C16.749 72.8065 16.6702 72.9444 16.6013 72.9444C16.5324 72.9444 16.4536 73.0724 16.4241 73.2299C16.3748 73.4465 16.2961 73.5351 16.0598 73.5844C15.9022 73.6237 15.7644 73.7124 15.7644 73.7911C15.7644 73.8699 15.6955 73.929 15.6167 73.929C15.5379 73.929 15.469 73.8601 15.469 73.7813C15.469 73.7025 15.4099 73.6336 15.3311 73.6336C15.1736 73.6336 15.0653 73.1708 15.1441 72.8656C15.1736 72.7376 15.3016 72.6391 15.4788 72.5997C15.6364 72.5604 15.7644 72.4717 15.7644 72.393C15.7644 72.3142 15.853 72.2551 15.9613 72.2551C16.0696 72.2551 16.1582 72.1961 16.1582 72.1173C16.1582 72.0385 16.2075 71.9597 16.2764 71.9401C16.3355 71.9204 16.4044 71.6348 16.4339 71.2902L16.4733 70.6797H15.9711C15.5871 70.6797 15.469 70.7191 15.469 70.8274ZM16.1582 71.0933C16.1582 71.3887 16.0302 71.6644 15.9022 71.6644C15.8235 71.6644 15.7644 71.7333 15.7644 71.8121C15.7644 71.8908 15.6955 71.9597 15.6167 71.9597C15.5379 71.9597 15.469 72.0287 15.469 72.1074C15.469 72.1862 15.4001 72.2551 15.3213 72.2551C15.2228 72.2551 15.1736 72.1567 15.1736 71.9597C15.1736 71.7628 15.2228 71.6644 15.3213 71.6644C15.4198 71.6644 15.469 71.5659 15.469 71.3788C15.469 71.1819 15.5281 71.0736 15.6462 71.0441C15.9711 70.9554 16.1582 70.9751 16.1582 71.0933Z" fill="black"/>
<path d="M19.0152 70.8274C19.0152 70.9062 18.9463 70.9751 18.8675 70.9751C18.7887 70.9751 18.7198 71.0441 18.7198 71.1228C18.7198 71.2016 18.6607 71.2705 18.582 71.2705C18.4933 71.2705 18.4343 71.4281 18.3949 71.7333C18.3653 71.9893 18.2964 72.2157 18.2373 72.2354C18.0995 72.2847 18.0897 73.5351 18.2275 73.5351C18.2866 73.5351 18.326 73.6041 18.326 73.6927C18.326 73.7813 18.4146 73.8699 18.5229 73.8994C18.6312 73.929 18.7198 74.0176 18.7198 74.0865C18.7198 74.185 18.8478 74.2244 19.1629 74.2244C19.4878 74.2244 19.606 74.185 19.606 74.0767C19.606 73.9979 19.6946 73.929 19.8029 73.929C19.9309 73.929 19.9998 73.8601 19.9998 73.7321C19.9998 73.6237 20.0687 73.5351 20.1475 73.5351C20.2263 73.5351 20.2952 73.4662 20.2952 73.3874C20.2952 73.3087 20.3641 73.2397 20.4429 73.2397C20.6004 73.2397 20.7481 72.649 20.6497 72.4028C20.5512 72.1468 20.4035 72.2453 20.3346 72.5997C20.305 72.7967 20.2164 72.9444 20.1377 72.9444C20.0589 72.9444 19.9998 73.0133 19.9998 73.0921C19.9998 73.1708 19.9309 73.2397 19.8521 73.2397C19.7733 73.2397 19.7044 73.3087 19.7044 73.3973C19.7044 73.4859 19.6158 73.5745 19.5075 73.6041C19.3992 73.6336 19.3106 73.7222 19.3106 73.801C19.3106 73.9093 19.2515 73.9388 19.094 73.8896C18.966 73.8601 18.838 73.8305 18.7986 73.8305C18.7493 73.8305 18.7198 73.6927 18.7198 73.5351C18.7198 73.3382 18.6706 73.2397 18.5721 73.2397C18.4933 73.2397 18.4244 73.1708 18.4244 73.0921C18.4244 73.0133 18.4933 72.9444 18.5721 72.9444C18.6509 72.9444 18.7198 72.8853 18.7198 72.8065C18.7198 72.7277 18.8577 72.6391 19.0152 72.5997C19.1826 72.5604 19.3106 72.4717 19.3106 72.393C19.3106 72.3142 19.3992 72.2551 19.5075 72.2551C19.665 72.2551 19.7044 72.1862 19.7044 71.9597C19.7044 71.7628 19.7537 71.6644 19.8521 71.6644C19.9604 71.6644 19.9998 71.5462 19.9998 71.1721V70.6797H19.5075C19.1333 70.6797 19.0152 70.7191 19.0152 70.8274ZM19.7044 71.2705C19.7044 71.4674 19.6552 71.5659 19.5567 71.5659C19.478 71.5659 19.409 71.6545 19.409 71.7628C19.409 71.8908 19.3401 71.9597 19.2121 71.9597C19.1038 71.9597 19.0152 72.0287 19.0152 72.1074C19.0152 72.1862 18.9463 72.2551 18.8675 72.2551C18.769 72.2551 18.7198 72.1468 18.7198 71.9105C18.7198 71.6742 18.769 71.5659 18.8675 71.5659C18.966 71.5659 19.0152 71.4674 19.0152 71.2705C19.0152 70.9948 19.0447 70.9751 19.3598 70.9751C19.6749 70.9751 19.7044 70.9948 19.7044 71.2705Z" fill="black"/>
<path d="M35.26 70.8274C35.26 70.9062 35.1714 70.9751 35.0631 70.9751C34.9548 70.9751 34.8662 71.0342 34.8662 71.113C34.8662 71.1917 34.7972 71.2705 34.7185 71.3099C34.6299 71.3394 34.5708 71.4871 34.5708 71.6644C34.5708 71.8613 34.5215 71.9597 34.4231 71.9597C34.3049 71.9597 34.2754 72.1173 34.2754 72.7474C34.2754 73.3579 34.3049 73.5548 34.4231 73.5942C34.5019 73.6336 34.5708 73.7124 34.5708 73.7911C34.5708 73.8699 34.6397 73.929 34.7185 73.929C34.7972 73.929 34.8662 73.9979 34.8662 74.0767C34.8662 74.185 34.9745 74.2244 35.26 74.2244C35.5455 74.2244 35.6539 74.185 35.6539 74.0767C35.6539 73.9881 35.7523 73.929 35.9099 73.929C36.0772 73.929 36.1855 73.8699 36.2151 73.7321C36.2446 73.6237 36.3332 73.5351 36.4022 73.5351C36.4908 73.5351 36.54 73.4268 36.54 73.2397C36.54 73.0428 36.5892 72.9444 36.6877 72.9444C36.7862 72.9444 36.8354 72.8361 36.8354 72.5997C36.8354 72.3634 36.7862 72.2551 36.6877 72.2551C36.5892 72.2551 36.54 72.3634 36.54 72.5997C36.54 72.8361 36.4908 72.9444 36.3923 72.9444C36.3135 72.9444 36.2446 73.0133 36.2446 73.0921C36.2446 73.1708 36.1757 73.2397 36.0969 73.2397C36.0182 73.2397 35.9492 73.3087 35.9492 73.3874C35.9492 73.4662 35.8803 73.5351 35.7917 73.5351C35.7031 73.5351 35.6145 73.6237 35.5849 73.7419C35.5455 73.8896 35.4766 73.929 35.3191 73.8896C35.2108 73.8601 35.0828 73.8305 35.0434 73.8305C34.9942 73.8305 34.9646 73.7616 34.9646 73.6828C34.9646 73.6041 34.9055 73.5351 34.8268 73.5351C34.6594 73.5351 34.5609 73.1708 34.6397 72.8656C34.6692 72.7277 34.7677 72.649 34.9055 72.649C35.2699 72.649 35.5554 72.5308 35.5554 72.393C35.5554 72.3142 35.6243 72.2551 35.7031 72.2551C35.7819 72.2551 35.8705 72.1173 35.9099 71.9105C35.9394 71.7136 36.028 71.5659 36.1068 71.5659C36.2052 71.5659 36.2446 71.4379 36.2446 71.1228V70.6797H35.7523C35.3782 70.6797 35.26 70.7191 35.26 70.8274ZM35.8508 71.1327C35.8508 71.2114 35.7819 71.3493 35.7031 71.4281C35.6243 71.5167 35.5554 71.6644 35.5554 71.7727C35.5554 71.8711 35.4865 71.9597 35.4077 71.9597C35.3289 71.9597 35.26 72.0287 35.26 72.1074C35.26 72.1961 35.1714 72.2551 35.0532 72.2551C34.8859 72.2551 34.8563 72.2157 34.9055 72.0287C34.9351 71.9105 34.9646 71.7136 34.9646 71.5856C34.9646 71.4576 35.0237 71.369 35.1123 71.369C35.1911 71.369 35.26 71.2804 35.26 71.1721C35.26 71.0145 35.3289 70.9751 35.5554 70.9751C35.7622 70.9751 35.8508 71.0244 35.8508 71.1327Z" fill="black"/>
<path d="M21.5 6.89978L38 21.672V40.3998L21.5 49.8998V6.89978Z" fill="#50735F"/>
</svg>
