<svg width="117" height="100" viewBox="0 0 117 100" fill="none" xmlns="http://www.w3.org/2000/svg">
<path d="M20.8254 76.0337C20.9398 75.8792 20.9207 75.4325 20.768 74.6939L20.5904 74.6728C20.5402 74.6909 20.5061 74.6749 20.488 74.6247C20.488 74.6247 20.47 74.5745 20.4338 74.4741C20.3475 74.3918 20.3154 74.4601 20.3375 74.6789C20.3415 74.8475 20.3435 74.9318 20.3435 74.9318C20.1749 74.9358 20.0846 74.6849 20.0725 74.1791C20.1729 74.143 20.3846 74.1801 20.7078 74.2905C20.8001 73.9171 20.5682 73.7455 20.0122 73.7757C19.5985 70.5802 19.1786 65.7147 18.7526 59.1792C18.3767 52.6256 17.9798 47.6668 17.5621 44.3027C17.1768 45.1217 16.8286 46.4375 16.5176 48.25C16.1886 50.0124 15.8816 51.285 15.5966 52.0679C15.4963 52.104 15.2634 52.2445 14.8981 52.4894C14.5148 52.6842 14.1475 52.8448 13.7962 52.9713C13.4269 53.0476 13.0967 52.9964 12.8056 52.8178C12.7334 52.6171 12.4925 52.4204 12.083 52.2277C11.7237 52.017 11.5059 51.727 11.4296 51.3576C11.6262 51.1167 11.7838 51.0033 11.9022 51.0174C12.2053 50.2847 12.5685 49.2469 12.9919 47.9041C13.4474 46.493 13.8729 45.2344 14.2682 44.1284C14.7137 43.0043 15.2295 41.9966 15.8155 41.1054C16.1668 40.9789 16.3585 40.8815 16.3906 40.8133C18.0626 40.8914 19.0964 41.7946 19.492 43.5228C19.779 43.5328 20.0721 43.7957 20.3712 44.3115C20.6522 44.7772 20.8018 45.0351 20.8199 45.0853C20.7958 45.4908 20.7677 45.7276 20.7356 45.7959C20.854 45.8099 20.9584 45.9424 21.0488 46.1933C21.1893 46.4261 21.3188 46.5495 21.4372 46.5636C21.4814 47.0011 21.5447 47.8853 21.6271 49.2161C21.7416 50.4786 21.8842 51.5043 22.0549 52.2932C21.9606 53.2908 21.9969 54.8082 22.1636 56.8455C22.3625 58.8146 22.454 60.1705 22.438 60.9132C22.5423 61.0456 22.6146 61.2463 22.6548 61.5153C22.695 61.7843 22.7331 61.9689 22.7692 62.0693C22.6208 62.9164 22.6991 64.0785 23.0044 65.5558C23.0588 68.5406 23.2075 70.5277 23.4504 71.5173C23.3441 72.009 23.3823 72.9022 23.5651 74.1969C23.7799 75.4233 23.8733 76.1549 23.8453 76.3918C23.8814 76.4921 23.8583 76.5855 23.776 76.6718C23.6937 76.7581 23.6616 76.8263 23.6797 76.8765C24.0069 77.1555 24.0601 77.6182 23.8394 78.2645C24.0924 78.967 24.3253 80.2436 24.5382 82.0942C24.7832 83.8766 25.0433 85.2285 25.3183 86.1498L25.0775 86.6616C25.4389 87.6652 25.7652 88.9649 26.0563 90.5606C26.3475 92.1563 26.6035 93.3396 26.8244 94.1103C27.0453 94.8811 27.5843 95.9057 28.4415 97.1843C28.5499 97.4853 28.5218 97.7222 28.3572 97.8948C28.2428 98.0494 28.0511 98.1468 27.7822 98.1869C27.5634 98.209 27.3627 98.2813 27.18 98.4038C27.0255 98.2894 26.8187 98.1087 26.5597 97.8619C26.3008 97.615 26.0599 97.4183 25.8371 97.2718C25.6143 97.1253 25.4025 97.0882 25.2018 97.1604C23.1783 94.3746 22.1353 91.3207 22.0728 87.9987C22.0647 87.6615 21.9342 87.1416 21.6813 86.4391C21.4785 85.7185 21.3731 85.1896 21.365 84.8524C21.3168 84.2463 21.1742 83.2206 20.9372 81.7754C20.7504 80.3121 20.6399 79.2182 20.6058 78.4936C20.6379 78.4253 20.7111 78.3139 20.8255 78.1594C20.9219 77.9546 21.0112 77.8091 21.0935 77.7228C21.1075 77.6044 21.0643 77.5632 20.964 77.5993C20.8456 77.5853 20.7773 77.5532 20.7592 77.503C21.0201 77.1256 21.0422 76.6359 20.8254 76.0337ZM18.8846 54.115C18.8485 54.0146 18.8625 53.8962 18.9267 53.7597C18.991 53.6232 18.9388 53.5569 18.7702 53.561C18.7882 53.6112 18.7742 53.7296 18.728 53.9163C18.6638 54.0528 18.716 54.119 18.8846 54.115ZM19.0985 55.6535C19.1687 55.0613 19.0854 54.7512 18.8485 54.7232C18.8466 55.3474 18.9299 55.6575 19.0985 55.6535ZM18.8095 56.2677C18.9781 56.2637 19.0855 56.1683 19.1317 55.9817C19.1457 55.8632 19.0935 55.797 18.9751 55.783C18.961 55.9014 18.9129 56.0038 18.8306 56.0901C18.7985 56.1583 18.7915 56.2175 18.8095 56.2677ZM20.1975 56.108C20.2617 55.9715 20.2507 55.8621 20.1644 55.7799C20.1282 55.6795 20.06 55.6474 19.9596 55.6835C20.068 55.9846 20.1473 56.1261 20.1975 56.108ZM19.174 57.752C19.0736 57.7882 19.0074 57.8404 18.9753 57.9086L19.186 58.2579C19.168 58.2077 19.175 58.1485 19.2071 58.0802C19.2713 57.9437 19.2603 57.8343 19.174 57.752C19.3104 57.8163 19.3676 57.739 19.3456 57.5202C19.3736 57.2833 19.2873 57.201 19.0866 57.2733C19.0364 57.2914 19.0655 57.451 19.174 57.752ZM20.3121 58.7877L20.279 58.4595L20.1766 58.4113L20.3121 58.7877ZM20.3966 60.2028L20.3213 60.2299C20.3895 60.262 20.3735 60.2961 20.2731 60.3322L20.3544 60.558C20.4548 60.5219 20.4688 60.4035 20.3966 60.2028C20.4287 60.1345 20.4678 60.007 20.5139 59.8204C20.4638 59.8384 20.4246 59.9659 20.3966 60.2028ZM20.5442 61.0849C20.508 60.9846 20.5241 60.9504 20.5923 60.9826C20.5381 60.832 20.4608 60.7748 20.3605 60.811C20.4327 61.0117 20.494 61.103 20.5442 61.0849ZM20.5683 62.0966C20.5503 62.0464 20.5482 61.9621 20.5623 61.8437C20.6225 61.5386 20.5432 61.397 20.3244 61.4191C20.4107 61.5014 20.4398 61.661 20.4117 61.8979C20.4158 62.0665 20.468 62.1327 20.5683 62.0966ZM20.8364 63.7856C20.732 63.6532 20.6919 63.3842 20.7159 62.9787C20.74 62.5733 20.6426 62.3816 20.4238 62.4037C20.5463 62.5863 20.5955 62.8804 20.5714 63.2858C20.5293 63.6411 20.6176 63.8077 20.8364 63.7856ZM21.0444 67.1969C20.9902 67.0464 20.937 66.5837 20.8848 65.8089C20.8646 64.9659 20.7592 64.437 20.5685 64.2222C20.5866 64.2724 20.6147 64.7441 20.6529 65.6373C20.7232 66.4623 20.8537 66.9821 21.0444 67.1969ZM22.0119 79.0926C22.2931 82.3925 22.7219 85.1574 23.2982 87.3874C23.6175 90.1634 24.0462 92.2197 24.5843 93.5565C24.1526 91.728 23.6797 89.234 23.1656 86.0747C22.6836 82.8471 22.299 80.5198 22.0119 79.0926C22.06 78.2817 21.9595 76.9008 21.7105 74.9497C21.4433 72.9486 21.3408 71.4833 21.403 70.5539C21.2765 70.2027 21.2052 69.6899 21.1891 69.0154C21.2051 68.2727 21.0906 67.7188 20.8457 67.3535C21.4002 73.616 21.7889 77.529 22.0119 79.0926ZM19.9004 68.034C20.0007 67.9979 20.0188 68.048 19.9546 68.1845C19.9406 68.303 19.9767 68.4033 20.063 68.4856C20.1955 68.3812 20.2346 68.2538 20.1804 68.1032C20.1262 67.9527 20.1402 67.8343 20.2225 67.7479C19.9355 67.7379 19.8281 67.8333 19.9004 68.034ZM19.9577 69.3738C19.9216 69.2735 19.8784 69.2323 19.8282 69.2504L19.9637 69.6267C20.2327 69.5866 20.3381 69.4069 20.2798 69.0878C20.2437 68.9874 20.1413 68.9392 19.9727 68.9433C20.045 69.144 20.04 69.2875 19.9577 69.3738ZM20.3434 72.8061C20.3614 72.8563 20.3133 72.9587 20.1989 73.1133C20.1166 73.1996 20.1276 73.309 20.232 73.4414C20.6615 73.06 20.6545 72.4107 20.2108 71.4934C20.3252 71.3389 20.3713 71.1522 20.3492 70.9334C20.3271 70.7146 20.3482 70.537 20.4124 70.4005C20.3622 70.4185 20.3281 70.4025 20.31 70.3523C20.292 70.3021 20.2579 70.2861 20.2077 70.3041C19.9529 71.643 19.9981 72.477 20.3434 72.8061ZM22.7071 75.3561C22.689 75.306 22.696 75.2467 22.7281 75.1785C22.7602 75.1102 22.7512 75.0852 22.701 75.1032C22.683 75.053 22.6238 75.046 22.5234 75.0822C22.5957 75.2829 22.6569 75.3742 22.7071 75.3561ZM22.8006 78.2134C22.9512 78.1592 23.0154 78.0227 22.9933 77.8039C22.9531 77.535 22.8738 77.3935 22.7554 77.3794C22.7775 77.5982 22.7926 77.8762 22.8006 78.2134ZM21.0334 79.445C21.1297 79.2402 21.0735 79.0054 20.8647 78.7405C20.9149 78.7224 20.956 78.6792 20.9881 78.611C21.0885 78.5748 21.1297 78.5317 21.1116 78.4815C21.0795 78.5498 21.0042 78.5769 20.8858 78.5628C20.8175 78.5307 20.7583 78.5237 20.7081 78.5418C20.7623 78.6923 20.8005 78.877 20.8226 79.0957C20.8447 79.3145 20.915 79.4309 21.0334 79.445ZM20.901 80.2579C21.0696 80.2539 21.1338 80.1174 21.0936 79.8484C21.0575 79.7481 21.0143 79.7069 20.9642 79.725C20.9822 79.7752 20.9591 79.8685 20.8949 80.005C20.8126 80.0913 20.8146 80.1756 20.901 80.2579ZM23.1501 80.1283L23.3006 80.0741L23.2464 79.9235L23.0958 79.9777L23.1501 80.1283ZM23.6742 83.0006C23.7023 82.7637 23.6069 82.6563 23.3881 82.6784C23.4062 82.7286 23.4584 82.7949 23.5447 82.8771C23.5808 82.9775 23.624 83.0186 23.6742 83.0006ZM21.8587 84.3345C21.9952 84.3987 22.0524 84.3215 22.0303 84.1027C22.0584 83.8658 21.9721 83.7835 21.7714 83.8558C21.8577 83.9381 21.8938 84.0385 21.8798 84.1569C21.8477 84.2251 21.8407 84.2843 21.8587 84.3345ZM22.1298 85.0872C22.0214 84.7861 21.9421 84.6446 21.8919 84.6627C21.91 84.7129 21.9371 84.7882 21.9732 84.8885C22.0274 85.039 22.0796 85.1053 22.1298 85.0872ZM22.3587 86.1952C22.3406 86.145 22.3205 86.0105 22.2984 85.7917C22.2763 85.5729 22.2151 85.4816 22.1148 85.5178C22.1509 85.6181 22.1549 85.7867 22.1268 86.0236C22.1309 86.1922 22.2082 86.2494 22.3587 86.1952ZM22.1931 86.6799L22.4189 86.5986L22.3647 86.4481L22.1389 86.5294L22.1931 86.6799ZM22.5184 87.5832C22.5745 87.1095 22.5183 86.8746 22.3497 86.8786C22.3678 86.9288 22.3698 87.0131 22.3558 87.1316C22.3919 87.2319 22.4029 87.3413 22.3889 87.4597C22.407 87.5099 22.4501 87.5511 22.5184 87.5832ZM22.666 88.4653L22.8165 88.4111L22.681 88.0348L22.5305 88.089L22.666 88.4653ZM22.5065 89.203C22.4884 89.1528 22.5044 89.1187 22.5546 89.1006L22.5757 88.923C22.7122 88.9872 22.8055 89.0103 22.8557 88.9922C22.7111 88.5908 22.5385 88.4262 22.3378 88.4985C22.4422 88.6309 22.4623 88.7654 22.398 88.9019C22.4021 89.0705 22.4382 89.1709 22.5065 89.203ZM22.7022 89.9828C22.6741 90.2196 22.7484 90.5047 22.9251 90.8379C22.8207 90.7054 22.8097 90.596 22.892 90.5097C22.9742 90.4234 22.9973 90.33 22.9612 90.2297C22.8608 90.2658 22.7745 90.1835 22.7022 89.9828ZM23.3798 91.8645C23.3296 91.8826 23.3045 91.8916 23.3045 91.8916C23.2042 91.9278 23.163 91.9709 23.1811 92.0211C23.3317 91.9669 23.3979 91.9147 23.3798 91.8645ZM20.2803 75.4647C20.3667 75.547 20.4189 75.6132 20.4369 75.6634C20.455 75.7136 20.5072 75.7798 20.5935 75.8621C20.6437 75.8441 20.6597 75.8099 20.6417 75.7597C20.6557 75.6413 20.6878 75.5731 20.738 75.555C20.724 75.6734 20.7531 75.833 20.8254 76.0337C20.7752 76.0518 20.716 76.0448 20.6477 76.0127C20.5795 75.9806 20.5203 75.9735 20.4701 75.9916C20.438 76.0598 20.4621 76.3629 20.5424 76.9009C20.6047 77.3886 20.5876 77.7349 20.4913 77.9396C20.415 77.5703 20.3367 77.1167 20.2564 76.5787C20.2262 76.0227 20.2091 75.6604 20.2051 75.4918L20.2803 75.4647ZM20.7411 76.7443C20.9097 76.7403 20.9368 76.8155 20.8224 76.9701L20.7743 77.0725C20.6558 77.0584 20.6378 77.0082 20.72 76.9219L20.7411 76.7443ZM61.1176 66.8817C61.0272 66.6308 60.9178 66.6418 60.7894 66.9148C60.9259 66.979 61.0353 66.968 61.1176 66.8817C61.1537 66.982 61.1055 67.0844 60.9731 67.1888C60.8908 67.2751 60.8587 67.3434 60.8767 67.3935C61.1839 68.2466 61.1117 68.7544 60.6601 68.917L60.8498 69.4439L60.5487 69.5523C60.5708 69.7711 60.5929 69.9899 60.615 70.2087C60.6873 70.4094 60.7345 70.6192 60.7566 70.838C60.588 70.842 60.4374 70.8962 60.305 71.0006L59.9949 71.7925C59.7882 72.3204 59.732 72.7941 59.8264 73.2136C59.7261 73.2497 59.6076 73.2357 59.4711 73.1715C59.5434 73.3722 59.4672 73.7114 59.2424 74.1891C59.0176 74.6669 59.0347 75.0292 59.2937 75.2761C59.1693 75.7176 58.9054 76.3228 58.502 77.0916C58.1166 77.9106 57.8688 78.4817 57.7584 78.8049C57.3489 78.6122 57.0178 78.8732 56.7649 79.5878C56.9335 79.5837 57.0248 79.5225 57.0389 79.4041C57.1212 79.3178 57.1874 79.2656 57.2376 79.2475C57.0811 79.7574 56.6827 80.3826 56.0424 81.1234C55.4704 81.8962 55.1042 82.4532 54.9436 82.7945C54.6787 83.0032 54.2993 83.3666 53.8056 83.8845C53.3119 84.4024 52.8412 84.827 52.3936 85.1582C51.946 85.4894 51.4533 85.6952 50.9153 85.7755C48.2177 87.2571 45.2169 86.6371 41.9128 83.9155C40.0117 81.3123 38.9899 79.4979 38.8473 78.4722C38.9978 78.418 39.0842 78.5003 39.1063 78.7191C39.2387 78.6147 39.2869 78.5123 39.2508 78.4119C39.2146 78.3116 39.1444 78.1952 39.04 78.0627C38.9356 77.9302 38.8653 77.8138 38.8292 77.7135C38.8934 77.577 39.1011 77.4455 39.4524 77.319C39.3982 77.1685 39.3049 77.1454 39.1724 77.2498C39.072 77.2859 38.9717 77.322 38.8713 77.3582C38.8532 77.308 38.8332 77.1735 38.8111 76.9547C38.789 76.7359 38.7849 76.5673 38.799 76.4489C38.6163 76.5714 38.5702 76.758 38.6605 77.0089C38.7328 77.2097 38.7027 77.3622 38.5702 77.4666C38.5843 77.3482 38.5712 77.1545 38.531 76.8855C38.4909 76.6165 38.4778 76.4228 38.4919 76.3044C38.8612 76.2281 39.0308 75.912 39.0006 75.356C39.5825 72.879 40.1273 71.3223 40.6351 70.686C40.7797 71.0874 40.8189 71.6685 40.7527 72.4293C40.6865 73.19 40.7167 73.746 40.8431 74.0973C40.8612 74.1475 40.8452 74.1816 40.795 74.1997C40.7448 74.2177 40.7037 74.2609 40.6715 74.3291C40.8402 74.3251 40.8974 74.2478 40.8431 74.0973C40.9937 74.0431 41.0459 74.1093 40.9997 74.296C40.9676 74.3642 40.9606 74.4234 40.9787 74.4736C40.9967 74.5238 41.0399 74.5649 41.1081 74.5971C41.2125 74.7295 41.2968 74.7275 41.361 74.591C41.4072 74.4043 41.4805 74.2929 41.5808 74.2568C41.5527 74.4936 41.609 74.7285 41.7495 74.9613C41.617 75.0657 41.5207 75.2704 41.4605 75.5756C41.4003 75.8807 41.3541 76.0673 41.322 76.1356C41.3943 76.3363 41.5057 76.4096 41.6563 76.3553C41.5941 77.2847 41.6524 78.3124 41.8311 79.4384C42.0099 80.5645 42.3893 81.6182 42.9695 82.5997C43.5998 83.5631 44.3957 84.0418 45.3572 84.0357C45.5258 84.0317 45.7606 83.9755 46.0617 83.867C46.413 83.7406 46.707 83.6914 46.9439 83.7194C47.4136 83.607 47.9475 83.3581 48.5456 82.9726C49.212 82.6193 49.7047 82.4135 50.0239 82.3553C50.2205 82.1144 50.7052 81.5714 51.478 80.7263C52.3009 79.8631 52.909 79.1907 53.3024 78.7089C53.5733 78.0445 53.9807 77.4443 54.5246 76.9083C54.7213 76.6674 54.9621 76.1556 55.2471 75.3727C55.5321 74.5899 55.8391 74.0258 56.1683 73.6806C56.2104 73.3253 56.2224 73.1225 56.2044 73.0724C56.5155 72.6769 56.7864 72.0125 57.0171 71.0791C57.2981 70.1277 57.5941 69.4542 57.9052 69.0588C57.8189 68.9765 57.7827 68.8761 57.7968 68.7577C57.7927 68.5891 57.7726 68.4546 57.7365 68.3543C58.7097 64.6027 58.4013 61.2275 56.8114 58.2289C55.0649 55.7401 51.8824 54.9304 47.2638 55.7999C46.196 56.2978 45.0921 56.6953 43.952 56.9924C43.2856 57.3458 41.8816 58.2481 39.74 59.6995C37.6305 61.0827 35.9486 62.0001 34.6941 62.4518C32.5143 63.01 30.4628 61.8781 28.5396 59.0561C28.1923 57.9341 28.0196 56.3524 28.0214 54.3111C28.0232 52.2697 27.993 51.0052 27.9308 50.5174C28.0271 50.3127 28.0512 49.9072 28.0029 49.301C27.9547 48.6949 28.0039 48.2804 28.1504 48.0575C28.058 47.0138 28.0599 45.681 28.1561 44.0591C28.2342 42.3871 28.2562 41.1888 28.222 40.4642C27.4453 41.1407 27.068 41.5883 27.0901 41.8071C26.2872 42.0962 25.6408 41.8755 25.151 41.1449C24.6933 40.3461 24.4996 39.6506 24.5698 39.0584C24.7444 38.5988 25.3977 38.0517 26.5297 37.4174C27.6617 36.783 28.297 36.1858 28.4354 35.6258C28.5679 35.5214 28.7024 35.5013 28.8389 35.5655C28.9753 35.6297 29.0938 35.6438 29.1941 35.6076C35.2336 32.0724 38.5454 30.1713 39.1294 29.9043C42.1964 28.3465 44.5487 27.2443 46.1866 26.5978C51.2145 24.5039 54.7994 23.4398 56.9411 23.4055C57.5774 23.9133 57.8815 24.2856 57.8534 24.5224C58.6443 25.1446 59.0388 25.7678 59.0368 26.3921C58.8863 26.4463 58.6715 26.637 58.3926 26.9642C58.1457 27.2231 57.9038 27.3386 57.667 27.3105C57.5807 27.2282 57.4763 27.0957 57.3538 26.9131C57.2314 26.7304 57.0929 26.5819 56.9383 26.4675C55.9407 26.3733 54.8558 26.5088 53.6836 26.8742C52.5616 27.2216 51.2911 27.7074 49.872 28.3318C48.4349 28.906 47.3058 29.3125 46.4849 29.5515C43.1992 31.1314 40.5658 32.4765 38.5848 33.5866C37.9867 33.972 36.8978 34.6476 35.3182 35.6132C33.7707 36.5105 32.6065 37.2131 31.8258 37.721C31.5328 38.1667 31.3893 38.8702 31.3954 39.8317C31.4015 40.7931 31.3494 41.4354 31.239 41.7586C31.2249 41.877 31.2611 41.9774 31.3474 42.0597C31.4337 42.142 31.4859 42.2082 31.504 42.2584C31.3936 42.5816 31.3144 43.1486 31.2663 43.9595C31.2683 44.7524 31.2393 45.3014 31.1791 45.6065C31.2794 45.5703 31.3387 45.5774 31.3567 45.6275C31.425 45.6596 31.4521 45.7349 31.438 45.8533C31.4561 45.9035 31.4581 45.9878 31.4441 46.1063C31.43 46.2247 31.425 46.3682 31.4291 46.5368C31.415 46.6552 31.4512 46.7556 31.5375 46.8379C31.4371 46.874 31.3438 46.8509 31.2575 46.7687C31.2213 46.6683 31.1782 46.6271 31.128 46.6452C31.0638 46.7817 31.0748 46.8911 31.1611 46.9734C31.2976 47.0376 31.3839 47.1199 31.4201 47.2203C31.115 47.1601 31.0096 47.3397 31.104 47.7592C31.1441 48.0282 31.2576 48.1858 31.4442 48.2319C31.3258 48.2179 31.2596 48.2701 31.2455 48.3885C31.2134 48.4567 31.1723 48.4999 31.1221 48.518L31.3811 48.7648L31.5019 53.823L31.0503 53.9857C31.0684 54.0358 31.1527 54.0338 31.3032 53.9796C31.4018 57.4019 31.5977 59.5988 31.8908 60.5703C34.6547 59.7451 36.987 58.5085 38.8877 56.8604C39.1707 56.7018 39.6705 56.4368 40.3871 56.0654C41.1538 55.6759 41.6787 55.4019 41.9617 55.2433C47.108 53.1634 51.0452 53.0778 53.7732 54.9864C55.2164 55.3737 56.9166 56.6321 58.8738 58.7616C58.5567 58.1956 58.38 57.8624 58.3438 57.7621C59.8032 58.8238 60.5741 60.7286 60.6566 63.4765C61.0481 63.6189 61.2358 64.0615 61.2198 64.8042C61.2038 65.5469 61.257 66.0095 61.3795 66.1922C61.1286 66.2825 61.0483 66.4531 61.1386 66.704C61.1065 66.7723 61.0995 66.8315 61.1176 66.8817ZM35.7304 32.7438C35.6762 32.5933 35.5689 32.6886 35.4083 33.0299C33.09 34.1481 31.7021 35.0163 31.2445 35.6346C32.3986 35.219 33.2226 34.7522 33.7163 34.2343C33.7344 34.2845 33.7183 34.3186 33.6681 34.3367C33.6039 34.4732 33.615 34.5826 33.7013 34.6649C33.9522 34.5745 34.0826 34.3858 34.0927 34.0988C34.1428 34.0807 34.2111 34.1129 34.2974 34.1951C34.3837 34.2774 34.468 34.2754 34.5503 34.1891C34.5322 34.1389 34.4891 34.0978 34.4208 34.0657C34.2663 33.9513 34.2552 33.8419 34.3877 33.7375L34.7761 34.1078C34.7761 34.1078 34.7831 34.0486 34.7972 33.9301C34.771 33.5428 34.8353 33.4063 34.9898 33.5207L34.8935 33.7254C35.034 33.9582 35.4104 33.8227 36.0225 33.3189C36.2413 33.2968 36.5083 33.1723 36.8234 32.9454C37.1887 32.7005 37.4988 32.6172 37.7537 32.6955C38.1511 32.3823 38.3749 32.2167 38.4251 32.1986C38.3609 32.3351 38.3378 32.4285 38.3559 32.4786C38.4382 32.3923 38.5616 32.2628 38.7262 32.0902C38.9409 31.8995 39.1216 31.6927 39.2681 31.4699C39.2861 31.5201 39.2882 31.6044 39.2741 31.7228C39.246 31.9597 39.3163 32.0761 39.4849 32.0721C39.4488 31.9717 39.515 31.9195 39.6836 31.9155C39.8341 31.8613 39.9435 31.8503 40.0118 31.8824L39.9034 31.5813C39.9536 31.5632 40.0128 31.5702 40.081 31.6023C40.1312 31.5843 40.1814 31.5662 40.2315 31.5481C41.1588 30.8174 41.8934 30.4962 42.4354 30.5845C43.5313 29.8498 44.2248 29.5717 44.5158 29.7503C44.5801 29.6138 44.5851 29.4703 44.5308 29.3198C44.4586 29.1191 44.4636 28.9755 44.5459 28.8892C44.5639 28.9394 44.591 29.0147 44.6272 29.115C44.7135 29.1973 44.7908 29.2545 44.859 29.2866C45.2284 29.2103 45.4612 29.0698 45.5575 28.8651C45.8165 29.1119 46.1998 28.9172 46.7076 28.2809C46.7437 28.3812 46.8301 28.4635 46.9666 28.5277C47.085 28.5418 47.1171 28.4735 47.0629 28.323C46.9445 28.3089 46.9083 28.2086 46.9545 28.0219C46.9685 27.9035 47.0097 27.8603 47.0779 27.8924L47.1321 28.043C47.2867 28.1574 47.7313 28.054 48.4659 27.7327C49.2326 27.3433 49.7254 27.1375 49.9442 27.1154C49.9401 26.9468 50.0134 26.8354 50.1639 26.7812C50.4148 26.6908 50.5041 26.5453 50.4319 26.3446L50.6908 26.5915C50.9236 26.4509 51.2909 26.2903 51.7927 26.1096C52.2945 25.9289 52.5775 25.7704 52.6418 25.6339C53.3704 25.7683 53.9695 25.7793 54.4392 25.6668C54.3489 25.4159 54.4041 25.2543 54.6048 25.1821C54.8597 25.2603 55.6124 24.9893 56.8629 24.369C56.5357 24.09 56.1553 24.0569 55.7217 24.2697C53.3974 24.4264 49.7142 25.611 44.6722 27.8234C42.1171 28.9135 39.9263 30.0708 38.0999 31.2954C36.8815 31.8475 36.0917 32.3303 35.7304 32.7438ZM52.5244 26.0162C52.5103 26.1347 52.4351 26.1618 52.2986 26.0976C52.2845 26.216 52.3277 26.2571 52.428 26.221C52.4601 26.1527 52.4923 26.0845 52.5244 26.0162ZM51.874 26.3354L51.7988 26.3625C51.7486 26.3806 51.7325 26.4147 51.7506 26.4649C51.851 26.4288 51.8921 26.3856 51.874 26.3354ZM53.1536 25.8747C53.0031 25.9289 52.9118 25.9901 52.8796 26.0584C53.0804 25.9861 53.1717 25.9249 53.1536 25.8747ZM37.6845 32.9755C37.6303 32.8249 37.5279 32.7768 37.3774 32.831C37.4497 33.0317 37.552 33.0799 37.6845 32.9755ZM31.1131 49.2014C31.1954 49.1151 31.2024 49.0559 31.1342 49.0238C31.0981 48.9234 31.0298 48.8913 30.9294 48.9275C31.0017 49.1282 31.0629 49.2195 31.1131 49.2014ZM31.2278 51.8811C31.2418 51.7626 31.1394 51.7145 30.9206 51.7366C30.9708 51.7185 31.03 51.7255 31.0983 51.7576C31.1344 51.858 31.1776 51.8991 31.2278 51.8811ZM31.1677 53.6033C31.3603 53.1938 31.3061 53.0432 31.0051 53.1517L31.1677 53.6033ZM29.5028 54.883L29.7286 54.8017L29.6744 54.6512L29.4486 54.7325L29.5028 54.883ZM41.7269 56.0081C41.7309 56.1767 41.6667 56.3132 41.5342 56.4176C41.4519 56.5039 41.3014 56.5581 41.0826 56.5802C40.8638 56.6023 40.7293 56.6224 40.6792 56.6404C40.5286 56.6946 40.355 56.8422 40.1583 57.0831C39.9616 57.324 39.7449 57.4304 39.508 57.4023C39.5803 57.603 39.484 57.8077 39.219 58.0165C38.9862 58.157 38.8628 58.2865 38.8487 58.4049C39.1458 58.1279 39.7027 57.7856 40.5196 57.3781C41.3687 56.9023 41.9578 56.4918 42.2869 56.1465C42.3231 56.2469 42.4164 56.27 42.5669 56.2158C43.0145 55.8845 44.0683 55.5051 45.7282 55.0774C47.3701 54.5996 48.3576 54.2723 48.6908 54.0956C46.0794 54.2424 44.1756 54.7012 42.9794 55.4721C42.9292 55.4901 42.895 55.4741 42.877 55.4239C42.8408 55.3235 42.7886 55.2573 42.7204 55.2252C42.7064 55.3436 42.617 55.4891 42.4525 55.6618C42.2698 55.7842 42.1624 55.8796 42.1303 55.9478C41.9256 55.8515 41.7911 55.8716 41.7269 56.0081ZM41.5763 56.0623C41.5262 56.0804 41.5011 56.0894 41.5011 56.0894C41.4509 56.1075 41.4348 56.1416 41.4529 56.1918C41.5533 56.1556 41.5944 56.1125 41.5763 56.0623ZM59.1178 59.439C59.0676 59.4571 59.0425 59.4662 59.0425 59.4662C58.9923 59.4842 58.9763 59.5183 58.9943 59.5685C59.0947 59.5324 59.1358 59.4892 59.1178 59.439ZM59.1994 63.9162C59.2998 63.88 59.3389 63.7526 59.3168 63.5338C59.2947 63.315 59.2224 63.1143 59.1 62.9316C59.0277 62.7309 58.9665 62.6396 58.9163 62.6577C58.9023 62.7761 58.9494 62.9858 59.0579 63.2869C59.1663 63.588 59.2135 63.7977 59.1994 63.9162ZM58.357 71.0218C58.5075 70.9676 58.6058 70.8472 58.652 70.6605C58.7302 70.4056 58.8196 70.26 58.9199 70.2239C58.8978 70.0051 58.971 69.1851 59.1395 67.764C59.308 66.3429 59.2909 65.272 59.0881 64.5515C59.064 64.9569 59.0209 65.6243 58.9588 66.5537C58.8966 67.483 58.8325 68.3281 58.7663 69.0888C58.682 69.7994 58.5456 70.4437 58.357 71.0218ZM58.2694 68.4174C58.5384 68.3773 58.6508 68.1384 58.6066 67.7008C58.6026 67.5322 58.5413 67.4409 58.4229 67.4269C58.4269 67.5955 58.3808 67.7821 58.2845 67.9869C58.2383 68.1736 58.2333 68.3171 58.2694 68.4174ZM58.2213 68.5198C58.137 69.2304 57.9705 70.0273 57.7217 70.9105C57.4548 71.7435 57.2591 72.3808 57.1347 72.8224C56.9922 73.2138 56.6731 73.9806 56.1774 75.1227C55.7319 76.2468 55.4771 76.8771 55.4128 77.0136C56.8458 74.8537 57.8572 71.9954 58.4471 68.4385L58.2213 68.5198ZM60.6751 68.4865C60.8758 68.4142 60.9581 68.3279 60.922 68.2275C60.6711 68.3179 60.5456 68.3631 60.5456 68.3631C60.5637 68.4132 60.6069 68.4544 60.6751 68.4865ZM57.5651 70.7118C57.547 70.6616 57.554 70.6024 57.5861 70.5341C57.6323 70.3474 57.5962 70.2471 57.4777 70.233C57.4958 70.2832 57.4888 70.3424 57.4567 70.4107C57.4105 70.5974 57.4467 70.6977 57.5651 70.7118ZM39.6029 77.2648C39.7214 77.2788 39.7966 77.2517 39.8287 77.1835C39.8428 77.065 39.8317 76.9556 39.7956 76.8553L39.4945 76.9637L39.6029 77.2648ZM58.3901 71.35L58.4443 71.5005L58.6701 71.4192C58.652 71.369 58.6681 71.3349 58.7183 71.3168L58.6641 71.1663L58.4383 71.2476C58.4563 71.2978 58.4403 71.3319 58.3901 71.35ZM58.3269 71.8829C58.4775 71.8287 58.5347 71.7514 58.4985 71.6511C58.2978 71.7233 58.2406 71.8006 58.3269 71.8829ZM57.9958 72.8524C58.1283 72.748 58.2748 72.5252 58.4353 72.184C58.2346 72.2563 58.0881 72.4791 57.9958 72.8524ZM57.7339 73.5419L57.9597 73.4606L57.8784 73.2348L57.6526 73.3161L57.7339 73.5419ZM57.2914 75.1467C57.3055 75.0283 57.3286 74.935 57.3607 74.8667C57.4249 74.7302 57.448 74.6369 57.4299 74.5867L57.1288 74.6951C57.2151 74.7774 57.2262 74.8868 57.162 75.0233C57.1479 75.1417 57.1911 75.1829 57.2914 75.1467ZM58.3663 74.5897L58.2428 74.7191C58.1927 74.7372 58.1766 74.7713 58.1947 74.8215L58.2428 74.7191C58.3432 74.683 58.3843 74.6398 58.3663 74.5897ZM56.3703 76.8389C56.1094 77.2163 55.7862 77.8145 55.4009 78.6334C55.0116 79.2838 54.8008 79.6431 54.7687 79.7114C55.1661 79.3982 55.3769 79.0389 55.4009 78.6334C55.7803 78.2701 56.1034 77.6719 56.3703 76.8389C56.5529 76.7165 56.6834 76.5278 56.7616 76.2728C56.8901 75.9998 56.9021 75.7971 56.7977 75.6646C56.7516 75.8513 56.6643 76.0812 56.5358 76.3542C56.4576 76.6091 56.4024 76.7707 56.3703 76.8389ZM54.7354 77.2575C54.5166 77.2796 54.3842 77.384 54.338 77.5707C54.324 77.6891 54.3762 77.7554 54.4946 77.7694C54.4765 77.7192 54.5337 77.6419 54.6662 77.5376C54.8167 77.4834 54.8398 77.39 54.7354 77.2575ZM55.2473 77.4984C55.3657 77.5124 55.3978 77.4442 55.3436 77.2936L55.3647 77.116C55.164 77.1883 55.1248 77.3157 55.2473 77.4984ZM58.0051 76.4203L58.1557 76.3661L58.0743 76.1403L57.9238 76.1945L58.0051 76.4203ZM53.9737 78.212L54.1996 78.1307C54.1634 78.0304 54.0701 78.0073 53.9195 78.0615L53.9737 78.212ZM54.2719 79.04C54.7335 78.5903 55.0175 78.1196 55.1238 77.6279C54.7445 77.9912 54.4605 78.4619 54.2719 79.04ZM58.2009 77.2001C58.3193 77.2141 58.3675 77.1117 58.3454 76.8929C58.3915 76.7063 58.4307 76.5788 58.4628 76.5106C58.1296 76.6872 58.0423 76.9171 58.2009 77.2001ZM53.5884 79.031C53.5021 78.9487 53.4088 78.9257 53.3084 78.9618C53.2261 79.0481 53.2372 79.1575 53.3416 79.29C53.1268 79.4807 52.6993 79.9464 52.0591 80.6871C51.469 81.4098 50.916 81.9206 50.4002 82.2198L50.2557 82.5269C49.7901 82.8079 49.4428 83.103 49.214 83.4121C49.0494 83.5848 48.641 83.7885 47.9887 84.0234C47.3865 84.2403 47.0463 84.4762 46.968 84.7311C49.0615 84.0906 50.4906 83.1792 51.2553 81.9969L51.3576 82.0451C51.4259 82.0772 51.4851 82.0842 51.5353 82.0661C51.477 81.747 51.6466 81.4308 52.044 81.1177C52.4916 80.7864 52.7204 80.4773 52.7304 80.1903C52.8669 80.2545 53.0084 80.1752 53.1549 79.9524C53.3014 79.7296 53.3637 79.5088 53.3416 79.29C53.5423 79.2177 53.6246 79.1314 53.5884 79.031C53.7891 78.9587 53.8534 78.8223 53.7811 78.6215C53.5804 78.6938 53.5161 78.8303 53.5884 79.031ZM57.5566 77.7722C57.6249 77.8043 57.7092 77.8023 57.8095 77.7661C57.928 77.7802 57.9942 77.728 58.0082 77.6096C58.0905 77.5232 58.1226 77.455 58.1046 77.4048C57.9319 77.2402 57.7493 77.3627 57.5566 77.7722ZM57.6861 77.8956L57.5898 78.1004L57.6861 77.8956ZM57.2405 78.3111L57.2947 78.4617L57.4453 78.4075C57.5276 78.3212 57.5346 78.2619 57.4663 78.2298C57.4483 78.1797 57.389 78.1726 57.2887 78.2088C57.3068 78.2589 57.2907 78.2931 57.2405 78.3111ZM54.3292 80.3798C54.5299 80.3075 54.6443 80.153 54.6724 79.9161C54.7045 79.8479 54.6864 79.7977 54.6182 79.7656C54.6363 79.8158 54.5791 79.893 54.4466 79.9974C54.3322 80.152 54.2931 80.2795 54.3292 80.3798ZM56.3615 79.648C56.2611 79.6842 56.22 79.7273 56.238 79.7775C56.3384 79.7414 56.3795 79.6982 56.3615 79.648ZM52.7335 81.3795C52.8841 81.3253 52.9573 81.2139 52.9533 81.0453C52.7526 81.1176 52.6793 81.229 52.7335 81.3795ZM52.6072 82.4454L52.9082 82.337C52.8902 82.2868 52.847 82.2457 52.7788 82.2135C52.7426 82.1132 52.6995 82.072 52.6493 82.0901C52.6674 82.1403 52.6603 82.1995 52.6282 82.2678C52.5961 82.336 52.5891 82.3952 52.6072 82.4454ZM51.5805 82.9001C51.5624 82.8499 51.5695 82.7907 51.6016 82.7225C51.6337 82.6542 51.6407 82.595 51.6226 82.5448C51.5042 82.5308 51.438 82.583 51.4239 82.7014C51.4099 82.8198 51.4621 82.8861 51.5805 82.9001ZM51.5926 83.4059L51.3939 83.5625C51.3297 83.699 51.3226 83.7582 51.3728 83.7402C51.5053 83.6358 51.5785 83.5244 51.5926 83.4059ZM48.791 26.5103L48.9144 26.3808C49.083 26.3768 49.1603 26.434 49.1462 26.5524L48.9204 26.6338C48.9024 26.5836 48.8592 26.5424 48.791 26.5103ZM45.1841 28.0642C45.166 28.014 45.2072 27.9709 45.3075 27.9347C45.3256 27.9849 45.2845 28.0281 45.1841 28.0642ZM49.4534 26.6969C49.5858 26.5926 49.6882 26.6407 49.7605 26.8414C49.8147 26.992 49.7485 27.0442 49.5618 26.998L49.4534 26.6969ZM54.7975 24.7726C54.9841 24.8187 55.0795 24.9261 55.0835 25.0947C55.0012 25.181 54.9059 25.0737 54.7975 24.7726ZM47.0779 27.8924C47.1281 27.8744 47.1692 27.8312 47.2013 27.763C47.2194 27.8131 47.1783 27.8563 47.0779 27.8924ZM47.5235 27.4769C47.7744 27.3866 47.936 27.4417 48.0082 27.6425C47.9581 27.6605 47.8918 27.7127 47.8095 27.799C47.7774 27.8673 47.7272 27.8854 47.659 27.8532L47.5235 27.4769ZM43.3145 29.2476C43.2964 29.1974 43.3626 29.1452 43.5132 29.091C43.5312 29.1412 43.465 29.1934 43.3145 29.2476ZM46.3734 28.0611L46.5992 27.9798L46.6534 28.1303L46.4276 28.2116L46.3734 28.0611ZM54.3519 25.1881C54.2234 25.4611 54.0247 25.6177 53.7558 25.6579C53.8521 25.4531 54.0508 25.2965 54.3519 25.1881ZM38.407 31.4399C38.3889 31.3897 38.405 31.3556 38.4551 31.3375L38.5786 31.208C38.5966 31.2582 38.5555 31.3014 38.4551 31.3375L38.407 31.4399ZM42.2667 29.88L42.4173 29.8258L42.4986 30.0516L42.3481 30.1058L42.2667 29.88ZM39.262 31.217C39.3443 31.1307 39.4126 31.1628 39.4668 31.3134L39.4186 31.4157C39.3684 31.4338 39.3162 31.3676 39.262 31.217ZM40.5205 30.9339L40.7192 30.7773L40.7735 30.9279L40.5958 30.9068L40.5205 30.9339ZM36.3326 32.527C36.3647 32.4587 36.4058 32.4156 36.456 32.3975C36.5062 32.3794 36.5403 32.3955 36.5584 32.4457L36.3326 32.527ZM35.7304 32.7438C35.6803 32.7619 35.6732 32.8211 35.7094 32.9214C35.7596 32.9034 35.7666 32.8442 35.7304 32.7438ZM39.9034 31.5813C39.8351 31.5492 39.792 31.508 39.7739 31.4578C39.8241 31.4398 39.8672 31.4809 39.9034 31.5813ZM36.2905 32.8823C36.2724 32.8321 36.3135 32.7889 36.4139 32.7528C36.432 32.803 36.3908 32.8461 36.2905 32.8823ZM39.4518 31.7439C39.4337 31.6937 39.4748 31.6506 39.5752 31.6144C39.5933 31.6646 39.5521 31.7078 39.4518 31.7439ZM34.9898 33.5207L35.2909 33.4122C35.327 33.5126 35.304 33.6059 35.2217 33.6923C35.0852 33.628 35.0079 33.5708 34.9898 33.5207ZM54.279 54.9744C54.2609 54.9242 54.277 54.8901 54.3272 54.872C54.3954 54.9041 54.4637 54.9362 54.5319 54.9683L54.3814 55.0225L54.279 54.9744ZM54.6132 55.1941C54.7457 55.0897 54.8802 55.0697 55.0167 55.1339C55.1853 55.1298 55.3559 55.2101 55.5285 55.3747C55.7333 55.471 55.8949 55.5262 56.0133 55.5403C55.8989 55.6948 55.662 55.6667 55.3027 55.456C54.9936 55.2272 54.7638 55.1399 54.6132 55.1941ZM56.197 55.8142C56.2331 55.9146 56.3194 55.9969 56.4559 56.0611C56.4198 55.9607 56.3335 55.8784 56.197 55.8142ZM40.2317 70.7463C40.2136 70.6961 40.2297 70.662 40.2798 70.6439C40.2979 70.6941 40.2819 70.7282 40.2317 70.7463ZM39.3105 72.4384C39.5835 72.5669 39.4521 73.0677 38.9162 73.9409C38.9022 74.0593 38.9132 74.1687 38.9493 74.269C39.0035 74.4196 38.9213 74.5059 38.7025 74.528C38.7306 74.2911 38.8068 73.9519 38.9312 73.5103C39.1058 73.0506 39.2322 72.6934 39.3105 72.4384ZM38.6814 74.7056L38.7627 74.9314L38.6814 74.7056ZM38.6393 75.0609L38.7477 75.362L38.6393 75.0609ZM60.7595 69.9016C60.7414 69.8514 60.7826 69.8082 60.8829 69.7721C60.901 69.8223 60.8599 69.8654 60.7595 69.9016ZM38.6305 77.87C38.7308 77.8339 38.7921 77.9252 38.8142 78.144C38.8503 78.2444 38.8092 78.2875 38.6907 78.2735C38.6225 78.2414 38.6044 78.1912 38.6365 78.1229C38.6506 78.0045 38.6485 77.9202 38.6305 77.87ZM59.9348 73.5147C59.8626 73.3139 59.8856 73.2206 60.0041 73.2346L60.0583 73.3852C60.0081 73.4033 59.992 73.4374 60.0101 73.4876L59.9348 73.5147ZM59.8385 73.7194L59.9348 73.5147C59.8345 73.5508 59.8024 73.619 59.8385 73.7194ZM59.8385 73.7194C59.9289 73.9703 59.8827 74.157 59.7001 74.2794C59.5776 74.0968 59.6237 73.9101 59.8385 73.7194ZM59.4863 74.8666C59.4321 74.716 59.4211 74.6066 59.4532 74.5384C59.6539 74.4661 59.69 74.5665 59.5616 74.8395L59.4863 74.8666ZM83.2489 37.4852C83.1666 37.5715 83.0773 37.717 82.981 37.9218C82.8846 38.1265 82.7953 38.2721 82.713 38.3584C82.8155 39.1151 82.648 40.2241 82.2105 41.6854C81.8232 43.1286 81.6738 44.2878 81.7622 45.163C81.4611 45.2714 81.2754 45.6217 81.2052 46.2138C81.135 46.8059 80.9584 47.1813 80.6754 47.3399C80.8661 47.5546 80.8832 47.9169 80.7267 48.4268C80.5521 48.8865 80.517 49.1825 80.6214 49.315C80.4287 49.7245 80.217 50.3959 79.9863 51.3293C79.8057 52.2446 79.594 52.916 79.3511 53.3436C79.3793 54.5239 79.1827 55.4733 78.7612 56.1919C78.8837 56.3746 78.8968 56.5683 78.8004 56.773C78.7362 56.9095 78.7312 57.053 78.7854 57.2035C78.4543 58.1731 78.0369 59.7688 77.5333 61.9909C77.0296 64.2129 76.5802 65.8769 76.1848 66.983C76.1829 67.6072 75.9933 68.4974 75.616 69.6536C75.2889 70.7917 75.1244 71.6729 75.1224 72.2972C74.8977 72.7749 74.688 73.5307 74.4933 74.5644C74.3168 75.6483 74.1322 76.395 73.9395 76.8045C74.0118 77.0052 73.9928 77.2672 73.8824 77.5903C73.8403 77.9456 73.8895 78.2397 74.03 78.4725C73.8293 78.5448 73.7149 78.6993 73.6868 78.9362C73.0304 79.0025 72.5437 78.7526 72.2265 78.1866C71.8591 77.6387 71.7196 77.0937 71.8078 76.5518C71.7396 76.5197 71.6663 76.6311 71.5881 76.886C71.556 76.9542 71.5148 76.9974 71.4646 77.0155C71.3101 76.9011 71.293 76.5388 71.4134 75.9286C71.4274 75.8101 71.3913 75.7098 71.3049 75.6275C71.1865 75.6134 71.1183 75.5813 71.1002 75.5311C70.8111 74.7283 70.9575 73.7969 71.5396 72.737C72.1216 71.6772 72.3543 70.8281 72.2379 70.1898C72.9724 68.4515 73.5101 66.2455 73.8511 63.5719L74.2275 63.4364C74.5606 61.8426 74.8164 60.9002 74.995 60.6091L74.8324 60.1575C74.8826 60.1394 74.9237 60.0963 74.9558 60.028C74.9699 59.9096 75.0361 59.8574 75.1545 59.8714C75.1786 59.466 75.3401 58.8126 75.6391 57.9113C75.9201 56.9599 76.0364 56.1811 75.9882 55.5749C76.0886 55.5388 76.1367 55.4364 76.1327 55.2678C76.1608 55.0309 76.2591 54.9105 76.4277 54.9065C76.4216 53.945 76.6835 52.547 77.2132 50.7123C77.743 48.8777 77.9707 47.4635 77.8963 46.47C78.3178 45.7514 78.679 44.6293 78.98 43.1038C79.2629 41.5281 79.5077 40.4763 79.7144 39.9484C79.6602 39.7978 79.6471 39.6041 79.6752 39.3673C79.6852 39.0802 79.6812 38.9116 79.6631 38.8614C80.1949 37.8196 80.6444 36.1556 81.0116 33.8694C81.4108 31.5149 81.8101 29.8689 82.2095 28.9315C82.0288 28.4297 82.1191 27.972 82.4803 27.5585C82.5184 27.0346 82.678 26.297 82.9589 25.3455C83.2719 24.3258 83.4294 23.5038 83.4314 22.8796C83.5318 22.8435 83.614 22.7571 83.6783 22.6206C83.7244 22.434 83.8067 22.3477 83.9251 22.3617C83.9452 21.7876 84.1117 20.9907 84.4247 19.971C84.7378 18.9514 84.9224 18.2047 84.9786 17.7309C85.0468 17.7631 85.097 17.745 85.1291 17.6767C85.2114 17.5904 85.2776 17.5382 85.3278 17.5202C85.2555 17.3194 85.2836 17.0826 85.412 16.8096C85.5405 16.5366 85.5776 16.3248 85.5234 16.1743C82.9424 19.7112 79.8203 22.1392 76.1573 23.4583C76.8699 24.3354 77.1811 25.357 77.0909 26.5232C77.0508 27.6714 76.6946 28.6499 76.0222 29.4589C76.1528 29.9787 75.9461 30.5067 75.4021 31.0426L75.5648 31.4942C75.1794 32.3132 74.2843 32.9757 72.8792 33.4816C71.8395 33.7426 70.8761 33.6644 69.9888 33.247C69.0835 32.7794 68.4843 32.0598 68.1912 31.0884C67.4203 29.8921 67.0599 28.5764 67.11 27.1412C67.16 25.7061 67.5102 24.4746 68.1605 23.4469L68.0249 23.0705C68.1072 22.9842 68.3611 22.666 68.7866 22.116C69.2121 21.566 69.5071 21.2047 69.6717 21.032C69.8363 20.8594 70.1745 20.5392 70.6863 20.0715C71.18 19.5536 71.5453 19.3087 71.7822 19.3368C72.0692 19.3468 72.5068 19.3026 73.0949 19.2042C73.7352 19.8806 74.1277 20.4195 74.2723 20.8209C74.3445 21.0216 74.2964 21.124 74.1278 21.128C74.2141 21.2103 74.3345 21.3087 74.4891 21.4231C74.6436 21.5375 74.73 21.6198 74.748 21.6699C76.2434 21.4149 77.5962 20.8427 78.8065 19.9534C79.9987 19.014 81.2672 17.7353 82.6119 16.1173C83.9385 14.4492 84.8578 13.3813 85.3696 12.9136C85.4699 12.8774 85.502 12.8092 85.4659 12.7088C85.4619 12.5402 85.4759 12.4218 85.508 12.3535C86.6862 11.5325 87.2973 10.6322 87.3414 9.65267C87.4418 9.61653 87.5441 9.6647 87.6485 9.79716C87.795 9.57435 88.0359 9.06249 88.371 8.26158C88.7563 7.4426 89.1045 6.83538 89.4156 6.43994C89.3534 5.95218 89.4808 5.28276 89.7978 4.43167C90.147 3.51234 90.2634 2.73352 90.1469 2.09524C90.2794 1.99085 90.3757 1.78611 90.4359 1.481C90.5463 1.15783 90.6426 0.953083 90.7249 0.866766C91.6864 0.860669 92.2043 1.35441 92.2786 2.34797C93.0956 3.35754 93.5423 4.04699 93.6186 4.41632C93.6407 4.6351 93.5895 4.96529 93.4651 5.40689C93.3728 5.78025 93.3809 6.11746 93.4893 6.41853L93.1129 6.55405C93.0066 7.04583 92.7126 7.80358 92.231 8.82731C91.7814 9.78278 91.5215 10.5566 91.4513 11.1487L91.3279 11.2782C91.2958 11.3465 91.2456 11.3645 91.1774 11.3324C90.9928 12.0791 90.5563 13.2283 89.8679 14.7799C89.2117 16.2633 88.7933 17.4627 88.6127 18.378C88.1732 19.0464 87.7066 20.3481 87.213 22.2832C86.7975 22.5461 86.7052 22.9195 86.9361 23.4032C86.4404 24.5454 85.8835 26.3047 85.2655 28.6813C84.6474 31.0579 84.1478 32.74 83.7665 33.7276C83.897 34.2475 83.8288 34.9239 83.5619 35.757C83.3271 36.5217 83.2228 37.0978 83.2489 37.4852ZM75.0645 25.3823L75.1126 25.2799C75.1628 25.2618 75.213 25.2438 75.2632 25.2257C75.2772 25.1073 75.225 25.041 75.1066 25.027C74.9882 25.013 74.9199 24.9808 74.9018 24.9307C75.0865 24.184 74.703 23.6701 73.7516 23.3892C72.8322 23.04 72.2592 22.7079 72.0323 22.3928C71.4463 23.284 70.9726 23.9364 70.6114 24.3499C70.7098 24.938 70.5252 25.6847 70.0575 26.59C69.622 27.4271 69.4625 28.1647 69.579 28.803C69.5288 28.8211 69.4777 29.1513 69.4255 29.7936C70.0398 30.0826 70.8898 30.0032 71.9757 29.5555C73.4609 28.1704 74.4584 26.8476 74.9681 25.587C75.0364 25.6191 75.0866 25.6011 75.1187 25.5328C75.1508 25.4646 75.1327 25.4144 75.0645 25.3823ZM75.1819 24.9999L75.3324 24.9457L75.2511 24.7199L75.1006 24.7741L75.1819 24.9999ZM82.601 30.4911L82.6973 30.2863C82.6431 30.1358 82.5498 30.1127 82.4173 30.2171C82.4715 30.3676 82.5328 30.459 82.601 30.4911ZM81.993 32.5806L81.8425 32.6348C81.9107 32.667 81.9378 32.7422 81.9238 32.8607C81.8917 32.9289 81.8846 32.9881 81.9027 33.0383L81.8274 33.0654C81.8455 33.1156 81.8224 33.2089 81.7582 33.3454C81.7261 33.4137 81.7532 33.4889 81.8395 33.5712C81.7572 33.6575 81.677 33.8282 81.5987 34.0831C81.5525 34.2698 81.5134 34.3972 81.4813 34.4655C81.7643 34.3069 81.8837 34.0088 81.8395 33.5712C82.0041 33.3986 82.0252 33.2209 81.9027 33.0383C82.0713 33.0343 82.1195 32.9319 82.0472 32.7312C82.0291 32.681 82.0111 32.6308 81.993 32.5806C82.0933 32.5445 82.1164 32.4512 82.0622 32.3006L82.0141 32.403C81.9819 32.4712 81.9749 32.5305 81.993 32.5806ZM81.1051 36.7266C81.5005 35.6206 81.6188 34.9261 81.4602 34.6431C81.4643 34.8117 81.4131 35.1419 81.3068 35.6337C81.1823 36.0753 81.1151 36.4396 81.1051 36.7266ZM80.6958 38.6596C80.5493 38.8824 80.4459 39.1464 80.3858 39.4515C80.3075 39.7064 80.2473 40.0115 80.2052 40.3668C80.1631 40.7221 80.1189 40.9931 80.0728 41.1798C80.3979 40.6659 80.6056 39.8258 80.6958 38.6596C80.8102 38.5051 80.9647 37.9109 81.1593 36.8772C80.7981 37.2907 80.6436 37.8848 80.6958 38.6596ZM81.0904 41.4085C81.0724 41.3583 81.0704 41.274 81.0844 41.1556C81.0984 41.0372 81.0553 40.996 80.9549 41.0322C80.7944 41.3734 80.8395 41.4988 81.0904 41.4085ZM79.0946 45.7834C78.7053 46.4338 78.5738 46.9346 78.7003 47.2858C78.5959 47.1534 78.5367 47.1464 78.5227 47.2648C78.5086 47.3832 78.4765 47.4515 78.4263 47.4695C78.4484 47.6883 78.3742 48.1118 78.2036 48.7401C78.0331 49.3684 78.0271 49.824 78.1857 50.107C78.7495 47.5799 79.0525 46.1387 79.0946 45.7834C79.5361 44.4907 79.8642 43.0405 80.0788 41.4327C79.5972 42.4564 79.2691 43.9066 79.0946 45.7834ZM78.0051 51.0224C78.0613 50.5486 78.005 50.3138 77.8364 50.3178C77.8545 50.368 77.8314 50.4613 77.7672 50.5978C77.7391 50.8347 77.8184 50.9762 78.0051 51.0224ZM78.6886 51.0313L78.7638 51.0042C78.8602 50.7995 78.8331 50.7242 78.6825 50.7784C78.6504 50.8467 78.6524 50.931 78.6886 51.0313ZM77.3971 53.1119C77.0077 53.7623 76.7659 54.5863 76.6717 55.5839C77.0049 55.4072 77.1815 55.0319 77.2015 54.4578C77.2717 53.8657 77.3981 53.5084 77.5808 53.3859C77.6129 53.3177 77.5948 53.2675 77.5266 53.2354C77.4583 53.2033 77.4152 53.1621 77.3971 53.1119C77.6038 52.584 77.7583 51.9899 77.8606 51.3295C77.409 51.4921 77.2545 52.0862 77.3971 53.1119ZM78.165 54.536C78.1469 54.4858 78.1449 54.4015 78.1589 54.2831C78.173 54.1647 78.1709 54.0804 78.1529 54.0302C78.1348 53.98 78.0666 53.9479 77.9481 53.9338C77.9662 53.984 77.9682 54.0683 77.9542 54.1868C77.9221 54.255 77.9241 54.3393 77.9602 54.4397C77.9783 54.4898 78.0465 54.522 78.165 54.536ZM75.2782 61.8676C74.7985 62.2671 74.6901 62.6746 74.9531 63.09C75.21 62.5441 75.3183 62.1366 75.2782 61.8676C75.4929 61.6769 75.6284 61.3447 75.6845 60.871C75.7909 60.3792 75.9263 60.047 76.0909 59.8744C75.9744 59.2361 76.1089 58.5075 76.4942 57.6885C76.4039 57.4376 76.446 57.0823 76.6206 56.6226C76.8453 56.1449 76.8554 55.8579 76.6506 55.7615C76.4479 56.458 76.2102 57.4506 75.9373 58.7393C75.6463 59.9778 75.3905 60.9202 75.1697 61.5665L75.2782 61.8676ZM77.563 56.8785C77.5268 56.7781 77.5318 56.6346 77.578 56.4479C77.6743 56.2432 77.6292 56.1177 77.4425 56.0716C77.4786 56.1719 77.4646 56.2904 77.4004 56.4269C77.3863 56.5453 77.3632 56.6386 77.3311 56.7069C77.3492 56.7571 77.4265 56.8143 77.563 56.8785ZM76.4072 61.4611C76.4212 61.3426 76.4764 61.1811 76.5727 60.9763C76.651 60.7214 76.6881 60.5096 76.6841 60.341C76.7122 60.1042 76.674 59.9195 76.5696 59.787C76.6238 59.9376 76.5797 60.2085 76.4372 60.6C76.2947 60.9914 76.2847 61.2784 76.4072 61.4611ZM73.6438 68.6632L73.5685 68.6903C73.2836 69.4732 73.1722 70.1085 73.2345 70.5962C73.0338 70.6685 72.9284 70.8481 72.9184 71.1352C72.9084 71.4222 72.8281 71.5928 72.6776 71.647C72.7498 71.8478 72.7147 72.1438 72.5723 72.5352C72.4478 72.9768 72.488 73.2458 72.6928 73.3421L73.2345 70.5962C73.2485 70.4778 73.3178 70.1978 73.4422 69.7562C73.5666 69.3146 73.6338 68.9502 73.6438 68.6632C74.4264 66.114 74.8719 64.2813 74.9802 63.1653C74.3138 63.5186 74.2075 64.0104 74.6612 64.6407C74.5427 64.6266 74.4765 64.6788 74.4624 64.7972C74.4484 64.9157 74.3982 64.9337 74.3119 64.8514C74.2879 65.2569 74.1675 65.8671 73.9508 66.6821C73.734 67.497 73.6317 68.1574 73.6438 68.6632ZM75.9918 63.1411C76.0882 62.9364 76.052 62.836 75.8834 62.8401L75.9918 63.1411ZM75.3206 65.7636C75.2022 65.7496 75.1701 65.8178 75.2243 65.9684L75.3206 65.7636C75.3025 65.7135 75.3256 65.6201 75.3898 65.4836C75.4541 65.3471 75.5022 65.2448 75.5343 65.1765C75.5664 65.1083 75.5143 65.042 75.3778 64.9778C75.4139 65.0782 75.3748 65.2056 75.2604 65.3602C75.1961 65.4967 75.2162 65.6312 75.3206 65.7636ZM75.0587 66.4531C74.9945 66.5896 74.9714 66.683 74.9895 66.7332C75.1079 66.7472 75.131 66.6539 75.0587 66.4531ZM74.3725 69.5062L74.2491 69.6357C74.1989 69.6537 74.1828 69.6879 74.2009 69.738L74.3243 69.6086C74.3745 69.5905 74.3906 69.5564 74.3725 69.5062ZM72.479 73.9293C72.3104 73.9333 72.2532 74.0106 72.3074 74.1611C72.3757 74.1932 72.4439 74.2253 72.5122 74.2574C72.4259 74.1752 72.4148 74.0658 72.479 73.9293C72.5111 73.861 72.5342 73.7677 72.5483 73.6493L72.5693 73.4716C72.4509 73.4576 72.3756 73.4847 72.3435 73.5529C72.3797 73.6533 72.4248 73.7787 72.479 73.9293ZM75.0645 25.3823C74.9641 25.4184 74.9049 25.4114 74.8868 25.3612C74.9872 25.3251 75.0464 25.3321 75.0645 25.3823ZM91.752 43.8615C91.5473 43.7651 91.3466 43.8374 91.1499 44.0783C91.0034 44.3011 91.0255 44.5199 91.2162 44.7347C89.2091 46.8745 88.2769 49.1659 88.4196 51.6086C88.5602 51.8415 88.8472 51.8515 89.2807 51.6387C89.6962 51.3757 89.9632 51.2512 90.0816 51.2653C90.3927 50.8698 90.775 50.2787 91.2286 49.4918C91.7143 48.6367 92.0715 48.0545 92.3003 47.7454C93.394 44.8007 93.0978 42.64 91.4116 41.2632C91.3935 41.213 91.3002 41.1899 91.1316 41.1939C91.0132 41.1799 90.9198 41.1568 90.8516 41.1247C90.7833 41.0926 90.7813 41.0083 90.8455 40.8718C91.538 40.9059 92.1683 41.1607 92.7364 41.6364C93.2864 42.0619 93.9177 42.7132 94.6304 43.5903C95.343 44.4674 95.7947 45.0133 95.9854 45.2281C96.4471 46.1955 96.5185 47.4169 96.1994 48.8922L95.0435 51.3492L94.1765 53.1919C94.1123 53.3284 93.9638 53.4669 93.7309 53.6074C93.5302 53.6797 93.3887 53.759 93.3064 53.8453C92.3149 54.7125 91.6345 55.1843 91.2652 55.2606C91.215 55.2786 90.9711 55.3098 90.5336 55.354C90.096 55.3981 89.9043 55.4955 89.9585 55.646C89.5169 55.5216 89.1205 55.5227 88.7692 55.6492C86.4869 54.0335 85.4399 51.5196 85.6283 48.1073C85.7467 48.1213 85.7879 48.0781 85.7518 47.9778C85.7658 47.8593 85.832 47.8072 85.9505 47.8212C85.838 47.3515 85.8922 46.7935 86.1129 46.1472C86.3658 45.4326 86.4972 44.9318 86.5072 44.6447C86.6718 44.4721 87.0722 43.9311 87.7084 43.0218C88.3446 42.1125 89.0049 41.5062 89.6894 41.2031C90.8857 41.8493 91.6445 42.5397 91.9657 43.2743C91.8654 43.3105 91.8172 43.4129 91.8213 43.5815C91.8253 43.7501 91.8022 43.8434 91.752 43.8615Z" fill="#C58A46"/>
</svg>
