<svg width="80" height="67" viewBox="0 0 80 67" fill="none" xmlns="http://www.w3.org/2000/svg">
<path d="M23.6998 1.39209C23.7369 1.36752 23.7776 1.31838 23.8036 1.3254C23.9809 1.34059 24.1596 1.3178 24.3264 1.25872C24.6637 1.20467 24.9969 1.12963 25.3238 1.0341C25.88 0.897223 26.4362 0.714731 26.9849 0.62699C27.4299 0.560307 27.86 0.419928 28.3198 0.391851C28.7795 0.363774 29.1281 0.258474 29.5322 0.20583C29.84 0.167224 30.1477 0.160207 30.4555 0.142659L31.5011 0.086493C31.6754 0.086493 31.8497 0.0865119 32.0239 0.0619444C32.8587 -0.00823587 33.6978 -0.0188041 34.5341 0.0303483C34.7178 0.0432363 34.9001 0.0702255 35.0792 0.111063C35.2967 0.151945 35.5175 0.17543 35.7392 0.18126C36.2249 0.216356 36.707 0.269014 37.1927 0.30411C37.5079 0.328677 37.8267 0.335677 38.1456 0.349716C38.2308 0.344475 38.3163 0.344475 38.4015 0.349716C38.7722 0.40236 39.1653 0.455019 39.5435 0.518193C39.8179 0.560308 40.0885 0.623482 40.3629 0.672617C40.4556 0.672617 40.552 0.672602 40.6484 0.700679C41.1981 0.734851 41.7431 0.818293 42.2762 0.949871C42.5325 0.995363 42.7912 1.02817 43.0511 1.04815C43.4991 1.06219 43.9442 1.12219 44.3785 1.22712C44.4861 1.26924 44.6344 1.22712 44.7493 1.22712C45.1201 1.2903 45.4909 1.35348 45.8839 1.43771C46.1101 1.49036 46.3289 1.5816 46.5551 1.64828L47.7453 1.99925C47.9496 2.08876 48.1695 2.14228 48.3942 2.15719C48.8317 2.1256 49.1728 2.36075 49.5659 2.452C49.9589 2.54325 50.3593 2.66258 50.7524 2.7784C51.2158 2.91527 51.6719 3.06266 52.1354 3.20305C52.7064 3.37502 53.2774 3.55402 53.8559 3.71195C54.2266 3.81022 54.5974 3.86638 54.9459 3.96114C55.2945 4.0559 55.7543 4.20331 56.1584 4.31211C56.748 4.4911 57.3338 4.66306 57.9271 4.84907C58.4202 4.98594 58.9245 5.09475 59.4102 5.23163C59.6957 5.31235 59.9738 5.42466 60.2556 5.51942C60.6894 5.66682 61.1233 5.81071 61.5497 5.96864C61.9761 6.12658 62.4284 6.31961 62.8771 6.47403C63.3969 6.65629 63.8943 6.89166 64.3602 7.17596C64.846 7.46726 65.3243 7.7761 65.8063 8.07091C65.9627 8.14505 66.1127 8.23073 66.2549 8.32713C66.3899 8.41459 66.5326 8.4909 66.6814 8.55524C67.2153 8.9062 67.7678 9.20101 68.3017 9.54145C68.5761 9.71342 68.8208 9.924 69.084 10.117C69.414 10.3592 69.7478 10.5908 70.0741 10.819C70.4004 11.0471 70.697 11.2752 71.001 11.5209C71.341 11.7872 71.6561 12.0807 71.9428 12.3983C72.232 12.7142 72.562 12.9984 72.8401 13.3213C73.2496 13.7489 73.6275 14.2028 73.971 14.6796C74.1638 14.9709 74.4011 15.2376 74.6051 15.5254C74.809 15.8132 75.0166 16.122 75.2206 16.4273C75.4245 16.7327 75.6173 17.031 75.8101 17.3399C75.8425 17.4086 75.8674 17.4804 75.8843 17.5539L76.0734 17.4767C76.0734 17.5891 76.103 17.6803 76.1067 17.7751C76.1122 17.851 76.1122 17.9272 76.1067 18.0032C76.389 18.1995 76.6054 18.4688 76.7297 18.7788C76.941 19.2526 77.1413 19.7299 77.3526 20.2002C77.4399 20.4527 77.5568 20.6953 77.7011 20.9232C77.894 21.2364 78.0376 21.5746 78.1275 21.927C78.2017 22.1165 78.2425 22.3165 78.3129 22.506C78.3584 22.6108 78.4129 22.7117 78.4761 22.8079C78.5066 22.8461 78.5304 22.8888 78.5465 22.9342C78.617 23.2852 78.6763 23.6361 78.743 23.9625C78.8432 24.4925 78.947 25.0154 79.0471 25.5559C79.0722 25.661 79.0883 25.7678 79.0953 25.8753C79.0876 25.9407 79.0606 26.0027 79.0174 26.0543C78.9766 26.0926 78.9502 26.1425 78.9422 26.1964C78.9341 26.2502 78.9449 26.3051 78.9729 26.3526C79.0479 26.5039 79.0931 26.6668 79.1064 26.8334C79.1732 27.0896 79.2251 27.3458 79.2881 27.602C79.3923 27.9163 79.4704 28.2378 79.5217 28.5637C79.57 28.8414 79.57 29.1247 79.5217 29.4025C79.5085 29.5737 79.5261 29.7457 79.5736 29.9114C79.5896 29.9582 79.6008 30.0064 79.607 30.0553C79.607 30.4448 79.696 30.8239 79.7182 31.2064C79.7182 31.3819 79.7553 31.5574 80 31.5574C80 31.6978 79.9778 31.8276 79.974 31.9575C79.9703 32.0873 79.974 32.2312 79.974 32.3716C79.974 32.5682 79.974 32.7647 79.974 32.9612C79.9481 33.4315 79.9221 33.9053 79.8925 34.3651C79.8588 34.5729 79.8489 34.7835 79.8628 34.9933C79.9388 35.7093 79.9574 36.4296 79.9184 37.1482C79.9184 37.5343 79.8851 37.9239 79.8665 38.3134C79.859 38.3458 79.859 38.3793 79.8665 38.4117C80.026 38.7627 79.8925 39.1312 79.9221 39.4892C79.9518 39.8471 79.8999 40.0998 79.9221 40.4122C79.9244 40.7659 79.8871 41.1188 79.8109 41.4651C79.7813 41.6757 79.7256 41.8792 79.7145 42.0968C79.6837 42.3351 79.629 42.5702 79.5514 42.7987C79.5156 42.8923 79.4883 42.9886 79.4698 43.0865C79.4438 43.3673 79.4364 43.6446 79.4142 43.9253C79.4116 43.9826 79.388 44.0372 79.3474 44.0798C79.3252 44.1008 79.2547 44.0798 79.1917 44.0798C79.1287 44.0798 79.1509 44.1535 79.162 44.1815C79.2208 44.4132 79.2131 44.6555 79.1398 44.8835C79.1175 45.0379 79.0693 45.1923 79.036 45.3467C79.0214 45.3937 79.0214 45.4437 79.036 45.4906C79.1176 45.711 79.1176 45.9511 79.036 46.1715C78.861 46.9467 78.6026 47.7029 78.2647 48.4282C78.1595 48.5846 78.115 48.7706 78.1387 48.9546C78.1435 49.0465 78.1176 49.1374 78.0645 49.2144C77.8643 49.6145 77.6603 50.0075 77.4601 50.4076C77.1635 51.0043 76.8693 51.6009 76.5776 52.1975C76.5443 52.2677 76.4924 52.3414 76.5776 52.4292C76.5999 52.4608 76.5776 52.538 76.5554 52.5871C76.3112 53.058 76.0181 53.5048 75.6804 53.9208C75.1909 54.563 74.6941 55.1983 74.1972 55.8441C74.086 55.9915 74.0081 56.1634 73.9043 56.3143C73.8092 56.4528 73.7065 56.5863 73.5965 56.7144C73.3117 57.053 73.0045 57.3741 72.677 57.6761C72.3062 58.027 71.9688 58.378 71.5906 58.729C71.2976 58.9922 70.9714 59.2238 70.6525 59.459C70.3336 59.6941 70.1148 59.8345 69.833 60.0065C69.707 60.0837 69.5883 60.2451 69.3918 60.1188C69.3621 60.0977 69.2769 60.1398 69.2249 60.1714L68.3128 60.747C67.7826 61.098 67.2561 61.4068 66.7296 61.7472C66.5442 61.8666 66.3588 62.014 66.1697 62.1684L66.318 62.3755C66.2745 62.4225 66.2247 62.4638 66.1697 62.4983C65.7989 62.6949 65.4059 62.8844 65.0239 63.0704C64.9535 63.1055 64.8793 63.1265 64.7866 63.1616C64.799 63.1946 64.8028 63.2299 64.798 63.2645C64.7931 63.2992 64.7796 63.3323 64.7586 63.361C64.7377 63.3898 64.7098 63.4135 64.6772 63.43C64.6447 63.4466 64.6085 63.4557 64.5716 63.4564C64.5211 63.4704 64.4743 63.4943 64.4344 63.5266C63.9534 63.8329 63.4356 64.0839 62.8919 64.2742C62.6088 64.3856 62.316 64.4737 62.0168 64.5374C61.7571 64.5964 61.5075 64.6897 61.2753 64.8147C60.9045 64.9726 60.5337 65.106 60.1852 65.2499C59.8366 65.3938 59.5734 65.5026 59.2582 65.6008C59.0061 65.6886 58.7465 65.7517 58.487 65.8254L57.2003 66.1764C56.8854 66.2846 56.5528 66.3393 56.2178 66.3379C55.8145 66.3563 55.4161 66.4295 55.035 66.5555C54.5086 66.6916 53.9638 66.7531 53.4183 66.738C53.0584 66.7007 52.6947 66.7149 52.3393 66.7801C52.0113 66.8235 51.6805 66.8446 51.3493 66.8432C51.0156 66.8818 50.6819 66.8889 50.3482 66.8994C49.881 66.8994 49.4138 66.8994 48.9503 66.9275C48.4869 66.9555 47.9752 66.9626 47.4857 66.9871C46.9342 67.0129 46.3815 67 45.832 66.9485C45.7023 66.9485 45.5688 66.9485 45.439 66.9485L44.8346 66.917C44.8004 66.91 44.765 66.91 44.7308 66.917C44.446 66.9683 44.1547 66.9778 43.8669 66.945C43.7954 66.9517 43.7236 66.9357 43.6629 66.8994C43.5144 66.8128 43.3391 66.7768 43.1661 66.7976C43.1216 66.7976 43.0734 66.8152 43.04 66.7976C42.7492 66.7223 42.4465 66.6974 42.1464 66.7239C41.8609 66.7239 41.5754 66.7239 41.2862 66.7239H40.096H38.9317C38.535 66.7239 38.1345 66.7239 37.734 66.7239C37.4485 66.7239 37.1593 66.6958 36.8701 66.6888C36.5809 66.6818 36.2657 66.6888 35.9654 66.6888C35.7034 66.6647 35.4433 66.6249 35.1867 66.5695C34.6713 66.4677 34.1597 66.3589 33.6517 66.2466C33.3847 66.1869 33.1215 66.1167 32.8582 66.0536C32.7396 66.0255 32.6135 66.0185 32.4874 65.9869C32.1389 65.8921 31.7866 65.7974 31.4418 65.6851C31.097 65.5728 30.7002 65.4253 30.3294 65.299C30.0625 65.2042 29.7881 65.1341 29.5248 65.0288C29.3858 64.9818 29.2384 64.9616 29.091 64.9691C28.7029 64.9182 28.3207 64.8336 27.949 64.7164C27.4892 64.6181 27.0294 64.5093 26.5697 64.4005C26.4436 64.3725 26.3212 64.3233 26.1989 64.2917C25.7987 64.2084 25.4112 64.0775 25.0457 63.9022C24.9803 63.8805 24.9134 63.8629 24.8455 63.8495C24.5859 63.7583 24.3301 63.66 24.0706 63.5653C23.6071 63.3898 23.1436 63.2143 22.6727 63.0669C22.2018 62.9195 21.679 62.8633 21.1895 62.744C20.9708 62.6913 20.752 62.6422 20.537 62.579C20.1031 62.4492 19.6656 62.3263 19.2466 62.1684C18.8276 62.0105 18.4235 61.7964 18.0008 61.642C17.4112 61.4244 16.8106 61.2384 16.2173 61.0348C15.7056 60.8593 15.1976 60.6838 14.686 60.4908C14.4116 60.3925 14.1261 60.3153 13.8554 60.203C13.5847 60.0907 13.3437 59.9503 13.1138 59.8169C12.743 59.6204 12.3722 59.4169 12.0385 59.2098C11.8606 59.1045 11.6937 58.9817 11.5231 58.8588C11.2636 58.6763 10.9966 58.5079 10.7482 58.3113C10.3951 58.0585 10.0674 57.7753 9.76932 57.4655C9.66597 57.3649 9.55438 57.2722 9.43561 57.1882C9.06396 56.8867 8.72036 56.5556 8.40854 56.1985C8.13416 55.8721 7.81527 55.5773 7.54089 55.2474C7.36801 55.0234 7.21071 54.7889 7.06999 54.5455C6.91426 54.2963 6.76224 54.0436 6.61021 53.7874C6.52864 53.654 6.45449 53.5137 6.38033 53.3768C6.24684 53.1241 6.12819 52.8644 5.97987 52.6187C5.77965 52.2677 5.56461 51.9378 5.34584 51.6079C5.12708 51.278 4.86381 50.9411 4.64505 50.6007C4.42628 50.2602 4.27427 49.9444 4.07033 49.6215C3.68572 48.9895 3.36539 48.3244 3.1137 47.635C3.05295 47.4614 2.98112 47.2915 2.89864 47.1261C2.71113 46.6685 2.55629 46.1995 2.43515 45.7223C2.38324 45.5714 2.34247 45.4204 2.30539 45.266C2.2266 44.802 2.2067 44.3307 2.24607 43.8622C2.24607 43.4515 2.24606 43.0409 2.20898 42.6303C2.18306 42.4664 2.14465 42.3046 2.09404 42.146C2.01988 41.8476 1.94942 41.5458 1.87897 41.2475C1.83448 41.0545 1.77886 40.8614 1.74178 40.6649C1.68246 40.3385 1.64169 40.0121 1.57495 39.6892C1.52304 39.4295 1.43403 39.1733 1.371 38.9171C1.30796 38.6609 1.2672 38.3801 1.20416 38.1169C1.16332 37.9051 1.1025 37.6972 1.02246 37.4957C0.859269 37.1031 0.723039 36.701 0.614601 36.2919C0.503365 35.9409 0.362472 35.6215 0.273484 35.2741C0.125858 34.8293 0.0422795 34.3677 0.0250403 33.9018C0.0250403 33.3859 0.0250403 32.8665 0.0250403 32.3471C0.0507344 32.1677 0.0507344 31.9859 0.0250403 31.8066C-0.00834676 31.5807 -0.00834676 31.3515 0.0250403 31.1257C0.0250403 30.8309 0.0250403 30.5361 0.0250403 30.2413C0.0250403 29.9465 0.0547168 29.6832 0.0621325 29.4025C0.0695483 29.1217 0.147413 28.7672 0.177075 28.4443C0.280762 27.7659 0.429374 27.0942 0.622024 26.4333C0.740444 25.9801 0.822243 25.519 0.866733 25.054C0.89664 24.8832 0.946388 24.7161 1.01506 24.5557C1.10405 24.296 1.20045 24.0397 1.29315 23.7835L1.54899 23.057C1.73809 22.5025 1.91977 21.941 2.11999 21.39C2.27572 20.9583 2.4537 20.5371 2.60943 20.109C2.74292 19.758 2.85415 19.3719 2.98022 19.0069C3.10629 18.6419 3.25831 18.2067 3.41775 17.8172C3.55191 17.4762 3.70539 17.1423 3.87752 16.8169C4.05399 16.5128 4.24705 16.2176 4.45594 15.9325C4.73774 15.5359 5.03068 15.1428 5.32731 14.7568C5.48651 14.5494 5.65731 14.3502 5.83899 14.1601C6.31731 13.6583 6.79933 13.1564 7.29618 12.6721C7.79304 12.1877 8.22685 11.6753 8.6755 11.1629C8.87943 10.9313 9.0463 10.6751 9.24281 10.4364C9.35654 10.2962 9.48044 10.1637 9.6136 10.0398C9.95101 9.72747 10.2921 9.42564 10.6333 9.11679C10.8112 8.95535 11.004 8.7939 11.1672 8.62895C11.4305 8.37977 11.6826 8.12356 11.9495 7.8814C12.2165 7.63923 12.4649 7.43566 12.7208 7.21456C13.0434 6.93028 13.3548 6.63547 13.6885 6.36523C13.9518 6.15465 14.2373 5.97215 14.5117 5.76859C14.931 5.49815 15.3696 5.25542 15.8243 5.04212C15.9433 4.9783 16.0672 4.92314 16.1951 4.87715C16.8062 4.61923 17.395 4.31648 17.9563 3.97166C18.2381 3.81373 18.5236 3.64878 18.8091 3.49787C19.013 3.38907 19.2133 3.26974 19.4098 3.1469C19.6063 3.02407 19.7806 2.89772 19.9697 2.79594C20.2449 2.62615 20.5413 2.48938 20.8521 2.38881C21.2229 2.29054 21.564 2.08699 21.9385 1.97819C22.2543 1.8862 22.5588 1.76267 22.847 1.60968C23.0917 1.48334 23.3698 1.45525 23.6108 1.33592C23.6108 1.38155 23.5922 1.43069 23.5811 1.49737L23.7443 1.44823L23.6998 1.39209ZM60.4076 6.03533C60.3798 5.98436 60.3322 5.94561 60.2748 5.92728C60.2173 5.90894 60.1546 5.91246 60.0999 5.93707L60.4114 6.03181C60.441 6.05989 60.4633 6.09851 60.5003 6.11255C60.6746 6.18976 60.8526 6.25644 61.0269 6.33014C61.6535 6.59688 62.2949 6.82851 62.9067 7.13384C63.39 7.34975 63.8463 7.61578 64.2675 7.92702C64.5864 8.18323 64.9164 8.43592 65.2538 8.67106C65.5319 8.8676 65.784 9.09223 66.0844 9.26771C66.3847 9.44319 66.6294 9.65026 66.9075 9.83978C67.1856 10.0293 67.4711 10.2188 67.7566 10.4013C67.9508 10.509 68.1389 10.6261 68.3202 10.7523C68.6354 11.005 68.9728 11.2296 69.2806 11.4998C69.5883 11.7701 69.77 12.0122 70.0518 12.2369C70.1828 12.3467 70.3066 12.4639 70.4226 12.5878L71.7648 13.9074C71.8724 14.0162 71.9836 14.118 72.0837 14.2303C72.3136 14.4971 72.5398 14.7673 72.7623 15.0411C72.9361 15.2468 73.0983 15.4612 73.248 15.6833C73.4482 15.9957 73.6188 16.3221 73.8079 16.645C73.8596 16.7307 73.9018 16.8212 73.9339 16.9152C74.06 17.3223 74.2009 17.7259 74.3047 18.14C74.4176 18.5968 74.5663 19.0449 74.7497 19.4807C74.8461 19.7194 74.9165 19.9686 74.9944 20.2107C75.024 20.309 75.0426 20.4108 75.076 20.5091C75.1427 20.7056 75.2243 20.8986 75.2836 21.0952C75.38 21.4216 75.4579 21.7515 75.5617 22.0779C75.7285 22.6043 75.8917 23.1307 76.0808 23.6467C76.2699 24.1626 76.5406 24.7347 76.726 25.2927C76.9262 25.9011 77.064 26.5264 77.1375 27.1598C77.1783 27.4792 77.2006 27.8021 77.2339 28.1214C77.2784 28.5426 77.3526 28.9638 77.3637 29.3849C77.3822 30.0307 77.3637 30.68 77.3637 31.3257C77.3637 31.8908 77.3637 32.4559 77.3637 33.0209C77.3637 33.586 77.3637 34.0738 77.386 34.5932C77.386 35.3583 77.386 36.1234 77.386 36.8885C77.386 37.2956 77.386 37.7028 77.36 38.1099C77.36 38.4608 77.297 38.7872 77.2673 39.1277C77.2673 39.2365 77.2673 39.3418 77.2673 39.4506C77.2376 39.7383 77.1932 40.0261 77.1635 40.3139C77.0885 40.9499 76.9646 41.5798 76.7927 42.1986C76.6815 42.6198 76.5851 43.0444 76.4924 43.4691C76.433 43.7358 76.4108 44.0131 76.3329 44.2763C76.2551 44.5395 76.129 44.7712 76.0289 45.0203C75.9696 45.1607 75.9213 45.3046 75.8731 45.445C75.7582 45.7609 75.6655 46.0803 75.532 46.3891C75.3018 46.7905 75.1285 47.2188 75.0166 47.6631C74.9959 47.7842 74.9585 47.9022 74.9054 48.014C74.7348 48.4141 74.5346 48.8037 74.3789 49.2108C74.1675 49.7829 73.971 50.3585 73.8042 50.9446C73.6699 51.4006 73.4847 51.8418 73.2517 52.2607C72.8391 52.8698 72.3779 53.4482 71.8724 53.991C71.7071 54.1862 71.5536 54.3901 71.4126 54.6016C71.1677 55.0165 70.8952 55.4162 70.5969 55.7984C70.4411 55.9915 70.2891 56.188 70.1482 56.3881C69.7505 56.9391 69.2878 57.4454 68.7689 57.8972C68.2907 58.3016 67.7867 58.6779 67.2598 59.0238C66.6739 59.4204 66.0733 59.8029 65.454 60.1574C64.8348 60.5119 64.097 60.8944 63.4036 61.2419C62.9698 61.4595 62.5174 61.649 62.0651 61.8385C61.6127 62.028 61.1678 62.1895 60.7228 62.3579C60.5856 62.4106 60.4521 62.4808 60.315 62.5334C59.9108 62.6914 59.5029 62.8387 59.1025 63.0037C58.7947 63.13 58.5092 63.295 58.2015 63.4178C57.5748 63.667 56.9408 63.8916 56.3142 64.1198C55.8442 64.2856 55.3652 64.4274 54.8792 64.5444C54.2971 64.7059 53.7187 64.8743 53.1365 65.0323L51.5866 65.4464C51.2158 65.5482 50.845 65.6605 50.4743 65.7658C50.1292 65.8855 49.7624 65.9392 49.3953 65.9237C49.2989 65.9237 49.1988 65.9237 49.1024 65.9237L47.2299 65.8676C46.9827 65.8676 46.7355 65.8535 46.4883 65.8254C46.2065 65.8009 45.9284 65.7728 45.654 65.7342C45.4192 65.6744 45.18 65.631 44.9384 65.6043C44.4567 65.5878 43.9782 65.5231 43.5109 65.4113C43.1671 65.3431 42.8165 65.3114 42.4653 65.3166C41.7015 65.3166 40.9376 65.3166 40.1701 65.3166C39.714 65.3166 39.258 65.2955 38.7982 65.2885C38.1642 65.2885 37.5338 65.2885 36.8998 65.2674C36.3473 65.2674 35.7874 65.2674 35.2461 65.2674H33.6999C33.5253 65.2692 33.3508 65.2621 33.1771 65.2464C32.9175 65.2218 32.658 65.1832 32.3984 65.1516L32.0276 65.12C32.1874 65.1887 32.3522 65.2461 32.5208 65.292C32.9286 65.4008 33.3328 65.5131 33.7407 65.6114C34.0777 65.7549 34.454 65.7942 34.816 65.7237C34.8514 65.7168 34.888 65.7168 34.9235 65.7237C35.4945 65.8114 36.0618 65.9132 36.6365 65.9834C37.2965 66.0606 37.9639 66.1167 38.6276 66.1659C38.9512 66.1289 39.2793 66.1712 39.5806 66.2887C39.6316 66.3013 39.6852 66.3013 39.7363 66.2887C40.2554 66.2887 40.7745 66.2887 41.2936 66.2887C41.2936 66.2887 41.3121 66.2677 41.327 66.2501L41.2306 66.1834C41.453 66.0536 42.7137 66.0641 43.1142 66.1834C43.1142 66.1834 43.1364 66.2045 43.1512 66.2185L42.951 66.2501C43.0511 66.2817 43.1809 66.3168 43.2328 66.2747C43.37 66.1624 43.5146 66.2045 43.6592 66.1975C44.1338 66.1799 44.6121 66.1413 45.0867 66.1624C45.7097 66.1904 46.3326 66.2712 46.9407 66.3203C47.3115 66.3519 47.6822 66.3624 48.0234 66.38C48.2903 66.222 48.5499 66.3343 48.8094 66.401C48.931 66.4287 49.0553 66.444 49.1802 66.4466C49.2358 66.4466 49.3285 66.4467 49.3508 66.4081C49.4324 66.2747 49.5733 66.3133 49.6808 66.3063C50.1591 66.2852 50.6374 66.3063 51.1157 66.2641C51.565 66.2664 52.0118 66.2012 52.4394 66.0711C52.5731 66.0378 52.7136 66.0378 52.8473 66.0711C52.9122 66.0834 52.979 66.0834 53.0438 66.0711C53.1979 66.0129 53.3644 65.99 53.5296 66.0044C53.6628 66.031 53.8005 66.031 53.9337 66.0044C54.169 66.0067 54.4036 65.9784 54.6308 65.9202C54.9431 65.8521 55.2604 65.8063 55.58 65.7833C55.8173 65.7447 56.0657 65.7518 56.2993 65.6921C56.5922 65.6184 56.8666 65.4885 57.1596 65.4043C57.3746 65.3446 57.5303 65.1762 57.7677 65.1411C57.8706 65.1205 57.9703 65.0874 58.0643 65.0428C58.3406 64.9091 58.6299 64.801 58.9282 64.7199C59.1665 64.6616 59.3941 64.5693 59.6031 64.4462C59.8027 64.303 60.0374 64.21 60.2853 64.1759C60.2853 64.1759 60.3112 64.1549 60.3261 64.1478L61.2605 63.8179C61.3633 63.7876 61.4626 63.7476 61.5571 63.6986C61.6646 63.6389 61.8129 63.66 61.8797 63.5372C62.1021 63.5372 62.2505 63.3582 62.3951 63.2564C62.5397 63.1546 62.7659 63.0493 62.955 62.9265C63.14 62.827 63.3366 62.748 63.5408 62.6913C63.4666 62.4843 63.474 62.4562 63.6224 62.3825C63.8485 62.2737 64.071 62.1614 64.3009 62.0561C64.8052 61.8209 65.3206 61.6034 65.8174 61.3542C66.0658 61.2348 66.3217 61.126 66.559 61.0032C67.1077 60.7049 67.6491 60.396 68.1905 60.0907C68.3017 60.031 68.4129 59.9679 68.5205 59.9012C68.7355 59.7678 68.9432 59.6239 69.1656 59.4976C69.3881 59.3712 69.6069 59.2589 69.8293 59.1466C69.9628 59.0799 70.1 59.0132 70.2298 58.9431C70.4888 58.8222 70.7368 58.6813 70.9714 58.5219C71.2422 58.2895 71.4997 58.0435 71.7426 57.7849C71.8168 57.7112 71.8983 57.641 71.9762 57.5708C72.1245 57.4339 72.2802 57.3041 72.4248 57.1637C72.5989 56.9502 72.7884 56.7485 72.9921 56.56C73.1664 56.4372 73.222 56.209 73.4074 56.0862C73.463 56.0476 73.5706 56.0195 73.578 55.9774C73.6039 55.823 73.7411 55.7528 73.8116 55.6264C73.9562 55.3948 74.1082 55.1702 74.2677 54.9491C74.5717 54.5385 74.9351 54.1629 75.2057 53.7277C75.3244 53.5312 75.4764 53.3487 75.5765 53.1486C75.7137 52.8854 75.825 52.6117 75.9807 52.3555C76.0058 52.3208 76.0223 52.2812 76.0289 52.2397C76.0289 52.2397 75.977 52.2081 75.9696 52.2011C76.0193 52.1333 76.0651 52.063 76.1067 51.9905C76.1401 51.9273 76.1512 51.8501 76.1809 51.7834C76.2396 51.5974 76.3258 51.4202 76.4367 51.257C76.544 51.1162 76.6197 50.9561 76.6592 50.7867C76.7037 50.6498 76.8965 50.5515 76.7964 50.376C76.9447 50.3515 76.9151 50.2286 76.9484 50.1409C77.0263 49.9338 77.1079 49.7303 77.1783 49.5197C77.2488 49.3091 77.4379 49.1406 77.3934 48.8985C77.5454 48.6493 77.5083 48.344 77.664 48.0948C77.6734 48.0626 77.6734 48.0287 77.664 47.9965C77.664 47.9263 77.6381 47.8386 77.664 47.793C77.7361 47.652 77.7717 47.4968 77.7679 47.3402C77.7695 47.2655 77.7858 47.1917 77.8161 47.1226C77.9215 46.8996 77.9914 46.6631 78.0237 46.4207C78.1053 46.1715 78.1757 45.9153 78.2462 45.6626C78.3315 45.3538 78.3834 45.0379 78.4464 44.722C78.4542 44.681 78.4463 44.6387 78.4242 44.6027C78.3811 44.5299 78.356 44.4488 78.3509 44.3655C78.3458 44.2822 78.3607 44.1989 78.3945 44.1219C78.5317 43.455 78.6504 42.7847 78.7208 42.1073C78.7208 41.981 78.7504 41.8511 78.769 41.7213L78.8802 40.7912C78.9099 40.5561 78.9581 40.3245 78.9803 40.0893C79.0026 39.8542 79.1138 39.7032 79.1212 39.4927C79.1287 39.2821 79.1768 39.0364 79.188 38.7907C79.1991 38.5451 79.188 38.2783 79.188 38.0221C79.188 37.7659 79.251 37.5343 79.277 37.2886C79.3073 37.1159 79.3172 36.9405 79.3066 36.7657C79.2981 36.7256 79.2844 36.6868 79.2658 36.6499C79.4105 36.6183 79.2918 36.534 79.3029 36.4779C79.314 36.4217 79.3585 36.3129 79.3289 36.2638C79.2473 36.1269 79.3029 36.0076 79.3289 35.8742C79.3665 35.76 79.3665 35.6376 79.3289 35.5233C79.3005 35.4776 79.2888 35.4243 79.2955 35.3717C79.3022 35.3191 79.327 35.27 79.366 35.232C79.34 35.1758 79.3066 35.1407 79.3066 35.1021C79.3066 35.0635 79.3289 34.9617 79.3066 34.8915C79.2844 34.8214 79.2547 34.8108 79.3066 34.7441C79.3248 34.7123 79.3343 34.6768 79.3343 34.6406C79.3343 34.6044 79.3248 34.5689 79.3066 34.5371C79.1583 34.3932 79.3363 34.2352 79.2658 34.0984C79.3623 34.0492 79.3548 34.0036 79.2658 33.9299C79.1769 33.8562 79.3993 33.8035 79.2658 33.7369C79.2658 33.7369 79.2658 33.6772 79.2658 33.6456C79.2658 33.4561 79.2658 33.2631 79.2658 33.0736C79.2084 32.7565 79.2084 32.4325 79.2658 32.1154C79.2786 32.0694 79.2786 32.0211 79.2658 31.975C79.2251 31.8101 79.1806 31.6451 79.1435 31.4802C79.1064 31.3152 79.1435 31.2029 79.073 31.1292C78.9099 30.9467 78.984 30.7326 78.9358 30.5396C78.858 30.2483 78.8876 29.9254 78.7801 29.6446C78.6742 29.3128 78.6315 28.9658 78.654 28.6198C78.6801 28.3724 78.6801 28.1232 78.654 27.8758C78.6058 27.6757 78.5651 27.4757 78.5317 27.2721C78.5132 27.1458 78.439 27.0264 78.4242 26.9001C78.3797 26.5035 78.2684 26.1175 78.2202 25.7209C78.1824 25.5271 78.1266 25.3368 78.0534 25.1523C77.9546 24.9125 77.9178 24.6538 77.9458 24.3977C77.9725 24.2907 77.9608 24.1784 77.9125 24.0784C77.7604 23.8116 77.8124 23.4958 77.6752 23.2325C77.6084 23.0992 77.6752 22.9202 77.5602 22.8359C77.4453 22.7517 77.5306 22.5622 77.3971 22.485C77.4898 22.299 77.3229 22.134 77.3155 21.9726C77.3081 21.8111 77.2043 21.6672 77.2006 21.4953C77.2006 21.4075 77.0634 21.3128 77.0782 21.2391C77.093 21.1654 77.03 21.0566 77.0152 20.9688C76.9855 20.7863 76.7964 20.6635 76.815 20.4564C76.8025 20.3575 76.7585 20.2644 76.6889 20.1897C76.637 20.1125 76.548 20.0598 76.5999 19.9475C76.4961 19.8879 76.5072 19.772 76.4553 19.6878C76.4034 19.6036 76.3737 19.4527 76.2921 19.4176C76.1401 19.3439 76.2551 19.221 76.192 19.1438C76.1775 19.1143 76.165 19.0838 76.1549 19.0526C76.0697 18.8736 75.9139 18.7262 75.9065 18.5121C75.9065 18.484 75.8361 18.4594 75.8101 18.4454C75.7842 18.4313 75.8694 18.3331 75.8546 18.3015C75.8064 18.2102 75.7285 18.1295 75.6766 18.0383C75.6247 17.947 75.6173 17.8628 75.5654 17.7856C75.5135 17.7084 75.5654 17.5785 75.4134 17.561C75.4134 17.561 75.4134 17.5118 75.4134 17.4908C75.3717 17.3705 75.3209 17.2532 75.2614 17.1398C75.1798 17.0064 75.0723 16.8871 74.9833 16.7608C74.8943 16.6344 74.7868 16.4765 74.6866 16.3326C74.6038 16.1731 74.4977 16.0255 74.3715 15.8939C74.2343 15.7746 74.1824 15.5745 74.0526 15.4447C73.9228 15.3148 73.9265 15.0937 73.7003 15.013C73.7003 15.013 73.6818 14.9849 73.6818 14.9709C73.7152 14.827 73.5743 14.7778 73.5075 14.6901C73.4408 14.6024 73.2962 14.5251 73.2628 14.4234C73.1943 14.2615 73.0769 14.1224 72.9254 14.0233C72.8475 13.9531 72.8994 13.8618 72.8401 13.8407C72.5546 13.7284 72.4693 13.4266 72.2357 13.2687C72.0378 13.1069 71.8654 12.9189 71.724 12.7107C71.535 12.4851 71.3198 12.2803 71.0826 12.1C70.88 11.9493 70.6856 11.7888 70.5005 11.6192C70.3151 11.4402 70.0444 11.3629 69.8924 11.1418C69.8829 11.1338 69.8717 11.1277 69.8596 11.1241C69.8474 11.1204 69.8346 11.1193 69.8219 11.1208C69.7329 11.1418 69.707 11.0717 69.6551 11.026C69.6032 10.9804 69.5216 10.9348 69.4548 10.8856C69.3138 10.7929 69.1788 10.6921 69.0507 10.5838C68.7135 10.2902 68.35 10.0248 67.9643 9.79064C67.7254 9.62462 67.4779 9.47 67.2227 9.32736C66.9632 9.19751 66.7259 9.02904 66.4811 8.88163C66.0696 8.63947 65.6543 8.40434 65.2538 8.15516C64.9832 7.9867 64.7088 7.83576 64.4455 7.65326C64.0939 7.431 63.7215 7.23954 63.3332 7.08121C62.9624 6.90222 62.5508 6.73024 62.1503 6.58634C61.8315 6.45999 61.5015 6.34769 61.1752 6.23538C60.9675 6.16168 60.7562 6.08446 60.5448 6.01427C60.4984 6.01651 60.4524 6.02357 60.4076 6.03533ZM29.0391 64.197C29.2732 64.3483 29.5433 64.4423 29.8252 64.4707C29.9044 64.4766 29.9815 64.4981 30.0514 64.5339C30.5152 64.6951 31.0035 64.784 31.4974 64.7971C31.8459 64.8252 32.1982 64.8533 32.5505 64.8884C32.9027 64.9235 33.1882 64.9761 33.5071 65.0042C33.7096 65.0165 33.9127 65.0165 34.1152 65.0042C34.3619 64.9836 34.61 64.9836 34.8567 65.0042C35.1444 65.0235 35.4331 65.0235 35.7207 65.0042C36.262 65.0217 36.8034 65.0042 37.3447 65.0042C37.7737 64.9878 38.2034 64.996 38.6313 65.0288C38.9684 65.0481 39.3065 65.0481 39.6436 65.0288C40.0811 65.0288 40.5149 65.0288 40.9525 65.0288C41.39 65.0288 41.9165 65.0288 42.3985 65.0288C42.7416 65.0276 43.0845 65.044 43.4256 65.0779C43.6666 65.1025 43.9002 65.1972 44.1412 65.2323C44.512 65.2885 44.8828 65.313 45.2314 65.3622C45.528 65.4043 45.8209 65.4815 46.1212 65.5096C46.7034 65.5622 47.2892 65.5903 47.8714 65.6254H48.1606C48.561 65.6254 48.9652 65.6254 49.3656 65.6254C49.6336 65.6282 49.901 65.6023 50.1628 65.5482C50.8562 65.3692 51.5384 65.1726 52.2318 64.9937C52.4135 64.948 52.6026 64.9059 52.7806 64.8533C53.0438 64.7796 53.3034 64.6918 53.5666 64.6216C53.9374 64.5163 54.3379 64.4216 54.7235 64.3163C54.9089 64.2601 55.1239 64.2777 55.2797 64.1303C55.5133 64.1724 55.6987 64.032 55.9026 63.9653C56.1065 63.8987 56.303 63.7864 56.5107 63.7091C56.9037 63.5617 57.3042 63.4284 57.7009 63.281C57.9584 63.2034 58.2069 63.101 58.4425 62.9756C58.6578 62.8486 58.8849 62.7405 59.121 62.6527C59.4584 62.5229 59.807 62.4141 60.1555 62.3018C60.2111 62.2807 60.2779 62.3018 60.2853 62.207C60.2853 62.1824 60.3446 62.1579 60.3854 62.1438C60.5652 62.0905 60.7411 62.026 60.9119 61.9508C61.2442 61.7975 61.5904 61.673 61.9464 61.5788C62.0576 61.5437 62.2022 61.5367 62.2727 61.463C62.4284 61.305 62.6843 61.3331 62.8215 61.1647C63.1923 61.0629 63.5037 60.8137 63.8634 60.6909C64.1226 60.5812 64.3708 60.4497 64.605 60.2978C64.6532 60.2697 64.6865 60.217 64.7347 60.1925C64.8904 60.1153 65.0573 60.0556 65.2093 59.9714C65.48 59.824 65.7395 59.6695 66.0028 59.5116C66.0881 59.459 66.1548 59.3818 66.2401 59.3291C66.3254 59.2765 66.4922 59.1957 66.6109 59.115C66.7799 58.9634 66.9665 58.8303 67.1671 58.7184C67.4767 58.553 67.7675 58.3578 68.0347 58.1358C68.317 57.9292 68.5744 57.6938 68.8023 57.4339C69.2337 57.0139 69.6246 56.5581 69.9702 56.0722C70.1556 55.8125 70.3707 55.5738 70.5672 55.3211C70.6747 55.1807 70.7711 55.0368 70.8675 54.8894C70.9639 54.742 71.0826 54.5385 71.2012 54.3525C71.3077 54.17 71.4318 53.9973 71.572 53.8365C71.7611 53.6365 71.8872 53.3733 72.0948 53.1943C72.3572 52.9369 72.5908 52.6547 72.7919 52.352C72.9535 52.1216 73.089 51.8757 73.1961 51.6185C73.2925 51.4079 73.3629 51.1868 73.4408 50.9657C73.489 50.8288 73.5187 50.6884 73.5631 50.5515C73.6818 50.2006 73.8301 49.8496 73.9339 49.4986C74.088 49.0039 74.2865 48.5225 74.5272 48.0597C74.6184 47.9025 74.6799 47.7315 74.7089 47.5543C74.7253 47.4052 74.7627 47.2588 74.8201 47.1191C74.9573 46.7681 75.139 46.4172 75.3096 46.0662C75.4346 45.8322 75.5292 45.5847 75.5914 45.3292C75.642 45.1362 75.7051 44.9463 75.7804 44.7606C75.8186 44.6599 75.8632 44.5615 75.9139 44.4658C76.1846 43.9534 76.1401 43.3778 76.2847 42.8373C76.3589 42.5636 76.3923 42.2793 76.4849 42.0126C76.6001 41.6683 76.6881 41.3163 76.7482 40.9597C76.7705 40.8521 76.789 40.7433 76.8038 40.6333C76.8594 40.2262 76.9299 39.8191 76.9596 39.412C76.9721 38.9424 77.0104 38.4738 77.0745 38.0081C77.0948 37.9027 77.1059 37.7959 77.1079 37.6887C77.1079 37.3869 77.1079 37.0886 77.1079 36.7902C77.1079 36.4919 77.1079 36.2603 77.1079 35.9971C77.1079 35.7338 77.1079 35.5759 77.1079 35.3618C77.1079 35.2495 77.0856 35.1337 77.0893 35.0109C77.0893 34.7231 77.1153 34.4353 77.1116 34.151C77.1116 33.7228 77.1116 33.2947 77.093 32.8665C77.093 32.5155 77.093 32.1996 77.093 31.8697C77.093 31.6943 77.0745 31.5188 77.0745 31.3433C77.0745 30.9923 77.0745 30.6414 77.0745 30.2904C77.0745 30.143 77.0745 29.9991 77.0745 29.8552C77.0745 29.585 77.0745 29.3147 77.0745 29.0445C77.0745 28.8655 77.0152 28.6935 76.9966 28.5145C76.9633 28.1074 76.9484 27.7003 76.9039 27.2932C76.878 27.051 76.8187 26.8088 76.7705 26.5667C76.6815 26.1561 76.6147 25.7384 76.4961 25.3348C76.3685 24.9256 76.2162 24.5237 76.04 24.131C75.888 23.78 75.7656 23.408 75.6062 23.0535C75.5339 22.9154 75.4851 22.7673 75.4616 22.6148C75.4293 22.4544 75.386 22.2961 75.3318 22.141C75.3318 22.0779 75.2725 22.0182 75.2614 21.955C75.1687 21.3654 74.8906 20.8249 74.7645 20.2493C74.7422 20.1616 74.7274 20.0739 74.6978 19.9896C74.5717 19.6632 74.4382 19.3404 74.327 19.014C74.2454 18.7929 74.1601 18.5753 74.0971 18.3506C74.034 18.126 74.0081 17.8698 73.9451 17.6487C73.8963 17.4074 73.8192 17.1719 73.7152 16.9468C73.5335 16.5958 73.3444 16.2448 73.1516 15.9255C72.9516 15.6146 72.735 15.3135 72.5027 15.0235C72.3655 14.8445 72.1875 14.6936 72.0652 14.5076C71.936 14.3218 71.7841 14.151 71.6128 13.9987C71.2791 13.6969 70.9491 13.3915 70.6265 13.0792C70.1445 12.6124 69.6699 12.1386 69.1879 11.6753C68.8793 11.3609 68.5277 11.087 68.1423 10.8611C67.9492 10.7536 67.7623 10.6364 67.5824 10.5101C67.0595 10.1591 66.5516 9.7731 66.0214 9.42564C65.7025 9.21507 65.4021 8.98693 65.0981 8.75881C64.794 8.53068 64.4121 8.26745 64.0821 8.00774C63.666 7.72768 63.2168 7.49448 62.7436 7.31284C62.3728 7.13736 62.002 7.0075 61.6053 6.85308C61.3012 6.73375 60.9972 6.6074 60.6968 6.48106C60.5782 6.43192 60.4595 6.37576 60.3261 6.31961C60.2062 6.25322 60.0824 6.19345 59.9553 6.14061C59.1803 5.88441 58.4017 5.63875 57.6268 5.38605C57.1262 5.22812 56.6219 5.07721 56.1436 4.90875C55.9545 4.84557 55.7728 4.72974 55.606 4.65604C55.0424 4.42792 54.4565 4.25594 53.8744 4.08046C53.3887 3.93305 52.8918 3.82777 52.3912 3.69089C52.0205 3.58911 51.6497 3.46979 51.2789 3.33993L49.944 2.93634C49.6363 2.84508 49.3285 2.75032 49.0171 2.67311C48.4424 2.53273 47.8565 2.44146 47.2966 2.26247C46.8257 2.11507 46.3585 1.95363 45.8802 1.82728C45.0438 1.61792 44.1885 1.48279 43.3255 1.42366C43.2303 1.42591 43.1357 1.43889 43.0437 1.46228C42.9782 1.42748 42.9085 1.40036 42.8361 1.38155C42.6655 1.34996 42.4949 1.33243 42.3207 1.31137C42.0553 1.29962 41.7918 1.26198 41.5346 1.19906C41.2973 1.11483 41.0563 1.09376 40.8227 1.03059C40.611 0.970999 40.3855 0.970999 40.1738 1.03059C40.081 1.0574 39.9852 1.0739 39.8883 1.07973C39.5673 1.09905 39.2453 1.09905 38.9243 1.07973C38.7487 1.08625 38.5751 1.11699 38.4089 1.17098C38.3618 1.1882 38.3134 1.20227 38.2643 1.21309C38.1234 1.21309 37.9825 1.21309 37.8453 1.21309C37.5308 1.20653 37.2162 1.21942 36.9035 1.25169C36.414 1.31838 35.932 1.4342 35.4463 1.51843C35.1053 1.58867 34.7597 1.63676 34.4118 1.66234C33.9594 1.68339 33.5071 1.66234 33.051 1.70796C32.5245 1.76763 31.9906 1.7641 31.4566 1.7992C31.0842 1.81406 30.7128 1.84805 30.3443 1.90099C29.958 1.96055 29.5676 1.99221 29.1763 1.99573C28.9122 1.99374 28.6487 2.01845 28.3902 2.06944C27.9638 2.1607 27.5448 2.273 27.1296 2.39584C26.7823 2.48549 26.4436 2.6029 26.1173 2.7468C25.6909 2.96089 25.2942 3.22762 24.8789 3.44873C24.7454 3.52594 24.5934 3.57858 24.4673 3.66632C23.9245 4.04702 23.3388 4.36954 22.7209 4.62796C22.4836 4.72974 22.25 4.84908 22.0127 4.94384C21.59 5.1123 21.1673 5.29479 20.7409 5.42114C20.3145 5.54749 19.9548 5.6598 19.5618 5.7721C19.0609 5.9546 18.5902 6.20397 18.1639 6.51263C17.6403 6.89169 17.1572 7.3184 16.7216 7.78663C16.3879 8.10952 16.0356 8.41135 15.7019 8.73423C15.3682 9.05712 15.1272 9.28875 14.8602 9.58356C14.6711 9.79063 14.5228 10.0258 14.356 10.2504C14.0964 10.6014 13.8257 10.9348 13.5884 11.3033C13.2241 11.8634 12.8164 12.3972 12.3685 12.9002C11.9087 13.4489 11.5028 14.0363 11.1561 14.655C10.9781 14.9498 10.8186 15.2586 10.6444 15.557C10.5517 15.7184 10.4553 15.8763 10.3552 16.0343C10.0734 16.4788 9.78909 16.9234 9.50234 17.3679C9.30212 17.6803 9.08708 17.9856 8.89056 18.298C8.54573 18.8525 8.20832 19.407 7.87832 19.9686C7.70405 20.2669 7.55573 20.5757 7.4037 20.8846C7.25168 21.1934 7.13674 21.4461 7.01067 21.7269C6.84382 22.1059 6.66213 22.478 6.52494 22.8605C6.45651 23.1066 6.40327 23.3562 6.3655 23.6081C6.25798 24.0608 6.13561 24.51 6.03179 24.9628C5.99471 25.1312 5.99471 25.3138 5.96505 25.4822C5.94244 25.6007 5.91273 25.7179 5.87606 25.8332C5.85011 25.9104 5.80933 25.9841 5.78708 26.0648C5.75194 26.2638 5.69219 26.4581 5.60909 26.6439C5.50525 26.8397 5.4447 27.0534 5.43111 27.2721C5.43111 27.2721 5.43111 27.3002 5.40516 27.3177L5.30135 27.2967C5.30135 27.4336 5.40517 27.5494 5.34955 27.6968C5.25315 27.953 5.20123 28.2197 5.10482 28.4759C5.03377 28.5994 4.97779 28.7301 4.93796 28.8655C4.84063 29.3288 4.77624 29.7978 4.74517 30.2693C4.74517 30.6659 4.69324 31.0625 4.65987 31.4591C4.61538 31.9715 4.55978 32.4804 4.51528 32.9928C4.51528 33.1227 4.53753 33.256 4.53382 33.3859C4.53382 33.7825 4.49303 34.1791 4.48933 34.5757C4.48933 35.1232 4.48933 35.6707 4.48933 36.2217C4.48933 36.6499 4.51528 37.0815 4.53753 37.5132C4.53753 37.7519 4.58201 37.9905 4.61167 38.2152C4.6641 38.477 4.69633 38.7421 4.70808 39.0083C4.69858 39.0405 4.69858 39.0745 4.70808 39.1066C4.79061 39.3253 4.84416 39.5528 4.86751 39.784C5.001 40.335 5.03438 40.907 5.17898 41.4616C5.24202 41.7072 5.331 41.9459 5.3792 42.1951C5.45774 42.5065 5.56188 42.8116 5.69067 43.1076C5.80932 43.427 5.92427 43.7464 6.06146 44.0622C6.15045 44.2903 6.2691 44.5079 6.3655 44.7325C6.46191 44.9572 6.52864 45.1888 6.63617 45.4064C6.95167 46.005 7.35213 46.56 7.8264 47.0559C7.96799 47.1916 8.11778 47.3193 8.27504 47.4385C8.29833 47.4629 8.32975 47.479 8.36405 47.4841C8.50495 47.4841 8.57909 47.5894 8.67179 47.6666C8.76448 47.7438 8.90169 47.8491 9.01293 47.9439C9.05433 47.9748 9.09056 48.0115 9.12045 48.0527C9.33921 48.4317 9.55057 48.8178 9.77675 49.1968C9.92127 49.4381 10.0784 49.6723 10.2476 49.8987C10.4367 50.1585 10.6444 50.4041 10.852 50.6498C11.0543 50.9112 11.2774 51.1576 11.5194 51.3868C11.8494 51.6746 12.2239 51.9203 12.5799 52.18C12.8172 52.352 13.0545 52.5309 13.2881 52.6889C13.6589 52.9556 13.911 53.3382 14.33 53.5452C14.3577 53.5656 14.3837 53.5879 14.4079 53.6119C14.5028 53.7169 14.6126 53.809 14.7342 53.8857C14.8646 53.9535 14.9793 54.0454 15.0716 54.1559C15.1754 54.2682 15.2607 54.3946 15.3682 54.5069C15.4757 54.6192 15.6537 54.7666 15.7761 54.914C16.0282 55.2123 16.2655 55.5247 16.5176 55.8335C16.6326 55.9739 16.7327 56.1248 16.855 56.2617C16.9774 56.3986 17.1962 56.6127 17.363 56.7846C17.9576 57.4404 18.606 58.0506 19.3023 58.6096C19.6015 58.8801 19.9339 59.1158 20.2922 59.3116C20.689 59.487 21.0338 59.7397 21.4269 59.9503C21.8199 60.1609 22.0831 60.3013 22.4168 60.4732C22.5615 60.5469 22.7246 60.5891 22.8692 60.6663C23.3327 60.9225 23.7925 61.1787 24.2448 61.4489C24.5023 61.5668 24.7329 61.7313 24.9234 61.9333C24.9438 61.9589 24.9705 61.9794 25.0012 61.9929C25.3016 62.1649 25.6019 62.3439 25.8985 62.5018C26.1247 62.6317 26.3435 62.7686 26.566 62.9054C26.7884 63.0423 27.0851 63.2564 27.3557 63.4003C27.6264 63.5442 27.9305 63.7091 28.2197 63.8565C28.2629 63.885 28.3157 63.8975 28.368 63.8916C28.4767 63.8764 28.5877 63.8835 28.6933 63.9126C28.7989 63.9417 28.8966 63.992 28.9798 64.0601L28.7721 64.1092C28.8611 64.2426 28.9723 64.4076 29.0391 64.197ZM39.3062 0.739301L39.2209 0.704192C38.9561 0.643423 38.685 0.610478 38.4126 0.605933C38.059 0.551592 37.7025 0.516443 37.3447 0.500649H37.189L35.6169 0.370772C35.4851 0.377557 35.353 0.368135 35.2238 0.342711C34.7266 0.214854 34.2105 0.165043 33.6962 0.195291C33.4737 0.195291 33.2512 0.195291 33.0288 0.195291C32.6876 0.195291 32.3465 0.1953 32.0054 0.226887C31.464 0.254964 30.9264 0.286561 30.385 0.325167C30.0143 0.349734 29.6435 0.388333 29.2727 0.426939C29.1763 0.426939 29.0836 0.472554 28.9909 0.483083C28.6646 0.521689 28.3383 0.532221 28.0194 0.595394C27.2222 0.753328 26.4325 0.946369 25.639 1.11132C25.3238 1.18151 25.0198 1.28679 24.7009 1.33943C24.4435 1.35145 24.1956 1.43575 23.989 1.5816C23.9565 1.5954 23.923 1.60714 23.8889 1.61671C23.4625 1.78868 23.0324 1.96768 22.6097 2.14667C22.3774 2.27223 22.1278 2.36671 21.8681 2.42743C21.1522 2.5333 20.474 2.80184 19.8918 3.21008C19.7055 3.33644 19.5124 3.45359 19.3134 3.56104C18.798 3.85936 18.2789 4.15768 17.7561 4.44547C17.4149 4.63148 17.0627 4.79644 16.7067 4.97543C16.2396 5.20005 15.7538 5.40009 15.2866 5.62822C14.8024 5.88562 14.354 6.19923 13.9518 6.56177C13.251 7.16543 12.5576 7.77963 11.868 8.39732C11.4008 8.81848 10.9484 9.24664 10.4886 9.67481C10.1809 9.9591 9.85459 10.2329 9.57279 10.5382C9.17976 10.9734 8.83122 11.4472 8.46043 11.8824C8.08965 12.3176 7.61505 12.8195 7.16639 13.2617C6.66954 13.7565 6.1801 14.2549 5.73145 14.7919C5.02183 15.5995 4.42261 16.4886 3.94797 17.4381C3.68962 17.9771 3.47276 18.5331 3.29909 19.1017C3.07291 19.8457 2.75032 20.5582 2.5056 21.2952C2.34987 21.755 2.18674 22.2112 2.0273 22.6675C1.93831 22.9272 1.85303 23.1904 1.75663 23.4501C1.48355 24.0893 1.27256 24.7507 1.12629 25.4261C1.02618 25.9806 0.937193 26.5421 0.785171 27.0861C0.654871 27.5577 0.552125 28.0357 0.477412 28.518C0.388423 29.0971 0.332793 29.6797 0.30313 30.2729C0.30313 30.7467 0.30313 31.2205 0.30313 31.6767C0.30313 32.2347 0.30313 32.7893 0.30313 33.3473C0.291347 33.7302 0.303742 34.1134 0.340222 34.495C0.407144 34.9747 0.53154 35.4457 0.711009 35.8988C0.811121 36.155 0.87786 36.4217 0.963141 36.6814C1.02757 36.9135 1.10555 37.142 1.19674 37.3658C1.34785 37.6909 1.44898 38.0349 1.49707 38.3871C1.51186 38.5805 1.55171 38.7715 1.61573 38.9557C1.71943 39.2088 1.79643 39.4709 1.84562 39.7383C1.84562 39.8331 1.84561 39.9314 1.86415 40.0261C1.90864 40.2437 1.97168 40.4613 2.00134 40.6789C2.031 40.8965 2.18304 41.0931 2.13113 41.3247C2.25349 41.4124 2.13111 41.5423 2.20156 41.6476C2.33875 41.9319 2.31651 42.2618 2.46482 42.5496C2.51502 42.6797 2.53526 42.8185 2.52416 42.9567C2.52416 43.5112 2.52416 44.0657 2.52416 44.6202C2.51267 44.8183 2.53139 45.0169 2.57977 45.2099C2.65186 45.5726 2.76885 45.926 2.92831 46.2627C2.95055 46.2943 2.9283 46.3435 2.95055 46.3821C2.99505 46.5505 3.02841 46.733 3.08774 46.8769C3.14707 47.0208 3.27685 47.27 3.35101 47.4736C3.51816 47.9478 3.72139 48.4099 3.9591 48.8564L4.45223 49.7267C4.55976 49.9128 4.65989 50.1023 4.76742 50.2883C5.11595 50.899 5.59798 51.4289 5.92798 52.0431C6.09854 52.3695 6.29876 52.6784 6.50269 52.9977C6.56202 53.096 6.63247 53.1873 6.68809 53.289C6.74371 53.3908 6.83269 53.5909 6.91797 53.7348C7.00325 53.8787 7.17752 54.1068 7.28876 54.3033C7.4524 54.6397 7.66317 54.9537 7.91539 55.2369C8.06 55.3948 8.1972 55.5598 8.3418 55.7212C8.61248 56.016 8.87572 56.3214 9.16123 56.6056C9.35774 56.8057 9.59134 56.9566 9.79157 57.1637C10.2388 57.5865 10.7144 57.9816 11.2154 58.3464C11.4527 58.5219 11.7085 58.6763 11.957 58.8343C12.2054 58.9922 12.4835 59.1571 12.7504 59.3151C12.9581 59.4379 13.1694 59.5537 13.3845 59.666C13.5995 59.7783 13.9073 59.9608 14.1817 60.0802C14.4561 60.1995 14.7008 60.2592 14.9603 60.3504C15.2792 60.4627 15.5944 60.5891 15.9133 60.7014C16.4954 60.9014 17.0849 61.0839 17.6671 61.284C18.0898 61.4314 18.5162 61.5753 18.924 61.7508C19.3211 61.94 19.7326 62.1007 20.1551 62.2316C20.6687 62.4025 21.1973 62.5306 21.7346 62.6141C21.9677 62.6386 22.1983 62.6809 22.4243 62.7405C23.0546 62.9184 23.6736 63.1305 24.2782 63.3757C24.8381 63.5828 25.3906 63.7864 25.9653 63.9759C26.2545 64.0741 26.5585 64.1303 26.8515 64.2216C27.3061 64.3743 27.7775 64.4779 28.2567 64.5304C28.2345 64.4988 28.2234 64.4672 28.2048 64.4637C27.9861 64.4111 27.834 64.2251 27.6153 64.1724C27.3965 64.1198 27.2445 63.9478 27.048 63.8214C26.629 63.5793 26.2063 63.3371 25.7799 63.1195C25.643 63.0357 25.4961 62.9674 25.3424 62.916C25.194 62.8703 25.0643 62.7931 24.9159 62.744C24.7676 62.6949 24.6786 62.551 24.5452 62.5334C24.2879 62.4706 24.0461 62.3609 23.8333 62.2105C23.2474 61.8982 22.7209 61.5086 22.1647 61.1576C21.8755 60.9681 21.6011 60.7611 21.2971 60.5996C21.0561 60.4698 20.8262 60.3294 20.6 60.1855C20.4591 60.0942 20.3405 59.9714 20.207 59.8661C20.0619 59.7715 19.9231 59.6683 19.7917 59.5572C19.5657 59.3674 19.3279 59.1904 19.0798 59.0273C18.8721 58.8588 18.6904 58.6763 18.4791 58.4973C18.3456 58.3921 18.2529 58.2587 18.1306 58.1464C17.934 57.9674 17.7301 57.7954 17.5447 57.6094C17.3629 57.4723 17.216 57.2984 17.1146 57.1005C17.1034 57.0783 17.0853 57.0599 17.0627 57.0479C16.7818 56.8249 16.5391 56.5621 16.3434 56.2687C16.1691 56.0652 15.9948 55.8616 15.8354 55.6475C15.6759 55.4334 15.5499 55.3352 15.4312 55.1562C15.3519 55.0472 15.2557 54.9501 15.1457 54.8684C15.0271 54.7561 14.8936 54.6578 14.7749 54.5525C14.6563 54.4472 14.4894 54.2261 14.2707 54.177C14.0403 54.1253 13.8305 54.012 13.6663 53.8506C13.6262 53.8046 13.5771 53.7665 13.5217 53.7383C13.2325 53.6365 13.0656 53.3873 12.7801 53.2434C12.582 53.1217 12.4086 52.9671 12.2684 52.7872C12.0995 52.5968 11.9051 52.428 11.69 52.2853C11.5985 52.2222 11.5151 52.1492 11.4416 52.0677C11.271 51.9062 11.1042 51.7413 10.9521 51.5904L10.7519 51.6746C10.6333 51.4851 10.522 51.3061 10.4071 51.1306C10.3166 50.9614 10.2099 50.8004 10.0882 50.6498C9.86652 50.4428 9.6779 50.2063 9.5283 49.9479C9.31488 49.629 9.0663 49.3326 8.78673 49.0634C8.59143 48.8215 8.37433 48.596 8.13785 48.3896C7.90154 48.1749 7.68681 47.9399 7.4964 47.6877C7.27393 47.4139 7.08112 47.1261 6.87348 46.8454C6.8364 46.7962 6.73259 46.733 6.74 46.712C6.81787 46.5611 6.67324 46.4768 6.62875 46.361C6.58425 46.2452 6.5509 46.0873 6.50269 45.9539C6.43716 45.8124 6.38141 45.667 6.33584 45.5187C6.31448 45.4483 6.27644 45.3835 6.2246 45.3292C6.05282 45.0824 5.91805 44.8143 5.82415 44.5325C5.81882 44.5215 5.81607 44.5095 5.81607 44.4974C5.81607 44.4853 5.81882 44.4733 5.82415 44.4623C5.88718 44.3746 5.79077 44.329 5.77223 44.2623C5.75369 44.1956 5.56831 44.1289 5.62393 43.9885C5.4682 43.9394 5.60169 43.7955 5.53495 43.7358C5.44806 43.646 5.39579 43.5309 5.38662 43.4094C5.34584 43.1988 5.28651 42.9883 5.22719 42.7777C5.18236 42.6054 5.1279 42.4356 5.06404 42.2688C5.00778 42.1826 4.98061 42.0822 4.98617 41.981C4.98617 41.8617 4.87123 41.7564 4.88236 41.63C4.88236 41.63 4.82674 41.602 4.8082 41.5949C4.82739 41.518 4.83488 41.4388 4.83044 41.3598C4.78464 41.2063 4.75607 41.0487 4.74517 40.8895C4.74517 40.6263 4.60056 40.3806 4.60427 40.1069C4.59938 39.988 4.57945 39.8702 4.54493 39.7559C4.54493 39.6962 4.47078 39.6471 4.45966 39.5874C4.44304 39.4886 4.43189 39.389 4.42628 39.2891C4.42146 39.2283 4.40903 39.1682 4.38921 39.1101C4.35954 39.0399 4.2928 38.9732 4.38921 38.9066C4.32179 38.6411 4.28941 38.3688 4.2928 38.0958C4.2928 38.0713 4.27055 38.0502 4.26684 38.0256C4.26313 38.0011 4.07774 37.9414 4.22606 37.8361C4.26314 37.808 4.13336 37.7133 4.22606 37.6255C4.31876 37.5378 4.27426 37.4606 4.22606 37.4395C4.08145 37.3343 4.19639 37.2184 4.19639 37.1131C4.21392 37.0074 4.19979 36.8992 4.15561 36.8008C4.11482 36.7271 4.15561 36.6042 4.15561 36.5025C4.15561 36.4007 4.11483 36.3235 4.11854 36.2357C4.12634 36.1389 4.14121 36.0428 4.16303 35.9479C4.17262 35.8791 4.17137 35.8093 4.15932 35.7409C4.15932 35.5408 4.12225 35.3373 4.11854 35.1372C4.13219 34.9462 4.12348 34.7544 4.09258 34.5652C4.09099 34.4532 4.10216 34.3414 4.12594 34.2317C4.12594 34.0282 4.12594 33.8281 4.12594 33.6281C4.12594 33.4877 4.16303 33.3508 4.16674 33.2139C4.17045 33.0771 4.16674 32.9507 4.18899 32.8173C4.18899 32.498 4.24831 32.1786 4.28169 31.8557C4.27897 31.7533 4.28768 31.651 4.30764 31.5504C4.35822 31.3043 4.37565 31.0531 4.35954 30.8028C4.35278 30.5588 4.36644 30.3147 4.40034 30.0728C4.42735 29.8762 4.43973 29.678 4.43741 29.4797C4.47154 29.1033 4.53726 28.7301 4.63394 28.3636C4.74147 28.0126 4.75628 27.6617 4.89718 27.3107C4.95886 27.1221 5.00718 26.9299 5.04179 26.7352C5.14017 26.3836 5.20348 26.024 5.2309 25.6612C5.2309 25.6156 5.23089 25.5419 5.26797 25.5278C5.38662 25.4612 5.38293 25.3559 5.39776 25.2506C5.41983 25.0627 5.47235 24.8793 5.55348 24.7066C5.63503 24.5066 5.70557 24.3028 5.76483 24.0959C5.79449 23.9976 5.80191 23.8924 5.83528 23.7941C5.85107 23.6821 5.89423 23.5751 5.96134 23.4817C6.05774 23.387 5.991 23.2887 6.02808 23.1974C6.16156 22.8781 6.29505 22.5517 6.42482 22.2288C6.45461 22.1068 6.50071 21.9888 6.56201 21.8778C6.72395 21.6059 6.86762 21.3245 6.99213 21.0355C7.08112 20.8881 7.0218 20.66 7.24798 20.5828C7.24798 20.5828 7.24797 20.5547 7.26651 20.5371L7.20717 20.4915C7.28133 20.3827 7.35549 20.2809 7.41853 20.1721C7.4846 20.0162 7.56919 19.8678 7.67066 19.7299C7.75223 19.6422 7.82268 19.5966 7.76335 19.5264C7.83672 19.4523 7.90486 19.3738 7.96731 19.2912C8.00767 19.1688 8.06239 19.0511 8.13045 18.9403C8.3143 18.6991 8.46855 18.4388 8.59022 18.1646C8.60876 18.133 8.61989 18.1015 8.64214 18.0699C8.7163 17.9681 8.78674 17.8698 8.8646 17.7715L9.26135 17.2521C9.26135 17.2521 9.26135 17.1749 9.26135 17.1082C9.26135 17.0415 9.26135 17.024 9.26135 17.017C9.46899 16.9222 9.50236 16.7046 9.63213 16.5607C9.69517 16.487 9.63212 16.3396 9.80268 16.3185C9.86201 16.3185 9.84719 16.1536 9.95472 16.1115C9.97784 16.0997 9.99744 16.0826 10.0117 16.0618C10.026 16.0409 10.0344 16.0169 10.0363 15.9922C10.0363 15.8658 10.1179 15.8026 10.1846 15.7184C10.2513 15.6342 10.2773 15.6412 10.2773 15.6061C10.2773 15.392 10.5887 15.3183 10.4998 15.0832C10.4998 15.0832 10.5257 15.0586 10.5406 15.0516C10.6596 14.966 10.7392 14.8403 10.763 14.7006C10.7793 14.6191 10.8176 14.5429 10.8743 14.4795C11.0819 14.3075 11.1041 14.0338 11.2858 13.8478C11.3748 13.753 11.4045 13.5916 11.5046 13.5249C11.6047 13.4582 11.5046 13.2476 11.7122 13.2476C11.7345 13.0651 11.8976 12.9739 12.0015 12.844C12.1535 12.6545 12.3166 12.4931 12.4798 12.2965C12.6429 12.1 12.7022 12.0192 12.8246 11.8894C12.9366 11.7479 13.0334 11.5962 13.1138 11.4367C13.1748 11.3259 13.2416 11.2181 13.314 11.1138C13.3919 11.012 13.5625 10.9172 13.5625 10.8225C13.5625 10.6575 13.7367 10.6786 13.7664 10.5628C13.7916 10.4589 13.8514 10.3654 13.937 10.296C14.1298 10.1662 14.1668 9.94507 14.3077 9.79415C14.4486 9.64324 14.5043 9.50284 14.6081 9.36596C14.7119 9.22909 14.7898 9.14135 14.8862 9.015C14.9121 8.98341 14.9455 8.94131 14.9789 8.93429C15.0122 8.92727 15.0642 8.95534 15.1272 8.97289C15.1166 8.91225 15.13 8.85005 15.1649 8.79822C15.1998 8.74639 15.2537 8.70861 15.3163 8.69212C15.3561 8.68017 15.3903 8.65531 15.4127 8.62192C15.537 8.42022 15.7036 8.24468 15.9021 8.10602C16.262 7.80217 16.5979 7.47373 16.907 7.12333C16.9292 7.09876 16.9589 7.08121 16.9848 7.05664C17.0108 7.03207 17.1109 6.88116 17.1739 6.88116C17.237 6.88116 17.2258 6.71621 17.3556 6.74779C17.4854 6.77938 17.4038 6.58986 17.5151 6.5688C17.5151 6.5688 17.5151 6.5302 17.541 6.5302C17.7116 6.5302 17.7635 6.39331 17.8599 6.30206C17.9563 6.21081 18.0156 6.24591 18.0712 6.19678C18.2259 6.05898 18.4146 5.96003 18.62 5.90898C18.683 5.90898 18.7868 5.85985 18.7943 5.81773C18.8202 5.69489 18.9277 5.6984 19.0056 5.65979C19.0835 5.62119 19.1651 5.52292 19.3134 5.55451C19.3838 5.55451 19.4691 5.42466 19.6063 5.43519C19.6991 5.42788 19.7897 5.40406 19.8733 5.365L20.7743 5.05615L21.5789 4.78941C21.8458 4.70518 22.0869 4.56129 22.3575 4.47004C22.6282 4.37879 22.9508 4.14012 23.2919 4.0594C23.5144 3.82075 23.8518 3.74704 24.1076 3.55401C24.1595 3.5119 24.1929 3.44874 24.2522 3.41364C24.3931 3.32941 24.6008 3.35396 24.6898 3.17848C24.8084 3.17848 24.8715 3.09776 24.9493 3.03108C25.0272 2.9644 25.1199 2.90824 25.1421 2.92228C25.2756 3.02055 25.2979 2.92229 25.3535 2.84508C25.3975 2.79759 25.4473 2.75517 25.5018 2.71872C25.7919 2.51683 26.1151 2.3615 26.4584 2.25896C26.6957 2.18876 26.9293 2.10453 27.1703 2.03785C27.4113 1.97117 27.6079 1.9431 27.8266 1.89396C28.0454 1.84483 28.1974 1.80272 28.3717 1.75008C28.6252 1.69991 28.884 1.67753 29.1429 1.68339C29.4618 1.65883 29.7844 1.64478 30.1032 1.60968C30.432 1.54826 30.7657 1.51305 31.1007 1.5044C31.2995 1.49376 31.4976 1.47267 31.6939 1.44123C32.0425 1.41666 32.391 1.40261 32.7396 1.38155C33.0881 1.36049 33.3402 1.30785 33.6443 1.31486C34.1468 1.35652 34.6532 1.32577 35.146 1.22363C35.3907 1.15695 35.6576 1.16045 35.8875 1.1043C36.529 0.951416 37.1875 0.871304 37.849 0.865643C38.0992 0.838556 38.3526 0.864931 38.5906 0.942845C38.776 0.732266 39.0837 0.904254 39.3062 0.739301ZM59.5882 64.9656L59.5511 64.92C59.0176 65.0507 58.5004 65.2354 58.0086 65.471C57.9864 65.471 57.9864 65.5306 57.9604 65.5973C58.0138 65.5594 58.0709 65.5265 58.131 65.499L59.4139 65.0849C59.4772 65.0552 59.5358 65.0174 59.5882 64.9726V64.9656ZM56.8518 66.0185C56.7181 66.0385 56.5911 66.0878 56.481 66.1624C56.7146 66.2361 56.7851 66.208 56.8518 66.0185ZM63.7336 63.7548L63.3146 63.8846V63.9338C63.4852 63.8952 63.6298 63.9162 63.7336 63.7548ZM78.0237 22.7552C77.9903 22.864 77.8717 22.9869 78.1016 23.0781C78.0719 22.9377 78.0497 22.8395 78.0237 22.7552ZM46.4846 66.587H46.8554V66.5309C46.7405 66.559 46.6107 66.4958 46.4846 66.587ZM79.2584 28.0548H79.3066C79.3181 28.0268 79.3244 27.9971 79.3252 27.967C79.3066 27.9277 79.2843 27.8902 79.2584 27.8547V28.0548ZM46.2992 66.5976V66.566H46.1027V66.587L46.2992 66.5976ZM59.6067 5.71596V5.7651L59.7439 5.78965V5.75456L59.6067 5.71596ZM78.198 23.7028H78.2647L78.2165 23.5309H78.1832C78.1869 23.587 78.1943 23.6432 78.198 23.7028Z" fill="#50735F"/>
</svg>
