<svg width="16" height="14" viewBox="0 0 16 14" fill="none" xmlns="http://www.w3.org/2000/svg">
<path d="M10.8525 1.24933C10.8461 1.24493 10.8389 1.23613 10.8344 1.23739C10.8033 1.24011 10.7721 1.23602 10.7429 1.22544C10.6838 1.21576 10.6255 1.20232 10.5683 1.18521C10.471 1.1607 10.3737 1.12801 10.2776 1.1123C10.1998 1.10035 10.1245 1.07521 10.044 1.07018C9.96358 1.06515 9.90259 1.04629 9.83186 1.03687C9.778 1.02995 9.72414 1.02869 9.67029 1.02555L9.4873 1.01549C9.45681 1.01549 9.42631 1.01549 9.39581 1.01109C9.24973 0.998525 9.10289 0.996632 8.95652 1.00544C8.92438 1.00774 8.89248 1.01258 8.86114 1.01989C8.82307 1.02721 8.78443 1.03142 8.74564 1.03246C8.66064 1.03875 8.57628 1.04818 8.49128 1.05447C8.43612 1.05887 8.38032 1.06012 8.32452 1.06264C8.30961 1.0617 8.29465 1.0617 8.27975 1.06264C8.21486 1.07206 8.14608 1.0815 8.07989 1.09281C8.03187 1.10035 7.9845 1.11167 7.93649 1.12047C7.92027 1.12047 7.9034 1.12047 7.88653 1.12549C7.79033 1.13162 7.69495 1.14656 7.60167 1.17013C7.55681 1.17827 7.51154 1.18415 7.46605 1.18773C7.38765 1.19024 7.30976 1.20099 7.23376 1.21978C7.21494 1.22733 7.18898 1.21978 7.16887 1.21978C7.10398 1.2311 7.03909 1.24241 6.97031 1.2575C6.93073 1.26693 6.89244 1.28327 6.85286 1.29522L6.64458 1.35807C6.60881 1.37411 6.57033 1.38369 6.53102 1.38636C6.45446 1.3807 6.39476 1.42282 6.32598 1.43916C6.25719 1.45551 6.18712 1.47688 6.11834 1.49762C6.03723 1.52214 5.95741 1.54854 5.8763 1.57368C5.77638 1.60448 5.67645 1.63654 5.57522 1.66483C5.51034 1.68243 5.44545 1.69249 5.38446 1.70946C5.32347 1.72643 5.243 1.75283 5.17228 1.77232C5.0691 1.80438 4.96658 1.83517 4.86276 1.86849C4.77646 1.893 4.68821 1.91249 4.60321 1.93701C4.55325 1.95147 4.50458 1.97158 4.45527 1.98855C4.37935 2.01495 4.30343 2.04072 4.22881 2.06901C4.15419 2.0973 4.07503 2.13187 3.99651 2.15953C3.90554 2.19217 3.8185 2.23433 3.73696 2.28525C3.65196 2.33742 3.56825 2.39273 3.4839 2.44554C3.45652 2.45881 3.43027 2.47416 3.40539 2.49143C3.38177 2.50709 3.3568 2.52076 3.33076 2.53228C3.23733 2.59514 3.14064 2.64794 3.0472 2.70892C2.99919 2.73972 2.95636 2.77743 2.91029 2.81201C2.85254 2.85538 2.79414 2.89687 2.73704 2.93772C2.67994 2.97858 2.62803 3.01944 2.57482 3.06344C2.51532 3.11114 2.46018 3.16371 2.41001 3.22059C2.3594 3.27716 2.30165 3.32808 2.25298 3.38591C2.18132 3.4625 2.11519 3.54378 2.05507 3.62917C2.02133 3.68135 1.9798 3.72912 1.94411 3.78067C1.90843 3.83221 1.87209 3.88752 1.8364 3.94221C1.80071 3.9969 1.76697 4.05033 1.73323 4.10565C1.72755 4.11796 1.7232 4.13081 1.72025 4.14399L1.68716 4.13016C1.68716 4.15028 1.68197 4.16662 1.68132 4.18359C1.68037 4.1972 1.68037 4.21085 1.68132 4.22445C1.63192 4.25961 1.59406 4.30785 1.57231 4.36337C1.53532 4.44823 1.50028 4.53372 1.46329 4.61795C1.44801 4.66318 1.42755 4.70662 1.4023 4.74744C1.36856 4.80354 1.34342 4.8641 1.32768 4.92722C1.3147 4.96116 1.30757 4.99699 1.29524 5.03093C1.28729 5.04969 1.27774 5.06777 1.26669 5.08499C1.26134 5.09184 1.25718 5.09948 1.25436 5.10762C1.24203 5.17048 1.23165 5.23334 1.21997 5.2918C1.20245 5.38672 1.18428 5.48037 1.16676 5.57718C1.16236 5.59599 1.15954 5.61513 1.15833 5.63438C1.15968 5.64609 1.1644 5.6572 1.17195 5.66644C1.17909 5.6733 1.18372 5.68224 1.18512 5.69188C1.18653 5.70153 1.18464 5.71136 1.17974 5.71987C1.16662 5.74696 1.1587 5.77614 1.15638 5.80599C1.1447 5.85187 1.13561 5.89776 1.12458 5.94365C1.10634 5.99994 1.09267 6.05752 1.0837 6.11588C1.07525 6.16562 1.07525 6.21637 1.0837 6.26611C1.08601 6.29678 1.08294 6.32759 1.07462 6.35726C1.07182 6.36565 1.06986 6.37428 1.06878 6.38303C1.06878 6.45281 1.0532 6.52069 1.04931 6.58921C1.04931 6.62064 1.04283 6.65207 1 6.65207C1 6.67721 1.00389 6.70047 1.00454 6.72373C1.00519 6.74698 1.00454 6.77276 1.00454 6.7979C1.00454 6.83311 1.00454 6.86831 1.00454 6.90351C1.00908 6.98774 1.01363 7.0726 1.01882 7.15494C1.02471 7.19216 1.02645 7.22988 1.02401 7.26746C1.01071 7.39569 1.00745 7.52471 1.01427 7.65342C1.01427 7.72256 1.02011 7.79233 1.02336 7.86211C1.02468 7.86791 1.02468 7.87391 1.02336 7.87971C0.995458 7.94257 1.01882 8.00857 1.01362 8.07268C1.00843 8.1368 1.01752 8.18206 1.01362 8.238C1.01324 8.30135 1.01976 8.36456 1.03309 8.42658C1.03828 8.4643 1.04801 8.50075 1.04996 8.53973C1.05536 8.58241 1.06492 8.62451 1.07851 8.66545C1.08477 8.6822 1.08955 8.69945 1.09279 8.71699C1.09733 8.76728 1.09863 8.81694 1.10252 8.86723C1.10296 8.87748 1.10709 8.88727 1.1142 8.89488C1.11809 8.89865 1.13042 8.89488 1.14145 8.89488C1.15249 8.89488 1.14859 8.90808 1.14664 8.91311C1.13636 8.9546 1.1377 8.99801 1.15054 9.03883C1.15443 9.06649 1.16287 9.09415 1.16871 9.1218C1.17125 9.13022 1.17125 9.13916 1.16871 9.14758C1.15441 9.18705 1.15441 9.23005 1.16871 9.26952C1.19933 9.40836 1.24455 9.5438 1.30367 9.67371C1.32208 9.70171 1.32987 9.73504 1.32573 9.768C1.32488 9.78444 1.32942 9.80072 1.33871 9.81451C1.37375 9.88617 1.40944 9.95657 1.44448 10.0282C1.49639 10.1351 1.54787 10.242 1.59891 10.3488C1.60475 10.3614 1.61384 10.3746 1.59891 10.3903C1.59502 10.396 1.59891 10.4098 1.60281 10.4186C1.64554 10.5029 1.69684 10.5829 1.75594 10.6575C1.84159 10.7725 1.92854 10.8863 2.01549 11.0019C2.03496 11.0283 2.04858 11.0591 2.06675 11.0862C2.08338 11.1109 2.10136 11.1349 2.12061 11.1578C2.17046 11.2184 2.22421 11.276 2.28153 11.33C2.34642 11.3929 2.40547 11.4558 2.47165 11.5186C2.52291 11.5658 2.58001 11.6073 2.63582 11.6494C2.69162 11.6915 2.7299 11.7166 2.77922 11.7474C2.80128 11.7613 2.82204 11.7902 2.85643 11.7675C2.86163 11.7638 2.87655 11.7713 2.88564 11.777L3.04526 11.8801C3.13805 11.9429 3.23019 11.9982 3.32233 12.0592C3.35477 12.0806 3.38722 12.107 3.42031 12.1346L3.39435 12.1717C3.40195 12.1801 3.41069 12.1875 3.42031 12.1937C3.4852 12.2289 3.55398 12.2629 3.62081 12.2962C3.63314 12.3025 3.64612 12.3062 3.66234 12.3125C3.66018 12.3184 3.6595 12.3248 3.66035 12.331C3.66121 12.3372 3.66356 12.3431 3.66724 12.3482C3.67091 12.3534 3.67579 12.3576 3.68148 12.3606C3.68717 12.3636 3.69351 12.3652 3.69997 12.3653C3.70881 12.3678 3.71699 12.3721 3.72398 12.3779C3.80815 12.4328 3.89877 12.4777 3.99391 12.5118C4.04346 12.5317 4.0947 12.5475 4.14705 12.5589C4.1925 12.5695 4.23619 12.5862 4.27683 12.6086C4.34171 12.6369 4.4066 12.6608 4.4676 12.6865C4.52859 12.7123 4.57466 12.7318 4.62982 12.7494C4.67394 12.7651 4.71936 12.7764 4.76478 12.7896L4.98994 12.8525C5.04505 12.8719 5.10326 12.8817 5.16189 12.8814C5.23246 12.8847 5.30217 12.8978 5.36888 12.9204C5.461 12.9448 5.55634 12.9558 5.6518 12.9531C5.71477 12.9464 5.77842 12.9489 5.84062 12.9606C5.89802 12.9684 5.95591 12.9722 6.01387 12.9719C6.07227 12.9788 6.13066 12.9801 6.18906 12.982C6.27082 12.982 6.35258 12.982 6.43369 12.987C6.5148 12.992 6.60435 12.9933 6.69 12.9977C6.78651 13.0023 6.88324 13 6.97939 12.9908C7.00211 12.9908 7.02547 12.9908 7.04818 12.9908L7.15394 12.9851C7.15993 12.9839 7.16612 12.9839 7.17211 12.9851C7.22194 12.9943 7.27294 12.996 7.3233 12.9902C7.3358 12.9914 7.34836 12.9885 7.35899 12.982C7.38497 12.9665 7.41566 12.96 7.44594 12.9638C7.45372 12.9638 7.46216 12.9669 7.468 12.9638C7.51888 12.9503 7.57186 12.9458 7.62438 12.9506C7.67434 12.9506 7.72431 12.9506 7.77492 12.9506H7.98321H8.18695C8.25638 12.9506 8.32646 12.9506 8.39654 12.9506C8.44651 12.9506 8.49712 12.9455 8.54773 12.9443C8.59834 12.943 8.6535 12.9443 8.70605 12.9443C8.7519 12.94 8.79741 12.9328 8.84232 12.9229C8.93251 12.9047 9.02206 12.8852 9.11096 12.8651C9.15768 12.8544 9.20374 12.8418 9.24981 12.8305C9.27058 12.8255 9.29264 12.8242 9.3147 12.8185C9.3757 12.8016 9.43734 12.7846 9.49768 12.7645C9.55803 12.7444 9.62746 12.718 9.69235 12.6953C9.73907 12.6784 9.78709 12.6658 9.83316 12.6469C9.85748 12.6385 9.88329 12.6349 9.90907 12.6363C9.97698 12.6271 10.0439 12.612 10.1089 12.591C10.1894 12.5734 10.2698 12.5539 10.3503 12.5344C10.3724 12.5294 10.3938 12.5206 10.4152 12.5149C10.4852 12.5 10.553 12.4766 10.617 12.4452C10.6284 12.4413 10.6402 12.4381 10.652 12.4357C10.6975 12.4194 10.7422 12.4018 10.7877 12.3848C10.8688 12.3534 10.9499 12.322 11.0323 12.2956C11.1147 12.2692 11.2062 12.2591 11.2918 12.2377C11.3301 12.2283 11.3684 12.2195 11.406 12.2082C11.482 12.1849 11.5585 12.1629 11.6318 12.1346C11.7052 12.1064 11.7759 12.068 11.8499 12.0404C11.953 12.0014 12.0582 11.9681 12.162 11.9316C12.2515 11.9002 12.3404 11.8687 12.43 11.8342C12.478 11.8166 12.5279 11.8027 12.5753 11.7826C12.6227 11.7625 12.6649 11.7374 12.7051 11.7135C12.77 11.6783 12.8349 11.6418 12.8933 11.6047C12.9244 11.5859 12.9536 11.5639 12.9835 11.5419C13.0289 11.5092 13.0756 11.479 13.1191 11.4438C13.1809 11.3985 13.2382 11.3478 13.2904 11.2923C13.3085 11.2743 13.328 11.2577 13.3488 11.2427C13.4138 11.1887 13.4739 11.1294 13.5285 11.0654C13.5765 11.0069 13.6323 10.9541 13.6803 10.8951C13.7106 10.8549 13.7381 10.8129 13.7628 10.7693C13.79 10.7247 13.8166 10.6795 13.8432 10.6336C13.8575 10.6097 13.8705 10.5845 13.8834 10.56C13.9068 10.5148 13.9276 10.4682 13.9535 10.4242C13.9886 10.3614 14.0262 10.3023 14.0645 10.2432C14.1028 10.1841 14.1488 10.1238 14.1871 10.0628C14.2254 10.0018 14.252 9.94526 14.2877 9.88743C14.355 9.77424 14.4111 9.65511 14.4551 9.53165C14.4657 9.50056 14.4783 9.47012 14.4927 9.4405C14.5256 9.35854 14.5526 9.27454 14.5738 9.18906C14.5829 9.16203 14.5901 9.135 14.5966 9.10735C14.6103 9.02423 14.6138 8.93982 14.6069 8.85591C14.6069 8.78237 14.6069 8.70882 14.6134 8.63527C14.618 8.60593 14.6247 8.57694 14.6335 8.54853C14.6465 8.4951 14.6589 8.44104 14.6712 8.38761C14.679 8.35304 14.6887 8.31847 14.6952 8.28327C14.7056 8.22481 14.7127 8.16635 14.7244 8.10851C14.7335 8.062 14.749 8.01611 14.7601 7.97022C14.7711 7.92434 14.7782 7.87405 14.7893 7.82691C14.7964 7.78898 14.8071 7.75174 14.8211 7.71565C14.8496 7.64534 14.8735 7.57332 14.8924 7.50004C14.9119 7.43718 14.9366 7.37998 14.9521 7.31775C14.978 7.23809 14.9926 7.15542 14.9956 7.07197C14.9956 6.97957 14.9956 6.88654 14.9956 6.7935C14.9911 6.76138 14.9911 6.72882 14.9956 6.6967C15.0015 6.65625 15.0015 6.6152 14.9956 6.57475C14.9956 6.52195 14.9956 6.46915 14.9956 6.41635C14.9956 6.36355 14.9904 6.3164 14.9891 6.26611C14.9878 6.21583 14.9742 6.15234 14.969 6.09451C14.9509 5.97299 14.9249 5.85269 14.8911 5.73433C14.8704 5.65315 14.8561 5.57057 14.8483 5.48729C14.8431 5.4567 14.8344 5.42677 14.8224 5.39803C14.8068 5.35151 14.7899 5.30563 14.7737 5.25974L14.7289 5.12962C14.6958 5.0303 14.664 4.92973 14.629 4.83104C14.6017 4.75372 14.5706 4.67829 14.5433 4.60161C14.52 4.53875 14.5005 4.4696 14.4785 4.40423C14.4564 4.33885 14.4298 4.26091 14.4019 4.19113C14.3784 4.13006 14.3516 4.07026 14.3214 4.01199C14.2906 3.95752 14.2568 3.90465 14.2202 3.85358C14.1709 3.78255 14.1196 3.71215 14.0677 3.64301C14.0399 3.60586 14.01 3.57019 13.9782 3.53614C13.8945 3.44626 13.8101 3.35637 13.7232 3.26962C13.6362 3.18288 13.5603 3.0911 13.4818 2.99932C13.4461 2.95784 13.4169 2.91195 13.3825 2.86921C13.3626 2.8441 13.3409 2.82037 13.3176 2.79818C13.2586 2.74223 13.1989 2.68817 13.1392 2.63286C13.108 2.60394 13.0743 2.57503 13.0457 2.54548C12.9997 2.50085 12.9555 2.45497 12.9088 2.41159C12.8621 2.36822 12.8186 2.33176 12.7739 2.29216C12.7174 2.24124 12.6629 2.18844 12.6045 2.14004C12.5584 2.10233 12.5085 2.06964 12.4605 2.03318C12.3871 1.98474 12.3103 1.94127 12.2308 1.90307C12.2099 1.89164 12.1882 1.88176 12.1659 1.87352C12.0589 1.82733 11.9559 1.7731 11.8576 1.71134C11.8083 1.68306 11.7584 1.65351 11.7084 1.62648C11.6727 1.607 11.6377 1.58563 11.6033 1.56362C11.5689 1.54162 11.5384 1.51899 11.5053 1.50077C11.4571 1.47035 11.4053 1.44586 11.3509 1.42785C11.286 1.41025 11.2263 1.37379 11.1608 1.3543C11.1055 1.33783 11.0522 1.3157 11.0018 1.2883C10.959 1.26567 10.9103 1.26064 10.8681 1.23927C10.8681 1.24744 10.8714 1.25624 10.8733 1.26819L10.8448 1.25938L10.8525 1.24933ZM4.42866 2.08095C4.43353 2.07183 4.44187 2.06489 4.45192 2.0616C4.46197 2.05832 4.47294 2.05895 4.48252 2.06336L4.42801 2.08032C4.42282 2.08535 4.41893 2.09227 4.41244 2.09478C4.38194 2.10861 4.3508 2.12056 4.3203 2.13376C4.21064 2.18153 4.09838 2.22302 3.99132 2.2777C3.90676 2.31637 3.82689 2.36402 3.75318 2.41977C3.69738 2.46565 3.63963 2.51091 3.58058 2.55303C3.53191 2.58823 3.48779 2.62846 3.43523 2.65989C3.38267 2.69132 3.33985 2.7284 3.29118 2.76235C3.24252 2.79629 3.19255 2.83023 3.14259 2.86292C3.10861 2.88221 3.07569 2.90319 3.04396 2.92578C2.98881 2.97104 2.92976 3.01127 2.8759 3.05967C2.82204 3.10807 2.79025 3.15145 2.74093 3.19168C2.71801 3.21134 2.69634 3.23233 2.67605 3.25454L2.44115 3.49088C2.42233 3.51037 2.40287 3.5286 2.38535 3.54872C2.34512 3.59649 2.30554 3.64489 2.2666 3.69392C2.23618 3.73077 2.2078 3.76917 2.1816 3.80895C2.14656 3.86489 2.11671 3.92336 2.08362 3.98119C2.07457 3.99654 2.06718 4.01276 2.06156 4.02959C2.0395 4.1025 2.01484 4.17479 1.99667 4.24896C1.97692 4.33077 1.95089 4.41103 1.91881 4.48909C1.90194 4.53183 1.88961 4.57646 1.87598 4.61983C1.87079 4.63743 1.86755 4.65566 1.86171 4.67326C1.85003 4.70846 1.83575 4.74304 1.82537 4.77824C1.8085 4.8367 1.79487 4.89579 1.7767 4.95425C1.7475 5.04853 1.71896 5.14282 1.68586 5.23522C1.65277 5.32763 1.6054 5.43009 1.57296 5.53003C1.53791 5.639 1.51379 5.75099 1.50093 5.86444C1.49379 5.92165 1.4899 5.97948 1.48406 6.03668C1.47627 6.11211 1.4633 6.18754 1.46135 6.26297C1.45811 6.37863 1.46135 6.49492 1.46135 6.61058C1.46135 6.71178 1.46135 6.81299 1.46135 6.91419C1.46135 7.0154 1.46135 7.10277 1.45746 7.1958C1.45746 7.33283 1.45746 7.46987 1.45746 7.6069C1.45746 7.67982 1.45746 7.75273 1.462 7.82565C1.462 7.88851 1.47303 7.94697 1.47822 8.00794C1.47822 8.02743 1.47822 8.04629 1.47822 8.06577C1.48341 8.11732 1.4912 8.16886 1.49639 8.22041C1.50951 8.3343 1.53119 8.44712 1.56128 8.55796C1.58074 8.63339 1.59761 8.70945 1.61384 8.78551C1.62422 8.83328 1.62811 8.88294 1.64174 8.93008C1.65536 8.97723 1.67742 9.01871 1.69494 9.06334C1.70533 9.08849 1.71377 9.11426 1.7222 9.13941C1.74232 9.19598 1.75854 9.25318 1.7819 9.3085C1.82218 9.38038 1.85251 9.4571 1.87209 9.53667C1.87572 9.55836 1.88226 9.57949 1.89156 9.59953C1.9214 9.67119 1.95644 9.74097 1.9837 9.81388C2.02068 9.91634 2.05507 10.0194 2.08427 10.1244C2.10777 10.2061 2.14018 10.2851 2.18095 10.3601C2.25316 10.4692 2.33386 10.5728 2.42234 10.67C2.45125 10.705 2.47812 10.7415 2.5028 10.7794C2.54565 10.8537 2.59333 10.9253 2.64555 10.9937C2.6728 11.0283 2.69941 11.0635 2.72407 11.0994C2.79365 11.198 2.87464 11.2887 2.96545 11.3696C3.04913 11.4421 3.13733 11.5095 3.22954 11.5714C3.33206 11.6425 3.43718 11.711 3.54554 11.7745C3.6539 11.8379 3.78303 11.9065 3.90437 11.9687C3.98029 12.0077 4.05945 12.0416 4.13862 12.0756C4.21778 12.1095 4.29564 12.1384 4.37351 12.1686C4.39752 12.178 4.42087 12.1906 4.44488 12.2C4.51561 12.2283 4.58699 12.2547 4.65707 12.2842C4.71092 12.3069 4.76089 12.3364 4.81474 12.3584C4.9244 12.403 5.03536 12.4433 5.14502 12.4841C5.22726 12.5138 5.31108 12.5392 5.39614 12.5602C5.49801 12.5891 5.59923 12.6193 5.70111 12.6476L5.97234 12.7217C6.03723 12.74 6.10212 12.7601 6.167 12.7789C6.22739 12.8004 6.29157 12.81 6.35583 12.8072C6.3727 12.8072 6.39021 12.8072 6.40709 12.8072L6.73477 12.7972C6.77803 12.7972 6.82129 12.7947 6.86455 12.7896C6.91386 12.7852 6.96253 12.7802 7.01054 12.7733C7.05164 12.7626 7.0935 12.7548 7.13578 12.75C7.22007 12.7471 7.30381 12.7355 7.38559 12.7155C7.44575 12.7032 7.50712 12.6976 7.56858 12.6985C7.70224 12.6985 7.83591 12.6985 7.97023 12.6985C8.05004 12.6985 8.12986 12.6947 8.21032 12.6935C8.32127 12.6935 8.43158 12.6935 8.54254 12.6897C8.63922 12.6897 8.7372 12.6897 8.83194 12.6897H9.10252C9.13307 12.69 9.1636 12.6887 9.19401 12.6859C9.23943 12.6815 9.28486 12.6746 9.33028 12.6689L9.39516 12.6633C9.36721 12.6756 9.33837 12.6859 9.30886 12.6941C9.23749 12.7136 9.16676 12.7337 9.09538 12.7513C9.0364 12.777 8.97056 12.784 8.90721 12.7714C8.901 12.7702 8.8946 12.7702 8.88839 12.7714C8.78847 12.7871 8.68918 12.8053 8.58861 12.8179C8.47311 12.8317 8.35631 12.8418 8.24016 12.8506C8.18355 12.844 8.12612 12.8516 8.0734 12.8726C8.06447 12.8749 8.05508 12.8749 8.04615 12.8726C7.95531 12.8726 7.86446 12.8726 7.77362 12.8726C7.77362 12.8726 7.77038 12.8688 7.76778 12.8657L7.78465 12.8537C7.74572 12.8305 7.5251 12.8324 7.45502 12.8537C7.45502 12.8537 7.45113 12.8575 7.44854 12.86L7.48357 12.8657C7.46605 12.8713 7.44334 12.8776 7.43426 12.8701C7.41025 12.85 7.38494 12.8575 7.35964 12.8563C7.27658 12.8531 7.19288 12.8462 7.10982 12.85C7.00081 12.855 6.8918 12.8695 6.78538 12.8783C6.72049 12.8839 6.65561 12.8858 6.59591 12.8889C6.54919 12.8607 6.50377 12.8808 6.45835 12.8927C6.43708 12.8977 6.41533 12.9004 6.39346 12.9009C6.38373 12.9009 6.36751 12.9009 6.36361 12.894C6.34934 12.8701 6.32468 12.877 6.30586 12.8758C6.22216 12.872 6.13845 12.8757 6.05475 12.8682C5.97613 12.8686 5.89794 12.8569 5.8231 12.8336C5.7997 12.8277 5.77512 12.8277 5.75172 12.8336C5.74037 12.8358 5.72868 12.8358 5.71733 12.8336C5.69037 12.8232 5.66124 12.8191 5.63233 12.8217C5.60901 12.8265 5.58492 12.8265 5.5616 12.8217C5.52042 12.8221 5.47937 12.817 5.43961 12.8066C5.38496 12.7944 5.32943 12.7862 5.2735 12.7821C5.23197 12.7752 5.1885 12.7764 5.14762 12.7657C5.09636 12.7525 5.04834 12.7293 4.99708 12.7142C4.95944 12.7035 4.93219 12.6733 4.89066 12.6671C4.87265 12.6634 4.85521 12.6575 4.83875 12.6495C4.79039 12.6255 4.73976 12.6061 4.68756 12.5916C4.64586 12.5812 4.60604 12.5647 4.56947 12.5426C4.53453 12.517 4.49345 12.5003 4.45008 12.4942C4.45008 12.4942 4.44553 12.4904 4.44294 12.4892L4.27942 12.4301C4.26143 12.4246 4.24404 12.4175 4.22751 12.4087C4.20869 12.398 4.18274 12.4018 4.17106 12.3798C4.13213 12.3798 4.10617 12.3477 4.08086 12.3295C4.05556 12.3113 4.01598 12.2924 3.98288 12.2704C3.9505 12.2526 3.9161 12.2385 3.88036 12.2283C3.89334 12.1912 3.89204 12.1862 3.86609 12.173C3.82651 12.1535 3.78757 12.1334 3.74734 12.1145C3.65909 12.0724 3.5689 12.0334 3.48195 11.9888C3.43848 11.9674 3.39371 11.9479 3.35218 11.9259C3.25614 11.8725 3.16141 11.8172 3.06667 11.7625C3.0472 11.7518 3.02774 11.7405 3.00892 11.7286C2.97128 11.7047 2.93495 11.6789 2.89602 11.6563C2.85708 11.6337 2.8188 11.6135 2.77987 11.5934C2.75651 11.5815 2.7325 11.5695 2.70979 11.557C2.66447 11.5353 2.62106 11.5101 2.58001 11.4815C2.53261 11.4399 2.48756 11.3958 2.44505 11.3495C2.43207 11.3363 2.41779 11.3238 2.40417 11.3112C2.37821 11.2867 2.35096 11.2634 2.32565 11.2383C2.2952 11.2 2.26202 11.1639 2.22637 11.1302C2.19588 11.1082 2.18614 11.0673 2.1537 11.0453C2.14397 11.0384 2.12515 11.0333 2.12385 11.0258C2.11931 10.9981 2.0953 10.9856 2.08298 10.9629C2.05767 10.9215 2.03106 10.8812 2.00316 10.8416C1.94995 10.7681 1.88636 10.7008 1.839 10.6229C1.81823 10.5877 1.79163 10.555 1.77411 10.5192C1.7501 10.472 1.73063 10.423 1.70338 10.3771C1.69898 10.3709 1.6961 10.3638 1.69494 10.3564C1.69494 10.3564 1.70403 10.3507 1.70533 10.3494C1.69663 10.3373 1.68861 10.3247 1.68132 10.3117C1.67548 10.3004 1.67353 10.2866 1.66834 10.2746C1.65806 10.2413 1.64299 10.2096 1.62357 10.1804C1.6048 10.1551 1.59155 10.1265 1.58463 10.0961C1.57685 10.0716 1.54311 10.054 1.56063 10.0226C1.53467 10.0182 1.53986 9.99618 1.53402 9.98046C1.5204 9.94337 1.50612 9.90691 1.49379 9.8692C1.48147 9.83148 1.44837 9.80131 1.45616 9.75794C1.42955 9.71331 1.43604 9.65862 1.40879 9.61399C1.40716 9.60823 1.40716 9.60215 1.40879 9.59639C1.40879 9.58382 1.41333 9.56811 1.40879 9.55993C1.39617 9.53469 1.38995 9.50689 1.39062 9.47884C1.39034 9.46546 1.38748 9.45224 1.38219 9.43987C1.36374 9.39993 1.3515 9.35756 1.34585 9.31415C1.33157 9.26952 1.31925 9.22364 1.30692 9.17838C1.29199 9.12306 1.28291 9.06649 1.27188 9.00992C1.27052 9.00257 1.2719 8.99499 1.27577 8.98854C1.28331 8.97551 1.28769 8.96098 1.28859 8.94606C1.28949 8.93115 1.28688 8.91622 1.28096 8.90243C1.25695 8.78299 1.23619 8.66293 1.22386 8.54162C1.22386 8.51899 1.21867 8.49573 1.21543 8.47247L1.19596 8.30589C1.19077 8.26378 1.18233 8.22229 1.17844 8.18018C1.17455 8.13806 1.15508 8.11103 1.15378 8.07331C1.15249 8.0356 1.14405 7.9916 1.1421 7.9476C1.14016 7.90359 1.1421 7.85582 1.1421 7.80993C1.1421 7.76405 1.13107 7.72256 1.12653 7.67856C1.12122 7.64762 1.11949 7.61621 1.12134 7.5849C1.12283 7.57773 1.12523 7.57076 1.12848 7.56416C1.10317 7.5585 1.12394 7.54341 1.12199 7.53335C1.12004 7.52329 1.11226 7.50381 1.11745 7.49501C1.13172 7.47049 1.12199 7.44912 1.11745 7.42524C1.11086 7.40477 1.11086 7.38284 1.11745 7.36238C1.12241 7.35419 1.12446 7.34465 1.12328 7.33523C1.12211 7.32581 1.11778 7.31701 1.11096 7.3102C1.1155 7.30015 1.12134 7.29386 1.12134 7.28695C1.12134 7.28003 1.11745 7.2618 1.12134 7.24923C1.12523 7.23666 1.13042 7.23477 1.12134 7.22283C1.11816 7.21713 1.11649 7.21076 1.11649 7.20429C1.11649 7.19781 1.11816 7.19144 1.12134 7.18574C1.14729 7.15997 1.11615 7.13168 1.12848 7.10717C1.11161 7.09837 1.1129 7.0902 1.12848 7.077C1.14405 7.0638 1.10512 7.05437 1.12848 7.04242C1.12848 7.04242 1.12848 7.03174 1.12848 7.02608C1.12848 6.99214 1.12848 6.95757 1.12848 6.92362C1.13854 6.86684 1.13854 6.8088 1.12848 6.75201C1.12625 6.74377 1.12625 6.73512 1.12848 6.72687C1.13561 6.69733 1.1434 6.66778 1.14989 6.63824C1.15638 6.6087 1.14989 6.58858 1.16222 6.57538C1.19077 6.54269 1.17779 6.50435 1.18623 6.46978C1.19985 6.4176 1.19466 6.35978 1.21348 6.30949C1.23202 6.25006 1.23949 6.18791 1.23554 6.12594C1.23099 6.08163 1.23099 6.03699 1.23554 5.99268C1.24398 5.95685 1.25111 5.92102 1.25695 5.88456C1.2602 5.86193 1.27318 5.84056 1.27577 5.81793C1.28356 5.7469 1.30303 5.67775 1.31146 5.60672C1.31808 5.57201 1.32785 5.53794 1.34066 5.50489C1.35794 5.46193 1.36439 5.4156 1.35948 5.36974C1.35481 5.35058 1.35687 5.33045 1.36532 5.31254C1.39192 5.26477 1.38283 5.20819 1.40684 5.16105C1.41852 5.13716 1.40684 5.10511 1.42696 5.09002C1.44707 5.07493 1.43215 5.04099 1.45551 5.02716C1.43929 4.99384 1.46849 4.9643 1.46979 4.93539C1.47108 4.90647 1.48925 4.8807 1.4899 4.8499C1.4899 4.83418 1.51391 4.81721 1.51132 4.80401C1.50872 4.79081 1.51975 4.77132 1.52235 4.75561C1.52754 4.72292 1.56063 4.70092 1.55738 4.66384C1.55957 4.64611 1.56726 4.62945 1.57945 4.61606C1.58853 4.60223 1.6041 4.5928 1.59502 4.57269C1.61319 4.562 1.61124 4.54126 1.62033 4.52618C1.62941 4.51109 1.6346 4.48406 1.64888 4.47777C1.67548 4.46457 1.65536 4.44257 1.66639 4.42874C1.66895 4.42345 1.67112 4.41799 1.67288 4.4124C1.68781 4.38034 1.71506 4.35394 1.71636 4.31559C1.71636 4.31057 1.72869 4.30617 1.73323 4.30365C1.73777 4.30114 1.72285 4.28354 1.72544 4.27788C1.73388 4.26154 1.7475 4.24708 1.75659 4.23074C1.76567 4.21439 1.76697 4.19931 1.77605 4.18548C1.78514 4.17165 1.77606 4.14839 1.80266 4.14525C1.80266 4.14525 1.80266 4.13645 1.80266 4.13268C1.80995 4.11113 1.81884 4.09012 1.82926 4.06982C1.84354 4.04593 1.86236 4.02456 1.87793 4.00193C1.8935 3.9793 1.91232 3.95101 1.92984 3.92524C1.94434 3.89668 1.96291 3.87023 1.98499 3.84667C2.009 3.8253 2.01809 3.78946 2.0408 3.76621C2.06351 3.74295 2.06286 3.70335 2.10244 3.68889C2.10244 3.68889 2.10568 3.68386 2.10568 3.68135C2.09984 3.65558 2.1245 3.64678 2.13618 3.63106C2.14786 3.61535 2.17317 3.60152 2.17901 3.58329C2.191 3.5543 2.21154 3.52938 2.23805 3.51163C2.25168 3.49906 2.2426 3.48271 2.25298 3.47894C2.30294 3.45883 2.31787 3.40477 2.35875 3.37648C2.39339 3.3475 2.42355 3.31384 2.44829 3.27654C2.48138 3.23614 2.51904 3.19945 2.56055 3.16716C2.59601 3.14017 2.63001 3.11142 2.66242 3.08104C2.69487 3.04899 2.74223 3.03515 2.76883 2.99555C2.77049 2.99411 2.77245 2.99302 2.77458 2.99237C2.7767 2.99172 2.77895 2.99152 2.78116 2.99178C2.79674 2.99555 2.80128 2.98298 2.81036 2.97481C2.81945 2.96664 2.83373 2.95847 2.84541 2.94967C2.87009 2.93305 2.89371 2.915 2.91613 2.89561C2.97515 2.84302 3.03876 2.79549 3.10625 2.75355C3.14806 2.72381 3.19137 2.69612 3.23603 2.67057C3.28145 2.64731 3.32298 2.61714 3.3658 2.59074C3.43783 2.54737 3.5105 2.50526 3.58058 2.46063C3.62795 2.43045 3.67596 2.40342 3.72203 2.37073C3.78358 2.33093 3.84873 2.29663 3.9167 2.26828C3.98158 2.23622 4.05361 2.20542 4.12369 2.17964C4.17949 2.15701 4.23724 2.1369 4.29434 2.11678C4.33068 2.10358 4.36767 2.08975 4.40465 2.07718C4.41278 2.07758 4.42083 2.07885 4.42866 2.08095ZM9.91816 12.498C9.87719 12.5251 9.82993 12.5419 9.7806 12.547C9.76673 12.548 9.75324 12.5519 9.74101 12.5583C9.65985 12.5872 9.57438 12.6031 9.48795 12.6055C9.42696 12.6105 9.36531 12.6155 9.30367 12.6218C9.24203 12.6281 9.19206 12.6375 9.13626 12.6425C9.10082 12.6447 9.06528 12.6447 9.02985 12.6425C8.98667 12.6389 8.94325 12.6389 8.90007 12.6425C8.84974 12.646 8.79922 12.646 8.74888 12.6425C8.65415 12.6457 8.55941 12.6425 8.46467 12.6425C8.3896 12.6396 8.31441 12.6411 8.23952 12.6469C8.18052 12.6504 8.12136 12.6504 8.06237 12.6469C7.9858 12.6469 7.90989 12.6469 7.83332 12.6469C7.75675 12.6469 7.66461 12.6469 7.58026 12.6469C7.52022 12.6467 7.46022 12.6497 7.40052 12.6557C7.35834 12.6601 7.31746 12.6771 7.27528 12.6834C7.21039 12.6935 7.14551 12.6979 7.08451 12.7067C7.0326 12.7142 6.98134 12.728 6.92878 12.7331C6.82691 12.7425 6.72439 12.7475 6.62251 12.7538H6.5719C6.50182 12.7538 6.4311 12.7538 6.36102 12.7538C6.31413 12.7543 6.26732 12.7497 6.22151 12.74C6.10017 12.7079 5.98077 12.6727 5.85943 12.6407C5.82764 12.6325 5.79455 12.6249 5.7634 12.6155C5.71733 12.6023 5.67191 12.5866 5.62584 12.574C5.56095 12.5552 5.49087 12.5382 5.42339 12.5193C5.39095 12.5093 5.35331 12.5124 5.32606 12.486C5.28518 12.4936 5.25274 12.4684 5.21705 12.4565C5.18136 12.4445 5.14697 12.4244 5.11063 12.4106C5.04185 12.3842 4.97177 12.3603 4.90234 12.3339C4.85727 12.32 4.81379 12.3017 4.77256 12.2792C4.73489 12.2565 4.69515 12.2371 4.65382 12.2214C4.59478 12.1981 4.53378 12.1786 4.47278 12.1585C4.46305 12.1548 4.45137 12.1585 4.45008 12.1416C4.45008 12.1372 4.43969 12.1328 4.43255 12.1302C4.40109 12.1207 4.37031 12.1091 4.34042 12.0957C4.28227 12.0682 4.22168 12.0459 4.15938 12.029C4.13991 12.0228 4.11461 12.0215 4.10228 12.0083C4.07503 11.98 4.03025 11.985 4.00624 11.9549C3.94135 11.9366 3.88685 11.892 3.82391 11.87C3.77855 11.8504 3.73511 11.8268 3.69413 11.7996C3.6857 11.7946 3.67986 11.7851 3.67142 11.7807C3.64417 11.7669 3.61497 11.7562 3.58837 11.7411C3.541 11.7147 3.49558 11.6871 3.44951 11.6588C3.43458 11.6494 3.4229 11.6355 3.40798 11.6261C3.39306 11.6167 3.36386 11.6022 3.34309 11.5878C3.31352 11.5606 3.28087 11.5368 3.24576 11.5167C3.19157 11.4871 3.14069 11.4521 3.09392 11.4124C3.04453 11.3754 2.99948 11.3332 2.9596 11.2867C2.8841 11.2114 2.8157 11.1298 2.75521 11.0428C2.72277 10.9963 2.68513 10.9535 2.65074 10.9083C2.63192 10.8831 2.61505 10.8573 2.59818 10.8309C2.58131 10.8045 2.56055 10.7681 2.53978 10.7348C2.52115 10.7021 2.49943 10.6712 2.4749 10.6424C2.4418 10.6065 2.41974 10.5594 2.38341 10.5273C2.3375 10.4812 2.29662 10.4307 2.26142 10.3765C2.23314 10.3352 2.20943 10.2912 2.19069 10.2451C2.17382 10.2074 2.16149 10.1678 2.14786 10.1282C2.13943 10.1037 2.13424 10.0785 2.12645 10.054C2.10569 9.99115 2.07973 9.92829 2.06156 9.86543C2.03459 9.77681 1.99986 9.69059 1.95774 9.6077C1.94178 9.57955 1.93102 9.54892 1.92594 9.51719C1.92307 9.49048 1.91653 9.46427 1.90648 9.43924C1.88247 9.37638 1.85067 9.31352 1.82083 9.25066C1.79895 9.20875 1.78239 9.16443 1.77151 9.11866C1.76265 9.08409 1.7516 9.05008 1.73842 9.01683C1.73174 8.99879 1.72394 8.98116 1.71506 8.96403C1.66769 8.87225 1.67548 8.76916 1.65017 8.67236C1.63719 8.62333 1.63136 8.57241 1.61513 8.52464C1.59499 8.46297 1.57959 8.39994 1.56906 8.33606C1.56517 8.31679 1.56193 8.2973 1.55933 8.27761C1.5496 8.20469 1.53727 8.13177 1.53208 8.05886C1.52989 7.97476 1.52318 7.89084 1.51196 7.80742C1.50841 7.78854 1.50646 7.76941 1.50612 7.75022C1.50612 7.69616 1.50612 7.64273 1.50612 7.5893C1.50612 7.53587 1.50612 7.49438 1.50612 7.44724C1.50612 7.40009 1.50612 7.37181 1.50612 7.33346C1.50612 7.31335 1.51002 7.2926 1.50937 7.2706C1.50937 7.21906 1.50482 7.16751 1.50547 7.1166C1.50547 7.03991 1.50547 6.96322 1.50872 6.88653C1.50872 6.82367 1.50872 6.7671 1.50872 6.70801C1.50872 6.67658 1.51196 6.64515 1.51196 6.61372C1.51196 6.55086 1.51196 6.48801 1.51196 6.42515C1.51196 6.39875 1.51196 6.37297 1.51196 6.3472C1.51196 6.2988 1.51196 6.2504 1.51196 6.202C1.51196 6.16994 1.52234 6.13914 1.52559 6.10708C1.53143 6.03416 1.53402 5.96125 1.54181 5.88833C1.54635 5.84496 1.55673 5.80158 1.56517 5.75821C1.58074 5.68467 1.59242 5.60986 1.61319 5.53758C1.63552 5.46429 1.66217 5.3923 1.693 5.32197C1.7196 5.25911 1.74102 5.19248 1.76892 5.12899C1.78156 5.10425 1.7901 5.07773 1.79422 5.05042C1.79987 5.02168 1.80746 4.99333 1.81693 4.96556C1.81693 4.95424 1.82732 4.94356 1.82926 4.93224C1.84548 4.82664 1.89415 4.72984 1.91621 4.62675C1.92011 4.61103 1.9227 4.59532 1.92789 4.58023C1.94995 4.52177 1.97331 4.46395 1.99278 4.40549C2.00706 4.36589 2.02198 4.32691 2.03301 4.28668C2.04404 4.24645 2.04858 4.20056 2.05961 4.16096C2.06815 4.11774 2.08165 4.07557 2.09984 4.03525C2.13164 3.97239 2.16473 3.90953 2.19847 3.85232C2.23347 3.79664 2.27137 3.74272 2.31203 3.69077C2.33603 3.65872 2.36718 3.63169 2.38859 3.59837C2.4112 3.56509 2.43778 3.5345 2.46776 3.50723C2.52616 3.45317 2.58391 3.39848 2.64036 3.34254C2.72471 3.25893 2.80777 3.17407 2.89212 3.0911C2.94612 3.03479 3.00766 2.98574 3.07511 2.94527C3.1089 2.92602 3.1416 2.90503 3.17309 2.88241C3.26458 2.81955 3.35347 2.75041 3.44626 2.68818C3.50206 2.65046 3.55463 2.6096 3.60783 2.56874C3.66104 2.52788 3.72788 2.48074 3.78563 2.43422C3.85845 2.38406 3.93706 2.3423 4.01987 2.30976C4.08476 2.27833 4.14965 2.25507 4.21908 2.22742C4.27228 2.20604 4.32549 2.18342 4.37805 2.16079C4.39882 2.15199 4.41958 2.14193 4.44294 2.13187C4.46391 2.11998 4.48558 2.10927 4.50783 2.09981C4.64344 2.05392 4.7797 2.00992 4.91532 1.96467C5.00292 1.93638 5.09116 1.90935 5.17487 1.87918C5.20796 1.86786 5.23976 1.84712 5.26896 1.83392C5.36759 1.79306 5.47011 1.76226 5.57198 1.73083C5.65698 1.70443 5.74393 1.68557 5.83153 1.66106C5.89642 1.64283 5.96131 1.62145 6.0262 1.5982L6.25979 1.52591C6.31365 1.50957 6.36751 1.4926 6.42201 1.47877C6.52259 1.45362 6.62511 1.43728 6.72309 1.40522C6.8055 1.37882 6.88725 1.3499 6.97096 1.32727C7.11734 1.28978 7.26702 1.26557 7.41804 1.25498C7.4347 1.25539 7.45125 1.25771 7.46735 1.2619C7.47881 1.25567 7.49101 1.25081 7.50369 1.24744C7.53354 1.24178 7.56339 1.23864 7.59388 1.23487C7.64033 1.23277 7.68643 1.22603 7.73144 1.21476C7.77297 1.19967 7.81515 1.1959 7.85603 1.18458C7.89308 1.17391 7.93253 1.17391 7.96958 1.18458C7.98583 1.18939 8.00259 1.19234 8.01955 1.19338C8.07573 1.19685 8.13207 1.19685 8.18825 1.19338C8.21898 1.19455 8.24936 1.20006 8.27845 1.20973C8.28669 1.21281 8.29515 1.21533 8.30375 1.21727C8.32841 1.21727 8.35307 1.21727 8.37708 1.21727C8.43211 1.21609 8.48717 1.2184 8.54189 1.22418C8.62754 1.23613 8.7119 1.25687 8.7969 1.27196C8.85657 1.28454 8.91705 1.29315 8.97793 1.29773C9.0571 1.3015 9.13626 1.29773 9.21607 1.3059C9.30821 1.31659 9.40165 1.31596 9.49509 1.32224C9.56027 1.32491 9.62525 1.33099 9.68975 1.34048C9.75734 1.35114 9.82567 1.35681 9.89415 1.35745C9.94036 1.35709 9.98647 1.36151 10.0317 1.37065C10.1063 1.38699 10.1797 1.4071 10.2523 1.42911C10.3131 1.44516 10.3724 1.46619 10.4295 1.49196C10.5041 1.53031 10.5735 1.57808 10.6462 1.61768C10.6696 1.63151 10.6962 1.64094 10.7182 1.65666C10.8132 1.72484 10.9157 1.7826 11.0238 1.82889C11.0654 1.84712 11.1062 1.86849 11.1478 1.88546C11.2217 1.91564 11.2957 1.94832 11.3703 1.97095C11.445 1.99358 11.5079 2.01369 11.5767 2.03381C11.6643 2.0665 11.7467 2.11116 11.8213 2.16644C11.9129 2.23433 11.9975 2.31076 12.0737 2.39462C12.1321 2.45245 12.1938 2.50651 12.2522 2.56434C12.3106 2.62217 12.3527 2.66366 12.3995 2.71646C12.4326 2.75355 12.4585 2.79566 12.4877 2.83589C12.5331 2.89875 12.5805 2.95847 12.622 3.02447C12.6858 3.12479 12.7571 3.22039 12.8355 3.31048C12.916 3.40875 12.987 3.51396 13.0477 3.62477C13.0788 3.67758 13.1067 3.73289 13.1372 3.78632C13.1535 3.81524 13.1703 3.84352 13.1878 3.87181C13.2372 3.95143 13.2869 4.03106 13.3371 4.11068C13.3721 4.16662 13.4098 4.22131 13.4442 4.27725C13.5045 4.37657 13.5635 4.47589 13.6213 4.57646C13.6518 4.62989 13.6777 4.68521 13.7044 4.74052C13.731 4.79584 13.7511 4.8411 13.7731 4.89139C13.8023 4.95927 13.8341 5.0259 13.8581 5.09442C13.8701 5.13849 13.8794 5.18319 13.886 5.22831C13.9049 5.3094 13.9263 5.38986 13.9444 5.47095C13.9509 5.50112 13.9509 5.53381 13.9561 5.56398C13.9601 5.5852 13.9653 5.60619 13.9717 5.62684C13.9762 5.64067 13.9834 5.65387 13.9873 5.66832C13.9934 5.70396 14.0039 5.73877 14.0184 5.77204C14.0366 5.80711 14.0472 5.84539 14.0496 5.88456C14.0496 5.88456 14.0496 5.88959 14.0541 5.89273L14.0723 5.88896C14.0723 5.91348 14.0541 5.93422 14.0638 5.96062C14.0807 6.00651 14.0898 6.05428 14.1067 6.10017C14.1191 6.12228 14.1289 6.14568 14.1359 6.16994C14.1529 6.25293 14.1642 6.33693 14.1696 6.42137C14.1696 6.49241 14.1787 6.56344 14.1845 6.63447C14.1923 6.72624 14.202 6.81739 14.2098 6.90916C14.2098 6.93242 14.2059 6.95631 14.2066 6.97956C14.2066 7.05059 14.2137 7.12163 14.2144 7.19266C14.2144 7.29072 14.2144 7.38878 14.2144 7.48747C14.2144 7.56415 14.2098 7.64147 14.2059 7.71879C14.2059 7.76153 14.1981 7.80428 14.193 7.84451C14.1838 7.8914 14.1781 7.93888 14.1761 7.98657C14.1777 7.99232 14.1777 7.99841 14.1761 8.00417C14.1616 8.04334 14.1523 8.08409 14.1482 8.12549C14.1248 8.22418 14.119 8.32664 14.0937 8.42595C14.0826 8.46995 14.0671 8.5127 14.0586 8.55733C14.0449 8.6131 14.0267 8.66774 14.0041 8.72076C13.9834 8.77796 13.9633 8.83517 13.9392 8.89174C13.9237 8.9326 13.9029 8.97157 13.886 9.0118C13.8692 9.05203 13.8575 9.09352 13.8387 9.13249C13.7835 9.2397 13.7134 9.3391 13.6304 9.42793C13.6056 9.45222 13.5794 9.4751 13.5519 9.49645C13.5478 9.50081 13.5423 9.5037 13.5363 9.50462C13.5116 9.50462 13.4987 9.52347 13.4824 9.5373C13.4662 9.55113 13.4422 9.56999 13.4227 9.58696C13.4155 9.59251 13.4092 9.59908 13.4039 9.60645C13.3656 9.67434 13.3287 9.74348 13.2891 9.81137C13.2638 9.85458 13.2363 9.89654 13.2067 9.93709C13.1736 9.9836 13.1372 10.0276 13.1009 10.0716C13.0655 10.1184 13.0265 10.1626 12.9841 10.2036C12.9264 10.2552 12.8608 10.2992 12.7985 10.3457C12.757 10.3765 12.7155 10.4085 12.6746 10.4368C12.6097 10.4846 12.5656 10.5531 12.4923 10.5902C12.4874 10.5938 12.4829 10.5978 12.4786 10.6021C12.462 10.6209 12.4428 10.6374 12.4215 10.6512C12.3987 10.6633 12.3786 10.6798 12.3625 10.6996C12.3443 10.7197 12.3294 10.7423 12.3106 10.7624C12.2917 10.7825 12.2606 10.8089 12.2392 10.8353C12.1951 10.8888 12.1535 10.9447 12.1094 11C12.0893 11.0252 12.0718 11.0522 12.0504 11.0767C12.029 11.1012 11.9907 11.1396 11.9615 11.1704C11.8574 11.2878 11.7439 11.3971 11.6221 11.4972C11.5697 11.5457 11.5116 11.5879 11.4489 11.623C11.3794 11.6544 11.3191 11.6997 11.2503 11.7374C11.1815 11.7751 11.1355 11.8002 11.0771 11.831C11.0517 11.8442 11.0232 11.8518 10.9979 11.8656C10.9168 11.9115 10.8363 11.9574 10.7572 12.0058C10.7121 12.0269 10.6717 12.0564 10.6384 12.0925C10.6348 12.0971 10.6302 12.1008 10.6248 12.1032C10.5722 12.134 10.5197 12.1661 10.4678 12.1944C10.4282 12.2176 10.3899 12.2421 10.351 12.2666C10.312 12.2912 10.2601 12.3295 10.2127 12.3553C10.1654 12.381 10.1122 12.4106 10.0616 12.437C10.054 12.4421 10.0448 12.4443 10.0356 12.4433C10.0166 12.4405 9.99715 12.4418 9.97867 12.447C9.96019 12.4522 9.94309 12.4613 9.92854 12.4735L9.96488 12.4823C9.9493 12.5061 9.92984 12.5357 9.91816 12.498ZM8.12142 1.13241L8.13634 1.12612C8.18268 1.11524 8.23012 1.10934 8.2778 1.10853C8.33967 1.09879 8.40206 1.0925 8.46467 1.08967H8.49193L8.76705 1.06641C8.7901 1.06762 8.81322 1.06593 8.83583 1.06138C8.92285 1.03848 9.01317 1.02956 9.10317 1.03498C9.1421 1.03498 9.18104 1.03498 9.21997 1.03498C9.27966 1.03498 9.33936 1.03498 9.39906 1.04064C9.49379 1.04567 9.58788 1.05132 9.68262 1.05824C9.7475 1.06264 9.81239 1.06955 9.87728 1.07647C9.89415 1.07647 9.91037 1.08464 9.92659 1.08652C9.9837 1.09344 10.0408 1.09532 10.0966 1.10664C10.2361 1.13492 10.3743 1.1695 10.5132 1.19904C10.5683 1.21161 10.6215 1.23047 10.6773 1.2399C10.7224 1.24205 10.7658 1.25715 10.8019 1.28327C10.8076 1.28574 10.8135 1.28785 10.8194 1.28956C10.8941 1.32036 10.9693 1.35242 11.0433 1.38448C11.084 1.40697 11.1276 1.42389 11.1731 1.43476C11.2984 1.45373 11.417 1.50182 11.5189 1.57494C11.5515 1.59757 11.5853 1.61855 11.6202 1.6378C11.7104 1.69123 11.8012 1.74466 11.8927 1.7962C11.9524 1.82952 12.014 1.85906 12.0763 1.89112C12.1581 1.93135 12.2431 1.96718 12.3248 2.00804C12.4096 2.05414 12.4881 2.11031 12.5584 2.17524C12.6811 2.28336 12.8024 2.39337 12.9231 2.504C13.0049 2.57943 13.084 2.65611 13.1645 2.7328C13.2183 2.78372 13.2754 2.83275 13.3248 2.88744C13.3935 2.96538 13.4545 3.05024 13.5194 3.12819C13.5843 3.20613 13.6674 3.29602 13.7459 3.37522C13.8328 3.46386 13.9185 3.55312 13.997 3.64929C14.1212 3.79394 14.226 3.95318 14.3091 4.12325C14.3543 4.21978 14.3923 4.31936 14.4227 4.4212C14.4622 4.55446 14.5187 4.68207 14.5615 4.81407C14.5888 4.89642 14.6173 4.97813 14.6452 5.05985C14.6608 5.10636 14.6757 5.15351 14.6926 5.20002C14.7404 5.3145 14.7773 5.43295 14.8029 5.55392C14.8204 5.65324 14.836 5.75381 14.8626 5.85125C14.8854 5.93571 14.9034 6.02133 14.9165 6.10771C14.932 6.21143 14.9418 6.31577 14.947 6.422C14.947 6.50686 14.947 6.59172 14.947 6.67344C14.947 6.77339 14.947 6.8727 14.947 6.97265C14.949 7.04123 14.9468 7.10987 14.9405 7.1782C14.9287 7.26413 14.907 7.34848 14.8756 7.42964C14.8581 7.47552 14.8464 7.5233 14.8315 7.56981C14.8202 7.61137 14.8065 7.65229 14.7906 7.69239C14.7641 7.75062 14.7464 7.81221 14.738 7.87531C14.7354 7.90995 14.7285 7.94415 14.7172 7.97714C14.6991 8.02246 14.6856 8.06942 14.677 8.11732C14.677 8.13429 14.677 8.15189 14.6738 8.16886C14.666 8.20783 14.655 8.24681 14.6498 8.28578C14.6446 8.32475 14.618 8.35995 14.6271 8.40144C14.6056 8.41715 14.6271 8.44041 14.6147 8.45927C14.5907 8.51019 14.5946 8.56927 14.5687 8.62082C14.5599 8.64413 14.5563 8.66899 14.5583 8.69373C14.5583 8.79305 14.5583 8.89237 14.5583 8.99168C14.5603 9.02716 14.557 9.06272 14.5485 9.09729C14.5359 9.16225 14.5155 9.22554 14.4875 9.28586C14.4837 9.29152 14.4875 9.30032 14.4837 9.30724C14.4759 9.33741 14.47 9.3701 14.4596 9.39587C14.4493 9.42164 14.4266 9.46627 14.4136 9.50273C14.3843 9.58767 14.3488 9.67044 14.3072 9.75039L14.2209 9.90628C14.202 9.9396 14.1845 9.97355 14.1657 10.0069C14.1047 10.1162 14.0204 10.2112 13.9626 10.3212C13.9328 10.3796 13.8977 10.4349 13.862 10.4921C13.8516 10.5097 13.8393 10.5261 13.8296 10.5443C13.8199 10.5625 13.8043 10.5984 13.7894 10.6241C13.7744 10.6499 13.7439 10.6908 13.7245 10.726C13.6958 10.7862 13.6589 10.8425 13.6148 10.8932C13.5895 10.9215 13.5655 10.951 13.5402 10.9799C13.4928 11.0327 13.4467 11.0874 13.3968 11.1383C13.3624 11.1742 13.3215 11.2012 13.2865 11.2383C13.2082 11.314 13.125 11.3848 13.0373 11.4501C12.9958 11.4815 12.951 11.5092 12.9075 11.5375C12.8641 11.5658 12.8154 11.5953 12.7687 11.6236C12.7323 11.6456 12.6953 11.6663 12.6577 11.6865C12.6201 11.7066 12.5662 11.7393 12.5182 11.7606C12.4702 11.782 12.4274 11.7927 12.3819 11.809C12.3261 11.8291 12.271 11.8518 12.2152 11.8719C12.1133 11.9077 12.0101 11.9404 11.9083 11.9762C11.8343 12.0026 11.7597 12.0284 11.6883 12.0598C11.6188 12.0937 11.5468 12.1225 11.4729 12.146C11.383 12.1766 11.2905 12.1995 11.1964 12.2145C11.1556 12.2189 11.1153 12.2264 11.0758 12.2371C10.9654 12.269 10.8571 12.307 10.7513 12.3509C10.6533 12.388 10.5567 12.4244 10.4561 12.4584C10.4055 12.476 10.3523 12.486 10.301 12.5024C10.2214 12.5297 10.1389 12.5483 10.0551 12.5577C10.059 12.552 10.0609 12.5464 10.0642 12.5457C10.1024 12.5363 10.129 12.503 10.1673 12.4936C10.2056 12.4841 10.2322 12.4533 10.2666 12.4307C10.3399 12.3873 10.4139 12.344 10.4885 12.305C10.5125 12.29 10.5382 12.2777 10.5651 12.2685C10.591 12.2604 10.6138 12.2465 10.6397 12.2377C10.6657 12.2289 10.6812 12.2032 10.7046 12.2C10.7496 12.1888 10.7919 12.1691 10.8292 12.1422C10.9317 12.0862 11.0238 12.0165 11.1212 11.9536C11.1718 11.9197 11.2198 11.8826 11.273 11.8537C11.3152 11.8304 11.3554 11.8053 11.395 11.7795C11.4197 11.7631 11.4404 11.7411 11.4638 11.7223C11.4892 11.7053 11.5134 11.6869 11.5365 11.667C11.576 11.633 11.6176 11.6013 11.661 11.5721C11.6974 11.5419 11.7292 11.5092 11.7662 11.4771C11.7895 11.4583 11.8057 11.4344 11.8272 11.4143C11.8615 11.3822 11.8972 11.3514 11.9297 11.3181C11.9615 11.2936 11.9872 11.2624 12.0049 11.227C12.0069 11.223 12.0101 11.2197 12.014 11.2175C12.0632 11.1776 12.1057 11.1305 12.1399 11.078C12.1704 11.0415 12.2009 11.0051 12.2288 10.9667C12.2567 10.9284 12.2788 10.9108 12.2995 10.8787C12.3134 10.8592 12.3303 10.8418 12.3495 10.8272C12.3703 10.8071 12.3936 10.7895 12.4144 10.7706C12.4351 10.7517 12.4643 10.7121 12.5026 10.7033C12.5429 10.6941 12.5797 10.6738 12.6084 10.6449C12.6154 10.6366 12.624 10.6298 12.6337 10.6248C12.6843 10.6065 12.7135 10.5619 12.7635 10.5361C12.7982 10.5143 12.8285 10.4866 12.853 10.4544C12.8826 10.4203 12.9166 10.3901 12.9543 10.3645C12.9703 10.3532 12.9849 10.3401 12.9977 10.3256C13.0276 10.2966 13.0568 10.2671 13.0834 10.2401L13.1184 10.2552C13.1392 10.2212 13.1586 10.1891 13.1788 10.1577C13.1946 10.1274 13.2133 10.0986 13.2346 10.0716C13.2734 10.0345 13.3064 9.99218 13.3325 9.94589C13.3699 9.88878 13.4134 9.83569 13.4623 9.78748C13.4965 9.74415 13.5345 9.70376 13.5759 9.66679C13.6172 9.62834 13.6548 9.58625 13.6881 9.54107C13.7271 9.49204 13.7608 9.4405 13.7971 9.39021C13.8036 9.38141 13.8218 9.3701 13.8205 9.36633C13.8069 9.3393 13.8322 9.32421 13.84 9.30347C13.8478 9.28272 13.8536 9.25444 13.862 9.23055C13.8735 9.20521 13.8833 9.17917 13.8912 9.1526C13.895 9.14 13.9016 9.12839 13.9107 9.11866C13.9408 9.07447 13.9643 9.02645 13.9808 8.97597C13.9817 8.974 13.9822 8.97186 13.9822 8.96969C13.9822 8.96752 13.9817 8.96537 13.9808 8.9634C13.9697 8.94768 13.9866 8.93951 13.9899 8.92757C13.9931 8.91563 14.0255 8.90368 14.0158 8.87854C14.0431 8.86974 14.0197 8.84397 14.0314 8.83328C14.0466 8.81719 14.0557 8.79658 14.0573 8.77482C14.0645 8.7371 14.0749 8.69939 14.0852 8.66167C14.0931 8.63082 14.1026 8.6004 14.1138 8.57053C14.1236 8.55509 14.1284 8.53711 14.1274 8.51899C14.1274 8.49761 14.1475 8.47876 14.1456 8.45613C14.1456 8.45613 14.1553 8.4511 14.1586 8.44984C14.1552 8.43605 14.1539 8.42187 14.1547 8.40772C14.1627 8.38023 14.1677 8.352 14.1696 8.32349C14.1696 8.27635 14.1949 8.23235 14.1943 8.18332C14.1951 8.16204 14.1986 8.14093 14.2046 8.12046C14.2046 8.10977 14.2176 8.10097 14.2196 8.09029C14.2225 8.07259 14.2244 8.05475 14.2254 8.03685C14.2262 8.02596 14.2284 8.01519 14.2319 8.0048C14.2371 7.99222 14.2488 7.98028 14.2319 7.96834C14.2437 7.9208 14.2494 7.87203 14.2488 7.82314C14.2488 7.81874 14.2527 7.81496 14.2533 7.81056C14.254 7.80616 14.2864 7.79548 14.2604 7.77662C14.254 7.77159 14.2767 7.75462 14.2604 7.7389C14.2442 7.72319 14.252 7.70936 14.2604 7.70559C14.2857 7.68673 14.2656 7.66599 14.2656 7.64713C14.2626 7.6282 14.265 7.60882 14.2728 7.59119C14.2799 7.57799 14.2728 7.55598 14.2728 7.53775C14.2728 7.51952 14.2799 7.50569 14.2793 7.48998C14.2779 7.47264 14.2753 7.45543 14.2715 7.43844C14.2698 7.42611 14.27 7.41361 14.2721 7.40135C14.2721 7.36552 14.2786 7.32906 14.2793 7.29323C14.2769 7.25902 14.2784 7.22466 14.2838 7.19077C14.2841 7.17072 14.2821 7.1507 14.278 7.13106C14.278 7.0946 14.278 7.05877 14.278 7.02294C14.278 6.99779 14.2715 6.97328 14.2708 6.94876C14.2702 6.92425 14.2708 6.90162 14.2669 6.87773C14.2669 6.82053 14.2565 6.76333 14.2507 6.7055C14.2512 6.68717 14.2497 6.66884 14.2462 6.65081C14.2373 6.60673 14.2343 6.56174 14.2371 6.51692C14.2383 6.47323 14.2359 6.42951 14.2299 6.38617C14.2252 6.35095 14.223 6.31546 14.2235 6.27994C14.2175 6.21253 14.206 6.14569 14.1891 6.08005C14.1702 6.01719 14.1677 5.95433 14.143 5.89147C14.1322 5.85769 14.1237 5.82326 14.1177 5.78839C14.1005 5.72541 14.0894 5.66102 14.0846 5.59604C14.0846 5.58787 14.0846 5.57467 14.0781 5.57215C14.0573 5.56021 14.058 5.54135 14.0554 5.52249C14.0515 5.48885 14.0423 5.45599 14.0281 5.42506C14.0139 5.38924 14.0015 5.35274 13.9912 5.31569C13.986 5.29808 13.9847 5.27923 13.9788 5.26163C13.9761 5.24157 13.9685 5.22241 13.9568 5.20568C13.9399 5.18871 13.9516 5.17111 13.9451 5.15477C13.9217 5.09756 13.8984 5.0391 13.8757 4.98127C13.8704 4.95942 13.8624 4.9383 13.8516 4.91842C13.8233 4.86971 13.7982 4.81932 13.7764 4.76755C13.7608 4.74115 13.7712 4.70029 13.7316 4.68646C13.7316 4.68646 13.7316 4.68144 13.7284 4.67829L13.7387 4.67012C13.7258 4.65063 13.7128 4.63241 13.7018 4.61292C13.6902 4.58499 13.6754 4.55841 13.6576 4.53372C13.6434 4.518 13.631 4.50983 13.6414 4.49726C13.6286 4.48399 13.6166 4.46993 13.6057 4.45514C13.5987 4.43322 13.5891 4.41214 13.5772 4.39228C13.545 4.34909 13.518 4.30248 13.4967 4.25336C13.4935 4.24771 13.4915 4.24205 13.4876 4.2364C13.4746 4.21817 13.4623 4.20056 13.4487 4.18296L13.3793 4.08993C13.3793 4.08993 13.3793 4.0761 13.3793 4.06416C13.3793 4.05221 13.3793 4.04908 13.3793 4.04782C13.3429 4.03085 13.3371 3.99187 13.3144 3.9661C13.3033 3.9529 13.3144 3.9265 13.2845 3.92273C13.2741 3.92273 13.2767 3.89318 13.2579 3.88564C13.2539 3.88353 13.2504 3.88047 13.248 3.87673C13.2455 3.873 13.244 3.86871 13.2437 3.86427C13.2437 3.84164 13.2294 3.83032 13.2177 3.81524C13.206 3.80015 13.2015 3.80141 13.2015 3.79512C13.2015 3.75678 13.147 3.74358 13.1625 3.70146C13.1625 3.70146 13.158 3.69706 13.1554 3.6958C13.1346 3.68047 13.1206 3.65796 13.1165 3.63295C13.1136 3.61834 13.1069 3.6047 13.097 3.59334C13.0607 3.56254 13.0568 3.51351 13.025 3.4802C13.0094 3.46323 13.0042 3.43431 12.9867 3.42237C12.9692 3.41043 12.9867 3.37271 12.9504 3.37271C12.9465 3.34002 12.9179 3.32368 12.8997 3.30042C12.8731 3.26648 12.8446 3.23756 12.816 3.20236C12.7875 3.16716 12.7771 3.1527 12.7557 3.12944C12.7361 3.1041 12.7191 3.07694 12.7051 3.04836C12.6944 3.02852 12.6827 3.00922 12.67 2.99053C12.6564 2.9723 12.6266 2.95533 12.6266 2.93835C12.6266 2.90881 12.5961 2.91258 12.5909 2.89184C12.5865 2.87323 12.576 2.85649 12.561 2.84406C12.5273 2.82081 12.5208 2.78121 12.4961 2.75418C12.4715 2.72715 12.4618 2.702 12.4436 2.67749C12.4254 2.65297 12.4118 2.63726 12.3949 2.61463C12.3904 2.60897 12.3845 2.60143 12.3787 2.60017C12.3729 2.59891 12.3638 2.60394 12.3527 2.60708C12.3546 2.59622 12.3522 2.58508 12.3461 2.5758C12.34 2.56652 12.3306 2.55975 12.3196 2.5568C12.3127 2.55466 12.3067 2.55021 12.3028 2.54423C12.281 2.5081 12.2519 2.47666 12.2171 2.45182C12.1541 2.3974 12.0954 2.33858 12.0413 2.27582C12.0374 2.27142 12.0322 2.26828 12.0277 2.26388C12.0231 2.25948 12.0056 2.23245 11.9946 2.23245C11.9835 2.23245 11.9855 2.2029 11.9628 2.20856C11.9401 2.21422 11.9543 2.18027 11.9349 2.1765C11.9349 2.1765 11.9349 2.16959 11.9303 2.16959C11.9005 2.16959 11.8914 2.14507 11.8745 2.12873C11.8576 2.11238 11.8473 2.11867 11.8375 2.10987C11.8105 2.08519 11.7775 2.06747 11.7415 2.05833C11.7305 2.05833 11.7123 2.04952 11.711 2.04198C11.7065 2.01998 11.6876 2.02061 11.674 2.01369C11.6604 2.00678 11.6461 1.98918 11.6202 1.99484C11.6078 1.99484 11.5929 1.97158 11.5689 1.97347C11.5527 1.97216 11.5368 1.96789 11.5222 1.96089L11.3645 1.90558L11.2237 1.8578C11.177 1.84272 11.1348 1.81695 11.0874 1.8006C11.0401 1.78426 10.9836 1.74151 10.9239 1.72706C10.885 1.68431 10.8259 1.67111 10.7812 1.63654C10.7721 1.629 10.7662 1.61768 10.7559 1.6114C10.7312 1.59631 10.6949 1.60071 10.6793 1.56928C10.6585 1.56928 10.6475 1.55482 10.6339 1.54288C10.6202 1.53094 10.604 1.52088 10.6001 1.52339C10.5768 1.54099 10.5729 1.5234 10.5631 1.50957C10.5554 1.50106 10.5467 1.49346 10.5372 1.48693C10.4864 1.45077 10.4299 1.42295 10.3698 1.40459C10.3282 1.39202 10.2874 1.37693 10.2452 1.36499C10.203 1.35304 10.1686 1.34802 10.1303 1.33922C10.0921 1.33042 10.0655 1.32288 10.035 1.31345C9.99059 1.30446 9.9453 1.30045 9.89999 1.3015C9.84419 1.2971 9.78774 1.29459 9.73193 1.2883C9.6744 1.2773 9.61601 1.27099 9.55738 1.26944C9.52259 1.26754 9.48793 1.26376 9.45356 1.25813C9.39257 1.25373 9.33157 1.25121 9.27058 1.24744C9.20958 1.24367 9.16546 1.23424 9.11225 1.2355C9.0243 1.24296 8.9357 1.23745 8.84946 1.21916C8.80663 1.20721 8.75991 1.20784 8.71968 1.19778C8.60742 1.1704 8.49219 1.15605 8.37643 1.15504C8.33265 1.15019 8.2883 1.15491 8.24665 1.16887C8.21421 1.13115 8.16035 1.16196 8.12142 1.13241ZM4.57206 12.6356L4.57855 12.6275C4.67193 12.6509 4.76243 12.684 4.84849 12.7261C4.85238 12.7261 4.85238 12.7368 4.85692 12.7488C4.84758 12.742 4.83758 12.7361 4.82707 12.7312L4.60256 12.657C4.59149 12.6517 4.58123 12.6449 4.57206 12.6369V12.6356ZM5.05094 12.8242C5.07434 12.8278 5.09655 12.8366 5.11582 12.85C5.07494 12.8632 5.06262 12.8582 5.05094 12.8242ZM3.84662 12.4188L3.91994 12.442V12.4508C3.8901 12.4439 3.86479 12.4477 3.84662 12.4188ZM1.34585 5.07556C1.35169 5.09505 1.37246 5.11705 1.33222 5.13339C1.33742 5.10825 1.34131 5.09065 1.34585 5.07556ZM6.86519 12.926H6.8003V12.916C6.82042 12.921 6.84313 12.9097 6.86519 12.926ZM1.12978 6.02473H1.12134C1.11933 6.01972 1.11823 6.0144 1.1181 6.00902C1.12134 6.00198 1.12525 5.99525 1.12978 5.98891V6.02473ZM6.89764 12.9279V12.9223H6.93203V12.926L6.89764 12.9279ZM4.56882 2.02375V2.03256L4.54481 2.03695V2.03067L4.56882 2.02375ZM1.31535 5.24528H1.30367L1.31211 5.21448H1.31795C1.3173 5.22454 1.316 5.2346 1.31535 5.24528Z" fill="#50735F" stroke="#50735F" stroke-width="0.2"/>
</svg>
