<svg width="143" height="48" viewBox="0 0 143 48" fill="none" xmlns="http://www.w3.org/2000/svg">
<g opacity="0.4">
<path d="M12.493 44.3374C10.3435 46.5665 12.3702 48.9866 15.2567 47.5855C17.8361 46.3754 17.1606 43 14.3355 43C14.0284 43 13.23 43.5732 12.493 44.3374ZM15.6252 45.6112C15.6252 45.9296 15.0724 46.1844 14.3969 46.1844C13.0458 46.1844 12.7387 45.1654 13.967 44.7196C14.8882 44.4011 15.6252 44.7833 15.6252 45.6112Z" fill="white"/>
<path d="M45.8973 5.33744C43.7478 7.5665 45.7745 9.98663 48.661 8.5855C51.2404 7.37544 50.5649 4 47.7398 4C47.4327 4 46.6343 4.57319 45.8973 5.33744ZM49.0295 6.61119C49.0295 6.92963 48.4767 7.18438 47.8012 7.18438C46.4501 7.18438 46.143 6.16538 47.3713 5.71956C48.2925 5.40113 49.0295 5.78325 49.0295 6.61119Z" fill="white"/>
<path d="M139.211 19.202C136.217 18.4083 135.089 21.3563 137.717 23.1967C140.029 24.8616 142.65 22.6293 141.276 20.1611C141.126 19.8928 140.237 19.4741 139.211 19.202ZM139.622 22.5582C139.343 22.7131 138.852 22.3541 138.523 21.7638C137.866 20.5834 138.607 19.8194 139.594 20.6756C140.32 21.3256 140.345 22.1554 139.622 22.5582Z" fill="white"/>
<path d="M88.6365 12.4346C85.6433 11.641 84.5148 14.589 87.1431 16.4293C89.4552 18.0943 92.0756 15.862 90.7013 13.3937C90.5519 13.1254 89.6627 12.7067 88.6365 12.4346ZM89.0473 15.7908C88.7691 15.9457 88.2776 15.5867 87.949 14.9965C87.2917 13.816 88.0326 13.052 89.0197 13.9083C89.746 14.5583 89.7707 15.3881 89.0473 15.7908Z" fill="white"/>
<path d="M1.29427 14.1453C-0.421074 15.5351 -0.421074 16.8181 1.23301 18.6356C2.82583 20.3997 5.39885 20.4531 7.17546 18.796C10.9737 15.2678 5.33759 10.8844 1.29427 14.1453ZM6.19526 15.054C7.6043 16.1766 7.6043 16.9785 6.134 18.101C4.54118 19.3305 2.94836 19.0098 1.84563 17.2457C1.04922 16.0697 1.04922 15.6955 1.72311 15.0006C2.76457 13.878 4.78623 13.9314 6.19526 15.054Z" fill="white"/>
<path d="M112.575 22.1982C113.214 20.9269 113.721 16.207 116.445 14.2056C117.043 16.0716 117.879 16.244 118.887 15.9903C121.559 15.3094 119.372 12.2446 116.711 13.3976C116.243 11.1691 117.732 9.45443 119.589 8.3574C119.613 8.34167 119.634 8.32078 119.65 8.29602C119.666 8.27126 119.676 8.24318 119.681 8.21353C119.685 8.18388 119.684 8.15331 119.676 8.12373C119.669 8.09416 119.656 8.06621 119.638 8.04166C119.619 8.0171 119.596 7.99646 119.571 7.98104C119.545 7.96561 119.516 7.95573 119.487 7.95202C119.457 7.94831 119.428 7.95084 119.4 7.95946C119.372 7.96808 119.347 7.9826 119.325 8.00211C117.239 9.22882 115.705 11.1678 116.286 13.6359C114.617 14.7092 113.737 16.6953 113.117 18.557C112.841 19.3943 112.623 20.241 112.379 21.0659C112.294 21.3521 112.045 21.7677 112.049 22.0597C112.063 22.5346 112.342 22.6628 112.575 22.1982ZM116.858 13.9609C118.73 13.0893 120.749 14.925 118.709 15.4946C118.143 15.6212 117.449 15.8146 116.858 13.9609Z" fill="white"/>
<path d="M35.1995 15.4576C34.1065 14.5468 31.7579 10.4214 28.4619 9.673C28.6579 11.6227 27.9602 12.1144 26.9346 12.2839C24.2133 12.7254 24.996 9.04257 27.8959 9.03813C27.4358 6.808 25.3861 5.82991 23.2456 5.56492C23.2169 5.56025 23.1896 5.54938 23.1652 5.53299C23.1408 5.5166 23.1199 5.49504 23.1039 5.46967C23.0879 5.4443 23.0771 5.41567 23.0722 5.38557C23.0672 5.35547 23.0682 5.32455 23.0751 5.29476C23.0821 5.26497 23.0948 5.23694 23.1124 5.21243C23.1301 5.18793 23.1523 5.16748 23.1777 5.15237C23.2031 5.13726 23.2312 5.12782 23.2601 5.12463C23.289 5.12144 23.3182 5.12458 23.3458 5.13385C25.7479 5.42643 27.9285 6.59216 28.3806 9.08706C30.3387 9.40549 31.9388 10.8752 33.2502 12.3349C33.8369 12.9927 34.3749 13.6821 34.9277 14.3411C35.1195 14.5697 35.5134 14.8516 35.627 15.1206C35.8031 15.5619 35.5983 15.7908 35.1995 15.4576ZM27.9857 9.61328C25.9214 9.56113 24.8022 12.05 26.9006 11.7582C27.4697 11.6485 28.1835 11.5489 27.9857 9.61328Z" fill="white"/>
<path d="M129.531 34.3441C130.099 34.0281 130.689 33.7533 131.28 33.488C132.769 32.8253 133.148 32.8639 133.146 32.4248C133.147 31.234 130.359 32.8106 129.061 33.4992C128.955 33.5584 128.878 33.6596 128.847 33.7807C128.816 33.9018 128.833 34.0327 128.896 34.1448C128.958 34.2568 129.06 34.3407 129.179 34.3781C129.298 34.4155 129.425 34.4032 129.531 34.3441Z" fill="white"/>
<path d="M131.228 35.8233C132.636 36.3078 132.492 36.2902 133.713 36.7563C134.138 37.1119 134.661 36.5566 134.182 36.064C133.944 35.7855 132.754 35.4343 132.41 35.3267C130.929 34.8685 130.149 34.4605 130.002 35.0318C129.856 35.603 130.543 35.5929 131.228 35.8233Z" fill="white"/>
<path d="M128.619 37.6286C131.689 40.9731 131.581 41.0778 131.892 41.0025C132.86 40.7815 131.211 39.1535 129.212 37.0243C129.127 36.9652 129.026 36.9371 128.927 36.9448C128.827 36.9524 128.735 36.9954 128.665 37.0665C128.595 37.1375 128.553 37.2323 128.544 37.3347C128.536 37.4371 128.563 37.5409 128.619 37.6286Z" fill="white"/>
<path d="M125.645 36.4835C125.59 36.4638 125.531 36.4562 125.474 36.4611C125.417 36.466 125.362 36.4833 125.312 36.512C125.27 36.5356 121.32 39.4546 121.28 39.482C121.188 39.5128 121.111 39.5769 121.063 39.6628C121.016 39.7487 121 39.8507 121.02 39.9504C121.039 40.0501 121.093 40.1409 121.17 40.2064C121.248 40.2719 121.344 40.3077 121.442 40.3074C121.802 40.3276 122.556 39.6874 123.436 39.0406C125.024 37.8626 126.752 36.8272 125.645 36.4835Z" fill="white"/>
<path d="M123.187 34.1549C122.496 34.1481 121.804 34.14 121.111 34.1307C120.76 34.1255 120.406 34.1166 120.056 34.1057C119.778 34.0988 119.497 34.0693 119.22 34.0813C119.116 34.0838 119.012 34.0957 118.91 34.1169C118.742 34.1472 118.566 34.2156 118.56 34.4145C118.559 34.5039 118.581 34.593 118.625 34.6722C118.67 34.7513 118.734 34.8174 118.81 34.8631C119.136 35.0639 120.054 35.003 121.514 35.0471C124.649 35.153 125.226 35.3897 125.222 34.731C125.229 34.6614 125.217 34.5904 125.187 34.5256C125.158 34.4609 125.112 34.4049 125.055 34.3638C124.862 34.2646 124.65 34.2142 124.439 34.217C124.031 34.1601 123.602 34.1492 123.187 34.1549Z" fill="white"/>
<path d="M121.396 30.1031C121.535 30.1775 124.735 32.7637 124.859 32.8612C124.959 32.9202 125.072 32.9457 125.184 32.934C125.295 32.9223 125.398 32.8739 125.478 32.7961C125.558 32.7182 125.61 32.6149 125.627 32.5013C125.644 32.3878 125.625 32.2699 125.573 32.1652C125.074 31.6979 124.553 31.2574 124.011 30.8456C124.361 31.1405 122.293 29.3877 121.727 29.2473C121.622 29.2236 121.513 29.2378 121.42 29.2875C121.326 29.3372 121.254 29.4193 121.215 29.52C121.176 29.6207 121.173 29.7337 121.206 29.84C121.238 29.9462 121.306 30.0392 121.396 30.1031Z" fill="white"/>
<path d="M127.382 32.4608C127.944 32.6372 127.985 32.0513 128.378 30.2212C128.444 29.9054 128.849 28.2549 128.691 27.9707C128.641 27.887 128.569 27.8189 128.483 27.7744C128.398 27.73 128.304 27.7111 128.211 27.72C128.118 27.7289 128.03 27.7653 127.959 27.8247C127.888 27.8842 127.836 27.9643 127.809 28.0554C127.068 31.9891 126.787 32.2776 127.382 32.4608Z" fill="white"/>
<path d="M21.076 26.1426C21.076 25.6521 21.1116 25.1616 21.1536 24.6742C21.2635 23.448 21.4283 23.2119 21.1374 23.0525C20.3522 22.6141 20.3683 25.0328 20.3457 26.1426C20.3457 26.2344 20.3842 26.3226 20.4527 26.3875C20.5211 26.4525 20.614 26.489 20.7109 26.489C20.8077 26.489 20.9006 26.4525 20.9691 26.3875C21.0376 26.3226 21.076 26.2344 21.076 26.1426Z" fill="white"/>
<path d="M22.6752 25.5663C23.5122 24.8152 23.4476 24.9041 24.2038 24.2695C24.5948 24.1193 24.4203 23.5706 23.9194 23.7055C23.648 23.7607 22.979 24.4167 22.7819 24.6037C21.9352 25.413 21.3794 25.7778 21.7025 26.0843C22.0257 26.3909 22.2713 25.9341 22.6752 25.5663Z" fill="white"/>
<path d="M21.0595 29.4932C21.0262 29.5225 20.9998 29.5581 20.982 29.5977C20.9642 29.6373 20.9553 29.68 20.9561 29.7231C20.9561 29.7599 21.4311 33.4385 21.4344 33.4753C21.4209 33.5474 21.4349 33.6216 21.4741 33.6847C21.5133 33.7477 21.5749 33.7954 21.6479 33.8191C21.7209 33.8428 21.8004 33.841 21.8721 33.8139C21.9437 33.7868 22.0028 33.7363 22.0387 33.6715C22.1841 33.4416 22.0387 32.7089 21.9353 31.8904C21.7414 30.4098 21.6929 28.8893 21.0595 29.4932Z" fill="white"/>
<path d="M18.6202 30.2597C18.3617 30.7134 18.1021 31.1671 17.8414 31.6208C17.7089 31.8507 17.5732 32.0806 17.4375 32.3074C17.3308 32.4883 17.208 32.663 17.1143 32.85C17.0775 32.92 17.0472 32.9928 17.0238 33.0677C16.9818 33.1903 16.9624 33.3313 17.0917 33.408C17.1501 33.4418 17.2172 33.4598 17.2856 33.4598C17.354 33.4598 17.4211 33.4418 17.4795 33.408C17.7315 33.267 18.0288 32.6385 18.5944 31.6913C19.8159 29.6619 20.1843 29.3676 19.7481 29.1285C19.7046 29.0984 19.6533 29.0803 19.5998 29.076C19.5462 29.0716 19.4925 29.0813 19.4443 29.104C19.308 29.1948 19.197 29.3158 19.1211 29.4565C18.9337 29.7048 18.7689 29.9838 18.6202 30.2597Z" fill="white"/>
<path d="M15.2881 29.9528C15.3883 29.8885 18.2709 28.7266 18.3808 28.6806C18.4562 28.6368 18.5149 28.5711 18.5481 28.4933C18.5813 28.4154 18.5873 28.3296 18.5652 28.2483C18.5431 28.167 18.4942 28.0945 18.4255 28.0416C18.3568 27.9886 18.272 27.958 18.1836 27.9541C17.6921 28.1113 17.2099 28.2934 16.7391 28.4998C17.0623 28.3771 15.1459 29.0975 14.8454 29.4194C14.7909 29.4804 14.7604 29.5573 14.7588 29.6372C14.7573 29.717 14.785 29.7949 14.837 29.8577C14.8891 29.9205 14.9625 29.9642 15.0447 29.9815C15.1269 29.9989 15.2129 29.9887 15.2881 29.9528Z" fill="white"/>
<path d="M19.0436 26.8692C19.3667 26.5627 18.9951 26.3205 17.9319 25.3886C17.7477 25.2291 16.8073 24.3555 16.5617 24.3555C16.488 24.3579 16.4166 24.3804 16.356 24.4202C16.2953 24.4601 16.2481 24.5156 16.2198 24.5802C16.1915 24.6448 16.1834 24.7158 16.1965 24.7847C16.2096 24.8535 16.2432 24.9174 16.2935 24.9686C18.617 26.9029 18.7043 27.1942 19.0436 26.8692Z" fill="white"/>
<path d="M71.3984 6.30772C71.8741 6.18846 72.3585 6.10368 72.8415 6.02592C74.0577 5.83436 74.3267 5.93683 74.4106 5.61595C74.6449 4.74765 72.3027 5.35141 71.2208 5.59929C71.1317 5.62163 71.0556 5.68037 71.0092 5.76259C70.9628 5.84481 70.95 5.94379 70.9736 6.03773C70.9971 6.13167 71.0551 6.21289 71.1348 6.26352C71.2144 6.31415 71.3092 6.33006 71.3984 6.30772Z" fill="white"/>
<path d="M72.3463 7.71899C73.2783 8.34825 73.1764 8.30717 73.9758 8.88639C74.2165 9.22915 74.7064 8.92646 74.4537 8.47339C74.3342 8.2235 73.5352 7.73414 73.3059 7.58839C72.315 6.96389 71.826 6.51343 71.6073 6.90142C71.3885 7.28942 71.8913 7.4166 72.3463 7.71899Z" fill="white"/>
<path d="M68.144 7.10651C68.1075 7.08133 68.0665 7.06437 68.0237 7.05672C67.981 7.04907 67.9374 7.05089 67.8958 7.0621C67.8601 7.07104 64.4074 8.42626 64.3725 8.43834C64.2993 8.44274 64.2307 8.47446 64.179 8.52778C64.1274 8.58109 64.0961 8.65248 64.0909 8.72904C64.0857 8.8056 64.1068 8.88227 64.1505 8.94522C64.1942 9.00816 64.2575 9.05321 64.3291 9.07222C64.5875 9.15738 65.2628 8.83818 66.0316 8.53886C67.4207 7.99077 68.8837 7.57406 68.144 7.10651Z" fill="white"/>
<path d="M66.8077 4.92632C66.3048 4.78587 65.8016 4.64436 65.2981 4.50181C65.0429 4.4292 64.7869 4.35344 64.5338 4.27694C64.3324 4.21748 64.1331 4.14085 63.9289 4.09541C63.8522 4.07672 63.7742 4.06506 63.6958 4.06056C63.5666 4.04962 63.4251 4.0651 63.3822 4.20912C63.3636 4.27398 63.3625 4.34342 63.3791 4.40979C63.3958 4.47616 63.4295 4.53689 63.4765 4.58528C63.6746 4.79549 64.3565 4.93108 65.4128 5.24932C67.6783 5.94079 68.0533 6.22658 68.1792 5.74527C68.1977 5.69584 68.2029 5.64167 68.1941 5.58867C68.1852 5.53567 68.1628 5.48586 68.1291 5.44465C68.0078 5.33449 67.8635 5.25632 67.7086 5.21691C67.4221 5.09547 67.1115 5.00344 66.8077 4.92632Z" fill="white"/>
<path d="M66.2949 1.61978C66.3817 1.7013 68.2096 4.21489 68.2809 4.31029C68.3418 4.37282 68.4198 4.41373 68.5033 4.42701C68.5869 4.44029 68.6716 4.42525 68.7451 4.38408C68.8186 4.34291 68.877 4.2778 68.9117 4.19831C68.9463 4.11881 68.9554 4.02913 68.9377 3.94243C68.6658 3.5039 68.3718 3.08045 68.0572 2.67392C68.2547 2.95757 67.09 1.27389 66.7047 1.06063C66.6323 1.02264 66.5503 1.01169 66.4725 1.02964C66.3946 1.04758 66.3258 1.09332 66.2775 1.15911C66.2293 1.2249 66.2047 1.3067 66.2079 1.39065C66.2111 1.4746 66.2418 1.55554 66.2949 1.61978Z" fill="white"/>
<path d="M70.1993 4.51251C70.5752 4.75144 70.7197 4.33207 71.3652 3.07419C71.475 2.85676 72.0938 1.73215 72.0341 1.49392C72.0139 1.42301 71.9747 1.3592 71.9213 1.31009C71.8679 1.26097 71.8025 1.22863 71.733 1.21692C71.6634 1.20521 71.5926 1.21463 71.529 1.24404C71.4654 1.27346 71.4117 1.32162 71.3742 1.38281C70.0628 4.10693 69.8016 4.26238 70.1993 4.51251Z" fill="white"/>
</g>
</svg>
