<svg width="452" height="268" viewBox="0 0 452 268" fill="none" xmlns="http://www.w3.org/2000/svg">
<g opacity="0.1" filter="url(#filter0_f_1_97211)">
<path d="M415.534 18.2586H35.5769C24.2431 18.2586 15.0557 27.4461 15.0557 38.7799V231.626C15.0557 242.962 24.2431 252.15 35.5769 252.15H415.534C426.868 252.15 436.056 242.96 436.056 231.626V38.7799C436.056 27.4461 426.868 18.2586 415.534 18.2586Z" fill="black"/>
</g>
<path d="M401.479 7.62939e-05H21.5212C10.1874 7.62939e-05 1 9.18755 1 20.5214V213.367C1 224.704 10.1874 233.891 21.5212 233.891H401.479C412.813 233.891 422 224.701 422 213.367V20.5214C422 9.18755 412.813 7.62939e-05 401.479 7.62939e-05Z" fill="#50735F"/>
<mask id="mask0_1_97211" style="mask-type:luminance" maskUnits="userSpaceOnUse" x="55" y="13" width="294" height="221">
<path d="M55.4087 233.739H348.52V13.4548H55.4087V233.739Z" fill="white"/>
</mask>
<g mask="url(#mask0_1_97211)">
<g opacity="0.4">
<path d="M176.899 103.182C176.475 103.182 176.035 103.135 175.58 103.034C175.371 102.987 175.221 102.801 175.221 102.587C175.221 101.88 175.243 85.2143 177.082 80.2446L177.101 80.2042C177.132 80.138 177.91 78.588 179.469 78.6125C181.479 78.6494 183.676 81.3488 185.998 86.6359C186.101 86.8676 185.996 87.1382 185.763 87.2398C185.532 87.3422 185.261 87.2362 185.161 87.0047C182.319 80.5392 180.363 79.5458 179.452 79.5291C178.536 79.506 178.005 80.4512 177.934 80.5871C176.306 85.0292 176.154 99.6525 176.14 102.206C180.259 102.817 183.007 98.0335 183.312 97.4786L185.13 88.7435C185.182 88.4957 185.425 88.3358 185.672 88.3882C185.92 88.4398 186.079 88.6825 186.027 88.9302L184.194 97.7301C184.185 97.7708 184.173 97.8098 184.154 97.8467C184.03 98.0839 181.349 103.182 176.899 103.182Z" fill="white"/>
<path d="M172.197 173.626C171.954 173.626 171.754 173.439 171.738 173.196C171.702 172.575 170.872 157.918 176.038 150.539C181.082 143.333 187.655 127.143 187.721 126.981C187.733 126.953 187.745 126.927 187.762 126.903C190.067 123.354 191.35 116.505 191.362 116.436C191.407 116.187 191.647 116.022 191.895 116.069C192.145 116.115 192.309 116.353 192.264 116.602C192.209 116.89 190.943 123.656 188.554 127.365C188.18 128.282 181.768 143.952 176.787 151.065C171.804 158.185 172.644 172.991 172.654 173.14C172.668 173.393 172.478 173.61 172.223 173.625L172.197 173.626Z" fill="white"/>
<path d="M79.7991 259.606C79.711 259.606 79.623 259.583 79.5468 259.53C79.335 259.392 79.2779 259.107 79.4159 258.897L92.2489 239.464C97.9812 231.223 116.965 192.613 117.51 191.503C120.787 182.588 125.924 174.292 125.974 174.209L125.996 174.179C128.437 170.866 134.086 163.832 134.588 163.208C136.682 158.726 151.117 138.356 151.833 137.347L164.271 117.592C165.956 113.518 174.907 98.7601 175.288 98.1319C175.419 97.9156 175.702 97.8463 175.919 97.9779C176.133 98.1093 176.202 98.3912 176.071 98.6075C175.978 98.7613 166.722 114.022 165.104 117.976C165.094 118 165.082 118.024 165.068 118.047L152.602 137.846L152.587 137.867C152.435 138.081 137.372 159.331 135.397 163.642C135.381 163.677 135.362 163.709 135.338 163.739C135.278 163.814 129.282 171.266 126.745 174.708C126.498 175.105 121.541 183.185 118.362 191.842L118.343 191.886C118.148 192.282 98.826 231.613 93.008 239.978L80.1822 259.402C80.0941 259.535 79.9466 259.606 79.7991 259.606Z" fill="white"/>
<path d="M178.429 182.976C178.256 182.976 178.089 182.876 178.013 182.707C174.353 174.655 173.427 158.126 173.389 157.426C173.375 157.173 173.57 156.958 173.822 156.944C174.077 156.928 174.291 157.124 174.303 157.377C174.313 157.547 175.257 174.433 178.846 182.328C178.953 182.558 178.85 182.83 178.62 182.935C178.558 182.963 178.494 182.976 178.429 182.976Z" fill="white"/>
<path d="M186.679 185.909C186.427 185.909 186.222 185.704 186.222 185.451C186.222 179.453 174.529 165.353 174.41 165.212C174.248 165.017 174.275 164.728 174.47 164.566C174.665 164.404 174.953 164.43 175.115 164.625C175.607 165.214 187.138 179.125 187.138 185.451C187.138 185.704 186.934 185.909 186.679 185.909Z" fill="white"/>
<path d="M206.296 178.393C206.206 178.393 206.115 178.367 206.034 178.312C205.827 178.168 205.775 177.883 205.918 177.674C215.231 164.162 232.148 156.149 232.317 156.07C232.547 155.963 232.819 156.062 232.926 156.291C233.033 156.52 232.935 156.793 232.704 156.9C232.538 156.979 215.841 164.891 206.672 178.195C206.584 178.324 206.441 178.393 206.296 178.393Z" fill="white"/>
<path d="M186.496 183.801C186.308 183.801 186.132 183.684 186.065 183.497C185.98 183.258 186.103 182.996 186.341 182.911C188.121 182.277 203.791 176.74 206.075 177.499C206.315 177.58 206.444 177.839 206.363 178.08C206.284 178.32 206.025 178.449 205.785 178.369C204.293 177.87 193.256 181.421 186.651 183.774C186.598 183.793 186.548 183.801 186.496 183.801Z" fill="white"/>
<path d="M197.13 225.324C196.947 225.324 196.773 225.215 196.702 225.034C196.609 224.799 196.726 224.532 196.961 224.439C197.156 224.363 216.495 216.701 221.49 208.675C221.506 208.646 221.528 208.62 221.552 208.596C221.656 208.489 232.081 197.898 238.986 192.26L254.91 176.338C255.189 176.019 261.733 168.447 261.388 162.93V162.873C261.39 162.814 261.761 156.945 262.308 153.3C262.639 151.089 262.977 143.46 263.225 137.888C263.453 132.748 263.524 131.342 263.605 131.058C263.853 129.994 265.185 112.993 263.068 107.519C262.975 107.282 263.091 107.017 263.329 106.926C263.565 106.834 263.831 106.951 263.922 107.188C266.22 113.127 264.662 130.784 264.479 131.331L264.486 131.303C264.422 131.625 264.286 134.687 264.141 137.929C263.893 143.52 263.553 151.178 263.215 153.436C262.692 156.913 262.332 162.459 262.304 162.902C262.654 168.886 255.877 176.628 255.589 176.955L255.567 176.975L239.619 192.925L239.584 192.956C232.919 198.395 222.913 208.52 222.242 209.203C217.047 217.47 198.101 224.977 197.297 225.294C197.242 225.315 197.185 225.324 197.13 225.324Z" fill="white"/>
<path d="M232.512 156.76C232.259 156.76 232.052 156.555 232.052 156.302C232.052 154.1 238.22 133.003 239.603 129.549C240.835 126.469 242.063 124.787 242.475 124.27C241.994 121.074 242.696 115.236 243.212 110.948C243.396 109.421 243.555 108.103 243.603 107.325C243.788 104.376 246.618 94.4486 246.737 94.0274L246.746 93.9967C248.319 89.6756 250.841 87.8291 252.681 87.0405C254.694 86.1772 256.328 86.3569 256.397 86.365C256.65 86.3947 256.828 86.6224 256.8 86.8737C256.769 87.1248 256.543 87.3051 256.293 87.2754C256.05 87.2485 250.382 86.7057 247.615 94.2948C247.484 94.7496 244.692 104.583 244.519 107.381C244.469 108.186 244.309 109.517 244.124 111.057C243.631 115.141 242.889 121.312 243.412 124.324C243.436 124.462 243.396 124.603 243.303 124.707C243.291 124.722 241.866 126.357 240.454 129.889C238.979 133.574 232.971 154.375 232.971 156.302C232.971 156.555 232.764 156.76 232.512 156.76Z" fill="white"/>
<path d="M187.961 80.679C187.866 80.679 187.769 80.6483 187.685 80.585C187.64 80.5512 184.687 78.3682 180.951 79.5572C180.711 79.6339 180.452 79.5009 180.375 79.2596C180.299 79.0183 180.433 78.7606 180.673 78.6837C184.887 77.3435 188.107 79.7533 188.24 79.8566C188.442 80.0103 188.48 80.298 188.326 80.4988C188.235 80.6169 188.099 80.679 187.961 80.679Z" fill="white"/>
<path d="M172.014 121.011C171.985 121.011 171.957 121.008 171.928 121.003C168.925 120.44 165.996 118.262 165.872 118.169C165.67 118.018 165.627 117.73 165.779 117.528C165.932 117.326 166.22 117.284 166.422 117.436C166.45 117.457 169.306 119.579 172.097 120.102C172.347 120.149 172.511 120.388 172.464 120.637C172.423 120.857 172.23 121.011 172.014 121.011Z" fill="white"/>
<path d="M253.278 170.408C251.669 170.408 250.848 170.329 250.798 170.324C250.546 170.299 250.363 170.074 250.389 169.823C250.413 169.571 250.639 169.385 250.889 169.412C250.908 169.414 252.743 169.589 256.321 169.41C256.576 169.397 256.79 169.592 256.802 169.845C256.814 170.098 256.619 170.313 256.367 170.326C255.129 170.388 254.101 170.408 253.278 170.408Z" fill="white"/>
<path d="M236.638 140.246L236.581 140.242C236.359 140.215 236.195 140.036 236.178 139.822C235.883 139.168 232.464 136.048 229.283 133.369L229.235 133.323C225.444 129.038 219.457 126.531 218.536 126.162C213.256 127.16 205.261 121.176 204.918 120.918C204.718 120.766 204.678 120.478 204.83 120.276C204.982 120.074 205.27 120.034 205.473 120.187C205.554 120.248 213.613 126.28 218.482 125.238C218.57 125.219 218.658 125.226 218.741 125.257C219.022 125.363 225.656 127.91 229.899 132.69C230.125 132.882 231.802 134.3 233.449 135.782C237.178 139.139 237.13 139.529 237.092 139.843C237.064 140.075 236.866 140.246 236.638 140.246Z" fill="white"/>
<path d="M217.478 126.327C217.347 126.327 217.216 126.271 217.125 126.161C213.758 122.085 203.847 118.269 203.75 118.231C203.512 118.141 203.393 117.876 203.483 117.639C203.574 117.403 203.84 117.284 204.076 117.375C204.492 117.534 214.313 121.317 217.832 125.577C217.994 125.772 217.965 126.061 217.77 126.222C217.685 126.293 217.582 126.327 217.478 126.327Z" fill="white"/>
<path d="M262.76 109.278C262.696 109.278 262.632 109.265 262.57 109.236C262.299 109.112 255.903 106.06 254.972 94.3866C254.903 93.8862 253.93 86.2342 259.025 85.4504L259.077 85.4454C259.132 85.4435 260.431 85.4126 261.685 86.7014C263.515 88.5826 264.276 92.1427 263.953 97.2844V106.986C263.953 107.24 263.748 107.445 263.493 107.445C263.241 107.445 263.037 107.24 263.037 106.986V97.2699V97.2409C263.42 91.2025 262.17 88.541 261.057 87.3712C260.162 86.4339 259.286 86.3663 259.129 86.362C254.901 87.0518 255.872 94.1996 255.881 94.2717L255.884 94.3002C256.769 105.452 262.889 108.374 262.951 108.403C263.182 108.508 263.282 108.78 263.177 109.01C263.101 109.178 262.934 109.278 262.76 109.278Z" fill="white"/>
<path d="M222.979 162.26C222.9 162.26 222.82 162.24 222.748 162.197C222.529 162.07 222.455 161.789 222.582 161.57C223.669 159.71 224.364 155.551 224.511 154.6C221.361 150.64 219.317 142.687 218.929 141.091C215.248 139.987 204.131 132.087 203.645 131.742L203.631 131.73C201.07 129.73 200.254 126.873 201.273 123.469C202.022 120.963 203.488 119.067 203.55 118.987C203.707 118.788 203.995 118.752 204.195 118.908C204.392 119.063 204.428 119.351 204.273 119.551C204.259 119.569 202.841 121.409 202.144 123.754C201.242 126.795 201.929 129.234 204.185 131.001C204.561 131.268 216.273 139.574 219.412 140.271C219.583 140.31 219.719 140.444 219.757 140.616C219.781 140.71 221.975 150.093 225.349 154.177C225.43 154.276 225.466 154.406 225.449 154.533C225.418 154.746 224.687 159.781 223.374 162.032C223.288 162.179 223.136 162.26 222.979 162.26Z" fill="white"/>
<path d="M119.583 301.223C119.557 301.223 119.53 301.22 119.502 301.215C119.254 301.173 119.085 300.937 119.128 300.687C120.777 291.159 152.154 246.833 153.489 244.951C153.52 244.908 153.556 244.872 153.598 244.842C167.99 234.64 209.811 225.427 210.232 225.336L210.251 225.332C221.173 223.449 228.552 216.382 230.639 212.372C233.009 207.813 241.844 195.252 242.22 194.72L255.051 176.025C255.193 175.816 255.479 175.764 255.686 175.907C255.895 176.05 255.948 176.335 255.805 176.544L242.972 195.244C242.877 195.378 233.794 208.292 231.45 212.796C230.103 215.385 227.405 218.226 224.045 220.589C221.213 222.578 216.554 225.172 210.417 226.233C209.582 226.417 168.418 235.518 154.193 245.546C152.806 247.504 121.617 291.681 120.032 300.842C119.994 301.066 119.799 301.223 119.583 301.223Z" fill="white"/>
<path d="M261.661 166.476C261.52 166.476 261.385 166.413 261.294 166.293C261.142 166.091 261.183 165.803 261.385 165.651C266.277 161.983 266.334 148.191 266.334 148.052L266.337 148.024C266.341 147.932 266.898 138.773 267.81 134.032C268.695 129.434 267.645 125.479 267.634 125.439C267.622 125.394 267.617 125.347 267.619 125.301C267.624 125.164 268.162 111.515 267.622 105.746C267.105 100.24 264.754 98.7797 264.73 98.7657C264.514 98.6369 264.44 98.3571 264.566 98.1398C264.692 97.9226 264.968 97.8472 265.187 97.9718C265.302 98.0366 267.967 99.6259 268.533 105.66C269.059 111.277 268.578 124.208 268.538 125.269C268.685 125.848 269.582 129.676 268.711 134.206C267.826 138.805 267.277 147.666 267.253 148.066C267.25 148.829 267.155 162.47 261.934 166.384C261.854 166.446 261.756 166.476 261.661 166.476Z" fill="white"/>
<path d="M265.511 98.6448C265.49 98.6448 265.466 98.6431 265.445 98.64C265.195 98.6036 265.021 98.3709 265.057 98.1206C266.308 89.5254 262.208 81.3585 261.147 79.4225C260.552 79.9815 259.405 81.6374 259.917 85.8483C259.945 86.0995 259.767 86.328 259.515 86.3584C259.265 86.3882 259.036 86.2097 259.005 85.9587C258.239 79.6402 260.995 78.3826 261.114 78.3324C261.323 78.242 261.568 78.3205 261.685 78.5157C261.92 78.9031 267.439 88.1226 265.963 98.2524C265.93 98.4806 265.735 98.6448 265.511 98.6448Z" fill="white"/>
<path d="M250.477 88.9287C250.447 88.9287 250.416 88.9251 250.382 88.9185C250.135 88.8657 249.978 88.6225 250.03 88.3747C251.013 83.7525 253.864 81.3565 256.081 80.1605C258.475 78.8704 260.614 78.6716 260.705 78.6638C260.962 78.6429 261.178 78.8287 261.2 79.0807C261.224 79.3327 261.036 79.5547 260.786 79.5768C260.764 79.5787 258.715 79.7734 256.486 80.9841C253.526 82.5915 251.655 85.1424 250.927 88.5656C250.88 88.7809 250.689 88.9287 250.477 88.9287Z" fill="white"/>
<path d="M233.151 209.465C233.073 209.465 232.99 209.443 232.918 209.4C232.699 209.269 232.63 208.989 232.759 208.77C233.347 207.792 236.399 205.795 241.742 202.354C248.3 198.131 256.461 192.876 258.91 189.578C263.112 183.914 269.92 178.367 269.989 178.312L270.015 178.291C272.797 176.36 274.475 173.93 275.005 171.068C275.431 168.766 274.996 166.67 274.444 165.477C273.306 163.013 274.006 153.727 274.037 153.333L274.044 153.283C275.469 145.799 272.081 136.387 272.045 136.293C272.028 136.246 272.019 136.197 272.019 136.148C271.843 129.62 267.774 124.936 267.733 124.889C267.567 124.699 267.583 124.41 267.774 124.242C267.964 124.075 268.252 124.093 268.421 124.282C268.597 124.481 272.719 129.218 272.933 136.049C273.273 137.004 276.359 145.961 274.948 153.429C274.746 156.069 274.418 163.233 275.277 165.093C275.886 166.414 276.371 168.721 275.907 171.234C275.341 174.294 273.49 176.991 270.553 179.034C270.22 179.306 263.691 184.67 259.645 190.124C257.099 193.556 248.859 198.861 242.239 203.125C238.027 205.838 234.051 208.399 233.546 209.241C233.461 209.386 233.308 209.465 233.151 209.465Z" fill="white"/>
</g>
</g>
<defs>
<filter id="filter0_f_1_97211" x="0.0556641" y="3.25854" width="451" height="263.891" filterUnits="userSpaceOnUse" color-interpolation-filters="sRGB">
<feFlood flood-opacity="0" result="BackgroundImageFix"/>
<feBlend mode="normal" in="SourceGraphic" in2="BackgroundImageFix" result="shape"/>
<feGaussianBlur stdDeviation="7.5" result="effect1_foregroundBlur_1_97211"/>
</filter>
</defs>
</svg>
