<svg width="13" height="11" viewBox="0 0 13 11" fill="none" xmlns="http://www.w3.org/2000/svg">
<path opacity="0.4" d="M0.411909 8.33434C2.17191 7.77434 2.76192 10.5343 3.92192 10.5943C4.24192 10.5943 4.50192 10.4443 4.55192 10.1243C4.55192 10.0543 3.03193 4.04432 2.99193 3.63432C3.99193 4.79432 10.2219 14.3843 7.70195 5.96433C7.14209 4.41915 6.71059 2.83043 6.41191 1.21433C6.41191 1.34433 6.41191 0.884335 6.41191 0.754335C7.30191 1.75433 11.6419 9.07432 12.0619 7.49432C12.5719 5.56432 12.392 6.55432 10.712 0.494325C10.6815 0.426049 10.6273 0.371095 10.5596 0.33957C10.4918 0.308045 10.4148 0.302085 10.343 0.322785C10.2712 0.343486 10.2092 0.389446 10.1686 0.45221C10.128 0.514975 10.1114 0.590318 10.1219 0.664338C11.5619 5.90434 11.8519 5.98433 11.6119 6.79433C10.3219 5.39433 6.61192 0.12433 6.61192 0.12433L6.43193 0.0543376C6.32193 0.0543376 6.28193 0.0543376 6.12193 0.0543376C6.12193 0.0543376 4.94194 -0.945676 6.94194 5.63432C7.27194 6.71432 7.88194 8.63432 7.88194 8.63432C7.10455 7.93992 6.40995 7.15809 5.81193 6.30434C5.94193 6.49434 4.26196 4.24433 4.09196 4.01433C0.841962 -0.335671 3.00193 6.47432 3.74193 9.63432C2.63193 8.54432 2.02194 7.11433 0.571943 7.56433C0.401943 7.61433 0.111955 7.70433 0.0219551 7.85433C0.000521516 7.91287 -0.00535555 7.97599 0.00492629 8.03748C0.0152081 8.09897 0.0412965 8.15672 0.0806099 8.20511C0.119923 8.2535 0.171086 8.29084 0.229169 8.31349C0.287252 8.33614 0.350218 8.34333 0.411909 8.33434Z" fill="white"/>
</svg>
