<svg width="68" height="67" viewBox="0 0 68 67" fill="none" xmlns="http://www.w3.org/2000/svg">
<path opacity="0.4" d="M64.8824 11.4143C64.7796 11.4143 64.6811 11.4551 64.6084 11.5278C64.5357 11.6006 64.4949 11.6992 64.4949 11.802C64.4949 11.9049 64.5357 12.0035 64.6084 12.0762C64.6811 12.149 64.7796 12.1898 64.8824 12.1898C65.5282 12.1898 66.1236 12.5181 66.5731 13.114C66.8666 13.5063 67.0686 13.9594 67.164 14.4401C67.2595 14.9208 67.246 15.4168 67.1246 15.8916C66.6002 17.7219 64.7997 18.8942 63.379 19.556C61.7555 20.3134 60.3773 20.5719 59.1671 20.3444L59.1012 20.3315C59.8261 19.8596 60.376 19.1625 60.6666 18.3475C60.9107 17.5712 60.8402 16.7301 60.4703 16.0054C60.3273 15.7089 60.1264 15.4441 59.8796 15.2266C59.6327 15.009 59.3448 14.8431 59.0328 14.7387C58.2888 14.5034 57.4713 14.6844 56.7893 15.2337C56.0027 15.8671 55.5675 16.8352 55.6514 17.7619C55.7509 18.8554 56.3941 19.7408 57.2297 20.3354C56.1293 20.6314 54.9488 20.6133 53.8058 20.5939L37.5111 20.3457C41.2945 19.1913 44.8367 17.3584 47.9652 14.9365C49.4182 13.8119 51.1942 12.2454 52.0066 10.0959C52.7389 8.15708 52.5232 5.45178 50.6775 4.01189C49.4738 3.06963 47.7237 2.80079 45.9942 3.29195C44.3668 3.75468 42.9771 4.79259 41.949 5.64567C37.9367 8.99361 34.8548 13.3203 33.0009 18.2079C33.1843 12.5078 32.7426 7.16699 29.4581 3.04896C28.3602 1.66852 27.1332 0.740469 25.8313 0.293249C24.2065 -0.263836 22.4732 -0.0156678 21.2901 0.93952C19.0169 2.78527 19.5181 6.28805 20.6443 8.72708C22.4215 12.5957 25.3999 15.7197 28.4842 18.4625C26.5159 18.0192 24.4881 17.8421 22.6062 17.7413L21.8042 17.6999C18.4861 17.5332 15.053 17.36 12.2141 15.7508C10.7934 14.9416 9.77304 13.8598 9.32228 12.6784C9.99036 12.9831 10.7213 13.1244 11.4547 13.0907C12.9684 12.9989 14.5545 11.7839 14.5119 10.1179C14.4886 9.2777 14.0094 8.51641 13.197 8.02783C12.2735 7.47333 11.1537 7.40223 10.2742 7.84169C8.99809 8.47762 8.36651 9.84514 8.30968 11.1765C8.18052 11.0834 8.06685 10.9877 7.95706 10.896C6.27026 9.47417 5.35969 7.65816 5.52114 6.02439C5.61542 5.06144 6.23926 4.08558 7.10979 3.53754C7.80337 3.10066 8.5512 2.99466 9.2125 3.23637C9.26076 3.2563 9.31255 3.26628 9.36475 3.26568C9.41696 3.26509 9.46851 3.25393 9.5163 3.2329C9.56409 3.21186 9.60715 3.18138 9.64287 3.14328C9.6786 3.10518 9.70625 3.06025 9.7242 3.01118C9.74214 2.96212 9.74998 2.90992 9.74726 2.85774C9.74454 2.80556 9.73132 2.75448 9.70838 2.70755C9.68544 2.66062 9.65324 2.6188 9.61375 2.58462C9.57426 2.55045 9.52827 2.52461 9.47855 2.50867C8.58607 2.18165 7.5993 2.31349 6.69777 2.88092C5.61542 3.56209 4.86889 4.73701 4.75007 5.94812C4.56408 7.83652 5.57668 9.90717 7.46239 11.4892C7.75308 11.735 8.0594 11.9617 8.37941 12.1678C8.40525 12.2971 8.43624 12.4354 8.47241 12.5646C8.90896 14.0692 10.1024 15.4392 11.8305 16.4216C14.8283 18.1213 18.3543 18.2996 21.7628 18.4715L22.5623 18.5116C24.8872 18.6409 27.4523 18.88 29.8107 19.6155C30.2412 19.9851 30.6717 20.3496 31.1023 20.7089C23.8539 19.9731 16.6029 19.4272 9.3494 19.0713C8.41687 19.0261 7.14078 18.9627 6.13464 19.6077C4.76169 20.4892 4.44396 22.2277 4.2541 23.7878L0.12103 57.832C-0.0559168 59.2887 -0.157958 60.8049 0.695779 61.9681C1.6903 63.3227 3.49981 63.5618 5.11946 63.6782L50.3443 66.9509C50.7318 66.978 51.1037 67 51.4718 67C52.3927 67 53.2581 66.8708 53.9917 66.3395C55.1206 65.533 55.4822 64.1125 55.756 62.7282C56.7824 57.527 57.8187 52.2504 58.8649 46.8984L59.0961 46.9333C59.1158 46.9352 59.1357 46.9352 59.1555 46.9333C59.2583 46.941 59.3599 46.9076 59.438 46.8403C59.5161 46.773 59.5643 46.6775 59.572 46.5746C59.5797 46.4718 59.5463 46.3701 59.4791 46.2919C59.4119 46.2137 59.3164 46.1655 59.2136 46.1578L59.0121 46.128C60.3201 39.3784 61.6082 32.518 62.8765 25.5469C62.8857 25.4968 62.8848 25.4453 62.874 25.3954C62.8633 25.3456 62.8428 25.2984 62.8138 25.2565C62.7847 25.2146 62.7477 25.1788 62.7049 25.1513C62.662 25.1237 62.6141 25.1049 62.564 25.0958C53.3072 23.4401 43.9445 22.0958 34.5508 21.0644H34.565L53.7928 21.3578C54.0511 21.3578 54.3275 21.3656 54.6052 21.3656C55.6062 21.3656 56.6718 21.3113 57.6753 20.9998C57.8368 20.9494 57.9944 20.8925 58.1468 20.8291C58.429 20.9452 58.7224 21.0318 59.0224 21.0877C60.398 21.3462 61.9298 21.0683 63.7057 20.2397C65.2686 19.5095 67.2589 18.1962 67.8646 16.0868C68.1875 14.9597 67.9215 13.6026 67.1866 12.628C66.5924 11.8512 65.7723 11.4143 64.8824 11.4143ZM10.6177 8.54355C11.2532 8.22558 12.1082 8.28504 12.7954 8.70123C13.3766 9.05022 13.7188 9.57759 13.7343 10.1476C13.7666 11.3419 12.5332 12.2518 11.4095 12.3203C10.5751 12.3708 9.77691 12.0877 9.09367 11.7012C8.98001 10.4862 9.45919 9.12132 10.6177 8.54355ZM42.4475 6.24541C43.4175 5.44145 44.722 4.463 46.2099 4.04034C46.6934 3.90149 47.1936 3.83016 47.6965 3.82836C48.651 3.82836 49.5345 4.10108 50.2035 4.62456C51.7534 5.83437 51.9175 8.15579 51.2859 9.82317C50.5393 11.7917 48.868 13.2639 47.4951 14.3251C43.6203 17.3212 39.0881 19.3983 34.5043 20.3018L33.2308 20.2824L33.1339 20.2268C34.824 14.764 38.0588 9.90789 42.4475 6.24541ZM21.3456 8.40653C20.3421 6.22085 19.8539 3.10712 21.7822 1.54444C22.4504 1.03323 23.2726 0.764754 24.1135 0.783128C24.6136 0.783531 25.1102 0.866509 25.5833 1.02871C26.7458 1.42811 27.8514 2.27214 28.8562 3.53495C32.2634 7.81585 32.4623 13.5935 32.1678 19.7124C31.5286 19.4088 30.8692 19.1497 30.1943 18.9369C26.76 15.9886 23.2882 12.6383 21.3456 8.40653ZM5.02776 23.8886C5.19567 22.5043 5.46689 20.9675 6.55699 20.2695C7.10591 19.9179 7.77109 19.8313 8.51892 19.8313C8.77723 19.8313 9.03554 19.8403 9.31581 19.8546C17.2694 20.2423 25.2462 20.8666 33.2024 21.7145C32.7193 28.6813 32.0219 35.6636 31.11 42.6188C21.746 41.6778 12.3562 40.9786 3.00772 40.5262L5.02776 23.8886ZM1.32478 61.517C0.638949 60.5838 0.730657 59.29 0.894688 57.9341L2.91473 41.2965C12.2593 41.7489 21.6427 42.4469 31.0067 43.3866C30.0677 50.4387 28.913 57.4611 27.5452 64.4059C27.5377 64.4486 27.5377 64.4924 27.5452 64.5351L5.18274 62.9169C3.73359 62.8083 2.12427 62.6054 1.32478 61.517ZM55.0005 62.586C54.7421 63.8682 54.4451 65.0728 53.5461 65.7165C52.7299 66.2994 51.5945 66.271 50.405 66.1844L28.297 64.5855C28.3001 64.5758 28.3027 64.5659 28.3047 64.5558C29.6776 57.5877 30.8362 50.5421 31.7778 43.4654C40.5941 44.3624 49.3872 45.474 58.1028 46.7911C57.0661 52.1293 56.032 57.3938 55.0005 62.5847V62.586ZM58.254 46.0298C49.5241 44.7088 40.7168 43.5959 31.885 42.6963C32.7891 35.7438 33.493 28.7628 33.9773 21.7973C43.3917 22.8197 52.7751 24.1574 62.0538 25.8041C60.8122 32.652 59.5455 39.3939 58.254 46.0298ZM58.1623 19.9903C57.2814 19.534 56.5245 18.7197 56.4302 17.6909C56.3708 17.0304 56.7053 16.3027 57.2827 15.8373C57.5921 15.574 57.9822 15.4244 58.3883 15.4134C58.5303 15.4135 58.6714 15.4353 58.8068 15.478C59.0205 15.5523 59.2173 15.6684 59.3858 15.8195C59.5544 15.9706 59.6912 16.1538 59.7884 16.3582C60.0644 16.8979 60.1182 17.5243 59.9382 18.1032C59.6747 18.8813 59.0354 19.5547 58.1584 19.9903H58.1623Z" fill="white"/>
</svg>
