<svg width="13" height="24" viewBox="0 0 13 24" fill="none" xmlns="http://www.w3.org/2000/svg">
<path opacity="0.4" d="M12.6639 2.21611C12.6536 2.18721 12.6325 2.1632 12.6049 2.14891C12.5772 2.13462 12.5451 2.13111 12.5149 2.13907C12.4848 2.14703 12.4588 2.16589 12.4422 2.19185C12.4256 2.21781 12.4197 2.24896 12.4256 2.27904C12.5621 2.67209 12.6603 3.07695 12.7189 3.48819C11.6234 2.44086 9.05198 -2.64297 10.6379 1.7801C10.7204 2.00485 12.3797 6.52681 12.3705 6.80999C12.3714 6.81896 12.3714 6.82799 12.3705 6.83696C11.4996 6.09978 9.70286 3.01172 9.49201 2.54425C9.41867 2.36445 9.32698 2.09475 9.13447 2.0498C8.34607 1.83404 10.6746 6.58524 11.0321 8.52708C10.3894 7.55093 9.79886 6.54269 9.26283 5.50645C3.64323 -4.78707 8.84113 7.09767 9.26283 9.60587C8.62569 9.60587 5.51337 3.71743 5.05501 3.5736C3.6799 3.21849 6.67761 9.30921 7.67227 12.0691C7.25759 11.5607 6.8938 11.0143 6.58594 10.4374C4.9404 7.56965 2.69899 3.40728 4.05118 7.94272C4.44537 9.22379 6.27426 15.4539 6.27884 15.9033C5.67838 15.283 0.572143 5.02548 1.74098 9.29122C1.86016 9.74072 4.20703 16.8113 4.22536 17.2968C3.4278 16.3978 -1.10547 6.356 2.41939 19.8185C-1.24756 12.586 1.40638 23.5268 0.883836 23.6572C0.663819 23.5853 0.489657 23.0144 0.558412 23.2077V23.1717C0.439236 22.938 0.361314 22.4346 0.100044 22.502C-0.280402 22.5964 0.503399 24.3899 1.1222 23.9224C1.70891 23.5808 0.365895 18.3531 0.842598 17.6834C1.37889 18.1014 2.51104 21.3917 2.8319 20.7669C2.87494 20.6924 2.9013 20.6098 2.9092 20.5245C2.91711 20.4393 2.90639 20.3534 2.87776 20.2725C2.79067 19.823 1.58057 15.737 1.35597 14.2537C1.40639 14.4649 1.20012 13.4716 1.32388 13.2783L1.39265 13.2333C2.2773 14.0424 7.25516 25.0866 2.14894 9.63734C2.06472 9.39298 1.99583 9.14379 1.94267 8.89117C4.31701 12.6849 6.06799 17.4316 6.56762 16.0831C6.71888 15.6831 4.1291 7.30893 3.99618 6.54029C4.7479 7.7809 6.33385 10.9049 7.51185 12.3838C7.65853 12.5681 7.67686 12.5995 7.87395 12.4737C8.16273 12.2804 7.9519 11.9882 7.8098 11.6736C7.9794 12.1231 4.81663 4.54452 4.97706 3.94219L5.04124 4.01861L5.01374 3.98714C6.22383 5.51094 8.75861 10.7611 9.59742 9.91603C9.89536 9.62835 8.3415 5.62331 7.34226 2.66561C7.5852 3.11511 9.90453 7.36737 10.395 8.19894C10.8533 8.93612 11.8297 9.90254 11.2796 8.0596C11.1788 7.72247 10.4637 5.62332 9.65243 3.44325C11.6142 6.82797 11.8251 6.77402 12.311 7.19655C12.4531 7.32691 12.5447 7.19656 12.6547 7.03924C12.916 6.72009 12.1964 5.11088 10.6517 0.96201C12.343 3.7534 13.6402 5.35361 12.6639 2.21611Z" fill="white"/>
</svg>
