<svg width="84" height="86" viewBox="0 0 84 86" fill="none" xmlns="http://www.w3.org/2000/svg">
<path d="M20.3558 29.7308C20.1058 29.7863 19.8859 29.9337 19.7396 30.1437C19.704 30.2105 19.8756 30.2164 19.6355 30.3388L19.7314 30.0602C19.4305 30.2703 19.1751 30.5387 18.9802 30.8495L18.6517 31.1622L18.7216 31.0313C18.4525 31.2233 18.2287 31.4718 18.0658 31.7594C18.1017 31.6302 18.1514 31.3765 17.9276 31.6165L17.7907 31.8731C17.7448 31.8849 17.8032 31.7446 17.5327 32.1277C17.6652 32.0896 17.3312 32.462 17.1798 32.4801C17.2871 32.5077 17.5093 32.3262 17.6017 32.3756C17.2575 32.693 17.5361 32.7889 17.2278 33.0761L17.1878 32.9657C17.0069 33.174 16.8633 33.4118 16.7631 33.6688L16.7424 33.6149C16.3245 34.1073 16.1305 34.5016 15.7259 34.7406L15.5615 35.0486C15.5864 34.9464 15.5443 34.9635 15.4309 35.0646C15.2539 35.2603 15.1118 35.6625 15.2311 35.5811C14.5896 36.1651 14.6067 36.5039 14.0075 37.2557C13.9411 37.1576 13.746 37.548 13.7681 37.3521L13.6439 37.6155C13.6659 37.5745 13.6183 37.6018 13.6054 37.595C13.5751 37.6161 13.551 37.6451 13.5359 37.6789C13.5208 37.7126 13.5152 37.7499 13.5197 37.7866L13.5192 37.7566L13.2619 38.0842L13.3278 38.1523L13.0881 38.3541C13.102 38.1242 13.4281 37.8037 13.381 37.6631C13.1111 37.8875 12.9075 38.1813 12.7923 38.5128C12.6227 38.7256 12.4518 38.9344 12.2848 39.1486C12.2197 39.1468 12.2998 39.1203 12.1215 39.3186C11.9766 39.4787 12.0133 39.5213 11.8573 39.7579C11.8866 39.7111 11.9066 39.659 11.916 39.6046C11.6839 39.8664 11.7625 39.9974 11.6676 40.2369C11.7539 40.1041 11.8286 39.9642 11.8909 39.8186C11.9343 39.799 11.9191 39.8337 11.9319 39.8406L12.1096 39.4705C12.1343 39.5232 12.0653 39.5227 12.2325 39.3515C12.0899 39.5754 12.0482 39.629 11.9061 39.8828C11.8965 40.0491 12.0997 39.7982 12.044 39.9828C11.3163 41.2165 10.6747 42.0973 10.0783 42.9923C9.40907 43.951 8.87508 44.9973 8.4914 46.1017C8.18743 46.4468 7.94379 46.8406 7.7707 47.2667L7.84037 47.1917C7.7272 47.583 7.50503 47.6161 7.47677 47.9472L7.46904 48.2893C7.37164 48.4285 7.19514 48.8025 7.1782 48.7044C7.13214 48.97 6.82743 49.4173 6.96898 49.5291C6.72588 50.0588 6.55521 50.36 6.35251 50.8881C6.37032 50.8548 6.34345 50.8371 6.34345 50.8371C6.23817 50.9293 6.33966 51.1286 6.20015 51.2354C6.19331 51.1494 6.35817 50.723 6.17004 51.0446C6.18149 51.3508 5.77338 52.0165 5.68129 52.1026C5.64088 52.2355 5.61842 52.3732 5.6145 52.512C5.51727 52.6942 5.31596 52.9231 5.40619 52.6118C5.2319 53.198 5.09069 53.1721 5.22299 53.3383C5.08858 54.0414 4.72996 54.4104 4.67035 55.0908C4.25554 56.0596 3.90869 57.068 3.4482 57.7948L3.48004 57.8712C3.40045 57.6803 3.0591 58.4312 3.06785 58.0996C3.02227 58.4539 2.9052 58.7952 2.72373 59.1028L2.69413 58.942C2.93517 58.4903 2.70578 58.7965 2.93826 58.2249C2.92748 58.2884 2.9107 58.3322 2.94339 58.3266C3.02865 58.0061 3.24779 57.3977 3.33699 57.0761L3.37344 57.1747C3.5775 56.6934 3.42621 56.4083 3.54897 55.9001C3.77408 55.5587 3.58679 55.9961 3.75796 55.9721C3.94012 55.433 3.4326 55.4259 3.85815 55.0365L3.83658 55.1634C4.08806 54.513 3.81003 55.4789 4.07057 55.0278C4.42239 53.9792 3.70066 55.2821 3.9484 54.3296C4.02611 54.4436 4.13036 54.2421 4.2697 54.0428C4.19543 53.8482 4.393 53.1195 4.38019 52.7665C4.4098 52.8285 4.53887 52.6237 4.6457 52.3247C4.65818 52.5423 4.57071 52.6506 4.42725 53.0059C4.45549 53.0705 4.4945 53.2199 4.59413 53.095C4.50069 52.7385 4.96496 51.7203 4.86297 51.3922C4.85714 51.5638 5.05127 51.2124 5.10878 51.253C5.12546 51.0581 5.16594 50.8661 5.22931 50.681L5.09236 50.9376C5.33614 50.4809 5.42912 49.8184 5.64192 49.2528L5.67786 49.2719C5.77172 48.8515 5.90192 48.44 6.06701 48.0421C6.02437 48.2765 6.21592 48.1216 6.301 48.0549C6.47114 48.0204 6.17017 48.9181 6.46752 48.4537C6.55775 48.0436 6.45643 47.7884 6.74369 47.2625C6.72539 47.0681 6.50404 47.4643 6.4407 47.5954C6.57561 47.1695 6.97207 46.5997 6.94607 46.3518C6.87536 46.5152 6.82966 46.5699 6.79526 46.5416C6.81323 46.5512 6.83038 45.901 6.95517 45.7599C6.97656 45.8867 7.00191 45.765 7.00652 45.9356C7.11876 45.7742 7.19709 45.5917 7.23677 45.3991C7.37798 45.4745 6.96663 45.9671 7.1657 46.0206C7.61883 45.2272 7.5307 44.9658 7.81197 44.2225C7.9578 43.9358 8.12298 43.6593 8.30636 43.395C8.28308 43.4387 8.22967 43.5387 8.27588 43.514C8.74116 42.9512 8.48149 43.0236 8.88171 42.6075C8.9223 42.2533 9.31414 41.6118 9.58085 41.2234C9.56886 41.2829 9.60669 41.3295 9.58648 41.4044C10.0247 40.5833 10.326 39.8209 10.9149 39.1131L10.918 39.1445C11.2297 38.6778 11.4769 38.2394 11.8648 37.7474C11.7895 37.8886 11.7814 37.9469 11.803 37.9683C12.3374 37.3502 12.5519 36.7195 13.1348 36.0415C13.3313 35.8958 13.6062 35.4425 13.6682 35.6107C14.1013 35.0341 13.3579 35.7287 13.7901 35.1846L13.7446 35.2328C14.2037 34.4591 14.8061 33.9299 15.2515 33.2313C15.4916 33.0503 15.7087 32.8407 15.898 32.6071C15.9689 32.3799 16.0692 32.163 16.1962 31.9618C16.3419 31.8186 16.485 31.6741 16.6821 31.4594C16.3755 31.6816 16.7998 31.2388 16.8587 31.1284C16.7933 31.3375 16.9883 31.1514 16.7774 31.4971C17.3625 30.9819 16.8957 30.9602 17.5087 30.4236L17.6901 30.405C17.5804 30.5128 17.4817 30.6314 17.3957 30.7589C17.6404 30.5771 17.8545 30.3575 18.0299 30.1083C18.0751 29.9742 17.5217 30.4734 17.9423 29.9758C18.0239 30.1381 18.2496 29.6288 18.582 29.5622C18.6474 29.3592 18.7801 29.1846 18.9582 29.0674C19.0053 29.0595 18.9771 29.0939 18.9697 29.1262C19.3579 28.8191 18.9923 28.9108 19.3425 28.6131C19.4406 28.5962 19.2256 28.9001 19.4358 28.7782C19.8097 28.5722 19.4933 28.6705 19.8491 28.3625C19.7275 28.4295 19.7334 28.2084 19.8987 28.0098C19.9809 28.0537 20.0788 28.1422 19.8138 28.4656C20.0057 28.3471 20.3099 28.1171 20.1282 28.4389C20.383 27.9616 20.9131 27.4566 21.2577 26.9778C21.4132 26.9158 21.5547 26.8231 21.6736 26.7053C21.8517 26.4706 21.8392 26.2035 22.0648 26.0898C22.1319 25.964 21.9559 26.0712 21.9162 26.0468C22.0179 25.9428 22.1234 25.8441 22.2288 25.7454C22.4791 25.635 22.0576 26.0662 22.2295 26.0161L22.5826 25.8056C22.8431 25.5524 22.5313 25.6299 22.406 25.6421C22.7637 25.5034 22.755 25.291 23.0116 25.1873C22.5636 25.5383 23.3627 25.2032 22.7802 25.6209L23.0453 25.4888C23.1249 25.5313 22.7572 25.7999 22.7509 25.8921C23.141 25.6618 23.1774 25.5132 23.5515 25.3007C23.5259 25.4783 23.1055 25.5737 23.0145 25.8185C23.4996 25.5895 23.7454 25.302 23.9516 25.3296C23.7531 25.5039 23.3614 25.5949 23.3385 25.7739C23.4672 25.7947 23.599 25.7844 23.7228 25.7438C23.8467 25.7032 23.9589 25.6335 24.0502 25.5405C24.1608 25.3951 23.8741 25.5058 23.6771 25.6216L23.6781 25.6815L23.6055 25.6197C23.815 25.5238 24.0908 25.2852 24.3075 25.1635C24.362 25.159 24.4152 25.145 24.4648 25.1221C24.4648 25.1221 24.4469 25.1125 24.434 25.1057C24.4599 25.0962 24.4876 25.0929 24.515 25.0962C24.5812 25.0605 24.6442 25.0191 24.7031 24.9724C24.7509 24.9385 24.8084 24.8802 24.8683 24.8297C24.9739 24.7281 25.0991 24.6491 25.2363 24.5975L24.8601 24.8946C24.935 24.9643 25.2204 24.8066 25.5521 24.6672C25.8193 24.5065 26.3998 24.1667 26.2413 24.1052L26.041 24.2456C26.048 24.0285 26.6001 24.0264 26.4412 23.879C26.3608 23.9072 26.2873 23.9523 26.2255 24.0111C26.3769 23.8512 26.2865 23.7733 25.9664 23.9157L25.8294 24.1723C25.4987 24.2233 25.4123 24.4903 25.0535 24.6187C25.0417 24.5728 24.9696 24.5904 25.0338 24.5257C25.3249 24.3571 25.5871 24.1431 25.8108 23.892C25.4575 24.1089 25.7615 23.7865 25.5688 23.8881C26.1032 23.5667 25.6914 23.5842 26.2745 23.2394L26.1171 23.485C26.6463 23.2103 26.5527 23.0582 26.7249 22.8467C26.9254 22.7493 27.2727 22.7599 27.5575 22.5229C28.034 22.3717 27.8408 22.2455 28.1784 22.0333C28.1761 22.1673 27.8553 22.3851 27.6629 22.5231C27.6883 22.514 27.713 22.5029 27.7367 22.49C27.7258 22.5105 27.6982 22.5189 27.7093 22.5413C28.0291 22.4614 28.5481 21.8845 28.4063 22.2242C27.803 22.4957 27.4558 22.9236 26.931 23.326C26.7571 23.4268 26.5764 23.5154 26.3902 23.5913C26.3791 23.7172 26.4116 23.817 26.6456 23.7803C26.9346 23.4861 26.7879 23.4705 27.2211 23.1841C27.5519 22.9994 27.8708 22.7941 28.1759 22.5694L28.0707 22.5132C28.4132 22.2608 29.1521 21.8837 29.071 21.8009C29.0506 21.8823 29.2252 21.8271 29.3778 21.7206L29.2023 21.9072C29.336 21.9225 29.8964 21.6512 29.7581 21.8115C30.3043 21.5359 30.2208 21.4452 30.7899 21.2379C31.222 21.0465 31.2366 20.6422 32.0068 20.3609C32.1878 20.4113 31.5008 20.6909 31.8817 20.6634C32.2976 20.5306 32.6702 20.2889 32.9611 19.9635C32.7217 20.0105 32.8995 19.8812 32.8713 19.8167L33.203 19.7267C33.1698 19.8507 33.0224 19.7622 32.9009 19.9281C33.1085 19.9038 33.3114 19.8487 33.5027 19.7646L33.3952 19.8919C33.6206 19.8342 33.8588 19.6414 33.9342 19.7411L34.3053 19.4413C34.7418 19.3775 34.8095 19.2323 35.1037 19.0827L34.7992 19.1279L35.1792 19.034C35.4146 18.8958 34.9118 19.0034 35.3302 18.8376C35.0871 19.0705 35.7689 18.7882 35.7867 18.9526C35.5861 19.0071 35.2201 19.1118 35.3199 19.1783C35.5359 19.1335 35.7573 19.1206 35.977 19.1399C35.9385 19.1194 36.2762 19.0491 36.2786 19.0075L35.8993 18.7292C36.063 18.5957 36.4731 18.8904 36.7043 18.8094C36.3094 18.9745 36.7911 18.826 36.7362 18.9352C36.9719 18.8335 37.2134 18.7085 37.465 18.5955C37.7108 18.4886 37.9658 18.404 38.2267 18.3427L38.104 18.4552C38.4284 18.2986 38.3732 18.4637 38.7818 18.2729C38.9338 18.1859 38.4155 18.3412 38.7016 18.207C40.4526 17.8221 42.2228 17.5299 44.0048 17.3316C43.9774 17.4818 44.7066 17.3764 45.0058 17.3844C45.1675 17.3224 45.0102 17.2648 44.8368 17.3239C45.1168 17.2386 45.4071 17.1917 45.6997 17.1844C45.8401 17.2923 46.1459 17.2445 46.3998 17.1954C46.2979 17.2564 46.4482 17.3333 45.965 17.293C46.0944 17.3225 45.3522 17.5265 46.0324 17.5005C46.3641 17.3932 46.7031 17.3097 47.0466 17.2505C47.421 17.1941 47.799 17.1655 48.1775 17.165C48.4648 17.1547 48.7523 17.1755 49.0351 17.227L48.9155 17.272C48.9758 17.2894 49.0396 17.2911 49.1007 17.277C49.1619 17.263 49.2185 17.2335 49.2652 17.1915C49.633 17.2131 49.4238 17.3455 49.3042 17.3904C50.155 17.4093 50.3812 17.2267 51.2853 17.3498C51.471 17.416 51.2952 17.5167 51.7029 17.5562C52.9573 17.6174 54.199 17.837 55.3984 18.2097L55.7019 18.4014L56.0696 18.3306C56.6717 18.5992 57.248 18.8111 57.8279 19.0349C58.4079 19.2587 58.9967 19.4905 59.6241 19.7858C59.4882 19.7562 59.351 19.6796 59.2621 19.6915C59.6835 19.8538 60.183 19.8204 60.5409 20.0213C60.5243 20.0702 60.4997 20.1162 60.4683 20.1573C60.9683 20.3021 61.294 20.2913 61.8395 20.4869C61.8964 20.5534 61.5765 20.4421 61.7355 20.583L62.0576 20.7087C61.7949 20.6509 62.1807 20.8799 62.0927 20.8593C62.0353 20.8119 61.9689 20.7765 61.8976 20.7552C61.8633 20.8193 62.155 20.9651 62.308 21.0863C62.4432 21.142 62.5666 21.1518 62.4675 21.0594C62.6637 21.2234 62.48 21.1287 62.4523 21.193C62.7364 21.3776 62.7784 21.367 62.8703 21.2875C62.8854 21.2098 62.8853 21.2098 62.7085 21.0528C62.9955 21.2432 63.2696 21.4523 63.5291 21.6787L63.742 21.7L63.7721 21.7425C63.7899 21.7091 63.8187 21.7047 63.8396 21.7026L63.8011 21.6821C64.3664 21.8697 64.9113 22.1141 65.4273 22.4115C65.9916 22.7325 66.5659 23.0719 67.1071 23.3311L67.8802 23.8789C67.4208 23.726 66.8 23.276 66.5732 23.2374L66.753 23.3333C66.7928 23.4008 66.4495 23.1417 66.3593 23.2057L66.579 23.412C66.9335 23.6935 66.913 23.3363 67.1831 23.708C66.649 23.4229 67.3236 23.9082 66.9393 23.7691C67.0434 23.9202 67.2577 23.939 67.4925 23.9687C67.3695 23.9012 67.2514 23.825 67.1393 23.7406C67.268 23.7467 67.668 24.0789 67.8183 24.0074C67.8668 24.039 67.909 24.0794 67.9427 24.1266C68.0177 24.1763 68.0725 24.2511 68.0973 24.3376C68.1332 24.3568 68.1743 24.3787 68.2282 24.4075C68.2472 24.3286 68.5493 24.4239 68.7494 24.5868C68.8084 24.6183 68.581 24.5562 68.5371 24.5889C68.9089 25.0049 69.3428 25.2365 69.8215 25.6436C69.7159 25.5412 69.6362 25.415 69.5891 25.2756C69.6514 25.3007 69.7108 25.3324 69.7663 25.3701C69.7813 25.3419 69.9085 25.4065 70.0023 25.4533L69.8417 25.4203C69.9596 25.5124 70.0925 25.5833 70.2346 25.63C70.3219 25.6271 70.392 25.6316 70.5053 25.8272C70.4488 25.7911 70.3839 25.7701 70.3169 25.7662C70.4341 25.8592 70.557 25.9447 70.6851 26.0221C70.67 26.0503 70.6965 26.1798 70.8973 26.3661L70.9219 26.1716C71.0836 26.3557 71.2689 26.5178 71.4729 26.6535C71.6257 27.0285 72.6252 27.3377 72.5779 27.5499L72.1629 27.246C72.2328 27.4548 71.6266 27.1938 71.7442 27.3753L72.3302 27.6617C71.9398 27.2127 72.9317 27.8574 72.937 27.6559C73.157 27.8062 73.2268 28.0215 73.5393 28.1158C73.7031 28.2724 73.3261 28.1075 73.5284 28.2847C73.6876 28.3696 73.7045 28.2699 73.9041 28.4522C73.8741 28.4527 73.7783 28.4345 73.7992 28.4819C74.0189 28.6882 74.0059 28.5395 74.2916 28.7151L74.2433 28.6695C74.4253 28.6809 74.5447 28.9392 74.5767 29.009L75.329 29.4105C75.2032 29.3928 74.8189 29.2042 75.001 29.4069C74.6782 29.3566 74.1233 28.5791 73.9919 28.8255C74.1427 29.0312 74.5285 29.1118 74.6371 29.3347C74.7623 29.2795 75.0716 29.4973 75.2978 29.6049L75.3298 29.6747C75.7343 29.9862 75.4594 29.4999 75.8913 29.859C75.9193 29.93 75.7251 29.8922 75.9945 30.0921C76.0629 30.1121 76.1742 30.188 76.2273 30.1504L76.1679 30.0824C76.1449 29.9647 76.5331 30.3004 76.7229 30.4578C76.586 30.4177 76.5085 30.4455 76.6709 30.6047C76.3421 30.3369 76.2582 30.5559 75.9842 30.3339C76.1185 30.3726 76.4629 30.5432 76.3233 30.3599C76.1314 30.1322 75.8373 30.0774 75.5132 29.8814L75.703 30.0387C75.6393 30.2322 75.1024 29.761 74.9023 29.8454C74.9916 29.9129 75.0698 29.958 75.051 29.9809C75.0601 29.933 74.7431 29.7605 74.6041 29.65L74.7997 29.6852C74.4557 29.2543 74.4197 29.4824 74.0025 29.1147C74.0814 29.0842 74.7547 29.5161 74.4348 29.2069C74.3782 29.2822 74.1355 29.0076 74.0591 29.0394L73.8529 28.715C73.5756 28.567 73.2298 28.399 73.0419 28.3185C73.1892 28.3632 73.3338 28.4162 73.4751 28.4771C73.1071 28.2643 73.0986 27.9465 72.7501 27.8825L72.9211 28.0628C72.7568 27.9208 72.572 27.8044 72.373 27.7175C72.2197 27.7082 72.4129 27.9333 72.5669 28.065C72.424 27.9557 72.1786 27.6863 72.1245 27.7629C72.0835 27.6979 72.028 27.6433 71.9625 27.6031C71.897 27.563 71.8231 27.5385 71.7466 27.5315C71.5181 27.3107 71.6897 27.4155 71.7125 27.3419C71.4763 27.2158 71.0427 26.8229 71.0398 26.9829C71.1143 27.0721 71.4328 27.2355 71.2404 27.2251C71.2214 27.0567 71.0636 27.167 70.901 27.0143C71.2945 27.1485 70.5686 26.6358 70.8552 26.7294C70.6491 26.5785 70.4226 26.4576 70.1825 26.3704L70.2263 26.2883L69.8417 26.0632C69.8299 25.9184 70.0956 25.9646 69.7681 25.6942C69.4241 25.6095 69.4078 25.8316 68.938 25.5809L69.098 25.5344C68.9823 25.4298 68.54 25.1707 68.5309 25.268C68.6087 25.412 68.7153 25.5385 68.844 25.6395L68.7943 25.5966C68.5225 25.4878 69.0898 25.9949 68.618 25.6673C68.8329 25.6171 68.0926 25.0077 67.8886 24.7472C67.6655 24.6484 67.4347 24.5682 67.1984 24.5074C67.1959 24.5555 67.4201 24.7411 67.2626 24.7395C66.7484 24.2442 66.3207 24.2731 65.8488 23.8036C65.8693 23.8146 65.8885 23.7787 65.7242 23.691L65.6744 23.605C65.5689 23.567 65.4695 23.5139 65.3791 23.4475L64.949 23.1717C64.9613 23.1486 64.8549 23.138 64.7563 23.1249C64.7922 23.1441 64.8307 23.1647 64.8764 23.2088L64.7563 23.1249C64.6924 23.1208 64.6309 23.0993 64.5783 23.0629C64.4559 23.113 64.2876 22.8287 64.1255 22.7059C64.1617 22.7286 64.1995 22.7487 64.2385 22.7662C63.9472 22.5579 63.7016 22.6411 63.4587 22.373L63.4303 22.315C63.4868 22.3452 63.5407 22.374 63.551 22.3794L63.4123 22.3054C63.2788 22.2342 63.2839 22.2369 63.3353 22.2643C63.0939 22.1355 63.1061 22.2178 62.7401 22.0258L62.9161 22.1659C62.8515 22.139 62.7895 22.106 62.7312 22.0672C62.3189 21.9296 61.923 21.747 61.5506 21.5228C61.2584 21.5373 60.9666 21.4863 60.6966 21.3737L60.8029 21.2919C60.6309 21.2001 60.4589 21.1083 60.2894 21.0179C60.3836 21.0022 60.1402 20.8525 59.8033 20.6925L59.8367 20.7103C59.6357 20.5287 59.3784 20.4217 59.1079 20.4071C59.0132 20.3928 58.7835 20.3658 58.7691 20.3186C58.6596 20.3755 58.3724 20.2585 58.0959 20.1769C58.0618 20.1564 58.0267 20.1376 57.9907 20.1207L58.0234 20.1646C57.8186 20.0289 57.6608 20.1392 57.4032 19.9358C56.9957 19.7414 57.6174 19.8127 57.114 19.6001L56.8516 19.5787C56.7848 19.5431 56.8394 19.5459 56.8735 19.5377C56.6407 19.4794 56.4961 19.3363 56.3574 19.4106C56.6289 19.5752 56.9091 19.7248 57.197 19.8587C56.6809 19.7316 56.5886 19.8242 56.1635 19.706C56.1291 19.7272 56.2276 19.7403 56.2783 19.7937C56.0481 19.7368 55.8745 19.6046 55.9973 19.591C55.7949 19.5127 55.704 19.6026 55.4208 19.5339L55.354 19.696C54.9774 19.6256 54.611 19.5087 54.2632 19.348C54.6113 19.425 54.9336 19.3959 55.1755 19.4557C55.1512 19.2911 55.4052 19.3343 55.695 19.4033C55.9182 19.4966 56.1514 19.5635 56.3901 19.6028C56.1693 19.485 56.729 19.5859 56.2718 19.3979C55.981 19.4175 55.8995 19.2981 55.6111 19.2266C55.4687 19.0979 55.8852 19.152 55.3511 19.0153C55.5591 19.1263 55.0365 19.098 55.46 19.1822C55.1984 19.1566 54.9387 19.1148 54.6822 19.0573C54.4723 19.0178 54.2639 18.9758 53.9174 18.9326C54.49 19.0404 53.6495 19.0205 53.9753 19.158C53.9493 19.009 54.9057 19.2689 54.1877 19.0505L54.7075 19.1334C54.7407 19.2072 54.1694 19.1034 54.5993 19.2867C54.2678 19.2312 53.9329 19.1979 53.597 19.1869C53.694 19.1102 53.2529 19.0033 53.2004 18.9225C53.0109 18.9005 52.8218 18.9644 52.6333 18.854L52.9433 18.848C52.6455 18.7879 52.6326 18.6822 52.3689 18.6139C52.1919 18.6118 52.1604 18.6708 52.2369 18.7314C51.8059 18.6366 51.3692 18.6574 50.9136 18.5593C51.4677 18.6275 51.0288 18.4361 51.474 18.4858L51.1443 18.3989C50.4841 18.4554 49.4972 18.5616 49.3334 18.7511C48.5569 18.8214 48.7677 18.4822 47.8401 18.7059C47.9734 18.6847 47.7509 18.5825 47.816 18.5348C47.6181 18.5183 47.419 18.5225 47.222 18.5475L47.5879 18.6406C47.0698 18.6861 46.5496 18.7034 46.0296 18.6925C46.1268 18.6586 45.9591 18.6021 46.2534 18.5514C46.2475 18.4758 45.9018 18.5055 45.7481 18.5092C45.4008 18.5975 45.644 18.7043 45.2513 18.7848C43.077 18.9389 40.919 19.2714 38.7994 19.7791C36.6811 20.2914 34.6042 20.9618 32.5863 21.7845L32.567 21.7281C31.3352 22.3301 30.0179 22.9689 28.6978 23.6623C28.0391 24.0064 27.3799 24.37 26.7322 24.7431C26.4081 24.9361 26.0831 25.1187 25.7654 25.3184L25.2813 25.6073C25.2731 25.6227 25.1476 25.6909 25.1041 25.7106L24.9853 25.7725L24.7475 25.9028L24.7912 25.926C23.9064 26.1561 24.4769 26.4408 23.536 26.7266C23.1765 27.2765 22.3223 27.6284 21.8791 28.292L21.7715 28.2774C21.6138 28.5403 21.3977 28.7634 21.1398 28.9293C21.0094 29.0275 20.8841 29.1323 20.7644 29.2433L20.6775 29.3321L20.558 29.4694L20.4684 29.5568L20.4229 29.6051C20.4186 29.6687 20.3827 29.699 20.3558 29.7308Z" fill="#C58A46"/>
<path d="M64.7563 23.1249C64.8549 23.138 64.9613 23.1486 64.949 23.1717L65.3791 23.4475C65.4695 23.5139 65.5689 23.567 65.6744 23.605L65.7242 23.691C65.8885 23.7787 65.8693 23.8146 65.8488 23.8036C66.3207 24.2731 66.7484 24.2442 67.2626 24.7395C67.4201 24.7411 67.1959 24.5555 67.1984 24.5074C67.4347 24.5682 67.6655 24.6484 67.8886 24.7472C68.0926 25.0077 68.8329 25.6171 68.618 25.6673C69.0898 25.9949 68.5225 25.4878 68.7943 25.5966L68.844 25.6395C68.7153 25.5385 68.6087 25.412 68.5309 25.268C68.54 25.1707 68.9823 25.4298 69.098 25.5344L68.938 25.5809C69.4078 25.8316 69.4241 25.6095 69.7681 25.6942C70.0956 25.9646 69.8299 25.9184 69.8417 26.0632L70.2263 26.2883L70.1825 26.3704C70.4226 26.4576 70.6491 26.5785 70.8552 26.7294C70.5686 26.6358 71.2945 27.1485 70.901 27.0143C71.0636 27.167 71.2214 27.0567 71.2404 27.2251C71.4328 27.2355 71.1143 27.0721 71.0398 26.9829C71.0427 26.8229 71.4763 27.2158 71.7125 27.3419C71.6897 27.4155 71.5181 27.3107 71.7466 27.5315C71.8231 27.5385 71.897 27.563 71.9625 27.6031C72.028 27.6433 72.0835 27.6979 72.1245 27.7629C72.1786 27.6863 72.424 27.9557 72.5669 28.065C72.4129 27.9333 72.2197 27.7082 72.373 27.7175C72.572 27.8044 72.7568 27.9208 72.9211 28.0628L72.7501 27.8825C73.0986 27.9465 73.1071 28.2643 73.4751 28.4771C73.3338 28.4162 73.1892 28.3632 73.0419 28.3185C73.2298 28.399 73.5756 28.567 73.8529 28.715L74.0591 29.0394C74.1355 29.0076 74.3782 29.2822 74.4348 29.2069C74.7547 29.5161 74.0814 29.0842 74.0025 29.1147C74.4197 29.4824 74.4557 29.2543 74.7997 29.6852L74.6041 29.65C74.7431 29.7605 75.0601 29.933 75.051 29.9809C75.0698 29.958 74.9916 29.9129 74.9023 29.8454C75.1024 29.761 75.6393 30.2322 75.703 30.0387L75.5132 29.8813C75.8373 30.0774 76.1314 30.1322 76.3233 30.3599C76.4629 30.5432 76.1185 30.3726 75.9842 30.3339C76.2582 30.5559 76.3421 30.3369 76.6709 30.6047C76.5085 30.4455 76.586 30.4177 76.7229 30.4578C76.5331 30.3004 76.1449 29.9647 76.1679 30.0824L76.2273 30.1504C76.1742 30.188 76.0629 30.1121 75.9945 30.0921C75.7251 29.8922 75.9193 29.93 75.8913 29.859C75.4594 29.4999 75.7343 29.9862 75.3298 29.6747L75.2978 29.6049C75.0716 29.4973 74.7623 29.2795 74.6371 29.3347C74.5285 29.1118 74.1427 29.0312 73.9919 28.8255C74.1233 28.5791 74.6782 29.3566 75.001 29.4069C74.8189 29.2042 75.2032 29.3928 75.329 29.4105L74.5767 29.009C74.5447 28.9392 74.4253 28.6809 74.2433 28.6695L74.2916 28.7151C74.0059 28.5395 74.0189 28.6882 73.7992 28.4819C73.7783 28.4345 73.8741 28.4527 73.9041 28.4522C73.7045 28.2699 73.6876 28.3696 73.5284 28.2847C73.3261 28.1075 73.7031 28.2724 73.5393 28.1158C73.2268 28.0215 73.157 27.8062 72.937 27.6558C72.9317 27.8574 71.9398 27.2127 72.3302 27.6617L71.7442 27.3753C71.6266 27.1938 72.2329 27.4548 72.1629 27.246L72.5779 27.5499C72.6252 27.3377 71.6257 27.0285 71.4729 26.6535C71.2689 26.5178 71.0836 26.3557 70.9219 26.1716L70.8973 26.3661C70.6965 26.1798 70.67 26.0503 70.6851 26.0221C70.557 25.9447 70.4341 25.8592 70.3169 25.7662C70.3839 25.7701 70.4488 25.7911 70.5053 25.8272C70.392 25.6316 70.3219 25.6271 70.2346 25.63C70.0925 25.5833 69.9596 25.5123 69.8417 25.4203L70.0023 25.4533C69.9085 25.4065 69.7813 25.3419 69.7663 25.3701C69.7108 25.3324 69.6514 25.3007 69.5891 25.2756C69.6362 25.415 69.7159 25.5412 69.8215 25.6436C69.3428 25.2365 68.9089 25.0049 68.5371 24.5889C68.581 24.5562 68.8084 24.6183 68.7494 24.5868C68.5493 24.4239 68.2472 24.3286 68.2282 24.4075C68.1743 24.3787 68.1332 24.3568 68.0973 24.3376C68.0725 24.2511 68.0177 24.1763 67.9427 24.1266C67.909 24.0794 67.8668 24.039 67.8183 24.0074C67.668 24.0789 67.268 23.7467 67.1393 23.7406C67.2514 23.825 67.3695 23.9012 67.4925 23.9687C67.2577 23.939 67.0434 23.9202 66.9393 23.7691C67.3236 23.9082 66.649 23.423 67.1831 23.708C66.913 23.3363 66.9335 23.6935 66.579 23.412L66.3593 23.2057C66.4495 23.1417 66.7928 23.4008 66.753 23.3333L66.5732 23.2374C66.8 23.276 67.4208 23.726 67.8802 23.8789L67.1071 23.3311C66.5659 23.0719 65.9916 22.7325 65.4273 22.4115C64.9113 22.1141 64.3664 21.8697 63.8011 21.6821L63.8396 21.7026C63.8187 21.7047 63.7899 21.7091 63.7721 21.7425L63.742 21.7L63.5291 21.6787C63.2696 21.4523 62.9955 21.2432 62.7085 21.0528C62.8853 21.2098 62.8853 21.2098 62.8703 21.2875C62.7784 21.367 62.7364 21.3776 62.4523 21.193C62.48 21.1287 62.6637 21.2234 62.4675 21.0594C62.5666 21.1518 62.4432 21.142 62.308 21.0863C62.155 20.9651 61.8633 20.8193 61.8976 20.7552C61.9689 20.7765 62.0353 20.8119 62.0927 20.8593C62.1807 20.8799 61.7949 20.6509 62.0576 20.7087L61.7355 20.583C61.5765 20.4421 61.8964 20.5534 61.8395 20.4869C61.294 20.2913 60.9683 20.3021 60.4683 20.1573C60.4997 20.1162 60.5243 20.0702 60.5409 20.0213C60.183 19.8204 59.6835 19.8538 59.2621 19.6915C59.351 19.6796 59.4882 19.7562 59.6241 19.7858C58.9967 19.4905 58.4079 19.2587 57.8279 19.0349C57.248 18.8111 56.6717 18.5992 56.0696 18.3306L55.7019 18.4014L55.3984 18.2097C54.199 17.837 52.9573 17.6174 51.7029 17.5562C51.2952 17.5167 51.471 17.416 51.2853 17.3498C50.3812 17.2267 50.155 17.4093 49.3042 17.3904C49.4238 17.3455 49.633 17.2131 49.2652 17.1915C49.2185 17.2335 49.1619 17.263 49.1007 17.277C49.0396 17.2911 48.9758 17.2894 48.9155 17.272L49.0351 17.227C48.7523 17.1755 48.4648 17.1547 48.1775 17.165C47.799 17.1655 47.421 17.1941 47.0466 17.2505C46.7031 17.3097 46.3641 17.3932 46.0324 17.5005C45.3522 17.5265 46.0944 17.3225 45.965 17.293C46.4482 17.3333 46.2979 17.2564 46.3998 17.1954C46.1459 17.2445 45.8401 17.2923 45.6997 17.1844C45.4071 17.1917 45.1168 17.2386 44.8368 17.3239C45.0102 17.2648 45.1675 17.3224 45.0058 17.3844C44.7066 17.3764 43.9774 17.4818 44.0048 17.3316C42.2228 17.5299 40.4526 17.8221 38.7016 18.207C38.4155 18.3412 38.9338 18.1859 38.7818 18.2729C38.3732 18.4637 38.4284 18.2986 38.104 18.4552L38.2267 18.3427C37.9658 18.404 37.7108 18.4886 37.465 18.5955C37.2134 18.7085 36.9719 18.8335 36.7362 18.9352C36.7911 18.826 36.3094 18.9745 36.7043 18.8094C36.4731 18.8904 36.063 18.5957 35.8993 18.7292L36.2786 19.0075C36.2762 19.0491 35.9385 19.1194 35.977 19.1399C35.7573 19.1206 35.5359 19.1335 35.3199 19.1783C35.2201 19.1118 35.5861 19.0071 35.7867 18.9526C35.7689 18.7882 35.0871 19.0705 35.3302 18.8376C34.9118 19.0034 35.4146 18.8958 35.1792 19.034L34.7992 19.1279L35.1037 19.0827C34.8095 19.2323 34.7418 19.3775 34.3053 19.4413L33.9342 19.7411C33.8588 19.6414 33.6206 19.8342 33.3952 19.8919L33.5027 19.7646C33.3114 19.8487 33.1085 19.9038 32.9009 19.9281C33.0224 19.7622 33.1698 19.8507 33.203 19.7266L32.8713 19.8167C32.8995 19.8812 32.7217 20.0105 32.9611 19.9635C32.6702 20.2889 32.2976 20.5306 31.8817 20.6634C31.5008 20.6909 32.1878 20.4113 32.0068 20.3609C31.2366 20.6422 31.222 21.0465 30.7899 21.2379C30.2208 21.4452 30.3043 21.5359 29.7581 21.8115C29.8964 21.6512 29.336 21.9225 29.2023 21.9072L29.3778 21.7206C29.2252 21.8271 29.0506 21.8823 29.071 21.8009C29.1522 21.8837 28.4132 22.2608 28.0707 22.5132L28.1759 22.5694C27.8708 22.7941 27.5519 22.9994 27.2211 23.1841C26.7879 23.4705 26.9346 23.4861 26.6456 23.7803C26.4116 23.817 26.3791 23.7172 26.3902 23.5913C26.5764 23.5154 26.7571 23.4268 26.931 23.326C27.4558 22.9236 27.803 22.4956 28.4063 22.2242C28.5481 21.8845 28.0291 22.4614 27.7093 22.5413C27.6982 22.5189 27.7258 22.5105 27.7367 22.49C27.713 22.5029 27.6883 22.514 27.6629 22.5231C27.8553 22.3851 28.1761 22.1673 28.1784 22.0333C27.8408 22.2455 28.034 22.3717 27.5575 22.5229C27.2727 22.7599 26.9254 22.7493 26.7249 22.8467C26.5527 23.0582 26.6463 23.2103 26.1171 23.485L26.2745 23.2394C25.6913 23.5842 26.1032 23.5667 25.5688 23.8881C25.7615 23.7865 25.4575 24.1089 25.8108 23.892C25.5871 24.1431 25.3249 24.3571 25.0338 24.5257C24.9696 24.5904 25.0417 24.5728 25.0535 24.6187C25.4123 24.4903 25.4987 24.2233 25.8294 24.1723L25.9664 23.9157C26.2865 23.7733 26.3769 23.8512 26.2255 24.0111C26.2873 23.9523 26.3608 23.9072 26.4412 23.879C26.6001 24.0264 26.048 24.0285 26.041 24.2456L26.2413 24.1052C26.3998 24.1667 25.8193 24.5065 25.5521 24.6672C25.2204 24.8066 24.935 24.9643 24.8601 24.8946L25.2363 24.5975C25.0991 24.6491 24.9739 24.7281 24.8683 24.8297C24.8084 24.8802 24.7509 24.9385 24.7031 24.9724C24.6442 25.0191 24.5812 25.0605 24.515 25.0962C24.4876 25.0929 24.4599 25.0962 24.434 25.1057C24.4469 25.1125 24.4648 25.1221 24.4648 25.1221C24.4152 25.145 24.362 25.159 24.3075 25.1635C24.0908 25.2852 23.815 25.5238 23.6055 25.6197L23.6781 25.6815L23.6771 25.6216C23.8741 25.5058 24.1608 25.3951 24.0502 25.5405C23.9589 25.6335 23.8467 25.7032 23.7228 25.7438C23.599 25.7844 23.4672 25.7947 23.3385 25.7739C23.3614 25.5949 23.7531 25.5039 23.9516 25.3296C23.7454 25.302 23.4996 25.5895 23.0145 25.8185C23.1055 25.5737 23.5259 25.4783 23.5515 25.3007C23.1774 25.5132 23.141 25.6618 22.7509 25.8921C22.7572 25.7999 23.1249 25.5313 23.0453 25.4888L22.7802 25.6209C23.3627 25.2032 22.5636 25.5383 23.0116 25.1873C22.755 25.291 22.7637 25.5034 22.406 25.6421C22.5313 25.6299 22.8431 25.5524 22.5826 25.8056L22.2295 26.0161C22.0576 26.0662 22.4791 25.635 22.2288 25.7454C22.1234 25.8441 22.0179 25.9428 21.9162 26.0468C21.9559 26.0712 22.1319 25.964 22.0648 26.0898C21.8392 26.2035 21.8517 26.4706 21.6736 26.7053C21.5547 26.8231 21.4132 26.9158 21.2577 26.9778C20.9131 27.4566 20.383 27.9616 20.1282 28.4389C20.3099 28.1171 20.0057 28.3471 19.8138 28.4656C20.0788 28.1422 19.9809 28.0537 19.8987 28.0098C19.7334 28.2084 19.7275 28.4295 19.8491 28.3625C19.4933 28.6705 19.8097 28.5722 19.4358 28.7782C19.2256 28.9001 19.4406 28.5962 19.3425 28.6131C18.9923 28.9108 19.3579 28.8191 18.9697 29.1262C18.9771 29.0939 19.0053 29.0595 18.9582 29.0673C18.7801 29.1846 18.6474 29.3592 18.582 29.5622C18.2496 29.6288 18.0239 30.1381 17.9423 29.9758C17.5217 30.4734 18.0751 29.9742 18.0299 30.1083C17.8545 30.3575 17.6404 30.5771 17.3957 30.7589C17.4817 30.6314 17.5804 30.5128 17.6901 30.405L17.5087 30.4236C16.8957 30.9602 17.3625 30.9819 16.7774 31.4971C16.9883 31.1514 16.7933 31.3375 16.8587 31.1284C16.7998 31.2388 16.3755 31.6816 16.6821 31.4594C16.485 31.6741 16.3419 31.8186 16.1962 31.9618C16.0692 32.163 15.9689 32.3799 15.898 32.6071C15.7087 32.8407 15.4916 33.0503 15.2515 33.2313C14.8061 33.9299 14.2037 34.4591 13.7446 35.2328L13.7901 35.1846C13.3579 35.7287 14.1013 35.0341 13.6682 35.6107C13.6062 35.4425 13.3313 35.8958 13.1348 36.0415C12.5519 36.7195 12.3374 37.3502 11.803 37.9683C11.7814 37.9469 11.7895 37.8886 11.8648 37.7474C11.4769 38.2394 11.2297 38.6778 10.918 39.1445L10.9149 39.1131C10.326 39.8209 10.0247 40.5833 9.58648 41.4044C9.60669 41.3295 9.56886 41.2829 9.58085 41.2234C9.31414 41.6118 8.9223 42.2533 8.88171 42.6075C8.48149 43.0236 8.74116 42.9512 8.27588 43.514C8.22967 43.5387 8.28308 43.4387 8.30636 43.395C8.12298 43.6593 7.9578 43.9358 7.81197 44.2225C7.5307 44.9658 7.61883 45.2272 7.1657 46.0206C6.96663 45.9671 7.37798 45.4745 7.23677 45.3991C7.19709 45.5917 7.11876 45.7742 7.00652 45.9356C7.00191 45.765 6.97656 45.8867 6.95517 45.7599C6.83038 45.901 6.81323 46.5512 6.79526 46.5416C6.82966 46.5699 6.87536 46.5152 6.94607 46.3518C6.97207 46.5997 6.57561 47.1695 6.4407 47.5954C6.50404 47.4643 6.72539 47.0681 6.74369 47.2625C6.45643 47.7884 6.55775 48.0436 6.46752 48.4537C6.17017 48.9181 6.47114 48.0204 6.301 48.0549C6.21592 48.1216 6.02437 48.2765 6.06701 48.0421C5.90192 48.44 5.77172 48.8515 5.67786 49.2719L5.64192 49.2528C5.42912 49.8184 5.33614 50.4809 5.09236 50.9376L5.22931 50.681C5.16594 50.8661 5.12546 51.0581 5.10878 51.253C5.05127 51.2124 4.85714 51.5638 4.86297 51.3922C4.96496 51.7203 4.50069 52.7385 4.59413 53.095C4.4945 53.2199 4.45548 53.0705 4.42725 53.0059C4.57071 52.6506 4.65818 52.5423 4.6457 52.3247C4.53887 52.6237 4.4098 52.8285 4.38019 52.7665C4.393 53.1195 4.19543 53.8482 4.2697 54.0428C4.13036 54.2421 4.02611 54.4436 3.9484 54.3296C3.70066 55.2821 4.42239 53.9792 4.07057 55.0278C3.81003 55.4789 4.08806 54.513 3.83658 55.1634L3.85815 55.0365C3.4326 55.4259 3.94012 55.433 3.75796 55.9721C3.58679 55.9961 3.77408 55.5587 3.54897 55.9001C3.42621 56.4083 3.5775 56.6934 3.37344 57.1747L3.33699 57.0761C3.24779 57.3977 3.02865 58.0061 2.94339 58.3266C2.9107 58.3322 2.92748 58.2884 2.93826 58.2249C2.70578 58.7965 2.93517 58.4903 2.69413 58.942L2.72373 59.1028C2.9052 58.7952 3.02227 58.4539 3.06785 58.0996C3.0591 58.4312 3.40045 57.6803 3.48004 57.8712L3.4482 57.7948C3.90869 57.068 4.25554 56.0596 4.67035 55.0908C4.72996 54.4104 5.08858 54.0414 5.22299 53.3383C5.09069 53.1721 5.2319 53.198 5.40619 52.6118C5.31596 52.9231 5.51727 52.6942 5.6145 52.512C5.61842 52.3732 5.64088 52.2355 5.68129 52.1026C5.77338 52.0165 6.18149 51.3508 6.17004 51.0446C6.35817 50.723 6.19331 51.1494 6.20015 51.2354C6.33966 51.1286 6.23817 50.9293 6.34345 50.8371C6.34345 50.8371 6.37032 50.8548 6.35251 50.8881C6.55521 50.36 6.72588 50.0588 6.96898 49.5291C6.82743 49.4173 7.13214 48.97 7.1782 48.7044C7.19514 48.8025 7.37164 48.4285 7.46904 48.2893L7.47677 47.9472C7.50503 47.6161 7.7272 47.583 7.84037 47.1917L7.7707 47.2667C7.94379 46.8406 8.18743 46.4468 8.4914 46.1017C8.87508 44.9973 9.40907 43.951 10.0783 42.9923C10.6747 42.0973 11.3163 41.2165 12.044 39.9828C12.0997 39.7982 11.8965 40.0491 11.9061 39.8828C12.0482 39.629 12.0899 39.5754 12.2325 39.3515C12.0653 39.5227 12.1343 39.5232 12.1096 39.4705L11.9319 39.8406C11.9191 39.8337 11.9343 39.799 11.8909 39.8186C11.8286 39.9642 11.7539 40.1041 11.6676 40.2369C11.7625 39.9974 11.6839 39.8664 11.916 39.6046C11.9066 39.659 11.8866 39.7111 11.8573 39.7579C12.0133 39.5213 11.9766 39.4787 12.1215 39.3186C12.2998 39.1203 12.2197 39.1468 12.2848 39.1486C12.4518 38.9344 12.6227 38.7256 12.7923 38.5128C12.9075 38.1813 13.1111 37.8875 13.381 37.6631C13.4281 37.8037 13.102 38.1242 13.0881 38.3541L13.3278 38.1523L13.2619 38.0842L13.5192 37.7566L13.5197 37.7866C13.5152 37.7499 13.5208 37.7126 13.5359 37.6789C13.551 37.6451 13.5751 37.6161 13.6054 37.595C13.6183 37.6018 13.6659 37.5745 13.6439 37.6155L13.7681 37.3521C13.746 37.548 13.9411 37.1576 14.0075 37.2557C14.6067 36.5039 14.5896 36.1651 15.2311 35.5811C15.1118 35.6625 15.2539 35.2603 15.4309 35.0646C15.5443 34.9635 15.5864 34.9464 15.5615 35.0486L15.7259 34.7406C16.1305 34.5016 16.3245 34.1073 16.7424 33.6149L16.7631 33.6688C16.8633 33.4118 17.0069 33.174 17.1878 32.9657L17.2278 33.0761C17.5361 32.7889 17.2575 32.693 17.6017 32.3756C17.5093 32.3262 17.2871 32.5077 17.1798 32.4801C17.3312 32.462 17.6652 32.0896 17.5327 32.1277C17.8032 31.7446 17.7448 31.8849 17.7907 31.8731L17.9276 31.6165C18.1514 31.3765 18.1017 31.6302 18.0658 31.7594C18.2287 31.4718 18.4525 31.2233 18.7216 31.0313L18.6517 31.1622L18.9802 30.8495C19.1751 30.5387 19.4305 30.2703 19.7314 30.0602L19.6355 30.3388C19.8756 30.2164 19.704 30.2105 19.7396 30.1437C19.8859 29.9337 20.1058 29.7863 20.3558 29.7308C20.3827 29.699 20.4186 29.6687 20.4229 29.6051L20.4684 29.5568L20.558 29.4694L20.6775 29.3321L20.7644 29.2433C20.8841 29.1323 21.0094 29.0275 21.1398 28.9293C21.3977 28.7634 21.6138 28.5403 21.7715 28.2774L21.8791 28.292C22.3223 27.6284 23.1765 27.2765 23.536 26.7266C24.4769 26.4408 23.9064 26.1561 24.7912 25.926L24.7475 25.9028L24.9853 25.7725L25.1041 25.7106C25.1476 25.6909 25.2731 25.6227 25.2813 25.6073L25.7654 25.3184C26.0831 25.1187 26.4081 24.9361 26.7322 24.7431C27.3799 24.37 28.0391 24.0064 28.6978 23.6623C30.0179 22.9689 31.3352 22.3301 32.567 21.7281L32.5863 21.7845C34.6042 20.9618 36.6811 20.2914 38.7994 19.7791C40.919 19.2714 43.077 18.9389 45.2513 18.7848C45.644 18.7043 45.4008 18.5975 45.7481 18.5092C45.9018 18.5055 46.2475 18.4758 46.2534 18.5514C45.9591 18.6021 46.1268 18.6586 46.0296 18.6925C46.5496 18.7034 47.0698 18.6861 47.5879 18.6406L47.222 18.5475C47.419 18.5225 47.6181 18.5183 47.816 18.5348C47.7509 18.5825 47.9734 18.6847 47.8401 18.7059C48.7677 18.4822 48.5569 18.8214 49.3334 18.7511C49.4972 18.5616 50.4841 18.4554 51.1443 18.3989L51.474 18.4858C51.0288 18.4361 51.4677 18.6275 50.9136 18.5593C51.3692 18.6574 51.8059 18.6366 52.2369 18.7314C52.1604 18.6708 52.1919 18.6118 52.3689 18.6139C52.6326 18.6822 52.6455 18.7879 52.9433 18.848L52.6333 18.854C52.8218 18.9644 53.0109 18.9005 53.2004 18.9225C53.2529 19.0033 53.694 19.1102 53.597 19.1869C53.9329 19.1979 54.2678 19.2312 54.5993 19.2867C54.1694 19.1034 54.7407 19.2072 54.7075 19.1334L54.1877 19.0505C54.9057 19.2689 53.9493 19.009 53.9753 19.158C53.6495 19.0205 54.49 19.0404 53.9174 18.9326C54.2639 18.9758 54.4723 19.0178 54.6822 19.0573C54.9387 19.1148 55.1984 19.1566 55.46 19.1822C55.0365 19.098 55.5591 19.1263 55.3511 19.0153C55.8852 19.152 55.4687 19.0979 55.6111 19.2266C55.8995 19.2981 55.981 19.4175 56.2718 19.3979C56.729 19.5859 56.1693 19.485 56.3901 19.6028C56.1514 19.5635 55.9182 19.4966 55.695 19.4033C55.4052 19.3343 55.1512 19.2911 55.1755 19.4557C54.9336 19.3959 54.6113 19.425 54.2632 19.348C54.611 19.5087 54.9774 19.6256 55.354 19.696L55.4208 19.5339C55.704 19.6026 55.7949 19.5127 55.9973 19.591C55.8745 19.6046 56.0481 19.7368 56.2783 19.7937C56.2276 19.7403 56.1291 19.7272 56.1635 19.706C56.5886 19.8242 56.6809 19.7316 57.197 19.8587C56.9091 19.7248 56.6289 19.5752 56.3574 19.4106C56.4961 19.3363 56.6407 19.4794 56.8735 19.5377C56.8394 19.5459 56.7848 19.5431 56.8516 19.5787L57.114 19.6001C57.6174 19.8127 56.9957 19.7414 57.4032 19.9358C57.6608 20.1392 57.8186 20.0289 58.0234 20.1646L57.9907 20.1207C58.0267 20.1376 58.0618 20.1564 58.0959 20.1769C58.3724 20.2585 58.6596 20.3755 58.7691 20.3186C58.7835 20.3658 59.0132 20.3928 59.1079 20.4071C59.3784 20.4217 59.6357 20.5287 59.8367 20.7103L59.8033 20.6925C60.1402 20.8525 60.3835 21.0022 60.2894 21.0179C60.4589 21.1083 60.6309 21.2001 60.8029 21.2919L60.6966 21.3737C60.9666 21.4863 61.2584 21.5373 61.5505 21.5228C61.923 21.747 62.3189 21.9296 62.7312 22.0672C62.7895 22.106 62.8515 22.139 62.9161 22.1659L62.7401 22.0258C63.1061 22.2178 63.0939 22.1355 63.3353 22.2643C63.2839 22.2369 63.2788 22.2342 63.4123 22.3054L63.551 22.3794C63.5407 22.374 63.4868 22.3452 63.4303 22.315L63.4587 22.373C63.7016 22.6411 63.9472 22.5579 64.2385 22.7662C64.1995 22.7487 64.1617 22.7286 64.1255 22.7059C64.2876 22.8287 64.4559 23.113 64.5783 23.0629C64.6309 23.0993 64.6924 23.1208 64.7563 23.1249ZM64.7563 23.1249C64.7922 23.1441 64.8307 23.1647 64.8764 23.2088L64.7563 23.1249Z" stroke="#C58A46" stroke-width="0.5"/>
<path d="M78.2589 31.8985C78.3 31.8215 78.3874 31.7693 78.2838 31.7271C78.262 31.7155 78.1608 31.8066 78.1992 31.7281L78.3507 31.7068C78.3519 31.6668 78.3385 31.6269 78.3127 31.5942C78.2595 31.5344 78.2011 31.4789 78.1383 31.4285L78.1085 31.3203L78.1686 31.3325C78.151 31.2539 78.1935 31.1545 78.0557 31.1305C78.1239 31.1339 78.2754 31.1323 78.2469 31.061L78.1624 31.0159C78.1747 30.9928 78.2415 31.012 78.153 30.9284C78.0928 30.9821 78.0548 30.876 78.1477 30.8069C78.0562 30.8537 78.0328 30.9369 77.9345 30.9767C77.947 30.8548 77.6929 30.9764 77.7163 30.8603L77.8174 30.8351C77.8057 30.7993 77.7838 30.767 77.7544 30.742C77.7249 30.7169 77.6891 30.7001 77.6511 30.6936L77.703 30.6817C77.6965 30.5298 77.5465 30.4827 77.6682 30.3333L77.5782 30.2853C77.5877 30.2874 77.5974 30.2876 77.6067 30.2859C77.616 30.2842 77.6248 30.2807 77.6325 30.2755C77.6402 30.2703 77.6466 30.2636 77.6514 30.2558C77.6562 30.248 77.6592 30.2393 77.6602 30.2301C77.6522 30.1665 77.4884 30.1384 77.457 30.1777C77.5161 29.9421 77.2936 29.9652 77.2531 29.7391C77.3624 29.7051 77.256 29.6417 77.3652 29.6406L77.2861 29.5984C77.2861 29.5984 77.3162 29.5881 77.3244 29.5793C77.3326 29.5704 77.3067 29.5467 77.2671 29.5487L77.2835 29.5574L77.2646 29.4616L77.1744 29.4926L77.2251 29.3976C77.3534 29.3936 77.3218 29.5185 77.4406 29.4929C77.4543 29.4672 77.542 29.3029 77.3468 29.2746L77.3322 29.0788C77.3827 29.0497 77.3458 29.0861 77.3637 29.0198C77.3816 28.9535 77.3092 28.9907 77.2943 28.9201C77.3062 28.9336 77.3228 28.9424 77.3406 28.9448C77.3545 28.8533 77.2261 28.8837 77.1579 28.8473C77.1661 28.8846 77.2179 28.9057 77.2438 28.9294C77.2697 28.9531 77.2178 28.9386 77.2055 28.9486L77.2927 29.0149C77.2436 29.0282 77.301 28.9995 77.2681 29.0611C77.2504 29.0153 77.2246 28.9725 77.1919 28.9347C77.1004 28.9353 77.0989 29.017 77.0307 29.0004C76.6551 28.4371 77.0178 27.915 76.4195 27.4803C76.4729 27.3801 76.5033 27.1787 76.4174 27.1493L76.3996 27.1827C76.2987 27.1289 76.4832 27.0261 76.3331 26.9988L76.1789 26.9858C76.2021 26.9421 76.1587 26.8463 76.2242 26.8417C76.1424 26.7981 76.1891 26.6581 76.0115 26.7282C75.9946 26.614 75.9642 26.5015 75.9207 26.3928C75.931 26.3942 75.9414 26.3929 75.9507 26.3891C75.9986 26.3388 75.8266 26.3723 75.9004 26.3061C75.9427 26.3056 75.9889 26.4029 76.0069 26.3036C75.8622 26.2924 75.9227 26.074 75.9705 26.0237C75.9393 25.9926 75.8992 25.9712 75.856 25.9626C75.8588 25.9113 75.9396 25.806 75.9927 25.864C75.8987 25.7512 76.0299 25.6893 75.8496 25.7382C75.6724 25.6436 75.8393 25.449 75.6238 25.3736C75.5575 25.1223 75.5666 24.8615 75.6498 24.6223L75.5966 24.6302C75.7331 24.6107 75.7608 24.3881 75.87 24.4265C75.7554 24.3983 75.7775 24.265 75.8035 24.1899L75.8868 24.1914C75.836 24.3391 75.9277 24.2133 75.937 24.36C75.9206 24.3513 75.9152 24.3484 75.8947 24.3539C75.9382 24.4168 75.9721 24.5634 76.0183 24.6277L75.946 24.6386C75.9512 24.7667 76.1901 24.7194 76.2787 24.8161C76.2115 24.9419 76.2077 24.8244 76.0697 24.9058C76.1172 25.0268 76.5612 24.7987 76.3561 25.0256L76.3261 25.0096C76.3612 25.1669 76.2251 24.9755 76.1743 25.1232C76.2831 25.3528 76.3944 24.9406 76.5565 25.1161C76.4445 25.1421 76.4321 25.2048 76.3924 25.2792C76.533 25.2586 76.6583 25.398 76.8139 25.4085C76.8002 25.4139 76.788 25.4222 76.7782 25.4328C76.7684 25.4434 76.7612 25.4561 76.7571 25.47C76.7531 25.4838 76.7522 25.4985 76.7547 25.513C76.7571 25.5275 76.7628 25.5415 76.7713 25.554C76.6703 25.5463 76.6922 25.5118 76.676 25.4174C76.6269 25.4241 76.5313 25.4325 76.4985 25.4875C76.7182 25.4696 76.7491 25.7334 76.9771 25.7067C76.9103 25.6941 76.8923 25.7999 76.8267 25.8243C76.9209 25.8251 76.944 25.8869 76.974 25.9029L76.9892 25.8286C76.9643 25.967 77.1962 26.0314 77.2711 26.1538L77.2328 26.1664C77.3036 26.2437 77.4483 26.2813 77.4685 26.3812C77.4004 26.3448 77.3087 26.4443 77.2704 26.4833C77.1447 26.5613 76.9689 26.3916 76.9468 26.5447C77.0586 26.6044 77.2662 26.5634 77.2836 26.7014C77.3901 26.6989 77.3821 26.5891 77.3617 26.5551C77.453 26.6269 77.4104 26.8119 77.5496 26.807C77.5265 26.7716 77.5415 26.75 77.5852 26.7403C77.5647 26.7459 77.8732 26.7654 77.8416 26.8244C77.7611 26.8309 77.7993 26.8447 77.7119 26.8442C77.6777 26.9084 77.7459 26.9316 77.7963 26.9552C77.642 27.0147 77.727 26.8292 77.5398 26.9173C77.5776 27.1287 77.7756 27.0926 77.9419 27.2209C77.9622 27.301 78.0003 27.3477 77.9906 27.4382C77.9906 27.4382 77.9688 27.4068 77.9524 27.4178C77.8892 27.6215 78.0519 27.5072 77.9696 27.6809C78.1293 27.6969 78.1822 27.8604 78.1984 27.9679C78.1766 27.9563 78.1178 27.981 78.0933 27.9745C78.2185 28.1535 78.438 28.2673 78.413 28.498L78.3966 28.4893C78.4667 28.6033 78.5193 28.7259 78.5529 28.853C78.5417 28.8402 78.5265 28.8313 78.5099 28.8279C78.4932 28.8244 78.4761 28.8265 78.4615 28.8339C78.446 29.0401 78.6875 29.1063 78.7007 29.3178C78.6583 29.3974 78.7482 29.4849 78.5939 29.518C78.6605 29.669 78.7374 29.3935 78.7849 29.5474L78.7918 29.5346C78.9703 29.6859 78.9043 29.9014 79.0733 30.0443C79.0229 30.1142 79.0028 30.2012 79.0169 30.288C79.0956 30.294 79.1719 30.3221 79.2364 30.3689C79.2325 30.4231 79.2375 30.4781 79.2511 30.5317C79.3087 30.4239 79.3316 30.5582 79.3739 30.5709C79.2702 30.5617 79.2701 30.6276 79.1719 30.5686C79.1469 30.7663 79.4626 30.5753 79.4568 30.7701L79.3556 30.8414C79.3748 30.8055 79.3066 30.7889 79.2875 30.7589C79.2684 30.7949 79.264 30.9212 79.3623 30.9472C79.4605 30.9732 79.4076 30.7834 79.5152 30.8969C79.3608 30.9827 79.5248 30.879 79.4112 31.0327C79.428 31.0265 79.4463 31.0239 79.4646 31.0253C79.4829 31.0267 79.5009 31.0319 79.5173 31.0407C79.5337 31.0494 79.5481 31.0615 79.5595 31.0759C79.5708 31.0904 79.5789 31.1069 79.583 31.1244C79.5707 31.1475 79.5543 31.1388 79.5352 31.1418C79.5691 31.2687 79.684 31.1123 79.7384 31.2205C79.7124 31.2693 79.5746 31.2189 79.5622 31.2947C79.5196 31.4204 79.6386 31.3354 79.6438 31.4438C79.6698 31.395 79.8241 31.3751 79.8677 31.4313C79.7857 31.4733 79.6559 31.5261 79.5906 31.4385C79.5509 31.5129 79.5356 31.6202 79.4142 31.5785C79.5888 31.6453 79.6445 31.8036 79.834 31.9081C79.7916 31.9415 79.7929 31.9851 79.8132 32.0454C79.9005 32.092 80.1407 32.0883 80.1038 32.1576C80.1747 32.1756 80.1803 32.1192 80.224 32.103L80.307 32.2034C80.2632 32.2855 80.1365 32.1487 80.0764 32.2089L80.0584 32.3213C80.1388 32.4005 80.24 32.3028 80.2974 32.2609C80.2645 32.3225 80.2931 32.3477 80.3258 32.3717C80.3585 32.3958 80.398 32.4399 80.3788 32.4956C80.3367 32.3841 80.2916 32.4227 80.2424 32.4492C80.1932 32.4757 80.1509 32.4763 80.1197 32.3837C80.1089 32.415 80.1011 32.4472 80.0963 32.4801C80.0512 32.4923 80.0281 32.4437 79.9927 32.4248C79.9673 32.3996 79.9349 32.3824 79.8999 32.3753C79.8875 32.4841 80.0034 32.5294 80.0045 32.6653C79.8571 32.6394 79.9857 32.4903 79.822 32.4557C79.763 32.6122 79.9061 32.7183 79.7723 32.759C79.7151 32.6889 79.8368 32.5725 79.6894 32.5532C79.6156 32.5995 79.4449 32.6305 79.5293 32.7415C79.6057 32.7822 79.6522 32.7147 79.6428 32.6536L79.5896 32.6483L79.6797 32.637C79.6495 32.6935 79.7353 32.7954 79.7407 32.8642C79.7313 32.8659 79.7227 32.8701 79.7157 32.8762C79.7088 32.8823 79.7037 32.8902 79.701 32.8991C79.7106 32.8994 79.7202 32.899 79.7297 32.8979C79.7215 32.9048 79.7117 32.9097 79.701 32.9122C79.7036 32.9796 79.8425 33.1197 79.7619 33.1591L79.7103 33.0195C79.6053 32.9997 79.5874 33.0726 79.5245 33.1248C79.5096 33.173 79.5131 33.2256 79.5345 33.2733C79.5559 33.3209 79.5938 33.3605 79.6414 33.385L79.6278 33.3184C79.8105 33.4555 79.5158 33.3971 79.7326 33.5161C79.7558 33.512 79.749 33.4853 79.7327 33.4503C79.7871 33.5387 79.9016 33.6064 79.9564 33.5301C79.9114 33.4764 79.861 33.4264 79.8134 33.3779C79.9485 33.3544 79.7645 33.2133 79.8534 33.1453C79.8998 33.17 79.9271 33.1516 79.9434 33.1933C79.9255 33.2462 79.9204 33.303 79.9286 33.3593C79.9368 33.4156 79.9579 33.4701 79.9905 33.5186C79.9962 33.3897 80.1105 33.5826 80.1284 33.5229C80.1143 33.7265 80.3163 33.7156 80.3022 33.9653L80.1743 33.7849C80.1316 33.9633 80.3169 34.1084 80.3999 34.2747C80.3962 34.2867 80.3888 34.2972 80.3785 34.3047C80.3682 34.3122 80.3556 34.3164 80.3425 34.3166C80.2101 34.2822 80.0451 34.2172 80.0095 34.284C79.738 34.2215 79.9465 34.4021 79.8017 34.4501C79.7473 34.3353 79.8648 34.2793 79.9304 34.2418C79.9177 34.2401 79.9048 34.2399 79.8922 34.2412C79.8922 34.2412 79.899 34.2283 79.9018 34.2232C79.7272 34.163 79.6379 34.4419 79.5824 34.2111C79.8131 34.2187 79.8693 34.0674 79.9323 33.9625C79.9269 33.9241 79.9179 33.8861 79.9052 33.8491C79.9313 33.8003 79.9123 33.711 79.9792 33.7104C79.8964 33.6286 79.7907 33.5721 79.6765 33.5489C79.7663 33.7155 79.8726 33.7723 79.8696 33.9158C79.7413 33.9067 79.6634 33.9805 79.58 34.0251L79.6782 34.1104C79.577 34.1818 79.2794 34.2011 79.3502 34.3114C79.3459 34.2973 79.3381 34.2844 79.3276 34.2736C79.3171 34.2628 79.3042 34.2546 79.2899 34.2496C79.2756 34.2446 79.2605 34.243 79.2458 34.2449C79.2311 34.2468 79.2173 34.2522 79.2056 34.2606L79.2549 34.1682C79.1759 34.0996 78.9793 34.1134 79.0013 34.0328C78.8211 34.0554 78.8564 34.1666 78.6463 34.1204C78.4989 34.1077 78.4913 34.4829 78.2785 34.4221C78.2392 34.2989 78.4207 34.3199 78.3308 34.1928C78.1411 34.174 78.0986 34.2865 78.0192 34.4156C78.0778 34.4634 78.0258 34.5148 78.0229 34.5858L77.9411 34.5422C77.9618 34.4378 77.9902 34.5684 78.0286 34.4702C78.012 34.446 77.9895 34.426 77.9633 34.412C77.9371 34.398 77.908 34.3905 77.8786 34.3901L77.9197 34.3131C77.8625 34.2825 77.7913 34.3765 77.7888 34.2432L77.6712 34.3915C77.5704 34.2915 77.5387 34.4099 77.4554 34.4479L77.5235 34.5106L77.4335 34.4626C77.3638 34.5144 77.4838 34.585 77.3637 34.5935C77.439 34.4523 77.2656 34.495 77.285 34.3338C77.3369 34.3417 77.4282 34.374 77.4175 34.2759C77.3807 34.2728 77.3208 34.1748 77.2759 34.0948C77.2827 34.1215 77.2022 34.0885 77.194 34.1236L77.2287 34.5116C77.1849 34.5937 77.1393 34.1736 77.0779 34.1771C77.1858 34.139 77.0643 34.1369 77.0931 34.05C76.9647 34.1068 76.817 34.2325 76.6929 34.2025L76.734 34.1255C76.6397 34.1906 76.6823 34.0451 76.5647 34.1275C76.5196 34.1727 76.6521 34.1477 76.57 34.2095C76.1443 34.1472 75.7146 34.0333 75.3298 33.9862C75.3614 33.8415 75.1867 33.8538 75.1268 33.802C75.0816 33.8472 75.1074 33.917 75.1525 33.885C75.125 33.9081 75.0916 33.9239 75.0554 33.9311C75.0192 33.9382 74.9812 33.9365 74.945 33.926C74.9357 33.8056 74.8606 33.8215 74.8005 33.8488C74.8292 33.7949 74.813 33.7005 74.9125 33.7833C74.8894 33.7413 75.0821 33.6166 74.932 33.5695C74.8681 33.64 74.7883 33.6953 74.6981 33.7315C74.608 33.7677 74.5097 33.7839 74.4102 33.7791C74.3175 33.7296 74.2628 33.7927 74.2275 33.7145L74.2535 33.6657C74.1989 33.6366 74.1865 33.6993 74.166 33.7444C74.0855 33.7245 74.1458 33.5918 74.1786 33.5434C73.9875 33.5535 73.9189 33.7346 73.7279 33.6854C73.6926 33.6335 73.7392 33.5133 73.6478 33.514C73.3765 33.5756 73.0895 33.5648 72.8166 33.4826L72.7445 33.3683L72.6595 33.5274C72.3867 33.3886 72.093 33.2966 71.792 33.2557C71.8248 33.2336 71.863 33.254 71.8794 33.21C71.7743 33.2166 71.6715 33.4289 71.5788 33.3794C71.5773 33.4281 71.579 33.2674 71.5859 33.2282C71.4657 33.2696 71.3985 33.4349 71.2674 33.477C71.2497 33.4379 71.3262 33.4062 71.28 33.3419L71.2008 33.359C71.2623 33.3028 71.1587 33.2541 71.1792 33.2354C71.1997 33.2166 71.2091 33.2711 71.2255 33.2601C71.2419 33.2491 71.152 33.1747 71.1084 33.125C71.0986 33.1274 71.0896 33.1321 71.0822 33.1387C71.0748 33.1452 71.0693 33.1535 71.0661 33.1628C71.0628 33.1721 71.062 33.1821 71.0636 33.192C71.0653 33.2018 71.0693 33.2113 71.0755 33.2196C71.0196 33.1601 71.0674 33.1625 71.0662 33.0926C70.9898 33.0519 70.9815 33.0936 70.9704 33.1932C70.9593 33.2928 70.9744 33.2712 71.0275 33.3358C70.9444 33.2552 70.8448 33.2383 70.7863 33.1312L70.7452 33.2082L70.7343 33.1826L70.726 33.2507C70.4963 33.458 70.1499 33.3061 69.8699 33.4106L69.6502 33.3428C69.761 33.2338 69.9383 33.2954 69.9876 33.2228L69.9398 33.2335C69.9235 33.1919 70.0231 33.2483 70.0342 33.1487L69.9647 33.0753C69.8556 33.0171 69.9083 33.3123 69.809 33.1307C69.951 33.101 69.7573 33.0306 69.853 32.9498C69.8136 32.8726 69.7697 32.9745 69.7177 33.0655C69.7503 33.0599 69.7845 33.0653 69.8146 33.0809C69.783 33.14 69.6685 33.0657 69.6451 33.2016C69.6366 33.2011 69.6282 33.1988 69.6207 33.1947C69.6131 33.1907 69.6065 33.1851 69.6014 33.1783C69.5742 33.1637 69.5551 33.1206 69.5443 33.0752L69.5102 33.0801C69.5141 33.158 69.4443 33.2428 69.383 33.2134C69.3666 33.2047 69.42 33.1441 69.4255 33.0943C69.3043 32.9406 69.191 32.9691 69.0437 32.8905C69.0881 32.9457 69.1188 33.0096 69.1335 33.0769C69.1192 33.0863 69.102 33.0909 69.0843 33.0903C69.0806 33.1044 69.0735 33.1174 69.0635 33.1281C69.0536 33.1388 69.041 33.147 69.0269 33.1519L69.0625 33.0852C69.0215 33.0831 68.9847 33.0734 68.956 33.1141C68.9272 33.1548 68.9121 33.1962 68.8768 33.0983C68.8885 33.0934 68.8988 33.086 68.9068 33.0766C68.9149 33.0672 68.9205 33.056 68.9233 33.0439C68.8898 33.0316 68.8539 33.0284 68.8196 33.0347C68.8166 32.9694 68.7874 32.9064 68.7381 32.8593L68.7527 33.0353C68.6342 32.9292 68.6505 32.9577 68.5837 32.9451C68.5145 32.7202 68.2669 33.0201 68.2563 32.8232L68.3764 32.8411C68.3439 32.705 68.5134 32.5844 68.4562 32.4945L68.3018 32.5869C68.4312 32.7384 68.1527 32.7679 68.166 32.9267C68.1019 32.9287 68.0708 32.7901 67.99 32.8888C67.9355 32.8597 68.0489 32.7784 67.9808 32.7421C67.9126 32.7057 67.9396 32.852 67.8796 32.82C67.8941 32.7934 67.9016 32.7635 67.9016 32.7328C67.8307 32.695 67.8605 32.8098 67.7677 32.8262C67.7184 32.9186 67.6777 32.7782 67.6641 32.738L67.4551 32.8276C67.4866 32.7686 67.5932 32.7067 67.536 32.6432C67.6127 32.4995 67.7936 32.817 67.8187 32.5467C67.7684 32.4638 67.6684 32.6314 67.6277 32.4976C67.6043 32.6137 67.5129 32.6078 67.4514 32.6508L67.4405 32.612C67.3205 32.5875 67.4182 32.831 67.2914 32.7798C67.2778 32.7396 67.3285 32.6578 67.2507 32.646C67.237 32.6716 67.1988 32.6842 67.2014 32.7384L67.2232 32.75C67.2367 32.8364 67.1208 32.7778 67.0622 32.7564C67.0896 32.7051 67.1211 32.646 67.0706 32.6026C67.1675 32.6378 67.1734 32.4101 67.2593 32.4395C67.2333 32.4882 67.1267 32.5369 67.1703 32.6063C67.2138 32.6757 67.3055 32.5631 67.3983 32.5401L67.3465 32.5124C67.351 32.3136 67.5106 32.3955 67.5532 32.2105C67.5314 32.1988 67.5082 32.2161 67.5096 32.1872C67.5095 32.2333 67.5942 32.1928 67.6365 32.2054L67.5913 32.2901C67.7015 32.4512 67.6938 32.2294 67.8165 32.3081C67.8013 32.3758 67.6129 32.4006 67.7083 32.4779C67.7167 32.3834 67.7929 32.4703 67.8081 32.4025L67.8801 32.5498C67.9577 32.5123 68.0309 32.4674 68.0988 32.4159C68.0618 32.4852 68.0304 32.4783 67.9853 32.5301C68.0863 32.4983 68.1173 32.7423 68.198 32.6107L68.1435 32.5618C68.2268 32.5831 68.2596 32.5676 68.2965 32.5313C68.3083 32.4997 68.3076 32.4644 68.2946 32.432C68.2817 32.3996 68.2572 32.3723 68.2258 32.3551C68.2613 32.374 68.3444 32.448 68.3487 32.3547C68.3868 32.4278 68.4278 32.3969 68.4525 32.3309C68.522 32.3911 68.4755 32.3993 68.4754 32.4718C68.5396 32.4434 68.6691 32.529 68.6557 32.3833C68.6312 32.3505 68.5465 32.391 68.5877 32.2942C68.6065 32.423 68.6192 32.2352 68.6805 32.2778C68.582 32.3901 68.7881 32.4045 68.7183 32.4893C68.8083 32.5373 68.829 32.4461 68.8945 32.4283L68.893 32.5231L68.9967 32.4993C69.0129 32.6135 68.954 32.7239 69.0494 32.7814C69.1179 32.6531 69.1046 32.4811 69.2357 32.4323L69.2068 32.5587C69.245 32.5791 69.3624 32.5692 69.3544 32.4792C69.3373 32.4203 69.2991 32.3683 69.2469 32.3327L69.2632 32.3414C69.3302 32.2881 69.1598 32.1609 69.2908 32.1847C69.2537 32.3462 69.4718 32.4627 69.5426 32.5796C69.608 32.5387 69.6646 32.4861 69.7094 32.4245C69.7054 32.3795 69.6386 32.3406 69.6688 32.2578C69.8295 32.4161 69.9133 32.1607 70.0617 32.3421C70.0548 32.355 70.0439 32.3755 70.1012 32.3797L70.1202 32.4294C70.1462 32.4136 70.1776 32.4007 70.1994 32.4189L70.3181 32.446C70.3208 32.4738 70.329 32.4255 70.3619 32.3968C70.3517 32.3897 70.3407 32.3838 70.3291 32.3793L70.3619 32.3968C70.3756 32.3711 70.3879 32.348 70.4056 32.3674C70.4249 32.2655 70.4915 32.4363 70.5392 32.4716C70.5279 32.4711 70.5171 32.4748 70.5091 32.482C70.5936 32.5271 70.6336 32.3341 70.7112 32.4645L70.722 32.5033C70.7084 32.496 70.6974 32.4902 70.692 32.507L70.7247 32.5245C70.7601 32.5434 70.7547 32.5405 70.741 32.5332C70.8038 32.5337 70.7917 32.4712 70.8913 32.4815L70.8382 32.43C70.8547 32.4262 70.8724 32.4275 70.8886 32.4339C70.9461 32.392 71.1031 32.3406 71.1917 32.4175C71.2793 32.2994 71.2644 32.2288 71.3941 32.1958L71.3789 32.3163L71.5167 32.3601C71.4934 32.4037 71.5629 32.4573 71.6488 32.4801C71.7059 32.6293 71.7961 32.5258 71.8358 32.4908C71.8754 32.4559 71.9124 32.413 71.9178 32.4554C71.9384 32.3642 72.0107 32.3797 72.0817 32.3649C72.0895 32.3718 72.0989 32.3768 72.109 32.3794L72.0981 32.3472C72.1526 32.4093 72.1843 32.2514 72.2564 32.3592C72.3655 32.4174 72.2124 32.5401 72.3406 32.602L72.4021 32.5457C72.4198 32.5717 72.4075 32.575 72.3993 32.5904C72.4567 32.5814 72.4947 32.6875 72.5249 32.5651C72.461 32.4935 72.3871 32.4307 72.3055 32.3788C72.4312 32.3535 72.4491 32.2344 72.557 32.2293C72.5707 32.2037 72.5393 32.2034 72.5243 32.1789C72.583 32.1674 72.6334 32.2371 72.6005 32.2922C72.6496 32.3184 72.6703 32.1942 72.7427 32.1965L72.7526 32.0204C72.8523 31.9582 72.9572 32.0703 73.0336 32.1176C72.9435 32.1025 72.8655 32.2159 72.8068 32.2142C72.8267 32.525 72.5541 32.2872 72.5062 32.3836C72.5647 32.4446 72.4404 32.5068 72.5441 32.5489C72.6139 32.451 72.6369 32.5325 72.7092 32.5349C72.7459 32.6303 72.6366 32.6709 72.7759 32.6792C72.7227 32.6344 72.8567 32.5278 72.7434 32.5432C72.921 32.4401 72.9536 32.5037 73.123 32.449C72.9824 32.4564 73.1956 32.3129 73.107 32.236C73.1149 32.3787 72.8789 32.3154 73.0549 32.3862L72.9265 32.4101C72.9185 32.3398 73.0604 32.3298 72.9501 32.2346C73.0621 32.1691 73.0947 32.2393 73.2028 32.1353C73.1767 32.2237 73.2885 32.2504 73.3007 32.3327C73.3457 32.3271 73.3964 32.2321 73.4413 32.3121L73.3634 32.3662C73.4384 32.3831 73.4382 32.482 73.5037 32.5169C73.5691 32.5518 73.5489 32.4322 73.5394 32.3843C73.643 32.4396 73.762 32.3546 73.8683 32.4246C73.7318 32.3979 73.8325 32.5572 73.7206 32.5437L73.801 32.6031C73.9692 32.485 74.2287 32.3597 74.2905 32.1717C74.494 32.1121 74.402 32.4291 74.6603 32.2404C74.6234 32.257 74.6655 32.3685 74.6422 32.4122C74.6777 32.4311 74.7404 32.4646 74.7869 32.43L74.712 32.3208C74.8309 32.2556 74.9726 32.3642 75.0913 32.3781C75.0749 32.4089 75.0939 32.4718 75.0242 32.5039C75.0145 32.5746 75.0978 32.5827 75.1332 32.5951C75.2261 32.5457 75.1882 32.4067 75.2934 32.3738C76.3261 32.6183 77.3087 32.7007 78.2325 32.8343L78.2324 32.8936C78.3157 32.8754 78.4235 32.8637 78.4891 32.8525C78.4891 32.8525 78.489 32.8525 78.4986 32.8345C78.534 32.8404 78.5688 32.8501 78.6023 32.8635C78.6255 32.8583 78.6461 32.8463 78.6615 32.8292C78.6769 32.8121 78.6863 32.7907 78.6885 32.7676L78.6448 32.7641C78.7813 32.7578 78.6995 32.7339 78.6285 32.7356C78.6016 32.7353 78.5747 32.7331 78.548 32.7289L78.5767 32.7211L78.615 32.6822C78.3407 32.6249 78.5445 32.4138 78.3181 32.3325L78.3946 32.2942C78.145 32.217 78.4539 31.9664 78.2589 31.8985Z" fill="#C58A46"/>
<path d="M70.3619 32.3968C70.329 32.4255 70.3208 32.4738 70.3181 32.446L70.1994 32.4189C70.1776 32.4007 70.1462 32.4136 70.1202 32.4294L70.1012 32.3797C70.0439 32.3755 70.0548 32.355 70.0617 32.3421C69.9133 32.1607 69.8295 32.4161 69.6688 32.2578C69.6386 32.3406 69.7054 32.3795 69.7094 32.4245C69.6646 32.4861 69.608 32.5387 69.5426 32.5796C69.4718 32.4627 69.2537 32.3462 69.2908 32.1847C69.1598 32.1609 69.3302 32.2881 69.2632 32.3414L69.2469 32.3327C69.2991 32.3683 69.3373 32.4203 69.3544 32.4792C69.3624 32.5692 69.245 32.5791 69.2068 32.5587L69.2357 32.4323C69.1046 32.4811 69.1179 32.6531 69.0494 32.7814C68.954 32.7239 69.0129 32.6135 68.9967 32.4993L68.893 32.5231L68.8945 32.4283C68.829 32.4461 68.8083 32.5373 68.7183 32.4893C68.7881 32.4045 68.582 32.3901 68.6805 32.2778C68.6192 32.2352 68.6065 32.423 68.5877 32.2942C68.5465 32.391 68.6312 32.3505 68.6557 32.3833C68.6691 32.529 68.5396 32.4434 68.4754 32.4718C68.4755 32.3993 68.522 32.3911 68.4525 32.3309C68.4278 32.3969 68.3868 32.4278 68.3487 32.3547C68.3444 32.448 68.2613 32.374 68.2258 32.3551C68.2572 32.3723 68.2817 32.3996 68.2946 32.432C68.3076 32.4644 68.3083 32.4997 68.2965 32.5313C68.2596 32.5676 68.2268 32.5831 68.1435 32.5618L68.198 32.6107C68.1173 32.7423 68.0863 32.4983 67.9853 32.5301C68.0304 32.4783 68.0618 32.4852 68.0988 32.4159C68.0309 32.4674 67.9577 32.5123 67.8801 32.5498L67.8081 32.4025C67.7929 32.4703 67.7167 32.3834 67.7083 32.4779C67.6129 32.4006 67.8013 32.3758 67.8165 32.3081C67.6938 32.2294 67.7015 32.4512 67.5913 32.2901L67.6365 32.2054C67.5942 32.1928 67.5095 32.2333 67.5096 32.1872C67.5082 32.2161 67.5314 32.1988 67.5532 32.2105C67.5106 32.3955 67.351 32.3136 67.3465 32.5124L67.3983 32.5401C67.3055 32.5631 67.2138 32.6757 67.1703 32.6063C67.1267 32.5369 67.2333 32.4882 67.2593 32.4395C67.1734 32.4101 67.1675 32.6378 67.0706 32.6026C67.1211 32.646 67.0896 32.7051 67.0622 32.7564C67.1208 32.7778 67.2367 32.8364 67.2232 32.75L67.2014 32.7384C67.1988 32.6842 67.237 32.6716 67.2507 32.646C67.3285 32.6578 67.2778 32.7396 67.2914 32.7798C67.4182 32.831 67.3205 32.5875 67.4405 32.612L67.4514 32.6508C67.5129 32.6078 67.6043 32.6137 67.6277 32.4976C67.6684 32.6314 67.7684 32.4638 67.8187 32.5467C67.7936 32.817 67.6127 32.4995 67.536 32.6432C67.5932 32.7067 67.4866 32.7686 67.4551 32.8276L67.6641 32.738C67.6777 32.7782 67.7184 32.9186 67.7677 32.8262C67.8605 32.8098 67.8307 32.695 67.9016 32.7328C67.9016 32.7635 67.8941 32.7934 67.8796 32.82C67.9396 32.852 67.9126 32.7057 67.9808 32.7421C68.0489 32.7784 67.9355 32.8597 67.99 32.8888C68.0708 32.7901 68.1019 32.9287 68.166 32.9267C68.1527 32.7679 68.4312 32.7384 68.3018 32.5869L68.4562 32.4945C68.5134 32.5844 68.3439 32.705 68.3764 32.8411L68.2563 32.8232C68.2669 33.0201 68.5145 32.7202 68.5837 32.9451C68.6505 32.9577 68.6342 32.9292 68.7527 33.0353L68.7381 32.8593C68.7874 32.9064 68.8166 32.9694 68.8196 33.0347C68.8539 33.0284 68.8898 33.0316 68.9233 33.0439C68.9205 33.056 68.9149 33.0672 68.9068 33.0766C68.8988 33.086 68.8885 33.0934 68.8768 33.0983C68.9121 33.1962 68.9272 33.1548 68.956 33.1141C68.9847 33.0734 69.0215 33.0831 69.0625 33.0852L69.0269 33.1519C69.041 33.147 69.0536 33.1388 69.0635 33.1281C69.0735 33.1174 69.0806 33.1044 69.0843 33.0903C69.102 33.0909 69.1192 33.0863 69.1335 33.0769C69.1188 33.0096 69.0881 32.9457 69.0437 32.8905C69.191 32.9691 69.3043 32.9406 69.4255 33.0943C69.42 33.1441 69.3666 33.2047 69.383 33.2134C69.4443 33.2428 69.5141 33.158 69.5102 33.0801L69.5443 33.0752C69.5551 33.1206 69.5742 33.1637 69.6014 33.1783C69.6065 33.1851 69.6131 33.1907 69.6207 33.1947C69.6282 33.1988 69.6366 33.2011 69.6451 33.2016C69.6685 33.0657 69.783 33.14 69.8146 33.0809C69.7845 33.0653 69.7503 33.0599 69.7177 33.0655C69.7697 32.9745 69.8136 32.8726 69.853 32.9498C69.7573 33.0306 69.951 33.101 69.809 33.1307C69.9083 33.3123 69.8556 33.0171 69.9647 33.0753L70.0342 33.1487C70.0231 33.2483 69.9235 33.1919 69.9398 33.2335L69.9876 33.2228C69.9383 33.2954 69.761 33.2338 69.6502 33.3428L69.8699 33.4106C70.1499 33.3061 70.4963 33.458 70.726 33.2507L70.7343 33.1826L70.7452 33.2082L70.7863 33.1312C70.8448 33.2383 70.9444 33.2552 71.0275 33.3358C70.9744 33.2712 70.9593 33.2928 70.9704 33.1932C70.9815 33.0936 70.9898 33.0519 71.0662 33.0926C71.0674 33.1625 71.0196 33.1601 71.0755 33.2196C71.0693 33.2113 71.0653 33.2018 71.0636 33.192C71.062 33.1821 71.0628 33.1721 71.0661 33.1628C71.0693 33.1535 71.0748 33.1452 71.0822 33.1387C71.0896 33.1321 71.0986 33.1274 71.1084 33.125C71.152 33.1747 71.2419 33.2491 71.2255 33.2601C71.2091 33.2711 71.1997 33.2166 71.1792 33.2354C71.1587 33.2541 71.2623 33.3028 71.2008 33.359L71.28 33.3419C71.3262 33.4062 71.2497 33.4379 71.2674 33.477C71.3985 33.4349 71.4657 33.2696 71.5859 33.2282C71.579 33.2674 71.5773 33.4281 71.5788 33.3794C71.6715 33.4289 71.7743 33.2166 71.8794 33.21C71.863 33.254 71.8248 33.2336 71.792 33.2557C72.093 33.2966 72.3867 33.3886 72.6595 33.5274L72.7445 33.3683L72.8166 33.4826C73.0895 33.5648 73.3765 33.5756 73.6478 33.514C73.7392 33.5133 73.6926 33.6335 73.7279 33.6854C73.9189 33.7346 73.9875 33.5535 74.1786 33.5434C74.1458 33.5918 74.0855 33.7245 74.166 33.7444C74.1865 33.6993 74.1989 33.6366 74.2535 33.6657L74.2275 33.7145C74.2628 33.7927 74.3175 33.7296 74.4102 33.7791C74.5097 33.7839 74.608 33.7677 74.6981 33.7315C74.7883 33.6953 74.8681 33.64 74.932 33.5695C75.0821 33.6166 74.8894 33.7413 74.9125 33.7833C74.813 33.7005 74.8292 33.7949 74.8005 33.8488C74.8606 33.8215 74.9357 33.8056 74.945 33.926C74.9812 33.9365 75.0192 33.9382 75.0554 33.9311C75.0916 33.9239 75.125 33.9081 75.1525 33.885C75.1074 33.917 75.0816 33.8472 75.1268 33.802C75.1867 33.8538 75.3614 33.8415 75.3298 33.9862C75.7146 34.0333 76.1443 34.1472 76.57 34.2095C76.6521 34.1477 76.5196 34.1727 76.5647 34.1275C76.6823 34.0451 76.6397 34.1906 76.734 34.1255L76.6929 34.2025C76.817 34.2325 76.9647 34.1068 77.0931 34.05C77.0643 34.1369 77.1858 34.139 77.0779 34.1771C77.1393 34.1736 77.1849 34.5937 77.2287 34.5116L77.194 34.1236C77.2022 34.0885 77.2827 34.1215 77.2759 34.0948C77.3208 34.1748 77.3807 34.2728 77.4175 34.2759C77.4282 34.374 77.3369 34.3417 77.285 34.3338C77.2656 34.495 77.439 34.4523 77.3637 34.5935C77.4838 34.585 77.3638 34.5144 77.4335 34.4626L77.5235 34.5106L77.4554 34.4479C77.5387 34.4099 77.5704 34.2915 77.6712 34.3915L77.7888 34.2432C77.7913 34.3765 77.8625 34.2825 77.9197 34.3131L77.8786 34.3901C77.908 34.3905 77.9371 34.398 77.9633 34.412C77.9895 34.426 78.012 34.446 78.0286 34.4702C77.9902 34.5684 77.9618 34.4378 77.9411 34.5422L78.0229 34.5858C78.0258 34.5148 78.0778 34.4634 78.0192 34.4156C78.0986 34.2865 78.1411 34.174 78.3308 34.1928C78.4207 34.3199 78.2392 34.2989 78.2785 34.4221C78.4913 34.4829 78.4989 34.1077 78.6463 34.1204C78.8564 34.1666 78.8211 34.0554 79.0013 34.0328C78.9793 34.1134 79.1759 34.0996 79.2549 34.1682L79.2056 34.2606C79.2173 34.2522 79.2311 34.2468 79.2458 34.2449C79.2605 34.243 79.2756 34.2446 79.2899 34.2496C79.3042 34.2546 79.3171 34.2628 79.3276 34.2736C79.3381 34.2844 79.3459 34.2973 79.3502 34.3114C79.2794 34.2011 79.577 34.1818 79.6782 34.1104L79.58 34.0251C79.6634 33.9805 79.7413 33.9067 79.8696 33.9158C79.8726 33.7723 79.7663 33.7155 79.6765 33.5489C79.7907 33.5721 79.8964 33.6286 79.9792 33.7104C79.9123 33.711 79.9313 33.8003 79.9052 33.8491C79.9179 33.8861 79.9269 33.9241 79.9323 33.9625C79.8693 34.0674 79.8131 34.2187 79.5824 34.2111C79.6379 34.4419 79.7272 34.163 79.9018 34.2232C79.899 34.2283 79.8922 34.2412 79.8922 34.2412C79.9048 34.2399 79.9177 34.2401 79.9304 34.2418C79.8648 34.2793 79.7473 34.3353 79.8017 34.4501C79.9465 34.4021 79.738 34.2215 80.0095 34.284C80.0451 34.2172 80.2101 34.2822 80.3425 34.3166C80.3556 34.3164 80.3682 34.3122 80.3785 34.3047C80.3888 34.2972 80.3962 34.2867 80.3999 34.2747C80.3169 34.1084 80.1316 33.9633 80.1743 33.7849L80.3022 33.9653C80.3163 33.7156 80.1143 33.7265 80.1284 33.5229C80.1105 33.5826 79.9962 33.3897 79.9905 33.5186C79.9579 33.4701 79.9368 33.4156 79.9286 33.3593C79.9204 33.303 79.9255 33.2462 79.9434 33.1933C79.9271 33.1516 79.8998 33.17 79.8534 33.1453C79.7645 33.2133 79.9485 33.3544 79.8134 33.3779C79.861 33.4264 79.9114 33.4764 79.9564 33.5301C79.9016 33.6064 79.7871 33.5387 79.7327 33.4503C79.749 33.4853 79.7558 33.512 79.7326 33.5161C79.5158 33.3971 79.8105 33.4555 79.6278 33.3184L79.6414 33.385C79.5938 33.3605 79.5559 33.3209 79.5345 33.2733C79.5131 33.2256 79.5096 33.173 79.5245 33.1248C79.5874 33.0726 79.6053 32.9997 79.7103 33.0195L79.7619 33.1591C79.8425 33.1197 79.7036 32.9796 79.701 32.9122C79.7117 32.9097 79.7215 32.9048 79.7297 32.8979C79.7202 32.899 79.7106 32.8994 79.701 32.8991C79.7037 32.8902 79.7088 32.8823 79.7157 32.8762C79.7227 32.8701 79.7313 32.8659 79.7407 32.8642C79.7353 32.7954 79.6495 32.6935 79.6797 32.637L79.5896 32.6483L79.6428 32.6536C79.6522 32.7147 79.6057 32.7822 79.5293 32.7415C79.4449 32.6305 79.6156 32.5995 79.6894 32.5532C79.8368 32.5725 79.7151 32.6889 79.7723 32.759C79.9061 32.7183 79.763 32.6122 79.822 32.4557C79.9857 32.4903 79.8571 32.6394 80.0045 32.6653C80.0034 32.5294 79.8875 32.4841 79.8999 32.3753C79.9349 32.3824 79.9673 32.3996 79.9927 32.4248C80.0281 32.4437 80.0512 32.4923 80.0963 32.4801C80.1011 32.4472 80.1089 32.415 80.1197 32.3837C80.1509 32.4763 80.1932 32.4757 80.2424 32.4492C80.2916 32.4227 80.3367 32.3841 80.3788 32.4956C80.398 32.4399 80.3585 32.3958 80.3258 32.3717C80.2931 32.3477 80.2645 32.3225 80.2974 32.2609C80.24 32.3028 80.1388 32.4005 80.0584 32.3213L80.0764 32.2089C80.1365 32.1487 80.2632 32.2855 80.307 32.2034L80.224 32.103C80.1803 32.1192 80.1747 32.1756 80.1038 32.1576C80.1407 32.0883 79.9005 32.092 79.8132 32.0454C79.7929 31.9851 79.7916 31.9415 79.834 31.9081C79.6445 31.8036 79.5888 31.6453 79.4142 31.5785C79.5356 31.6202 79.5509 31.5129 79.5906 31.4385C79.6559 31.5261 79.7857 31.4733 79.8677 31.4313C79.8241 31.3751 79.6698 31.395 79.6438 31.4438C79.6386 31.3354 79.5196 31.4204 79.5622 31.2947C79.5746 31.2189 79.7124 31.2693 79.7384 31.2205C79.684 31.1123 79.5691 31.2687 79.5352 31.1418C79.5543 31.1388 79.5707 31.1475 79.583 31.1244C79.5789 31.1069 79.5708 31.0904 79.5595 31.0759C79.5481 31.0615 79.5337 31.0494 79.5173 31.0407C79.5009 31.0319 79.4829 31.0267 79.4646 31.0253C79.4463 31.0239 79.428 31.0265 79.4112 31.0327C79.5248 30.879 79.3608 30.9827 79.5152 30.8969C79.4076 30.7834 79.4605 30.9732 79.3623 30.9472C79.264 30.9212 79.2684 30.7949 79.2876 30.7589C79.3066 30.7889 79.3748 30.8055 79.3556 30.8414L79.4568 30.7701C79.4626 30.5753 79.1469 30.7663 79.1719 30.5686C79.2701 30.6276 79.2702 30.5617 79.3739 30.5709C79.3316 30.5582 79.3087 30.4239 79.2511 30.5317C79.2375 30.4781 79.2325 30.4231 79.2364 30.3689C79.1719 30.3221 79.0956 30.294 79.0169 30.288C79.0028 30.2012 79.0229 30.1142 79.0733 30.0443C78.9043 29.9014 78.9703 29.6859 78.7918 29.5346L78.7849 29.5474C78.7374 29.3935 78.6605 29.669 78.5939 29.518C78.7482 29.4849 78.6583 29.3974 78.7007 29.3178C78.6875 29.1063 78.446 29.0401 78.4615 28.8339C78.4761 28.8265 78.4932 28.8244 78.5099 28.8279C78.5265 28.8313 78.5417 28.8402 78.5529 28.853C78.5193 28.7259 78.4667 28.6033 78.3966 28.4893L78.413 28.498C78.438 28.2673 78.2185 28.1535 78.0933 27.9745C78.1178 27.981 78.1766 27.9563 78.1984 27.9679C78.1822 27.8604 78.1293 27.6969 77.9696 27.6809C78.0519 27.5072 77.8892 27.6215 77.9524 27.4178C77.9688 27.4068 77.9906 27.4382 77.9906 27.4382C78.0003 27.3477 77.9622 27.301 77.9419 27.2209C77.7756 27.0926 77.5776 27.1287 77.5398 26.9173C77.727 26.8292 77.642 27.0147 77.7963 26.9552C77.7459 26.9316 77.6777 26.9084 77.7119 26.8442C77.7993 26.8447 77.7611 26.8309 77.8416 26.8244C77.8732 26.7654 77.5647 26.7459 77.5852 26.7403C77.5415 26.75 77.5265 26.7716 77.5496 26.807C77.4104 26.8119 77.453 26.6269 77.3617 26.5551C77.3821 26.5891 77.3901 26.6989 77.2836 26.7014C77.2662 26.5634 77.0586 26.6044 76.9468 26.5447C76.9689 26.3916 77.1447 26.5613 77.2704 26.4833C77.3087 26.4443 77.4004 26.3448 77.4685 26.3812C77.4483 26.2813 77.3036 26.2437 77.2328 26.1664L77.2711 26.1538C77.1962 26.0314 76.9643 25.967 76.9892 25.8286L76.974 25.9029C76.944 25.8869 76.9209 25.8251 76.8267 25.8243C76.8923 25.7999 76.9103 25.6941 76.9771 25.7067C76.7491 25.7334 76.7182 25.4696 76.4985 25.4875C76.5313 25.4325 76.6269 25.4241 76.676 25.4174C76.6922 25.5118 76.6703 25.5463 76.7713 25.554C76.7628 25.5415 76.7571 25.5275 76.7547 25.513C76.7522 25.4985 76.7531 25.4838 76.7571 25.47C76.7612 25.4561 76.7684 25.4434 76.7782 25.4328C76.788 25.4222 76.8002 25.4139 76.8139 25.4085C76.6583 25.398 76.533 25.2586 76.3924 25.2792C76.4321 25.2048 76.4445 25.1421 76.5565 25.1161C76.3944 24.9406 76.2831 25.3528 76.1743 25.1232C76.2251 24.9755 76.3612 25.1669 76.3261 25.0096L76.3561 25.0256C76.5612 24.7987 76.1172 25.0268 76.0697 24.9058C76.2077 24.8244 76.2115 24.9419 76.2787 24.8161C76.1901 24.7194 75.9512 24.7667 75.946 24.6386L76.0183 24.6277C75.9721 24.5634 75.9382 24.4168 75.8947 24.3539C75.9152 24.3484 75.9206 24.3513 75.937 24.36C75.9277 24.2133 75.836 24.3391 75.8868 24.1914L75.8035 24.1899C75.7775 24.265 75.7554 24.3983 75.87 24.4265C75.7608 24.3881 75.7331 24.6107 75.5966 24.6302L75.6498 24.6223C75.5666 24.8615 75.5575 25.1223 75.6238 25.3736C75.8393 25.449 75.6724 25.6436 75.8496 25.7382C76.0299 25.6893 75.8987 25.7512 75.9927 25.864C75.9396 25.806 75.8588 25.9113 75.856 25.9626C75.8992 25.9712 75.9393 25.9926 75.9705 26.0237C75.9227 26.074 75.8622 26.2924 76.0069 26.3036C75.9889 26.4029 75.9427 26.3056 75.9004 26.3061C75.8266 26.3723 75.9986 26.3388 75.9507 26.3891C75.9414 26.3929 75.931 26.3942 75.9207 26.3928C75.9642 26.5015 75.9946 26.614 76.0115 26.7282C76.1891 26.6581 76.1424 26.7981 76.2242 26.8417C76.1587 26.8463 76.2021 26.9421 76.1789 26.9858L76.3331 26.9988C76.4832 27.0261 76.2987 27.1289 76.3996 27.1827L76.4174 27.1493C76.5033 27.1787 76.4729 27.3801 76.4195 27.4803C77.0178 27.915 76.6551 28.4371 77.0307 29.0004C77.0989 29.017 77.1004 28.9353 77.1919 28.9347C77.2246 28.9725 77.2504 29.0153 77.2681 29.0611C77.301 28.9995 77.2436 29.0282 77.2927 29.0149L77.2055 28.9486C77.2178 28.9386 77.2697 28.9531 77.2438 28.9294C77.2179 28.9057 77.1661 28.8846 77.1579 28.8473C77.2261 28.8837 77.3545 28.8533 77.3406 28.9448C77.3228 28.9424 77.3062 28.9336 77.2943 28.9201C77.3092 28.9907 77.3816 28.9535 77.3637 29.0198C77.3458 29.0861 77.3827 29.0497 77.3322 29.0788L77.3468 29.2746C77.542 29.3029 77.4543 29.4672 77.4406 29.4929C77.3218 29.5185 77.3534 29.3936 77.2251 29.3976L77.1744 29.4926L77.2646 29.4616L77.2835 29.5574L77.2671 29.5487C77.3067 29.5467 77.3326 29.5704 77.3244 29.5793C77.3162 29.5881 77.2861 29.5984 77.2861 29.5984L77.3652 29.6406C77.256 29.6417 77.3624 29.7051 77.2531 29.7391C77.2936 29.9652 77.5161 29.9421 77.457 30.1777C77.4884 30.1384 77.6522 30.1665 77.6602 30.2301C77.6592 30.2393 77.6562 30.248 77.6514 30.2558C77.6466 30.2636 77.6402 30.2703 77.6325 30.2755C77.6248 30.2807 77.616 30.2842 77.6067 30.2859C77.5974 30.2876 77.5877 30.2874 77.5782 30.2853L77.6682 30.3333C77.5465 30.4827 77.6965 30.5298 77.703 30.6817L77.6511 30.6936C77.6891 30.7001 77.7249 30.7169 77.7544 30.742C77.7838 30.767 77.8057 30.7993 77.8174 30.8351L77.7163 30.8603C77.6929 30.9764 77.947 30.8548 77.9345 30.9767C78.0328 30.9369 78.0562 30.8537 78.1477 30.8069C78.0548 30.876 78.0928 30.9821 78.153 30.9284C78.2415 31.012 78.1747 30.9928 78.1624 31.0159L78.2469 31.061C78.2754 31.1323 78.1239 31.1339 78.0557 31.1305C78.1935 31.1545 78.151 31.2539 78.1686 31.3325L78.1085 31.3203L78.1383 31.4285C78.2011 31.4789 78.2595 31.5344 78.3127 31.5942C78.3385 31.6269 78.3519 31.6668 78.3507 31.7068L78.1992 31.7281C78.1608 31.8066 78.262 31.7155 78.2838 31.7271C78.3874 31.7693 78.3 31.8215 78.2589 31.8985C78.4539 31.9664 78.145 32.217 78.3946 32.2942L78.3181 32.3325C78.5445 32.4138 78.3407 32.6249 78.615 32.6822L78.5767 32.7211L78.548 32.7289C78.5747 32.7331 78.6016 32.7353 78.6285 32.7356C78.6995 32.7339 78.7813 32.7578 78.6448 32.7641L78.6885 32.7676C78.6863 32.7907 78.6769 32.8121 78.6615 32.8292C78.6461 32.8463 78.6255 32.8583 78.6023 32.8635C78.5688 32.8501 78.534 32.8404 78.4986 32.8345C78.489 32.8525 78.4891 32.8525 78.4891 32.8525C78.4235 32.8637 78.3157 32.8754 78.2324 32.8936L78.2325 32.8343C77.3087 32.7007 76.3261 32.6183 75.2934 32.3738C75.1882 32.4067 75.2261 32.5457 75.1332 32.5951C75.0978 32.5827 75.0145 32.5746 75.0242 32.5039C75.0939 32.4718 75.0749 32.4089 75.0913 32.3781C74.9726 32.3642 74.8309 32.2556 74.712 32.3208L74.7869 32.43C74.7404 32.4646 74.6777 32.4311 74.6422 32.4122C74.6655 32.3685 74.6234 32.257 74.6603 32.2404C74.402 32.4291 74.494 32.1121 74.2905 32.1717C74.2287 32.3597 73.9692 32.485 73.8011 32.6031L73.7206 32.5437C73.8325 32.5572 73.7318 32.3979 73.8683 32.4246C73.762 32.3546 73.643 32.4396 73.5394 32.3843C73.5489 32.4322 73.5691 32.5518 73.5037 32.5169C73.4382 32.482 73.4384 32.3831 73.3634 32.3662L73.4413 32.3121C73.3964 32.2321 73.3457 32.3271 73.3007 32.3327C73.2885 32.2504 73.1767 32.2237 73.2028 32.1353C73.0947 32.2393 73.0621 32.1691 72.9501 32.2346C73.0604 32.3298 72.9185 32.3398 72.9265 32.4101L73.0549 32.3862C72.8789 32.3154 73.1149 32.3787 73.107 32.236C73.1956 32.3129 72.9824 32.4564 73.123 32.449C72.9536 32.5037 72.921 32.4401 72.7434 32.5432C72.8567 32.5278 72.7227 32.6344 72.7759 32.6792C72.6366 32.6709 72.7459 32.6303 72.7093 32.5349C72.6369 32.5325 72.6139 32.451 72.5441 32.5489C72.4404 32.5068 72.5647 32.4446 72.5062 32.3836C72.5541 32.2872 72.8267 32.525 72.8068 32.2142C72.8655 32.2159 72.9435 32.1025 73.0336 32.1176C72.9572 32.0703 72.8523 31.9582 72.7526 32.0204L72.7427 32.1965C72.6703 32.1942 72.6496 32.3184 72.6005 32.2922C72.6334 32.2371 72.583 32.1674 72.5243 32.1789C72.5393 32.2034 72.5707 32.2037 72.557 32.2293C72.4491 32.2344 72.4312 32.3535 72.3055 32.3788C72.3871 32.4307 72.461 32.4935 72.5249 32.5651C72.4947 32.6875 72.4567 32.5814 72.3993 32.5904C72.4075 32.575 72.4198 32.5717 72.4021 32.5457L72.3406 32.602C72.2124 32.5401 72.3655 32.4174 72.2564 32.3592C72.1843 32.2514 72.1526 32.4093 72.0981 32.3472L72.109 32.3794C72.0989 32.3768 72.0895 32.3718 72.0817 32.3649C72.0107 32.3797 71.9384 32.3642 71.9178 32.4554C71.9124 32.413 71.8754 32.4559 71.8358 32.4908C71.7961 32.5258 71.7059 32.6293 71.6488 32.4801C71.5629 32.4573 71.4934 32.4037 71.5167 32.3601L71.3789 32.3163L71.3941 32.1958C71.2644 32.2288 71.2793 32.2994 71.1917 32.4175C71.1031 32.3406 70.9461 32.392 70.8886 32.4339C70.8724 32.4275 70.8547 32.4262 70.8382 32.43L70.8913 32.4815C70.7917 32.4712 70.8038 32.5337 70.741 32.5332C70.7547 32.5405 70.7601 32.5434 70.7247 32.5245L70.692 32.507C70.6974 32.4902 70.7084 32.496 70.722 32.5033L70.7112 32.4645C70.6336 32.3341 70.5936 32.5271 70.5091 32.482C70.5171 32.4748 70.5279 32.4711 70.5392 32.4716C70.4915 32.4363 70.4249 32.2655 70.4056 32.3674C70.3879 32.348 70.3756 32.3711 70.3619 32.3968ZM70.3619 32.3968C70.3517 32.3897 70.3407 32.3838 70.3291 32.3793L70.3619 32.3968Z" stroke="#C58A46" stroke-width="0.5"/>
</svg>
