<svg width="172" height="46" viewBox="0 0 172 46" fill="none" xmlns="http://www.w3.org/2000/svg">
<path d="M60.1211 41.0102V40.5683C62.1788 40.4644 63.999 39.8147 65.1861 38.3593C66.4524 36.9039 67.4812 33.6813 67.9033 31.5503H68.4573C68.4573 33.4215 68.4573 36.8 69.6444 38.2554C70.9634 39.7627 72.7045 40.5683 75.2634 40.5683V41.0102H60.1211ZM84.6812 41.452H84.4702L70.8579 14.3457C69.5389 11.7729 68.3518 10.2135 66.7689 9.14801C65.3972 8.29038 63.5505 7.69264 62.3634 7.64066V7.19885H73.5223L87.5831 35.1627L84.6812 41.452ZM96.7898 7.19885H107.527V7.64066C103.016 8.0045 102.462 10.0576 102.62 14.2938L103.332 33.9412C103.49 38.7231 104.598 40.2305 108.555 40.5943V41.0361H93.2548V40.5943C96.5788 40.2825 97.8978 39.087 97.8978 35.7085C97.8978 35.2147 97.8978 34.6429 97.845 33.9412C97.8186 33.9412 96.7898 7.19885 96.7898 7.19885Z" fill="#DFDDDD"/>
<path d="M37.1172 18.218C41.1006 18.218 44.0816 20.9728 44.0816 25.183C44.0816 29.3672 41.1006 32.018 37.1172 32.018C33.1074 32.018 30.1264 29.2632 30.1264 25.079C30.1264 20.8689 33.1074 18.218 37.1172 18.218ZM9.23316 18.5299L13.9816 29.8869L18.6509 18.5299H21.3154V18.8158C20.2074 18.8158 19.6798 19.1276 19.7325 20.2191L20.181 30.5886C20.2074 31.3163 20.4712 31.5242 21.8166 31.5242V31.7841H17.5166V31.5242C18.862 31.5242 19.2049 31.3163 19.1522 30.5886L18.7301 19.9852L13.797 31.7581H13.7442L8.70555 20.0112L8.28347 29.783C8.2307 31.1084 8.44175 31.4982 10.0773 31.4982V31.7581H5.80371V31.4982C7.25463 31.4982 7.5712 31.1344 7.62396 29.757L8.0988 20.1932C8.15156 19.1276 7.62396 18.7898 6.51598 18.7898V18.5039C6.4896 18.5299 9.23316 18.5299 9.23316 18.5299ZM118.421 18.5299C121.297 18.5299 123.882 19.0497 123.882 21.8564C123.882 23.6497 122.458 25.209 120.004 25.3129C122.326 25.4169 123.17 26.2745 123.671 28.3796C124.199 30.6666 124.832 31.992 126.81 31.7321L126.837 31.7581C126.494 31.9141 126.151 32.018 125.65 32.018C123.803 32.018 123.223 30.8485 122.59 28.3276C121.956 25.7807 121.033 25.6508 118.659 25.6248H117.234V30.3807C117.234 31.3683 117.709 31.4982 119.239 31.4982V31.7581H114.596V31.4982C115.942 31.4982 116.232 31.2643 116.232 30.4847V19.6994C116.232 18.9197 115.942 18.7638 114.596 18.7638V18.5039L118.421 18.5299ZM64.1571 18.5299V22.6621H63.9988C63.9724 19.9073 63.524 18.9717 61.1497 18.9717H59.0129V30.3288C59.0129 31.3163 59.3031 31.4982 60.9914 31.4982V31.7581H56.0319V31.4982C57.7203 31.4982 58.0105 31.2903 58.0105 30.3288V18.9717H55.8736C53.4994 18.9717 53.0509 19.9073 53.0246 22.6621H52.8663V18.5299H64.1571ZM77.4528 18.5299V18.7898C76.1074 18.7898 75.8172 18.9977 75.8172 19.7254V24.3773H83.6522V19.7254C83.6522 18.9977 83.362 18.7898 82.0166 18.7898V18.5299H86.3166V18.7898C84.9712 18.7898 84.681 18.9977 84.681 19.7254V30.5107C84.681 31.2384 84.9712 31.5242 86.3166 31.5242V31.7841H82.0166V31.5242C83.362 31.5242 83.6522 31.2384 83.6522 30.5107V24.8971H75.8172V30.5107C75.8172 31.2384 76.1074 31.5242 77.4528 31.5242V31.7841H73.1528V31.5242C74.4982 31.5242 74.7884 31.2384 74.7884 30.5107V19.7254C74.7884 18.9977 74.4982 18.7898 73.1528 18.7898V18.5299H77.4528ZM104.572 18.5299V21.3886H104.414C104.176 19.3355 103.675 18.9977 101.433 18.9717H98.0031V24.4033H100.826C101.96 24.4033 102.356 24.2734 102.593 22.6881H102.752V26.6124H102.62C102.356 25.0011 101.96 24.8711 100.852 24.8711H98.0295V30.1988C98.0295 31.2124 98.2405 31.3163 99.2957 31.3163H102.118C104.282 31.3163 104.783 30.9005 105.02 28.6395H105.179V31.7581H95.3651V31.4982C96.7104 31.4982 97.0006 31.2903 97.0006 30.5627V19.6994C97.0006 18.9717 96.7104 18.7638 95.3651 18.7638V18.5039C95.3651 18.5299 104.572 18.5299 104.572 18.5299ZM139.869 18.5299V18.7898C138.523 18.7898 138.233 18.9977 138.233 19.7254V30.4327C138.233 31.1604 138.655 31.3163 139.288 31.3163H142.137C144.301 31.3163 144.802 30.9005 145.039 28.6395H145.198V31.7581H135.569V31.4982C136.914 31.4982 137.204 31.2903 137.204 30.5627V19.6994C137.204 18.9717 136.914 18.7638 135.569 18.7638V18.5039H139.869V18.5299ZM156.014 18.5299V18.7898C154.906 18.7898 154.404 19.0237 154.721 19.6214L158.071 25.7807L161.421 20.0372C161.949 19.1536 161.553 18.7898 160.129 18.7898V18.5299H164.086V18.7898C162.925 18.7898 162.688 19.1276 162.107 20.0632L158.361 26.1965V30.4067C158.361 31.3943 158.652 31.4982 160.261 31.4982V31.7581H155.486V31.4982C157.095 31.4982 157.385 31.3423 157.385 30.4327V26.3525L153.692 19.7773C153.349 19.1796 153.033 18.7898 151.977 18.7898V18.5299H156.014Z" fill="#333333"/>
<path d="M37.1173 18.7119C39.7554 18.7119 42.9738 20.5051 42.9738 25.1311C42.9738 29.7051 39.7554 31.5243 37.1173 31.5243C34.4793 31.5243 31.2609 29.7051 31.2609 25.1311C31.2345 20.5051 34.4529 18.7119 37.1173 18.7119ZM117.235 18.9718H118.474C121.271 18.9718 122.748 19.7515 122.748 21.9605C122.748 24.6113 120.374 25.2351 118.131 25.2611H117.947H117.208V18.9718H118.448H117.235Z" fill="#F4F3F0"/>
</svg>
