<svg width="108" height="99" viewBox="0 0 108 99" fill="none" xmlns="http://www.w3.org/2000/svg">
<path d="M107.428 47.4357C106.786 43.4507 105.317 39.7217 103.803 35.974C102.288 32.2263 100.654 28.5346 98.5087 25.0454C94.6473 18.7878 89.2555 13.4365 82.7571 9.41229C76.0151 5.23011 68.2207 2.56726 60.2403 1.16521C52.8238 -0.138225 43.9218 -1.10314 37.1304 2.59124C34.0487 4.26784 31.8101 7.04264 29.8622 9.72413C29.3883 10.3692 28.926 11.0222 28.4638 11.6753L27.5276 12.2084C24.0738 14.2129 20.8671 16.3959 17.9773 19.0561C15.1398 21.6683 12.6279 24.5816 10.2032 27.5164C7.65384 30.5361 5.4684 33.7999 3.68512 37.2508C1.91169 40.7746 1.0337 44.4476 0.463879 48.27C-0.117575 52.2176 -0.25421 56.1972 0.652859 60.1128C1.53557 63.7608 2.84866 67.31 4.56894 70.6975C7.93266 77.4839 12.9477 83.9691 19.396 88.5697C22.7539 90.9687 26.3735 93.221 30.1849 94.9403C33.8074 96.5689 37.7147 97.5764 41.6744 98.2242C45.7243 98.8879 49.9078 99.3197 53.9925 98.7013C56.1643 98.3734 58.2808 97.6351 60.4089 97.134C62.537 96.6329 64.7698 96.6728 66.9444 96.2277C68.3891 95.8905 69.801 95.4447 71.1658 94.895C71.7122 94.8311 72.2481 94.7067 72.7619 94.5244C72.9515 94.4577 73.107 94.3284 73.198 94.1619C75.0412 93.5249 76.8989 92.9251 78.6985 92.1841C80.5737 91.4111 82.5739 91.0433 84.4113 90.161C86.2487 89.2787 88.1239 88.3138 89.9032 87.3063C93.264 85.4058 95.8514 82.8522 98.1016 79.9015C100.509 76.7429 102.843 73.2964 104.602 69.7939C108.053 62.8769 108.629 54.8804 107.428 47.4357ZM10.9998 75.5114C9.96301 73.7075 9.14041 71.8068 8.54611 69.8419C9.45608 71.5985 10.9795 73.5469 10.9998 75.5114ZM1.71402 51.9643C2.05708 46.0309 3.54851 40.3721 6.65638 35.1504C9.6218 30.1792 13.596 25.5945 17.7592 21.423C19.4839 19.7074 21.3607 18.1258 23.3703 16.6944C21.7684 18.2537 20.2391 19.893 18.7186 21.439C15.8156 24.3733 13.2387 27.5655 11.026 30.9682C8.83405 34.2859 6.96335 37.7733 5.4353 41.3903C3.92643 45.0874 3.57177 49.043 3.82179 52.9586C4.05735 56.4828 4.73233 59.9707 5.8336 63.3541C5.8336 63.4847 5.8336 63.6206 5.8336 63.7486C5.86848 67.0548 6.58872 70.3248 7.95592 73.3844C3.96715 66.8885 1.28371 59.4331 1.71689 51.9643H1.71402ZM23.9372 18.1711L23.4342 18.8908C21.1084 22.1907 18.8058 25.5199 16.7969 29.0011C14.788 32.4822 13.3082 36.1979 11.8545 39.9296C9.3165 46.3535 6.85405 52.7747 6.08653 59.5424C5.72312 57.8631 5.44985 56.1652 5.26379 54.4779C4.84514 50.6289 5.08935 46.764 6.31622 43.0536C7.53146 39.3859 9.7119 35.8274 11.7644 32.5062C13.8516 29.1786 16.3004 26.0529 19.0733 23.1769C20.6432 21.487 22.2597 19.7944 23.9401 18.1711H23.9372ZM51.6638 97.2859C47.4018 97.6244 42.8781 96.8807 38.741 95.9825C34.6032 95.0667 30.6545 93.5427 27.0479 91.4698C25.1611 90.4036 23.2889 89.2761 21.5009 88.0526C26.0188 90.7607 31.1152 92.8212 36.0692 94.2979C40.2005 95.5599 44.4962 96.3137 48.8438 96.5396C51.6112 96.6244 54.3815 96.5103 57.1295 96.1984C55.3357 96.6728 53.5535 97.126 51.6667 97.2859H51.6638ZM106.085 55.7734C105.932 59.7462 105.085 63.6707 103.576 67.3976C102.085 71.084 99.5785 74.5305 97.2585 77.8171C94.9385 81.1037 92.1854 83.8971 88.496 85.9815C86.8447 86.9171 85.1091 87.7594 83.4083 88.6203C81.4604 89.6066 79.2567 90.0197 77.2362 90.8594C75.2156 91.699 73.166 92.2934 71.1483 93.0318C70.6338 93.221 70.1221 93.4076 69.6104 93.5862C68.337 93.6501 67.0171 93.5862 65.8309 93.6928C63.4557 93.8954 61.0863 94.1939 58.7169 94.4525C54.0652 94.9616 49.3962 95.2521 44.7387 94.5831C36.2291 93.3703 28.1411 90.1877 21.0386 85.7656C17.0855 83.3152 13.8023 80.0615 11.4446 76.2577C11.575 76.2615 11.7019 76.219 11.7989 76.139C11.8958 76.0591 11.9553 75.9478 11.965 75.8286C12.1133 74.3146 11.4039 73.0405 10.7062 71.7131C9.74969 69.8952 8.8717 68.0427 8.08964 66.1528C7.90745 65.7015 7.73207 65.2466 7.56345 64.7881C7.32214 61.251 7.99372 57.5912 8.68274 54.1714C9.5055 50.0905 11.1743 46.1749 12.7064 42.2806C14.2647 38.333 15.7212 34.38 17.7825 30.6217C19.7129 27.1085 22.0067 23.7713 24.3297 20.4688C25.9073 18.2209 27.4811 15.9694 29.0511 13.7144C31.8605 11.6289 35.0058 9.95549 38.3747 8.75388C39.9498 8.21306 41.5619 7.76785 43.2008 7.42113C43.6078 7.34383 44.0148 7.26922 44.4247 7.20524C45.4422 7.04531 46.4598 7.04799 47.489 6.91205C48.1693 6.82142 48.8321 6.69614 49.5037 6.6455C49.8758 6.6455 50.248 6.61881 50.623 6.61615C51.6784 6.61615 51.6667 5.17145 50.623 5.1208C49.8765 5.09252 49.1287 5.12107 48.3873 5.20612C46.2086 5.35658 44.0493 5.68847 41.9361 6.19768C40.7813 6.46502 39.6421 6.78618 38.523 7.15992L38.3863 7.20791C36.0875 7.97471 33.8526 8.89406 31.6996 9.9587C33.6097 7.39448 35.8075 5.00885 38.8224 3.48952C42.5466 1.62366 47.0616 1.51174 51.1987 1.71432C55.3914 1.9321 59.552 2.51489 63.6243 3.45486C71.7472 5.32072 79.5271 8.70592 85.9696 13.6344C92.4121 18.563 97.1073 25.1734 100.308 32.293C103.742 39.8603 106.396 47.4863 106.088 55.7734H106.085Z" fill="white"/>
<path d="M67.4747 50.4543L49.6177 40.1445C49.4537 40.0498 49.2677 40 49.0784 40C48.8891 40 48.7032 40.0498 48.5392 40.1445C48.3753 40.2392 48.2391 40.3753 48.1445 40.5392C48.0498 40.7032 48 40.8892 48 41.0785V61.6981C47.9993 61.8877 48.0487 62.0741 48.1432 62.2385C48.2377 62.4028 48.3739 62.5393 48.5381 62.6341C48.7023 62.7289 48.8886 62.7786 49.0782 62.7783C49.2677 62.7779 49.4539 62.7275 49.6177 62.6321L67.4747 52.3222C67.6387 52.2276 67.7748 52.0915 67.8695 51.9275C67.9641 51.7636 68.0139 51.5776 68.0139 51.3883C68.0139 51.199 67.9641 51.013 67.8695 50.8491C67.7748 50.6851 67.6387 50.549 67.4747 50.4543ZM49.4237 61.1002V41.6764L66.2451 51.3883L49.4237 61.1002Z" fill="white"/>
<path d="M49.4237 61.1002V41.6764L66.2451 51.3883L49.4237 61.1002Z" fill="white"/>
</svg>
