<svg width="68" height="50" viewBox="0 0 68 50" fill="none" xmlns="http://www.w3.org/2000/svg">
<g opacity="0.6">
<path d="M14.4212 44.3142C14.3717 44.3206 14.3215 44.3172 14.2733 44.3042C14.2251 44.2912 14.1799 44.2687 14.1404 44.2382C14.1009 44.2077 14.0678 44.1697 14.043 44.1264C14.0182 44.083 14.0022 44.0353 13.9959 43.9857C13.9401 43.6278 13.8854 43.2709 13.8317 42.9151C12.9154 40.7114 12.0681 38.4683 11.1485 36.2678C10.0385 33.6093 9.00065 30.8801 8.38158 28.0573C8.31215 28.0489 8.24586 28.0236 8.18858 27.9835C8.13129 27.9434 8.08478 27.8898 8.05315 27.8274C5.86258 23.9783 1.9478 21.3033 0.663673 16.9222C0.5438 16.51 1.1169 16.2801 1.30738 16.6151C1.37131 16.5437 1.45042 16.4876 1.53892 16.4509C3.92654 15.4295 6.46524 14.9319 8.99901 14.4294C11.7068 13.8941 14.3687 13.096 17.0207 12.3325C22.5579 10.7396 28.0754 9.09587 33.6553 7.6541C35.1879 7.25671 36.7205 6.86699 38.2532 6.48492L38.0167 6.33713C37.95 6.29557 37.9018 6.22988 37.8823 6.15373C37.8628 6.07758 37.8734 5.99684 37.9119 5.9283C37.9504 5.85976 38.0138 5.80871 38.089 5.78576C38.1642 5.76281 38.2453 5.76973 38.3156 5.80509C38.6181 5.93285 38.9112 6.08211 39.1924 6.25174L39.6851 6.12858C39.3389 5.93386 39.0093 5.71087 38.6998 5.46189C38.4633 5.26648 38.754 4.92164 39.0069 5.04972C39.5192 5.30753 40.0316 5.60311 40.5373 5.91511C43.7099 5.13128 46.8813 4.3562 50.0517 3.58989C52.6676 2.95111 55.2588 2.20723 57.8517 1.47485C60.2508 0.798304 62.8815 -0.277275 65.4054 0.0659259C65.4298 0.0678799 65.4528 0.0780292 65.4707 0.094726C65.4886 0.111423 65.5003 0.133684 65.5039 0.157884C65.5472 0.155046 65.5906 0.16319 65.6299 0.181562C65.6692 0.199934 65.7033 0.227936 65.7289 0.262976C65.7663 0.272495 65.8011 0.290342 65.8306 0.315179C65.8601 0.340016 65.8837 0.3712 65.8994 0.40641C65.9152 0.441619 65.9229 0.479941 65.9218 0.518513C65.9207 0.557085 65.9109 0.594913 65.8931 0.629168C64.1262 4.45528 61.1458 7.65246 58.9963 11.2651C56.6398 15.2324 54.2489 19.1817 51.9648 23.1934C49.8021 26.9916 47.6526 30.8374 45.7247 34.7604C44.7181 36.8048 43.9447 38.9149 43.191 41.0611C42.5588 42.8675 42.1269 44.7444 41.1318 46.4013C41.1245 46.4124 41.1162 46.4228 41.1071 46.4325C41.2796 46.7116 40.8772 47.068 40.58 46.8266C38.7589 45.3487 36.5421 44.503 34.4073 43.5982C32.0805 42.6129 29.8012 41.4864 27.5023 40.4339C25.7337 39.6227 23.9553 38.8312 22.1933 38.0068C21.1966 39.2811 19.8944 40.2762 18.6973 41.3485C17.5675 42.3568 16.8122 43.6951 15.4476 44.4357C15.3919 44.4656 15.3312 44.4851 15.2686 44.4931C15.2056 44.549 15.1304 44.5894 15.0489 44.6109C14.9675 44.6325 14.8822 44.6346 14.7998 44.6172C14.7174 44.5998 14.6402 44.5633 14.5745 44.5107C14.5087 44.4581 14.4563 44.3907 14.4212 44.3142ZM11.8185 35.6422C12.2438 36.6143 12.7052 37.5881 13.1634 38.5668C12.9039 36.905 12.6281 35.2464 12.3095 33.5879C12.2082 33.5472 12.1216 33.4767 12.0611 33.3858C12.0007 33.295 11.9692 33.1879 11.9708 33.0787C11.9724 32.9695 12.007 32.8634 12.0701 32.7743C12.1332 32.6853 12.2218 32.6174 12.3243 32.5797C12.3961 32.4852 12.4944 32.4143 12.6067 32.376C14.8071 31.5944 16.8417 30.1247 18.7416 28.788C20.9672 27.2247 23.2306 25.7189 25.5317 24.2706C29.9359 21.4954 34.5633 19.1801 39.1071 16.6561C43.6508 14.1322 48.0056 11.3571 52.3507 8.54413C56.1669 6.08097 59.9043 3.36163 63.8454 1.06597C62.2838 1.68669 61.0275 2.48311 59.5907 3.32551C57.7729 4.39124 55.6496 5.15646 53.8072 6.17292C48.8316 8.90977 43.8046 11.5481 38.7261 14.0879C33.7998 16.562 28.8548 19 23.8913 21.4018C19.0717 23.7287 14.1454 26.0868 9.05484 27.7765C8.99569 27.7968 8.93348 27.8068 8.87093 27.806L8.83973 27.8504C9.65585 30.5204 10.6969 33.0821 11.8185 35.6389V35.6422ZM57.6612 2.33368C55.0919 3.15473 52.5017 3.90572 49.8908 4.58665C47.1731 5.2944 44.4505 5.98572 41.7279 6.68197C42.0021 6.86425 42.2714 7.04981 42.5358 7.23208C42.7328 7.36673 42.562 7.69023 42.3519 7.5605C41.9397 7.30597 41.498 7.07937 41.0513 6.8544L40.3813 7.02682C40.9165 7.4109 41.4841 7.74771 42.0776 8.03343C42.1109 8.05726 42.1351 8.09157 42.1465 8.13084C42.1579 8.17012 42.1557 8.21208 42.1404 8.24998C42.125 8.28788 42.0974 8.31952 42.0619 8.33981C42.0264 8.3601 41.9851 8.36786 41.9446 8.36185C41.1053 8.06381 40.2955 7.68834 39.5258 7.24029C37.5268 7.76248 35.5256 8.28358 33.5222 8.80358C28.0951 10.2388 22.7237 11.8595 17.336 13.4327C14.6873 14.2078 12.0271 15.0058 9.32086 15.5526C6.78709 16.065 4.25496 16.5658 1.86898 17.5954C1.81349 17.6188 1.75482 17.6337 1.69492 17.6398C3.24671 21.1752 6.54898 23.5711 8.60654 26.8142C8.64965 26.781 8.69719 26.7539 8.74777 26.7338C13.633 24.8256 18.4198 22.7139 23.1622 20.4937C22.7172 20.3985 22.2738 20.3 21.8255 20.2146C20.6925 19.9945 19.4872 19.9124 18.3886 19.5577C18.2835 19.5249 18.3377 19.3804 18.4395 19.3935C20.1456 19.722 21.8879 19.9945 23.6023 20.2852L25.0539 19.6021C24.3067 19.4494 23.5678 19.2572 22.8124 19.1357C21.7537 18.9854 20.7098 18.7442 19.6924 18.4148C19.6785 18.4088 19.6674 18.3978 19.6612 18.384C19.655 18.3702 19.6542 18.3545 19.6589 18.3402C19.6637 18.3258 19.6736 18.3137 19.6868 18.3062C19.6999 18.2988 19.7154 18.2965 19.7302 18.2999C20.7434 18.5873 21.7861 18.6973 22.8272 18.8451C23.7451 18.9732 24.6335 19.2063 25.5498 19.3689L26.5893 18.8763C24.783 18.5478 23.0128 18.111 21.2163 17.7613C21.1621 17.7498 21.1785 17.6578 21.2344 17.6644C23.2049 17.891 25.1459 18.3065 27.1016 18.63L28.3595 18.0404C26.4281 17.8374 24.5219 17.4413 22.6696 16.8581C22.5809 16.8302 22.6252 16.7054 22.7139 16.7235C24.76 17.1422 26.8307 17.3934 28.8784 17.7892L30.2216 17.1323C28.3209 16.9018 26.4439 16.5056 24.6122 15.9484C24.6014 15.9459 24.592 15.9393 24.5859 15.93C24.5799 15.9207 24.5778 15.9094 24.5799 15.8986C24.582 15.8877 24.5883 15.8781 24.5974 15.8718C24.6065 15.8654 24.6177 15.8629 24.6286 15.8646C26.6763 15.9747 28.7339 16.5625 30.7668 16.8663L31.665 16.4279C29.9326 16.0995 28.2544 15.3999 26.4875 15.3195C26.4631 15.3195 26.4397 15.3098 26.4224 15.2925C26.4052 15.2753 26.3955 15.2519 26.3955 15.2275C26.3955 15.2031 26.4052 15.1797 26.4224 15.1625C26.4397 15.1452 26.4631 15.1355 26.4875 15.1355C27.3981 15.1684 28.3018 15.3067 29.1805 15.5477C30.1264 15.7793 31.1149 15.9123 32.0411 16.2046C32.054 16.2101 32.0661 16.2173 32.0772 16.2259L33.1232 15.7136C31.578 15.3851 30.0738 14.8925 28.5155 14.6511C28.3989 14.6331 28.4022 14.4541 28.5237 14.4672C30.2397 14.656 31.936 15.1241 33.6323 15.464L34.6898 14.9451C33.2895 14.7598 31.9024 14.4856 30.5369 14.124C30.3727 14.0797 30.4564 13.8383 30.6157 13.881C32.1182 14.2882 33.6585 14.4574 35.1939 14.702L36.0429 14.2833C34.8491 14.1076 33.6684 13.8514 32.4795 13.6445C32.335 13.6199 32.3432 13.39 32.491 13.4146C33.8244 13.6396 35.1545 13.876 36.4945 14.0616L37.2268 13.702C36.2498 13.5558 35.2711 13.3259 34.3088 13.1404C34.2004 13.119 34.2349 12.9318 34.3433 12.9499C35.4468 13.1305 36.5946 13.2274 37.6883 13.4754L38.6456 13.0057C37.7195 12.8842 36.8048 12.6494 35.8836 12.4983C35.767 12.4786 35.7703 12.2947 35.8918 12.3095C36.9674 12.4523 38.0265 12.6379 39.1071 12.7775L39.4076 12.6297L39.9642 12.3555C39.3895 12.2832 38.8148 12.1798 38.2433 12.1042C38.1284 12.0878 38.1316 11.9104 38.2532 11.9187C38.9888 11.9712 39.7311 12.0385 40.4618 12.1091L41.0152 11.8349C40.6934 11.7852 40.3753 11.7145 40.0628 11.6231C40.0317 11.6115 40.0062 11.5884 39.9919 11.5585C39.9775 11.5286 39.9753 11.4942 39.9857 11.4627C39.9962 11.4312 40.0184 11.405 40.0478 11.3896C40.0772 11.3742 40.1114 11.3707 40.1432 11.38C40.5821 11.5003 41.0322 11.5746 41.4865 11.6017L42.1285 11.2832L42.0382 11.2684C41.8198 11.2372 41.5981 11.2093 41.3814 11.1846C41.353 11.1803 41.3273 11.1656 41.3091 11.1434C41.2909 11.1212 41.2815 11.0931 41.2827 11.0645C41.2839 11.0358 41.2957 11.0086 41.3157 10.988C41.3357 10.9675 41.3626 10.9551 41.3912 10.9531C41.8006 10.9371 42.2106 10.9679 42.613 11.0451C46.5759 9.07453 50.517 7.05254 54.4361 4.97911C57.6629 3.26475 61.8043 1.03805 64.9456 0.354933C62.4562 0.530639 60.0127 1.58323 57.6612 2.33368ZM27.5975 39.3977C30.0147 40.5472 32.4188 41.7131 34.8474 42.8248C36.7129 43.6803 38.6243 44.5112 40.2664 45.7296C41.2254 44.0875 41.6589 42.2155 42.2911 40.4355C42.9716 38.458 43.7583 36.5186 44.6475 34.6257C46.5359 30.6978 48.7429 26.8832 50.899 23.0965C53.1816 19.0865 55.6102 15.1635 58.0061 11.2224C60.1113 7.76084 62.6417 4.58665 64.9029 1.22361C60.9849 4.05953 56.8566 6.64256 52.8367 9.34219C48.4178 12.298 43.9349 15.1651 39.2926 17.7678C34.7555 20.3098 30.1559 22.6646 25.76 25.4595C23.4611 26.9209 21.2114 28.4547 18.9912 30.0311C17.4279 31.1412 15.7727 32.2808 14.0058 33.0821C16.0338 33.8408 17.9764 34.8014 19.9174 35.7686C22.4462 37.0265 25.0342 38.1875 27.5975 39.3977ZM21.6597 37.7457C21.1555 37.5076 20.6514 37.2695 20.1522 37.0232C17.7383 35.8392 15.3474 34.6027 12.7923 33.7505C12.8662 33.9787 12.9384 34.2103 13.0107 34.4418C13.0352 34.4453 13.059 34.4525 13.0813 34.4632C14.3786 35.0412 15.6069 35.7456 16.8975 36.3351C18.2654 36.9591 19.6169 37.5815 20.878 38.4026C21.1424 38.1858 21.4019 37.9658 21.6597 37.7457ZM20.6744 38.5668C19.4885 37.9652 18.2722 37.4253 17.0306 36.9493C15.7169 36.4189 14.4919 35.7341 13.2159 35.143C13.2991 35.4156 13.3812 35.6893 13.4623 35.964L13.5 35.9788C15.6085 37.0659 17.7695 38.2778 19.9716 39.1399C20.2102 38.9428 20.4467 38.7518 20.681 38.5668H20.6744ZM19.7991 39.2729C18.7 38.8991 17.6227 38.4638 16.5724 37.969C15.62 37.5273 14.6134 37.148 13.6708 36.6866C13.771 37.0462 13.8679 37.4058 13.9615 37.7687C14.7973 37.8902 15.5707 38.3944 16.3573 38.6899C17.2736 39.0364 18.116 39.5258 19.0126 39.9035C19.2802 39.6851 19.543 39.4765 19.8057 39.2663L19.7991 39.2729ZM18.0405 40.7015C18.2933 40.4897 18.5479 40.2828 18.804 40.0759C18.0519 39.8411 17.3261 39.5323 16.5757 39.2811C15.7891 39.0151 14.9336 38.5963 14.1207 38.3829C14.1831 38.6407 14.2423 38.9001 14.2981 39.1579C15.5077 39.7459 16.7476 40.2693 18.0125 40.7262L18.0405 40.7015ZM15.1881 43.4258C15.4235 43.2721 15.6469 43.1008 15.8565 42.9134C15.5166 42.8084 15.1869 42.6732 14.8712 42.5095C14.9796 42.81 15.0879 43.1154 15.1881 43.4225V43.4258ZM14.7595 41.8477C15.2172 42.1296 15.6922 42.3824 16.1816 42.6047C16.3573 42.4307 16.5248 42.25 16.6923 42.0677C16.3261 41.9446 15.9648 41.8099 15.6019 41.6769C15.3096 41.5702 14.9943 41.4881 14.6971 41.3715C14.7201 41.5226 14.7415 41.6868 14.7595 41.851V41.8477ZM16.9862 41.7459C17.2128 41.4979 17.4444 41.2533 17.689 41.0184C17.1288 40.8638 16.5801 40.6702 16.0469 40.4388C15.5215 40.2253 14.9763 40.0512 14.4475 39.8443C14.5034 40.1334 14.5559 40.424 14.6035 40.713C15.395 41.048 16.1882 41.4027 16.9862 41.7426V41.7459Z" fill="#50735F"/>
<path d="M30.1416 43.7197C32.209 44.1877 34.0399 45.3996 35.9464 46.2847C37.9777 47.2223 39.9876 48.247 41.9335 49.3324C41.9603 49.3474 41.9851 49.3656 42.0074 49.3866C42.5395 48.5426 42.7513 47.5803 43.014 46.6148C43.3096 45.5293 43.8466 44.5687 44.3589 43.5736C45.5994 41.1682 46.7078 38.697 47.6793 36.171C47.6847 36.1578 47.6948 36.147 47.7076 36.1407C47.7203 36.1344 47.735 36.1328 47.7488 36.1364C47.7626 36.14 47.7746 36.1485 47.7827 36.1603C47.7907 36.1721 47.7942 36.1864 47.7926 36.2005C47.4198 38.7655 46.2194 41.2073 45.0568 43.4964C44.4558 44.682 43.8564 45.7954 43.4952 47.0877C43.2111 48.091 42.927 49.0582 42.2981 49.899C42.277 49.9248 42.2506 49.9459 42.2207 49.9608C42.1909 49.9758 42.1582 49.9842 42.1249 49.9856C42.0915 49.987 42.0582 49.9813 42.0273 49.9689C41.9963 49.9566 41.9682 49.9377 41.945 49.9138C41.8955 49.9501 41.8362 49.9709 41.7748 49.9735C41.7135 49.9761 41.6527 49.9605 41.6002 49.9285C39.7758 48.9154 37.9005 47.9367 36.017 47.0335C34.0465 46.0942 32.1433 44.7345 30.0332 44.1664C29.9739 44.152 29.9228 44.1147 29.8911 44.0627C29.8594 44.0106 29.8497 43.9481 29.864 43.8889C29.8784 43.8296 29.9157 43.7785 29.9678 43.7468C30.0198 43.7151 30.0823 43.7054 30.1416 43.7197Z" fill="#50735F"/>
<path d="M15.7724 33.3581C15.7332 33.3449 15.6974 33.3234 15.6673 33.2951C15.6373 33.2667 15.6137 33.2322 15.5983 33.1939C15.5441 33.2168 15.4916 33.2415 15.4341 33.2628C15.1057 33.3925 14.9546 32.8671 15.2798 32.7406C18.1978 31.6158 20.3621 29.151 23.1372 27.8143C23.1656 27.7971 23.1995 27.7919 23.2317 27.7997C23.2639 27.8076 23.2916 27.8279 23.3088 27.8562C23.326 27.8845 23.3313 27.9185 23.3234 27.9507C23.3156 27.9828 23.2953 28.0106 23.267 28.0278C20.9204 29.642 18.7824 31.693 16.1878 32.9344C17.2831 33.4008 18.2963 34.0412 19.3571 34.5765C20.8974 35.3598 22.4771 36.0544 24.0306 36.8196C24.1554 36.882 24.0716 37.1021 23.9386 37.0495C22.5822 36.5175 21.2308 35.9723 19.9039 35.3729C18.518 34.7358 17.2043 33.8852 15.7724 33.3581Z" fill="#50735F"/>
<path d="M54.0088 9.3947C56.8989 7.71482 59.3539 5.33212 62.1553 3.50774C62.4739 3.30084 62.7777 3.80332 62.4607 4.00858C59.6462 5.82968 57.1304 8.06952 54.1582 9.64101C53.9957 9.72804 53.8479 9.48994 54.0088 9.3947Z" fill="#50735F"/>
<path d="M64.944 4.51113C65.6534 3.47496 66.6764 2.40595 67.0492 1.18915C67.0588 1.16206 67.0782 1.13956 67.1036 1.12609C67.129 1.11261 67.1585 1.10914 67.1864 1.11635C67.2142 1.12356 67.2383 1.14094 67.2539 1.16505C67.2696 1.18917 67.2756 1.21827 67.2709 1.24662C67.1231 2.28772 66.3726 3.19745 65.816 4.05791C65.0343 5.26322 64.2281 6.44553 63.4858 7.67055C63.3101 7.9612 62.8454 7.70175 63.026 7.41273C63.6402 6.43075 64.2872 5.47176 64.944 4.51113Z" fill="#50735F"/>
<path d="M6.95763 23.1309C7.77239 24.0683 8.50475 25.0743 9.14656 26.1376C9.17018 26.181 9.17616 26.2319 9.16325 26.2796C9.15034 26.3273 9.11954 26.3682 9.07724 26.3938C9.03495 26.4194 8.98442 26.4277 8.93617 26.417C8.88791 26.4063 8.84564 26.3774 8.81814 26.3363C8.09233 25.0932 7.11528 23.8616 6.18256 22.7729C5.36972 21.8271 4.35653 20.9978 3.73582 19.9058C3.72361 19.8818 3.72094 19.854 3.72836 19.8281C3.73578 19.8022 3.75274 19.78 3.77582 19.7661C3.7989 19.7522 3.8264 19.7475 3.85279 19.753C3.87919 19.7585 3.90251 19.7738 3.91809 19.7958C4.74079 21.0241 5.997 21.9946 6.95763 23.1309Z" fill="#50735F"/>
<path d="M9.92235 25.737C9.94826 25.7805 9.95581 25.8326 9.94334 25.8817C9.93087 25.9308 9.89939 25.973 9.85584 25.9989C9.81229 26.0248 9.76023 26.0323 9.71111 26.0199C9.66199 26.0074 9.61984 25.9759 9.59393 25.9324C8.31473 23.9356 6.60693 22.1851 4.99603 20.4527C4.90407 20.3541 5.04365 20.2063 5.14218 20.3016C6.85654 21.9667 8.66449 23.6909 9.92235 25.737Z" fill="#50735F"/>
<path d="M10.6149 25.54C10.766 25.7502 10.4211 25.9587 10.2717 25.7485C9.114 24.1245 7.91854 22.1934 6.33063 20.9437C6.28957 20.9109 6.33062 20.8452 6.37989 20.8567C7.12705 21.0455 7.85778 22.0899 8.35042 22.6384C9.1587 23.5626 9.9147 24.5313 10.6149 25.54Z" fill="#50735F"/>
<path d="M11.4704 25.0374C11.5722 25.2476 11.2734 25.4381 11.1584 25.2279C10.8021 24.5793 10.2109 24.0144 9.72813 23.4528C9.12548 22.7549 8.46206 22.1079 7.80029 21.4675C7.68863 21.3591 7.8512 21.1916 7.9645 21.2934C8.66076 21.9027 9.33074 22.5316 9.96295 23.2065C10.4802 23.7566 11.1354 24.3527 11.4704 25.0374Z" fill="#50735F"/>
<path d="M11.717 25.09C11.1291 23.9077 9.95993 23.0275 9.41804 21.8058C9.41566 21.8019 9.41448 21.7975 9.41463 21.793C9.41479 21.7884 9.41627 21.7841 9.4189 21.7804C9.42153 21.7767 9.42519 21.7739 9.42942 21.7723C9.43365 21.7707 9.43825 21.7703 9.44267 21.7713C9.7481 21.8173 10.1948 22.5727 10.3672 22.7796C10.9156 23.4364 11.6546 24.1179 12.0093 24.9143C12.1012 25.1097 11.8172 25.292 11.717 25.09Z" fill="#50735F"/>
<path d="M12.4505 24.7403C12.1828 24.443 12.0088 24.0834 11.769 23.755C11.4505 23.328 11.1631 22.8814 10.833 22.461C10.7509 22.3543 10.9299 22.2114 11.0186 22.3132C11.613 23.0128 12.1089 23.7911 12.6804 24.4972C12.8085 24.6647 12.595 24.9028 12.4505 24.7403Z" fill="#50735F"/>
<path d="M3.58972 23.021C4.37301 23.8289 5.06762 24.7272 5.83777 25.5597C6.56358 26.3545 7.35344 27.2281 7.85592 28.1871C7.87507 28.2239 7.88142 28.2661 7.87398 28.307C8.18106 29.2922 8.47171 30.289 8.76236 31.2825C8.99554 32.0871 9.31575 32.8638 9.38965 33.7046C9.38965 33.7768 9.2747 33.7965 9.26156 33.7243C8.92329 31.9426 8.11209 30.1018 7.4848 28.3989C7.47254 28.3638 7.47254 28.3256 7.4848 28.2905C6.43878 26.3857 4.65053 24.9521 3.49284 23.108C3.48384 23.0949 3.47992 23.0789 3.48182 23.0631C3.48372 23.0473 3.49129 23.0327 3.50314 23.0221C3.51499 23.0114 3.53031 23.0054 3.54624 23.0053C3.56216 23.0051 3.57762 23.0107 3.58972 23.021Z" fill="#50735F"/>
</g>
</svg>
