<svg width="150" height="124" viewBox="0 0 150 124" fill="none" xmlns="http://www.w3.org/2000/svg">
<path d="M142.633 29.4948C140.007 25.4791 136.405 22.1878 132.734 18.901C129.063 15.6142 125.259 12.4528 120.87 9.78849C112.98 5.01722 103.474 2.06144 93.0982 1.15342C82.3303 0.203551 70.8502 1.48276 59.6866 4.24198C49.3118 6.80568 37.1261 10.5392 29.8053 18.2365C26.4835 21.7295 24.7647 25.9709 23.3882 29.9537C23.0501 30.9146 22.7308 31.8781 22.4116 32.8415L21.4131 33.9287C17.7461 37.9807 14.485 42.0953 11.8551 46.5615C9.27299 50.9471 7.25514 55.4872 5.36196 60.0037C3.34196 64.6803 1.91144 69.4282 1.09541 74.1646C0.324882 78.9754 0.803378 83.4678 1.75537 87.9578C2.74787 92.5911 4.34204 97.0201 7.28591 100.818C10.0783 104.335 13.3949 107.513 17.1772 110.295C24.6452 115.913 34.1596 120.312 44.7263 121.878C50.2303 122.697 56.0143 123.215 61.8141 123.046C67.3239 122.879 72.933 121.88 78.4507 120.458C84.0946 119.006 89.8116 117.227 94.9298 114.353C97.6515 112.826 100.117 110.879 102.704 109.185C105.291 107.492 108.257 106.334 110.93 104.677C112.687 103.531 114.353 102.283 115.91 100.947C116.603 100.584 117.256 100.159 117.853 99.6831C118.073 99.5081 118.221 99.2829 118.267 99.0518C120.417 97.3628 122.603 95.7069 124.649 93.9277C126.78 92.0728 129.257 90.594 131.29 88.6398C133.323 86.6856 135.369 84.6207 137.269 82.5606C140.86 78.6724 143.138 74.4855 144.794 70.0454C146.564 65.2932 148.11 60.2651 148.871 55.4854C150.344 46.0584 147.538 36.9968 142.633 29.4948ZM27.8159 112.104C25.6424 110.687 23.7085 109.05 22.0476 107.219C24.0325 108.652 26.9131 109.965 27.8159 112.104ZM5.05362 91.3285C2.8608 84.65 2.30687 77.6542 4.08241 70.2671C5.78157 63.2309 8.98524 56.0749 12.6227 49.2694C14.1351 46.4638 15.9082 43.723 17.9236 41.0752C16.5036 43.6437 15.2152 46.2606 13.8968 48.7707C11.3717 53.5441 9.39223 58.4243 7.98767 63.3389C6.5726 68.1493 5.65738 72.9726 5.25248 77.7535C4.90857 82.6116 6.20412 87.1317 8.28035 91.2826C10.1629 95.013 12.6096 98.4672 15.5726 101.578C15.6308 101.721 15.6914 101.869 15.7485 102.009C17.2689 105.609 19.6781 108.801 22.8479 111.414C14.684 106.45 7.81586 99.7343 5.05742 91.327L5.05362 91.3285ZM19.3307 42.3864L18.9875 43.4447C17.3877 48.3076 15.8317 53.1902 14.7311 58.081C13.6306 62.9719 13.3334 67.8348 13.0779 72.7011C12.5909 81.0973 12.2025 89.4499 14.2069 97.2698C12.9781 95.6275 11.8601 93.9162 10.862 92.1697C8.59286 88.1823 7.19187 83.8209 7.15744 79.0999C7.12667 74.4319 8.41922 69.3641 9.64864 64.6249C10.921 59.8599 12.7608 55.1216 15.1401 50.482C16.4596 47.7877 17.8394 45.0656 19.3346 42.3848L19.3307 42.3864ZM91.2235 114.057C85.7463 116.72 79.441 118.34 73.5774 119.583C67.705 120.807 61.811 121.264 56.1241 120.935C53.1571 120.784 50.1819 120.557 47.2752 120.18C54.4489 120.713 62.0977 120.226 69.298 119.177C75.3163 118.335 81.325 116.849 87.1668 114.757C90.859 113.361 94.4665 111.746 97.9562 109.926C95.799 111.41 93.6477 112.865 91.2274 114.055L91.2235 114.057ZM144.577 39.3427C146.146 43.7733 146.777 48.5243 146.447 53.4149C146.122 58.252 144.349 63.3724 142.751 68.2177C141.153 73.0629 138.763 77.6015 134.821 81.8678C133.057 83.7802 131.141 85.6359 129.279 87.4932C127.146 89.6207 124.421 91.2585 122.127 93.2646C119.833 95.2706 117.391 97.0239 115.056 98.9176C114.461 99.4016 113.869 99.8811 113.273 100.352C111.62 101.107 109.848 101.747 108.329 102.502C105.283 104.002 102.287 105.603 99.2738 107.161C93.3582 110.221 87.3221 113.051 80.8735 114.825C69.0956 118.076 56.9959 118.944 45.645 117.926C39.332 117.371 33.5456 115.576 28.7361 112.681C28.9099 112.615 29.0586 112.501 29.1509 112.361C29.2433 112.221 29.2723 112.067 29.2319 111.932C28.7526 110.195 27.2477 109.182 25.7344 108.105C23.6607 106.63 21.6752 105.075 19.7998 103.427C19.3579 103.031 18.9235 102.628 18.4963 102.216C16.6004 98.4751 15.8553 94.1083 15.2402 89.9947C14.5069 85.0856 14.9645 79.9023 15.2511 74.8158C15.5486 69.6569 15.7093 64.5469 16.7553 59.3245C17.7379 54.4409 19.2788 49.5543 20.8736 44.69C21.9546 41.3809 23.0288 38.07 24.0964 34.7573C26.8764 30.9632 30.2836 27.4395 34.1965 24.3118C36.0353 22.8725 37.9656 21.5178 39.9752 20.2566C40.4782 19.953 40.9824 19.6524 41.4951 19.3618C42.7675 18.6393 44.1124 18.0947 45.4109 17.3922C46.2688 16.927 47.0882 16.4333 47.9525 16.0165C48.4439 15.8163 48.9234 15.5869 49.4175 15.3822C50.8111 14.8144 50.1515 13.2395 48.7507 13.7456C47.7523 14.1163 46.7775 14.5499 45.8364 15.0418C43.0264 16.3787 40.323 17.9037 37.7596 19.598C36.3538 20.5119 34.9927 21.4763 33.6815 22.4875L33.5225 22.6135C30.8287 24.6896 28.2875 26.8982 25.9191 29.2218C27.298 25.3877 29.1365 21.5942 32.4402 18.3093C36.5261 14.2634 42.4384 11.7117 47.9918 9.7076C53.6255 7.69016 59.3796 6.08947 65.1764 4.92719C76.7349 2.59894 88.518 2.11814 99.2232 4.04595C109.928 5.97377 119.076 10.6825 126.478 16.7524C134.386 23.1873 141.292 30.1055 144.581 39.3412L144.577 39.3427Z" fill="#C58A46"/>
</svg>
